<svg width="225" height="256" viewBox="0 0 225 256" fill="none" xmlns="http://www.w3.org/2000/svg">
<g id="Frame" clip-path="url(#clip0_4128_10123)">
<g id="Layer_4">
<path id="Vector" d="M120.444 26.6056C120.444 26.6056 108.587 30.6275 108.909 34.0884C109.232 37.5493 109.836 50.2526 110.732 51.4405C111.629 52.6283 117.867 53.5119 119.851 51.7521C121.835 49.9924 122.74 50.6009 123.442 53.6402C124.145 56.6795 127.506 63.6196 126.66 64.4445C125.815 65.2694 122.373 66.7836 121.96 66.076C121.546 65.3684 119.774 66.9192 120.924 64.0449C122.073 61.1706 122.059 61.1046 121.656 59.8104C121.253 58.5163 120.06 57.6327 120.06 57.6327C120.06 57.6327 116.974 56.8225 116.685 57.871C116.396 58.9196 114.712 58.7876 115.495 59.9534C116.278 61.1193 115.832 65.6104 115.832 65.6104L116.52 71.1353L115.872 73.2214L112.105 74.5412C112.105 74.5412 110.096 75.1608 109.309 75.2048C108.521 75.2488 106.958 77.9288 106.958 77.9288C106.958 77.9288 105.263 79.9416 104.714 81.0964C104.165 82.2513 104.206 81.7747 103.235 82.3393C102.265 82.9039 100.204 84.539 99.4796 85.1329C98.7548 85.7268 95.6725 89.5324 95.6725 89.5324C95.6725 89.5324 92.2571 93.1986 90.9026 91.3068C89.5482 89.415 89.9728 88.4875 87.2602 89.4994C84.5477 90.5112 83.8119 93.1509 83.3872 93.8181C82.9626 94.4854 84.6465 96.2122 85.1407 96.9308C85.6349 97.6493 85.4592 99.5924 86.2609 100.359C87.0625 101.125 88.5049 105.018 88.5049 105.018C88.5049 105.018 88.6549 107.984 88.5854 108.787C88.5158 109.59 87.5055 112.571 87.5055 112.571C87.5055 112.571 86.4402 113.55 85.7923 113.755C85.1444 113.96 83.9803 113.348 82.8345 113.88C81.6887 114.411 79.7229 114.012 79.7229 114.012L74.5174 112.776L70.8201 111.717L66.7604 113.308C66.7604 113.308 65.3364 114.378 65.5634 114.727C65.7903 115.075 66.3541 118.103 66.3541 118.103C66.3541 118.103 66.2589 121.912 66.0759 122.506C65.8928 123.1 65.7135 126.202 64.7251 127.547C63.7367 128.893 62.0235 130.436 62.741 130.99C63.4585 131.543 62.9789 134.704 63.4365 135.84C63.8941 136.977 65.5634 139.257 65.5634 139.257C65.5634 139.257 66.9288 140.79 68.0234 140.049C69.1179 139.308 70.8421 140.9 70.8421 140.9L72.3979 144.199L72.1563 147.653C72.1563 147.653 70.7249 148.991 70.5968 150.032C70.4687 151.073 68.5468 151.971 67.5475 152.32C66.5481 152.668 64.8678 154.571 64.0149 153.999C63.162 153.427 62.5104 154.626 62.0381 154.978C61.5659 155.33 60.2591 156.734 59.9442 157.324C59.6294 157.914 58.8241 158.428 58.4909 159.539C58.1578 160.649 56.9827 162.831 56.5178 163.703C56.0529 164.576 54.3617 165.962 54.3617 165.962L52.8096 168.748" stroke="white" strokeWidth="1.5" stroke-miterlimit="10"/>
<path id="Vector_2" d="M141.281 30.1472C141.281 30.1472 135.764 34.8179 135.486 36.2991C135.208 37.7802 135.365 41.2521 135.673 42.4986C135.98 43.7451 137.807 46.6671 137.807 46.6671C137.807 46.6671 138.645 48.3975 139.22 49.4681C139.795 50.5386 137.532 53.6366 137.532 53.6366C137.532 53.6366 135.973 54.4211 135.735 55.18C135.497 55.9389 134.981 60.2577 134.981 60.2577L134.018 64.4409C134.018 64.4409 132.77 65.6214 131.609 66.0723C130.449 66.5233 128.974 67.5278 128.589 67.6891C128.205 67.8504 126.653 67.9934 125.906 68.5177C125.159 69.0419 123.651 69.5259 123.322 70.3178C122.992 71.1097 123.168 72.4845 123.168 72.4845L124.365 73.4194L129.783 72.8951C129.783 72.8951 132.561 75.0435 133.118 74.083C133.674 73.1224 135.552 72.7961 136.108 72.4442C136.665 72.0922 138.411 71.6486 138.942 72.0372C139.473 72.4258 142.365 72.2755 142.365 72.2755C142.365 72.2755 142.998 73.7237 144.063 70.919C145.128 68.1144 145.432 68.9759 145.432 68.9759C145.432 68.9759 146.113 65.1374 146.216 64.4409C146.318 63.7443 146.457 60.4484 146.457 60.4484C146.457 60.4484 148.123 58.9525 148.676 59.4951C149.228 60.0377 149.836 61.4566 150.817 61.0423C151.798 60.628 151.849 61.5665 151.992 59.8104C152.135 58.0543 151.893 55.2094 151.882 54.7767C151.871 54.3441 151.659 51.7888 151.659 51.7888C151.659 51.7888 152.351 51.6201 155.287 50.7293C158.223 49.8384 159.683 50.2343 159.68 51.8254C159.676 53.4166 159.229 54.0728 158.9 54.7767C158.57 55.4807 158.552 59.4805 158.724 59.9094C158.896 60.3384 161.001 64.4445 161.001 64.4445L164.405 66.076C164.405 66.076 167.067 70.0171 167.045 70.7797C167.023 71.5423 167.199 71.9529 167.737 73.8777C168.275 75.8024 169.022 77.4009 169.508 77.9252C169.995 78.4494 169.366 80.7481 169.53 81.2394C169.695 81.7307 170.244 84.1027 170.914 84.3263C171.584 84.55 174.081 85.8845 174.081 85.8845L179.066 89.7303L184.678 93.4662C184.678 93.4662 188.786 93.6348 189.774 94.0601C190.762 94.4854 194.668 95.8199 194.668 95.8199C194.668 95.8199 196.184 98.8555 197.11 99.2515C198.036 99.6474 199.358 99.5594 200.284 99.9334" stroke="white" strokeWidth="1.5" stroke-miterlimit="10"/>
<path id="Vector_3" d="M166.708 144.511C166.708 144.511 165.968 143.843 164.31 142.329C162.652 140.815 162.282 141.123 162.267 140.108C162.253 139.092 162.103 138.828 162.176 138.033C162.249 137.237 161.619 133.989 161.535 133.831C161.451 133.673 161.583 131.283 160.627 131.147C159.672 131.012 159.983 130.447 158.372 130.894C156.762 131.342 155.063 131.353 154.723 131.679C154.382 132.005 153.731 132.695 153.734 133.164C153.738 133.633 153.485 134.854 153.734 135.052C153.983 135.25 154.73 135.932 154.968 136.086C155.206 136.24 155.166 137.86 155.166 137.86C155.166 137.86 155.1 138.56 155.305 138.956C155.51 139.352 157.142 139.345 157.249 139.855C157.355 140.364 158.003 140.771 158.043 140.984C158.083 141.196 157.249 142.931 157.249 142.931C157.249 142.931 154.664 144.276 154.832 144.507C155.001 144.738 154.349 148.217 154.349 148.217C154.349 148.217 152.834 149.35 151.293 147C149.751 144.65 149.51 144.47 149.433 142.608C149.356 140.746 148.957 139.088 148.759 138.689C148.562 138.289 146.574 133.453 146.113 133.189C145.651 132.926 145.128 131.129 145.004 129.102C144.879 127.074 144.718 126.546 143.763 125.234C142.807 123.921 140.691 123.522 140.263 123.056C139.835 122.59 138.729 121.12 138.334 120.864C137.938 120.607 134.871 117.898 134.739 117.696C134.607 117.494 134.011 116.01 133.945 115.856C133.879 115.702 133.103 114.213 133.103 114.213C133.103 114.213 131.43 113.22 131.1 112.739C130.771 112.259 129.043 110.62 129.08 110.279C129.116 109.938 127.33 109.546 127.33 109.546C127.33 109.546 126.847 109.869 126.792 110.367C126.737 110.866 125.942 111.61 125.942 111.61C125.942 111.61 125.745 112.585 125.745 112.915C125.745 113.245 126.239 116.255 126.239 116.255L128.168 118.371C128.168 118.371 129.025 118.88 129.208 119.214C129.391 119.548 129.365 120.765 129.504 121.113C129.643 121.461 131.056 123.683 131.199 123.87C131.342 124.057 132.953 125.197 132.953 125.197C132.953 125.197 134.274 125.395 134.475 125.38C134.677 125.366 135.929 125.619 136.093 125.626C136.258 125.633 137.075 125.626 137.093 125.974C137.111 126.323 136.412 126.499 136.767 126.961C137.122 127.423 137.561 127.936 138.037 128.306C138.513 128.676 139.289 128.647 139.556 129.256C139.824 129.864 141.05 130.619 141.339 130.795C141.628 130.971 143.038 132.332 143.188 132.816C143.338 133.299 143.58 134.502 142.997 134.539C142.415 134.575 142.811 134.7 142.016 134.539C141.222 134.377 140.439 133.849 140.336 133.684C140.234 133.519 140.164 132.984 139.571 133.318C138.978 133.651 138.462 133.585 138.685 134.113C138.909 134.641 139.897 135.822 139.747 136.581C139.597 137.34 139.256 137.53 138.938 138.249C138.619 138.967 137.539 139.759 137.528 140.361C137.517 140.962 135.998 141.966 135.735 142.608C135.471 143.25 134.863 145.556 134.863 145.556C134.863 145.556 134.545 146.443 134.347 146.567C134.15 146.692 132.36 147.238 132.36 147.238C132.36 147.238 128 144.874 129.124 142.604C130.247 140.335 130.028 141.248 131.448 141.138C132.868 141.028 133.161 141.409 133.82 140.973C134.479 140.537 135.402 139.866 135.68 139.411C135.958 138.956 136.47 137.567 136.47 137.567C136.47 137.567 136.035 136.397 135.489 135.946C134.944 135.496 133.688 133.978 133.425 133.747C133.161 133.516 131.547 132.167 131.547 132.167C131.547 132.167 130.767 131.386 130.54 130.792C130.313 130.198 129.515 128.071 129.515 128.071C129.515 128.071 128.179 126.766 126.803 125.967C125.426 125.168 123.761 123.907 123.761 123.907C123.761 123.907 123.292 123.177 123.201 122.847C123.109 122.517 121.993 119.207 121.993 119.207C121.993 119.207 121.93 118.143 121.231 117.513C120.532 116.882 119.339 114.309 118.215 114.305C117.091 114.301 116.187 115.207 115.594 115.731C115.001 116.255 113.068 117.055 112.731 117.597C112.394 118.14 111.472 119.126 110.875 119.463C110.278 119.801 109.286 120.229 108.723 119.98C108.159 119.731 104.48 117.333 104.106 117.308C103.733 117.282 102.693 116.571 102.188 117.025C101.683 117.48 101.017 118.008 100.984 118.338C100.951 118.668 100.834 120.321 101.057 121.285C101.28 122.25 101.394 123.155 101.134 123.613C100.874 124.072 99.2304 125.113 98.6337 125.567C98.037 126.022 96.0859 126.763 95.6722 126.957C95.2586 127.151 92.4984 128.607 92.4252 128.871C92.352 129.135 91.2062 130.209 91.3453 130.726C91.4844 131.243 90.4448 132.273 90.9024 133.952C91.36 135.631 91.1367 137.09 91.1367 137.09C91.1367 137.09 90.5985 138.608 90.3496 138.81C90.1007 139.011 88.6986 139.352 88.4131 139.554C88.1276 139.756 87.2563 140.093 87.0587 140.346C86.861 140.599 85.4516 141.838 85.4516 141.838L84.2216 142.674L83.7531 143.396C83.7531 143.396 82.7866 144.159 81.9337 143.81C81.0808 143.462 82.545 143.726 79.4774 143.649C76.4097 143.572 77.1748 142.923 76.1974 143.649C75.22 144.375 74.1401 143.594 74.3195 144.716C74.4989 145.838 74.2756 144.995 74.4915 145.985C74.7075 146.974 75.4397 147.264 75.4506 147.627C75.4616 147.99 76.9405 148.148 76.9405 148.148L78.888 148.412C78.888 148.412 79.8105 149.024 80.0009 148.943C80.1912 148.863 81.1064 149.475 82.1643 149.475C83.2223 149.475 83.1564 149.937 84.7451 148.943C86.3338 147.95 85.9348 147.616 87.3918 146.989C88.8487 146.362 89.2111 145.347 90.2178 145.259C91.2245 145.171 91.51 145.127 92.8572 144.716C94.2043 144.305 96.7741 143.228 97.3086 143.338C97.843 143.448 100.219 143.363 100.98 143.338C101.742 143.312 103.89 143.433 104.571 143.308C105.252 143.184 108.027 143.367 108.291 143.308C108.554 143.25 110.593 142.982 110.593 142.982L113.793 143.975C113.793 143.975 116.685 144.305 117.182 144.107C117.68 143.909 118.687 142.876 118.885 142.982C119.082 143.088 119.884 143.378 120.137 143.646C120.389 143.913 121.989 144.459 122.168 144.393C122.348 144.327 123.212 144.393 123.351 144.775C123.49 145.156 123.197 146.556 123.197 146.556C123.197 146.556 121.864 147.374 121.989 147.627C122.113 147.88 123.014 149.339 123.014 149.339C123.014 149.339 123.398 151.517 123.384 151.85C123.369 152.184 122.326 154.446 121.989 154.541C121.652 154.637 120.455 155.777 120.444 155.806C120.433 155.836 120.964 157.313 120.964 157.313C120.964 157.313 121.93 157.999 122.322 157.874C122.714 157.749 123.464 158.941 123.552 159.139C123.64 159.337 124.83 160.818 126.221 160.726C127.612 160.635 129.991 159.267 130.785 159.964C131.58 160.66 132.821 161.086 133.377 161.889C133.934 162.691 133.893 163.443 133.959 163.777C134.025 164.11 134.04 163.861 134.388 164.825C134.735 165.789 134.523 165.936 135.266 166.072C136.009 166.207 136.017 166.237 136.602 166.2C137.188 166.163 137.807 166.402 138.693 166.215C139.578 166.028 140.117 166.149 140.706 166.288C141.295 166.427 142.115 166.625 142.631 166.691C143.148 166.757 143.44 167.223 144.817 166.691C146.193 166.16 146.552 166.16 146.669 165.962C146.786 165.764 147.134 165.217 146.988 164.8C146.841 164.382 146.786 163.564 146.988 163.271C147.189 162.977 147.643 162.387 147.643 162.387L149.093 160.858L150.202 160.4L152.157 159.942C152.157 159.942 153.87 159.802 154.364 160.4C154.858 160.998 155.59 161.493 156.381 161.676C157.172 161.859 158.965 162.867 159.306 163.036C159.646 163.205 160.042 162.636 160.327 163.274C160.613 163.912 161.429 164.69 162.114 164.47C162.798 164.25 163.724 163.978 164.416 163.978C165.108 163.978 166.429 164.356 167.026 164.532" stroke="white" strokeWidth="1.5" stroke-miterlimit="10"/>
<path id="Vector_4" d="M96.5948 133.805C96.5948 133.805 94.9365 133.402 94.9841 133.805C95.0317 134.209 94.0653 134.733 94.3288 135.224C94.5924 135.716 94.8523 135.584 94.9548 135.88C95.0573 136.177 95.2477 136.43 95.7126 135.84C96.1775 135.25 96.7815 134.19 96.7815 134.19V133.549" stroke="white" strokeWidth="1.5" stroke-miterlimit="10"/>
<path id="Vector_5" d="M100.164 131.426C100.164 131.426 98.4144 131.811 98.4876 132.262C98.5608 132.713 98.4949 133.116 98.4949 133.116L99.8164 133.86C99.8164 133.86 100.933 134.755 101.105 133.611C101.277 132.467 101.105 131.349 101.105 131.349L100.164 131.426Z" stroke="white" strokeWidth="1.5" stroke-miterlimit="10"/>
<path id="Vector_6" d="M102.73 130.326C102.73 130.326 102.291 130.44 102.244 130.608C102.196 130.777 102.306 131.642 102.485 131.855C102.665 132.068 101.819 132.915 102.906 132.324C103.993 131.734 103.935 131.279 103.935 131.279L103.7 130.389L102.73 130.323V130.326Z" stroke="white" strokeWidth="1.5" stroke-miterlimit="10"/>
<path id="Vector_7" d="M118.405 121.124L116.611 122.206L116.187 123.595V126.253L115.18 127.819C115.18 127.819 113.815 128.031 113.661 128.427C113.507 128.823 115.085 131.859 115.085 131.859C115.085 131.859 114.66 133.464 114.649 133.695C114.638 133.926 114.356 135.518 114.356 135.518C114.356 135.518 115.517 136.724 115.682 136.881C115.846 137.039 117.874 136.122 117.874 136.122C117.874 136.122 117.677 136.214 118.405 135.84C119.134 135.466 120.056 129.919 120.056 129.919C120.056 129.919 117.636 127.808 117.79 127.555C117.944 127.302 118.405 125.633 118.537 125.208C118.669 124.783 119.145 122.939 119.17 122.803C119.196 122.667 119.108 121.124 119.108 121.124H118.402H118.405Z" stroke="white" strokeWidth="1.5" stroke-miterlimit="10"/>
<path id="Vector_8" d="M159.394 150.597C159.394 150.597 158.98 150.27 158.618 150.311C158.255 150.351 157.117 150.237 156.963 150.263C156.81 150.289 156.674 150.685 156.674 150.685C156.674 150.685 156.238 151.447 156.674 151.77C157.11 152.092 158.351 152.972 158.947 153.203C159.544 153.434 160.089 153.453 161.18 153.343C162.271 153.233 162.839 153.808 162.923 152.683C163.007 151.557 163.197 151.92 163.007 151.557C162.817 151.194 162.784 150.765 161.858 150.685C160.931 150.604 159.394 150.597 159.394 150.597Z" stroke="white" strokeWidth="1.5" stroke-miterlimit="10"/>
<path id="Vector_9" d="M159.786 144.511L159.196 145.09V146.626C159.196 146.626 160.734 147.62 160.983 147.568C161.232 147.517 161.843 148.214 161.858 147.319C161.872 146.424 162.088 145.343 161.858 145.09C161.627 144.837 161.082 144.511 161.082 144.511H159.786Z" stroke="white" strokeWidth="1.5" stroke-miterlimit="10"/>
<path id="Vector_10" d="M186.211 113.187C186.211 113.187 180.19 115.335 179.49 114.895C178.791 114.455 179.154 115.68 177.631 112.681C176.108 109.682 175.515 108.281 175.218 108.435C174.922 108.589 172.938 106.478 171.25 108.677L169.563 110.873L168.472 112.882L168.395 114.719L167.125 117.645C167.125 117.645 166.015 118.224 166.301 119.02C166.587 119.815 165.053 123.195 165.053 123.195L168.761 129.256C168.761 129.256 170.159 130.227 172.835 129.146C175.511 128.064 177.305 125.985 177.305 125.985C177.305 125.985 178.213 124.108 178.487 124.042C178.762 123.976 180.841 123.749 181.017 123.76C181.193 123.771 182.785 124.457 183.766 124.669C184.747 124.882 185.498 125.19 186.808 125.336C188.119 125.483 188.466 125.795 189.583 125.985C190.699 126.176 194.269 125.721 194.766 125.45C195.264 125.179 197.841 121.124 197.841 121.124L194.766 115.221C194.766 115.221 192.105 113.352 191.6 113.355C191.095 113.359 190.915 113.128 190.56 113.245C190.205 113.363 186.215 113.19 186.215 113.19L186.211 113.187Z" stroke="white" strokeWidth="1.5" stroke-miterlimit="10"/>
<path id="Vector_11" d="M77.3839 59.0992C76.9703 59.0405 73.9392 59.9498 73.9392 59.9498C73.9392 59.9498 74.3895 62.5014 73.1961 62.8571C72.0027 63.2127 70.0736 63.2237 69.7002 63.4656C69.3268 63.7076 67.9906 65.3244 68.0126 65.658C68.0346 65.9917 68.9168 67.8578 68.8216 68.514C68.7264 69.1703 67.965 69.4196 68.0126 70.1638C68.0602 70.908 66.951 72.6348 67.544 73.4854C68.1371 74.3359 69.4586 75.2085 70.5824 75.1682C71.7062 75.1278 78.6066 73.6174 78.8775 72.4368C79.1484 71.2563 79.789 67.9714 80.3125 67.1318C80.836 66.2923 82.1245 65.0971 82.1245 64.6022C82.1245 64.1072 81.8134 60.8883 81.623 60.9066C81.4327 60.925 78.9763 59.1762 78.9763 59.1762L77.3839 59.0919V59.0992Z" stroke="white" strokeWidth="1.5" stroke-miterlimit="10"/>
<path id="Vector_12" d="M88.8485 46.6964C88.3799 46.6231 84.2727 47.756 84.0457 48.0346C83.8187 48.3132 82.1312 53.1819 82.1312 53.1819C82.1312 53.1819 81.8346 56.2945 82.1312 56.5255C82.4277 56.7565 82.7498 57.5191 83.0646 57.86C83.3795 58.201 83.3465 60.9763 83.3831 61.2036C83.4197 61.4309 83.1012 62.0468 83.46 62.2851C83.8187 62.5234 85.089 62.7507 85.5393 63.0257C85.9895 63.3007 85.5063 64.7708 85.7516 65.3867C85.9968 66.0027 86.297 70.1748 86.297 70.1748C86.297 70.1748 86.5935 71.9199 86.1982 72.0409C85.8028 72.1619 83.46 71.6266 83.46 71.6266C83.46 71.6266 81.8676 73.1298 82.1312 73.9547C82.3947 74.7795 80.3191 77.1259 80.3191 77.1259V77.5549L83.46 78.7684L84.1153 79.9342L82.8889 80.6711L80.019 82.3063L78.54 84.2054H82.9878L88.3543 83.9194L94.1821 85.0596C94.1821 85.0596 95.8807 84.6673 96.298 83.9267C96.7153 83.1862 96.5982 80.3778 96.5982 80.3778L98.4871 78.7024L97.4694 74.5449C97.4694 74.5449 95.5768 73.7017 95.3023 72.9281C95.0277 72.1545 93.3438 67.1355 93.3438 67.1355L90.2176 63.132V58.5383L88.3616 57.5594C88.3616 57.5594 89.372 55.2863 89.5221 55.1764C89.6722 55.0664 90.6935 52.401 90.6935 52.401L89.1743 51.4772L87.9663 49.1051L89.0279 48.1079L90.2139 46.4471L88.8485 46.6928V46.6964Z" stroke="white" strokeWidth="1.5" stroke-miterlimit="10"/>
<path id="Vector_13" d="M145.487 31.555L143.474 35.9764L144.381 40.1926C144.381 40.1926 145.421 44.8597 145.491 45.2593C145.56 45.6589 147.951 47.6386 147.951 47.6386C147.951 47.6386 152.135 48.0089 153.698 47.6386C155.261 47.2684 155.137 46.4471 157.095 46.3518C159.053 46.2565 160.672 46.3518 160.672 46.3518C160.672 46.3518 162.407 44.2694 162.077 43.3455C161.748 42.4216 161.601 41.8277 161.671 41.2704C161.74 40.7132 162.037 40.1926 162.249 39.9983C162.462 39.804 163.293 36.8307 163.293 36.8307L164.72 35.4998" stroke="white" strokeWidth="1.5" stroke-miterlimit="10"/>
<path id="Vector_14" d="M10.2832 102.863C10.2832 110.162 13.6876 116.622 18.9224 120.611C20.0353 118.88 21.5471 116.534 22.8247 114.554C19.4056 111.871 17.1909 107.599 17.1909 102.782C17.1909 95.2223 22.6343 88.9971 29.6409 88.1649V80.9828C18.8162 81.8407 10.2832 91.3031 10.2832 102.859V102.863Z" stroke="white" strokeWidth="1.5" stroke-miterlimit="10"/>
<path id="Vector_15" d="M37.8885 115.738C35.908 116.857 33.6457 117.494 31.237 117.494C29.0882 117.494 27.0492 116.989 25.2298 116.083L21.6973 122.4C24.5599 123.936 27.7996 124.809 31.237 124.809C34.9892 124.809 38.5108 123.767 41.5565 121.956L37.8885 115.738Z" stroke="white" strokeWidth="1.5" stroke-miterlimit="10"/>
<path id="Vector_16" d="M45.2901 102.782C45.2901 107.229 43.4012 111.207 40.4251 113.905C41.7832 115.757 43.3975 117.953 44.6751 119.691C49.2693 115.665 52.1978 109.627 52.1978 102.863C52.1978 91.5634 44.0418 82.2623 33.5576 81.0524V88.2748C40.2127 89.4334 45.2901 95.4826 45.2901 102.782Z" stroke="white" strokeWidth="1.5" stroke-miterlimit="10"/>
<path id="Vector_17" d="M125.576 210.77C125.576 210.77 123.068 211.291 122.651 211.863C122.234 212.435 119.924 214.037 119.909 214.612C119.895 215.188 121.297 218.902 121.297 218.902C121.297 218.902 123.94 218.909 124.255 220.284C124.569 221.659 124.178 222.436 124.28 223.349C124.383 224.262 124.255 230.428 124.255 230.428L126.568 231.601L129.358 227.224C129.358 227.224 128.783 223.921 129.358 223.473C129.932 223.026 131.188 221.578 132.07 220.035C132.952 218.491 133.172 215.422 133.172 215.422L130.62 211.888L125.514 209.769L125.576 210.77Z" stroke="white" strokeWidth="1.5" stroke-miterlimit="10"/>
<path id="Vector_18" d="M114.572 186.012C114.572 186.012 110.161 187.713 110.56 188.883C110.959 190.052 114.436 195.955 114.436 195.955L114.425 200.912L117.94 203.401C117.94 203.401 119.473 204.772 119.616 205.74C119.759 206.708 120.103 208.358 120.103 208.358L121.293 209.19C121.293 209.19 124.62 207.995 124.251 207.009C123.881 206.022 124.28 201.52 124.28 201.52C124.28 201.52 125.704 200.714 125.891 199.859C126.077 199.005 126.209 195.676 126.209 195.676C126.209 195.676 125.492 193.645 125.51 192.542C125.528 191.438 127.644 187.545 127.644 187.545L129.163 184.879V182.764L121.783 182.078" stroke="white" strokeWidth="1.5" stroke-miterlimit="10"/>
<path id="Vector_19" d="M160.686 178.951C159.786 179.259 156.682 179.963 156.682 179.963C156.682 179.963 154.416 181.976 154.317 182.478C154.218 182.98 152.79 184.916 152.79 184.916L150.352 187.262L148.701 187.611L149.239 191.244L146.951 192.05L145.18 193.818L142.507 194.272C142.507 194.272 141.658 193.561 141.618 193.037C141.578 192.512 141.431 190.984 141.431 190.984C141.431 190.984 140.937 190.173 140.417 190.239C139.897 190.305 137.525 191.138 137.371 191.445C137.218 191.753 136.826 192.157 137.075 192.369C137.324 192.582 137.759 193.088 137.759 193.088L140.077 194.602V196.289L139.268 197.161V198.694L140.421 199.467L141.435 200.094L142.679 198.518C142.679 198.518 143.229 198.085 143.368 197.81C143.507 197.535 144.499 196.571 144.499 196.571C144.499 196.571 145.205 196.538 145.648 196.776C146.091 197.014 146.153 196.615 146.377 197.33C146.6 198.045 146.626 199.463 146.626 199.463C146.626 199.463 146.75 199.892 146.626 200.259C146.501 200.626 145.937 202.114 145.937 202.114L145.191 202.664C145.191 202.664 143.448 203.903 141.779 203.87C140.11 203.837 139.967 204.186 139.967 204.186C139.967 204.186 138.678 205.399 138.517 205.802C138.356 206.206 136.936 208.156 137.079 208.779C137.221 209.403 137.276 210.81 137.763 211.606C138.25 212.401 140.124 216.093 140.761 216.442C141.398 216.79 142.361 219.001 142.086 219.532C141.812 220.064 143.368 222.025 143.368 222.025L145.278 222.564C145.278 222.564 146.443 219.532 146.626 218.649C146.809 217.765 147.164 213.648 147.164 213.648C147.164 213.648 149.181 210.422 149.181 210.015C149.181 209.608 149.627 205.997 149.627 205.997L151.703 204.838H153.233L155.144 205.575L156.693 206.187L161.444 204.999" stroke="white" strokeWidth="1.5" stroke-miterlimit="10"/>
<path id="Vector_20" d="M93.5273 231.484V221.043H96.0056V231.4L93.5273 231.484Z" stroke="white" strokeWidth="1.5" stroke-miterlimit="10"/>
<path id="Vector_21" d="M100.827 216.167H98.0996V231.081H100.827V216.167Z" stroke="white" strokeWidth="1.5" stroke-miterlimit="10"/>
<path id="Vector_22" d="M105.197 218.517H102.664V230.439H105.197V218.517Z" stroke="white" strokeWidth="1.5" stroke-miterlimit="10"/>
<path id="Vector_23" d="M109.96 215.452H107.324V230.168H109.96V215.452Z" stroke="white" strokeWidth="1.5" stroke-miterlimit="10"/>
<path id="Vector_24" d="M55.1225 220.075H53.0029V236.668H55.1225V220.075Z" stroke="white" strokeWidth="1.5" stroke-miterlimit="10"/>
<path id="Vector_25" d="M60.0137 213.952H57.5391V236.338H60.0137V213.952Z" stroke="white" strokeWidth="1.5" stroke-miterlimit="10"/>
<path id="Vector_26" d="M63.8427 217.937H61.7598V235.906H63.8427V217.937Z" stroke="white" strokeWidth="1.5" stroke-miterlimit="10"/>
<path id="Vector_27" d="M68.4919 217.303H65.9697V235.521H68.4919V217.303Z" stroke="white" strokeWidth="1.5" stroke-miterlimit="10"/>
<path id="Vector_28" d="M72.5807 213.952H70.3037V234.879H72.5807V213.952Z" stroke="white" strokeWidth="1.5" stroke-miterlimit="10"/>
<path id="Vector_29" d="M77.1788 210.121H74.8506V234.703H77.1788V210.121Z" stroke="white" strokeWidth="1.5" stroke-miterlimit="10"/>
<path id="Vector_30" d="M33.3746 200.094C29.7469 200.094 26.8037 196.783 26.8037 192.699C26.8037 188.615 29.7432 185.305 33.3746 185.305C34.4911 185.305 35.5418 185.62 36.4642 186.173" stroke="white" strokeWidth="1.5" stroke-miterlimit="10"/>
<path id="Vector_31" d="M39.9455 211.72C39.9455 215.804 37.006 219.114 33.3746 219.114C29.7432 219.114 26.8037 215.804 26.8037 211.72C26.8037 207.635 29.7432 204.325 33.3746 204.325" stroke="white" strokeWidth="1.5" stroke-miterlimit="10"/>
<path id="Vector_32" d="M26.8076 230.37C26.8076 228.478 27.4373 226.755 28.4769 225.446C29.6812 223.928 31.4311 222.975 33.3785 222.975C37.0063 222.975 39.9495 226.285 39.9495 230.37C39.9495 234.454 37.0099 237.764 33.3785 237.764" stroke="white" strokeWidth="1.5" stroke-miterlimit="10"/>
<path id="Vector_33" d="M167.015 169.379H0.0664062" stroke="white" strokeWidth="1.5" stroke-miterlimit="10"/>
<path id="Vector_34" d="M0.0664062 0.359543L204.025 37.2525V135.342" stroke="white" strokeWidth="1.5" stroke-miterlimit="10"/>
<path id="Vector_35" d="M138.258 255.678C138.258 255.678 141.351 254.028 147.739 251.341C154.131 248.657 158.252 232.966 159.9 221.197C161.547 209.429 165.464 201.378 167.115 199.313C168.766 197.249 176.596 191.468 177.833 189.818C179.071 188.168 180.718 184.865 179.364 180.114C178.009 175.366 178.038 176.81 174.74 176.396C171.442 175.982 170.205 167.106 168.649 162.769C167.093 158.432 171.647 159.26 169.381 153.064C167.115 146.872 169.198 141.032 171.991 138.682C174.985 136.163 179.397 134.293 182.567 133.171C185.21 132.233 188.05 131.991 190.811 132.486C193.816 133.025 197.517 134.048 198.86 135.932C201.705 139.921 202.693 142.396 203.026 143.507C203.14 143.884 203.52 144.111 203.908 144.038C205.768 143.69 210.684 143.078 211.848 146.073C213.291 149.79 210.044 160.111 213.551 165.892C217.054 171.674 216.951 172.085 216.951 172.085" stroke="white" strokeWidth="1.5" stroke-miterlimit="10"/>
<path id="Vector_36" d="M202.78 159.469C202.78 159.469 195.77 165.456 197.216 170.823C198.658 176.19 199.277 178.464 202.78 181.558C206.283 184.656 224.836 189.403 224.631 209.223" stroke="white" strokeWidth="1.5" stroke-miterlimit="10"/>
<path id="Vector_37" d="M1.05845 251.41L82.0912 242.981V177.741H0.0664062" stroke="white" strokeWidth="1.5" stroke-miterlimit="10"/>
<path id="Vector_38" d="M154.554 235.594L89.1777 241.64V177.742L167.015 176.268" stroke="white" strokeWidth="1.5" stroke-miterlimit="10"/>
<path id="Vector_39" d="M16.9489 22.093L12.3438 21.6127C12.3438 19.16 12.3438 14.2217 12.3438 11.7726L16.9489 12.1869" stroke="white" strokeWidth="1.5" stroke-miterlimit="10"/>
<path id="Vector_40" d="M16.4696 16.9309L12.3477 16.6559" stroke="white" strokeWidth="1.5" stroke-miterlimit="10"/>
<path id="Vector_41" d="M18.7363 22.5072V12.4582L24.7142 22.7822V13.1474" stroke="white" strokeWidth="1.5" stroke-miterlimit="10"/>
<path id="Vector_42" d="M31.2447 19.1596L27.6719 18.9103" stroke="white" strokeWidth="1.5" stroke-miterlimit="10"/>
<path id="Vector_43" d="M31.7938 14.3681L27.6719 13.9025C27.6719 16.3515 27.6719 21.3082 27.6719 23.7426L31.7938 24.3622" stroke="white" strokeWidth="1.5" stroke-miterlimit="10"/>
<path id="Vector_44" d="M33.957 24.6923V14.6799C33.957 14.6799 38.8514 14.6799 38.4414 18.0344C38.1778 20.1865 36.5781 20.4908 35.4616 20.4321C35.209 20.4175 35.0955 20.7364 35.3005 20.8831C36.45 21.719 38.467 23.0388 38.467 25.5172" stroke="white" strokeWidth="1.5" stroke-miterlimit="10"/>
<path id="Vector_45" d="M46.2744 16.612C46.2744 16.612 40.5527 14.471 40.5527 20.6119C40.5527 25.5136 44.5209 26.0158 45.0371 25.9755C45.7875 25.9169 46.4794 25.6309 46.4794 24.8757V23.1965C46.4794 22.7346 46.1755 22.3276 45.7326 22.1993L44.5209 21.8474" stroke="white" strokeWidth="1.5" stroke-miterlimit="10"/>
<path id="Vector_46" d="M48.4902 16.6559L51.4261 22.0929V27.3759" stroke="white" strokeWidth="1.5" stroke-miterlimit="10"/>
<path id="Vector_47" d="M54.2628 17.1545L51.4258 22.0928" stroke="white" strokeWidth="1.5" stroke-miterlimit="10"/>
<path id="Vector_48" d="M16.0225 25.9792C16.0225 25.9792 11.2306 25.0516 11.9518 28.2009C12.6729 31.3502 17.311 31.0386 16.0225 33.4143C14.7339 35.79 11.8493 34.5508 11.6406 34.3418" stroke="white" strokeWidth="1.5" stroke-miterlimit="10"/>
<path id="Vector_49" d="M21.9492 26.91L18.1348 26.547V35.6319L21.9492 36.0975" stroke="white" strokeWidth="1.5" stroke-miterlimit="10"/>
<path id="Vector_50" d="M21.4843 31.3243L18.1348 30.987" stroke="white" strokeWidth="1.5" stroke-miterlimit="10"/>
<path id="Vector_51" d="M29.4586 27.7353C29.4586 27.7353 24.0664 27.5813 24.0664 31.7094C24.0664 35.8376 27.0572 36.7688 28.3421 36.7688" stroke="white" strokeWidth="1.5" stroke-miterlimit="10"/>
<path id="Vector_52" d="M31.793 28.0466V35.8922C31.793 35.8922 31.8442 37.8536 33.9564 37.8536C36.0686 37.8536 36.636 36.0975 36.636 36.0975V28.5635" stroke="white" strokeWidth="1.5" stroke-miterlimit="10"/>
<path id="Vector_53" d="M39.0605 38.8328V29.0477C39.0605 28.9781 39.1155 28.9231 39.185 28.9231C39.8769 28.9194 43.2374 29.0441 43.2374 31.8671C43.2374 34.0998 41.3228 34.5141 40.2063 34.569C40.0709 34.5764 40.0343 34.7597 40.1588 34.811C41.3375 35.295 43.5193 36.5011 43.5193 38.8365" stroke="white" strokeWidth="1.5" stroke-miterlimit="10"/>
<path id="Vector_54" d="M45.8105 29.799V39.3495" stroke="white" strokeWidth="1.5" stroke-miterlimit="10"/>
<path id="Vector_55" d="M48.2344 30.6789L52.8468 30.9868" stroke="white" strokeWidth="1.5" stroke-miterlimit="10"/>
<path id="Vector_56" d="M50.5391 39.7091V30.8332" stroke="white" strokeWidth="1.5" stroke-miterlimit="10"/>
<path id="Vector_57" d="M54.0508 30.8073L56.6279 35.0894L59.3588 31.1409" stroke="white" strokeWidth="1.5" stroke-miterlimit="10"/>
<path id="Vector_58" d="M56.6379 39.9362L56.627 35.0895" stroke="white" strokeWidth="1.5" stroke-miterlimit="10"/>
</g>
</g>
<defs>
<clipPath id="clip0_4128_10123">
<rect width="225" height="256" fill="white"/>
</clipPath>
</defs>
</svg>
