<svg width="580" height="753" viewBox="0 0 580 753" fill="none" xmlns="http://www.w3.org/2000/svg">
<circle cx="246.5" cy="729" r="24" fill="#0041AC"/>
<path d="M254.632 731.133L243.978 737.503C242.698 738.269 241.073 737.347 241.073 735.856L241.073 723.114C241.073 721.623 242.698 720.701 243.978 721.466L254.632 727.837C255.878 728.582 255.878 730.388 254.632 731.133Z" stroke="#A9EA98" stroke-width="1.28"/>
<path d="M244.5 684C244.5 685.381 245.619 686.5 247 686.5C248.381 686.5 249.5 685.381 249.5 684H244.5ZM355.768 322.768C356.744 321.791 356.744 320.209 355.768 319.232L339.858 303.322C338.882 302.346 337.299 302.346 336.322 303.322C335.346 304.299 335.346 305.882 336.322 306.858L350.464 321L336.322 335.142C335.346 336.118 335.346 337.701 336.322 338.678C337.299 339.654 338.882 339.654 339.858 338.678L355.768 322.768ZM249.5 684V371.794H244.5V684H249.5ZM297.794 323.5H354V318.5H297.794V323.5ZM249.5 371.794C249.5 345.122 271.122 323.5 297.794 323.5V318.5C268.36 318.5 244.5 342.36 244.5 371.794H249.5Z" fill="#5697A2"/>
<path d="M244.5 648C244.5 649.381 245.619 650.5 247 650.5C248.381 650.5 249.5 649.381 249.5 648H244.5ZM297.794 115.5C296.413 115.5 295.294 116.619 295.294 118C295.294 119.381 296.413 120.5 297.794 120.5V115.5ZM355.768 119.768C356.744 118.791 356.744 117.209 355.768 116.232L339.858 100.322C338.882 99.346 337.299 99.346 336.322 100.322C335.346 101.299 335.346 102.882 336.322 103.858L350.464 118L336.322 132.142C335.346 133.118 335.346 134.701 336.322 135.678C337.299 136.654 338.882 136.654 339.858 135.678L355.768 119.768ZM297.794 120.5C299.174 120.5 300.294 119.381 300.294 118C300.294 116.619 299.174 115.5 297.794 115.5V120.5ZM249.5 645.504C249.5 644.123 248.381 643.004 247 643.004C245.619 643.004 244.5 644.123 244.5 645.504H249.5ZM244.5 630.529C244.5 631.91 245.619 633.029 247 633.029C248.381 633.029 249.5 631.91 249.5 630.529H244.5ZM249.5 625.537C249.5 624.156 248.381 623.037 247 623.037C245.619 623.037 244.5 624.156 244.5 625.537H249.5ZM244.5 610.562C244.5 611.943 245.619 613.062 247 613.062C248.381 613.062 249.5 611.943 249.5 610.562H244.5ZM249.5 605.57C249.5 604.19 248.381 603.07 247 603.07C245.619 603.07 244.5 604.19 244.5 605.57H249.5ZM244.5 590.595C244.5 591.976 245.619 593.095 247 593.095C248.381 593.095 249.5 591.976 249.5 590.595H244.5ZM249.5 585.603C249.5 584.223 248.381 583.103 247 583.103C245.619 583.103 244.5 584.223 244.5 585.603H249.5ZM244.5 570.628C244.5 572.009 245.619 573.128 247 573.128C248.381 573.128 249.5 572.009 249.5 570.628H244.5ZM249.5 565.636C249.5 564.256 248.381 563.136 247 563.136C245.619 563.136 244.5 564.256 244.5 565.636H249.5ZM244.5 550.661C244.5 552.042 245.619 553.161 247 553.161C248.381 553.161 249.5 552.042 249.5 550.661H244.5ZM249.5 545.67C249.5 544.289 248.381 543.17 247 543.17C245.619 543.17 244.5 544.289 244.5 545.67H249.5ZM244.5 530.694C244.5 532.075 245.619 533.194 247 533.194C248.381 533.194 249.5 532.075 249.5 530.694H244.5ZM249.5 525.703C249.5 524.322 248.381 523.203 247 523.203C245.619 523.203 244.5 524.322 244.5 525.703H249.5ZM244.5 510.727C244.5 512.108 245.619 513.227 247 513.227C248.381 513.227 249.5 512.108 249.5 510.727H244.5ZM249.5 505.736C249.5 504.355 248.381 503.236 247 503.236C245.619 503.236 244.5 504.355 244.5 505.736H249.5ZM244.5 490.76C244.5 492.141 245.619 493.26 247 493.26C248.381 493.26 249.5 492.141 249.5 490.76H244.5ZM249.5 485.769C249.5 484.388 248.381 483.269 247 483.269C245.619 483.269 244.5 484.388 244.5 485.769H249.5ZM244.5 470.794C244.5 472.174 245.619 473.294 247 473.294C248.381 473.294 249.5 472.174 249.5 470.794H244.5ZM249.5 465.802C249.5 464.421 248.381 463.302 247 463.302C245.619 463.302 244.5 464.421 244.5 465.802H249.5ZM244.5 450.827C244.5 452.207 245.619 453.327 247 453.327C248.381 453.327 249.5 452.207 249.5 450.827H244.5ZM249.5 445.835C249.5 444.454 248.381 443.335 247 443.335C245.619 443.335 244.5 444.454 244.5 445.835H249.5ZM244.5 430.86C244.5 432.24 245.619 433.36 247 433.36C248.381 433.36 249.5 432.24 249.5 430.86H244.5ZM249.5 425.868C249.5 424.487 248.381 423.368 247 423.368C245.619 423.368 244.5 424.487 244.5 425.868H249.5ZM244.5 410.893C244.5 412.273 245.619 413.393 247 413.393C248.381 413.393 249.5 412.273 249.5 410.893H244.5ZM249.5 405.901C249.5 404.52 248.381 403.401 247 403.401C245.619 403.401 244.5 404.52 244.5 405.901H249.5ZM244.5 390.926C244.5 392.307 245.619 393.426 247 393.426C248.381 393.426 249.5 392.307 249.5 390.926H244.5ZM249.5 385.934C249.5 384.553 248.381 383.434 247 383.434C245.619 383.434 244.5 384.553 244.5 385.934H249.5ZM244.5 370.959C244.5 372.34 245.619 373.459 247 373.459C248.381 373.459 249.5 372.34 249.5 370.959H244.5ZM249.5 365.967C249.5 364.587 248.381 363.467 247 363.467C245.619 363.467 244.5 364.587 244.5 365.967H249.5ZM244.5 350.992C244.5 352.373 245.619 353.492 247 353.492C248.381 353.492 249.5 352.373 249.5 350.992H244.5ZM249.5 346C249.5 344.62 248.381 343.5 247 343.5C245.619 343.5 244.5 344.62 244.5 346H249.5ZM244.5 331.025C244.5 332.406 245.619 333.525 247 333.525C248.381 333.525 249.5 332.406 249.5 331.025H244.5ZM249.5 326.033C249.5 324.653 248.381 323.533 247 323.533C245.619 323.533 244.5 324.653 244.5 326.033H249.5ZM244.5 311.058C244.5 312.439 245.619 313.558 247 313.558C248.381 313.558 249.5 312.439 249.5 311.058H244.5ZM249.5 306.066C249.5 304.686 248.381 303.566 247 303.566C245.619 303.566 244.5 304.686 244.5 306.066H249.5ZM244.5 291.091C244.5 292.472 245.619 293.591 247 293.591C248.381 293.591 249.5 292.472 249.5 291.091H244.5ZM249.5 286.1C249.5 284.719 248.381 283.6 247 283.6C245.619 283.6 244.5 284.719 244.5 286.1H249.5ZM244.5 271.124C244.5 272.505 245.619 273.624 247 273.624C248.381 273.624 249.5 272.505 249.5 271.124H244.5ZM249.5 266.133C249.5 264.752 248.381 263.633 247 263.633C245.619 263.633 244.5 264.752 244.5 266.133H249.5ZM244.5 251.157C244.5 252.538 245.619 253.657 247 253.657C248.381 253.657 249.5 252.538 249.5 251.157H244.5ZM249.5 246.166C249.5 244.785 248.381 243.666 247 243.666C245.619 243.666 244.5 244.785 244.5 246.166H249.5ZM244.5 231.191C244.5 232.571 245.619 233.691 247 233.691C248.381 233.691 249.5 232.571 249.5 231.191H244.5ZM249.5 226.199C249.5 224.818 248.381 223.699 247 223.699C245.619 223.699 244.5 224.818 244.5 226.199H249.5ZM244.5 211.224C244.5 212.604 245.619 213.724 247 213.724C248.381 213.724 249.5 212.604 249.5 211.224H244.5ZM249.5 206.232C249.5 204.851 248.381 203.732 247 203.732C245.619 203.732 244.5 204.851 244.5 206.232H249.5ZM244.5 191.257C244.5 192.637 245.619 193.757 247 193.757C248.381 193.757 249.5 192.637 249.5 191.257H244.5ZM249.5 186.265C249.5 184.884 248.381 183.765 247 183.765C245.619 183.765 244.5 184.884 244.5 186.265H249.5ZM244.5 171.29C244.5 172.67 245.619 173.79 247 173.79C248.381 173.79 249.5 172.67 249.5 171.29H244.5ZM249.557 166.421C249.624 165.042 248.56 163.87 247.181 163.803C245.802 163.737 244.63 164.801 244.563 166.18L249.557 166.421ZM247.603 150.834C247.137 152.134 247.814 153.565 249.114 154.03C250.414 154.496 251.845 153.819 252.31 152.519L247.603 150.834ZM254.125 148.142C254.716 146.894 254.184 145.404 252.936 144.812C251.689 144.221 250.198 144.754 249.607 146.001L254.125 148.142ZM258.306 133.003C257.378 134.026 257.455 135.607 258.478 136.535C259.501 137.462 261.082 137.385 262.009 136.362L258.306 133.003ZM265.362 133.009C266.385 132.082 266.462 130.501 265.535 129.478C264.607 128.455 263.026 128.378 262.003 129.306L265.362 133.009ZM275.001 120.607C273.754 121.198 273.221 122.689 273.812 123.936C274.404 125.184 275.894 125.716 277.142 125.125L275.001 120.607ZM281.519 123.31C282.819 122.845 283.496 121.414 283.03 120.114C282.565 118.814 281.134 118.137 279.834 118.603L281.519 123.31ZM295.18 115.563C293.801 115.63 292.737 116.802 292.803 118.181C292.87 119.56 294.042 120.624 295.421 120.557L295.18 115.563ZM300.136 120.5C301.516 120.5 302.636 119.381 302.636 118C302.636 116.619 301.516 115.5 300.136 115.5V120.5ZM314.187 115.5C312.807 115.5 311.687 116.619 311.687 118C311.687 119.381 312.807 120.5 314.187 120.5V115.5ZM318.871 120.5C320.252 120.5 321.371 119.381 321.371 118C321.371 116.619 320.252 115.5 318.871 115.5V120.5ZM332.923 115.5C331.542 115.5 330.423 116.619 330.423 118C330.423 119.381 331.542 120.5 332.923 120.5V115.5ZM337.607 120.5C338.987 120.5 340.107 119.381 340.107 118C340.107 116.619 338.987 115.5 337.607 115.5V120.5ZM351.658 115.5C350.277 115.5 349.158 116.619 349.158 118C349.158 119.381 350.277 120.5 351.658 120.5V115.5ZM249.5 648V645.504H244.5V648H249.5ZM249.5 630.529V625.537H244.5V630.529H249.5ZM249.5 610.562V605.57H244.5V610.562H249.5ZM249.5 590.595V585.603H244.5V590.595H249.5ZM249.5 570.628V565.636H244.5V570.628H249.5ZM249.5 550.661V545.67H244.5V550.661H249.5ZM249.5 530.694V525.703H244.5V530.694H249.5ZM249.5 510.727V505.736H244.5V510.727H249.5ZM249.5 490.76V485.769H244.5V490.76H249.5ZM249.5 470.794V465.802H244.5V470.794H249.5ZM249.5 450.827V445.835H244.5V450.827H249.5ZM249.5 430.86V425.868H244.5V430.86H249.5ZM249.5 410.893V405.901H244.5V410.893H249.5ZM249.5 390.926V385.934H244.5V390.926H249.5ZM249.5 370.959V365.967H244.5V370.959H249.5ZM249.5 350.992V346H244.5V350.992H249.5ZM249.5 331.025V326.033H244.5V331.025H249.5ZM249.5 311.058V306.066H244.5V311.058H249.5ZM249.5 291.091V286.1H244.5V291.091H249.5ZM249.5 271.124V266.133H244.5V271.124H249.5ZM249.5 251.157V246.166H244.5V251.157H249.5ZM249.5 231.191V226.199H244.5V231.191H249.5ZM249.5 211.224V206.232H244.5V211.224H249.5ZM249.5 191.257V186.265H244.5V191.257H249.5ZM249.5 171.29V168.794H244.5V171.29H249.5ZM249.5 168.794C249.5 167.998 249.519 167.207 249.557 166.421L244.563 166.18C244.521 167.046 244.5 167.918 244.5 168.794H249.5ZM252.31 152.519C252.845 151.025 253.451 149.564 254.125 148.142L249.607 146.001C248.863 147.572 248.193 149.184 247.603 150.834L252.31 152.519ZM262.009 136.362C263.072 135.191 264.191 134.072 265.362 133.009L262.003 129.306C260.711 130.477 259.477 131.711 258.306 133.003L262.009 136.362ZM277.142 125.125C278.564 124.451 280.025 123.845 281.519 123.31L279.834 118.603C278.184 119.193 276.571 119.863 275.001 120.607L277.142 125.125ZM295.421 120.557C296.207 120.519 296.998 120.5 297.794 120.5V115.5C296.918 115.5 296.046 115.521 295.18 115.563L295.421 120.557ZM297.794 120.5H300.136V115.5H297.794V120.5ZM314.187 120.5H318.871V115.5H314.187V120.5ZM332.923 120.5H337.607V115.5H332.923V120.5ZM351.658 120.5H354V115.5H351.658V120.5Z" fill="#88C99C"/>
<path d="M244.5 648C244.5 649.381 245.619 650.5 247 650.5C248.381 650.5 249.5 649.381 249.5 648H244.5ZM355.768 220.768C356.744 219.791 356.744 218.209 355.768 217.232L339.858 201.322C338.882 200.346 337.299 200.346 336.322 201.322C335.346 202.299 335.346 203.882 336.322 204.858L350.464 219L336.322 233.142C335.346 234.118 335.346 235.701 336.322 236.678C337.299 237.654 338.882 237.654 339.858 236.678L355.768 220.768ZM249.5 648V269.794H244.5V648H249.5ZM297.794 221.5H354V216.5H297.794V221.5ZM249.5 269.794C249.5 243.122 271.122 221.5 297.794 221.5V216.5C268.36 216.5 244.5 240.36 244.5 269.794H249.5Z" fill="#6CAD9F"/>
<path d="M244.5 684C244.5 685.381 245.619 686.5 247 686.5C248.381 686.5 249.5 685.381 249.5 684H244.5ZM355.768 424.768C356.744 423.791 356.744 422.209 355.768 421.232L339.858 405.322C338.882 404.346 337.299 404.346 336.322 405.322C335.346 406.299 335.346 407.882 336.322 408.858L350.464 423L336.322 437.142C335.346 438.118 335.346 439.701 336.322 440.678C337.299 441.654 338.882 441.654 339.858 440.678L355.768 424.768ZM249.5 684V473.794H244.5V684H249.5ZM297.794 425.5H354V420.5H297.794V425.5ZM249.5 473.794C249.5 447.122 271.122 425.5 297.794 425.5V420.5C268.36 420.5 244.5 444.36 244.5 473.794H249.5Z" fill="#397AA5"/>
<path d="M244.5 682C244.5 683.381 245.619 684.5 247 684.5C248.381 684.5 249.5 683.381 249.5 682H244.5ZM355.768 526.768C356.744 525.791 356.744 524.209 355.768 523.232L339.858 507.322C338.882 506.346 337.299 506.346 336.322 507.322C335.346 508.299 335.346 509.882 336.322 510.858L350.464 525L336.322 539.142C335.346 540.118 335.346 541.701 336.322 542.678C337.299 543.654 338.882 543.654 339.858 542.678L355.768 526.768ZM249.5 682V575.794H244.5V682H249.5ZM297.794 527.5H354V522.5H297.794V527.5ZM249.5 575.794C249.5 549.122 271.122 527.5 297.794 527.5V522.5C268.36 522.5 244.5 546.36 244.5 575.794H249.5Z" fill="#1859A9"/>
<path d="M248.768 37.2322C247.791 36.2559 246.209 36.2559 245.232 37.2322L229.322 53.1422C228.346 54.1185 228.346 55.7014 229.322 56.6777C230.299 57.654 231.882 57.654 232.858 56.6777L247 42.5356L261.142 56.6777C262.118 57.654 263.701 57.654 264.678 56.6777C265.654 55.7014 265.654 54.1185 264.678 53.1422L248.768 37.2322ZM244.5 684C244.5 685.381 245.619 686.5 247 686.5C248.381 686.5 249.5 685.381 249.5 684L244.5 684ZM244.5 39L244.5 684L249.5 684L249.5 39L244.5 39Z" fill="url(#paint0_linear_3589_5333)"/>
<rect x="367" y="507" width="85" height="36" rx="18" fill="#0041AC"/>
<path d="M390.479 528.927V530H385.208V528.927H390.479ZM385.475 520.047V530H384.155V520.047H385.475ZM389.781 524.326V525.399H385.208V524.326H389.781ZM390.41 520.047V521.127H385.208V520.047H390.41ZM399.769 520.047V530H398.442L393.432 522.323V530H392.112V520.047H393.432L398.463 527.744V520.047H399.769ZM408.43 528.927V530H403.159V528.927H408.43ZM403.426 520.047V530H402.106V520.047H403.426ZM407.732 524.326V525.399H403.159V524.326H407.732ZM408.361 520.047V521.127H403.159V520.047H408.361ZM410.063 520.047H413.358C414.106 520.047 414.737 520.161 415.252 520.389C415.771 520.617 416.166 520.954 416.435 521.4C416.708 521.842 416.845 522.387 416.845 523.034C416.845 523.49 416.751 523.907 416.564 524.285C416.382 524.659 416.118 524.978 415.771 525.242C415.43 525.502 415.02 525.696 414.541 525.823L414.172 525.967H411.075L411.062 524.894H413.399C413.873 524.894 414.268 524.812 414.582 524.647C414.896 524.479 415.133 524.253 415.293 523.971C415.452 523.688 415.532 523.376 415.532 523.034C415.532 522.651 415.457 522.316 415.307 522.029C415.156 521.742 414.919 521.521 414.596 521.366C414.277 521.207 413.864 521.127 413.358 521.127H411.383V530H410.063V520.047ZM415.881 530L413.461 525.488L414.835 525.481L417.289 529.918V530H415.881ZM426.046 525.044V528.688C425.923 528.87 425.727 529.075 425.458 529.303C425.189 529.526 424.818 529.722 424.344 529.891C423.874 530.055 423.268 530.137 422.525 530.137C421.919 530.137 421.361 530.032 420.851 529.822C420.345 529.608 419.905 529.298 419.531 528.893C419.162 528.482 418.875 527.986 418.67 527.402C418.469 526.814 418.369 526.149 418.369 525.406V524.634C418.369 523.891 418.456 523.228 418.629 522.645C418.807 522.061 419.066 521.567 419.408 521.161C419.75 520.751 420.169 520.441 420.666 520.231C421.163 520.017 421.732 519.91 422.375 519.91C423.136 519.91 423.772 520.042 424.282 520.307C424.797 520.566 425.198 520.926 425.485 521.387C425.777 521.847 425.964 522.371 426.046 522.959H424.727C424.667 522.599 424.549 522.271 424.371 521.975C424.198 521.678 423.95 521.441 423.626 521.264C423.302 521.081 422.885 520.99 422.375 520.99C421.915 520.99 421.516 521.075 421.179 521.243C420.841 521.412 420.563 521.653 420.345 521.968C420.126 522.282 419.962 522.663 419.853 523.109C419.748 523.556 419.695 524.06 419.695 524.62V525.406C419.695 525.98 419.761 526.493 419.894 526.944C420.03 527.396 420.224 527.781 420.475 528.1C420.725 528.414 421.024 528.653 421.37 528.817C421.721 528.981 422.108 529.063 422.532 529.063C423.002 529.063 423.382 529.025 423.674 528.947C423.965 528.865 424.193 528.77 424.357 528.66C424.521 528.546 424.647 528.439 424.733 528.339V526.11H422.43V525.044H426.046ZM428.691 520.047L431.275 525.044L433.866 520.047H435.363L431.932 526.281V530H430.612V526.281L427.181 520.047H428.691Z" fill="#A9EA98"/>
<rect x="367" y="303" width="179" height="36" rx="18" fill="#0041AC"/>
<path d="M389.85 316.047H391.162V322.78C391.162 323.528 390.996 324.15 390.663 324.646C390.33 325.143 389.888 325.517 389.337 325.768C388.79 326.014 388.195 326.137 387.553 326.137C386.878 326.137 386.268 326.014 385.721 325.768C385.178 325.517 384.748 325.143 384.429 324.646C384.114 324.15 383.957 323.528 383.957 322.78V316.047H385.263V322.78C385.263 323.3 385.358 323.728 385.55 324.065C385.741 324.403 386.008 324.653 386.35 324.817C386.696 324.981 387.097 325.063 387.553 325.063C388.013 325.063 388.414 324.981 388.756 324.817C389.102 324.653 389.371 324.403 389.562 324.065C389.754 323.728 389.85 323.3 389.85 322.78V316.047ZM393.233 316.047H396.528C397.276 316.047 397.907 316.161 398.422 316.389C398.941 316.617 399.336 316.954 399.604 317.4C399.878 317.842 400.015 318.387 400.015 319.034C400.015 319.49 399.921 319.907 399.734 320.285C399.552 320.659 399.288 320.978 398.941 321.242C398.6 321.502 398.189 321.696 397.711 321.823L397.342 321.967H394.245L394.231 320.894H396.569C397.043 320.894 397.438 320.812 397.752 320.647C398.066 320.479 398.303 320.253 398.463 319.971C398.622 319.688 398.702 319.376 398.702 319.034C398.702 318.651 398.627 318.316 398.477 318.029C398.326 317.742 398.089 317.521 397.766 317.366C397.447 317.207 397.034 317.127 396.528 317.127H394.553V326H393.233V316.047ZM399.051 326L396.631 321.488L398.005 321.481L400.459 325.918V326H399.051ZM405.408 321.345H402.886L402.872 320.285H405.162C405.54 320.285 405.871 320.221 406.153 320.094C406.436 319.966 406.655 319.784 406.81 319.547C406.969 319.305 407.049 319.018 407.049 318.686C407.049 318.321 406.978 318.025 406.837 317.797C406.7 317.564 406.488 317.396 406.201 317.291C405.919 317.182 405.559 317.127 405.121 317.127H403.18V326H401.86V316.047H405.121C405.632 316.047 406.087 316.099 406.488 316.204C406.889 316.304 407.229 316.464 407.507 316.683C407.789 316.897 408.004 317.17 408.149 317.503C408.295 317.836 408.368 318.234 408.368 318.699C408.368 319.109 408.263 319.481 408.054 319.813C407.844 320.142 407.552 320.41 407.179 320.62C406.81 320.83 406.377 320.964 405.88 321.023L405.408 321.345ZM405.347 326H402.366L403.111 324.927H405.347C405.766 324.927 406.121 324.854 406.413 324.708C406.709 324.562 406.935 324.357 407.09 324.093C407.245 323.824 407.322 323.507 407.322 323.143C407.322 322.773 407.256 322.454 407.124 322.186C406.992 321.917 406.785 321.709 406.502 321.563C406.219 321.418 405.855 321.345 405.408 321.345H403.528L403.542 320.285H406.112L406.393 320.668C406.871 320.709 407.277 320.846 407.609 321.078C407.942 321.306 408.195 321.598 408.368 321.953C408.546 322.309 408.635 322.701 408.635 323.129C408.635 323.749 408.498 324.273 408.225 324.701C407.956 325.125 407.575 325.449 407.083 325.672C406.591 325.891 406.012 326 405.347 326ZM414.268 316.929L410.973 326H409.626L413.42 316.047H414.288L414.268 316.929ZM417.029 326L413.728 316.929L413.707 316.047H414.575L418.383 326H417.029ZM416.858 322.315V323.396H411.267V322.315H416.858ZM427.372 316.047V326H426.046L421.035 318.323V326H419.716V316.047H421.035L426.066 323.744V316.047H427.372ZM439.506 324.927V326H434.235V324.927H439.506ZM434.502 316.047V326H433.183V316.047H434.502ZM438.809 320.326V321.399H434.235V320.326H438.809ZM439.438 316.047V317.127H434.235V316.047H439.438ZM448.796 316.047V326H447.47L442.459 318.323V326H441.14V316.047H442.459L447.49 323.744V316.047H448.796ZM454.347 324.489L457.279 316.047H458.708L455.023 326H454.005L454.347 324.489ZM451.605 316.047L454.511 324.489L454.873 326H453.854L450.177 316.047H451.605ZM461.463 316.047V326H460.144V316.047H461.463ZM463.862 316.047H467.157C467.905 316.047 468.536 316.161 469.051 316.389C469.57 316.617 469.965 316.954 470.233 317.4C470.507 317.842 470.644 318.387 470.644 319.034C470.644 319.49 470.55 319.907 470.363 320.285C470.181 320.659 469.917 320.978 469.57 321.242C469.229 321.502 468.818 321.696 468.34 321.823L467.971 321.967H464.874L464.86 320.894H467.198C467.672 320.894 468.066 320.812 468.381 320.647C468.695 320.479 468.932 320.253 469.092 319.971C469.251 319.688 469.331 319.376 469.331 319.034C469.331 318.651 469.256 318.316 469.105 318.029C468.955 317.742 468.718 317.521 468.395 317.366C468.076 317.207 467.663 317.127 467.157 317.127H465.182V326H463.862V316.047ZM469.68 326L467.26 321.488L468.634 321.481L471.088 325.918V326H469.68ZM480.152 320.709V321.338C480.152 322.085 480.059 322.755 479.872 323.348C479.685 323.94 479.416 324.444 479.065 324.858C478.715 325.273 478.293 325.59 477.801 325.809C477.313 326.027 476.766 326.137 476.16 326.137C475.572 326.137 475.032 326.027 474.54 325.809C474.052 325.59 473.629 325.273 473.269 324.858C472.913 324.444 472.637 323.94 472.441 323.348C472.245 322.755 472.147 322.085 472.147 321.338V320.709C472.147 319.962 472.243 319.294 472.435 318.706C472.631 318.114 472.906 317.61 473.262 317.195C473.617 316.776 474.039 316.457 474.526 316.238C475.019 316.02 475.559 315.91 476.146 315.91C476.753 315.91 477.299 316.02 477.787 316.238C478.279 316.457 478.701 316.776 479.052 317.195C479.407 317.61 479.678 318.114 479.865 318.706C480.057 319.294 480.152 319.962 480.152 320.709ZM478.847 321.338V320.695C478.847 320.103 478.785 319.579 478.662 319.123C478.544 318.667 478.368 318.285 478.136 317.975C477.903 317.665 477.618 317.43 477.281 317.271C476.949 317.111 476.57 317.031 476.146 317.031C475.736 317.031 475.365 317.111 475.032 317.271C474.704 317.43 474.422 317.665 474.185 317.975C473.952 318.285 473.772 318.667 473.645 319.123C473.517 319.579 473.453 320.103 473.453 320.695V321.338C473.453 321.935 473.517 322.464 473.645 322.924C473.772 323.38 473.954 323.765 474.191 324.079C474.433 324.389 474.718 324.624 475.046 324.783C475.379 324.943 475.75 325.022 476.16 325.022C476.589 325.022 476.969 324.943 477.302 324.783C477.634 324.624 477.915 324.389 478.143 324.079C478.375 323.765 478.55 323.38 478.669 322.924C478.787 322.464 478.847 321.935 478.847 321.338ZM489.784 316.047V326H488.458L483.447 318.323V326H482.128V316.047H483.447L488.479 323.744V316.047H489.784ZM492.539 316.047H493.817L497.078 324.161L500.332 316.047H501.617L497.57 326H496.572L492.539 316.047ZM492.122 316.047H493.25L493.435 322.117V326H492.122V316.047ZM500.899 316.047H502.027V326H500.715V322.117L500.899 316.047ZM510.668 324.927V326H505.397V324.927H510.668ZM505.664 316.047V326H504.345V316.047H505.664ZM509.971 320.326V321.399H505.397V320.326H509.971ZM510.6 316.047V317.127H505.397V316.047H510.6ZM519.958 316.047V326H518.632L513.621 318.323V326H512.302V316.047H513.621L518.652 323.744V316.047H519.958ZM525.769 316.047V326H524.47V316.047H525.769ZM528.968 316.047V317.127H521.277V316.047H528.968Z" fill="#A9EA98"/>
<rect x="367" y="405" width="94" height="36" rx="18" fill="#0041AC"/>
<path d="M386.773 424.992L388.749 418.047H389.706L389.152 420.747L387.026 428H386.076L386.773 424.992ZM384.729 418.047L386.302 424.855L386.773 428H385.83L383.417 418.047H384.729ZM392.263 424.849L393.801 418.047H395.12L392.714 428H391.771L392.263 424.849ZM389.85 418.047L391.771 424.992L392.468 428H391.518L389.467 420.747L388.906 418.047H389.85ZM397.998 418.047V428H396.679V418.047H397.998ZM406.434 426.927V428H401.457V426.927H406.434ZM401.717 418.047V428H400.397V418.047H401.717ZM410.638 428H408.56L408.573 426.927H410.638C411.349 426.927 411.941 426.779 412.415 426.482C412.889 426.182 413.244 425.762 413.481 425.225C413.723 424.682 413.844 424.049 413.844 423.324V422.716C413.844 422.146 413.775 421.64 413.639 421.198C413.502 420.752 413.301 420.376 413.037 420.07C412.773 419.76 412.449 419.526 412.066 419.366C411.688 419.207 411.253 419.127 410.761 419.127H408.519V418.047H410.761C411.412 418.047 412.007 418.156 412.545 418.375C413.083 418.589 413.545 418.901 413.933 419.312C414.325 419.717 414.625 420.209 414.835 420.788C415.045 421.362 415.149 422.009 415.149 422.729V423.324C415.149 424.044 415.045 424.694 414.835 425.272C414.625 425.847 414.322 426.337 413.926 426.742C413.534 427.148 413.06 427.46 412.504 427.679C411.952 427.893 411.33 428 410.638 428ZM409.264 418.047V428H407.944V418.047H409.264ZM418.451 418.047V428H417.132V418.047H418.451ZM422.621 422.524V423.604H418.164V422.524H422.621ZM423.298 418.047V419.127H418.164V418.047H423.298ZM426.285 418.047V428H424.966V418.047H426.285ZM428.685 418.047H431.979C432.727 418.047 433.358 418.161 433.873 418.389C434.393 418.617 434.787 418.954 435.056 419.4C435.329 419.842 435.466 420.387 435.466 421.034C435.466 421.49 435.372 421.907 435.186 422.285C435.003 422.659 434.739 422.978 434.393 423.242C434.051 423.502 433.641 423.696 433.162 423.823L432.793 423.967H429.696L429.683 422.894H432.021C432.494 422.894 432.889 422.812 433.203 422.647C433.518 422.479 433.755 422.253 433.914 421.971C434.074 421.688 434.153 421.376 434.153 421.034C434.153 420.651 434.078 420.316 433.928 420.029C433.777 419.742 433.54 419.521 433.217 419.366C432.898 419.207 432.485 419.127 431.979 419.127H430.004V428H428.685V418.047ZM434.502 428L432.082 423.488L433.456 423.481L435.91 427.918V428H434.502ZM443.635 426.927V428H438.364V426.927H443.635ZM438.631 418.047V428H437.312V418.047H438.631ZM442.938 422.326V423.399H438.364V422.326H442.938ZM443.566 418.047V419.127H438.364V418.047H443.566Z" fill="#A9EA98"/>
<rect x="367" y="202" width="178" height="36" rx="18" fill="#0041AC"/>
<path d="M386.773 221.992L388.749 215.047H389.706L389.152 217.747L387.026 225H386.076L386.773 221.992ZM384.729 215.047L386.302 221.855L386.773 225H385.83L383.417 215.047H384.729ZM392.263 221.849L393.801 215.047H395.12L392.714 225H391.771L392.263 221.849ZM389.85 215.047L391.771 221.992L392.468 225H391.518L389.467 217.747L388.906 215.047H389.85ZM399.967 215.929L396.672 225H395.325L399.119 215.047H399.987L399.967 215.929ZM402.729 225L399.427 215.929L399.406 215.047H400.274L404.082 225H402.729ZM402.558 221.315V222.396H396.966V221.315H402.558ZM408.204 215.047V225H406.905V215.047H408.204ZM411.403 215.047V216.127H403.713V215.047H411.403ZM419.203 223.927V225H413.933V223.927H419.203ZM414.199 215.047V225H412.88V215.047H414.199ZM418.506 219.326V220.399H413.933V219.326H418.506ZM419.135 215.047V216.127H413.933V215.047H419.135ZM420.837 215.047H424.132C424.879 215.047 425.51 215.161 426.025 215.389C426.545 215.617 426.939 215.954 427.208 216.4C427.481 216.842 427.618 217.387 427.618 218.034C427.618 218.49 427.525 218.907 427.338 219.285C427.156 219.659 426.891 219.978 426.545 220.242C426.203 220.502 425.793 220.696 425.314 220.823L424.945 220.967H421.849L421.835 219.894H424.173C424.647 219.894 425.041 219.812 425.355 219.647C425.67 219.479 425.907 219.253 426.066 218.971C426.226 218.688 426.306 218.376 426.306 218.034C426.306 217.651 426.23 217.316 426.08 217.029C425.93 216.742 425.693 216.521 425.369 216.366C425.05 216.207 424.638 216.127 424.132 216.127H422.156V225H420.837V215.047ZM426.654 225L424.234 220.488L425.608 220.481L428.062 224.918V225H426.654ZM433.354 215.047H434.632L437.893 223.161L441.146 215.047H442.432L438.385 225H437.387L433.354 215.047ZM432.937 215.047H434.064L434.249 221.117V225H432.937V215.047ZM441.714 215.047H442.842V225H441.529V221.117L441.714 215.047ZM448.967 215.929L445.672 225H444.325L448.119 215.047H448.987L448.967 215.929ZM451.729 225L448.427 215.929L448.406 215.047H449.274L453.082 225H451.729ZM451.558 221.315V222.396H445.966V221.315H451.558ZM462.071 215.047V225H460.745L455.734 217.323V225H454.415V215.047H455.734L460.766 222.744V215.047H462.071ZM468.217 215.929L464.922 225H463.575L467.369 215.047H468.237L468.217 215.929ZM470.979 225L467.677 215.929L467.656 215.047H468.524L472.332 225H470.979ZM470.808 221.315V222.396H465.216V221.315H470.808ZM480.938 220.044V223.688C480.815 223.87 480.619 224.075 480.351 224.303C480.082 224.526 479.71 224.722 479.236 224.891C478.767 225.055 478.161 225.137 477.418 225.137C476.812 225.137 476.254 225.032 475.743 224.822C475.237 224.608 474.798 224.298 474.424 223.893C474.055 223.482 473.768 222.986 473.562 222.402C473.362 221.814 473.262 221.149 473.262 220.406V219.634C473.262 218.891 473.348 218.228 473.521 217.645C473.699 217.061 473.959 216.567 474.301 216.161C474.643 215.751 475.062 215.441 475.559 215.231C476.055 215.017 476.625 214.91 477.268 214.91C478.029 214.91 478.664 215.042 479.175 215.307C479.69 215.566 480.091 215.926 480.378 216.387C480.67 216.847 480.856 217.371 480.938 217.959H479.619C479.56 217.599 479.441 217.271 479.264 216.975C479.09 216.678 478.842 216.441 478.519 216.264C478.195 216.081 477.778 215.99 477.268 215.99C476.807 215.99 476.409 216.075 476.071 216.243C475.734 216.412 475.456 216.653 475.237 216.968C475.019 217.282 474.854 217.663 474.745 218.109C474.64 218.556 474.588 219.06 474.588 219.62V220.406C474.588 220.98 474.654 221.493 474.786 221.944C474.923 222.396 475.117 222.781 475.367 223.1C475.618 223.414 475.916 223.653 476.263 223.817C476.614 223.981 477.001 224.063 477.425 224.063C477.894 224.063 478.275 224.025 478.566 223.947C478.858 223.865 479.086 223.77 479.25 223.66C479.414 223.546 479.539 223.439 479.626 223.339V221.11H477.322V220.044H480.938ZM489.449 223.927V225H484.179V223.927H489.449ZM484.445 215.047V225H483.126V215.047H484.445ZM488.752 219.326V220.399H484.179V219.326H488.752ZM489.381 215.047V216.127H484.179V215.047H489.381ZM491.5 215.047H492.778L496.039 223.161L499.293 215.047H500.578L496.531 225H495.533L491.5 215.047ZM491.083 215.047H492.211L492.396 221.117V225H491.083V215.047ZM499.86 215.047H500.988V225H499.676V221.117L499.86 215.047ZM509.629 223.927V225H504.358V223.927H509.629ZM504.625 215.047V225H503.306V215.047H504.625ZM508.932 219.326V220.399H504.358V219.326H508.932ZM509.561 215.047V216.127H504.358V215.047H509.561ZM518.919 215.047V225H517.593L512.582 217.323V225H511.263V215.047H512.582L517.613 222.744V215.047H518.919ZM524.729 215.047V225H523.431V215.047H524.729ZM527.929 215.047V216.127H520.238V215.047H527.929Z" fill="#A9EA98"/>
<rect x="367" y="101" width="121" height="36" rx="18" fill="#0041AC"/>
<path d="M387.84 114.929L384.545 124H383.198L386.992 114.047H387.86L387.84 114.929ZM390.602 124L387.3 114.929L387.279 114.047H388.147L391.955 124H390.602ZM390.431 120.315V121.396H384.839V120.315H390.431ZM400.562 119.044V122.688C400.438 122.87 400.243 123.075 399.974 123.303C399.705 123.526 399.333 123.722 398.859 123.891C398.39 124.055 397.784 124.137 397.041 124.137C396.435 124.137 395.877 124.032 395.366 123.822C394.86 123.608 394.421 123.298 394.047 122.893C393.678 122.482 393.391 121.986 393.186 121.402C392.985 120.814 392.885 120.149 392.885 119.406V118.634C392.885 117.891 392.971 117.228 393.145 116.645C393.322 116.061 393.582 115.567 393.924 115.161C394.266 114.751 394.685 114.441 395.182 114.231C395.678 114.017 396.248 113.91 396.891 113.91C397.652 113.91 398.287 114.042 398.798 114.307C399.313 114.566 399.714 114.926 400.001 115.387C400.293 115.847 400.479 116.371 400.562 116.959H399.242C399.183 116.599 399.064 116.271 398.887 115.975C398.714 115.678 398.465 115.441 398.142 115.264C397.818 115.081 397.401 114.99 396.891 114.99C396.43 114.99 396.032 115.075 395.694 115.243C395.357 115.412 395.079 115.653 394.86 115.968C394.642 116.282 394.478 116.663 394.368 117.109C394.263 117.556 394.211 118.06 394.211 118.62V119.406C394.211 119.98 394.277 120.493 394.409 120.944C394.546 121.396 394.74 121.781 394.99 122.1C395.241 122.414 395.539 122.653 395.886 122.817C396.237 122.981 396.624 123.063 397.048 123.063C397.517 123.063 397.898 123.025 398.189 122.947C398.481 122.865 398.709 122.77 398.873 122.66C399.037 122.546 399.162 122.439 399.249 122.339V120.11H396.945V119.044H400.562ZM402.749 114.047H406.044C406.791 114.047 407.423 114.161 407.938 114.389C408.457 114.617 408.851 114.954 409.12 115.4C409.394 115.842 409.53 116.387 409.53 117.034C409.53 117.49 409.437 117.907 409.25 118.285C409.068 118.659 408.803 118.978 408.457 119.242C408.115 119.502 407.705 119.696 407.227 119.823L406.857 119.967H403.761L403.747 118.894H406.085C406.559 118.894 406.953 118.812 407.268 118.647C407.582 118.479 407.819 118.253 407.979 117.971C408.138 117.688 408.218 117.376 408.218 117.034C408.218 116.651 408.143 116.316 407.992 116.029C407.842 115.742 407.605 115.521 407.281 115.366C406.962 115.207 406.55 115.127 406.044 115.127H404.068V124H402.749V114.047ZM408.566 124L406.146 119.488L407.521 119.481L409.975 123.918V124H408.566ZM412.791 114.047V124H411.472V114.047H412.791ZM421.199 120.835H422.512C422.443 121.464 422.263 122.027 421.972 122.523C421.68 123.02 421.268 123.414 420.734 123.706C420.201 123.993 419.536 124.137 418.738 124.137C418.155 124.137 417.624 124.027 417.146 123.809C416.672 123.59 416.264 123.28 415.922 122.879C415.58 122.473 415.316 121.988 415.129 121.423C414.947 120.853 414.855 120.22 414.855 119.522V118.531C414.855 117.834 414.947 117.203 415.129 116.638C415.316 116.068 415.582 115.58 415.929 115.175C416.28 114.769 416.701 114.457 417.193 114.238C417.686 114.02 418.239 113.91 418.854 113.91C419.606 113.91 420.242 114.051 420.762 114.334C421.281 114.617 421.685 115.008 421.972 115.51C422.263 116.007 422.443 116.583 422.512 117.239H421.199C421.135 116.774 421.017 116.376 420.844 116.043C420.671 115.706 420.424 115.446 420.105 115.264C419.786 115.081 419.369 114.99 418.854 114.99C418.412 114.99 418.023 115.075 417.686 115.243C417.353 115.412 417.073 115.651 416.845 115.961C416.621 116.271 416.453 116.642 416.339 117.075C416.225 117.508 416.168 117.989 416.168 118.518V119.522C416.168 120.01 416.218 120.468 416.318 120.896C416.423 121.325 416.58 121.701 416.79 122.024C417 122.348 417.266 122.603 417.59 122.79C417.913 122.972 418.296 123.063 418.738 123.063C419.299 123.063 419.745 122.975 420.078 122.797C420.411 122.619 420.661 122.364 420.83 122.031C421.003 121.699 421.126 121.3 421.199 120.835ZM430.004 114.047H431.316V120.78C431.316 121.528 431.15 122.15 430.817 122.646C430.485 123.143 430.043 123.517 429.491 123.768C428.944 124.014 428.35 124.137 427.707 124.137C427.033 124.137 426.422 124.014 425.875 123.768C425.333 123.517 424.902 123.143 424.583 122.646C424.269 122.15 424.111 121.528 424.111 120.78V114.047H425.417V120.78C425.417 121.3 425.513 121.728 425.704 122.065C425.896 122.403 426.162 122.653 426.504 122.817C426.85 122.981 427.251 123.063 427.707 123.063C428.167 123.063 428.568 122.981 428.91 122.817C429.257 122.653 429.525 122.403 429.717 122.065C429.908 121.728 430.004 121.3 430.004 120.78V114.047ZM439.424 122.927V124H434.447V122.927H439.424ZM434.707 114.047V124H433.388V114.047H434.707ZM442.726 114.047V124H441.427V114.047H442.726ZM445.925 114.047V115.127H438.234V114.047H445.925ZM453.096 114.047H454.408V120.78C454.408 121.528 454.242 122.15 453.909 122.646C453.576 123.143 453.134 123.517 452.583 123.768C452.036 124.014 451.441 124.137 450.799 124.137C450.124 124.137 449.514 124.014 448.967 123.768C448.424 123.517 447.994 123.143 447.675 122.646C447.36 122.15 447.203 121.528 447.203 120.78V114.047H448.509V120.78C448.509 121.3 448.604 121.728 448.796 122.065C448.987 122.403 449.254 122.653 449.596 122.817C449.942 122.981 450.343 123.063 450.799 123.063C451.259 123.063 451.66 122.981 452.002 122.817C452.348 122.653 452.617 122.403 452.809 122.065C453 121.728 453.096 121.3 453.096 120.78V114.047ZM456.479 114.047H459.774C460.522 114.047 461.153 114.161 461.668 114.389C462.188 114.617 462.582 114.954 462.851 115.4C463.124 115.842 463.261 116.387 463.261 117.034C463.261 117.49 463.167 117.907 462.98 118.285C462.798 118.659 462.534 118.978 462.188 119.242C461.846 119.502 461.436 119.696 460.957 119.823L460.588 119.967H457.491L457.478 118.894H459.815C460.289 118.894 460.684 118.812 460.998 118.647C461.312 118.479 461.549 118.253 461.709 117.971C461.868 117.688 461.948 117.376 461.948 117.034C461.948 116.651 461.873 116.316 461.723 116.029C461.572 115.742 461.335 115.521 461.012 115.366C460.693 115.207 460.28 115.127 459.774 115.127H457.799V124H456.479V114.047ZM462.297 124L459.877 119.488L461.251 119.481L463.705 123.918V124H462.297ZM471.43 122.927V124H466.159V122.927H471.43ZM466.426 114.047V124H465.106V114.047H466.426ZM470.732 118.326V119.399H466.159V118.326H470.732ZM471.361 114.047V115.127H466.159V114.047H471.361Z" fill="#A9EA98"/>
<circle cx="247" cy="134" r="8.5" fill="white"/>
<circle cx="247" cy="134" r="8.5" fill="white"/>
<circle cx="247" cy="134" r="8.5" stroke="#93D49A" stroke-width="3"/>
<circle cx="247" cy="134" r="4" fill="#93D49A"/>
<circle cx="247" cy="195.875" r="8.5" fill="white"/>
<circle cx="247" cy="195.875" r="8.5" fill="white"/>
<circle cx="247" cy="195.875" r="8.5" stroke="#82C39C" stroke-width="3"/>
<circle cx="247" cy="195.875" r="4" fill="#82C39C"/>
<circle cx="247" cy="257.75" r="8.5" fill="white"/>
<circle cx="247" cy="257.75" r="8.5" fill="white"/>
<circle cx="247" cy="257.75" r="8.5" stroke="#71B29F" stroke-width="3"/>
<circle cx="247" cy="257.75" r="4" fill="#71B29F"/>
<circle cx="247" cy="319.625" r="8.5" fill="white"/>
<circle cx="247" cy="319.625" r="8.5" fill="white"/>
<circle cx="247" cy="319.625" r="8.5" stroke="#60A1A1" stroke-width="3"/>
<circle cx="247" cy="319.625" r="4" fill="#60A1A1"/>
<circle cx="247" cy="381.5" r="8.5" fill="white"/>
<circle cx="247" cy="381.5" r="8.5" fill="white"/>
<circle cx="247" cy="381.5" r="8.5" stroke="#5596A2" stroke-width="3"/>
<circle cx="247" cy="381.5" r="4" fill="#5596A2"/>
<circle cx="247" cy="443.375" r="8.5" fill="white"/>
<circle cx="247" cy="443.375" r="8.5" fill="white"/>
<circle cx="247" cy="443.375" r="8.5" stroke="#3E80A5" stroke-width="3"/>
<circle cx="247" cy="443.375" r="4" fill="#3E80A5"/>
<circle cx="247" cy="505.25" r="8.5" fill="white"/>
<circle cx="247" cy="505.25" r="8.5" fill="white"/>
<circle cx="247" cy="505.25" r="8.5" stroke="#3172A6" stroke-width="3"/>
<circle cx="247" cy="505.25" r="4" fill="#3172A6"/>
<circle cx="247" cy="567.125" r="8.5" fill="white"/>
<circle cx="247" cy="567.125" r="8.5" fill="white"/>
<circle cx="247" cy="567.125" r="8.5" stroke="#1D5EA9" stroke-width="3"/>
<circle cx="247" cy="567.125" r="4" fill="#1D5EA9"/>
<circle cx="247" cy="629" r="8.5" fill="white"/>
<circle cx="247" cy="629" r="8.5" fill="white"/>
<circle cx="247" cy="629" r="8.5" stroke="#0041AC" stroke-width="3"/>
<circle cx="247" cy="629" r="4" fill="#0041AC"/>
<defs>
<linearGradient id="paint0_linear_3589_5333" x1="246.5" y1="684" x2="246.5" y2="39" gradientUnits="userSpaceOnUse">
<stop stop-color="#0041AC"/>
<stop offset="1" stop-color="#A9EA98"/>
</linearGradient>
</defs>
</svg>
