<svg width="324" height="717" viewBox="0 0 324 717" fill="none" xmlns="http://www.w3.org/2000/svg">
<circle cx="24.5" cy="693" r="24" fill="#0041AC"/>
<path d="M32.6319 691.837C33.8781 692.582 33.8781 694.388 32.6319 695.133L21.9779 701.503C20.6981 702.269 19.0725 701.347 19.0725 699.856L19.0725 687.114C19.0725 685.623 20.6981 684.701 21.9779 685.466L32.6319 691.837Z" stroke="#A9EA98" stroke-width="1.28"/>
<path d="M22.5 648C22.5 649.381 23.6193 650.5 25 650.5C26.3807 650.5 27.5 649.381 27.5 648H22.5ZM133.768 286.768C134.744 285.791 134.744 284.209 133.768 283.232L117.858 267.322C116.882 266.346 115.299 266.346 114.322 267.322C113.346 268.299 113.346 269.882 114.322 270.858L128.464 285L114.322 299.142C113.346 300.118 113.346 301.701 114.322 302.678C115.299 303.654 116.882 303.654 117.858 302.678L133.768 286.768ZM27.5 648V335.794H22.5V648H27.5ZM75.7938 287.5H132V282.5H75.7938V287.5ZM27.5 335.794C27.5 309.122 49.1219 287.5 75.7938 287.5V282.5C46.3604 282.5 22.5 306.36 22.5 335.794H27.5Z" fill="#5697A2"/>
<path d="M22.5 612C22.5 613.381 23.6193 614.5 25 614.5C26.3807 614.5 27.5 613.381 27.5 612H22.5ZM75.7938 79.5C74.4131 79.5 73.2938 80.6193 73.2938 82C73.2938 83.3807 74.4131 84.5 75.7938 84.5V79.5ZM133.768 83.7678C134.744 82.7915 134.744 81.2085 133.768 80.2322L117.858 64.3223C116.882 63.346 115.299 63.346 114.322 64.3223C113.346 65.2986 113.346 66.8816 114.322 67.8579L128.464 82L114.322 96.1421C113.346 97.1184 113.346 98.7014 114.322 99.6777C115.299 100.654 116.882 100.654 117.858 99.6777L133.768 83.7678ZM75.7938 84.5C77.1745 84.5 78.2938 83.3807 78.2938 82C78.2938 80.6193 77.1745 79.5 75.7938 79.5V84.5ZM27.5 609.504C27.5 608.123 26.3807 607.004 25 607.004C23.6193 607.004 22.5 608.123 22.5 609.504H27.5ZM22.5 594.529C22.5 595.91 23.6193 597.029 25 597.029C26.3807 597.029 27.5 595.91 27.5 594.529H22.5ZM27.5 589.537C27.5 588.156 26.3807 587.037 25 587.037C23.6193 587.037 22.5 588.156 22.5 589.537H27.5ZM22.5 574.562C22.5 575.943 23.6193 577.062 25 577.062C26.3807 577.062 27.5 575.943 27.5 574.562H22.5ZM27.5 569.57C27.5 568.19 26.3807 567.07 25 567.07C23.6193 567.07 22.5 568.19 22.5 569.57H27.5ZM22.5 554.595C22.5 555.976 23.6193 557.095 25 557.095C26.3807 557.095 27.5 555.976 27.5 554.595H22.5ZM27.5 549.603C27.5 548.223 26.3807 547.103 25 547.103C23.6193 547.103 22.5 548.223 22.5 549.603H27.5ZM22.5 534.628C22.5 536.009 23.6193 537.128 25 537.128C26.3807 537.128 27.5 536.009 27.5 534.628H22.5ZM27.5 529.636C27.5 528.256 26.3807 527.136 25 527.136C23.6193 527.136 22.5 528.256 22.5 529.636H27.5ZM22.5 514.661C22.5 516.042 23.6193 517.161 25 517.161C26.3807 517.161 27.5 516.042 27.5 514.661H22.5ZM27.5 509.67C27.5 508.289 26.3807 507.17 25 507.17C23.6193 507.17 22.5 508.289 22.5 509.67H27.5ZM22.5 494.694C22.5 496.075 23.6193 497.194 25 497.194C26.3807 497.194 27.5 496.075 27.5 494.694H22.5ZM27.5 489.703C27.5 488.322 26.3807 487.203 25 487.203C23.6193 487.203 22.5 488.322 22.5 489.703H27.5ZM22.5 474.727C22.5 476.108 23.6193 477.227 25 477.227C26.3807 477.227 27.5 476.108 27.5 474.727H22.5ZM27.5 469.736C27.5 468.355 26.3807 467.236 25 467.236C23.6193 467.236 22.5 468.355 22.5 469.736H27.5ZM22.5 454.76C22.5 456.141 23.6193 457.26 25 457.26C26.3807 457.26 27.5 456.141 27.5 454.76H22.5ZM27.5 449.769C27.5 448.388 26.3807 447.269 25 447.269C23.6193 447.269 22.5 448.388 22.5 449.769H27.5ZM22.5 434.794C22.5 436.174 23.6193 437.294 25 437.294C26.3807 437.294 27.5 436.174 27.5 434.794H22.5ZM27.5 429.802C27.5 428.421 26.3807 427.302 25 427.302C23.6193 427.302 22.5 428.421 22.5 429.802H27.5ZM22.5 414.827C22.5 416.207 23.6193 417.327 25 417.327C26.3807 417.327 27.5 416.207 27.5 414.827H22.5ZM27.5 409.835C27.5 408.454 26.3807 407.335 25 407.335C23.6193 407.335 22.5 408.454 22.5 409.835H27.5ZM22.5 394.86C22.5 396.24 23.6193 397.36 25 397.36C26.3807 397.36 27.5 396.24 27.5 394.86H22.5ZM27.5 389.868C27.5 388.487 26.3807 387.368 25 387.368C23.6193 387.368 22.5 388.487 22.5 389.868H27.5ZM22.5 374.893C22.5 376.273 23.6193 377.393 25 377.393C26.3807 377.393 27.5 376.273 27.5 374.893H22.5ZM27.5 369.901C27.5 368.52 26.3807 367.401 25 367.401C23.6193 367.401 22.5 368.52 22.5 369.901H27.5ZM22.5 354.926C22.5 356.307 23.6193 357.426 25 357.426C26.3807 357.426 27.5 356.307 27.5 354.926H22.5ZM27.5 349.934C27.5 348.553 26.3807 347.434 25 347.434C23.6193 347.434 22.5 348.553 22.5 349.934H27.5ZM22.5 334.959C22.5 336.34 23.6193 337.459 25 337.459C26.3807 337.459 27.5 336.34 27.5 334.959H22.5ZM27.5 329.967C27.5 328.587 26.3807 327.467 25 327.467C23.6193 327.467 22.5 328.587 22.5 329.967H27.5ZM22.5 314.992C22.5 316.373 23.6193 317.492 25 317.492C26.3807 317.492 27.5 316.373 27.5 314.992H22.5ZM27.5 310C27.5 308.62 26.3807 307.5 25 307.5C23.6193 307.5 22.5 308.62 22.5 310H27.5ZM22.5 295.025C22.5 296.406 23.6193 297.525 25 297.525C26.3807 297.525 27.5 296.406 27.5 295.025H22.5ZM27.5 290.033C27.5 288.653 26.3807 287.533 25 287.533C23.6193 287.533 22.5 288.653 22.5 290.033H27.5ZM22.5 275.058C22.5 276.439 23.6193 277.558 25 277.558C26.3807 277.558 27.5 276.439 27.5 275.058H22.5ZM27.5 270.066C27.5 268.686 26.3807 267.566 25 267.566C23.6193 267.566 22.5 268.686 22.5 270.066H27.5ZM22.5 255.091C22.5 256.472 23.6193 257.591 25 257.591C26.3807 257.591 27.5 256.472 27.5 255.091H22.5ZM27.5 250.1C27.5 248.719 26.3807 247.6 25 247.6C23.6193 247.6 22.5 248.719 22.5 250.1H27.5ZM22.5 235.124C22.5 236.505 23.6193 237.624 25 237.624C26.3807 237.624 27.5 236.505 27.5 235.124H22.5ZM27.5 230.133C27.5 228.752 26.3807 227.633 25 227.633C23.6193 227.633 22.5 228.752 22.5 230.133H27.5ZM22.5 215.157C22.5 216.538 23.6193 217.657 25 217.657C26.3807 217.657 27.5 216.538 27.5 215.157H22.5ZM27.5 210.166C27.5 208.785 26.3807 207.666 25 207.666C23.6193 207.666 22.5 208.785 22.5 210.166H27.5ZM22.5 195.191C22.5 196.571 23.6193 197.691 25 197.691C26.3807 197.691 27.5 196.571 27.5 195.191H22.5ZM27.5 190.199C27.5 188.818 26.3807 187.699 25 187.699C23.6193 187.699 22.5 188.818 22.5 190.199H27.5ZM22.5 175.224C22.5 176.604 23.6193 177.724 25 177.724C26.3807 177.724 27.5 176.604 27.5 175.224H22.5ZM27.5 170.232C27.5 168.851 26.3807 167.732 25 167.732C23.6193 167.732 22.5 168.851 22.5 170.232H27.5ZM22.5 155.257C22.5 156.637 23.6193 157.757 25 157.757C26.3807 157.757 27.5 156.637 27.5 155.257H22.5ZM27.5 150.265C27.5 148.884 26.3807 147.765 25 147.765C23.6193 147.765 22.5 148.884 22.5 150.265H27.5ZM22.5 135.29C22.5 136.67 23.6193 137.79 25 137.79C26.3807 137.79 27.5 136.67 27.5 135.29H22.5ZM27.5572 130.421C27.6239 129.042 26.5599 127.87 25.1808 127.803C23.8017 127.737 22.6297 128.801 22.563 130.18L27.5572 130.421ZM25.6026 114.834C25.1374 116.134 25.8141 117.565 27.1141 118.03C28.414 118.496 29.845 117.819 30.3102 116.519L25.6026 114.834ZM32.1251 112.142C32.7163 110.894 32.1841 109.404 30.9363 108.812C29.6886 108.221 28.1978 108.754 27.6066 110.001L32.1251 112.142ZM36.3057 97.0033C35.3782 98.0261 35.4554 99.6071 36.4781 100.535C37.5009 101.462 39.0819 101.385 40.0095 100.362L36.3057 97.0033ZM43.3622 97.0095C44.3849 96.0819 44.4622 94.5009 43.5346 93.4781C42.6071 92.4554 41.0261 92.3782 40.0033 93.3057L43.3622 97.0095ZM53.0013 84.6066C51.7535 85.1978 51.2213 86.6886 51.8125 87.9363C52.4036 89.1841 53.8944 89.7163 55.1421 89.1251L53.0013 84.6066ZM59.5189 87.3102C60.8189 86.845 61.4956 85.414 61.0304 84.1141C60.5652 82.8141 59.1342 82.1374 57.8342 82.6026L59.5189 87.3102ZM73.1797 79.563C71.8006 79.6297 70.7367 80.8017 70.8033 82.1808C70.87 83.5599 72.042 84.6239 73.4211 84.5572L73.1797 79.563ZM78.1357 84.5C79.5164 84.5 80.6357 83.3807 80.6357 82C80.6357 80.6193 79.5164 79.5 78.1357 79.5V84.5ZM92.1873 79.5C90.8065 79.5 89.6873 80.6193 89.6873 82C89.6873 83.3807 90.8065 84.5 92.1873 84.5V79.5ZM96.8711 84.5C98.2518 84.5 99.3711 83.3807 99.3711 82C99.3711 80.6193 98.2518 79.5 96.8711 79.5V84.5ZM110.923 79.5C109.542 79.5 108.423 80.6193 108.423 82C108.423 83.3807 109.542 84.5 110.923 84.5V79.5ZM115.607 84.5C116.987 84.5 118.107 83.3807 118.107 82C118.107 80.6193 116.987 79.5 115.607 79.5V84.5ZM129.658 79.5C128.277 79.5 127.158 80.6193 127.158 82C127.158 83.3807 128.277 84.5 129.658 84.5V79.5ZM27.5 612V609.504H22.5V612H27.5ZM27.5 594.529V589.537H22.5V594.529H27.5ZM27.5 574.562V569.57H22.5V574.562H27.5ZM27.5 554.595V549.603H22.5V554.595H27.5ZM27.5 534.628V529.636H22.5V534.628H27.5ZM27.5 514.661V509.67H22.5V514.661H27.5ZM27.5 494.694V489.703H22.5V494.694H27.5ZM27.5 474.727V469.736H22.5V474.727H27.5ZM27.5 454.76V449.769H22.5V454.76H27.5ZM27.5 434.794V429.802H22.5V434.794H27.5ZM27.5 414.827V409.835H22.5V414.827H27.5ZM27.5 394.86V389.868H22.5V394.86H27.5ZM27.5 374.893V369.901H22.5V374.893H27.5ZM27.5 354.926V349.934H22.5V354.926H27.5ZM27.5 334.959V329.967H22.5V334.959H27.5ZM27.5 314.992V310H22.5V314.992H27.5ZM27.5 295.025V290.033H22.5V295.025H27.5ZM27.5 275.058V270.066H22.5V275.058H27.5ZM27.5 255.091V250.1H22.5V255.091H27.5ZM27.5 235.124V230.133H22.5V235.124H27.5ZM27.5 215.157V210.166H22.5V215.157H27.5ZM27.5 195.191V190.199H22.5V195.191H27.5ZM27.5 175.224V170.232H22.5V175.224H27.5ZM27.5 155.257V150.265H22.5V155.257H27.5ZM27.5 135.29V132.794H22.5V135.29H27.5ZM27.5 132.794C27.5 131.998 27.5192 131.207 27.5572 130.421L22.563 130.18C22.5212 131.046 22.5 131.918 22.5 132.794H27.5ZM30.3102 116.519C30.8449 115.025 31.4513 113.564 32.1251 112.142L27.6066 110.001C26.8627 111.572 26.1931 113.184 25.6026 114.834L30.3102 116.519ZM40.0095 100.362C41.0718 99.1908 42.1908 98.0718 43.3622 97.0095L40.0033 93.3057C38.7114 94.4773 37.4773 95.7114 36.3057 97.0033L40.0095 100.362ZM55.1421 89.1251C56.5644 88.4513 58.0247 87.845 59.5189 87.3102L57.8342 82.6026C56.184 83.1931 54.5715 83.8627 53.0013 84.6066L55.1421 89.1251ZM73.4211 84.5572C74.207 84.5192 74.9981 84.5 75.7938 84.5V79.5C74.9175 79.5 74.046 79.5212 73.1797 79.563L73.4211 84.5572ZM75.7938 84.5H78.1357V79.5H75.7938V84.5ZM92.1873 84.5H96.8711V79.5H92.1873V84.5ZM110.923 84.5H115.607V79.5H110.923V84.5ZM129.658 84.5H132V79.5H129.658V84.5Z" fill="#88C99C"/>
<path d="M22.5 612C22.5 613.381 23.6193 614.5 25 614.5C26.3807 614.5 27.5 613.381 27.5 612H22.5ZM133.768 184.768C134.744 183.791 134.744 182.209 133.768 181.232L117.858 165.322C116.882 164.346 115.299 164.346 114.322 165.322C113.346 166.299 113.346 167.882 114.322 168.858L128.464 183L114.322 197.142C113.346 198.118 113.346 199.701 114.322 200.678C115.299 201.654 116.882 201.654 117.858 200.678L133.768 184.768ZM27.5 612V233.794H22.5V612H27.5ZM75.7938 185.5H132V180.5H75.7938V185.5ZM27.5 233.794C27.5 207.122 49.1219 185.5 75.7938 185.5V180.5C46.3604 180.5 22.5 204.36 22.5 233.794H27.5Z" fill="#6CAD9F"/>
<path d="M22.5 648C22.5 649.381 23.6193 650.5 25 650.5C26.3807 650.5 27.5 649.381 27.5 648H22.5ZM133.768 388.768C134.744 387.791 134.744 386.209 133.768 385.232L117.858 369.322C116.882 368.346 115.299 368.346 114.322 369.322C113.346 370.299 113.346 371.882 114.322 372.858L128.464 387L114.322 401.142C113.346 402.118 113.346 403.701 114.322 404.678C115.299 405.654 116.882 405.654 117.858 404.678L133.768 388.768ZM27.5 648V437.794H22.5V648H27.5ZM75.7938 389.5H132V384.5H75.7938V389.5ZM27.5 437.794C27.5 411.122 49.1219 389.5 75.7938 389.5V384.5C46.3604 384.5 22.5 408.36 22.5 437.794H27.5Z" fill="#397AA5"/>
<path d="M22.5 646C22.5 647.381 23.6193 648.5 25 648.5C26.3807 648.5 27.5 647.381 27.5 646H22.5ZM133.768 490.768C134.744 489.791 134.744 488.209 133.768 487.232L117.858 471.322C116.882 470.346 115.299 470.346 114.322 471.322C113.346 472.299 113.346 473.882 114.322 474.858L128.464 489L114.322 503.142C113.346 504.118 113.346 505.701 114.322 506.678C115.299 507.654 116.882 507.654 117.858 506.678L133.768 490.768ZM27.5 646V539.794H22.5V646H27.5ZM75.7938 491.5H132V486.5H75.7938V491.5ZM27.5 539.794C27.5 513.122 49.1219 491.5 75.7938 491.5V486.5C46.3604 486.5 22.5 510.36 22.5 539.794H27.5Z" fill="#1859A9"/>
<path d="M26.7677 1.23224C25.7914 0.25592 24.2085 0.25592 23.2322 1.23224L7.32229 17.1422C6.34598 18.1185 6.34598 19.7014 7.32229 20.6777C8.2986 21.654 9.88152 21.654 10.8578 20.6777L25 6.53558L39.1421 20.6777C40.1184 21.654 41.7013 21.654 42.6776 20.6777C43.6539 19.7014 43.6539 18.1185 42.6776 17.1422L26.7677 1.23224ZM22.5 648C22.5 649.381 23.6193 650.5 25 650.5C26.3807 650.5 27.5 649.381 27.5 648L22.5 648ZM22.5 3L22.5 648L27.5 648L27.5 3L22.5 3Z" fill="url(#paint0_linear_4992_9157)"/>
<rect x="145" y="471" width="85" height="36" rx="18" fill="#0041AC"/>
<path d="M168.479 492.927V494H163.208V492.927H168.479ZM163.475 484.047V494H162.155V484.047H163.475ZM167.781 488.326V489.399H163.208V488.326H167.781ZM168.41 484.047V485.127H163.208V484.047H168.41ZM177.769 484.047V494H176.442L171.432 486.323V494H170.112V484.047H171.432L176.463 491.744V484.047H177.769ZM186.43 492.927V494H181.159V492.927H186.43ZM181.426 484.047V494H180.106V484.047H181.426ZM185.732 488.326V489.399H181.159V488.326H185.732ZM186.361 484.047V485.127H181.159V484.047H186.361ZM188.063 484.047H191.358C192.106 484.047 192.737 484.161 193.252 484.389C193.771 484.617 194.166 484.954 194.435 485.4C194.708 485.842 194.845 486.387 194.845 487.034C194.845 487.49 194.751 487.907 194.564 488.285C194.382 488.659 194.118 488.978 193.771 489.242C193.43 489.502 193.02 489.696 192.541 489.823L192.172 489.967H189.075L189.062 488.894H191.399C191.873 488.894 192.268 488.812 192.582 488.647C192.896 488.479 193.133 488.253 193.293 487.971C193.452 487.688 193.532 487.376 193.532 487.034C193.532 486.651 193.457 486.316 193.307 486.029C193.156 485.742 192.919 485.521 192.596 485.366C192.277 485.207 191.864 485.127 191.358 485.127H189.383V494H188.063V484.047ZM193.881 494L191.461 489.488L192.835 489.481L195.289 493.918V494H193.881ZM204.046 489.044V492.688C203.923 492.87 203.727 493.075 203.458 493.303C203.189 493.526 202.818 493.722 202.344 493.891C201.874 494.055 201.268 494.137 200.525 494.137C199.919 494.137 199.361 494.032 198.851 493.822C198.345 493.608 197.905 493.298 197.531 492.893C197.162 492.482 196.875 491.986 196.67 491.402C196.469 490.814 196.369 490.149 196.369 489.406V488.634C196.369 487.891 196.456 487.228 196.629 486.645C196.807 486.061 197.066 485.567 197.408 485.161C197.75 484.751 198.169 484.441 198.666 484.231C199.163 484.017 199.732 483.91 200.375 483.91C201.136 483.91 201.772 484.042 202.282 484.307C202.797 484.566 203.198 484.926 203.485 485.387C203.777 485.847 203.964 486.371 204.046 486.959H202.727C202.667 486.599 202.549 486.271 202.371 485.975C202.198 485.678 201.95 485.441 201.626 485.264C201.302 485.081 200.885 484.99 200.375 484.99C199.915 484.99 199.516 485.075 199.179 485.243C198.841 485.412 198.563 485.653 198.345 485.968C198.126 486.282 197.962 486.663 197.853 487.109C197.748 487.556 197.695 488.06 197.695 488.62V489.406C197.695 489.98 197.761 490.493 197.894 490.944C198.03 491.396 198.224 491.781 198.475 492.1C198.725 492.414 199.024 492.653 199.37 492.817C199.721 492.981 200.108 493.063 200.532 493.063C201.002 493.063 201.382 493.025 201.674 492.947C201.965 492.865 202.193 492.77 202.357 492.66C202.521 492.546 202.647 492.439 202.733 492.339V490.11H200.43V489.044H204.046ZM206.691 484.047L209.275 489.044L211.866 484.047H213.363L209.932 490.281V494H208.612V490.281L205.181 484.047H206.691Z" fill="#A9EA98"/>
<rect x="145" y="267" width="179" height="36" rx="18" fill="#0041AC"/>
<path d="M167.85 280.047H169.162V286.78C169.162 287.528 168.996 288.15 168.663 288.646C168.33 289.143 167.888 289.517 167.337 289.768C166.79 290.014 166.195 290.137 165.553 290.137C164.878 290.137 164.268 290.014 163.721 289.768C163.178 289.517 162.748 289.143 162.429 288.646C162.114 288.15 161.957 287.528 161.957 286.78V280.047H163.263V286.78C163.263 287.3 163.358 287.728 163.55 288.065C163.741 288.403 164.008 288.653 164.35 288.817C164.696 288.981 165.097 289.063 165.553 289.063C166.013 289.063 166.414 288.981 166.756 288.817C167.102 288.653 167.371 288.403 167.562 288.065C167.754 287.728 167.85 287.3 167.85 286.78V280.047ZM171.233 280.047H174.528C175.276 280.047 175.907 280.161 176.422 280.389C176.941 280.617 177.336 280.954 177.604 281.4C177.878 281.842 178.015 282.387 178.015 283.034C178.015 283.49 177.921 283.907 177.734 284.285C177.552 284.659 177.288 284.978 176.941 285.242C176.6 285.502 176.189 285.696 175.711 285.823L175.342 285.967H172.245L172.231 284.894H174.569C175.043 284.894 175.438 284.812 175.752 284.647C176.066 284.479 176.303 284.253 176.463 283.971C176.622 283.688 176.702 283.376 176.702 283.034C176.702 282.651 176.627 282.316 176.477 282.029C176.326 281.742 176.089 281.521 175.766 281.366C175.447 281.207 175.034 281.127 174.528 281.127H172.553V290H171.233V280.047ZM177.051 290L174.631 285.488L176.005 285.481L178.459 289.918V290H177.051ZM183.408 285.345H180.886L180.872 284.285H183.162C183.54 284.285 183.871 284.221 184.153 284.094C184.436 283.966 184.655 283.784 184.81 283.547C184.969 283.305 185.049 283.018 185.049 282.686C185.049 282.321 184.978 282.025 184.837 281.797C184.7 281.564 184.488 281.396 184.201 281.291C183.919 281.182 183.559 281.127 183.121 281.127H181.18V290H179.86V280.047H183.121C183.632 280.047 184.087 280.099 184.488 280.204C184.889 280.304 185.229 280.464 185.507 280.683C185.789 280.897 186.004 281.17 186.149 281.503C186.295 281.836 186.368 282.234 186.368 282.699C186.368 283.109 186.263 283.481 186.054 283.813C185.844 284.142 185.552 284.41 185.179 284.62C184.81 284.83 184.377 284.964 183.88 285.023L183.408 285.345ZM183.347 290H180.366L181.111 288.927H183.347C183.766 288.927 184.121 288.854 184.413 288.708C184.709 288.562 184.935 288.357 185.09 288.093C185.245 287.824 185.322 287.507 185.322 287.143C185.322 286.773 185.256 286.454 185.124 286.186C184.992 285.917 184.785 285.709 184.502 285.563C184.219 285.418 183.855 285.345 183.408 285.345H181.528L181.542 284.285H184.112L184.393 284.668C184.871 284.709 185.277 284.846 185.609 285.078C185.942 285.306 186.195 285.598 186.368 285.953C186.546 286.309 186.635 286.701 186.635 287.129C186.635 287.749 186.498 288.273 186.225 288.701C185.956 289.125 185.575 289.449 185.083 289.672C184.591 289.891 184.012 290 183.347 290ZM192.268 280.929L188.973 290H187.626L191.42 280.047H192.288L192.268 280.929ZM195.029 290L191.728 280.929L191.707 280.047H192.575L196.383 290H195.029ZM194.858 286.315V287.396H189.267V286.315H194.858ZM205.372 280.047V290H204.046L199.035 282.323V290H197.716V280.047H199.035L204.066 287.744V280.047H205.372ZM217.506 288.927V290H212.235V288.927H217.506ZM212.502 280.047V290H211.183V280.047H212.502ZM216.809 284.326V285.399H212.235V284.326H216.809ZM217.438 280.047V281.127H212.235V280.047H217.438ZM226.796 280.047V290H225.47L220.459 282.323V290H219.14V280.047H220.459L225.49 287.744V280.047H226.796ZM232.347 288.489L235.279 280.047H236.708L233.023 290H232.005L232.347 288.489ZM229.605 280.047L232.511 288.489L232.873 290H231.854L228.177 280.047H229.605ZM239.463 280.047V290H238.144V280.047H239.463ZM241.862 280.047H245.157C245.905 280.047 246.536 280.161 247.051 280.389C247.57 280.617 247.965 280.954 248.233 281.4C248.507 281.842 248.644 282.387 248.644 283.034C248.644 283.49 248.55 283.907 248.363 284.285C248.181 284.659 247.917 284.978 247.57 285.242C247.229 285.502 246.818 285.696 246.34 285.823L245.971 285.967H242.874L242.86 284.894H245.198C245.672 284.894 246.066 284.812 246.381 284.647C246.695 284.479 246.932 284.253 247.092 283.971C247.251 283.688 247.331 283.376 247.331 283.034C247.331 282.651 247.256 282.316 247.105 282.029C246.955 281.742 246.718 281.521 246.395 281.366C246.076 281.207 245.663 281.127 245.157 281.127H243.182V290H241.862V280.047ZM247.68 290L245.26 285.488L246.634 285.481L249.088 289.918V290H247.68ZM258.152 284.709V285.338C258.152 286.085 258.059 286.755 257.872 287.348C257.685 287.94 257.416 288.444 257.065 288.858C256.715 289.273 256.293 289.59 255.801 289.809C255.313 290.027 254.766 290.137 254.16 290.137C253.572 290.137 253.032 290.027 252.54 289.809C252.052 289.59 251.629 289.273 251.269 288.858C250.913 288.444 250.637 287.94 250.441 287.348C250.245 286.755 250.147 286.085 250.147 285.338V284.709C250.147 283.962 250.243 283.294 250.435 282.706C250.631 282.114 250.906 281.61 251.262 281.195C251.617 280.776 252.039 280.457 252.526 280.238C253.019 280.02 253.559 279.91 254.146 279.91C254.753 279.91 255.299 280.02 255.787 280.238C256.279 280.457 256.701 280.776 257.052 281.195C257.407 281.61 257.678 282.114 257.865 282.706C258.057 283.294 258.152 283.962 258.152 284.709ZM256.847 285.338V284.695C256.847 284.103 256.785 283.579 256.662 283.123C256.544 282.667 256.368 282.285 256.136 281.975C255.903 281.665 255.618 281.43 255.281 281.271C254.949 281.111 254.57 281.031 254.146 281.031C253.736 281.031 253.365 281.111 253.032 281.271C252.704 281.43 252.422 281.665 252.185 281.975C251.952 282.285 251.772 282.667 251.645 283.123C251.517 283.579 251.453 284.103 251.453 284.695V285.338C251.453 285.935 251.517 286.464 251.645 286.924C251.772 287.38 251.954 287.765 252.191 288.079C252.433 288.389 252.718 288.624 253.046 288.783C253.379 288.943 253.75 289.022 254.16 289.022C254.589 289.022 254.969 288.943 255.302 288.783C255.634 288.624 255.915 288.389 256.143 288.079C256.375 287.765 256.55 287.38 256.669 286.924C256.787 286.464 256.847 285.935 256.847 285.338ZM267.784 280.047V290H266.458L261.447 282.323V290H260.128V280.047H261.447L266.479 287.744V280.047H267.784ZM270.539 280.047H271.817L275.078 288.161L278.332 280.047H279.617L275.57 290H274.572L270.539 280.047ZM270.122 280.047H271.25L271.435 286.117V290H270.122V280.047ZM278.899 280.047H280.027V290H278.715V286.117L278.899 280.047ZM288.668 288.927V290H283.397V288.927H288.668ZM283.664 280.047V290H282.345V280.047H283.664ZM287.971 284.326V285.399H283.397V284.326H287.971ZM288.6 280.047V281.127H283.397V280.047H288.6ZM297.958 280.047V290H296.632L291.621 282.323V290H290.302V280.047H291.621L296.652 287.744V280.047H297.958ZM303.769 280.047V290H302.47V280.047H303.769ZM306.968 280.047V281.127H299.277V280.047H306.968Z" fill="#A9EA98"/>
<rect x="145" y="369" width="102" height="36" rx="18" fill="#0041AC"/>
<path d="M164.773 388.992L166.749 382.047H167.706L167.152 384.747L165.026 392H164.076L164.773 388.992ZM162.729 382.047L164.302 388.855L164.773 392H163.83L161.417 382.047H162.729ZM170.263 388.849L171.801 382.047H173.12L170.714 392H169.771L170.263 388.849ZM167.85 382.047L169.771 388.992L170.468 392H169.518L167.467 384.747L166.906 382.047H167.85ZM175.998 382.047V392H174.679V382.047H175.998ZM184.434 390.927V392H179.457V390.927H184.434ZM179.717 382.047V392H178.397V382.047H179.717ZM188.638 392H186.56L186.573 390.927H188.638C189.349 390.927 189.941 390.779 190.415 390.482C190.889 390.182 191.244 389.762 191.481 389.225C191.723 388.682 191.844 388.049 191.844 387.324V386.716C191.844 386.146 191.775 385.64 191.639 385.198C191.502 384.752 191.301 384.376 191.037 384.07C190.773 383.76 190.449 383.526 190.066 383.366C189.688 383.207 189.253 383.127 188.761 383.127H186.519V382.047H188.761C189.412 382.047 190.007 382.156 190.545 382.375C191.083 382.589 191.545 382.901 191.933 383.312C192.325 383.717 192.625 384.209 192.835 384.788C193.045 385.362 193.149 386.009 193.149 386.729V387.324C193.149 388.044 193.045 388.694 192.835 389.272C192.625 389.847 192.322 390.337 191.926 390.742C191.534 391.148 191.06 391.46 190.504 391.679C189.952 391.893 189.33 392 188.638 392ZM187.264 382.047V392H185.944V382.047H187.264ZM196.451 382.047V392H195.132V382.047H196.451ZM200.621 386.524V387.604H196.164V386.524H200.621ZM201.298 382.047V383.127H196.164V382.047H201.298ZM204.285 382.047V392H202.966V382.047H204.285ZM206.685 382.047H209.979C210.727 382.047 211.358 382.161 211.873 382.389C212.393 382.617 212.787 382.954 213.056 383.4C213.329 383.842 213.466 384.387 213.466 385.034C213.466 385.49 213.372 385.907 213.186 386.285C213.003 386.659 212.739 386.978 212.393 387.242C212.051 387.502 211.641 387.696 211.162 387.823L210.793 387.967H207.696L207.683 386.894H210.021C210.494 386.894 210.889 386.812 211.203 386.647C211.518 386.479 211.755 386.253 211.914 385.971C212.074 385.688 212.153 385.376 212.153 385.034C212.153 384.651 212.078 384.316 211.928 384.029C211.777 383.742 211.54 383.521 211.217 383.366C210.898 383.207 210.485 383.127 209.979 383.127H208.004V392H206.685V382.047ZM212.502 392L210.082 387.488L211.456 387.481L213.91 391.918V392H212.502ZM221.635 390.927V392H216.364V390.927H221.635ZM216.631 382.047V392H215.312V382.047H216.631ZM220.938 386.326V387.399H216.364V386.326H220.938ZM221.566 382.047V383.127H216.364V382.047H221.566ZM228.573 389.484C228.573 389.252 228.537 389.047 228.464 388.869C228.396 388.687 228.272 388.523 228.095 388.377C227.922 388.231 227.68 388.092 227.37 387.96C227.065 387.828 226.677 387.693 226.208 387.557C225.716 387.411 225.271 387.249 224.875 387.071C224.479 386.889 224.139 386.682 223.856 386.449C223.574 386.217 223.357 385.95 223.207 385.649C223.057 385.349 222.981 385.005 222.981 384.617C222.981 384.23 223.061 383.872 223.221 383.544C223.38 383.216 223.608 382.931 223.904 382.689C224.205 382.443 224.563 382.252 224.978 382.115C225.392 381.979 225.855 381.91 226.365 381.91C227.113 381.91 227.746 382.054 228.266 382.341C228.79 382.623 229.188 382.995 229.462 383.455C229.735 383.911 229.872 384.398 229.872 384.918H228.56C228.56 384.544 228.48 384.214 228.32 383.927C228.161 383.635 227.919 383.407 227.596 383.243C227.272 383.075 226.862 382.99 226.365 382.99C225.896 382.99 225.508 383.061 225.203 383.202C224.898 383.343 224.67 383.535 224.52 383.776C224.374 384.018 224.301 384.294 224.301 384.604C224.301 384.813 224.344 385.005 224.431 385.178C224.522 385.346 224.661 385.504 224.848 385.649C225.039 385.795 225.281 385.93 225.572 386.053C225.868 386.176 226.222 386.294 226.632 386.408C227.197 386.568 227.685 386.745 228.095 386.941C228.505 387.137 228.842 387.358 229.106 387.604C229.375 387.846 229.574 388.122 229.701 388.432C229.833 388.737 229.899 389.083 229.899 389.471C229.899 389.876 229.817 390.243 229.653 390.571C229.489 390.899 229.255 391.18 228.949 391.412C228.644 391.645 228.277 391.825 227.849 391.952C227.425 392.075 226.951 392.137 226.427 392.137C225.966 392.137 225.513 392.073 225.066 391.945C224.624 391.818 224.221 391.626 223.856 391.371C223.496 391.116 223.207 390.801 222.988 390.428C222.774 390.049 222.667 389.612 222.667 389.115H223.979C223.979 389.457 224.046 389.751 224.178 389.997C224.31 390.239 224.49 390.439 224.718 390.599C224.95 390.758 225.212 390.877 225.504 390.954C225.8 391.027 226.108 391.063 226.427 391.063C226.887 391.063 227.277 391 227.596 390.872C227.915 390.744 228.156 390.562 228.32 390.325C228.489 390.088 228.573 389.808 228.573 389.484Z" fill="#A9EA98"/>
<rect x="145" y="166" width="178" height="36" rx="18" fill="#0041AC"/>
<path d="M164.773 185.992L166.749 179.047H167.706L167.152 181.747L165.026 189H164.076L164.773 185.992ZM162.729 179.047L164.302 185.855L164.773 189H163.83L161.417 179.047H162.729ZM170.263 185.849L171.801 179.047H173.12L170.714 189H169.771L170.263 185.849ZM167.85 179.047L169.771 185.992L170.468 189H169.518L167.467 181.747L166.906 179.047H167.85ZM177.967 179.929L174.672 189H173.325L177.119 179.047H177.987L177.967 179.929ZM180.729 189L177.427 179.929L177.406 179.047H178.274L182.082 189H180.729ZM180.558 185.315V186.396H174.966V185.315H180.558ZM186.204 179.047V189H184.905V179.047H186.204ZM189.403 179.047V180.127H181.713V179.047H189.403ZM197.203 187.927V189H191.933V187.927H197.203ZM192.199 179.047V189H190.88V179.047H192.199ZM196.506 183.326V184.399H191.933V183.326H196.506ZM197.135 179.047V180.127H191.933V179.047H197.135ZM198.837 179.047H202.132C202.879 179.047 203.51 179.161 204.025 179.389C204.545 179.617 204.939 179.954 205.208 180.4C205.481 180.842 205.618 181.387 205.618 182.034C205.618 182.49 205.525 182.907 205.338 183.285C205.156 183.659 204.891 183.978 204.545 184.242C204.203 184.502 203.793 184.696 203.314 184.823L202.945 184.967H199.849L199.835 183.894H202.173C202.647 183.894 203.041 183.812 203.355 183.647C203.67 183.479 203.907 183.253 204.066 182.971C204.226 182.688 204.306 182.376 204.306 182.034C204.306 181.651 204.23 181.316 204.08 181.029C203.93 180.742 203.693 180.521 203.369 180.366C203.05 180.207 202.638 180.127 202.132 180.127H200.156V189H198.837V179.047ZM204.654 189L202.234 184.488L203.608 184.481L206.062 188.918V189H204.654ZM211.354 179.047H212.632L215.893 187.161L219.146 179.047H220.432L216.385 189H215.387L211.354 179.047ZM210.937 179.047H212.064L212.249 185.117V189H210.937V179.047ZM219.714 179.047H220.842V189H219.529V185.117L219.714 179.047ZM226.967 179.929L223.672 189H222.325L226.119 179.047H226.987L226.967 179.929ZM229.729 189L226.427 179.929L226.406 179.047H227.274L231.082 189H229.729ZM229.558 185.315V186.396H223.966V185.315H229.558ZM240.071 179.047V189H238.745L233.734 181.323V189H232.415V179.047H233.734L238.766 186.744V179.047H240.071ZM246.217 179.929L242.922 189H241.575L245.369 179.047H246.237L246.217 179.929ZM248.979 189L245.677 179.929L245.656 179.047H246.524L250.332 189H248.979ZM248.808 185.315V186.396H243.216V185.315H248.808ZM258.938 184.044V187.688C258.815 187.87 258.619 188.075 258.351 188.303C258.082 188.526 257.71 188.722 257.236 188.891C256.767 189.055 256.161 189.137 255.418 189.137C254.812 189.137 254.254 189.032 253.743 188.822C253.237 188.608 252.798 188.298 252.424 187.893C252.055 187.482 251.768 186.986 251.562 186.402C251.362 185.814 251.262 185.149 251.262 184.406V183.634C251.262 182.891 251.348 182.228 251.521 181.645C251.699 181.061 251.959 180.567 252.301 180.161C252.643 179.751 253.062 179.441 253.559 179.231C254.055 179.017 254.625 178.91 255.268 178.91C256.029 178.91 256.664 179.042 257.175 179.307C257.69 179.566 258.091 179.926 258.378 180.387C258.67 180.847 258.856 181.371 258.938 181.959H257.619C257.56 181.599 257.441 181.271 257.264 180.975C257.09 180.678 256.842 180.441 256.519 180.264C256.195 180.081 255.778 179.99 255.268 179.99C254.807 179.99 254.409 180.075 254.071 180.243C253.734 180.412 253.456 180.653 253.237 180.968C253.019 181.282 252.854 181.663 252.745 182.109C252.64 182.556 252.588 183.06 252.588 183.62V184.406C252.588 184.98 252.654 185.493 252.786 185.944C252.923 186.396 253.117 186.781 253.367 187.1C253.618 187.414 253.916 187.653 254.263 187.817C254.614 187.981 255.001 188.063 255.425 188.063C255.894 188.063 256.275 188.025 256.566 187.947C256.858 187.865 257.086 187.77 257.25 187.66C257.414 187.546 257.539 187.439 257.626 187.339V185.11H255.322V184.044H258.938ZM267.449 187.927V189H262.179V187.927H267.449ZM262.445 179.047V189H261.126V179.047H262.445ZM266.752 183.326V184.399H262.179V183.326H266.752ZM267.381 179.047V180.127H262.179V179.047H267.381ZM269.5 179.047H270.778L274.039 187.161L277.293 179.047H278.578L274.531 189H273.533L269.5 179.047ZM269.083 179.047H270.211L270.396 185.117V189H269.083V179.047ZM277.86 179.047H278.988V189H277.676V185.117L277.86 179.047ZM287.629 187.927V189H282.358V187.927H287.629ZM282.625 179.047V189H281.306V179.047H282.625ZM286.932 183.326V184.399H282.358V183.326H286.932ZM287.561 179.047V180.127H282.358V179.047H287.561ZM296.919 179.047V189H295.593L290.582 181.323V189H289.263V179.047H290.582L295.613 186.744V179.047H296.919ZM302.729 179.047V189H301.431V179.047H302.729ZM305.929 179.047V180.127H298.238V179.047H305.929Z" fill="#A9EA98"/>
<rect x="145" y="65" width="121" height="36" rx="18" fill="#0041AC"/>
<path d="M165.84 78.9287L162.545 88H161.198L164.992 78.0469H165.86L165.84 78.9287ZM168.602 88L165.3 78.9287L165.279 78.0469H166.147L169.955 88H168.602ZM168.431 84.3154V85.3955H162.839V84.3154H168.431ZM178.562 83.0439V86.6875C178.438 86.8698 178.243 87.0749 177.974 87.3027C177.705 87.526 177.333 87.722 176.859 87.8906C176.39 88.0547 175.784 88.1367 175.041 88.1367C174.435 88.1367 173.877 88.0319 173.366 87.8223C172.86 87.6081 172.421 87.2982 172.047 86.8926C171.678 86.4824 171.391 85.9857 171.186 85.4023C170.985 84.8145 170.885 84.1491 170.885 83.4062V82.6338C170.885 81.891 170.971 81.2279 171.145 80.6445C171.322 80.0612 171.582 79.5667 171.924 79.1611C172.266 78.751 172.685 78.4411 173.182 78.2314C173.678 78.0173 174.248 77.9102 174.891 77.9102C175.652 77.9102 176.287 78.0423 176.798 78.3066C177.313 78.5664 177.714 78.9264 178.001 79.3867C178.293 79.847 178.479 80.3711 178.562 80.959H177.242C177.183 80.599 177.064 80.2708 176.887 79.9746C176.714 79.6784 176.465 79.4414 176.142 79.2637C175.818 79.0814 175.401 78.9902 174.891 78.9902C174.43 78.9902 174.032 79.0745 173.694 79.2432C173.357 79.4118 173.079 79.6533 172.86 79.9678C172.642 80.2822 172.478 80.6628 172.368 81.1094C172.263 81.556 172.211 82.0596 172.211 82.6201V83.4062C172.211 83.9805 172.277 84.4932 172.409 84.9443C172.546 85.3955 172.74 85.7806 172.99 86.0996C173.241 86.4141 173.539 86.6533 173.886 86.8174C174.237 86.9814 174.624 87.0635 175.048 87.0635C175.517 87.0635 175.898 87.0247 176.189 86.9473C176.481 86.8652 176.709 86.7695 176.873 86.6602C177.037 86.5462 177.162 86.4391 177.249 86.3389V84.1104H174.945V83.0439H178.562ZM180.749 78.0469H184.044C184.791 78.0469 185.423 78.1608 185.938 78.3887C186.457 78.6165 186.851 78.9538 187.12 79.4004C187.394 79.8424 187.53 80.387 187.53 81.0342C187.53 81.4899 187.437 81.9069 187.25 82.2852C187.068 82.6589 186.803 82.9779 186.457 83.2422C186.115 83.502 185.705 83.6956 185.227 83.8232L184.857 83.9668H181.761L181.747 82.8936H184.085C184.559 82.8936 184.953 82.8115 185.268 82.6475C185.582 82.4788 185.819 82.2533 185.979 81.9707C186.138 81.6882 186.218 81.376 186.218 81.0342C186.218 80.6514 186.143 80.3164 185.992 80.0293C185.842 79.7422 185.605 79.5212 185.281 79.3662C184.962 79.2067 184.55 79.127 184.044 79.127H182.068V88H180.749V78.0469ZM186.566 88L184.146 83.4883L185.521 83.4814L187.975 87.918V88H186.566ZM190.791 78.0469V88H189.472V78.0469H190.791ZM199.199 84.835H200.512C200.443 85.4639 200.263 86.0267 199.972 86.5234C199.68 87.0202 199.268 87.4144 198.734 87.7061C198.201 87.9932 197.536 88.1367 196.738 88.1367C196.155 88.1367 195.624 88.0273 195.146 87.8086C194.672 87.5898 194.264 87.2799 193.922 86.8789C193.58 86.4733 193.316 85.988 193.129 85.4229C192.947 84.8532 192.855 84.2197 192.855 83.5225V82.5312C192.855 81.834 192.947 81.2028 193.129 80.6377C193.316 80.068 193.582 79.5804 193.929 79.1748C194.28 78.7692 194.701 78.457 195.193 78.2383C195.686 78.0195 196.239 77.9102 196.854 77.9102C197.606 77.9102 198.242 78.0514 198.762 78.334C199.281 78.6165 199.685 79.0085 199.972 79.5098C200.263 80.0065 200.443 80.583 200.512 81.2393H199.199C199.135 80.7744 199.017 80.3757 198.844 80.043C198.671 79.7057 198.424 79.446 198.105 79.2637C197.786 79.0814 197.369 78.9902 196.854 78.9902C196.412 78.9902 196.023 79.0745 195.686 79.2432C195.353 79.4118 195.073 79.651 194.845 79.9609C194.621 80.2708 194.453 80.6423 194.339 81.0752C194.225 81.5081 194.168 81.9889 194.168 82.5176V83.5225C194.168 84.0101 194.218 84.4681 194.318 84.8965C194.423 85.3249 194.58 85.7008 194.79 86.0244C195 86.348 195.266 86.6032 195.59 86.79C195.913 86.9723 196.296 87.0635 196.738 87.0635C197.299 87.0635 197.745 86.9746 198.078 86.7969C198.411 86.6191 198.661 86.3639 198.83 86.0312C199.003 85.6986 199.126 85.2998 199.199 84.835ZM208.004 78.0469H209.316V84.7803C209.316 85.5277 209.15 86.1497 208.817 86.6465C208.485 87.1432 208.043 87.5169 207.491 87.7676C206.944 88.0137 206.35 88.1367 205.707 88.1367C205.033 88.1367 204.422 88.0137 203.875 87.7676C203.333 87.5169 202.902 87.1432 202.583 86.6465C202.269 86.1497 202.111 85.5277 202.111 84.7803V78.0469H203.417V84.7803C203.417 85.2998 203.513 85.7282 203.704 86.0654C203.896 86.4027 204.162 86.6533 204.504 86.8174C204.85 86.9814 205.251 87.0635 205.707 87.0635C206.167 87.0635 206.568 86.9814 206.91 86.8174C207.257 86.6533 207.525 86.4027 207.717 86.0654C207.908 85.7282 208.004 85.2998 208.004 84.7803V78.0469ZM217.424 86.9268V88H212.447V86.9268H217.424ZM212.707 78.0469V88H211.388V78.0469H212.707ZM220.726 78.0469V88H219.427V78.0469H220.726ZM223.925 78.0469V79.127H216.234V78.0469H223.925ZM231.096 78.0469H232.408V84.7803C232.408 85.5277 232.242 86.1497 231.909 86.6465C231.576 87.1432 231.134 87.5169 230.583 87.7676C230.036 88.0137 229.441 88.1367 228.799 88.1367C228.124 88.1367 227.514 88.0137 226.967 87.7676C226.424 87.5169 225.994 87.1432 225.675 86.6465C225.36 86.1497 225.203 85.5277 225.203 84.7803V78.0469H226.509V84.7803C226.509 85.2998 226.604 85.7282 226.796 86.0654C226.987 86.4027 227.254 86.6533 227.596 86.8174C227.942 86.9814 228.343 87.0635 228.799 87.0635C229.259 87.0635 229.66 86.9814 230.002 86.8174C230.348 86.6533 230.617 86.4027 230.809 86.0654C231 85.7282 231.096 85.2998 231.096 84.7803V78.0469ZM234.479 78.0469H237.774C238.522 78.0469 239.153 78.1608 239.668 78.3887C240.188 78.6165 240.582 78.9538 240.851 79.4004C241.124 79.8424 241.261 80.387 241.261 81.0342C241.261 81.4899 241.167 81.9069 240.98 82.2852C240.798 82.6589 240.534 82.9779 240.188 83.2422C239.846 83.502 239.436 83.6956 238.957 83.8232L238.588 83.9668H235.491L235.478 82.8936H237.815C238.289 82.8936 238.684 82.8115 238.998 82.6475C239.312 82.4788 239.549 82.2533 239.709 81.9707C239.868 81.6882 239.948 81.376 239.948 81.0342C239.948 80.6514 239.873 80.3164 239.723 80.0293C239.572 79.7422 239.335 79.5212 239.012 79.3662C238.693 79.2067 238.28 79.127 237.774 79.127H235.799V88H234.479V78.0469ZM240.297 88L237.877 83.4883L239.251 83.4814L241.705 87.918V88H240.297ZM249.43 86.9268V88H244.159V86.9268H249.43ZM244.426 78.0469V88H243.106V78.0469H244.426ZM248.732 82.3262V83.3994H244.159V82.3262H248.732ZM249.361 78.0469V79.127H244.159V78.0469H249.361Z" fill="#A9EA98"/>
<circle cx="25" cy="98" r="8.5" fill="white"/>
<circle cx="25" cy="98" r="8.5" fill="white"/>
<circle cx="25" cy="98" r="8.5" stroke="#93D49A" stroke-width="3"/>
<circle cx="25" cy="98" r="4" fill="#93D49A"/>
<circle cx="25" cy="159.875" r="8.5" fill="white"/>
<circle cx="25" cy="159.875" r="8.5" fill="white"/>
<circle cx="25" cy="159.875" r="8.5" stroke="#82C39C" stroke-width="3"/>
<circle cx="25" cy="159.875" r="4" fill="#82C39C"/>
<circle cx="25" cy="221.75" r="8.5" fill="white"/>
<circle cx="25" cy="221.75" r="8.5" fill="white"/>
<circle cx="25" cy="221.75" r="8.5" stroke="#71B29F" stroke-width="3"/>
<circle cx="25" cy="221.75" r="4" fill="#71B29F"/>
<circle cx="25" cy="283.625" r="8.5" fill="white"/>
<circle cx="25" cy="283.625" r="8.5" fill="white"/>
<circle cx="25" cy="283.625" r="8.5" stroke="#60A1A1" stroke-width="3"/>
<circle cx="25" cy="283.625" r="4" fill="#60A1A1"/>
<circle cx="25" cy="345.5" r="8.5" fill="white"/>
<circle cx="25" cy="345.5" r="8.5" fill="white"/>
<circle cx="25" cy="345.5" r="8.5" stroke="#5596A2" stroke-width="3"/>
<circle cx="25" cy="345.5" r="4" fill="#5596A2"/>
<circle cx="25" cy="407.375" r="8.5" fill="white"/>
<circle cx="25" cy="407.375" r="8.5" fill="white"/>
<circle cx="25" cy="407.375" r="8.5" stroke="#3E80A5" stroke-width="3"/>
<circle cx="25" cy="407.375" r="4" fill="#3E80A5"/>
<circle cx="25" cy="469.25" r="8.5" fill="white"/>
<circle cx="25" cy="469.25" r="8.5" fill="white"/>
<circle cx="25" cy="469.25" r="8.5" stroke="#3172A6" stroke-width="3"/>
<circle cx="25" cy="469.25" r="4" fill="#3172A6"/>
<circle cx="25" cy="531.125" r="8.5" fill="white"/>
<circle cx="25" cy="531.125" r="8.5" fill="white"/>
<circle cx="25" cy="531.125" r="8.5" stroke="#1D5EA9" stroke-width="3"/>
<circle cx="25" cy="531.125" r="4" fill="#1D5EA9"/>
<circle cx="25" cy="593" r="8.5" fill="white"/>
<circle cx="25" cy="593" r="8.5" fill="white"/>
<circle cx="25" cy="593" r="8.5" stroke="#0041AC" stroke-width="3"/>
<circle cx="25" cy="593" r="4" fill="#0041AC"/>
<defs>
<linearGradient id="paint0_linear_4992_9157" x1="24.5" y1="648" x2="24.5" y2="3" gradientUnits="userSpaceOnUse">
<stop stop-color="#0041AC"/>
<stop offset="1" stop-color="#A9EA98"/>
</linearGradient>
</defs>
</svg>
