<svg width="337" height="745" viewBox="0 0 337 745" fill="none" xmlns="http://www.w3.org/2000/svg">
<path d="M35.5 648C35.5 649.381 36.6193 650.5 38 650.5C39.3807 650.5 40.5 649.381 40.5 648H35.5ZM146.768 286.768C147.744 285.791 147.744 284.209 146.768 283.232L130.858 267.322C129.882 266.346 128.299 266.346 127.322 267.322C126.346 268.299 126.346 269.882 127.322 270.858L141.464 285L127.322 299.142C126.346 300.118 126.346 301.701 127.322 302.678C128.299 303.654 129.882 303.654 130.858 302.678L146.768 286.768ZM40.5 648V335.794H35.5V648H40.5ZM88.7938 287.5H145V282.5H88.7938V287.5ZM40.5 335.794C40.5 309.122 62.1219 287.5 88.7938 287.5V282.5C59.3604 282.5 35.5 306.36 35.5 335.794H40.5Z" fill="#5697A2"/>
<path d="M35.5 612C35.5 613.381 36.6193 614.5 38 614.5C39.3807 614.5 40.5 613.381 40.5 612H35.5ZM88.7938 79.5C87.4131 79.5 86.2938 80.6193 86.2938 82C86.2938 83.3807 87.4131 84.5 88.7938 84.5V79.5ZM146.768 83.7678C147.744 82.7915 147.744 81.2085 146.768 80.2322L130.858 64.3223C129.882 63.346 128.299 63.346 127.322 64.3223C126.346 65.2986 126.346 66.8816 127.322 67.8579L141.464 82L127.322 96.1421C126.346 97.1184 126.346 98.7014 127.322 99.6777C128.299 100.654 129.882 100.654 130.858 99.6777L146.768 83.7678ZM88.7938 84.5C90.1745 84.5 91.2938 83.3807 91.2938 82C91.2938 80.6193 90.1745 79.5 88.7938 79.5V84.5ZM40.5 609.504C40.5 608.123 39.3807 607.004 38 607.004C36.6193 607.004 35.5 608.123 35.5 609.504H40.5ZM35.5 594.529C35.5 595.91 36.6193 597.029 38 597.029C39.3807 597.029 40.5 595.91 40.5 594.529H35.5ZM40.5 589.537C40.5 588.156 39.3807 587.037 38 587.037C36.6193 587.037 35.5 588.156 35.5 589.537H40.5ZM35.5 574.562C35.5 575.943 36.6193 577.062 38 577.062C39.3807 577.062 40.5 575.943 40.5 574.562H35.5ZM40.5 569.57C40.5 568.19 39.3807 567.07 38 567.07C36.6193 567.07 35.5 568.19 35.5 569.57H40.5ZM35.5 554.595C35.5 555.976 36.6193 557.095 38 557.095C39.3807 557.095 40.5 555.976 40.5 554.595H35.5ZM40.5 549.603C40.5 548.223 39.3807 547.103 38 547.103C36.6193 547.103 35.5 548.223 35.5 549.603H40.5ZM35.5 534.628C35.5 536.009 36.6193 537.128 38 537.128C39.3807 537.128 40.5 536.009 40.5 534.628H35.5ZM40.5 529.636C40.5 528.256 39.3807 527.136 38 527.136C36.6193 527.136 35.5 528.256 35.5 529.636H40.5ZM35.5 514.661C35.5 516.042 36.6193 517.161 38 517.161C39.3807 517.161 40.5 516.042 40.5 514.661H35.5ZM40.5 509.67C40.5 508.289 39.3807 507.17 38 507.17C36.6193 507.17 35.5 508.289 35.5 509.67H40.5ZM35.5 494.694C35.5 496.075 36.6193 497.194 38 497.194C39.3807 497.194 40.5 496.075 40.5 494.694H35.5ZM40.5 489.703C40.5 488.322 39.3807 487.203 38 487.203C36.6193 487.203 35.5 488.322 35.5 489.703H40.5ZM35.5 474.727C35.5 476.108 36.6193 477.227 38 477.227C39.3807 477.227 40.5 476.108 40.5 474.727H35.5ZM40.5 469.736C40.5 468.355 39.3807 467.236 38 467.236C36.6193 467.236 35.5 468.355 35.5 469.736H40.5ZM35.5 454.76C35.5 456.141 36.6193 457.26 38 457.26C39.3807 457.26 40.5 456.141 40.5 454.76H35.5ZM40.5 449.769C40.5 448.388 39.3807 447.269 38 447.269C36.6193 447.269 35.5 448.388 35.5 449.769H40.5ZM35.5 434.794C35.5 436.174 36.6193 437.294 38 437.294C39.3807 437.294 40.5 436.174 40.5 434.794H35.5ZM40.5 429.802C40.5 428.421 39.3807 427.302 38 427.302C36.6193 427.302 35.5 428.421 35.5 429.802H40.5ZM35.5 414.827C35.5 416.207 36.6193 417.327 38 417.327C39.3807 417.327 40.5 416.207 40.5 414.827H35.5ZM40.5 409.835C40.5 408.454 39.3807 407.335 38 407.335C36.6193 407.335 35.5 408.454 35.5 409.835H40.5ZM35.5 394.86C35.5 396.24 36.6193 397.36 38 397.36C39.3807 397.36 40.5 396.24 40.5 394.86H35.5ZM40.5 389.868C40.5 388.487 39.3807 387.368 38 387.368C36.6193 387.368 35.5 388.487 35.5 389.868H40.5ZM35.5 374.893C35.5 376.273 36.6193 377.393 38 377.393C39.3807 377.393 40.5 376.273 40.5 374.893H35.5ZM40.5 369.901C40.5 368.52 39.3807 367.401 38 367.401C36.6193 367.401 35.5 368.52 35.5 369.901H40.5ZM35.5 354.926C35.5 356.307 36.6193 357.426 38 357.426C39.3807 357.426 40.5 356.307 40.5 354.926H35.5ZM40.5 349.934C40.5 348.553 39.3807 347.434 38 347.434C36.6193 347.434 35.5 348.553 35.5 349.934H40.5ZM35.5 334.959C35.5 336.34 36.6193 337.459 38 337.459C39.3807 337.459 40.5 336.34 40.5 334.959H35.5ZM40.5 329.967C40.5 328.587 39.3807 327.467 38 327.467C36.6193 327.467 35.5 328.587 35.5 329.967H40.5ZM35.5 314.992C35.5 316.373 36.6193 317.492 38 317.492C39.3807 317.492 40.5 316.373 40.5 314.992H35.5ZM40.5 310C40.5 308.62 39.3807 307.5 38 307.5C36.6193 307.5 35.5 308.62 35.5 310H40.5ZM35.5 295.025C35.5 296.406 36.6193 297.525 38 297.525C39.3807 297.525 40.5 296.406 40.5 295.025H35.5ZM40.5 290.033C40.5 288.653 39.3807 287.533 38 287.533C36.6193 287.533 35.5 288.653 35.5 290.033H40.5ZM35.5 275.058C35.5 276.439 36.6193 277.558 38 277.558C39.3807 277.558 40.5 276.439 40.5 275.058H35.5ZM40.5 270.066C40.5 268.686 39.3807 267.566 38 267.566C36.6193 267.566 35.5 268.686 35.5 270.066H40.5ZM35.5 255.091C35.5 256.472 36.6193 257.591 38 257.591C39.3807 257.591 40.5 256.472 40.5 255.091H35.5ZM40.5 250.1C40.5 248.719 39.3807 247.6 38 247.6C36.6193 247.6 35.5 248.719 35.5 250.1H40.5ZM35.5 235.124C35.5 236.505 36.6193 237.624 38 237.624C39.3807 237.624 40.5 236.505 40.5 235.124H35.5ZM40.5 230.133C40.5 228.752 39.3807 227.633 38 227.633C36.6193 227.633 35.5 228.752 35.5 230.133H40.5ZM35.5 215.157C35.5 216.538 36.6193 217.657 38 217.657C39.3807 217.657 40.5 216.538 40.5 215.157H35.5ZM40.5 210.166C40.5 208.785 39.3807 207.666 38 207.666C36.6193 207.666 35.5 208.785 35.5 210.166H40.5ZM35.5 195.191C35.5 196.571 36.6193 197.691 38 197.691C39.3807 197.691 40.5 196.571 40.5 195.191H35.5ZM40.5 190.199C40.5 188.818 39.3807 187.699 38 187.699C36.6193 187.699 35.5 188.818 35.5 190.199H40.5ZM35.5 175.224C35.5 176.604 36.6193 177.724 38 177.724C39.3807 177.724 40.5 176.604 40.5 175.224H35.5ZM40.5 170.232C40.5 168.851 39.3807 167.732 38 167.732C36.6193 167.732 35.5 168.851 35.5 170.232H40.5ZM35.5 155.257C35.5 156.637 36.6193 157.757 38 157.757C39.3807 157.757 40.5 156.637 40.5 155.257H35.5ZM40.5 150.265C40.5 148.884 39.3807 147.765 38 147.765C36.6193 147.765 35.5 148.884 35.5 150.265H40.5ZM35.5 135.29C35.5 136.67 36.6193 137.79 38 137.79C39.3807 137.79 40.5 136.67 40.5 135.29H35.5ZM40.5572 130.421C40.6239 129.042 39.5599 127.87 38.1808 127.803C36.8017 127.737 35.6297 128.801 35.563 130.18L40.5572 130.421ZM38.6026 114.834C38.1374 116.134 38.8141 117.565 40.1141 118.03C41.414 118.496 42.845 117.819 43.3102 116.519L38.6026 114.834ZM45.1251 112.142C45.7163 110.894 45.1841 109.404 43.9363 108.812C42.6886 108.221 41.1978 108.754 40.6066 110.001L45.1251 112.142ZM49.3057 97.0033C48.3782 98.0261 48.4554 99.6071 49.4781 100.535C50.5009 101.462 52.0819 101.385 53.0095 100.362L49.3057 97.0033ZM56.3622 97.0095C57.3849 96.0819 57.4622 94.5009 56.5346 93.4781C55.6071 92.4554 54.0261 92.3782 53.0033 93.3057L56.3622 97.0095ZM66.0013 84.6066C64.7535 85.1978 64.2213 86.6886 64.8125 87.9363C65.4036 89.1841 66.8944 89.7163 68.1421 89.1251L66.0013 84.6066ZM72.5189 87.3102C73.8189 86.845 74.4956 85.414 74.0304 84.1141C73.5652 82.8141 72.1342 82.1374 70.8342 82.6026L72.5189 87.3102ZM86.1797 79.563C84.8006 79.6297 83.7367 80.8017 83.8033 82.1808C83.87 83.5599 85.042 84.6239 86.4211 84.5572L86.1797 79.563ZM91.1357 84.5C92.5164 84.5 93.6357 83.3807 93.6357 82C93.6357 80.6193 92.5164 79.5 91.1357 79.5V84.5ZM105.187 79.5C103.807 79.5 102.687 80.6193 102.687 82C102.687 83.3807 103.807 84.5 105.187 84.5V79.5ZM109.871 84.5C111.252 84.5 112.371 83.3807 112.371 82C112.371 80.6193 111.252 79.5 109.871 79.5V84.5ZM123.923 79.5C122.542 79.5 121.423 80.6193 121.423 82C121.423 83.3807 122.542 84.5 123.923 84.5V79.5ZM128.607 84.5C129.987 84.5 131.107 83.3807 131.107 82C131.107 80.6193 129.987 79.5 128.607 79.5V84.5ZM142.658 79.5C141.277 79.5 140.158 80.6193 140.158 82C140.158 83.3807 141.277 84.5 142.658 84.5V79.5ZM40.5 612V609.504H35.5V612H40.5ZM40.5 594.529V589.537H35.5V594.529H40.5ZM40.5 574.562V569.57H35.5V574.562H40.5ZM40.5 554.595V549.603H35.5V554.595H40.5ZM40.5 534.628V529.636H35.5V534.628H40.5ZM40.5 514.661V509.67H35.5V514.661H40.5ZM40.5 494.694V489.703H35.5V494.694H40.5ZM40.5 474.727V469.736H35.5V474.727H40.5ZM40.5 454.76V449.769H35.5V454.76H40.5ZM40.5 434.794V429.802H35.5V434.794H40.5ZM40.5 414.827V409.835H35.5V414.827H40.5ZM40.5 394.86V389.868H35.5V394.86H40.5ZM40.5 374.893V369.901H35.5V374.893H40.5ZM40.5 354.926V349.934H35.5V354.926H40.5ZM40.5 334.959V329.967H35.5V334.959H40.5ZM40.5 314.992V310H35.5V314.992H40.5ZM40.5 295.025V290.033H35.5V295.025H40.5ZM40.5 275.058V270.066H35.5V275.058H40.5ZM40.5 255.091V250.1H35.5V255.091H40.5ZM40.5 235.124V230.133H35.5V235.124H40.5ZM40.5 215.157V210.166H35.5V215.157H40.5ZM40.5 195.191V190.199H35.5V195.191H40.5ZM40.5 175.224V170.232H35.5V175.224H40.5ZM40.5 155.257V150.265H35.5V155.257H40.5ZM40.5 135.29V132.794H35.5V135.29H40.5ZM40.5 132.794C40.5 131.998 40.5192 131.207 40.5572 130.421L35.563 130.18C35.5212 131.046 35.5 131.918 35.5 132.794H40.5ZM43.3102 116.519C43.8449 115.025 44.4513 113.564 45.1251 112.142L40.6066 110.001C39.8627 111.572 39.1931 113.184 38.6026 114.834L43.3102 116.519ZM53.0095 100.362C54.0718 99.1908 55.1908 98.0718 56.3622 97.0095L53.0033 93.3057C51.7114 94.4773 50.4773 95.7114 49.3057 97.0033L53.0095 100.362ZM68.1421 89.1251C69.5644 88.4513 71.0247 87.845 72.5189 87.3102L70.8342 82.6026C69.184 83.1931 67.5715 83.8627 66.0013 84.6066L68.1421 89.1251ZM86.4211 84.5572C87.207 84.5192 87.9981 84.5 88.7938 84.5V79.5C87.9175 79.5 87.046 79.5212 86.1797 79.563L86.4211 84.5572ZM88.7938 84.5H91.1357V79.5H88.7938V84.5ZM105.187 84.5H109.871V79.5H105.187V84.5ZM123.923 84.5H128.607V79.5H123.923V84.5ZM142.658 84.5H145V79.5H142.658V84.5Z" fill="#88C99C"/>
<path d="M35.5 612C35.5 613.381 36.6193 614.5 38 614.5C39.3807 614.5 40.5 613.381 40.5 612H35.5ZM146.768 184.768C147.744 183.791 147.744 182.209 146.768 181.232L130.858 165.322C129.882 164.346 128.299 164.346 127.322 165.322C126.346 166.299 126.346 167.882 127.322 168.858L141.464 183L127.322 197.142C126.346 198.118 126.346 199.701 127.322 200.678C128.299 201.654 129.882 201.654 130.858 200.678L146.768 184.768ZM40.5 612V233.794H35.5V612H40.5ZM88.7938 185.5H145V180.5H88.7938V185.5ZM40.5 233.794C40.5 207.122 62.1219 185.5 88.7938 185.5V180.5C59.3604 180.5 35.5 204.36 35.5 233.794H40.5Z" fill="#6CAD9F"/>
<path d="M35.5 648C35.5 649.381 36.6193 650.5 38 650.5C39.3807 650.5 40.5 649.381 40.5 648H35.5ZM146.768 388.768C147.744 387.791 147.744 386.209 146.768 385.232L130.858 369.322C129.882 368.346 128.299 368.346 127.322 369.322C126.346 370.299 126.346 371.882 127.322 372.858L141.464 387L127.322 401.142C126.346 402.118 126.346 403.701 127.322 404.678C128.299 405.654 129.882 405.654 130.858 404.678L146.768 388.768ZM40.5 648V437.794H35.5V648H40.5ZM88.7938 389.5H145V384.5H88.7938V389.5ZM40.5 437.794C40.5 411.122 62.1219 389.5 88.7938 389.5V384.5C59.3604 384.5 35.5 408.36 35.5 437.794H40.5Z" fill="#397AA5"/>
<path d="M35.5 646C35.5 647.381 36.6193 648.5 38 648.5C39.3807 648.5 40.5 647.381 40.5 646H35.5ZM146.768 490.768C147.744 489.791 147.744 488.209 146.768 487.232L130.858 471.322C129.882 470.346 128.299 470.346 127.322 471.322C126.346 472.299 126.346 473.882 127.322 474.858L141.464 489L127.322 503.142C126.346 504.118 126.346 505.701 127.322 506.678C128.299 507.654 129.882 507.654 130.858 506.678L146.768 490.768ZM40.5 646V539.794H35.5V646H40.5ZM88.7938 491.5H145V486.5H88.7938V491.5ZM40.5 539.794C40.5 513.122 62.1219 491.5 88.7938 491.5V486.5C59.3604 486.5 35.5 510.36 35.5 539.794H40.5Z" fill="#1859A9"/>
<path d="M39.7677 1.23224C38.7914 0.25592 37.2085 0.25592 36.2322 1.23224L20.3223 17.1422C19.346 18.1185 19.346 19.7014 20.3223 20.6777C21.2986 21.654 22.8815 21.654 23.8578 20.6777L38 6.53558L52.1421 20.6777C53.1184 21.654 54.7013 21.654 55.6776 20.6777C56.6539 19.7014 56.6539 18.1185 55.6776 17.1422L39.7677 1.23224ZM35.5 648C35.5 649.381 36.6193 650.5 38 650.5C39.3807 650.5 40.5 649.381 40.5 648L35.5 648ZM35.5 3L35.5 648L40.5 648L40.5 3L35.5 3Z" fill="url(#paint0_linear_3535_5334)"/>
<rect x="158" y="471" width="85" height="36" rx="18" fill="#0041AC"/>
<path d="M181.479 492.927V494H176.208V492.927H181.479ZM176.475 484.047V494H175.155V484.047H176.475ZM180.781 488.326V489.399H176.208V488.326H180.781ZM181.41 484.047V485.127H176.208V484.047H181.41ZM190.769 484.047V494H189.442L184.432 486.323V494H183.112V484.047H184.432L189.463 491.744V484.047H190.769ZM199.43 492.927V494H194.159V492.927H199.43ZM194.426 484.047V494H193.106V484.047H194.426ZM198.732 488.326V489.399H194.159V488.326H198.732ZM199.361 484.047V485.127H194.159V484.047H199.361ZM201.063 484.047H204.358C205.106 484.047 205.737 484.161 206.252 484.389C206.771 484.617 207.166 484.954 207.435 485.4C207.708 485.842 207.845 486.387 207.845 487.034C207.845 487.49 207.751 487.907 207.564 488.285C207.382 488.659 207.118 488.978 206.771 489.242C206.43 489.502 206.02 489.696 205.541 489.823L205.172 489.967H202.075L202.062 488.894H204.399C204.873 488.894 205.268 488.812 205.582 488.647C205.896 488.479 206.133 488.253 206.293 487.971C206.452 487.688 206.532 487.376 206.532 487.034C206.532 486.651 206.457 486.316 206.307 486.029C206.156 485.742 205.919 485.521 205.596 485.366C205.277 485.207 204.864 485.127 204.358 485.127H202.383V494H201.063V484.047ZM206.881 494L204.461 489.488L205.835 489.481L208.289 493.918V494H206.881ZM217.046 489.044V492.688C216.923 492.87 216.727 493.075 216.458 493.303C216.189 493.526 215.818 493.722 215.344 493.891C214.874 494.055 214.268 494.137 213.525 494.137C212.919 494.137 212.361 494.032 211.851 493.822C211.345 493.608 210.905 493.298 210.531 492.893C210.162 492.482 209.875 491.986 209.67 491.402C209.469 490.814 209.369 490.149 209.369 489.406V488.634C209.369 487.891 209.456 487.228 209.629 486.645C209.807 486.061 210.066 485.567 210.408 485.161C210.75 484.751 211.169 484.441 211.666 484.231C212.163 484.017 212.732 483.91 213.375 483.91C214.136 483.91 214.772 484.042 215.282 484.307C215.797 484.566 216.198 484.926 216.485 485.387C216.777 485.847 216.964 486.371 217.046 486.959H215.727C215.667 486.599 215.549 486.271 215.371 485.975C215.198 485.678 214.95 485.441 214.626 485.264C214.302 485.081 213.885 484.99 213.375 484.99C212.915 484.99 212.516 485.075 212.179 485.243C211.841 485.412 211.563 485.653 211.345 485.968C211.126 486.282 210.962 486.663 210.853 487.109C210.748 487.556 210.695 488.06 210.695 488.62V489.406C210.695 489.98 210.761 490.493 210.894 490.944C211.03 491.396 211.224 491.781 211.475 492.1C211.725 492.414 212.024 492.653 212.37 492.817C212.721 492.981 213.108 493.063 213.532 493.063C214.002 493.063 214.382 493.025 214.674 492.947C214.965 492.865 215.193 492.77 215.357 492.66C215.521 492.546 215.647 492.439 215.733 492.339V490.11H213.43V489.044H217.046ZM219.691 484.047L222.275 489.044L224.866 484.047H226.363L222.932 490.281V494H221.612V490.281L218.181 484.047H219.691Z" fill="#A9EA98"/>
<rect x="158" y="267" width="179" height="36" rx="18" fill="#0041AC"/>
<path d="M180.85 280.047H182.162V286.78C182.162 287.528 181.996 288.15 181.663 288.646C181.33 289.143 180.888 289.517 180.337 289.768C179.79 290.014 179.195 290.137 178.553 290.137C177.878 290.137 177.268 290.014 176.721 289.768C176.178 289.517 175.748 289.143 175.429 288.646C175.114 288.15 174.957 287.528 174.957 286.78V280.047H176.263V286.78C176.263 287.3 176.358 287.728 176.55 288.065C176.741 288.403 177.008 288.653 177.35 288.817C177.696 288.981 178.097 289.063 178.553 289.063C179.013 289.063 179.414 288.981 179.756 288.817C180.102 288.653 180.371 288.403 180.562 288.065C180.754 287.728 180.85 287.3 180.85 286.78V280.047ZM184.233 280.047H187.528C188.276 280.047 188.907 280.161 189.422 280.389C189.941 280.617 190.336 280.954 190.604 281.4C190.878 281.842 191.015 282.387 191.015 283.034C191.015 283.49 190.921 283.907 190.734 284.285C190.552 284.659 190.288 284.978 189.941 285.242C189.6 285.502 189.189 285.696 188.711 285.823L188.342 285.967H185.245L185.231 284.894H187.569C188.043 284.894 188.438 284.812 188.752 284.647C189.066 284.479 189.303 284.253 189.463 283.971C189.622 283.688 189.702 283.376 189.702 283.034C189.702 282.651 189.627 282.316 189.477 282.029C189.326 281.742 189.089 281.521 188.766 281.366C188.447 281.207 188.034 281.127 187.528 281.127H185.553V290H184.233V280.047ZM190.051 290L187.631 285.488L189.005 285.481L191.459 289.918V290H190.051ZM196.408 285.345H193.886L193.872 284.285H196.162C196.54 284.285 196.871 284.221 197.153 284.094C197.436 283.966 197.655 283.784 197.81 283.547C197.969 283.305 198.049 283.018 198.049 282.686C198.049 282.321 197.978 282.025 197.837 281.797C197.7 281.564 197.488 281.396 197.201 281.291C196.919 281.182 196.559 281.127 196.121 281.127H194.18V290H192.86V280.047H196.121C196.632 280.047 197.087 280.099 197.488 280.204C197.889 280.304 198.229 280.464 198.507 280.683C198.789 280.897 199.004 281.17 199.149 281.503C199.295 281.836 199.368 282.234 199.368 282.699C199.368 283.109 199.263 283.481 199.054 283.813C198.844 284.142 198.552 284.41 198.179 284.62C197.81 284.83 197.377 284.964 196.88 285.023L196.408 285.345ZM196.347 290H193.366L194.111 288.927H196.347C196.766 288.927 197.121 288.854 197.413 288.708C197.709 288.562 197.935 288.357 198.09 288.093C198.245 287.824 198.322 287.507 198.322 287.143C198.322 286.773 198.256 286.454 198.124 286.186C197.992 285.917 197.785 285.709 197.502 285.563C197.219 285.418 196.855 285.345 196.408 285.345H194.528L194.542 284.285H197.112L197.393 284.668C197.871 284.709 198.277 284.846 198.609 285.078C198.942 285.306 199.195 285.598 199.368 285.953C199.546 286.309 199.635 286.701 199.635 287.129C199.635 287.749 199.498 288.273 199.225 288.701C198.956 289.125 198.575 289.449 198.083 289.672C197.591 289.891 197.012 290 196.347 290ZM205.268 280.929L201.973 290H200.626L204.42 280.047H205.288L205.268 280.929ZM208.029 290L204.728 280.929L204.707 280.047H205.575L209.383 290H208.029ZM207.858 286.315V287.396H202.267V286.315H207.858ZM218.372 280.047V290H217.046L212.035 282.323V290H210.716V280.047H212.035L217.066 287.744V280.047H218.372ZM230.506 288.927V290H225.235V288.927H230.506ZM225.502 280.047V290H224.183V280.047H225.502ZM229.809 284.326V285.399H225.235V284.326H229.809ZM230.438 280.047V281.127H225.235V280.047H230.438ZM239.796 280.047V290H238.47L233.459 282.323V290H232.14V280.047H233.459L238.49 287.744V280.047H239.796ZM245.347 288.489L248.279 280.047H249.708L246.023 290H245.005L245.347 288.489ZM242.605 280.047L245.511 288.489L245.873 290H244.854L241.177 280.047H242.605ZM252.463 280.047V290H251.144V280.047H252.463ZM254.862 280.047H258.157C258.905 280.047 259.536 280.161 260.051 280.389C260.57 280.617 260.965 280.954 261.233 281.4C261.507 281.842 261.644 282.387 261.644 283.034C261.644 283.49 261.55 283.907 261.363 284.285C261.181 284.659 260.917 284.978 260.57 285.242C260.229 285.502 259.818 285.696 259.34 285.823L258.971 285.967H255.874L255.86 284.894H258.198C258.672 284.894 259.066 284.812 259.381 284.647C259.695 284.479 259.932 284.253 260.092 283.971C260.251 283.688 260.331 283.376 260.331 283.034C260.331 282.651 260.256 282.316 260.105 282.029C259.955 281.742 259.718 281.521 259.395 281.366C259.076 281.207 258.663 281.127 258.157 281.127H256.182V290H254.862V280.047ZM260.68 290L258.26 285.488L259.634 285.481L262.088 289.918V290H260.68ZM271.152 284.709V285.338C271.152 286.085 271.059 286.755 270.872 287.348C270.685 287.94 270.416 288.444 270.065 288.858C269.715 289.273 269.293 289.59 268.801 289.809C268.313 290.027 267.766 290.137 267.16 290.137C266.572 290.137 266.032 290.027 265.54 289.809C265.052 289.59 264.629 289.273 264.269 288.858C263.913 288.444 263.637 287.94 263.441 287.348C263.245 286.755 263.147 286.085 263.147 285.338V284.709C263.147 283.962 263.243 283.294 263.435 282.706C263.631 282.114 263.906 281.61 264.262 281.195C264.617 280.776 265.039 280.457 265.526 280.238C266.019 280.02 266.559 279.91 267.146 279.91C267.753 279.91 268.299 280.02 268.787 280.238C269.279 280.457 269.701 280.776 270.052 281.195C270.407 281.61 270.678 282.114 270.865 282.706C271.057 283.294 271.152 283.962 271.152 284.709ZM269.847 285.338V284.695C269.847 284.103 269.785 283.579 269.662 283.123C269.544 282.667 269.368 282.285 269.136 281.975C268.903 281.665 268.618 281.43 268.281 281.271C267.949 281.111 267.57 281.031 267.146 281.031C266.736 281.031 266.365 281.111 266.032 281.271C265.704 281.43 265.422 281.665 265.185 281.975C264.952 282.285 264.772 282.667 264.645 283.123C264.517 283.579 264.453 284.103 264.453 284.695V285.338C264.453 285.935 264.517 286.464 264.645 286.924C264.772 287.38 264.954 287.765 265.191 288.079C265.433 288.389 265.718 288.624 266.046 288.783C266.379 288.943 266.75 289.022 267.16 289.022C267.589 289.022 267.969 288.943 268.302 288.783C268.634 288.624 268.915 288.389 269.143 288.079C269.375 287.765 269.55 287.38 269.669 286.924C269.787 286.464 269.847 285.935 269.847 285.338ZM280.784 280.047V290H279.458L274.447 282.323V290H273.128V280.047H274.447L279.479 287.744V280.047H280.784ZM283.539 280.047H284.817L288.078 288.161L291.332 280.047H292.617L288.57 290H287.572L283.539 280.047ZM283.122 280.047H284.25L284.435 286.117V290H283.122V280.047ZM291.899 280.047H293.027V290H291.715V286.117L291.899 280.047ZM301.668 288.927V290H296.397V288.927H301.668ZM296.664 280.047V290H295.345V280.047H296.664ZM300.971 284.326V285.399H296.397V284.326H300.971ZM301.6 280.047V281.127H296.397V280.047H301.6ZM310.958 280.047V290H309.632L304.621 282.323V290H303.302V280.047H304.621L309.652 287.744V280.047H310.958ZM316.769 280.047V290H315.47V280.047H316.769ZM319.968 280.047V281.127H312.277V280.047H319.968Z" fill="#A9EA98"/>
<rect x="158" y="369" width="94" height="36" rx="18" fill="#0041AC"/>
<path d="M177.773 388.992L179.749 382.047H180.706L180.152 384.747L178.026 392H177.076L177.773 388.992ZM175.729 382.047L177.302 388.855L177.773 392H176.83L174.417 382.047H175.729ZM183.263 388.849L184.801 382.047H186.12L183.714 392H182.771L183.263 388.849ZM180.85 382.047L182.771 388.992L183.468 392H182.518L180.467 384.747L179.906 382.047H180.85ZM188.998 382.047V392H187.679V382.047H188.998ZM197.434 390.927V392H192.457V390.927H197.434ZM192.717 382.047V392H191.397V382.047H192.717ZM201.638 392H199.56L199.573 390.927H201.638C202.349 390.927 202.941 390.779 203.415 390.482C203.889 390.182 204.244 389.762 204.481 389.225C204.723 388.682 204.844 388.049 204.844 387.324V386.716C204.844 386.146 204.775 385.64 204.639 385.198C204.502 384.752 204.301 384.376 204.037 384.07C203.773 383.76 203.449 383.526 203.066 383.366C202.688 383.207 202.253 383.127 201.761 383.127H199.519V382.047H201.761C202.412 382.047 203.007 382.156 203.545 382.375C204.083 382.589 204.545 382.901 204.933 383.312C205.325 383.717 205.625 384.209 205.835 384.788C206.045 385.362 206.149 386.009 206.149 386.729V387.324C206.149 388.044 206.045 388.694 205.835 389.272C205.625 389.847 205.322 390.337 204.926 390.742C204.534 391.148 204.06 391.46 203.504 391.679C202.952 391.893 202.33 392 201.638 392ZM200.264 382.047V392H198.944V382.047H200.264ZM209.451 382.047V392H208.132V382.047H209.451ZM213.621 386.524V387.604H209.164V386.524H213.621ZM214.298 382.047V383.127H209.164V382.047H214.298ZM217.285 382.047V392H215.966V382.047H217.285ZM219.685 382.047H222.979C223.727 382.047 224.358 382.161 224.873 382.389C225.393 382.617 225.787 382.954 226.056 383.4C226.329 383.842 226.466 384.387 226.466 385.034C226.466 385.49 226.372 385.907 226.186 386.285C226.003 386.659 225.739 386.978 225.393 387.242C225.051 387.502 224.641 387.696 224.162 387.823L223.793 387.967H220.696L220.683 386.894H223.021C223.494 386.894 223.889 386.812 224.203 386.647C224.518 386.479 224.755 386.253 224.914 385.971C225.074 385.688 225.153 385.376 225.153 385.034C225.153 384.651 225.078 384.316 224.928 384.029C224.777 383.742 224.54 383.521 224.217 383.366C223.898 383.207 223.485 383.127 222.979 383.127H221.004V392H219.685V382.047ZM225.502 392L223.082 387.488L224.456 387.481L226.91 391.918V392H225.502ZM234.635 390.927V392H229.364V390.927H234.635ZM229.631 382.047V392H228.312V382.047H229.631ZM233.938 386.326V387.399H229.364V386.326H233.938ZM234.566 382.047V383.127H229.364V382.047H234.566Z" fill="#A9EA98"/>
<rect x="158" y="166" width="178" height="36" rx="18" fill="#0041AC"/>
<path d="M177.773 185.992L179.749 179.047H180.706L180.152 181.747L178.026 189H177.076L177.773 185.992ZM175.729 179.047L177.302 185.855L177.773 189H176.83L174.417 179.047H175.729ZM183.263 185.849L184.801 179.047H186.12L183.714 189H182.771L183.263 185.849ZM180.85 179.047L182.771 185.992L183.468 189H182.518L180.467 181.747L179.906 179.047H180.85ZM190.967 179.929L187.672 189H186.325L190.119 179.047H190.987L190.967 179.929ZM193.729 189L190.427 179.929L190.406 179.047H191.274L195.082 189H193.729ZM193.558 185.315V186.396H187.966V185.315H193.558ZM199.204 179.047V189H197.905V179.047H199.204ZM202.403 179.047V180.127H194.713V179.047H202.403ZM210.203 187.927V189H204.933V187.927H210.203ZM205.199 179.047V189H203.88V179.047H205.199ZM209.506 183.326V184.399H204.933V183.326H209.506ZM210.135 179.047V180.127H204.933V179.047H210.135ZM211.837 179.047H215.132C215.879 179.047 216.51 179.161 217.025 179.389C217.545 179.617 217.939 179.954 218.208 180.4C218.481 180.842 218.618 181.387 218.618 182.034C218.618 182.49 218.525 182.907 218.338 183.285C218.156 183.659 217.891 183.978 217.545 184.242C217.203 184.502 216.793 184.696 216.314 184.823L215.945 184.967H212.849L212.835 183.894H215.173C215.647 183.894 216.041 183.812 216.355 183.647C216.67 183.479 216.907 183.253 217.066 182.971C217.226 182.688 217.306 182.376 217.306 182.034C217.306 181.651 217.23 181.316 217.08 181.029C216.93 180.742 216.693 180.521 216.369 180.366C216.05 180.207 215.638 180.127 215.132 180.127H213.156V189H211.837V179.047ZM217.654 189L215.234 184.488L216.608 184.481L219.062 188.918V189H217.654ZM224.354 179.047H225.632L228.893 187.161L232.146 179.047H233.432L229.385 189H228.387L224.354 179.047ZM223.937 179.047H225.064L225.249 185.117V189H223.937V179.047ZM232.714 179.047H233.842V189H232.529V185.117L232.714 179.047ZM239.967 179.929L236.672 189H235.325L239.119 179.047H239.987L239.967 179.929ZM242.729 189L239.427 179.929L239.406 179.047H240.274L244.082 189H242.729ZM242.558 185.315V186.396H236.966V185.315H242.558ZM253.071 179.047V189H251.745L246.734 181.323V189H245.415V179.047H246.734L251.766 186.744V179.047H253.071ZM259.217 179.929L255.922 189H254.575L258.369 179.047H259.237L259.217 179.929ZM261.979 189L258.677 179.929L258.656 179.047H259.524L263.332 189H261.979ZM261.808 185.315V186.396H256.216V185.315H261.808ZM271.938 184.044V187.688C271.815 187.87 271.619 188.075 271.351 188.303C271.082 188.526 270.71 188.722 270.236 188.891C269.767 189.055 269.161 189.137 268.418 189.137C267.812 189.137 267.254 189.032 266.743 188.822C266.237 188.608 265.798 188.298 265.424 187.893C265.055 187.482 264.768 186.986 264.562 186.402C264.362 185.814 264.262 185.149 264.262 184.406V183.634C264.262 182.891 264.348 182.228 264.521 181.645C264.699 181.061 264.959 180.567 265.301 180.161C265.643 179.751 266.062 179.441 266.559 179.231C267.055 179.017 267.625 178.91 268.268 178.91C269.029 178.91 269.664 179.042 270.175 179.307C270.69 179.566 271.091 179.926 271.378 180.387C271.67 180.847 271.856 181.371 271.938 181.959H270.619C270.56 181.599 270.441 181.271 270.264 180.975C270.09 180.678 269.842 180.441 269.519 180.264C269.195 180.081 268.778 179.99 268.268 179.99C267.807 179.99 267.409 180.075 267.071 180.243C266.734 180.412 266.456 180.653 266.237 180.968C266.019 181.282 265.854 181.663 265.745 182.109C265.64 182.556 265.588 183.06 265.588 183.62V184.406C265.588 184.98 265.654 185.493 265.786 185.944C265.923 186.396 266.117 186.781 266.367 187.1C266.618 187.414 266.916 187.653 267.263 187.817C267.614 187.981 268.001 188.063 268.425 188.063C268.894 188.063 269.275 188.025 269.566 187.947C269.858 187.865 270.086 187.77 270.25 187.66C270.414 187.546 270.539 187.439 270.626 187.339V185.11H268.322V184.044H271.938ZM280.449 187.927V189H275.179V187.927H280.449ZM275.445 179.047V189H274.126V179.047H275.445ZM279.752 183.326V184.399H275.179V183.326H279.752ZM280.381 179.047V180.127H275.179V179.047H280.381ZM282.5 179.047H283.778L287.039 187.161L290.293 179.047H291.578L287.531 189H286.533L282.5 179.047ZM282.083 179.047H283.211L283.396 185.117V189H282.083V179.047ZM290.86 179.047H291.988V189H290.676V185.117L290.86 179.047ZM300.629 187.927V189H295.358V187.927H300.629ZM295.625 179.047V189H294.306V179.047H295.625ZM299.932 183.326V184.399H295.358V183.326H299.932ZM300.561 179.047V180.127H295.358V179.047H300.561ZM309.919 179.047V189H308.593L303.582 181.323V189H302.263V179.047H303.582L308.613 186.744V179.047H309.919ZM315.729 179.047V189H314.431V179.047H315.729ZM318.929 179.047V180.127H311.238V179.047H318.929Z" fill="#A9EA98"/>
<rect x="158" y="65" width="121" height="36" rx="18" fill="#0041AC"/>
<path d="M178.84 78.9287L175.545 88H174.198L177.992 78.0469H178.86L178.84 78.9287ZM181.602 88L178.3 78.9287L178.279 78.0469H179.147L182.955 88H181.602ZM181.431 84.3154V85.3955H175.839V84.3154H181.431ZM191.562 83.0439V86.6875C191.438 86.8698 191.243 87.0749 190.974 87.3027C190.705 87.526 190.333 87.722 189.859 87.8906C189.39 88.0547 188.784 88.1367 188.041 88.1367C187.435 88.1367 186.877 88.0319 186.366 87.8223C185.86 87.6081 185.421 87.2982 185.047 86.8926C184.678 86.4824 184.391 85.9857 184.186 85.4023C183.985 84.8145 183.885 84.1491 183.885 83.4062V82.6338C183.885 81.891 183.971 81.2279 184.145 80.6445C184.322 80.0612 184.582 79.5667 184.924 79.1611C185.266 78.751 185.685 78.4411 186.182 78.2314C186.678 78.0173 187.248 77.9102 187.891 77.9102C188.652 77.9102 189.287 78.0423 189.798 78.3066C190.313 78.5664 190.714 78.9264 191.001 79.3867C191.293 79.847 191.479 80.3711 191.562 80.959H190.242C190.183 80.599 190.064 80.2708 189.887 79.9746C189.714 79.6784 189.465 79.4414 189.142 79.2637C188.818 79.0814 188.401 78.9902 187.891 78.9902C187.43 78.9902 187.032 79.0745 186.694 79.2432C186.357 79.4118 186.079 79.6533 185.86 79.9678C185.642 80.2822 185.478 80.6628 185.368 81.1094C185.263 81.556 185.211 82.0596 185.211 82.6201V83.4062C185.211 83.9805 185.277 84.4932 185.409 84.9443C185.546 85.3955 185.74 85.7806 185.99 86.0996C186.241 86.4141 186.539 86.6533 186.886 86.8174C187.237 86.9814 187.624 87.0635 188.048 87.0635C188.517 87.0635 188.898 87.0247 189.189 86.9473C189.481 86.8652 189.709 86.7695 189.873 86.6602C190.037 86.5462 190.162 86.4391 190.249 86.3389V84.1104H187.945V83.0439H191.562ZM193.749 78.0469H197.044C197.791 78.0469 198.423 78.1608 198.938 78.3887C199.457 78.6165 199.851 78.9538 200.12 79.4004C200.394 79.8424 200.53 80.387 200.53 81.0342C200.53 81.4899 200.437 81.9069 200.25 82.2852C200.068 82.6589 199.803 82.9779 199.457 83.2422C199.115 83.502 198.705 83.6956 198.227 83.8232L197.857 83.9668H194.761L194.747 82.8936H197.085C197.559 82.8936 197.953 82.8115 198.268 82.6475C198.582 82.4788 198.819 82.2533 198.979 81.9707C199.138 81.6882 199.218 81.376 199.218 81.0342C199.218 80.6514 199.143 80.3164 198.992 80.0293C198.842 79.7422 198.605 79.5212 198.281 79.3662C197.962 79.2067 197.55 79.127 197.044 79.127H195.068V88H193.749V78.0469ZM199.566 88L197.146 83.4883L198.521 83.4814L200.975 87.918V88H199.566ZM203.791 78.0469V88H202.472V78.0469H203.791ZM212.199 84.835H213.512C213.443 85.4639 213.263 86.0267 212.972 86.5234C212.68 87.0202 212.268 87.4144 211.734 87.7061C211.201 87.9932 210.536 88.1367 209.738 88.1367C209.155 88.1367 208.624 88.0273 208.146 87.8086C207.672 87.5898 207.264 87.2799 206.922 86.8789C206.58 86.4733 206.316 85.988 206.129 85.4229C205.947 84.8532 205.855 84.2197 205.855 83.5225V82.5312C205.855 81.834 205.947 81.2028 206.129 80.6377C206.316 80.068 206.582 79.5804 206.929 79.1748C207.28 78.7692 207.701 78.457 208.193 78.2383C208.686 78.0195 209.239 77.9102 209.854 77.9102C210.606 77.9102 211.242 78.0514 211.762 78.334C212.281 78.6165 212.685 79.0085 212.972 79.5098C213.263 80.0065 213.443 80.583 213.512 81.2393H212.199C212.135 80.7744 212.017 80.3757 211.844 80.043C211.671 79.7057 211.424 79.446 211.105 79.2637C210.786 79.0814 210.369 78.9902 209.854 78.9902C209.412 78.9902 209.023 79.0745 208.686 79.2432C208.353 79.4118 208.073 79.651 207.845 79.9609C207.621 80.2708 207.453 80.6423 207.339 81.0752C207.225 81.5081 207.168 81.9889 207.168 82.5176V83.5225C207.168 84.0101 207.218 84.4681 207.318 84.8965C207.423 85.3249 207.58 85.7008 207.79 86.0244C208 86.348 208.266 86.6032 208.59 86.79C208.913 86.9723 209.296 87.0635 209.738 87.0635C210.299 87.0635 210.745 86.9746 211.078 86.7969C211.411 86.6191 211.661 86.3639 211.83 86.0312C212.003 85.6986 212.126 85.2998 212.199 84.835ZM221.004 78.0469H222.316V84.7803C222.316 85.5277 222.15 86.1497 221.817 86.6465C221.485 87.1432 221.043 87.5169 220.491 87.7676C219.944 88.0137 219.35 88.1367 218.707 88.1367C218.033 88.1367 217.422 88.0137 216.875 87.7676C216.333 87.5169 215.902 87.1432 215.583 86.6465C215.269 86.1497 215.111 85.5277 215.111 84.7803V78.0469H216.417V84.7803C216.417 85.2998 216.513 85.7282 216.704 86.0654C216.896 86.4027 217.162 86.6533 217.504 86.8174C217.85 86.9814 218.251 87.0635 218.707 87.0635C219.167 87.0635 219.568 86.9814 219.91 86.8174C220.257 86.6533 220.525 86.4027 220.717 86.0654C220.908 85.7282 221.004 85.2998 221.004 84.7803V78.0469ZM230.424 86.9268V88H225.447V86.9268H230.424ZM225.707 78.0469V88H224.388V78.0469H225.707ZM233.726 78.0469V88H232.427V78.0469H233.726ZM236.925 78.0469V79.127H229.234V78.0469H236.925ZM244.096 78.0469H245.408V84.7803C245.408 85.5277 245.242 86.1497 244.909 86.6465C244.576 87.1432 244.134 87.5169 243.583 87.7676C243.036 88.0137 242.441 88.1367 241.799 88.1367C241.124 88.1367 240.514 88.0137 239.967 87.7676C239.424 87.5169 238.994 87.1432 238.675 86.6465C238.36 86.1497 238.203 85.5277 238.203 84.7803V78.0469H239.509V84.7803C239.509 85.2998 239.604 85.7282 239.796 86.0654C239.987 86.4027 240.254 86.6533 240.596 86.8174C240.942 86.9814 241.343 87.0635 241.799 87.0635C242.259 87.0635 242.66 86.9814 243.002 86.8174C243.348 86.6533 243.617 86.4027 243.809 86.0654C244 85.7282 244.096 85.2998 244.096 84.7803V78.0469ZM247.479 78.0469H250.774C251.522 78.0469 252.153 78.1608 252.668 78.3887C253.188 78.6165 253.582 78.9538 253.851 79.4004C254.124 79.8424 254.261 80.387 254.261 81.0342C254.261 81.4899 254.167 81.9069 253.98 82.2852C253.798 82.6589 253.534 82.9779 253.188 83.2422C252.846 83.502 252.436 83.6956 251.957 83.8232L251.588 83.9668H248.491L248.478 82.8936H250.815C251.289 82.8936 251.684 82.8115 251.998 82.6475C252.312 82.4788 252.549 82.2533 252.709 81.9707C252.868 81.6882 252.948 81.376 252.948 81.0342C252.948 80.6514 252.873 80.3164 252.723 80.0293C252.572 79.7422 252.335 79.5212 252.012 79.3662C251.693 79.2067 251.28 79.127 250.774 79.127H248.799V88H247.479V78.0469ZM253.297 88L250.877 83.4883L252.251 83.4814L254.705 87.918V88H253.297ZM262.43 86.9268V88H257.159V86.9268H262.43ZM257.426 78.0469V88H256.106V78.0469H257.426ZM261.732 82.3262V83.3994H257.159V82.3262H261.732ZM262.361 78.0469V79.127H257.159V78.0469H262.361Z" fill="#A9EA98"/>
<circle cx="38" cy="98" r="8.5" fill="white"/>
<circle cx="38" cy="98" r="8.5" fill="white"/>
<circle cx="38" cy="98" r="8.5" stroke="#93D49A" stroke-width="3"/>
<circle cx="38" cy="98" r="4" fill="#93D49A"/>
<circle cx="38" cy="159.875" r="8.5" fill="white"/>
<circle cx="38" cy="159.875" r="8.5" fill="white"/>
<circle cx="38" cy="159.875" r="8.5" stroke="#82C39C" stroke-width="3"/>
<circle cx="38" cy="159.875" r="4" fill="#82C39C"/>
<circle cx="38" cy="221.75" r="8.5" fill="white"/>
<circle cx="38" cy="221.75" r="8.5" fill="white"/>
<circle cx="38" cy="221.75" r="8.5" stroke="#71B29F" stroke-width="3"/>
<circle cx="38" cy="221.75" r="4" fill="#71B29F"/>
<circle cx="38" cy="283.625" r="8.5" fill="white"/>
<circle cx="38" cy="283.625" r="8.5" fill="white"/>
<circle cx="38" cy="283.625" r="8.5" stroke="#60A1A1" stroke-width="3"/>
<circle cx="38" cy="283.625" r="4" fill="#60A1A1"/>
<circle cx="38" cy="345.5" r="8.5" fill="white"/>
<circle cx="38" cy="345.5" r="8.5" fill="white"/>
<circle cx="38" cy="345.5" r="8.5" stroke="#5596A2" stroke-width="3"/>
<circle cx="38" cy="345.5" r="4" fill="#5596A2"/>
<circle cx="38" cy="407.375" r="8.5" fill="white"/>
<circle cx="38" cy="407.375" r="8.5" fill="white"/>
<circle cx="38" cy="407.375" r="8.5" stroke="#3E80A5" stroke-width="3"/>
<circle cx="38" cy="407.375" r="4" fill="#3E80A5"/>
<circle cx="38" cy="469.25" r="8.5" fill="white"/>
<circle cx="38" cy="469.25" r="8.5" fill="white"/>
<circle cx="38" cy="469.25" r="8.5" stroke="#3172A6" stroke-width="3"/>
<circle cx="38" cy="469.25" r="4" fill="#3172A6"/>
<circle cx="38" cy="531.125" r="8.5" fill="white"/>
<circle cx="38" cy="531.125" r="8.5" fill="white"/>
<circle cx="38" cy="531.125" r="8.5" stroke="#1D5EA9" stroke-width="3"/>
<circle cx="38" cy="531.125" r="4" fill="#1D5EA9"/>
<circle cx="38" cy="593" r="8.5" fill="white"/>
<circle cx="38" cy="593" r="8.5" fill="white"/>
<circle cx="38" cy="593" r="8.5" stroke="#0041AC" stroke-width="3"/>
<circle cx="38" cy="593" r="4" fill="#0041AC"/>
<defs>
<linearGradient id="paint0_linear_3535_5334" x1="37.5" y1="648" x2="37.5" y2="3" gradientUnits="userSpaceOnUse">
<stop stop-color="#0041AC"/>
<stop offset="1" stop-color="#A9EA98"/>
</linearGradient>
</defs>
</svg>
