<svg width="324" height="912" viewBox="0 0 324 912" fill="none" xmlns="http://www.w3.org/2000/svg">
<path d="M154 0.5C152.619 0.5 151.5 1.61929 151.5 3C151.5 4.38071 152.619 5.5 154 5.5V0.5ZM303.232 910.768C304.209 911.744 305.791 911.744 306.768 910.768L322.678 894.858C323.654 893.882 323.654 892.299 322.678 891.322C321.701 890.346 320.118 890.346 319.142 891.322L305 905.464L290.858 891.322C289.882 890.346 288.299 890.346 287.322 891.322C286.346 892.299 286.346 893.882 287.322 894.858L303.232 910.768ZM302.5 758V909H307.5V758H302.5ZM154 609.5C236.014 609.5 302.5 675.986 302.5 758H307.5C307.5 673.224 238.776 604.5 154 604.5V609.5ZM0.5 456C0.5 540.776 69.2243 609.5 154 609.5V604.5C71.9857 604.5 5.5 538.014 5.5 456H0.5ZM154 302.5C69.2243 302.5 0.5 371.224 0.5 456H5.5C5.5 373.986 71.9857 307.5 154 307.5V302.5ZM302.5 154C302.5 236.014 236.014 302.5 154 302.5V307.5C238.776 307.5 307.5 238.776 307.5 154H302.5ZM154 5.5C236.014 5.5 302.5 71.9857 302.5 154H307.5C307.5 69.2243 238.776 0.5 154 0.5V5.5Z" fill="url(#paint0_linear_3535_5910)"/>
<defs>
<linearGradient id="paint0_linear_3535_5910" x1="154" y1="3" x2="154" y2="909" gradientUnits="userSpaceOnUse">
<stop stop-color="#0041AC"/>
<stop offset="1" stop-color="#A9EA98"/>
</linearGradient>
</defs>
</svg>
