<svg version="1.2" xmlns="http://www.w3.org/2000/svg" viewBox="0 0 378 739" width="378" height="739">
	<title>home-towards-data-svg</title>
	<defs>
		<linearGradient id="g1" x2="1" gradientUnits="userSpaceOnUse" gradientTransform="matrix(0,-645,36.536,0,44.5,667)">
			<stop offset="0" stop-color="#0041ac"/>
			<stop offset="1" stop-color="#a9ea98"/>
		</linearGradient>
	</defs>
	<style>
		.s0 { fill: #0041ac }
		.s1 { fill: none;stroke: #a9ea98;strokeWidth: 1.3 }
		.s2 { fill: #5697a2 }
		.s3 { fill: #88c99c }
		.s4 { fill: #6cad9f }
		.s5 { fill: #397aa5 }
		.s6 { fill: #1859a9 }
		.s7 { fill: url(#g1) }
		.s8 { fill: #a9ea98 }
		.s9 { fill: #ffffff }
		.s10 { fill: none;stroke: #93d49a;strokeWidth: 3 }
		.s11 { fill: #93d49a }
		.s12 { fill: none;stroke: #82c39c;strokeWidth: 3 }
		.s13 { fill: #82c39c }
		.s14 { fill: none;stroke: #71b29f;strokeWidth: 3 }
		.s15 { fill: #71b29f }
		.s16 { fill: none;stroke: #60a1a1;strokeWidth: 3 }
		.s17 { fill: #60a1a1 }
		.s18 { fill: none;stroke: #5596a2;strokeWidth: 3 }
		.s19 { fill: #5596a2 }
		.s20 { fill: none;stroke: #3e80a5;strokeWidth: 3 }
		.s21 { fill: #3e80a5 }
		.s22 { fill: none;stroke: #3172a6;strokeWidth: 3 }
		.s23 { fill: #3172a6 }
		.s24 { fill: none;stroke: #1d5ea9;strokeWidth: 3 }
		.s25 { fill: #1d5ea9 }
		.s26 { fill: none;stroke: #0041ac;strokeWidth: 3 }
	</style>
	<path class="s0" d="m44.5 736c-13.3 0-24-10.7-24-24 0-13.3 10.7-24 24-24 13.3 0 24 10.7 24 24 0 13.3-10.7 24-24 24z"/>
	<path fill-rule="evenodd" class="s1" d="m52.6 714.1l-10.6 6.4c-1.3 0.8-2.9-0.2-2.9-1.6v-12.8c0-1.5 1.6-2.4 2.9-1.6l10.6 6.3c1.3 0.8 1.3 2.6 0 3.3z"/>
	<path class="s2" d="m42.5 667c0 1.4 1.1 2.5 2.5 2.5 1.4 0 2.5-1.1 2.5-2.5zm111.3-361.2c0.9-1 0.9-2.6 0-3.6l-15.9-15.9c-1-1-2.6-1-3.6 0-1 1-1 2.6 0 3.6l14.2 14.1-14.2 14.1c-1 1-1 2.6 0 3.6 1 1 2.6 1 3.6 0zm-106.3 361.2v-312.2h-5v312.2zm48.3-360.5h56.2v-5h-56.2zm-48.3 48.3c0-26.7 21.6-48.3 48.3-48.3v-5c-29.4 0-53.3 23.9-53.3 53.3z"/>
	<path fill-rule="evenodd" class="s3" d="m45 633.5c-1.4 0-2.5-1.1-2.5-2.5v-2.5c0-1.4 1.1-2.5 2.5-2.5 1.4 0 2.5 1.1 2.5 2.5v2.5c0 1.4-1.1 2.5-2.5 2.5zm55.6-532.5c0 1.4-1.1 2.5-2.5 2.5h-2.3c1.1 0 2-0.7 2.3-1.6v-1.8c-0.3-0.9-1.2-1.6-2.3-1.6h2.3c1.4 0 2.5 1.1 2.5 2.5zm-7.2 2.6c-1.4 0-2.5-1-2.6-2.4-0.1-1.4 1-2.6 2.4-2.6q1.3-0.1 2.6-0.1c-1.4 0-2.5 1.1-2.5 2.5 0 1.4 1.1 2.5 2.5 2.5q-1.2 0-2.4 0.1zm44.5 15.1c-1 1-2.6 1-3.6 0-1-1-1-2.6 0-3.6l13.1-13c0.4 0.8 1.3 1.4 2.3 1.4h2.3v-5h-2.3c-1 0-1.9 0.6-2.3 1.4l-13.1-13c-1-1-1-2.6 0-3.6 1-1 2.6-1 3.6 0l15.9 15.9c0.9 1 0.9 2.6 0 3.6zm9.5-16.6q-0.2-0.5-0.2-1.1 0-0.6 0.2-1.1l1.1 1.1zm-102.4 514c-1.4 0-2.5-1.2-2.5-2.5v-5c0-1.4 1.1-2.5 2.5-2.5 1.4 0 2.5 1.1 2.5 2.5v5c0 1.3-1.1 2.5-2.5 2.5zm0-20c-1.4 0-2.5-1.1-2.5-2.5v-5c0-1.4 1.1-2.5 2.5-2.5 1.4 0 2.5 1.1 2.5 2.5v5c0 1.4-1.1 2.5-2.5 2.5zm0-20c-1.4 0-2.5-1.1-2.5-2.5v-5c0-1.4 1.1-2.5 2.5-2.5 1.4 0 2.5 1.1 2.5 2.5v5c0 1.4-1.1 2.5-2.5 2.5zm0-19.9c-1.4 0-2.5-1.2-2.5-2.5v-5c0-1.4 1.1-2.5 2.5-2.5 1.4 0 2.5 1.1 2.5 2.5v5c0 1.3-1.1 2.5-2.5 2.5zm0-20c-1.4 0-2.5-1.1-2.5-2.5v-5c0-1.4 1.1-2.5 2.5-2.5 1.4 0 2.5 1.1 2.5 2.5v5c0 1.4-1.1 2.5-2.5 2.5zm0-20c-1.4 0-2.5-1.1-2.5-2.5v-5c0-1.4 1.1-2.5 2.5-2.5 1.4 0 2.5 1.1 2.5 2.5v5c0 1.4-1.1 2.5-2.5 2.5zm0-20c-1.4 0-2.5-1.1-2.5-2.5v-4.9c0-1.4 1.1-2.5 2.5-2.5 1.4 0 2.5 1.1 2.5 2.5v4.9c0 1.4-1.1 2.5-2.5 2.5zm0-19.9c-1.4 0-2.5-1.1-2.5-2.5v-5c0-1.4 1.1-2.5 2.5-2.5 1.4 0 2.5 1.1 2.5 2.5v5c0 1.4-1.1 2.5-2.5 2.5zm0-20c-1.4 0-2.5-1.1-2.5-2.5v-5c0-1.4 1.1-2.5 2.5-2.5 1.4 0 2.5 1.1 2.5 2.5v5c0 1.4-1.1 2.5-2.5 2.5zm0-20c-1.4 0-2.5-1.1-2.5-2.5v-4.9c0-1.4 1.1-2.5 2.5-2.5 1.4 0 2.5 1.1 2.5 2.5v4.9c0 1.4-1.1 2.5-2.5 2.5zm0-19.9c-1.4 0-2.5-1.1-2.5-2.5v-5c0-1.4 1.1-2.5 2.5-2.5 1.4 0 2.5 1.1 2.5 2.5v5c0 1.4-1.1 2.5-2.5 2.5zm0-20c-1.4 0-2.5-1.1-2.5-2.5v-5c0-1.4 1.1-2.5 2.5-2.5 1.4 0 2.5 1.1 2.5 2.5v5c0 1.4-1.1 2.5-2.5 2.5zm0-20c-1.4 0-2.5-1.1-2.5-2.5v-4.9c0-1.4 1.1-2.5 2.5-2.5 1.4 0 2.5 1.1 2.5 2.5v4.9c0 1.4-1.1 2.5-2.5 2.5zm0-19.9c-1.4 0-2.5-1.1-2.5-2.5v-5c0-1.4 1.1-2.5 2.5-2.5 1.4 0 2.5 1.1 2.5 2.5v5c0 1.4-1.1 2.5-2.5 2.5zm0-20c-1.4 0-2.5-1.1-2.5-2.5v-5c0-1.4 1.1-2.5 2.5-2.5 1.4 0 2.5 1.1 2.5 2.5v5c0 1.4-1.1 2.5-2.5 2.5zm0-20c-1.4 0-2.5-1.1-2.5-2.5v-4.9c0-1.4 1.1-2.5 2.5-2.5 1.4 0 2.5 1.1 2.5 2.5v4.9c0 1.4-1.1 2.5-2.5 2.5zm0-19.9c-1.4 0-2.5-1.1-2.5-2.5v-5c0-1.4 1.1-2.5 2.5-2.5 1.4 0 2.5 1.1 2.5 2.5v5c0 1.4-1.1 2.5-2.5 2.5zm0-20c-1.4 0-2.5-1.1-2.5-2.5v-5c0-1.4 1.1-2.5 2.5-2.5 1.4 0 2.5 1.1 2.5 2.5v5c0 1.4-1.1 2.5-2.5 2.5zm0-20c-1.4 0-2.5-1.1-2.5-2.5v-4.9c0-1.4 1.1-2.5 2.5-2.5 1.4 0 2.5 1.1 2.5 2.5v4.9c0 1.4-1.1 2.5-2.5 2.5zm0-19.9c-1.4 0-2.5-1.1-2.5-2.5v-5c0-1.4 1.1-2.5 2.5-2.5 1.4 0 2.5 1.1 2.5 2.5v5c0 1.4-1.1 2.5-2.5 2.5zm0-20c-1.4 0-2.5-1.1-2.5-2.5v-5c0-1.4 1.1-2.5 2.5-2.5 1.4 0 2.5 1.1 2.5 2.5v5c0 1.4-1.1 2.5-2.5 2.5zm0-20c-1.4 0-2.5-1.1-2.5-2.5v-4.9c0-1.4 1.1-2.5 2.5-2.5 1.4 0 2.5 1.1 2.5 2.5v4.9c0 1.4-1.1 2.5-2.5 2.5zm0-19.9c-1.4 0-2.5-1.1-2.5-2.5v-5c0-1.4 1.1-2.5 2.5-2.5 1.4 0 2.5 1.1 2.5 2.5v5c0 1.4-1.1 2.5-2.5 2.5zm0-20c-1.4 0-2.5-1.1-2.5-2.5v-2.5q0-1.3 0-2.6c0.1-1.4 1.3-2.4 2.7-2.4 1.3 0.1 2.4 1.3 2.3 2.6q0 1.2 0 2.4v2.5c0 1.4-1.1 2.5-2.5 2.5zm2.1-19.7c-1.3-0.5-2-1.9-1.5-3.2q0.9-2.5 2-4.9c0.6-1.2 2.1-1.8 3.3-1.2 1.3 0.6 1.8 2.1 1.2 3.4q-1 2.1-1.8 4.3c-0.5 1.3-1.9 2-3.2 1.6zm9.4-17.5c-1.1-1-1.1-2.6-0.2-3.6q1.7-1.9 3.7-3.7c1-0.9 2.6-0.8 3.5 0.2 0.9 1 0.9 2.6-0.2 3.5q-1.7 1.6-3.3 3.4c-0.9 1-2.5 1.1-3.5 0.2zm15.3-12.6c-0.6-1.3-0.1-2.8 1.2-3.4q2.3-1.1 4.8-2c1.3-0.4 2.7 0.2 3.2 1.5 0.5 1.3-0.2 2.8-1.5 3.2q-2.2 0.8-4.4 1.8c-1.2 0.6-2.7 0.1-3.3-1.1zm37.9-6c0-1.4 1.1-2.5 2.5-2.5h4.6c1.4 0 2.5 1.1 2.5 2.5 0 1.4-1.1 2.5-2.5 2.5h-4.6c-1.4 0-2.5-1.1-2.5-2.5zm18.7 0c0-1.4 1.1-2.5 2.5-2.5h4.7c1.4 0 2.5 1.1 2.5 2.5 0 1.4-1.1 2.5-2.5 2.5h-4.7c-1.4 0-2.5-1.1-2.5-2.5z"/>
	<path class="s4" d="m42.5 631c0 1.4 1.1 2.5 2.5 2.5 1.4 0 2.5-1.1 2.5-2.5zm111.3-427.2c0.9-1 0.9-2.6 0-3.6l-15.9-15.9c-1-1-2.6-1-3.6 0-1 1-1 2.6 0 3.6l14.2 14.1-14.2 14.1c-1 1-1 2.6 0 3.6 1 1 2.6 1 3.6 0zm-106.3 427.2v-378.2h-5v378.2zm48.3-426.5h56.2v-5h-56.2zm-48.3 48.3c0-26.7 21.6-48.3 48.3-48.3v-5c-29.4 0-53.3 23.9-53.3 53.3z"/>
	<path class="s5" d="m42.5 667c0 1.4 1.1 2.5 2.5 2.5 1.4 0 2.5-1.1 2.5-2.5zm111.3-259.2c0.9-1 0.9-2.6 0-3.6l-15.9-15.9c-1-1-2.6-1-3.6 0-1 1-1 2.6 0 3.6l14.2 14.1-14.2 14.1c-1 1-1 2.6 0 3.6 1 1 2.6 1 3.6 0zm-106.3 259.2v-210.2h-5v210.2zm48.3-258.5h56.2v-5h-56.2zm-48.3 48.3c0-26.7 21.6-48.3 48.3-48.3v-5c-29.4 0-53.3 23.9-53.3 53.3z"/>
	<path class="s6" d="m42.5 665c0 1.4 1.1 2.5 2.5 2.5 1.4 0 2.5-1.1 2.5-2.5zm111.3-155.2c0.9-1 0.9-2.6 0-3.6l-15.9-15.9c-1-1-2.6-1-3.6 0-1 1-1 2.6 0 3.6l14.2 14.1-14.2 14.1c-1 1-1 2.6 0 3.6 1 1 2.6 1 3.6 0zm-106.3 155.2v-106.2h-5v106.2zm48.3-154.5h56.2v-5h-56.2zm-48.3 48.3c0-26.7 21.6-48.3 48.3-48.3v-5c-29.4 0-53.3 23.9-53.3 53.3z"/>
	<path class="s7" d="m46.8 20.2c-1-0.9-2.6-0.9-3.6 0l-15.9 15.9c-1 1-1 2.6 0 3.6 1 1 2.6 1 3.6 0l14.1-14.2 14.1 14.2c1 1 2.6 1 3.6 0 1-1 1-2.6 0-3.6zm-4.3 646.8c0 1.4 1.1 2.5 2.5 2.5 1.4 0 2.5-1.1 2.5-2.5zm0-645v645h5v-645z"/>
	<path class="s0" d="m183 490h49c9.9 0 18 8.1 18 18 0 9.9-8.1 18-18 18h-49c-9.9 0-18-8.1-18-18 0-9.9 8.1-18 18-18z"/>
	<path class="s8" d="m188.5 511.9v1.1h-5.3v-1.1zm-5-8.9v10h-1.3v-10zm4.3 4.3v1.1h-4.6v-1.1zm0.6-4.3v1.1h-5.2v-1.1zm9.4 0v10h-1.3l-5-7.7v7.7h-1.4v-10h1.4l5 7.7v-7.7zm8.7 8.9v1.1h-5.3v-1.1zm-5-8.9v10h-1.3v-10zm4.3 4.3v1.1h-4.6v-1.1zm0.6-4.3v1.1h-5.2v-1.1zm1.7 0h3.3q1.1 0 1.9 0.4 0.8 0.3 1.2 1 0.4 0.7 0.4 1.6 0 0.7-0.3 1.3-0.2 0.5-0.8 0.9-0.5 0.4-1.2 0.6l-0.4 0.2h-3.1v-1.1h2.4q0.7 0 1.1-0.3 0.5-0.2 0.8-0.6 0.2-0.5 0.2-1 0-0.5-0.2-1-0.3-0.4-0.7-0.6-0.5-0.3-1.3-0.3h-2v8.9h-1.3zm5.8 10l-2.4-4.6h1.4l2.5 4.5v0.1zm10.1-5v3.6q-0.2 0.3-0.6 0.7-0.4 0.3-1.1 0.5-0.7 0.3-1.8 0.3-0.9 0-1.7-0.3-0.7-0.3-1.3-1-0.6-0.6-0.9-1.4-0.3-0.9-0.3-2v-0.8q0-1.1 0.3-2 0.3-0.9 0.8-1.5 0.5-0.6 1.2-0.9 0.8-0.3 1.7-0.3 1.2 0 2 0.4 0.7 0.3 1.2 1 0.4 0.7 0.5 1.6h-1.3q-0.1-0.5-0.4-1-0.2-0.4-0.7-0.7-0.5-0.3-1.3-0.3-0.6 0-1.2 0.3-0.5 0.2-0.8 0.7-0.3 0.5-0.5 1.2-0.1 0.6-0.1 1.5v0.8q0 0.8 0.2 1.5 0.2 0.7 0.5 1.2 0.4 0.4 0.9 0.7 0.6 0.2 1.2 0.2 0.7 0 1.1-0.1 0.5-0.1 0.7-0.3 0.3-0.2 0.4-0.3v-2.2h-2.3v-1.1zm2.6-5l2.6 5 2.6-5h1.5l-3.4 6.2v3.8h-1.3v-3.8l-3.5-6.2z"/>
	<path class="s0" d="m183 286h143c9.9 0 18 8.1 18 18 0 9.9-8.1 18-18 18h-143c-9.9 0-18-8.1-18-18 0-9.9 8.1-18 18-18z"/>
	<path fill-rule="evenodd" class="s8" d="m187.9 299h1.3v6.8q0 1.1-0.5 1.8-0.5 0.8-1.4 1.2-0.8 0.3-1.7 0.3-1.1 0-1.9-0.3-0.8-0.4-1.3-1.2-0.4-0.7-0.4-1.8v-6.8h1.3v6.8q0 0.8 0.3 1.3 0.2 0.5 0.8 0.7 0.5 0.3 1.2 0.3 0.6 0 1.2-0.3 0.5-0.2 0.8-0.7 0.3-0.5 0.3-1.3zm3.3 0h3.3q1.1 0 1.9 0.3 0.8 0.4 1.2 1 0.4 0.7 0.4 1.7 0 0.7-0.3 1.2-0.2 0.6-0.8 1-0.3 0.2-0.8 0.4l2.4 4.3h-1.4l-2.2-4h-2.3v4h-1.4zm1.4 6v-1.1h-0.4v1.1zm2.1-1.1q0.7 0 1.1-0.3 0.5-0.2 0.8-0.6 0.2-0.5 0.2-1 0-0.6-0.2-1-0.3-0.4-0.7-0.6-0.5-0.3-1.3-0.3h-2v3.8zm6.7 0.4v3.6h2.1q0.7 0 1.1-0.2 0.4-0.2 0.7-0.6 0.2-0.4 0.2-1 0-0.5-0.2-0.9-0.2-0.4-0.6-0.7-0.4-0.2-1.1-0.2zm-1.3 4.7v-10h3.2q0.8 0 1.4 0.2 0.6 0.1 1 0.5 0.4 0.3 0.7 0.8 0.2 0.5 0.2 1.2 0 0.6-0.3 1.1-0.4 0.5-0.9 0.8-0.1 0.1-0.3 0.1 0.4 0.1 0.7 0.4 0.5 0.3 0.8 0.8 0.2 0.6 0.2 1.2 0 0.9-0.4 1.6-0.4 0.6-1.1 1-0.8 0.3-1.7 0.3zm1.3-4.7v-1h-0.3v1zm2.9-1.2q0.5-0.2 0.7-0.6 0.2-0.3 0.2-0.8 0-0.6-0.2-0.9-0.2-0.4-0.6-0.5-0.4-0.2-1.1-0.2h-1.9v3.2h2q0.5 0 0.9-0.2zm4.9 5.9h-1.4l3.8-10h1.2l3.8 10h-1.4l-0.9-2.6h-4.2zm3-8.3l-1.6 4.6h3.3zm13.4-1.6v9.9h-1.3l-5-7.7v7.7h-1.4v-9.9h1.4l5 7.7v-7.7zm12.1 8.9v1h-6.3v-9.9h6.3v1.1h-5v3.2h4.3v1h-4.3v3.6zm9.3-8.9v9.9h-1.3l-5-7.7v7.7h-1.3v-9.9h1.3l5 7.7v-7.7zm8.5 0h1.4l-3.7 9.9h-1.1l-3.7-9.9h1.4l2.8 8.2zm4.2 0v9.9h-1.3v-9.9zm2.4 0h3.3q1.1 0 1.9 0.3 0.8 0.4 1.2 1 0.4 0.7 0.4 1.7 0 0.6-0.3 1.2-0.3 0.6-0.8 1-0.3 0.2-0.8 0.4l2.3 4.2v0.1h-1.4l-2.1-4h-2.4v4h-1.3zm1.3 6v-1.1h-0.3v1.1zm2-1.1q0.7 0 1.2-0.3 0.5-0.2 0.7-0.6 0.3-0.5 0.3-1 0-0.6-0.3-1-0.2-0.4-0.7-0.7-0.4-0.2-1.2-0.2h-2v3.8zm13-0.2v0.6q0 1.1-0.3 2-0.3 0.9-0.8 1.5-0.5 0.7-1.3 1-0.7 0.3-1.6 0.3-0.9 0-1.6-0.3-0.8-0.3-1.3-1-0.5-0.6-0.8-1.5-0.3-0.9-0.3-2v-0.6q0-1.1 0.3-2 0.3-0.9 0.8-1.5 0.5-0.7 1.3-1 0.7-0.3 1.6-0.3 0.9 0 1.6 0.3 0.7 0.3 1.3 1 0.5 0.6 0.8 1.5 0.3 0.9 0.3 2zm-1.3 0.6v-0.6q0-0.9-0.2-1.6-0.2-0.7-0.5-1.1-0.4-0.5-0.9-0.7-0.5-0.3-1.1-0.3-0.6 0-1.1 0.3-0.5 0.2-0.9 0.7-0.3 0.4-0.5 1.1-0.2 0.7-0.2 1.6v0.6q0 0.9 0.2 1.6 0.2 0.7 0.5 1.2 0.4 0.4 0.9 0.7 0.5 0.2 1.1 0.2 0.6 0 1.1-0.2 0.5-0.3 0.9-0.7 0.3-0.5 0.5-1.2 0.2-0.7 0.2-1.6zm10.9-5.3v10h-1.3l-5-7.7v7.7h-1.3v-10h1.3l5 7.7v-7.7zm4 0l3.3 8.1 3.3-8.1h1.6v10h-1.3v-3.9l0.2-4.2-3.3 8.1h-1l-3.3-8.1 0.2 4.2v3.9h-1.4v-10zm16.9 8.9v1.1h-6.3v-10h6.2v1.1h-4.9v3.2h4.3v1.1h-4.3v3.5zm9.3-8.9v10h-1.3l-5.1-7.7v7.7h-1.3v-10h1.3l5.1 7.7v-7.7zm5.8 10h-1.3v-8.9h-3.2v-1.1h7.7v1.1h-3.2z"/>
	<path class="s0" d="m183 388h58c9.9 0 18 8.1 18 18 0 9.9-8.1 18-18 18h-58c-9.9 0-18-8.1-18-18 0-9.9 8.1-18 18-18z"/>
	<path class="s8" d="m184.8 408l1.9-7h1l-0.5 2.7-2.2 7.3h-0.9zm-2.1-6.9l1.6 6.8 0.5 3.1h-1l-2.4-9.9zm7.6 6.8l1.5-6.8h1.3l-2.4 9.9h-0.9zm-2.5-6.8l2 7 0.7 3h-1l-2-7.3-0.6-2.7zm8.2 0v10h-1.4v-10zm8.5 8.9v1.1h-5v-1.1zm-4.7-8.9v10h-1.3v-10zm8.9 10h-2.1v-1.1h2.1q1 0 1.8-0.5 0.7-0.4 1-1.2 0.4-0.8 0.4-1.9v-0.6q0-0.9-0.2-1.5-0.2-0.7-0.6-1.2-0.4-0.4-1-0.7-0.6-0.2-1.3-0.2h-2.2v-1.1h2.2q1 0 1.8 0.3 0.8 0.4 1.4 1 0.6 0.6 0.9 1.4 0.3 0.9 0.3 2v0.6q0 1.1-0.3 1.9-0.3 0.9-0.9 1.5-0.6 0.6-1.5 0.9-0.8 0.4-1.8 0.4zm-1.4-10v10h-1.3v-10zm9.2 0v10h-1.3v-10zm4.1 4.5v1.1h-4.4v-1.1zm0.6-4.5v1.1h-5.1v-1.1zm3 0v10h-1.3v-10zm2.4 0h3.3q1.1 0 1.9 0.3 0.7 0.4 1.1 1.1 0.5 0.6 0.5 1.6 0 0.7-0.3 1.2-0.3 0.6-0.8 1-0.5 0.4-1.2 0.6l-0.4 0.1h-3.1v-1h2.3q0.7 0 1.2-0.3 0.5-0.2 0.7-0.7 0.2-0.4 0.2-0.9 0-0.6-0.2-1-0.2-0.4-0.7-0.7-0.5-0.2-1.2-0.2h-2v8.9h-1.3zm5.8 9.9l-2.4-4.5h1.3l2.5 4.4v0.1zm9.1-1.1v1.1h-5.2v-1.1zm-5-8.8v9.9h-1.4v-9.9zm4.3 4.2v1.1h-4.5v-1.1zm0.6-4.2v1h-5.2v-1z"/>
	<path class="s0" d="m183 185h142c9.9 0 18 8.1 18 18 0 9.9-8.1 18-18 18h-142c-9.9 0-18-8.1-18-18 0-9.9 8.1-18 18-18z"/>
	<path class="s8" d="m184.8 205l1.9-7h1l-0.5 2.7-2.2 7.3h-0.9zm-2.1-6.9l1.6 6.8 0.5 3.1h-1l-2.4-9.9zm7.6 6.8l1.5-6.8h1.3l-2.4 9.9h-0.9zm-2.5-6.8l2 7 0.7 3h-1l-2-7.3-0.6-2.7zm10.1 0.9l-3.3 9.1h-1.3l3.8-10h0.8zm2.8 9.1l-3.3-9.1v-0.9h0.8l3.9 10zm-0.2-3.7v1.1h-5.6v-1.1zm5.6-6.3v10h-1.3v-10zm3.2 0v1.1h-7.6v-1.1zm7.8 8.9v1.1h-5.3v-1.1zm-5-8.9v10h-1.3v-10zm4.3 4.3v1.1h-4.6v-1.1zm0.6-4.3v1.1h-5.2v-1.1zm1.7 0h3.3q1.1 0 1.9 0.4 0.8 0.3 1.2 1 0.4 0.6 0.4 1.6 0 0.7-0.3 1.3-0.3 0.5-0.8 0.9-0.5 0.4-1.2 0.6l-0.4 0.1h-3.1v-1h2.4q0.7 0 1.1-0.3 0.5-0.2 0.7-0.7 0.3-0.4 0.3-0.9 0-0.6-0.2-1-0.3-0.4-0.7-0.7-0.5-0.2-1.3-0.2h-2v8.9h-1.3zm5.8 9.9l-2.4-4.5h1.4l2.4 4.4v0.1zm6.7-9.9h1.3l3.3 8.1 3.2-8.1h1.3l-4 9.9h-1zm-0.4 0h1.1l0.2 6.1v3.9h-1.3zm8.7 0h1.2v9.9h-1.3v-3.8zm7.2 0.8l-3.3 9.1h-1.3l3.8-9.9h0.8zm2.8 9l-3.3-9v-0.9h0.8l3.8 9.9zm-0.1-3.7v1.1h-5.6v-1.1zm10.5-6.2v9.9h-1.3l-5-7.7v7.7h-1.4v-9.9h1.4l5 7.7v-7.7zm6.1 0.9l-3.3 9h-1.3l3.8-9.9h0.9zm2.7 9l-3.3-9v-0.9h0.9l3.8 9.9zm-0.2-3.6v1h-5.6v-1zm10.1-1.3v3.6q-0.2 0.3-0.6 0.6-0.4 0.4-1.1 0.6-0.7 0.3-1.8 0.3-0.9 0-1.7-0.3-0.7-0.4-1.3-1-0.5-0.6-0.8-1.5-0.3-0.8-0.3-2v-0.7q0-1.1 0.2-2 0.3-0.9 0.8-1.5 0.5-0.6 1.3-0.9 0.7-0.3 1.7-0.3 1.1 0 1.9 0.3 0.7 0.4 1.2 1.1 0.4 0.7 0.5 1.6h-1.3q-0.1-0.5-0.3-1-0.3-0.4-0.8-0.7-0.5-0.3-1.2-0.3-0.7 0-1.2 0.3-0.5 0.2-0.9 0.7-0.3 0.5-0.5 1.2-0.1 0.6-0.1 1.5v0.7q0 0.9 0.2 1.6 0.2 0.7 0.6 1.1 0.3 0.5 0.9 0.8 0.5 0.2 1.1 0.2 0.7 0 1.2-0.1 0.4-0.1 0.6-0.3 0.3-0.2 0.4-0.3v-2.2h-2.3v-1.1zm8.5 3.9v1h-5.2v-1zm-5-8.9v9.9h-1.4v-9.9zm4.3 4.3v1h-4.5v-1zm0.6-4.3v1.1h-5.2v-1.1zm2.1 0h1.3l3.3 8.1 3.2-8.1h1.3l-4.1 9.9h-1zm-0.4 0h1.2l0.1 6.1v3.9h-1.3zm8.8 0h1.1v9.9h-1.3v-3.8zm9.8 8.8v1.1h-5.3v-1.1zm-5-8.8v9.9h-1.3v-9.9zm4.3 4.2v1.1h-4.6v-1.1zm0.7-4.2v1h-5.2v-1zm9.3 0v9.9h-1.3l-5-7.7v7.7h-1.3v-9.9h1.3l5 7.7v-7.7zm5.8 0v9.9h-1.3v-9.9zm3.2 0v1h-7.7v-1z"/>
	<path class="s0" d="m183 84h85c9.9 0 18 8.1 18 18 0 9.9-8.1 18-18 18h-85c-9.9 0-18-8.1-18-18 0-9.9 8.1-18 18-18z"/>
	<path class="s8" d="m185.8 97.9l-3.3 9.1h-1.3l3.8-10h0.9zm2.7 9.1l-3.3-9.1v-0.8h0.9l3.8 9.9zm-0.2-3.7v1.1h-5.6v-1.1zm10.1-1.2v3.6q-0.1 0.3-0.5 0.6-0.4 0.4-1.2 0.6-0.7 0.3-1.8 0.3-0.9 0-1.7-0.4-0.7-0.3-1.3-0.9-0.5-0.6-0.8-1.5-0.3-0.9-0.3-2v-0.7q0-1.2 0.2-2 0.3-0.9 0.8-1.5 0.5-0.6 1.3-1 0.7-0.3 1.7-0.3 1.1 0 1.9 0.4 0.8 0.4 1.2 1.1 0.4 0.7 0.5 1.6h-1.3q-0.1-0.6-0.3-1-0.3-0.5-0.8-0.7-0.5-0.3-1.2-0.3-0.7 0-1.2 0.3-0.5 0.2-0.9 0.7-0.3 0.5-0.5 1.1-0.1 0.7-0.1 1.5v0.8q0 0.9 0.2 1.6 0.2 0.6 0.6 1.1 0.3 0.5 0.9 0.7 0.5 0.3 1.1 0.3 0.7 0 1.2-0.1 0.4-0.2 0.7-0.3 0.2-0.2 0.3-0.3v-2.3h-2.3v-1zm2.2-5h3.3q1.1 0 1.9 0.3 0.8 0.3 1.2 1 0.4 0.7 0.4 1.7 0 0.6-0.3 1.2-0.3 0.6-0.8 1-0.5 0.4-1.2 0.5l-0.4 0.2h-3.1v-1.1h2.3q0.8 0 1.2-0.2 0.5-0.3 0.7-0.7 0.3-0.4 0.3-0.9 0-0.6-0.2-1.1-0.3-0.4-0.8-0.6-0.4-0.3-1.2-0.3h-2v8.9h-1.3zm5.8 10l-2.4-4.5h1.4l2.4 4.4v0.1zm4.3-10v10h-1.4v-10zm8.5 6.8h1.3q-0.1 0.9-0.6 1.7-0.4 0.7-1.2 1.2-0.8 0.4-2 0.4-0.9 0-1.6-0.3-0.7-0.3-1.2-0.9-0.5-0.7-0.8-1.5-0.3-0.9-0.3-1.9v-1q0-1 0.3-1.9 0.3-0.8 0.8-1.5 0.5-0.6 1.2-0.9 0.8-0.3 1.7-0.3 1.1 0 1.9 0.4 0.8 0.4 1.2 1.2 0.5 0.7 0.6 1.7h-1.3q-0.1-0.7-0.4-1.2-0.3-0.5-0.7-0.8-0.5-0.2-1.3-0.2-0.7 0-1.2 0.2-0.5 0.3-0.8 0.7-0.3 0.5-0.5 1.1-0.2 0.7-0.2 1.5v1q0 0.7 0.2 1.4 0.1 0.6 0.4 1.1 0.4 0.5 0.8 0.8 0.5 0.2 1.2 0.2 0.8 0 1.3-0.2 0.5-0.3 0.8-0.8 0.2-0.5 0.4-1.2zm8.8-6.8h1.3v6.8q0 1.1-0.5 1.8-0.5 0.8-1.4 1.1-0.8 0.4-1.7 0.4-1.1 0-1.9-0.4-0.8-0.3-1.3-1.1-0.4-0.7-0.4-1.8v-6.8h1.3v6.8q0 0.7 0.3 1.2 0.2 0.5 0.8 0.8 0.5 0.2 1.2 0.2 0.7 0 1.2-0.2 0.5-0.3 0.8-0.8 0.3-0.5 0.3-1.2zm9.4 8.8v1.1h-5v-1.1zm-4.7-8.8v9.9h-1.3v-9.9zm8 0v9.9h-1.3v-9.9zm3.2 0v1h-7.7v-1zm7.2 0h1.3v6.7q0 1.1-0.5 1.8-0.5 0.8-1.3 1.2-0.9 0.3-1.8 0.3-1 0-1.9-0.3-0.8-0.4-1.3-1.2-0.4-0.7-0.4-1.8v-6.7h1.3v6.7q0 0.8 0.3 1.3 0.3 0.5 0.8 0.7 0.5 0.3 1.2 0.3 0.7 0 1.2-0.3 0.5-0.2 0.8-0.7 0.3-0.5 0.3-1.3zm3.3 0h3.3q1.2 0 1.9 0.3 0.8 0.4 1.2 1 0.4 0.7 0.4 1.7 0 0.7-0.3 1.2-0.2 0.6-0.7 1-0.6 0.4-1.3 0.6l-0.3 0.1h-3.1l-0.1-1.1h2.4q0.7 0 1.2-0.2 0.4-0.3 0.7-0.7 0.2-0.4 0.2-0.9 0-0.6-0.2-1-0.2-0.5-0.7-0.7-0.5-0.2-1.3-0.2h-1.9v8.8h-1.4zm5.9 10l-2.5-4.5h1.4l2.5 4.4v0.1zm9.1-1.1v1.1h-5.3v-1.1zm-5-8.9v10h-1.3v-10zm4.3 4.3v1.1h-4.6v-1.1zm0.7-4.3v1.1h-5.2v-1.1z"/>
	<path class="s9" d="m45 125.5c-4.7 0-8.5-3.8-8.5-8.5 0-4.7 3.8-8.5 8.5-8.5 4.7 0 8.5 3.8 8.5 8.5 0 4.7-3.8 8.5-8.5 8.5z"/>
	<path class="s9" d="m45 125.5c-4.7 0-8.5-3.8-8.5-8.5 0-4.7 3.8-8.5 8.5-8.5 4.7 0 8.5 3.8 8.5 8.5 0 4.7-3.8 8.5-8.5 8.5z"/>
	<path class="s10" d="m45 125.5c-4.7 0-8.5-3.8-8.5-8.5 0-4.7 3.8-8.5 8.5-8.5 4.7 0 8.5 3.8 8.5 8.5 0 4.7-3.8 8.5-8.5 8.5z"/>
	<path class="s11" d="m45 121c-2.2 0-4-1.8-4-4 0-2.2 1.8-4 4-4 2.2 0 4 1.8 4 4 0 2.2-1.8 4-4 4z"/>
	<path class="s9" d="m45 187.4c-4.7 0-8.5-3.8-8.5-8.5 0-4.7 3.8-8.5 8.5-8.5 4.7 0 8.5 3.8 8.5 8.5 0 4.7-3.8 8.5-8.5 8.5z"/>
	<path class="s9" d="m45 187.4c-4.7 0-8.5-3.8-8.5-8.5 0-4.7 3.8-8.5 8.5-8.5 4.7 0 8.5 3.8 8.5 8.5 0 4.7-3.8 8.5-8.5 8.5z"/>
	<path class="s12" d="m45 187.4c-4.7 0-8.5-3.8-8.5-8.5 0-4.7 3.8-8.5 8.5-8.5 4.7 0 8.5 3.8 8.5 8.5 0 4.7-3.8 8.5-8.5 8.5z"/>
	<path class="s13" d="m45 182.9c-2.2 0-4-1.8-4-4 0-2.2 1.8-4 4-4 2.2 0 4 1.8 4 4 0 2.2-1.8 4-4 4z"/>
	<path class="s9" d="m45 249.3c-4.7-0.1-8.5-3.8-8.5-8.6 0-4.7 3.8-8.5 8.5-8.5 4.7 0 8.5 3.8 8.5 8.5 0 4.8-3.8 8.5-8.5 8.5z"/>
	<path class="s9" d="m45 249.3c-4.7-0.1-8.5-3.8-8.5-8.6 0-4.7 3.8-8.5 8.5-8.5 4.7 0 8.5 3.8 8.5 8.5 0 4.8-3.8 8.5-8.5 8.5z"/>
	<path class="s14" d="m45 249.3c-4.7-0.1-8.5-3.8-8.5-8.6 0-4.7 3.8-8.5 8.5-8.5 4.7 0 8.5 3.8 8.5 8.5 0 4.8-3.8 8.5-8.5 8.5z"/>
	<path class="s15" d="m45 244.8c-2.2-0.1-4-1.8-4-4.1 0-2.2 1.8-4 4-4 2.2 0 4 1.8 4 4 0 2.3-1.8 4-4 4z"/>
	<path class="s9" d="m45 311.1c-4.7 0-8.5-3.8-8.5-8.5 0-4.7 3.8-8.5 8.5-8.5 4.7 0 8.5 3.8 8.5 8.5 0 4.7-3.8 8.5-8.5 8.5z"/>
	<path class="s9" d="m45 311.1c-4.7 0-8.5-3.8-8.5-8.5 0-4.7 3.8-8.5 8.5-8.5 4.7 0 8.5 3.8 8.5 8.5 0 4.7-3.8 8.5-8.5 8.5z"/>
	<path class="s16" d="m45 311.1c-4.7 0-8.5-3.8-8.5-8.5 0-4.7 3.8-8.5 8.5-8.5 4.7 0 8.5 3.8 8.5 8.5 0 4.7-3.8 8.5-8.5 8.5z"/>
	<path class="s17" d="m45 306.6c-2.2 0-4-1.8-4-4 0-2.2 1.8-4 4-4 2.2 0 4 1.8 4 4 0 2.2-1.8 4-4 4z"/>
	<path class="s9" d="m45 373c-4.7 0-8.5-3.8-8.5-8.5 0-4.7 3.8-8.5 8.5-8.5 4.7 0 8.5 3.8 8.5 8.5 0 4.7-3.8 8.5-8.5 8.5z"/>
	<path class="s9" d="m45 373c-4.7 0-8.5-3.8-8.5-8.5 0-4.7 3.8-8.5 8.5-8.5 4.7 0 8.5 3.8 8.5 8.5 0 4.7-3.8 8.5-8.5 8.5z"/>
	<path class="s18" d="m45 373c-4.7 0-8.5-3.8-8.5-8.5 0-4.7 3.8-8.5 8.5-8.5 4.7 0 8.5 3.8 8.5 8.5 0 4.7-3.8 8.5-8.5 8.5z"/>
	<path class="s19" d="m45 368.5c-2.2 0-4-1.8-4-4 0-2.2 1.8-4 4-4 2.2 0 4 1.8 4 4 0 2.2-1.8 4-4 4z"/>
	<path class="s9" d="m45 434.9c-4.7 0-8.5-3.8-8.5-8.5 0-4.7 3.8-8.5 8.5-8.5 4.7 0 8.5 3.8 8.5 8.5 0 4.7-3.8 8.5-8.5 8.5z"/>
	<path class="s9" d="m45 434.9c-4.7 0-8.5-3.8-8.5-8.5 0-4.7 3.8-8.5 8.5-8.5 4.7 0 8.5 3.8 8.5 8.5 0 4.7-3.8 8.5-8.5 8.5z"/>
	<path class="s20" d="m45 434.9c-4.7 0-8.5-3.8-8.5-8.5 0-4.7 3.8-8.5 8.5-8.5 4.7 0 8.5 3.8 8.5 8.5 0 4.7-3.8 8.5-8.5 8.5z"/>
	<path class="s21" d="m45 430.4c-2.2 0-4-1.8-4-4 0-2.2 1.8-4 4-4 2.2 0 4 1.8 4 4 0 2.2-1.8 4-4 4z"/>
	<path class="s9" d="m45 496.8c-4.7-0.1-8.5-3.8-8.5-8.6 0-4.7 3.8-8.5 8.5-8.5 4.7 0 8.5 3.8 8.5 8.5 0 4.8-3.8 8.5-8.5 8.5z"/>
	<path class="s9" d="m45 496.8c-4.7-0.1-8.5-3.8-8.5-8.6 0-4.7 3.8-8.5 8.5-8.5 4.7 0 8.5 3.8 8.5 8.5 0 4.8-3.8 8.5-8.5 8.5z"/>
	<path class="s22" d="m45 496.8c-4.7-0.1-8.5-3.8-8.5-8.6 0-4.7 3.8-8.5 8.5-8.5 4.7 0 8.5 3.8 8.5 8.5 0 4.8-3.8 8.5-8.5 8.5z"/>
	<path class="s23" d="m45 492.3c-2.2-0.1-4-1.8-4-4.1 0-2.2 1.8-4 4-4 2.2 0 4 1.8 4 4 0 2.3-1.8 4-4 4z"/>
	<path class="s9" d="m45 558.6c-4.7 0-8.5-3.8-8.5-8.5 0-4.7 3.8-8.5 8.5-8.5 4.7 0 8.5 3.8 8.5 8.5 0 4.7-3.8 8.5-8.5 8.5z"/>
	<path class="s9" d="m45 558.6c-4.7 0-8.5-3.8-8.5-8.5 0-4.7 3.8-8.5 8.5-8.5 4.7 0 8.5 3.8 8.5 8.5 0 4.7-3.8 8.5-8.5 8.5z"/>
	<path class="s24" d="m45 558.6c-4.7 0-8.5-3.8-8.5-8.5 0-4.7 3.8-8.5 8.5-8.5 4.7 0 8.5 3.8 8.5 8.5 0 4.7-3.8 8.5-8.5 8.5z"/>
	<path class="s25" d="m45 554.1c-2.2 0-4-1.8-4-4 0-2.2 1.8-4 4-4 2.2 0 4 1.8 4 4 0 2.2-1.8 4-4 4z"/>
	<path class="s9" d="m45 620.5c-4.7 0-8.5-3.8-8.5-8.5 0-4.7 3.8-8.5 8.5-8.5 4.7 0 8.5 3.8 8.5 8.5 0 4.7-3.8 8.5-8.5 8.5z"/>
	<path class="s9" d="m45 620.5c-4.7 0-8.5-3.8-8.5-8.5 0-4.7 3.8-8.5 8.5-8.5 4.7 0 8.5 3.8 8.5 8.5 0 4.7-3.8 8.5-8.5 8.5z"/>
	<path class="s26" d="m45 620.5c-4.7 0-8.5-3.8-8.5-8.5 0-4.7 3.8-8.5 8.5-8.5 4.7 0 8.5 3.8 8.5 8.5 0 4.7-3.8 8.5-8.5 8.5z"/>
	<path class="s0" d="m45 616c-2.2 0-4-1.8-4-4 0-2.2 1.8-4 4-4 2.2 0 4 1.8 4 4 0 2.2-1.8 4-4 4z"/>
</svg>