<svg width="20" height="20" viewBox="0 0 20 20" fill="none" xmlns="http://www.w3.org/2000/svg">
<path fill-rule="evenodd" clip-rule="evenodd" d="M10.8081 3.30855C11.0521 3.06447 11.4479 3.06447 11.6919 3.30855L17.9419 9.55855C18.0591 9.67576 18.125 9.83473 18.125 10.0005C18.125 10.1662 18.0591 10.3252 17.9419 10.4424L11.6919 16.6924C11.4479 16.9365 11.0521 16.9365 10.8081 16.6924C10.564 16.4484 10.564 16.0526 10.8081 15.8085L15.9911 10.6255H2.5C2.15482 10.6255 1.875 10.3457 1.875 10.0005C1.875 9.65531 2.15482 9.37549 2.5 9.37549H15.9911L10.8081 4.19243C10.564 3.94835 10.564 3.55262 10.8081 3.30855Z" fill="white"/>
</svg>
