<svg width="18" height="20" viewBox="0 0 18 20" fill="none" xmlns="http://www.w3.org/2000/svg">
<path fill-rule="evenodd" clip-rule="evenodd" d="M17.0303 10.9697C17.3232 11.2626 17.3232 11.7374 17.0303 12.0303L9.53033 19.5303C9.38968 19.671 9.19891 19.75 9 19.75C8.80109 19.75 8.61032 19.671 8.46967 19.5303L0.969669 12.0303C0.676776 11.7374 0.676776 11.2626 0.969669 10.9697C1.26256 10.6768 1.73744 10.6768 2.03033 10.9697L8.25 17.1893L8.25 1C8.25 0.585786 8.58579 0.25 9 0.25C9.41421 0.25 9.75 0.585786 9.75 1L9.75 17.1893L15.9697 10.9697C16.2626 10.6768 16.7374 10.6768 17.0303 10.9697Z" fill="currentColor"/>
</svg>
