<svg width="14" height="10" viewBox="0 0 14 10" fill="none" xmlns="http://www.w3.org/2000/svg">
<path fill-rule="evenodd" clip-rule="evenodd" d="M1 1.5C1 1.22386 1.22386 1 1.5 1H12.5C12.7761 1 13 1.22386 13 1.5C13 1.77614 12.7761 2 12.5 2H1.5C1.22386 2 1 1.77614 1 1.5ZM1 5C1 4.72386 1.22386 4.5 1.5 4.5H12.5C12.7761 4.5 13 4.72386 13 5C13 5.27614 12.7761 5.5 12.5 5.5H1.5C1.22386 5.5 1 5.27614 1 5ZM1 8.5C1 8.22386 1.22386 8 1.5 8H12.5C12.7761 8 13 8.22386 13 8.5C13 8.77614 12.7761 9 12.5 9H1.5C1.22386 9 1 8.77614 1 8.5Z" fill="#A9EA98" stroke="#A9EA98" stroke-linecap="round" stroke-linejoin="round"/>
</svg>
