<?xml version="1.0" encoding="UTF-8"?><svg id="Layer_4" xmlns="http://www.w3.org/2000/svg" viewBox="0 0 635.2 793.86"><defs><style>.cls-1{fill:#fff;stroke-width:0px;}</style></defs><path class="cls-1" d="M455.15,501.43c-91.98,1.04-214.65,2.14-306.17,2.82-36.54-.04-74.85-.65-111.34-1.75-9.28-.36-18.56-.61-27.83-1.07-.17,0-.29-.15-.29-.31,0-.16.13-.28.29-.29,9.28-.46,18.56-.71,27.83-1.07,36.47-1.11,74.81-1.72,111.34-1.75,50.35.3,143.64,1.3,194.84,1.62,0,0,111.33,1.2,111.33,1.2.17,0,.3.14.3.3,0,.16-.13.29-.3.3h0Z"/><path class="cls-1" d="M9.86,18.15c155.5,26.94,400.38,70.28,557.66,97.85,1.51.27,2.57,1.58,2.56,3.07,0,0-.18,80.79-.18,80.79-.48,46.42-.58,115.7-1.36,161.58-.13,13.47-.35,26.93-.57,40.39-.21,13.46-.42,26.93-.71,40.39,0,.17-.14.3-.31.29-.16,0-.29-.13-.29-.29-.29-13.46-.5-26.93-.71-40.39-.22-13.46-.44-26.93-.57-40.39-.92-74.2-1.51-167.82-1.54-242.37,0,0,2.56,3.07,2.56,3.07C409.54,92.64,162.96,48.44,9.86,18.15h0Z"/><path class="cls-1" d="M387.18,784.7c7.58-4,15.36-7.55,23.19-11,0,0,2.92-1.29,2.92-1.29,2.83-1.31,5.19-3.42,7.23-5.77,8.1-9.83,12.21-22.26,15.86-34.32,4.84-16.4,7.22-33.26,9.76-50.15,2.23-12.74,5.56-25.35,10.48-37.36,2.13-5.03,4.36-10.16,7.63-14.68,2.12-2.69,4.68-4.81,7.16-7.04,6.4-5.61,13.2-10.92,19.42-16.62,5.85-5.16,8.15-13.48,7.22-21.1-.44-3.87-1.81-8.04-3.14-11.59-.33-.85-.8-1.64-.94-1.74-1.56-.17-4.05.04-5.91-.16-6.48.03-10.08-6.34-12.19-11.43-3.38-8.36-5.02-16.85-7.37-24.86-1.68-4.85-3.26-9.82-.23-14.58,1.07-1.86,2.17-3.18,2.72-5.05,1.56-5.77-2.36-11.74-2.99-17.49-1.82-11.06.52-23.33,8.23-31.77,7.48-6.9,17.98-13.19,18.41-24.47,0-.17.14-.3.31-.3.15,0,.28.12.29.27.44,4.41-1.17,8.81-3.54,12.48-3.44,5.58-8.51,9.64-12.97,14.25-3.82,4.67-5.85,10.65-6.5,16.62-.63,6.02.17,12.16,2.26,17.83,1.71,4.52,3.17,9.11,1.86,14.1-.78,3.86-4.64,6.69-3.86,10.66,1.81,5.95,3.77,12.17,5.3,18.11,1.13,4.07,2.31,8.1,3.84,11.81,1.09,2.57,2.23,5.12,4.18,6.87.8.65,1.15.74,2.02.84,1.86.23,3.33.18,5.34.2,6.66-.28,7.72,7.22,9.19,12.04,1.84,6.69,1.98,13.96-.41,20.57-1.56,4.41-4.1,8.57-7.73,11.59-6.5,5.72-13.3,10.81-19.84,16.36-3.11,2.68-6.27,5.17-8.34,8.72-4.26,7.12-7.46,15.07-10.13,22.98-4.11,12.06-6.63,24.53-8.49,37.15-2.08,12.72-4.91,25.31-8.74,37.62-4.43,13.33-11.54,34.21-24.85,40.57-8.87,3.64-17.77,7.39-26.35,11.66-.15.08-.34.02-.41-.13-.07-.15-.01-.32.13-.4h0Z"/><path class="cls-1" d="M622.96,658.26c-.16-31.13-18.54-51.75-45.28-64.98-4.65-2.54-11.08-5.18-15.32-8.38-2.33-1.95-4.47-3.98-6.43-6.32-5.8-6.8-8.19-16.11-10.55-24.26-.38-1.33.19-2.7,1.3-3.39.55-.34,1.24-.8,1.87-1.28,1.81-1.37,3.53-2.88,5.12-4.52,11.46-11.47,14.16-27.59,9.83-42.98-1.64-6.18-4.12-12.21-7.01-18.09-.07-.15-.01-.33.14-.4.13-.07.29-.02.38.09,7.9,10.74,13.69,23.67,13.24,37.39-.35,14.05-8.39,27.64-20.33,35.04,0,0,1.43-3.47,1.43-3.47,2.99,11.73,4.53,20.33,14.05,28.5,3.61,2.9,10.2,6,14.28,8.39,15.02,8.32,29.43,19.52,37.11,35.26,5.19,10.3,7.23,21.95,6.78,33.39,0,.17-.14.3-.31.29-.16,0-.29-.14-.29-.3h0Z"/><path class="cls-1" d="M12.49,724.58c55.13-6.24,166.07-18.47,221.2-24.57,0,0-1.69,1.87-1.69,1.87,0,0-1.13-177.95-1.13-177.95,0,0,3.01,3.01,3.01,3.01-13.99.12-42.04.09-56.02.02-46.34-.22-93.76-.79-140.05-1.95-36.89-.77-38.49-1.37,0-2.17,46.28-1.17,93.72-1.73,140.05-1.95,13.93-.06,42.08-.09,56.02.02,1.66-.01,3.02,1.34,3.01,3.01,0,.03-1.14,177.95-1.13,177.98,0,.96-.75,1.75-1.69,1.85-54.66,4.73-168.69,17.54-221.59,20.83h0Z"/><path class="cls-1" d="M431.86,682.03c-44.48,4.46-133.98,13.53-178.45,17.92-1.01.11-1.91-.71-1.9-1.73,0,0-.55-87.14-.55-87.14,0,0-.67-87.14-.67-87.14-.01-1.62,1.29-2.95,2.91-2.97,16.82-.42,33.65-.88,50.47-1.1,41.36-.68,84.83-.92,126.23-.57,33.34.17,34.8.68.04,2.24-41.36,2.01-84.79,3.48-126.15,4.45-16.82.45-33.65.67-50.48.91,0,0,2.91-2.97,2.91-2.97-.33,43.43-1,130.86-1.23,174.29,0,0-1.9-1.73-1.9-1.73,44.54-3.83,134.18-11.31,178.72-15.05.16-.01.31.11.32.27.01.16-.11.31-.27.32h0Z"/><path class="cls-1" d="M55.9,99.69c-4.24.02-8.46-.1-12.7-.15-.8,0-1.34-.7-1.31-1.46,0,0-.51-6.71-.51-6.71l-.42-6.71c-.29-4.64-1.1-9.3-.51-13.96.14-1.57,1.63-2.69,3.18-2.41,4.22.78,8.45,1.86,12.34,3.78,1.04.82-2.84,1.17-3.29,1.35-3.16.56-6.39.78-9.58.77,0,0,3.23-2.95,3.23-2.95.5,4.48-.29,8.95-.56,13.42,0,0-.42,6.71-.42,6.71l-.51,6.71-1.31-1.46c4.15.83,8.31,1.57,12.46,2.47.34.06.29.61-.06.6h0Z"/><path class="cls-1" d="M54.6,85.61c-1.39.58-2.9,1.02-4.34,1.41-.88.17-2.05.43-2.88.79-1.86.52-3.28-1.43-4.05-2.95-.09-.2-.06-.42.04-.6.72-1.12,1.78-2.14,3-2.51,1.01-.37,1.88.49,2.78.79.7.23,2.08.78,2.76,1.09.91.43,1.83.85,2.74,1.39.24.13.21.5-.04.6h0Z"/><path class="cls-1" d="M60.52,100.51c-.57-9.13-1.05-18.27-1.47-27.41-.04-.96.71-1.78,1.67-1.82.71-.03,1.3.36,1.63.93,2.96,4.56,5.82,9.17,8.73,13.75,2.88,4.6,6.08,9.02,8.77,13.73l-5.82,1.56c.14-8.82.88-17.65,2.82-26.28.06-.3.54-.31.6,0,1.51,6.49,2.17,13.09,2.6,19.71.13,2.19.22,4.38.22,6.57,0,1.72-1.4,3.12-3.13,3.11-1.15,0-2.15-.62-2.69-1.55-2.76-4.67-5-9.64-7.56-14.43-2.53-4.8-5.11-9.58-7.6-14.41l3.3-.89c-.42,9.14-.9,18.27-1.47,27.41-.01.36-.59.37-.6,0h0Z"/><path class="cls-1" d="M94.96,91.69c-1.21.59-2.52,1.03-3.78,1.44-.78.18-1.79.44-2.51.8-1.28.47-2.27-.79-2.94-1.81-.19-.48-.78-1.11-.49-1.71.77-1.28,2.25-3.19,3.85-2.41.66.46,1.63.86,2.37,1.14,1.19.58,2.42,1.19,3.54,1.95.22.14.19.49-.04.6h0Z"/><path class="cls-1" d="M96.45,78.62c-3.8.01-7.59-.11-11.39-.17l1.56-1.39c.4,4.47.72,8.95,1,13.42.3,4.47,1.11,8.94.5,13.42,0,0-2.47-2.87-2.47-2.87,3.76.98,7.5,2.26,10.88,4.26.24.14.18.53-.09.59-3.82.93-7.77,1.05-11.65.88-1.26-.06-2.26-1.03-2.4-2.24-.71-4.69.1-9.37.43-14.05.27-4.47.6-8.95,1-13.42-.04-.85.7-1.59,1.56-1.39,3.71.79,7.43,1.5,11.14,2.36.34.08.28.6-.07.6h0Z"/><path class="cls-1" d="M102.09,106.47c-.66-9.1-1.19-18.2-1.67-27.31-.06-1.03.73-1.91,1.76-1.96,5.68-.11,12.94,1.4,14.91,7.73,1.05,3.96.1,8.53-3.32,11.11-2.25,1.61-4.83,2.02-7.42,1.76.16,0,.31,0,.48-.04,1.87-.3,2.49-2.91.9-3.96.02.02.15.13.17.15,2.75,2.3,5.45,4.88,6.73,8.39.79,2.09.92,4.39.38,6.39-.07.3-.53.3-.6,0-1.32-4.97-5.32-7.64-9.48-10.03-.95-.49-1.7-1.33-1.93-2.41-.48-1.93.91-4,2.86-4.31,1.36-.07,3.17-.16,4.24-.98.94-.65,1.37-1.69,1.68-2.91,1.34-5.17-5.48-6.57-9.38-6.96,0,0,1.97-1.97,1.97-1.97-.48,9.11-1.01,18.21-1.67,27.31-.02.36-.58.36-.6,0h0Z"/><path class="cls-1" d="M135.93,84.72c-8.31-1.93-14.28,1.12-13.52,10.39.23,6.23,3.23,10.73,9.5,11.69.19.05.34.05.52.08-.07.04.15,0,.15.01.25-.02.63-.03.85-.08.32-.04.45-.11.42-.01-.02.09,0,.37.1.13.15-1.29.32-2.58.53-3.87.11-.84.23-.79.24-1.11.03-.37-.2-.82-.56-1.07-1.02-.58-2.02-1.17-2.99-1.86-.14-.1-.18-.3-.07-.44.72-.36,2.38-.09,3.26-.13,1.95-.08,3.78,1.48,4.17,3.43,0,0,.2,1.18.2,1.18.3,2.59,1.32,5.2-.64,7.55-1.55,1.73-3.18,2.17-5.18,2.45-.25.01-.67.03-.92.01-5.53-.3-10.44-4.37-12.34-9.45-2.91-7.64-1.25-20.27,8.63-20.95,2.79-.2,5.43.44,7.86,1.48.34.15.14.67-.21.56h0Z"/><path class="cls-1" d="M142.36,84.42c3.55,4.45,6.78,9.08,10,13.76.25.3.24.86.31,1.21.78,3.62.77,7.28-.53,10.8-.43,1.2-.92,2.4-1.72,3.6-.11.17-.33.21-.5.1-2.88-4.31-3.44-9.57-2.35-14.51,0,0,.31,1.21.31,1.21-2.15-5.26-4.27-10.49-6.05-15.9-.11-.31.33-.55.53-.29h0Z"/><path class="cls-1" d="M158.12,86.07c-.34,1.95-.9,4-1.43,5.9-.39,1.13-.89,2.68-1.09,3.85-.66,2.28-2.87,3.33-5.22,3.72-.23.03-.43-.1-.52-.3-.43-.99-.55-1.81-.61-2.59-.05-1.43.14-2.8,1.2-3.79.5-.46,1.03-.9,1.46-1.4.65-.75,2.01-2.22,2.72-2.92.96-.94,1.92-1.88,2.98-2.77.22-.19.58.02.52.3h0Z"/><path class="cls-1" d="M53.35,110.28c-4.95-.28-12.91.63-8.3,7.33,1.49,2.05,4.28,3.26,6.74,4.35,1.71.78,4.02,1.94,4.92,4.19,1.53,4.07-1.65,8.17-5.28,9.61-2.52.94-5.21.6-7.46-.55-.45-.16-3.73-2.33-2.51-2.65,3.71.28,8.27-.28,9.42-4.36,0-.06.03.07.09.14.06.07.07-.04-.07-.23-.89-1.19-2.94-2.32-4.33-3.34-2.77-1.79-5.7-5-6.04-8.63-1.15-7.84,7.5-8.21,12.93-6.47.35.1.24.63-.11.59h0Z"/><path class="cls-1" d="M69.56,112.83c-3.51.11-7.01.08-10.52.11l1.53-1.4c.64,6.2.89,12.4,1.6,18.58.18,2.06.15,4.13-.11,6.19l-2.55-2.88c3.49.84,6.98,1.99,10.1,3.85.89.82-2.35,1.08-2.8,1.26-2.64.49-5.35.68-8.01.65-1.27-.01-2.32-.97-2.47-2.2-.73-4.36.08-8.72.42-13.07.28-4.13.6-8.26,1-12.39-.03-.84.67-1.58,1.53-1.4,3.44.69,6.88,1.32,10.31,2.08.34.07.29.59-.06.6h0Z"/><path class="cls-1" d="M68.29,124.86c-1.16.56-2.4.97-3.6,1.34-.74.16-1.7.4-2.38.74-1.65.5-2.67-1.67-3.17-3-.17-.64.48-1.15.74-1.6.76-.87,1.89-1.99,3.02-1.31.6.47,1.5.89,2.19,1.2,1.1.61,2.24,1.25,3.26,2.03.21.15.17.49-.06.6h0Z"/><path class="cls-1" d="M90.09,115.08c-5.75.81-13,3.66-12.32,10.4.23,2.83,1.5,5.34,2.79,7.69,1.26,2.17,3.33,4.19,6.51,5.97.23.12.22.49-.02.59-1.79.83-3.87.86-5.84.37-4.03-.93-7.51-4.72-8.09-8.82-.51-4.06-.5-8.2,1.81-11.71,3.46-4.82,9.76-5.73,15.18-5.08.35.05.33.58-.02.6h0Z"/><path class="cls-1" d="M96.78,115.63c.63,7,1.14,14.01,1.59,21.02.16,1.87,1.43,3.45,3.61,3.32,2.16.08,4.2-1.28,4.81-3.35,0-.01.01-.04-.01.03l-.15.95c-.18-5.17.4-10.34,1.42-15.42.34-1.71.78-3.43,1.37-5.14.08-.28.52-.28.6,0,2.12,6.71,2.97,13.75,2.77,20.76-.43,2.56-2.62,4.66-4.82,5.85-5.73,2.91-13.69.32-13.38-6.95.45-7.03.97-14.05,1.59-21.07.03-.35.57-.36.6,0h0Z"/><path class="cls-1" d="M116.03,145.05c-.66-8.6-1.23-18.17-1.69-26.84,0-1.2,1.27-2.3,2.36-2.22,7.8-.44,15.05,3.82,13.73,12.6-.75,5.15-6.04,7.92-10.77,7.71,2.35-.14,3.34-3.61.83-4.8,3.17,1.55,7.07,4.73,8.22,8.64.5,1.65.55,3.38.1,4.91-.08.29-.52.29-.6,0-1.4-4.67-5.2-6.73-9.32-8.17-1.36-.3-2.49-1.39-2.61-2.82-.25-1.71,1.27-3.46,2.92-3.52.1,0,.22-.03.32-.04,2.17-.36,4.45-1.07,5.1-3.19,1.6-5.07-3.17-6.87-7.43-7.24,0,0-.49-.03-.49-.03-.16,0,.24,0,.42-.07.22-.07.43-.18.61-.33.35-.3.56-.74.57-1.17l-.49,8.78c-.4,5.94-.72,11.87-1.2,17.81-.02.35-.58.36-.6,0h0Z"/><path class="cls-1" d="M135.07,120.41c.68,3.13,1.22,6.6,1.7,9.77.22,1.94.56,4.62.98,6.51.53,3.48-.56,6.88-2.67,9.77-.77.84-2.22-2.84-2.42-3.26-.79-2.12-1.26-4.29-.85-6.51.2-1.09.44-2.17.57-3.26.18-1.63.63-4.9.9-6.51.37-2.17.73-4.34,1.2-6.51.06-.31.54-.32.6,0h0Z"/><path class="cls-1" d="M141.41,122.51c1.55-.57,3.24-1,4.84-1.37.98-.17,2.28-.41,3.22-.76,1.99-.51,3.64,1.36,4.55,2.98.1.2.07.43-.04.6-.51.7-1.04,1.25-1.7,1.7-1.01.69-2.08,1.15-3.21.65-.51-.24-1.02-.51-1.54-.67-.78-.24-2.33-.79-3.09-1.11-1.03-.44-2.05-.86-3.07-1.41-.25-.12-.22-.51.04-.6h0Z"/><path class="cls-1" d="M147.39,147.44c-.89-3.89-1.6-8.15-2.1-12.11-.13-1.01-.37-2.02-.57-3.03-.41-2.08.06-4.09.85-6.05.44-1.01.96-2.02,1.82-3.03.14-.17.39-.18.56-.04,1.57,1.85,2.32,3.87,2.74,6.1.43,2.04-.35,4.05-.6,6.05-.18,1.51-.63,4.55-.9,6.05-.37,2.02-.73,4.04-1.2,6.05-.06.31-.54.31-.6,0h0Z"/><path class="cls-1" d="M157.54,123c3.04,3.29,6.13,7.04,8.87,10.58,0,0-4.09-.13-4.09-.13.52-.97.93-2.01,1.4-3.01.97-2.05,2.62-3.56,4.47-4.87.98-.65,2.02-1.26,3.34-1.67.2-.06.41.05.48.25.16,2.56-.52,4.8-1.51,7-.88,2.08-2.71,3.45-4.17,5.08-.82,1.19-2.38,1.64-3.53.63-.57-.38-1.63-3.29-1.96-3.9,0,0-1.33-3.18-1.33-3.18-.86-2.14-1.72-4.27-2.47-6.47-.11-.3.3-.55.51-.31h0Z"/><path class="cls-1" d="M164.05,148.06c-.68-1.58-1.22-3.32-1.71-4.95-.23-1.01-.57-2.35-.98-3.3-.64-2.01,1.07-3.87,2.66-4.96.19-.11.42-.11.6,0,.73.48,1.32,1,1.81,1.65.76,1.01,1.29,2.1.87,3.3-.2.55-.44,1.1-.57,1.65-.18.83-.63,2.49-.89,3.31-.37,1.1-.72,2.2-1.19,3.31-.1.26-.5.26-.6,0h0Z"/><path class="cls-1" d="M338.75,111.98c-7.85,2.86-15.68,6.14-22.79,10.55-2.58,1.67-5.2,3.49-7.02,5.97-1.41,1.76-1.32,3.44-1.04,5.62,0,0,.26,3.15.26,3.15.8,10.45,1.52,21.05,2.71,31.41.4,3.06.73,6.22,1.55,9.17.29,1.02.58,1.35,1.48,1.83,5.68,2.59,16.38,3.55,21.87.21,5.54-5.04,9.39-4.78,11.66,3.15,2.01,8.23,5.66,15.72,8.37,23.76.74,2.61,2.08,5.4,1.38,8.21-.08.37-.55.94-.86,1.19-3.04,2.37-6.42,3.86-10.17,4.89-.98.23-1.93.38-3.02.17-.65-.1-1.25-.54-1.64-1.13,0,.05.04.1.09.12.04.03.07.08.12.07-.58-.08-.98.12-2.02.01-1.85-.15-2.54-1.99-2.22-3.59.69-3.4,2.53-6.63,3.35-9.84.42-1.45.16-2.41-.28-3.76-.6-2.23-2.18-4.05-3.93-5.48,0,0,.57.27.57.27-2.17-.5-5.17-1.14-7.19-.41.02-.02.04-.05.05-.08,0,0-.25.66-.25.66-.61,1.55-2.47,2.54-3.46,3.27-.16.13-.05.09-.03-.04.02-.03.02-.07.01-.1,0-.03.02-.02.01-.03-.02-.04.01.03.03.08,0,.04.06.14.12.23,0,0,.23.41.23.41,0,0,.35.66.35.66.11.22.15.41.23.62.1.31.28.86.33,1.18.9,4.63.58,9.26.25,13.91,0,0,0-.41,0-.41,0,0,1.96,15.06,1.96,15.06.04.28.01.55-.07.81,0,0-1.74,5.7-1.74,5.7-.19.61-.65,1.06-1.22,1.26-5.55,1.88-11.75,4.52-17.49,5.5-.24.05-.56.07-.82.1,0,0-.14.01-.14.01,0,0,.04,0,.05.01.06,0,.12-.01.17-.05-.04.05-.06.04-.12.08-2.05,1.7-3.5,4.36-5.02,6.7-1.95,2.41-3.91,4.88-5.44,7.53-.56,1-.82,1.82-1.55,2.81-.72,1.14-2.23,1.48-3.25,1.98-2.96,1.69-6.26,4.48-9.02,6.62-.72.59-1.4,1.09-1.99,1.73-2.69,2.86-5.49,6.36-8.03,9.45-.49.6-1.54,1.95-2.04,2.39-2.28,2.21-4.51,4.19-7.7,5.67-2.73,1.35-6.49,1.17-8.38-1.59-.75-1.03-1.48-2.21-2.09-3.29-.45-.73-.69-1.28-1.17-1.73-2.05.08-4.93,1.25-6.77,2.57-2.91,2.09-4.49,5.32-6.03,8.68-.09.17-.24.42-.33.58.14-.14.17-.35.22-.54.01-.05.02-.11.01-.16-.02-.1.02-.04,0-.06.92,2.26,3.28,4.4,4.68,6.52,1.64,2.72,1.17,6.17,2.47,8.48,1.75,1.87,2.91,4.32,3.96,6.56,1.14,2.7,2.52,5.3,3.26,8.12.15,2.6.27,5.45.33,8.06.22,4.79-1.75,9.23-3.08,13.71-.62,1.54-2.17,2.31-3.37,3.34-1.26.84-1.96,1.47-3.75,1.92-2.31.48-4.15-.47-6.15-.19-.69.07-.61.19-2.37.78-2.47.7-4.71.63-7.11.4-.83-.08-1.7-.21-2.52-.42,0,0-.73-.17-.73-.17,0,0-11.7-2.72-11.7-2.72-1.69-.35-4.12-1.13-5.78-1.59,0,0-5.76-1.66-5.76-1.66l1.98-.09-11.1,4.31.72-.4c-.86.65-1.88,1.53-2.33,2.12.34-.62.24-1.57-.14-2.22,0,0-.08-.13-.08-.13.13.22.25.46.36.7.28.73.48,1.47.66,2.21.61,2.75,1.27,5.32,1.6,8.03-.21,4.69-.13,9.3-1.15,13.96-.67,4.07-1.18,8.36-3.26,12.24-1.03,1.79-2.66,3.5-3.93,5.02-.91,1.11-1.77,2.06-2.24,3.07,0,.02.02-.04,0-.06.06-.32-.13-.84-.33-1.08-.04-.13-.54-.49.02.02,1.78,1.97,1.73,4.18,1.89,6.55,0,0,.09,3.93.09,3.93.16,1.89-.07,3.01.79,4.57,1.4,2.73,3.19,5.34,4.97,7.9,0,0-.15-.19-.15-.19.56.59,1.55,1.44,2.31,1.74.7.3.96.21,1.48-.1,1.14-.68,2.62-.85,3.73-.69,1.82.29,3.3,1.03,4.72,2,.79.66,1.9,1.2,2.41,2.2,0,0,4.12,9.06,4.12,9.06.17.34.23.73.2,1.09,0,.01-.83,9.43-.82,9.45-.05.52-.28.98-.64,1.31-.97.9-1.98,2.01-2.72,3.09-.5.73-.88,1.39-1.05,2.16-.97,4.33-5.7,6.06-9.32,7.52-3.63,1.18-7.24,6.58-11.43,4.33-.34-.18-.33-.22-.71-.07-.36.14-.87.59-1.36,1.09,0,0-.81.84-.81.84-2.31,2.01-4.81,4.24-6.48,6.88-1.03,1.44-2.48,2.68-3.18,3.98-.72,1.31-1.07,2.82-1.75,4.13-1.52,3.19-3.16,6.21-4.95,9.22-1.64,2.23-3.77,4-5.9,5.72,0,0,.13-.16.13-.16l-4.46,7.47c-.08.14-.27.19-.41.1-.14-.08-.18-.26-.11-.4l4.01-7.72c1.65-1.6,3.44-3.15,4.86-4.98,2.05-3.11,3.5-6.7,5-10.07.65-1.44.92-2.99,1.64-4.39.88-1.77,2.17-2.88,3.05-4.24,1.56-2.67,3.49-4.76,5.76-6.91,1.05-.72,1.7-2.2,3.67-3.29,1-.61,2.7-.49,3.64.17,0,0,.1.06.1.06.02,0,.01,0,.02,0,0,0,.02,0,.02,0,0,0,.01,0,.02.02.04-.02.06,0,.12,0,.08-.03.15-.02.25-.04,2.74-.94,5.19-4,8.1-5,2.26-.99,5.88-2.45,6.73-4.74.52-3.16,2.66-5.54,4.76-7.75,0,0-.64,1.34-.64,1.34,0,0,.5-9.43.5-9.43,0,0,.2,1.09.2,1.09,0,0-4.38-8.94-4.38-8.94,0,0,.53.72.53.72-1.08-.9-2.64-1.96-4.03-2.14-.41-.06-.52.05-.71.12-3.46,2.31-7.75.11-10.14-2.68-2.42-3.52-5.12-6.66-6.56-10.84-.4-1.7-.45-3.06-.52-4.43l-.14-3.87c-.09-1-.1-2.09-.41-2.98-.02-.03-.08-.09.17.2.35.27-.37-.33-.64-.7-2.9-4.13,2.99-8.81,5.06-11.85,2.1-2.74,2.38-6.11,2.99-9.65.2-1.17.3-2.56.59-3.69.53-3.68.48-7.69.64-11.46,0,0,.05.63.05.63-.55-2.77-1.07-5.53-1.82-8.17,0,0-.06-.18-.06-.18.03.07.07.15.11.21,0,0,.02.02.02.02-.13-.18-.21-.41-.3-.62-.63-1.54.06-3.24,1.07-4.39,1.34-1.45,2.35-2.46,3.87-3.34-.01.02,11.14-4.41,11.16-4.4.66-.26,1.35-.28,1.98-.09,3.8,1.05,7.58,2.2,11.4,3.17,0,0,11.48,2.77,11.48,2.77,1.63.43,3.48.68,5.14.63,2.06.11,3.51-1.04,5.47-1.24,1.96-.23,3.43.06,5.14.28.37.05.66.03.56.04-.16.06.2-.07.47-.24,1.04-.61,2.13-1.5,3.04-2.3,0,0-.81,1.24-.81,1.24.99-3.03,2.22-6.43,2.85-9.5.09-.42.06-1.71.07-2.23-.02-2.52-.11-5.26-.21-7.76,0,0,.17.85.17.85-1.57-3.95-3.01-8.27-5.39-11.74-2.57-2.5-2.43-6.82-3.26-9.58-.05-.12-.07-.2-.13-.28-1.38-1.88-2.89-3.5-4.15-5.62-.89-1.4-1.76-3.94-.64-5.64.07-.14.19-.33.26-.47,1.68-3.71,4.07-7.77,7.6-10.18,2.57-1.75,5.07-2.71,8.24-3.32.8-.13,1.88-.19,3.08.2,1.81.54,3.04,2.49,3.82,3.97.57,1.02,1.11,1.94,1.77,2.87.16.22.34.36.5.42,2.57.26,5.59-2.51,7.72-4.35.9-.78,1.69-1.78,2.4-2.65,0,0,2.5-2.99,2.5-2.99,2.6-2.96,5.11-6.34,8.31-8.74,1.76-1.35,4.46-3.47,6.28-4.74,1.55-1.1,3.43-2.4,5.41-3.02,1.43-3.2,4.58-7.36,7.15-10.37,0,0-.21.3-.21.3,1.33-2.17,2.63-4.18,4.46-6.2.9-.89,1.82-1.92,3.39-2.18,2.45-.27,5.12-1.05,7.5-1.75,2.45-.86,7.73-2.64,10.16-3.49,0,0-1.22,1.26-1.22,1.26s1.8-5.68,1.8-5.68l-.07.81s-1.8-15.07-1.8-15.07c-.02-.13-.02-.28,0-.41.35-4.36.74-8.92-.13-13.21,0,0-.12-.37-.12-.37-.04-.11-.07-.27-.12-.35-.05-.08-.09-.16-.13-.25,0-.04-.16-.29-.27-.49-.37-.59-.63-1.37-.61-2.14-.02-.87.69-1.99,1.19-2.33,1.34-1.19,2.05-1.01,2.68-2.19,1.52-4.32,8.04-2.54,11.33-1.87.21.05.41.14.57.27,1.94,1.55,3.38,3.29,4.43,5.52.97,2.22,1.64,4.82.88,7.2-.88,3.18-2.34,5.9-3.26,8.89,0,0-.13.62-.13.62-.04.2-.02.35-.05.48,0-.02-.04-.16-.12-.2-.04-.09-.2-.17-.24-.18,0-.03-.12-.01-.03-.02.17.03.71-.03,1.38-.03,0,0,.58.04.58.04.83.11,1.61.56,2.06,1.29,0,0-.01-.03-.02-.04-.18-.25-.34-.24-.25-.23,2.46.04,4.93-1.19,7.24-2.22,1.25-.63,2.47-1.26,3.51-2.15.04-.03.09-.08.03-.04-.06.05-.07.14-.07.09,0,0,.02-.02.02-.1.1-1.05-.2-2.16-.47-3.31-1.36-5.02-3.34-9.83-5.13-14.77-1.09-2.99-2.21-5.99-3.04-9.09-.49-2.06-.92-3.96-1.75-5.83-2.23-5.06-5.51.33-8.72,1.62-5.48,2.51-19.35,1.9-23.95-2.41-.47-.61-.66-1.23-.81-1.75-.83-3.15-1.12-6.31-1.49-9.5-1.16-11.49-1.71-23.15-2.48-34.65-.04-1.05-.26-2.04-.09-3.28.42-2.29,2.04-3.96,3.63-5.46,4.86-4.16,10.71-6.9,16.48-9.48,3.87-1.68,7.8-3.21,11.8-4.57.16-.05.33.03.38.19.05.16-.03.33-.19.38h0Z"/><path class="cls-1" d="M395.77,121.59c-3.32,2.9-6.57,5.89-9.66,9.03-2.1,2.29-4.77,4.69-5.85,7.59-.67,5.33-.34,10.98.56,16.26,1.19,4.16,3.79,7.89,5.98,11.6,0,0,2.42,4.69,2.42,4.69l1.21,2.34c1.65,2.7-.29,5.93-1.44,8.32-1.01,1.66-1.84,3.54-3.22,4.92-1.62.94-3.48,1.97-4.31,3.55-.99,4.48-1.34,9.18-1.92,13.75,0,.04-.01.09-.02.13,0,0-2.52,11.44-2.52,11.44-.06.26-.2.49-.38.66-1.3,1.21-2.61,2.26-4.09,3.24-1.05.7-2.3,1.34-3.5,1.82-1.83.83-3.52,1.85-5.28,2.91-.49.31-1.66,1.03-2.37,1.33-1.12.37-1.64.42-2.65.65-1.83.41-3.45.81-4.69,1.74,0,0-.59.36-.59.36-1.66.97-3.62,1.75-4.99,2.99-.48.47-.52.69-.69,1.35-.27,1.29-.23,2.94-.07,4.39,0,0-.62-1.09-.62-1.09,0,0,3.29,2.53,3.29,2.53l-1.19-.35,14.79-1.54c.47-.05.91.09,1.26.36,1.93,1.36,4.07,2.9,6.36,3.45.23.04.41.02.37.02-.03,0-.1.03-.18.09-.05.05-.1.09-.13.14,2.21-3.5,6.9-4,10.1-5.83,2.62-.95,6.07-1.93,8.57-.44-.02-.02-.05-.03-.07-.03.15.05.29.08.5.12,2.48.38,5.14.25,7.66.15,0,0,1.98,1.22,1.98,1.22-.04-.1,0,.01.01,0,0,.02.02.01-.03-.03-.19-.19-.76-.27-1-.11.08-.12.19-.19.33-.41,1.68-2.59,2.23-6.12,4.25-8.71.46-.55,1.04-1.1,1.85-1.31.75-.27,2.05.1,2.54.73.29.33.39.48.58.95l-4.16.34s1.91-11.52,1.91-11.52c.46-3.13.53-8.2.69-11.48.13-1.73,1.95-2.48,3.12-3.45,1.7-1.01,3.45-2.33,5.96-1.39,1.76.89,2.63,3.12,3.99,4.21.16.11.28.16.25.14,0-.04-.12.02-.05-.03.87-.34,1.92-.6,2.86-.52,0,0,.41.03.37.02-.67,0-1.48.52-1.72,1.16.53-4.06.22-8.57-.05-12.91-.18-3-.59-7.51-.84-10.53-.11-1.33.78-2.5,2.02-2.81,4.63-1.27,10.14-3.39,15.05-4.2,9.7-1.52,12.24,5.31,9.27,13.57-.54,1.42-1.4,2.8-1.26,2.98-.47,3.59-.51,7.85-.21,11.43,0,.01.02.17,0,.06-.01-.07-.03-.14-.07-.21.63,1.25,2.09,4.08,2.74,5.36,0,0,3.41,6.7,3.41,6.7l-1.43-1.39s9.29,4.46,9.31,4.47c.51.24.92.62,1.22,1.06,1.52,2.27,2.96,4.52,4.36,6.88,1.21,2.22,2.67,4.29,3.24,6.9.06.33.08.67.08,1-.01,2.08,1.31,5.64,1.84,7.85.98,3.29,2,6.62,3.89,9.42.7.79,1.1,1.8,1.22,2.81.33,2.54-.41,5.21-.52,7.63,0,.07,0-.07-.02-.13-.01-.04-.02-.08-.04-.11-.02-.03.02.08.03.11.65,2.21,1.25,5.01,2.41,6.88-.03-.05-.01-.01-.12-.09-.12-.12-.51-.19-.12-.06,3.19,1.37,6.17,3.03,9.12,4.7,0,0,6.93,5.51,6.93,5.51,4.81,4.19,16.2,11.96,21.5,15.62,0,0-.93-.3-.93-.3,4.93.48,9.69.53,14.49,2.12,2.06.9,4.3,1.76,6.47,2.62l6.59,2.53c.25.08.48.28.58.51,1.67,3.17,3.16,6.93,5.97,9.19,2.7,1.25,5.8,1.01,8.58,2.22.15.07.22.24.16.39-.06.15-.23.22-.38.16-3.16-1.18-7.39-.08-10.13-2.44-2.57-2.54-4.24-5.54-6.01-8.61,0,0,.58.51.58.51,0,0-6.76-2.11-6.76-2.11-3.36-.91-6.25-2.49-9.87-2.88-3.44-.38-6.95-.51-10.41-.59-.35,0-.66-.12-.93-.3-5.57-3.52-17.41-10.85-22.3-14.87,0,0-7.17-5.34-7.17-5.34l.34.22c-2.33-1.19-4.72-2.39-7.04-3.43-.28-.12-.57-.25-.83-.35-.38-.19-.09.07-1.36-.61-2.16-1.53-2.99-4.48-3.77-6.7-.23-.69-.65-2.2-.86-2.84-.57-2,.03-4.13.14-6.07.07-.87.14-1.67,0-2.43,0,.02,0,.04.01.06.01.02.02,0,.06.13.04.09.1.17.17.24,0,0,.06.06.03.03,0,0-.07-.07-.07-.07l-.13-.15c-2.63-3.37-4-7.54-5.27-11.48-.78-2.71-2.35-7.39-2.21-9.57-1.54-3.46-4.42-7.72-6.73-11.24,0,0,1.23,1.06,1.23,1.06l-9.3-4.44c-.64-.3-1.14-.8-1.43-1.39,0,0-3.48-7-3.48-7-.63-1.26-2.09-4.23-2.71-5.47-.16-.32-.3-.86-.36-1.22-.37-3.21-.22-6.28-.09-9.39.15-1.86.16-3.71.86-5.71.4-.96.88-1.73,1.21-2.58.62-1.55,1-3.62.71-5.27-.07-.12-.03-.16-.16-.23-.11-.08-.33-.2-.71-.27-3.25-.46-6.43.76-9.92,1.68,0,0-7.48,2.1-7.48,2.1l2.02-2.81c.2,3.06.53,7.64.67,10.66.2,4.51.47,9.15-.19,13.8-.06.35-.21,1.09-.47,1.55-.48,1-1.6,1.66-2.71,1.63-.35.02-.76-.1-1.09,0-4.24,1.79-6.56-1.93-8.66-4.66.09.1.21.18.34.22.48.19.48.07.33.12-1.05.33-2.62,1.46-3.54,2.27,0,0,.77-1.63.77-1.63-.11,2-.38,6.93-.53,8.85-.03,2.07-2.12,12.45-2.47,14.69,0,0-4.16.34-4.16.34.27.94,1.59,1.41,2.41.88.08-.03.12-.11.07-.04-.02.02-.03.03-.05.05l-.08.12c-2.18,3.05-2.4,7.6-5.81,9.92-1.81,1.06-3.99.02-4.76-1.82,0,0,1.98,1.22,1.98,1.22-3.16.05-6.3.26-9.42-.53,0,0-.42-.14-.42-.14-.19-.09-.4-.19-.58-.31-.28-.17-.17-.09-.16-.09-1.32-.27-3.44.24-4.85.77-.79.31-1.48.79-2.12.99-2.17.84-4.11,1.26-5.72,2.58-.19.17-.34.34-.44.5-.03.04,0,0-.07.1-.72,1.33-2.63,1.76-3.86,1.44-3.03-.68-5.47-2.48-7.92-4.26,0,0,1.26.36,1.26.36-.01,0-14.83,1.33-14.84,1.33-.44.04-.85-.1-1.17-.35,0,0-3.25-2.58-3.25-2.58-.36-.27-.59-.67-.62-1.09-.22-2.73-.43-6.35,1.83-8.45,1.97-1.81,4.64-2.61,6.64-3.98.92-.57,1.8-.88,2.67-1.13,1.46-.47,3.31-.7,4.73-1.08,2.13-1.08,4.2-2.48,6.43-3.51.58-.34,1.69-.72,2.33-1.01,2.09-.94,4.04-2.42,5.76-3.94,0,0-.38.66-.38.66,0,0,2.74-11.39,2.74-11.39.38-2.71.9-6.91,1.45-10.11.27-1.37.37-2.62.85-4,1.08-2.28,3.41-3.47,5.4-4.58,0,0-.36.31-.36.31,1.87-2.68,3.99-5.77,4.7-8.93.18-.77.03-1.35-.34-1.98,0,0-1.18-2.39-1.18-2.39l-2.35-4.77c-1.48-2.44-3.42-5.84-4.73-8.75-1.51-3.03-1.6-6.67-1.79-9.96-.09-3.36-.18-6.72.41-10.05,1.17-3.26,3.99-5.53,6.27-7.98,3.17-3.1,6.48-6.04,9.87-8.89.13-.11.32-.09.42.04.11.13.09.31-.04.42h0Z"/><path class="cls-1" d="M464.83,433.52s-7.35-6.61-7.35-6.61c-1.27-1.12-2.57-1.96-3.92-3.01-.33-.28-.67-.68-.82-1.15-.34-1.26-.16-2.51-.36-3.77-.31-1.6-.02-3.32-.18-4.94-.28-3.64-1.36-7.45-1.86-10.97-.16-1.62-.18-5.29-2.02-5.75-.91-.07-1.89-.68-2.66-1.02-1.1-.29-2.22.1-3.35.37-1.62.45-3.27.75-4.9,1-1.32.25-3.51.42-4.62.95-.95.88-2.32,2.33-2.59,3.53.03,1.56-.55,3.71-.18,4.88,1.1.96,2.5,2.08,3.56,3.01.47.79.44,1.73.53,2.6.05.86.07,1.71.05,2.57-.03.88-.06,1.87.33,2.62.8.55,2.18.64,3.22.99.64.21,1.4.42,1.89,1.04.14.14.23.43.3.64.18.59.65,1.12,1.22,1.7,0,0,.42.44.42.44.15.18.31.31.48.72.18.56-.1,1.11-.26,1.61-.57,1.5-1.22,2.91-1.89,4.33-.07.15-.18.26-.32.33-2.08,1.15-4.31,2.25-6.16,3.73-.05.05-.09.09-.1.11-.01.02.02-.03.02-.04.03-.05.05-.12.05-.18,0-.03,0-.25-.07-.35-.02-.03-.04-.06-.05-.08l.02.04c.16.29.21.65.2.95-.16,3.33-.83,6.51-1.37,9.77-.26.87-1.65,1.12-2.35,1.31-2.09.43-4.3-.64-5.68-2.06-1.62-1.55-3.11-4.27-4.39-6.07-.67-1.03-1.34-2.11-1.85-3.35-1.32-3.59-.72-7.36-1.54-11.01-.29-1.56-.57-3.14-1.17-4.58,0,0-.21-.45-.21-.45l-.74-1.68c-1.85-4.08-3.49-8.32-5.8-12.15,0,0-.1-.15-.1-.15-.04-.07-.02,0-.03-.03,0,0,.04,0,0-.03-.51-.29-.88-.85-1.12-1.24-1.63-3.15-2.09-6.71-2.44-10.19-.21-3.53-.46-6.95-2.75-9.79-.27-.41-.7-.95-1.02-1.31-2.3-2.44-5.63-3.08-8.5-4.77-.29-.24-.65-.54-.87-.83-1.17-1.3-2.36-2.93-3.52-4.18-.54-.58-.93-1.04-1.47-1.38-3.28-2.64-6.35-5.34-9.44-8.21-.57-.52-.9-1.31-1.19-1.97,0,0-.73-1.7-.73-1.7-.72-1.99-2.19-4.57-3.15-6.46,0,0,.52.55.52.55-1.96-1.22-3.95-2.34-5.64-4.05-1.84-2.48-4.52-4.36-5.97-7.16-.11-.31-.16-1.22-.08-.41.13.38.21.38.23.42-.41-.19-1-.5-1.54-.63-.77-.24-1.6-.46-2.39-.63,0,0,1.13-.21,1.13-.21-.32.26-.74.69-.8,1.12-.3,1.86-1.57,3.12-2.78,4.38,0,0,.44-.79.44-.79-.21,1.11-.44,2.22-.5,3.26.04.57.26,1.96.35,2.56,0,0,1.02,6.3,1.02,6.3,0,0-.38-.79-.38-.79l5.29,5.75s-.36-.29-.36-.29c4.23,2.56,3.75,3.26,4.26,7.84.07.5.09.38.32.84.2.33.88,1.5,1.11,1.86.77,1.18,1.99,3.21,2.76,4.34,0,0,.2.29.2.29l.08.12s.06.09.03.03c-.09-.09.04.03.09.07,1.13.93,3.17,2.35,4.37,3.21,0,0-.71-.28-.71-.28,1.19.16,2.39.34,3.57.45.57.01,1.69.13,2.33.26.54.1,2.25.4,2.7.42.96.07,2,.06,3.01.67,1.82,1.22,1.23,3.15-.08,4.32-.09.09.02.05.06-.25.04-.3-.11-.51-.07-.46.2.28.59.74.82,1.02.83.93,1.63,1.91,2.71,2.55.85.35,3.56,1.18,4.18,2.74.84,1.61,2.78,2.66,4.32,3.68,2.17,1.69,3.83,3.3,5.46,5.64.19.25.37.75.47,1.09.75,2.3,1.15,6.52-2.29,6.81-.32.03-.33.04-.53.1-.34.14-1.05.13-1.3.08-2.47-.35-4.71-1.21-6.6-2.86-.25-.21-.65-.91-.68-1.04-.09-.24-.15-.3-.09-.21.03.09.43.35.68.33.23,0,.2-.02.15,0-.65.36-1.39.66-2.06.91-.15.05-.21.16.05-.1.05-.07.12-.15.18-.28.05-.12.09-.22.1-.34.03-.2,0-.31,0-.33-.02-.06.01.02.01.03,0,0,.1.2.1.2,3.57,5.67,4.07,7.07.72,12.33-.71,1.83-2.61,3.48-3.59,4.95,0,0-.11.19-.11.19-.02.05-.04.09-.06.14,0,.03,0,.04-.02.05,0-.01.01-.03.01-.04-.03.53-.28,1.31-.48,1.62-1.09,1.98-3.35,3.45-4.47,5.07-.05.04-.22.51-.36.94l-.42,1.36c-1,2.96-1.29,6.11-3.04,8.81-.23.38-.77.81-1.21.99-1.86.76-3.63,1.25-5.49,1.85-.53.17-1.09.1-1.54-.16-5.23-3.03-13.08-8.82-9.52-15.76,1.07-1.96,2.07-4.88,4.75-4.98.89,0,1.75.29,2.61.26,1.8-.2,3.98.02,5.37.09.17-.02.21-.04.43-.15,0,0,.17-.11.17-.11,1.51-1.05,3.26-2.18,4.38-3.57.73-1.37,1.42-3.19,1.97-4.67,0,0,0,1.5,0,1.5-.4-1.06-1.24-2.74-1.99-3.44-1.4-1.21-2.54-2.54-3.67-3.78-.3-.31-1.77-1.99-2.04-2.24-.86-.73-4.24-3.54-5.18-4.32-1.77-1.7-3.24-3.74-3.98-6.17,0,0-2.25-5.89-2.25-5.89,0,0,.54.82.54.82-3.33-3.35-7.6-5.66-11.5-8.25-1.51-1.15-3.3-2.05-4.59-3.46-.73-1.19-1.47-2.32-1.89-3.69-.73-2.18-2.51-7.44-3.25-9.65-.18-.67-.18-1.39-.47-2.07-.28-.8-.7-1.29-1.26-1.82-1.78-1.92-3.07-4.4-4.69-6.28-.4-.46-.82-.92-1.18-1.18-.35-.29-.65-.35-.46-.32-1.71-.01-3.64,1.59-4.96,2.82-2.22,2.15-5.44,3.18-7.81,5.04-.02.02-.04.04-.06.06-.03.02-.05.04,0,0,0,0,.06-.09.01-.03,0,0-.2.3-.2.3-2.99,4.12-7.26,7.91-12.77,7.53-1.67-.32-3.3-1.58-4.76-2.39-2.5-1.5-5-3.06-7.42-4.42-.42-.24-.79-.43-1.19-.61-.13-.06.08.04.23.06.07.01.18.02.21,0-1.35-.15-2.38-.82-3.6-1.12-.4-.06-.14,0,.06-.1.08-.05.24-.12.28-.19,0,0-.05.05-.05.05l-.83.74c-.64.47-1.3,1.23-1.64,1.61,0,0,.05-.1.07-.18,0-.03.05-.16.06-.24,0-.05.01-.09.01-.14,0,0,0,.05,0,.05-.15,2.43-.29,4.95.23,7.3.54,2.87,1.45,5.97-.5,8.73-1.95,2.16-4.38,3.57-6.59,5.21-.48.38-1.52,1.1-2.14,1.4-4.87,2.34-9.84,4.24-14.36,7.27-.12.08-.27.18-.35.24,0,0-.14.1-.14.1-.07.05,0,0-.01.01,0,0,0,0,0-.01-.02.02.03-.03.08-.08.14-.15.25-.32.34-.5.06-.12.11-.25.14-.38.02-.08.03-.14,0-.04-.14.43-.37.88-.61,1.21-.65.96-1.83,2.16-2.26,3.11.03-.28.1-.52-.02-.84,0-.03-.02-.05,0,.01l.05.25c.31,1.04-.2,2.31-.3,2.73-.72,1.86-1.55,3.74-.94,5.7.87,3.22,1.14,6.49.75,9.86-.41,1.6-1.08,3.03-1.77,4.56-.38.77-.99,1.8-1.78,2.25-1.1.62-.95.48-1.86.84,0,0-1.32.45-1.32.45,0,0-1.21.4-1.21.4-.36.12-.77.28-.87.33-.11.06.23-.13.07-.04-1.17.74-2.25,1.15-3.19,1.74,0,0,.09-.09.09-.09.03-.03.1-.1.12-.14,0,0-.06.07-.06.07,0,0-.23.27-.23.27,0,0-.16.16-.16.16-1.55,1.52-3.04,2.88-4.61,4.21,0,0-3.35,2.29-3.35,2.29,0,0,.84-.86.84-.86,0,0-1.27,1.97-1.27,1.97,0,0-.02.04-.02.04-1.73,1.94-4.34,2.87-6.95,2.7-.45-.06-.91-.14-1.36-.3-.53-.18-.64-.24-1.08-.45-.18-.09-.41-.2-.76-.46,0,0-.18-.14-.18-.14-.02-.02-.02-.01.09.07.55.4,1.23.61,1.9.57-4.33.2-8.88.3-13.36-.84-.11-.03.02.01.09,0,.18.03.42,0,.63-.05.26-.09.25-.07.36-.13,0,0-.03.02-.06.04-.28.18-.52.41-1.33.91-.7.41-1.48.72-2.21.89-.97.24-1.69.25-2.49.34,0,0-.07,0-.07,0,.03,0,.18-.03.36-.13.04-.03.21-.11.32-.2.52-.36.85-1.09.86-1.52,0,.03,0,.05,0,.08l.05.35.11.81c.03.51.13.94.04,1.59,0-.05.01-.11.02-.24,0-.21-.01-.27-.01-.27.03.38.25,1.12.27,1.29.42,1.38,2.02,2.15,2.45,3.8.07.23.13.56.16.85.02.3.02-.06-.02-.24-.09-.67-.63-1.43-1.08-1.66.99.43,6.58,1.04,7.81,1.24,1.07.08,2.19,1.21,3.09,1.52.02.01-.04-.02-.08-.02h-.08c-.08-.03-.17-.04-.25-.05,0,0-.13,0-.13,0,0,0-.27,0-.27,0-.27.02-.55.09-.79.19-.11.05-.04.02.05-.02l.23-.08c1.47-.46,2.83.29,4.1.75,1.44.53,1.76.55,3.31.6.65.03,1.86.24,2.28.28,1.47-.47,3.34-1.75,4.57-2.76,1.38-1.45,3.46-3.26,5.3-3.92,3.07-1.13,4.06-3.65,7.54-4.79.63-.2,1.36-.27,1.99-.32,6.23-.55,11.49-3.75,17.64-5.05.43-.07.97-.13,1.44-.09,3.32.36,7.09.08,10.5.06,1.67.03,4.08.08,5.76.12,1.34.01,2.43.02,3.64-.17,0,0,.45-.03.45-.03,2.95-.13,6.14.13,9.08.16.05,0,.25-.01.01.01-.03,0-.07.02-.1.03,0,0,.05,0,.08,0,0,0,.18-.03.18-.03l.37-.05,5.92-.81c.4-.05.8-.01,1.16.1,0,0,8.72,2.77,8.72,2.77,0,0-.49-.1-.49-.1,1.33.16,2.7.29,4.03.4,1.35.1,2.87.23,4.14.12-.03,0-.05,0-.08.01-.04,0-.13.07-.1.05.8-.44,1.98-1.47,2.84-2.1.75-.55,1.61-1.12,2.65-1.13.64-.03,1.32.31,1.76.51,1.31.6,2.25.92,3.47,1.97.24.23.09.07.03.03.58.31,1.89.87,2.75,1.13.4.13.74.23,1.11.31-.11,0-.23-.01-.41,0-.94.23.19-.06.2-.04,1.25-.12,2.09,0,3.28.41.68.2,2.07,1.09,2.44,2.21.49,1.28.23,2.91.08,4.11-.26,1.32-.22,3.06-1.52,3.81-.8.51-1.84,1.16-2.46,1.77.34-.47.39-1.49.07-1.99.23.42,2.39,4.01,2.64,4.46.8,2.12.88,4.82,1.27,7.22.03.45.1.79,0,1.38-.5,2.08-1.51,3.9-2.48,5.79-.65,1.1-1.35,2.52-2.6,3.12,0,0-.24.1-.24.1,0,0-.12.04-.12.04,0,0-.06.02-.06.02.07-.01.14-.04.2-.07,0,0-.02.02-.03.02-1.05.65-2.32,1.87-3.28,2.74,0,0-.04.03-.04.03.07-.07.26-.32.34-.5.05-.11.08-.18.13-.33.05-.15.09-.33.1-.5.04-.32-.1-.82-.06-.67.3,1.03.99,2.91,1.3,3.87,0,0-.8-1.05-.8-1.05.65.51,1.76,1.06,2.14,1.2-.05,0-.02,0-.13.01-.06,0-.23.05-.2.05,2.84-.66,4.65,2.51,5.85,4.57,0,0,.04.09.04.09.02.03,0-.02,0-.02-.02-.05-.08-.14-.04-.08.37.53.88,1.07,1.38,1.51,1.24,1.11,2.7,1.85,3.89,1.78,1.65-.14,3.59-.81,5.29-1.34,1.78-.54,3.8-1.19,5.73-1.15,1,.05,2.01.34,2.83,1.02,2.05,1.76,4.54,2.64,6.53,4.7,1.68,1.74,2.42,4.3,2.55,6.49,0,0,.03.25.03.25,0,0,.04.18.04.18,0,.01-.05-.1,0,0,.82,1.55,1.27,3.14,1.72,4.81.05.13,0-.02-.13-.11-.12-.08-.05-.02.09.02.28.08.85.18,1.33.28,1.08.24,1.43.26,2.61.19,2.04.02,3.2.47,5,.19,1.33-.27,2.73-.41,4.12-.24,2.78.43,5.13,1.26,7.83,1.66.17.04.34.09.48.14l.72.26c1.71.62,3.12-.15,4.87-.73,1.09-.36,2.62-.88,3.38-1.07-.01.01-.09.11-.06.08.35-.59.9-1.48.81-2.08-.32-1.07-.44-2.13-.38-3.25.07-.59.06-1.19.57-2.01l1.85-2.42s.05-.06.07-.09c0,0,4.02-4.11,4.02-4.11.09-.1.22-.18.34-.23,0,0,3.05-1.21,3.05-1.21.04-.02.1-.03.14-.05,0,0,5.36-1.17,5.36-1.17,1.43-.11,2.82-.03,4.26.27.69.17,1.41.38,2.1.9.52.44.88,1.01,1.4,1.45,1.35,1.33,3.09,2.07,4.9,2.55,2.55.97,4.9,2.38,7.28,3.66.13.06.22.05.41.02.41-.11,1.18-.39,1.71-.11.57.28.77.86,1.02,1.37.82,1.47,2.48,3.2,4.24,2.78.16-.04.32.05.37.21.04.16-.04.32-.2.37-2.18.59-4.08-1.25-5.13-2.95-.36-.69-.54-1.08-.92-.99-.43.03-1,.41-1.56.29-.12,0-.24-.07-.36-.11,0,0-.23-.11-.23-.11-1.71-.85-3.53-1.8-5.26-2.54-1.2-.57-2.42-.83-3.68-1.22-1.94-.68-3.54-1.98-4.91-3.46-1.2-.85-4.07-.78-5.05-.71,0,0-5.32,1.33-5.32,1.33,0,0,.14-.05.14-.05,0,0-3.01,1.3-3.01,1.3,0,0,.34-.23.34-.23l-3.89,4.23.07-.09s-1.71,2.38-1.71,2.38c-.29.49-.09,2.11.07,2.76,0,0,.22.73.22.73.18.83.01,1.53-.18,2.12-.32.81-.59,1.47-1.11,2.11-1.26,1.06-2.88,1.13-4.27,1.8-2.04.84-4.46,1.76-6.66.92-.35-.1-.82-.31-1.17-.33-3.32-.32-6.51-1.92-9.82-1.26-1.87.56-4.45.18-6.16.12-1.65.2-3.25-.14-4.91-.49-.34-.1-.75-.21-1.26-.59-.53-.4-.82-1-.94-1.34-.37-1.16-.5-1.78-.92-2.81-.31-.97-.94-1.69-1.1-2.69-.3-4.92-2.63-5.67-6.41-7.95-.59-.36-1.24-.84-1.8-1.31-.02-.01-.01,0-.02,0,0,0,0,.01,0,.01.04-.01-.06,0-.11-.03-3.64-.06-7.19,2.47-11.01,2.7-3.75.17-6.89-2.18-9.03-4.98-.51-.88-1.24-2.07-2.05-2.75-.06-.05-.05-.03-.07-.05-.01-.01.04.03.05.03.3.13.67.14.98.03-.23.05-.8.17-1.07.13-1.85-.13-3.21-1.09-4.55-1.93-.37-.24-.63-.59-.77-.97l-.03-.08-1.09-2.97c-.26-.84-.69-1.52-.41-2.53.15-.52.49-.9.83-1.23,1.53-1.39,2.88-2.97,4.89-3.79,0,0,.03-.01.03-.01,0,0-.04,0-.04,0,0,0-.08.02-.08.02-.23.07-.43.2-.59.33,1.16-1.72,2.12-3.82,2.8-5.8,0,.03-.02.06-.02.1-.01.18,0,.15-.01.12,0,0-.03-.3-.03-.3-.24-1.9-.63-4.02-.98-6.03l.32.85-2.7-4.46-.17-.28s-.04-.07-.04-.07c-.49-.9-.34-2.1.24-2.92,1.11-1.49,2.49-2.27,3.93-3.24,0,0-1.13,1.6-1.13,1.6.23-1.2.46-2.67.44-3.57,0-.02,0-.12,0-.14,0,.18.18.49.27.62.31.36.35.28.26.27-.15-.06-.53-.11-.74-.12-.06,0-.18,0-.07,0-.16.04.8-.17-.31.05-.15.02-.39.03-.45.02-1.63-.14-3.06-.72-4.56-1.29-.75-.32-1.53-.64-2.23-1.17-.2-.16-.48-.43-.36-.31-.54-.37-1.85-.87-2.57-1.21,0,0-.21-.1-.21-.1.29.23,1.31.4,1.85.13.12-.06.03,0-.04.04-.29.21-.79.6-1.06.81-1.22.93-2.52,2.24-4.28,2.48-3.41.27-6.66-.06-10-.5,0,0-8.75-2.66-8.75-2.66l1.16.1-5.44.8c-1.18.24-2.39.19-3.53.17-2.08-.05-4.86-.15-6.9-.04-1.47.22-3.12.29-4.49.27-1.48-.02-4.24-.05-5.7-.05-3.66.05-7.46.45-11.16.02.08.03.28.06.36.04,0,0-.04.01-.04.01-.04.01-.02,0-.12.02-6.04,1.57-12.05,4.85-18.45,5.25-.1.01-.3.02-.29.03-.06.01-.13.02-.18.04-.2.04-.64.31-1.32.9-.66.57-1.5,1.32-2.46,1.98-1.37,1.08-3.47,1.68-4.75,2.68-2.73,2.71-5.84,5.35-9.8,6.18-1.45.2-2.33-.16-3.41-.22-.16,0-1.03,0-1.63-.09-1.28-.15-2.44-.49-3.47-.86,0,0-1.34-.51-1.34-.51l-.18-.06s-.03.02.39.06c.36.01.76-.04,1.1-.19.08-.03.14-.06,0,0-.49.18-1.03.27-1.55.22-1-.07-2.27-.72-2.92-1.1-.49-.28-.92-.54-1.4-.86l1.29.49c-2.28-.44-7.95-.65-10.15-2.02-.1-.05-.32-.21-.47-.32-.16-.13-.29-.22-.56-.52-.22-.35-.44-.48-.61-.95-.1-.24-.18-.51-.23-.77-.05-.24-.07-.66-.06-.42,0,.3.1.57.21.8.16.28.11.17.02.08-1.1-1.11-2.07-2.46-2.61-4.19-.3-1.28-.6-2.14-.5-3.34,0,0,0,.09,0,.09,0,.21,0,.16,0,.11-.03-.35-.13-.91-.18-1.26-.42-2.35.71-4.7,3.18-5.24,0,0,.4-.09.4-.09l.29-.04c.51-.07,1.48-.1,1.86-.21.52-.15.27-.03,1.58-.94.76-.55,1.95-.96,2.96-.85.31.03.68.09.81.13l.79.2c3.24.74,7.17.71,10.6.59,0,0,.16-.01.16-.01h.15c.41-.02.76.02,1.16.15.36.12.71.31,1,.55,0,0,.03.03.03.03.08.06,0,0-.04-.03-.16-.12-.17-.11-.13-.09.61.4,1.63-.21,2.19-.57,0,0-.67.74-.67.74l1.28-1.96c.08-.56,3.74-2.75,4.21-3.14,0,0-.29.23-.29.23,1.39-1.24,2.98-2.59,4.11-3.76.3-.37.71-.68,1.05-.92,1.06-.73,2.16-1.13,3.21-1.73,1.65-1.01,3.5-1.32,5.22-2,.1-.03.31-.15.07,0-.08.05-.39.3-.47.43-.01,0-.05.08-.01.01.28-.39.42-.9.66-1.38.31-.74.62-1.54.9-2.3,0,0-.14.55-.14.55.18-1.15.12-2.5.06-3.69-.26-3.14-1.64-6.38-.67-9.54.3-1.27.76-2.27,1.19-3.38.1-.21.05-.36.06.11,0,.08.01.15.03.23,0,0,.03.11.03.11.01.04,0,0,0-.05l-.03-.13c-.53-2.77,1.74-4.97,3.2-6.88.02-.03-.01.01,0,.02-.04.1-.16.29-.17.43-.02.08,0,0,.04-.1.12-.33.3-.66.51-.95.21-.33.64-.66.9-.88,3.28-2.19,6.34-3.83,9.98-5.49,2.21-.94,4.45-1.73,6.46-2.93,1.92-1.39,4.13-2.81,5.9-4.27.23-.19.39-.37.43-.41-.12.17-.1.21-.08.1.26-1.09-.2-2.95-.43-4.16-.65-3.02-.5-6.09-.26-9.11.37-2.46,2.57-3.8,4.14-5.28,0,0,.18-.15.18-.15,0,0,.31-.22.31-.22,2.28-1.5,4.89-.4,6.83.42.1.04.22.07.08.04-.04,0-.08-.01-.13-.01.75.12,1.34.35,1.88.64,3.64,1.97,6.98,4.21,10.45,6.27.54.34,1.43.79,1.07.62.05.02.54,0,1.03-.14,2.83-.71,5.1-2.93,6.76-5.27.15-.2.5-.7.7-.86,0,0,.33-.31.33-.31,2.08-1.76,4.97-2.83,7.14-4.34,1.78-1.72,6.81-6.08,11.06-4.11,2.74,1.37,4.39,4.23,6,6.53.57.81,1.05,1.61,1.67,2.29,1.05.97,1.91,2.29,2.34,3.57.34,1,.52,1.7.61,2.81,0,0-.12-.63-.12-.63l2.17,6.61,1.08,3.3s.07.2.07.2c.31.74.79,1.51,1.22,2.21,0,0-.56-.6-.56-.6,3.83,3.08,8.18,5.31,12.04,8.26,1.47,1.31,3.36,2.43,4.39,4.17,0,0,2.21,5.9,2.21,5.9l.55,1.47c.43,1.06,1.43,2.14,2.24,3.02,0,0-.15-.14-.15-.14l3.89,3.28c.62.53,1.48,1.2,2.04,1.86,1.53,1.72,3.38,3.91,5.01,5.38,1.68,1.66,2.27,3.16,3.12,5.16.19.5.18,1.04,0,1.51-.52,1.36-1.03,2.66-1.63,3.99-1.16,2.89-4,4.61-6.43,6.29-.73.49-1.65.88-2.6.94-1.24.07-1.96-.14-3.02-.17-1.39-.08-3.01.2-4.37-.08-.51-.1-1.05-.15-.72-.15.06-.02.17-.03.25-.08.09-.06.09-.04.13-.08-.52.6-.92,1.5-1.34,2.24,0,0-.31.6-.31.6-.8,1.3-.56,2.58.25,3.89,1.58,2.53,4.61,4.8,7.49,6.48,0,0-1.54-.16-1.54-.16,1.59-.46,3.71-1.15,4.98-1.61-.04.03-.13.08-.18.13,0,0-.12.12-.12.12-.01.01-.03.05-.02.02.01-.01.08-.13.14-.24.26-.48.54-1.16.77-1.76,0,0-.05.16-.05.16.65-2.39,1.33-4.85,2.11-7.22.58-2.57,3.47-4.45,4.92-6.25.1-.14.2-.27.24-.35.05-.08.03-.1,0,.09.01-.62.37-1.66.79-2.27,1.4-2.06,2.86-3.14,3.41-4.54.72-1.58,1.57-2.21,1.88-3.56.21-.96-.4-1.73-.93-2.79-.56-1.09-1.62-2.34-1.99-3.74-.23-.63.02-1.82.55-2.33.93-.88,1.19-.78,2.04-1.15.21-.08.39-.15.56-.23l.7-.35c.9-.51,2.77-.43,3.52.71.37.47.51.87.61,1.09.05.13.08.15-.02,0-.03-.05-.14-.16-.05-.07.82.69,2.17,1.3,3.19,1.58.31.08.93.2,1.24.25.06.01.14,0-.01.01-.07,0-.18.03-.19.04l.2-.06c.52-.14.85-.16,1.25-.19-.17-.01-.4.11-.53.23-.2.22-.19.24-.18.24.1-.73-.08-2.07-.36-2.82-.33-.6-1.02-1.38-1.68-2.09-.93-.94-1.84-1.97-2.94-2.68-1.95-1.32-4.01-2.53-5.18-4.78-.07-.12-.1-.19-.24-.28-.34-.29-1.28-.51-2.45-1.07-1.5-.79-2.68-2.18-3.78-3.43-.74-.99-1.63-1.62-1.51-3.14.18-1.13.75-1.56,1.23-2.1.1-.1-.04-.04-.08.35-.05.27.21.84.44.93-.68-.2-2.31-.18-3.01-.39-.96-.14-2.22-.45-3.05-.46-.28-.03-.97-.07-1.26-.12-1.22-.25-2.58-.13-3.69-.7-.81-.59-2.88-2.08-3.64-2.68-.49-.4-.92-.68-1.39-1.19-.26-.34-.33-.44-.54-.77-1.08-1.69-2.56-4.02-3.57-5.76-.26-.42-.57-.98-.81-1.54-.39-1.23-.36-2.18-.48-3.38-.04-.47-.09-.94-.16-1.32-.14-.49.05-.12-.22-.46-.59-.62-1.7-1.2-2.45-1.82,0,0-5.25-5.78-5.25-5.78-.21-.22-.34-.51-.38-.79,0,0-.98-6.36-.98-6.36l-.22-1.61-.1-.84c-.02-.12-.03-.35-.04-.55.06-1.36.35-2.61.58-3.86.06-.31.22-.58.43-.78.63-.62,1.45-1.49,1.8-2.25.05-.1.06-.15.08-.23.17-1.31,1-2.54,2.14-3.3.34-.24.75-.3,1.13-.21.91.21,1.76.44,2.65.73,1.24.53,2.63.69,3.19,2.21.09.23.05.86.07.54,0-.11-.01-.22-.05-.31.02.02.02.03.03.06,1.28,1.89,3,3.44,4.51,5.2,0,0,.46.55.46.55,0,0,.25.33.25.33,1.38,1.49,3.32,2.56,5.07,3.69.21.13.38.32.49.53,0,0,1.68,3.32,1.68,3.32.96,1.74,1.7,4.03,2.55,5.84,0,0,.13.28.12.23,2.61,2.52,5.47,5,8.22,7.37.93.78,2.17,1.68,2.84,2.57,1.31,1.45,2.5,3.1,3.78,4.55,1.17.86,2.67,1.25,4.09,1.97,3.68,1.53,6.51,4.58,8,8.32,1.34,3.61.88,7.38,1.57,11.06.43,2.03.76,4.59,2,6.23.57.41,1,1.1,1.31,1.68,2.34,4.33,4.13,8.92,6.09,13.41,1.27,2.91,1.59,6.1,1.93,9.22.16,3.71.21,6.93,2.54,10.01,2.14,3.08,4.99,9.42,9.6,6.94,0,0-.32.51-.32.51.55-3.17,1.29-6.43,1.42-9.63,0-.07,0,.03.01.05.01.03.03.05.06.07,0,0,.01,0,.01,0-.02-.03-.05-.07-.06-.11-.18-.41-.08-.61-.02-.81.23-.45.6-.73.96-1.01,1.93-1.36,3.95-2.41,6.02-3.5,0,0-.33.34-.33.34.66-1.38,1.33-2.8,1.88-4.19.1-.24.17-.49.23-.71.02-.05,0-.03,0,0,.01.03.02.05.02.08.03.05-.08-.12-.18-.23,0,0-.38-.41-.38-.41-.53-.59-1.3-1.33-1.55-2.34-.02-.06-.04-.15-.04-.12-.02,0,.03,0-.02-.03-1.44-1.09-3.64-.68-5.03-2.02-.73-1.05-.65-2.42-.61-3.61-.05-1.17.11-3.06-.31-4.31-.65-.51-2-1.62-2.83-2.39,0,0-.46-.39-.46-.39-.05-.03-.34-.34-.36-.45-.08-.17-.11-.31-.14-.44-.15-1.43.04-2.56.18-3.88,0,0,.05-.59.05-.59-.09-1.21.73-2.32,1.34-3.1.49-.58.98-1.13,1.53-1.64.82-.71,2.07-.78,2.93-.95,0,0,2.45-.36,2.45-.36,1.62-.24,3.23-.52,4.79-.93,1.24-.3,2.62-.73,3.94-.33.88.32,1.34.81,2.21.95.45.08,1,.22,1.35.54,1.65,1.67,1.51,4.08,1.72,6.19.21,2.12.82,3.99,1.09,6.02.32,2.05.69,4.11.73,6.21-.09,1.28-.1,2.37.07,3.65.33,1.47-.36,3.34.89,4.44,3.13,2.11,8.4,7.22,11.19,9.73.12.11.13.3.02.42-.11.12-.3.13-.42.02h0Z"/><path class="cls-1" d="M273.43,404.39c-1.18.09-2.61-.03-3.61.47.08.09.45-.21.52-.42.08-.18.11-.34.11-.47.28,1.59-1.21,2.7-1.3,3.76.21-.13.13-.63.08-.78.05.05.18.15.21.11.03-.01,0-.07.08-.06.06.03.38.08,1,.6.41.35.71.84.92,1.32,0,0,.05.03.05.03.04.01.12-.07-.18-.46-.21-.32-1.02-.73-1.55-.7-.7-.12-1.69.69-.92-.33.97-1.23,2.32-2.31,3.8-3.11,0,0-.21.8-.21.8,1.55-2.45,1.65-2.46,3.21,0-.35,1.16-.2,2.5-.61,3.58-.67,2.15-1.79,3.91-4.31,4.63-1.99.49-3.83-1.04-4.08-2.76.11.17.26.39.44.53.32.22.25.1-.03-.1-1.25-.91-2.23-2.63-1.8-4.19.25-1.04,1.22-1.9,1.93-2.45.3-.21.52-.48.55-.33.03-.02.01.22.06.16,0-.24.02-.5.15-.78.33-.74,1.15-1.01,1.78-.95,1.46.13,2.63.73,3.89,1.33.29.14.17.6-.14.58h0Z"/><path class="cls-1" d="M283.3,397.91c-1.32.13-2.77.88-3.51,1.99-.04.1-.09.12-.06.23.04.06.26-.21.22-.45.01.04.06.16.08.21.29.87.38,1.64.35,2.63,0,0-.85-1.78-.85-1.78,1.14.41,2.76,1.05,3.9,1.52.25.2.68.39.99.4.18.04.25-.19-.35-.16-.5.04-.9.38-1.21.69-.02.05-.04-.02-.05-.02-.01-.04-.03.02-.02-.1-.06-1.96.82-3.71,1.8-5.46,0,0,1.34,1.06,1.34,1.06-.87-.45-1.76-.71-2.63-.75h0ZM283.21,397.32c.85-.17,1.67-.58,2.51-1.17.22-.15.52-.1.67.12.81,1.21,1.92,2.46,2.36,3.79.34,1,.39,2.04.27,3.09-.58,4.82-4.89,6.05-8.16,2.89,0,0,.31.21.31.21-.99-.74-2.38-1.77-3.32-2.54-.63-.42-1.19-.99-.85-1.78.18-.43.29-1.13.37-1.67,0-.03.02-.12.02-.15-.03-.86.39-1.36.92-1.7,1.6-.71,3.29-.42,4.89-1.09h0Z"/><path class="cls-1" d="M290.29,394.91c-.18.18-.61.43-.72.7-.04.07,0,.12.1-.02.04-.06.07.11.11.19.13.33.26.69.41,1.01.19.42.47.92.66,1.05.01-.02.05.03.03-.04,0-.02-.02-.05-.03-.07.19.2.44.69.48,1.02.14.58-.16,1.59-.21,1.99-.02.09.01.18.08-.03.06-.31.05-.47-.04-.8-.24-.87-1.15-1.42-2.01-1.36-.06,0-.13.02-.1,0,0-.07.11-.13.18-.2.55-.44,1.36-1.15,1.46-1.82.03-.12,0-.19-.04-.17-.17.19-.2.64-.2.93,0,.18.07.53.1.71-.13-.83-.07-1.71.11-2.62l2.1,1.74c-.86-.58-1.73-1.38-2.46-2.21h0ZM290.23,394.31c.74-.89,1.77-1.47,2.83-1.86.3-.1.61,0,.81.21,1,1.28,2.68,2.73,2.78,4.41.03.52-.07,1.13-.24,1.59-.95,2.5-3.66,3.12-5.86,3.86-.39.1-.87.2-1.3.16-2.08-.16-2.73-2.63-1.32-3.88.02.31.15.83.39,1.01-.56-.8-.51-1.92-.48-2.65.02-.44.09-.93.18-1.37.04-.18.05-.29.16-.61.45-.93,1.2-.8,2.04-.89h0Z"/><path class="cls-1" d="M333.16,369.8l-4.68,3.17.26-.33s-.99,3.84-.99,3.84l.03-.22.31,7.25c.01.22-.06.41-.17.59,0,0-2.57,4.39-2.57,4.39-.17.29-.45.48-.76.55-.98.21-2.33.56-3.11,1.06-.14.07-.15.24.06-.16.05-.09.07-.2.06-.3.96,2.81,2.61,5.61,4.07,8.3.24.43.27.9.15,1.35-.23,1.11-.7,3.18-.9,4.27-.03.16-.07.44-.06.4l-.68,5.22-.59-1.92c.67.64,2.43,2.35,3.08,2.98,0,0,.51.5.51.5l.06.06s.02.02.02.02c-.2-.22-.58-.43-.9-.53-.18-.06-.39-.09-.57-.09-.15,0-.12,0-.07-.01,1.56-.51,3.31-1.35,4.81-2.11,3.37-1.53,5.45,3.45,2,4.81-.08.04-.26.08-.34.11,1.52,3.88-3.85-5.14-2.41-4.45.43-.37,1.02-.66,1.51-.95,0,0,.51-.29.51-.29l.03-.02-.07.03c-.17.08-.37.25-.47.35.64-1.52,1.11-3.87,1.49-5.69,0,0,1.76-8.97,1.76-8.97l1.01,2.82c-2.21-2.11-4.48-4.16-6.27-6.79-.35-.57-.6-1.23-.59-1.94-.01-.43.21-1.11.4-1.39-.02.04-.03.06-.04.1,1.73-3.83,3.09-8,4.74-11.89,0-.01.04-.11.03-.05,0,.01,0,.09,0,.05l.03-.16c.11-.71.38-3.47.47-4.2,0,0,.66.62.66.62,0,0-1.85-.37-1.85-.37h0ZM333,369.22c.63-.14,1.31-.26,2.01-.37.28-.05.55.14.61.41.27,1.19.53,2.38.73,3.59.07.5.22,1.04.14,1.57-.63,4.53-1.22,8.98-2.55,13.39-.05.16-.16.39-.24.54-.09.17.11-.17.15-.29.12-.28.18-.6.18-.9.01-.4-.05-.67-.2-1.02,0-.02-.03-.08-.02-.06.2.19.64.66.86.85,1.51,1.39,3.27,2.85,4.93,4.25.8.67,1.15,1.67,1.04,2.63-.72,4.92-1.73,9.6-3.52,14.29-.43,1.06-1.26,3.08-2.68,3.85-.13.1-.55.26-.69.33-.21.09-.65.3-.85.39.12-.08.3-.2.42-.32,1.44.69-3.92-8.32-2.4-4.45-.12.03-.28.09-.39.14,0,0,2.18,4.73,2.18,4.73-2.3.82-4.26,1.86-6.78,2.13-.62.02-1.28-.18-1.78-.59-1.04-1.04-2.69-2.93-3.72-4.03-.51-.52-.72-1.25-.59-1.92,0,0,.46-2.38.46-2.38.11-.57.3-1.53.41-2.09.08-.39.15-.99.23-1.24.26-1.14.91-3.23,1.24-4.38,0,0,.15,1.35.15,1.35-1.06-2.28-2.07-4.53-2.97-6.93-.31-.9-.7-1.92-.78-2.95.08-2.68,3.5-2.94,5.48-3.29,0,0-.89.58-.89.58l2.94-4.15s-.17.59-.17.59l.31-7.25v-.07c0-.05.02-.11.03-.16l1.33-3.74.02-.05c.04-.12.13-.22.24-.28l5.12-2.74h0Z"/><path class="cls-1" d="M444.96,450.18c-.29-.16-.64-.33-.96-.42-.66-.25-1.22.02-1.86.05-.68.05-2.43.14-3.13.16-.16,0-.33.02-.44.04.05.02.22-.03.29-.07.21-.17-.05.23-.1.59-.23.4-.4,1.45-.22,1.5.04.02.02-.12,0-.14.11.06,1.04.62,1.18.69,2.4,1.26,4.59,2.97,7.36,2.62,1.05-.07,2.29-.38,3.38-.52.86-.14,2.08.02,2.75-.14-.16-.09-.96.26-1.18.51-.19.18-.38.45-.46.64-.02-.06.04-.56.05-.66.08-.84.27-2.02.63-2.77-.16.54-.14,1.23.08,1.74.02.04.07.14.05.09-.09-.26-.3-.74-.34-.9-.11-.34-.08-.33.04-.28.12.06.23.03.15-.07-1.45-.85-4.25-1.3-6.02-2.14-.45-.16-.77-.36-1.24-.52h0ZM445.15,449.61c-.09-.05,0-.06.05-.08,1.46-.65,3-1.06,4.56-1.4,3.43-.78,6.06-.37,7.79,3,.59.79.8,2.01.47,2.98-.09.28-.07.35-.1.6-.09.84-.1,1.65-.34,2.51-.53,2.32-2.79,3.68-4.98,3.22-.97-.16-1.52-.38-2.4-.44-2.82.06-6.15-.05-8.54-1.79-1.84-1.23-3.38-2.55-5-3.94-1.47-1.25-.99-3.37-.07-4.71,0,0-.09.2-.09.2.31-.66.8-1.59,1.68-1.78.63-.1,2.33.3,2.97.37.61.1,1.44.2,2.05.23.82.12,1.41.54,1.99,1.05.01.01.03.02.04.04-.02-.01-.05-.03-.07-.03h0Z"/><path class="cls-1" d="M446.24,433.58l-1.22,1.82.22-.52c.25,1.4.47,2.79.69,4.19l-.65-1.19c1.4.56,3.2,1.47,4.34,1.64-.2-.05-.42-.06-.62-.02.45-.12,1.35,0,1.83.22.29.11.43.16.57.2.07.01.2.02-.02-.06-.5-.13-1.13.03-1.57.42-.48.42-.52.72-.56.74-.06.06-.03.03-.09-.08-.21-1.78-.46-3.63-.1-4.97.16.24.37.68.59.84,0,0,0-.03,0-.03-.18-.49-.72-1.04-1.11-1.65,0,0,1.1.3,1.1.3-.86-.4-2.54-1.37-3.42-1.87h0ZM446.01,433.02c1.02-.93,2.3-1.45,3.65-1.87,1.61.48,3.54.75,4.64,2.29,1.67,2.55.52,5.71,0,8.16-.4,2.65-3.01,3.94-5.29,2.22-.05-.04-.01-.02.03-.03.23.04.48.05.73,0,.08-.02-.12.01-.13.01-.35.03-.72.01-1.05-.11-2.04-.81-3.57-2.4-5.17-3.69-.28-.24-.4-.6-.35-.94.22-1.4.44-2.79.69-4.19.04-.17.05-.43.22-.52.69-.5,1.38-.93,2.01-1.34h0Z"/><path class="cls-1" d="M518.36,348.16c-5.62,1.97-11.39,4.42-17.38,5.2-.44.04-1.12-.04-1.65-.37-.29-.09-.23-.05-.64-.03-.25.03-.65-.1-.86-.25-.31-.21-.62-.58-.83-.87-3.32-5.02-5.5-10.7-8.72-15.71-.08-.11-.15-.18-.21-.24-.03-.05-.12,0,.25.08.15.02.32,0,.46-.08,0,0-.07.03-.07.03-.29.17-.91.09-1.06.03-1.4-.56-2.61-1.43-3.87-1.71-2.18-.64-3.99.32-5.28,2.12,0,0-4.52,6.1-4.52,6.1,0,0,.12-.19.12-.19l-2.9,5.53s.19-.68.19-.68l-.14,5.01c0,.21-.05.4-.13.58,0,0-3.35,8.03-3.35,8.03-.16.39-.45.67-.79.85-.49.24-1.4,1.06-1.37,1.5.51,1.55.04,3.31-.33,4.77-.79,2.84-1.82,5.44-2.96,8.14,0,0-.12-1.86-.12-1.86l10.37,16.38s-.64-.68-.64-.68c-.08-.06.04.02.1.04,6.92,2.46,15.43-3.96,19.93-8.86,0,0-.38.58-.38.58.91-1.88,1.78-3.86,3.08-5.58.36-.48,1-.98,1.6-1.19.67-.23.93-.21,1.56-.33,2.01-.29,4.02-.58,6.07-.75.8-.07,1.82.32,2.49.55,2.11.75,4.48,1.65,6.57,2.05,0,0,1.07.26,1.07.26,2.63.76,5.14,1.16,7.88,1.51,1.99.31,4.29,1.28,6.02,1.56,3.8.36,8.61-.22,12.43-.95,0,0,.06-.02.06-.02,0,0-.04.01-.04.01-.1.07-.28.14-.36.26.29-.31.58-.6.85-.96,2.47-3.13,4.8-6.57,7.11-9.87,0,0-.11,2.51-.11,2.51-2.23-4.72-5.59-11.59-7.8-16.42,0,0,.57.65.57.65-2.33-1.78-4.85-3.74-7.37-5.13,0,0-.23-.11-.23-.11-.06-.02.05,0,0-.04-.7.05-2.06-.51-2.42-.54-.44.08-1,.12-1.38.09-3.6-.14-7.34-.58-10.86-1.02h0ZM518.27,347.56c1.98-.07,7.43-.31,9.36-.43.7-.05,1.5-.07,2.15-.2.24-.07.65-.2.94-.19.72-.03,1.18.2,1.74.25.43.01.89-.01,1.3.1,1.28.38,2.45,1.03,3.51,1.59,1.92,1.19,4.33,2.2,5.93,3.71,0,0,.09.15.09.15,0,0,4.53,7.88,4.53,7.88,1.52,2.62,2.98,5.27,4.47,7.91.43.77.39,1.67-.03,2.38-2.22,3.69-4.39,7.28-6.95,10.79-.45.61-1.02,1.34-1.61,1.84-.94.83-2.27,1.08-3.44,1.35-4.49.83-8.91,1.58-13.46,1.08-3.09-.57-4.95-1.58-7.92-1.78-2.86-.37-5.63-1.33-8.39-1.99-2.49-.66-4.64-1.58-6.96-2.44,0,0-.07-.02.01,0,.13.03.29.05.4.05.41,0-.3.02-.36.03-1.84.13-3.87.31-5.7.53.06.01.72-.24.86-.4,0,0,.13-.1.13-.1.05-.05.1-.11.06-.06l-.06.06-.1.14c-1.05,1.4-1.76,3.2-2.75,4.69-6.16,6.31-16.42,13.07-25.52,9.65-.61-.29-1.41-.64-1.78-1.29,0,0-9.89-16.67-9.89-16.67-.36-.58-.38-1.29-.11-1.86,1.38-3.22,3.07-6.54,3.49-9.97-.02,0,0,.01,0,.01,0-.01.03.04,0-.07-.08-.31-.18-.61-.18-.95-.16-2.24,1.56-3.92,3.35-4.9,0,0-.79.85-.79.85l3.58-7.93s-.13.58-.13.58l.28-5.01c0-.24.07-.48.19-.68,0,0,3.07-5.43,3.07-5.43.04-.06.08-.14.12-.19,0,0,4.74-5.94,4.74-5.94.89-1.1,2.02-2.15,3.51-2.7,2.93-1.22,6.05.43,8.38,1.81.01.01-.01-.02-.24,0-.08,0-.16.03-.24.07,0,0-.04.02-.04.02,0,0,.07-.03.07-.03,1.78-.6,2.52,1.63,3.19,2.71,2.31,4.52,4.28,9.2,6.7,13.6.3.51.7,1.16.93,1.3.25-.01.94,0,1.22.18.41.23.48.31,1.06.31,5.96-.59,11.56-2.7,17.31-4.43h0Z"/><path class="cls-1" d="M221,200.63c-3.12.3-6.28,1.42-9.29,2.32,0,0,.22-.35.22-.35.35,1.99.53,4.05.03,6.05-.28,1.49-1.65,2.65-3.16,2.92-1.91.54-3.93.84-5.85,1.19-.79.17-1.64.22-2.26.57-1,1.01-1.98,2.3-2.81,3.49-.37.54-.76,1.15-.93,1.6.02-.06.03-.12.03-.18,0-.07-.01-.12,0-.11.01,0-.01-.06.02.03.86,2.64,2.48,5.14,2.41,8.11-.06,1.23-1.25,2.71-1.77,3.36-.29.42-.3.55-.29.72.05.82-.12,1.7-.32,2.42-.44,1.7-1.23,3.42-1.23,5.09,0,.11.02.17.03.24,0,.08.02.14.04.16.02.04.02.09.04.08.92,1.26,2.42,2.31,3.86,2.93,2.15,1.05,4.08.29,6.23-.11,4.81-1.11,9.92-2.59,14.35-4.58.79-.37,1.5-.72,2.11-1.23-.1.07-.3.46-.33.67,0,.06.01-.05.02-.07l.05-.23c.11-.58.48-2.26.6-2.86,1-4.11,1.68-8.27,3.83-12.12,1.6-2.27,3.48-3.77,5.12-5.68.05-.05.02-.02.04,0,.01,0,0,.01,0,.07-.02.07,0,.22,0,.22.15-2.86.17-5.91,0-8.76,0,0-.04-.43-.04-.43,0-.11-.06-.29-.01-.22.09.2.5.48.8.48.24,0,.21-.01.14,0-.17-.02-.53-.06-.67-.16-2.48-1.62-4.58-3.59-6.87-5.31,0,0,.24.08.24.08-1.45-.15-2.91-.27-4.36-.38h0ZM221.05,200.03c1.51.09,3.06-.03,4.55.12,2.27,1.4,5.03,3.13,7.2,4.01-.09-.06-.58-.02-.07-.02.99.1,1.24,1.22,1.48,1.93.83,2.96,1.49,5.88,1.96,8.91.04.33.04.65-.02,1.03-.45,1.97-1.67,3.34-2.69,4.84-1.16,1.65-1.91,2.38-2.42,4.16-1.1,3.79-1.9,8.19-2.83,12.05-.32,1.88-1.86,3.23-3.44,4.04-5.71,2.77-11.76,3.71-17.85,4.89-2.89.61-6.51.9-9.09-.59-2.83-1.52-6.27-3.97-6.26-7.51.01-2.65,1.38-4.79,1.93-7.2,0-.02,0-.04.02-.06v-.42c-.02-1.77,1.48-3.16,2.24-4.14.36-.63-.08-1.64-.25-2.43-.42-1.55-1.07-3.09-1.51-4.74-.04-.21-.17-.6-.02-1.23.33-1.06,1.01-1.82,1.58-2.58,1.16-1.39,2.21-2.68,3.7-3.8.41-.28.93-.42,1.36-.49,2.65-.39,5.24-.26,7.84-.71,3.42-.17,3.08-4.84,2.85-7.4-.03-.16.07-.32.22-.35,2.85-.67,6.63-2.02,9.52-2.32h0Z"/><path class="cls-1" d="M252.34,166.8c-4.26.63-8.65,2-12.65,3.65-1.12,2.18-1.81,4.83-2.7,7.2,0,0-2.29,6.78-2.29,6.78,0,0,.04-.18.04-.18-.14,2.81-.52,5.75-.07,8.5,0,.02.02.01-.03-.05-.02-.04-.12-.12-.09-.09,0,0,.12.1.12.1,1.17,1.14,1.64,2.55,2.58,3.59.18.24.34.51.42.78.74,2.71.63,5.93.8,8.72.14.78-.27,1.6-.2,2.29.94.44,2.99.86,4.25,1.29.95.29,2.08.78,2.36,1.87.53,1.79-.1,3.67.14,5.42.24.81.46,1.66.56,2.36.58,3.77.94,7.58,1.28,11.38.13,1.37,1.26,5.71-1.31,6.69-.2.06-.58.12-.73.12-2.64-.03-5.04-.64-7.58-1.13,0,0,1.5-.41,1.5-.41-1.19,1.29-2.86,2.97-3.1,4.63.02.03-.04-.16.08.41.06.35.08.71.03,1.06,0,0-.06.45-.06.45l-.1.36c-1.07,3.21-3.11,5.56-5.16,8.12,0,0,.46-1.23.46-1.23v1.17s-1.18-1.74-1.18-1.74l8.61,3.21c.45.17.79.48,1.01.87,0,0,1.83,3.16,1.83,3.16.54.93.24,2.12-.68,2.68l-.04.03s-2.77,1.7-2.77,1.7c-1.97,1.22-6.37,3.71-8.39,4.92,0,0,.63-.55.63-.55s-3.98,5.23-3.98,5.23l-1.76-3.6c2.26-.01,7.83-.1,10.01-.11,2.19.05,14.23-.84,16.66-.98.21-.01.42,0,.62.04,0,0,15.96,2.89,15.96,2.89,0,0-1.15.02-1.15.02,1.29-.34,3.07-.98,3.91-1.82.02-.02-.03,0-.02.02-.01-.02-.02,0,0-.02.02-.08.04-.16.06-.24.44-2.39.35-5.36.27-7.87-.04-.94.35-1.8,1.01-2.38,0,0,5.13-4.62,5.13-4.62l-.94,3.02s-1.44-5.66-1.44-5.66c-.49-1.88-.93-3.78-1.4-5.67l1.76,2.11c-2.81-1.43-5.93-2.83-7.44-5.92-1.84-5.36-3.56-10.84-5.3-16.23,0,0,.46.86.46.86-2.78-3.69-5.59-7.36-8.34-11.08-.38-.47-.58-1.05-.56-1.62,0,0,.31-12.53.31-12.53l1.24,2.05-4.99-2.82c-1.03-.5-1.47-1.75-.96-2.77.54-1.08,2.09-4.22,2.67-5.27.38-.65.66-1.32,1.3-1.88-.11.07-.21.17-.29.28-.11.17-.04.06-.04.06.57-1.02,1.11-2.27,1.66-3.46,0,0,1.55-3.52,1.55-3.52l.66,1.93s-4.05-2.69-4.05-2.69c0,0-.1-.07-.1-.07-.19-.13-.33-.3-.42-.49l-2.99-6.62c-.23-.42-.14-.96.22-1.25,0,0,3.04-2.57,3.04-2.57l-.11.13,3.5-4.34s.53.84.53.84c0,0-3.83.44-3.83.44h0ZM252.34,166.2s3.64-.9,3.64-.9c.48-.11.85.46.53.84,0,0-2.99,4.71-2.99,4.71-.01.02-.03.04-.05.06l-.06.07s-2.77,2.87-2.77,2.87l.22-1.25s3.6,6.31,3.6,6.31l-.52-.56,4.25,2.36c.7.38.96,1.23.66,1.93-.84,2.35-1.72,5.13-2.75,7.43-.16.34-.43.79-.77,1.06.02.06.41-.43.28-.26-.77,1.5-2,4.54-2.67,6.13,0,0-.96-2.77-.96-2.77l5.15,2.51c.81.39,1.26,1.21,1.24,2.05,0,0,.31,12.53.31,12.53l-.56-1.62c3.02,3.85,6.4,7.5,9.17,11.5,1.71,4.73,3.41,9.57,5.06,14.33,0,0,.5,1.42.5,1.42.03.1,0,0,0,0,0-.02-.02-.05-.03-.07-.05-.06,0-.02,0-.02.86.96,2.69,1.97,4.31,2.73.91.4,1.54,1.21,1.76,2.11.46,1.89.95,3.78,1.38,5.67l1.34,5.68c.29,1.14-.12,2.3-.94,3.02,0,0-5.2,4.53-5.2,4.53l1.01-2.37c.04,3.28.1,6.24-.66,9.56-.24.86-.65,1.85-1.27,2.52-2.06,2.19-4.43,2.81-7.05,3.52-.39.09-.79.09-1.16.02,0,0-15.88-3.34-15.88-3.34,0,0,.62.04.62.04,0,0-13.46.54-13.46.54-3.85.12-9.59-.09-13.48-.08-1.82.07-2.93-2.22-1.76-3.6,0,0,4.09-5.14,4.09-5.14,0,0,.03-.04.03-.04.17-.21.38-.39.6-.51,2.07-1.14,6.49-3.58,8.45-4.7,0,0,2.77-1.62,2.77-1.62l-.72,2.71-1.76-3.2,1,.87s-8.54-3.41-8.54-3.41c-.74-.28-1.2-.99-1.19-1.74,0,0,.01-1.17.01-1.17,0-.47.18-.9.47-1.23,1.69-1.99,3.97-4.6,4.65-6.92.07.2-.06-.35-.1-.69-.14-1.34.56-2.76,1.14-3.65.94-1.44,1.96-2.57,3.14-3.71.41-.39.97-.53,1.49-.41,2.17.48,4.52,1.08,6.71,1.22.06,0,.04,0,.01,0-.05.03-.11.04-.17.06-.25.11-.39.26-.49.44.04-.17.09-.57.09-.87-.33-4.71-.63-9.56-1.18-14.27-.13-1.29-.61-2.17-.55-3.37-.02-1.26.35-3.04.16-4.1,0,0,.02.03.05.06,0,.02.11.05.04.02-.07-.04-.14-.08-.25-.13-1.78-.83-3.83-.97-5.54-2.08-1.19-.93-.79-2.49-.53-3.66,0-.04,0,0,.01.04l-.03-.31s-.04-3.26-.04-3.26c-.06-1.67-.04-3.53-.44-5.06-.89-1.06-1.54-2.69-2.38-3.58-.02-.02-.17-.15-.23-.24-.12-.17-.17-.3-.21-.41-.59-3.09.02-6.18.22-9.26,0-.06.02-.12.04-.18,0,0,2.49-6.73,2.49-6.73,1-2.46,1.77-5.04,3.07-7.41,1.94-1.2,4.26-1.51,6.41-2.18,2.35-.55,4.67-1.3,7.1-1.41h0Z"/><path class="cls-1" d="M407.34,125.32c-1.65,4.11-3.3,8.21-4.99,12.3l.06-.54c1.22,4.76,4.92,19.07,6.05,23.59.08.36.33,1.26.41,1.61.03-.12-.18-.48-.03-.27,1.81,1.92,4.2,3.76,6.29,5.44,0,0-1.16-.48-1.16-.48,4.87.16,10.02.56,14.79-.37,2.15-.5,3.31-2.14,5.47-3.03,4.73-1.69,9.56-1.19,14.48-1.1,0,0-2.56,1.11-2.56,1.11,1.29-1.51,2.69-3.46,3.31-4.9.15-.34.19-.6.23-.57,0,.06.01.12.05.17.04.07,0-.04-.02-.11,0,0-.07-.22-.07-.22-1.25-3.65-1.52-8.41,1.78-11.25-.11.09-.22.22-.28.36.18-.22.46-.83.68-1.34.99-2.15,1.91-4.46,2.89-6.69,1.37-1.26,3.09-2.19,4.64-3.27.26-.18.62.18.41.44-1.08,1.44-2.2,2.85-3.34,4.22l.31-.51c-.51,3.08-.84,5.98-1.92,9.02-.13.32-.38.64-.61.88-2.73,6.35,5.84,5.74-3.32,17.77-.63.81-1.6,1.19-2.56,1.11-3.38-.09-7.13-.2-10.53-.05-1.26.1-1.82.29-2.97.98-1.31.87-3.35,1.8-5,2.04-5.48.73-10.83.05-16.26-.44-.44-.03-.86-.2-1.16-.48-2.36-2.16-4.61-3.98-6.61-6.57-.62-.76-.66-1.94-.86-2.86-.85-4.44-3.43-19.16-4.25-23.83-.04-.18-.03-.38.06-.54,1.98-3.95,4-7.89,6.02-11.83.19-.32.67-.11.55.25h0Z"/><path class="cls-1" d="M38.02,319.7c-.34,18.53,9,36.69,24.03,47.45,0,0-1.75.31-1.75.31,3.03-5.05,7.29-11.81,10.35-16.72,0,0,.35,2.1.35,2.1-6.47-4.98-11.46-11.89-14.1-19.67-7.08-19.88,2.05-43.61,21.3-52.75,3.78-1.83,7.86-3.08,12.05-3.69,0,0-2.57,2.89-2.57,2.89-.07-5.72-.18-13.8-.22-19.59,0,0,3.37,3.12,3.37,3.12-8.61.64-16.98,3.51-24.38,7.96-17.15,10.37-28.12,28.38-28.44,48.6h0ZM37.42,319.7c-.29-22.36,10.63-45.49,30.92-56.29,6.74-3.69,14.32-5.89,22.01-6.5,1.71-.15,3.23,1.13,3.36,2.84-.08,6-.07,14.05-.21,19.94-.03,1.46-1.15,2.65-2.56,2.8-7.16.8-14.2,3.75-19.62,8.74-17.51,15.38-16.64,44.62,1.63,59.1.65.5.8,1.43.35,2.1-1.81,2.73-3.62,5.46-5.46,8.17-.03,0-5.51,8.18-5.54,8.18-.38.57-1.18.69-1.72.26-14.85-11.83-22.99-30.61-23.17-49.37h0Z"/><path class="cls-1" d="M113.06,355.11c-10.31,6.72-24.06,7.2-35.21,2.07,0,0,2.09-.65,2.09-.65-3.05,5.84-6.07,11.69-9.16,17.5l-.86-2.94c4.07,2.04,8.37,3.58,12.79,4.5,13.27,2.56,27.19.14,39.25-5.83,0,0-.82,3.21-.82,3.21-2.42-4.91-5.81-12.75-8.08-17.86h0ZM113.21,354.53c2.95,3.77,6.13,7.78,8.92,11.71,1.01,1.43,2.05,2.87,3.04,4.35.67,1.01.41,2.37-.6,3.05-12.4,8.79-28.52,11.04-43.04,6.82-4.78-1.29-9.37-3.17-13.65-5.59-1.06-.54-1.47-1.87-.88-2.91,3.35-5.68,6.77-11.33,10.15-16.98.4-.76,1.34-1.05,2.09-.65,10.49,5.76,23.29,5.52,33.95.19h0Z"/><path class="cls-1" d="M133.65,319.48c-.08,11.49-4.81,22.84-13.15,30.82,0,0,.09-.87.09-.87,4.01,5.15,8.08,10.26,12.05,15.45,0,0-1.77-.19-1.77-.19,12.4-11.41,19.55-27.92,19.32-44.7-.18-15.92-6.7-31.51-18.4-42.36-6.09-5.5-13.15-9.7-20.96-12.18-1.4-.35-3.5-.94-4.89-1.31-.81-.15-4.15-.69-4.99-.85,0,0,3.45-3.08,3.45-3.08-.07,6.57-.16,13.13-.39,19.7,0,0-2.24-2.66-2.24-2.66,19.36,3.96,32.32,22.99,31.89,42.23h0ZM133.05,319.48c-.14-17.28-12.22-32.52-29.05-36.34,0,0-3.16-.57-3.16-.57-1.28-.23-2.19-1.32-2.24-2.56-.24-6.6-.33-13.2-.4-19.8-.07-1.68,1.26-3.09,2.94-3.11.17,0,.35.01.51.04,0,0,4.48.72,4.48.72,0,0,1.12.19,1.12.19,0,0,1.1.29,1.1.29,9.53,2.25,18.48,7.1,25.59,13.8,1.59,1.37,3.3,3.27,4.7,4.83,1.07,1.07,3.2,4.05,4.17,5.27,11.01,15.89,14.37,36.73,8.69,55.21-3.38,11.29-10.05,21.57-19.05,29.06-.5.45-1.28.4-1.71-.12-3.8-5.35-7.48-10.79-11.22-16.18-.21-.27-.17-.65.09-.87,8.63-7.27,13.6-18.58,13.43-29.85h0Z"/><path class="cls-1" d="M352.91,614.21c-.2.15-.28.13-.41.17-2.31.65-4.98,1.32-6.95,2.62-.18.12-.28.24-.4.38-2.08,2.57-5.14,4.3-6.97,7.03-.09.13-.03.17,0,.38,1,3.67,2.61,7.38,4.02,10.95,0,0-1.2-.83-1.2-.83,8.86.2,10.78,3.46,9.83,11.91.39,6.4.39,14.43.44,20.86,0,0-1.2-2-1.2-2,0,0,6.39,3.06,6.39,3.06l-3.06.84,7.29-12.15-.39,1.95c-.58-3.3-1.21-6.33-.86-9.75.07-.86.62-2.54,1.58-3.26.14-.15.28-.22.43-.39,1.39-1.34,2.68-3,3.87-4.58.98-1.34,1.93-2.75,2.71-4.16,1.54-3.31,2.22-7.04,2.72-10.71,0,0,.5,1.76.5,1.76-1.95-2.93-4.58-7.1-6.42-10.03,0,0,.86.68.86.68-4.53-2.24-9.01-4.57-13.44-7.03,0,0,.9-.64.9-.64-.04,1.06-.16,2.07-.24,2.95h0ZM352.43,613.84c-.19-1.37-1.32-3.57.32-3.14,4.86,1.39,9.69,2.9,14.47,4.52.28.1.52.27.7.48,2.31,2.7,5.4,6.64,7.67,9.44.42.52.56,1.14.5,1.76-.28,4.37-.74,8.86-2.54,12.97-2.21,4.25-5.01,8.1-8.69,11.22.21-.13.45-.45.54-.63.11-.26.02-.1-.01.09-.19,1.04-.14,2.53-.08,3.71.07,1.37.22,2.82.39,4.18.13.68-.01,1.41-.39,1.95,0,0-7.94,11.74-7.94,11.74-.64,1.05-2,1.41-3.06.84,0,0-6.24-3.35-6.24-3.35-.78-.38-1.24-1.18-1.2-2,.28-6.47.59-14.65.54-21,.24-2.22.66-4.25.11-6.37-.63-2.02-4.48-2.59-6.53-2.74-.54,0-1.04-.34-1.2-.83-.86-2.51-1.68-5.02-2.44-7.57-.37-1.29-.75-2.52-1.01-3.97-.16-.68.12-1.55.59-2.05,2.06-2.45,4.88-4.04,7.13-6.24.22-.23.56-.62.84-.76,2.39-1.35,4.89-1.73,7.48-2.29,0,0,.12-.02.12-.02.09-.02-.03,0-.05.09h0Z"/><path class="cls-1" d="M322.72,546.78c-2.36,1.09-10.52,4.64-10.4,7.33,3.19,6.53,7.25,12.64,11.01,18.87.13.2.18.42.18.64,0,0,.29,13.52.29,13.52l-.67-1.29,9.74,6.6c2.3,2.13,4.22,3.8,5.36,7.04.4,1.86,1.19,5.66,1.57,7.52,0,0-.86-1.3-.86-1.3l3.3,2.2-1.99-.27c2.27-.97,5.08-2.1,6.57-3.8-.06.04-.12.56,0,.75,0,0-.09-.29-.09-.29-.81-3-.58-6.28-.59-9.23.05-2.19.14-4.33.26-6.53.05-.96.61-1.72,1.39-2.16,1.12-.76,2.32-1.64,2.87-2.68.44-3.49.47-7.35.64-10.98,0,0,.18,1.17.18,1.17-1.03-3.19-2-6.13-2.03-9.61.03-.63.15-1.34.32-1.93,2.25-7.03,6.83-13.86,10.73-20.1,0,0-.3,1.14-.3,1.14l.33-5.77,1.78,1.96c-6.7-1.03-13.36-2.15-20-3.53-.16-.03-.27-.19-.23-.36.03-.14.15-.24.29-.24,5.09-.11,10.16-.05,15.24.07,1.69.04,3.38.07,5.07.14,1.05.04,1.82.94,1.78,1.96,0,0,.33,5.77.33,5.77.03.42-.11.79-.3,1.14-3.07,6.12-7.06,13.07-8.88,19.63.04,2.33.93,5.07,1.77,7.65.14.38.2.79.18,1.17-.25,4.01-.35,7.93-1.13,11.96-.49,2-2.12,3.66-3.66,4.81-.73.54-1.38.97-2.24,1.45l1.39-2.16c-.43,4.03-.84,8.4-.73,12.38,0,0,.04.69.04.69l.07.58c1.04,2.8-1.21,5.02-3.26,6.21-2.1,1.27-4.11,2.09-6.29,2.88-.68.26-1.44.13-2-.27,0,0-3.21-2.33-3.21-2.33-.46-.31-.78-.78-.86-1.3,0,0-1.25-7.44-1.25-7.44-.13-.65-.76-1.68-1.45-2.56-.7-.9-1.54-1.82-2.35-2.6l.16.13-9.47-6.97c-.44-.3-.68-.8-.67-1.3,0,0,.35-13.52.35-13.52l.17.64c-2.91-5.29-5.81-10.56-8.51-15.99-.5-1.03-1.01-2.06-1.44-3.14,0,0-.21-.57-.21-.57-.08-.28-.12-.57-.08-.85.77-3.64,8.46-6.19,11.6-7.5.38-.12.57.41.22.56h0Z"/><path class="cls-1" d="M448.68,527.53c-3.07.95-7.75,2.18-10.93,2.94,0,0,.21-.11.21-.11-2.03,1.92-4.25,3.94-5.9,6.15-.11.18-.2.32-.26.49-.95,2.6-2.73,4.78-4.27,7.04,0,0-6.58,6.49-6.58,6.49-.12.12-.27.19-.42.22,0,0-4.49,1.02-4.49,1.02l.73-1.05,1.61,9.89c.08.52-.22,1-.7,1.16,0,0-6.22,2.28-6.22,2.28s.43-.27.43-.27-4.77,4.89-4.77,4.89c-.19.19-.42.31-.67.35,0,0-7.29,1.34-7.29,1.34-.41.07-.8-.05-1.09-.3-1.26-1.14-2.62-2.36-2.95-4.16-.09-.68-.52-4.97-.61-5.71,0,0,.21.63.21.63-.29-.43-.77-.97-1.1-1.18-.17-.11-.28-.12-.22-.1.09-.01-.1.02-.22.05-2.34.67-4.89,1.52-7.01,2.74,0,0-.03.02-.03.02-.02.01,0,0,.04-.04.06-.05.11-.12.15-.2.02-.03.04-.1.02-.04-.14.26-.41.73-.58.99-.18.26-.3.58-.24.43,0-.05.02-.16,0-.31-.04-.22-.19-.49-.33-.59.09.08.3.27.39.35.62.6,1.13,1.15,1.67,1.75l-.35-.31,6.37,4.07c.52.33.8.9.8,1.48,0,0,.05,4.6.05,4.6,0,.48-.18.91-.49,1.24,0,0-2.19,2.4-2.19,2.4l.5-1.26.04,4.18-.84-1.57c1.73,1.16,4.13,2.69,5.9,3.72,0,0-2.58.45-2.58.45l3.35-4.34c.42-.47,1.06-.9,1.44-1.36,1.08-1.64,2.35-2.88,3.65-4.2.38-.38.87-.58,1.37-.59,1.4-.08,3.1.18,4.24.78-.02,0-.08-.01-.05-.01.04.01.09-.02.6.04.5.06,1.23.44,1.56.86,1.2,1.52,1.33,3.51,1.56,5.15.11,1.06.18,2.07.22,3.15l-.09-.6c.16.59.21.95.24,1.45.14,1.21-.42,2.59-.8,3.61,0,0-1.3,3.62-1.3,3.62-.16.44-.44.79-.79,1.04-3.19,2.55-6.81,4.64-10.92,5.25-1.87.27-3.44-.03-5.1.42-.18.05-.17.09,0-.02.36-.3.43-.37.68-.91-.92,1.48-3.19,3.26-3.94,4.54-1.14,2.36-2.89,4.44-3.6,6.82,0,0,0,.04,0-.19,0-.06-.04-.21-.04-.19.49,2.13.57,4.8,1.56,6.67,2.29,3.78,4.49,8.1,7,11.65,0,0,.4.5.4.5.05.05.09.09.14.14.09.11-.05-.07-.13-.09-.02-.01-.05-.02-.07-.03,0,0-.06-.02,0,0,1.49.87,2.47,2.38,3.26,3.79,1.05,2.02,1.86,3.8,2.09,6.23.07.74-.07,1.66-.44,2.45.2-.31.27-.79.25-1.07-.07-.33.11.32.35.69.7,1.3,1.67,2.67,2.58,3.85,0,0-1.59-1.06-1.59-1.06,0,0,5.21,1.48,5.21,1.48,0,0-3.75,1.88-3.75,1.88,1.32-3.71,3.06-7.31,3.8-11.18.53-3.38,1.06-8.76,1.45-12.27.03-.45.19-.89.42-1.25.99-1.54,1.98-3.11,2.94-4.67,0,0,1.39-2.34,1.39-2.34.35-.59.69-1.22.98-1.82,0,0,.04-.07.04-.07.02-.03,0,0-.02.06-.01.05-.02.1-.03.15-.01.08-.01.24,0,.26v-.27c.31-3.07,1.07-7.85,1.5-10.96.07-.76.55-1.42,1.18-1.75,0,0,5.76-2.99,5.76-2.99.32-.18.7-.28,1.05-.27,0,0,4.18.13,4.18.13.24,0,.51.04.73.14,3.02,1.26,6.03,2.54,9.02,3.87,3.31,1.72,7.25,2.15,10.76.74,5.19-2.03,10.83-4.18,16.05-6.11.16-.06.33.02.39.18.05.14-.01.3-.14.37-4.93,2.57-10.33,5.27-15.32,7.75-3.62,1.83-8.01,2.04-11.81.63,0,0-1.15-.41-1.15-.41l-9.24-3.25.73.14-4.18.13,1.05-.27-5.58,3.32s1.18-1.75,1.18-1.75c-.18,1.79-.63,6.58-.78,8.33,0,0-.23,2.95-.23,2.95l-.07.32c-.32,1.09-.86,2.06-1.35,3.05-1.34,2.55-2.78,4.97-4.24,7.43,0,0,.42-1.25.42-1.25-.32,3.7-.62,8.93-1.09,12.62-.67,4.33-2.51,8.46-3.95,12.57-.58,1.52-2.22,2.32-3.75,1.88,0,0-5.22-1.46-5.22-1.46-1.91-.63-2.66-2.7-3.81-4.17-.85-1.48-1.47-2.28-1.93-4.23-.19-.9-.1-1.88.31-2.77.04-.09,0,0-.02.02-.13.2-.16.6-.17.55-.01.05,0,.13,0,.05-.1-1.13-.74-2.54-1.28-3.64-.3-.55-.58-1.05-.94-1.45,0,0-.08-.09,0,0,.03.03.08.04.12.06-.67-.38-1.31-1.07-1.58-1.39-2.13-2.69-3.7-5.82-5.29-8.73,0,0-1.64-3.08-1.64-3.08-.59-1.1-1.47-2.58-1.72-3.72-.55-1.93-.69-3.67-.95-5.51-.13-.61-.24-1.63-.1-2.17.63-2.85,2.44-5.13,3.84-7.49,0,0,.32-.54.33-.54,1.08-2.11,2.99-3.64,4.64-5.28,0,0-.6.88-.6.88.36-.85.96-1.28,1.67-1.64,2.12-.98,4.69-.62,6.79-.78,2.46-.31,4.96-1.46,7.02-2.86,0,0,1.78-1.28,1.78-1.28l-.79,1.04c.4-1.03,1.55-4.02,1.92-5.01.06-.12,0-.66-.02-.76-.22-1.82-.11-4.16-.62-5.85-.05-.18-.13-.38-.14-.41,0-.02,0,.02.14.18.18.23.67.49.93.51.26.03.06,0-.14,0-.44.05-1.76-.47-1.78-.54-.34-.18-1.29-.32-1.95-.31l1.37-.59c-.93.9-1.87,1.81-2.65,2.74-.63,1.05-1.55,1.89-2.53,2.66,0,0,.34-.34.34-.34l-3.45,4.27c-.62.8-1.75.99-2.58.45-1.78-1.09-4.21-2.72-5.94-3.93-.54-.36-.84-.97-.84-1.57,0,0,.04-4.18.04-4.18,0-.48.19-.93.5-1.26,0,0,2.24-2.36,2.24-2.36l-.49,1.24s.05-4.6.05-4.6l.8,1.48-6.28-4.2c-.66-.53-1.18-1.33-1.78-1.88,0,0-.16-.16-.16-.16,0,0-.07-.07-.07-.07-.59-.46-.94-1.47-.76-2.18.21-.9.51-1.24.73-1.61.16-.25.77-1.25,1.03-1.42,2.42-1.61,5.13-2.3,7.88-3.14.57-.13.83-.24,1.53-.26.82.02,1.43.34,1.88.64,1.01.8,1.87,1.6,2.17,2.77.03.51.42,5.31.44,5.63.27.92,1.18,1.76,1.9,2.45,0,0-1.09-.3-1.09-.3l7.32-1.14s-.67.35-.67.35l4.9-4.76c.12-.12.28-.22.43-.27,0,0,6.28-2.11,6.28-2.11,0,0-.7,1.16-.7,1.16l-1.34-9.93c-.08-.49.25-.95.73-1.05,0,0,4.52-.89,4.52-.89l-.42.22,6.75-6.31c1.01-1.45,3.19-4.14,4.06-6.22.08-.31.31-.7.48-.95,1.97-2.38,4.13-4.38,6.49-6.27,0,0,5.5-1.2,5.5-1.2,1.83-.43,3.68-.83,5.45-1.37.16-.05.33.04.37.2.05.16-.04.32-.19.37h0Z"/><path class="cls-1" d="M264.92,670.75c-.57-9.33-1.46-19.2-1.88-28.7-.05-1.18.93-2.13,2.09-2.09,0,0,6.76-.31,6.76-.31,1.36-.07,2.45,1.06,2.41,2.41.18,4.7.79,9.41.71,14.12-.09,4.92-.57,9.83-1.41,14.7-.13.79-.86,1.32-1.65,1.23-2.39-.24-4.9-.8-7.03-1.36h0ZM265.33,670.31c2.36-.53,4.37-1.28,6.49-1.82,0,0-1.74,1.8-1.74,1.8-.77-4.68-1.22-9.39-1.31-14.12-.09-4.71.52-9.42.71-14.12,0,0,2.41,2.41,2.41,2.41,0,0-6.76-.31-6.76-.31l2.09-2.09c-.49,9.5-1.36,18.6-1.88,28.26h0Z"/><path class="cls-1" d="M285.27,669.64c-2.43.14-5,.38-7.66.49-.37.02-.69-.27-.7-.64-.31-6.8-.68-13.6-.94-20.4-.26-6.78-.56-13.56-.75-20.34-.05-1.37,1.1-2.37,2.4-2.4,1.24-.17,2.48-.28,3.72-.39,1.24-.08,2.48-.18,3.72-.23,1.59-.05,2.93,1.18,3,2.76.59,13.64-.55,27.83-2.79,41.14h0ZM284.85,669.22c-1.75-13.71-3.46-26.8-2.8-40.47,0,0,3.01,3.01,3.01,3.01-2.49-.11-4.97-.29-7.45-.61,0,0,2.4-2.4,2.4-2.4-.42,13.57-1.03,27.13-1.69,40.68,0,0-.71-.71-.71-.71,2.31.11,4.7.35,7.23.49h0Z"/><path class="cls-1" d="M297.22,667.9c-2.24.15-4.64.42-7.13.54-.39.02-.73-.28-.75-.68-.3-5.45-.67-10.89-.92-16.34-.25-5.42-.55-10.84-.73-16.26-.06-1.38,1.1-2.35,2.4-2.4,2.3-.37,4.61-.54,6.92-.66,1.73-.09,3.11,1.35,3.06,3.06.46,10.96-.61,22.21-2.85,32.74h0ZM296.79,667.47c-1.66-10.91-3.42-21.48-2.85-32.31,0,0,3.06,3.06,3.06,3.06-2.32-.11-4.62-.29-6.92-.66,0,0,2.4-2.4,2.4-2.4-.18,5.42-.48,10.84-.73,16.26-.25,5.42-.61,10.84-.91,16.26l-.75-.75c2.12.12,4.33.39,6.71.54h0Z"/><path class="cls-1" d="M310.23,667.15c-2.35.14-4.84.37-7.41.49-.37.02-.68-.27-.7-.64-.31-6.71-.68-13.42-.95-20.13-.26-6.69-.57-13.38-.76-20.07.03-2.99,3.64-2.41,6-2.78,1.2-.08,2.4-.18,3.6-.23,1.59-.05,2.92,1.17,3,2.75.61,13.46-.53,27.48-2.78,40.61h0ZM309.81,666.73c-1.75-13.53-3.47-26.44-2.8-39.93,0,0,3.01,3.01,3.01,3.01-2.41-.11-4.81-.29-7.2-.61,0,0,2.4-2.4,2.4-2.4-.42,13.38-1.04,26.77-1.7,40.14,0,0-.7-.7-.7-.7,2.23.11,4.53.35,6.99.49h0Z"/><path class="cls-1" d="M160.43,684.88c-1.9.12-3.93.29-6.01.39-.34.02-.62-.27-.6-.6-.69-14.91-1.37-30.38-1.8-45.26-.04-1.36,1.09-2.38,2.4-2.4,1.93-.25,3.86-.39,5.79-.51,1.5-.09,2.79,1.04,2.89,2.54.81,15.27-.35,30.89-2.67,45.83h0ZM160.01,684.46c-1.83-15.17-3.59-29.94-2.69-45.05,0,0,2.91,2.91,2.91,2.91-1.93-.12-3.86-.26-5.79-.51l2.4-2.4c-.2,7.54-.52,15.09-.79,22.63-.24,6.56-.71,15.98-1,22.63,0,0-.6-.6-.6-.6,0,0,5.58.39,5.58.39h0Z"/><path class="cls-1" d="M173.78,683.98c-2.23.11-4.58.27-6.97.36-.32.01-.58-.25-.57-.57-.69-19.79-1.41-41.34-1.83-61.06-.03-1.35,1.09-2.4,2.4-2.4,2.25-.21,4.5-.36,6.76-.46,1.51-.07,2.78,1.1,2.85,2.6.9,20.48-.35,41.34-2.64,61.53h0ZM173.35,683.56c-1.91-20.46-3.63-40.48-2.65-60.85,0,0,2.86,2.86,2.86,2.86-2.25-.1-4.5-.25-6.76-.46l2.4-2.4c-.42,19.71-1.14,41.29-1.83,61.06,0,0-.57-.57-.57-.57l6.54.36h0Z"/><path class="cls-1" d="M184.24,682.8c-1.87.12-3.86.28-5.9.37-.33.01-.59-.26-.58-.58-.71-16.14-1.39-32.91-1.82-49.01-.04-1.36,1.09-2.38,2.4-2.4,1.9-.22,3.79-.37,5.69-.48,1.49-.08,2.77,1.06,2.86,2.55.88,16.5-.32,33.37-2.65,49.55h0ZM183.82,682.38c-1.86-16.43-3.62-32.44-2.66-48.8,0,0,2.88,2.88,2.88,2.88-1.9-.11-3.79-.25-5.69-.48l2.4-2.4c-.43,16.09-1.11,32.88-1.82,49.01,0,0-.58-.58-.58-.58,1.76.09,3.56.25,5.48.37h0Z"/><path class="cls-1" d="M196.94,681.75c-2.26.13-4.65.31-7.1.41-.35.02-.64-.28-.63-.63-.68-16.37-1.35-33.36-1.77-49.69-.04-1.36,1.09-2.38,2.4-2.4,2.3-.27,4.59-.4,6.89-.53,1.52-.09,2.83,1.07,2.92,2.6.76,16.66-.42,33.85-2.71,50.24h0ZM196.52,681.33c-1.85-16.69-3.55-32.8-2.72-49.48,0,0,2.93,2.93,2.93,2.93-2.3-.13-4.59-.27-6.89-.53l2.4-2.4c-.2,8.28-.52,16.56-.78,24.84-.24,7.21-.7,17.54-.99,24.84,0,0-.63-.63-.63-.63,0,0,6.68.41,6.68.41h0Z"/><path class="cls-1" d="M208.12,680c-2.05.11-4.22.27-6.43.35-.32.01-.57-.25-.56-.56-.7-18.5-1.41-38.64-1.84-57.08-.04-1.35,1.09-2.39,2.4-2.4,2.07-.2,4.15-.36,6.22-.46,1.5-.07,2.77,1.08,2.84,2.58.91,19.16-.33,38.7-2.63,57.57h0ZM207.69,679.57c-1.9-19.13-3.63-37.82-2.64-56.87,0,0,2.86,2.86,2.86,2.86-2.07-.1-4.15-.25-6.22-.46l2.4-2.4c-.42,18.42-1.14,38.6-1.84,57.08,0,0-.56-.56-.56-.56,1.94.08,3.92.24,6.01.35h0Z"/><path class="cls-1" d="M220.67,679.52c-2.11.11-4.32.25-6.57.32-.3,0-.54-.24-.53-.53-.62-19.78-1.52-47.55-1.87-67.05-.03-1.35,1.09-2.4,2.4-2.4,2.12-.18,4.24-.32,6.36-.42,1.59-.08,2.87,1.24,2.82,2.82.96,22.29-.32,45.19-2.6,67.26h0ZM220.25,679.1c-1.95-22.47-3.66-44.39-2.61-66.84,0,0,2.82,2.82,2.82,2.82-2.12-.1-4.24-.23-6.36-.42,0,0,2.4-2.4,2.4-2.4-.36,19.39-1.24,47.38-1.87,67.05,0,0-.53-.53-.53-.53,1.99.07,4.02.21,6.15.32h0Z"/><path class="cls-1" d="M100.81,585.2c-9.41.78-17.56-7.09-19.53-15.97-1.58-6.96-.14-14.75,4.28-20.5,5.44-7.21,17.59-8.95,23.84-2.07.21.22-.02.59-.31.51-7.75-2.19-15.32.77-20.05,6.94-6.71,8.04-4.77,21.8,4.03,27.74,2.26,1.5,4.92,2.49,7.74,2.74.36,0,.36.59,0,.6h0Z"/><path class="cls-1" d="M119.05,616.62c.73,9.86-5.96,20.24-16.18,21.8-10.9,1.82-20.58-7.3-22.63-17.58-2.97-12.29,7.13-27.27,20.56-24.69.32.07.31.54,0,.6-9.54,2.12-15.1,11.36-14.83,20.68-.42,11.37,10.21,21.09,21.39,16.3,6.62-2.81,10.66-9.97,11.09-17.11,0-.38.6-.38.6,0h0Z"/><path class="cls-1" d="M82.56,667.49c-.53-7.78,3.32-15.9,10.35-19.81,12.41-6.73,25.84,2.76,28.45,15.59,2.97,12.29-7.13,27.28-20.56,24.69-.32-.07-.31-.54,0-.6,9.54-2.12,15.1-11.36,14.83-20.68.4-11.39-10.2-21.09-21.39-16.31-6.6,2.8-10.7,9.98-11.08,17.12,0,.37-.59.36-.6,0h0Z"/></svg>