<?xml version="1.0" encoding="UTF-8"?><svg id="Layer_2" xmlns="http://www.w3.org/2000/svg" viewBox="0 0 635.2 793.86"><defs><style>.cls-1{fill:#fff;stroke:#fff;stroke-miterlimit:10;stroke-width:2px;}</style></defs><path class="cls-1" d="M112.44,330.07c-2.07,4.54-1.61,9.3-1.18,14.04.54,6.02,2.42,11.67,5.01,17.09,3.14,6.56,6.99,12.64,11.56,18.32,3.01,3.74,6.96,6.46,10,10.13,3.86,4.65,8.34,8.81,12.8,12.77,6.41,5.69,12.08,12.39,19.87,16.45.92.48,1.78,1.09,2.31,2.14.29.57,1.04,1.09,1.82.7.81-.41.29-1.1.2-1.71-.43-3.18-1.7-6.16-2.31-9.29-1.97-10.19.19-19.83,3.95-29.31,3.35-8.44,7.72-16.33,12.16-24.2,1.19-2.1,2.83-3.94,4.28-5.88.33-.44.74-1.08,1.37-.51.54.49.15.93-.26,1.43-6.64,8.1-10.74,17.61-15.05,27.02-2.42,5.28-4.24,10.74-5.23,16.44-1.05,6.06-.66,12.05,1.25,17.97,1.04,3.22,1.61,6.59,2.44,10.08,2.06-1.41,3.44-3.32,4.94-5.06,3.27-3.78,6.49-7.62,9.59-11.55,1.76-2.24,4.12-3.46,6.56-4.67.73-.36,1.15-.13,1.59.5,1.39,1.98,2.85,3.92,4.28,5.88.59.81.77,1.62.28,2.59-3.42,6.73-4.16,14.19-5.82,21.39-.61,2.64-1.23,5.27-1.9,8.08,6.33.38,11.34,3.74,16.27,7.22,3.17,2.24,5.17,5.5,7.3,8.62,2.44,3.59,4.67,7.32,7.09,10.93,1.45,2.15,2.37,4.54,3.36,6.89.23.55.15,1.27.1,1.9-.04.48-.45.72-.92.72-.4,0-.67-.3-.71-.67-.5-4.51-3.38-7.91-5.6-11.57-2.51-4.15-5.19-8.23-8.18-12.04-3.12-3.98-7.37-6.63-12.1-8.44-2.26-.87-4.58-1.59-7.02-2.42-.67,6.57-2.51,12.88-4.25,19.18-3.41,12.33-5.12,24.98-7.36,37.52-.8,4.47-.67,9.12-.9,13.69-.42,8.55-1.09,17.1-.83,25.65.44,13.95-4.11,26.53-10.48,38.54-4.35,8.2-8.43,16.51-12.49,24.85-3.56,7.33-7.71,14.31-12.7,20.78-3.5,4.53-6.39,9.48-9.38,14.35-4.72,7.68-10.24,14.77-15.69,21.93-6,7.89-12.02,15.78-17.22,24.23-3.38,5.48-8.13,9.9-11.63,15.26-6.59,10.08-15.13,18.59-22.38,28.13-3.45,4.54-6.62,9.26-9.53,14.18-4.18,7.06-8.76,13.88-13.01,20.9-1.89,3.13-4.33,5.85-6.14,9.01-.41.71-1.74,1.44-.28,2.75.62.56-.82,1.26-1.55,1.51-.6.21-1.25,1.12-1.92.4-.74-.8.15-1.4.55-2.02,6.92-10.71,14.21-21.19,20.65-32.18,6.58-11.22,14.56-21.26,23.08-30.97,4.66-5.32,8.27-11.46,12.64-17,3.61-4.58,7.26-9.09,10.47-13.98,5.91-9,12.27-17.7,19.01-26.1,6.4-7.98,11.79-16.64,17.12-25.34,2.46-4.02,5.59-7.57,8.18-11.49,3.81-5.76,7.19-11.76,10-18.11,4.8-10.86,10.93-21.08,15.7-31.98,3.16-7.22,4.54-14.82,5.61-22.5.44-3.14-.09-6.39-.04-9.6.11-7.08.6-14.13.77-21.2.33-13.12,2.87-25.9,5.34-38.7,2.25-11.67,5.81-23.04,7.96-34.74,1.35-7.34,3.29-14.57,5.03-21.83.41-1.72.95-3.45,1.74-5.02.67-1.35.67-2.34-.39-3.39-.45-.44-.75-1.04-1.16-1.52-2.59-3.01-3.59-3.26-6.43-.27-3.93,4.14-7.23,8.87-11.22,12.95-5.1,5.22-8.05,12.11-13.78,16.84-3.56,2.93-7.29,5.51-11.43,7.44-10.56,4.92-18.84,12.47-25.96,21.53-7.32,9.32-12.93,19.78-19.73,29.44-11.96,16.99-22.95,34.62-34.56,51.85-5.03,7.47-10.62,14.5-15.87,21.79-5.93,8.22-12.19,16.2-17.57,24.81-7.08,11.35-13.58,22.95-16.92,36.05-.99,3.88-2.51,7.59-4.13,11.25-.99,2.23-2.34,4.23-4.12,5.95-3.88,3.73-6.77,8.26-9.99,12.64-.35-2.27-.38-2.29,1-4.07,2.79-3.61,5.51-7.25,8.75-10.52,3-3.03,4.23-7.22,5.51-11.19,2.7-8.42,5.32-16.87,9.25-24.83,2.05-4.15,4.72-7.95,7-11.97,6.66-11.74,14.9-22.4,23.15-32.98,6.93-8.89,13.02-18.32,19.41-27.55,6.74-9.73,12.67-20.02,19.46-29.72,7.24-10.34,14.14-20.91,20.95-31.52,3.88-6.04,8.07-11.75,12.88-16.99,5.72-6.25,12.27-11.55,20.04-15.13,6.59-3.04,12.32-7.18,16.91-12.84.58-.72,1.15-1.46,1.66-2.24,1.71-2.61,1.34-2.44.6-3.96-.86-1.77-1.78-2.62-3.75-3.3-3.9-1.34-7.3-3.82-10.38-6.62-6.63-6.04-13.41-11.93-19.79-18.23-3.18-3.14-6.04-6.64-9.29-9.74-5.08-4.83-9.72-9.98-12.73-16.4-.15-.32-.33-.64-.55-.92-5.11-6.26-7.44-13.81-8.82-21.47-1.02-5.65-1.29-11.63.97-17.28.3,0,.6.02.9.03Z"/><path class="cls-1" d="M91.14,462.02c.64-2.42,1-4.65,1.98-6.66.31-.64.61-1.3,1.03-1.87.24-.33.74-.47,1.18-.3.5.19.44.63.39,1.08-.39,3.13-.9,6.24-2.76,8.9-.72,1.04-1.07,1.92-.32,3.07.31.48.37,1.12-.15,1.57-.39.34-.88.19-1.19-.08-1.78-1.52-4.07-1.59-6.17-2.23-.55-.17-1.13-.28-1.61-.56-.63-.36-1.74-.56-1.39-1.56.39-1.11,1.31-.4,2.01-.23,1.39.33,2.76.71,4.15,1.02.52.12,1.15.66,1.57.04.35-.51.03-1.17-.34-1.58-3.02-3.4-4.52-7.71-6.98-11.44-.85-1.29-1.34-2.76-2.58-3.87-1.23-1.11-2.4-1.62-4.02-1.33-1.97.35-3.96.47-5.92.9-3.14.68-5.07-.63-5.82-3.77-.69-2.91-.89-5.92-1.8-8.79-1.07-3.37-3.21-5.11-6.71-5.24-2.43-.09-4.86-.11-7.3-.09-4.58.05-7.69-2.19-9.06-6.61-.8-2.59-1.29-5.24-1.82-7.89-.59-2.92-1.29-3.36-4.13-2.56-2.88.81-5.55.99-7.97-1.25-1.4-1.29-1.78-2.93-1.92-4.62-.31-3.81-2.11-6.33-5.76-7.64-1.11-.4-2.05-1.26-3.04-1.95-.52-.37-1-.84-1.67-.87-.49-.02-1.18.59-1.27-.43-.08-.9.69-.99,1.3-1.11.56-.11,1.15-.03,1.61.36,1.96,1.7,4.29,2.78,6.53,4.04,2.79,1.57,3.47,4.36,3.94,7.23.76,4.66,2.61,6.06,7.21,4.89,5.02-1.28,5.33-.88,6.97,4.58.53,1.76.74,3.62,1.19,5.42,1.47,5.82,3.01,6.53,8.56,7,2.35.2,4.71.11,7.06.39,4.33.51,7.2,3.04,8.02,7.33.39,2.03.69,4.08,1.08,6.12.22,1.18.38,2.42,1.34,3.3.59.54,1.06.95,2.14.76,2.72-.49,5.51-.68,8.28-.78,1.98-.07,3.53,1.04,4.56,2.67,1.57,2.46,3.16,4.93,4.44,7.55,1.28,2.6,3.18,4.64,5.15,7.11Z"/><path class="cls-1" d="M63.38,504.73c-1.99-3.08-3.84-6.01-4.31-9.58-.11-.84-.69-1.06-1.41-.8-1.55.54-3.05,1.27-4.7.28-2.3-1.38-3.82-3.43-4.88-5.81-.83-1.88-1.4-3.85-1.46-5.97-.07-2.3-.93-2.86-3.12-2.37-5.05,1.13-9.8-1.6-12.57-7.26-1.22-2.48-2.18-5.08-3.61-7.47-.97-1.63-2.09-2.21-3.86-1.39-.71.33-1.44.6-2.19.82-3.22.96-5.3-.2-6.08-3.45-.9-3.72-1.63-7.47-2.14-11.28-.33-2.46-.79-5-3.35-6.33-.65-.34-.84-.92-.56-1.41.43-.76,1.04-.07,1.45.14,2.59,1.3,3.33,3.8,3.81,6.35.68,3.57,1.19,7.18,1.79,10.76.63,3.78,1.95,4.59,5.61,3.43.48-.15.94-.35,1.42-.49,2.88-.85,4-.47,5.45,2.19,1.06,1.93,2.07,3.92,2.82,5.98,1.46,4.03,4.1,6.82,8.13,8.21,1.18.41,2.47.06,3.69-.15,3.14-.52,4.21.16,4.74,3.28.55,3.22.83,6.47,3.27,9.05,1.61,1.7,3.18,2.34,5.5,1.45,2.7-1.04,3.4-.56,3.94,2.31.42,2.22,1.27,4.23,2.47,6.11.41.64.93,1.22,1.71,1.03.73-.17.68-1.01.81-1.61.36-1.59.69-3.19.95-4.8.11-.67.38-1.13,1.05-1.07.7.06.82.66.86,1.27.09,1.29.21,2.6-.39,3.79-1.09,2.14-1.56,4.43-1.82,6.78-.12,1.04-.49,1.68-1.67,1.07-3.36-1.75-6.86-1.61-10.41-.79-.44.1-1.15.79-1.28-.3-.09-.77-.18-1.58.99-1.77,3.08-.48,6.14-1.21,9.35-.22Z"/><path class="cls-1" d="M160.23,290.95c-1.26-.67-1.46-2.29-3.28-2.21-.72.03-.18-1.13,0-1.77.23-.79.6-.89,1.21-.37,2.11,1.78,4.07,3.72,6.77,4.74.99.37.74,1.46-.22,2-1.76.99-3.21,2.35-4.65,3.74-.36.34-.7.88-1.23.49-.62-.46-.52-1.22-.13-1.74.63-.83,1.42-1.55,2.24-2.42-1.64-.62-3.12-.15-4.46.27-3.65,1.15-7.49.81-11.2,1.66-3.9.9-7.87,5.54-6.97,10.1.51,2.58,2.19,4.49,4.43,5.72,5.04,2.78,10.53,2.36,15.98,1.96.56-.04,1.11-.25,1.65-.42.5-.16.88,0,1.04.45.19.52-.22.74-.63.94-1.5.73-3.17,1.28-4.74,1.14-4.28-.37-8.64.16-12.81-1.64-5.25-2.27-7.84-7.03-6.29-12.37,1.61-5.55,7.55-9.14,13.33-8.25,1.45.22,2.88-.38,4.3-.73,1.79-.44,3.59-.82,5.64-1.28Z"/><path class="cls-1" d="M225.17,409.17c-.02,1.09-.11,1.88-.8,2.56-4.69,4.59-9.67,8.79-15.44,11.99-1.61.89-3.07,2.06-4.56,3.15-.55.4-1.12.61-1.78.58-.37-.02-.71-.16-.73-.61-.02-.35,0-.67.42-.88,4.65-2.31,8.75-5.47,13.07-8.29,3.04-1.99,5.15-4.87,7.89-7.12.42-.35.52-.79.63-1.3.1-.48-.03-1.34.73-1.26.73.07.6.83.58,1.18Z"/><path class="cls-1" d="M176,314.77c-3.51-.95-7.21-.61-10.72-1.61,3.74-.59,7.17.87,10.72,1.61Z"/><path class="cls-1" d="M586.58,589.77c-2.8-1.66-5.97-2.65-8.65-4.54,2.39,1,4.93,1.67,7.06,3.22.56.4,1.31.58,1.59,1.32Z"/><path class="cls-1" d="M561.22,577.73c-1.59-.07-2.67-1.24-3.96-1.92-.44-.23.14-.47.48-.49,1.16.8,2.32,1.61,3.48,2.41Z"/><path class="cls-1" d="M564.64,579.69c-1.4.25-2.13-.82-3.04-1.55,1.01.52,2.03,1.03,3.04,1.55Z"/><path class="cls-1" d="M561.64,578.17c-.21-.1-.49-.14-.47-.48.16.16.31.32.47.48Z"/><path class="cls-1" d="M373.27,483.36c-.15-2.7,1.6-4.51,3.33-5.97,2.24-1.89,3.67-4.32,5.39-6.57.79-1.03,1.05-1.34,2.57-.61,2.76,1.33,4.14,4.19,6.99,5.35,1.89.77,3.02,4.18,2.41,6.21-1.3,4.32-3.52,8.1-6.84,11.18-1.4,1.3-3.16,1.54-5.01,1.38-2.77-.24-4.98-1.6-6.55-3.74-1.54-2.1-2.11-4.64-2.3-7.24ZM382.03,493.05c2.18-.31,3.63-.48,4.77-1.71,2.47-2.65,4.33-5.63,5.46-9.09.36-1.09.3-2.12-.06-3.14-.58-1.62-2.38-2.83-3.32-2.13-1.93,1.44-3.8,3.08-4.93,5.23-1.47,2.79-1.97,5.92-2.53,9-.18.99-.07,1.88.61,1.84ZM378.59,490.58c.06-2.73.82-5.02,2.14-7.09,1.7-2.67,4.07-4.78,6.27-6.99,1.33-1.34,1.06-1.95-.12-2.92-.63-.51-1.49-.64-2.03-1.11-1.38-1.18-1.94-.41-2.77.68-1.49,1.96-2.82,3.99-4.8,5.64-3.53,2.95-2.8,8.86,1.31,11.8Z"/><path class="cls-1" d="M373.75,526.59c2.49.06,4.64,1.07,6.69,2.37.47.3,1.04.79.7,1.39-.41.71-.93.07-1.4-.12-1.81-.74-3.29-2.23-5.41-2.31-.93-.04-.23-.95-.54-1.36,0,0-.03.04-.03.04Z"/><path class="cls-1" d="M334.01,590.76c0,6.03-1.11,8.15-8.59,9.22-6.92.99-13.57-4.88-14.05-11.88-.28-4,2.97-7.5,7.44-8.43,5.04-1.05,9.1.97,12.86,3.84,2.36,1.79,2.32,4.58,2.34,7.25ZM313.56,588.16c.2,1.3.05,2.83.84,4.33,3.12,5.94,8.26,6.83,14.04,4.73,4.56-1.66,5.95-8.79,2.33-12.04-3.29-2.95-7.28-4.5-11.86-3.49-3.6.8-5.27,2.8-5.34,6.47Z"/><path class="cls-1" d="M520.44,607.79c-.52,5.59-2.99,10.32-8.31,10.71-1.87.14-3.03-.56-3.57-2.29-.43-1.35-.78-2.73-1.15-4.1-.05-.2.06-.5-.05-.63-2.25-2.55.17-4.57.77-6.78.18-.68.37-1.38.7-1.99.24-.44.46-1.45,1.32-.51.61.67.86-.1,1.13-.37.71-.73,1.54-1.27,2.44-1.69,2.04-.93,3.44-.46,4.76,1.38,1.39,1.95,1.55,4.24,1.97,6.27ZM518.74,607.85c.15-1.63-.22-3.11-1.12-4.47-1.41-2.14-2.7-2.32-4.73-.65-3.98,3.28-5.04,8.65-2.62,13.24.23.43.31.82,1.02.77,1.82-.13,3.48-.52,4.81-1.88,1.9-1.96,2.49-4.4,2.64-7Z"/><path class="cls-1" d="M479.79,538.09c.75.84,1.54,1.71,2.78,2.22,2.55,1.04,5.01,2.33,7.44,3.65,1.05.57,2.01,1.14.6,2.75-.88,1.01-1.93,2.68-1.15,4.49.26.61-.13,1.07-.79,1.28-.55.17-1.01.43-1.49-.23-1.8-2.46-4.68-3.38-7.16-4.85-.62-.37-1.47-.35-2.09-.06-1.49.68-1.89-.37-1.53-1.23,1.06-2.49,1.99-4.99,2.61-7.62.08-.34.34-.41.79-.41ZM480.22,540.95c-.37,1.16-.68,2.25-1.06,3.32-.24.67-.19.97.6,1.21,2.34.7,4.44,1.9,6.41,3.33.3.22.8.8,1.08.41.64-.92,1.23-1.94,1.55-3,.24-.83-.74-1.15-1.32-1.47-2.35-1.29-4.76-2.5-7.26-3.79Z"/><path class="cls-1" d="M476.99,536.73c.34.89-.51,1.24-.79,1.85-.76,1.6-1.62,3.17-1.73,4.99-.04.66-.32,1.14-1,1.15-.8.01-.92-.67-.85-1.22.19-1.61-.84-2.09-2.08-2.49-2.23-.72-4.41-1.58-6.67-2.19-1.22-.33-1.2-.9-.92-1.86.51-1.75,1.21-3.44,1.08-5.35-.06-.81.94-1.41,1.46-1.03,2.96,2.14,6.73,2.24,9.78,4.06.81.48,1.96.76,1.73,2.1ZM464.98,536.05c-.3.75.05,1.16.79,1.4,2.29.74,4.54,1.68,6.88,2.19,1.72.38,1.61-1.64,2.34-2.52.71-.85-.43-1.03-.9-1.22-1.84-.75-3.71-1.43-5.59-2.09-2.8-.98-3.19-.72-3.52,2.24Z"/><path class="cls-1" d="M435.64,541.6c1.75.59,2.89,2.05,4.36,3.04-1.79-.53-2.95-1.96-4.36-3.04Z"/><path class="cls-1" d="M439.96,544.6c.16.16.32.32.47.48-.16-.16-.32-.32-.47-.48Z"/><path class="cls-1" d="M431.19,518.49c-.23-2.2.66-4.36.18-6.59-.13-.6.25-.66.93-.33,2.68,1.29,5.02,3.16,7.81,4.3,1.46.6,2.98.84,4.42,1.42.91.36,1.24.81,1.01,1.77-.4,1.66-.65,3.36-1.12,5.01-.49,1.72-1.4,1.9-2.8.73-2.27-1.91-4.89-3.14-7.73-3.93-.14-.04-.27-.13-.4-.14q-2.12-.25-2.3-2.23ZM433.23,514.04c-.2,1.21.11,2.37-.37,3.48-.24.55-.19,1.15.58,1.35,2.92.77,5.5,2.35,8.21,3.6.87.4,1.43.3,1.5-.69.06-.99,1.04-2.43-.42-2.89-3.41-1.06-6.15-3.31-9.48-4.85Z"/><polygon class="cls-1" points="495.11 538.96 494.99 538.99 495.06 538.96 495.11 538.96"/><polygon class="cls-1" points="416.82 533.42 416.82 533.48 416.8 533.38 416.82 533.42"/><path class="cls-1" d="M295.14,551.95s0-.01,0-.02c-.01,0-.03-.01-.04-.02,0,0,.05.04.05.04Z"/><path class="cls-1" d="M341.51,567.63c-.11-.45-.54-.85-1.14-.77-2.23.3-3.02-.65-3.11-2.9-.05-1.25-.96-2.59-2.52-2.83-1.63-.25-3.22-.33-4.45,1.24-1.72,2.2-2.68,2.05-4.16-.4-.8-1.33-1.59-3.42-3.14-3.1-1.63.34-2.99,2-3.59,3.85-.09.27-.18.54-.29.8-.75,1.69-1.94,1.93-3.22.67-1.19-1.17-2.08-2.62-4.04-2.95-1.5-.25-2.3.08-2.82,1.41-.29.73-.63,1.43-.92,2.16-.45,1.14-1.32,1.34-2.23.76-1.22-.78-2.45-1.44-3.9-1.65-1.41-.21-.88-1.28-.76-2.01.74-4.5-1.34-7.85-4.36-10.81-.38-.38-.89-.85-1.51-.52-.57.3-.21.88-.22,1.35,2.83,1.07,5.34,6.08,4.74,9.57-.45,2.63-1.52,5.04-2.81,7.35-.44.78-.92,1.51-1.98.62-1.01-.84-2.33-.52-3.51-.63-.77-.07-1.57.53-1.23,1.35.88,2.1-.57,1.72-1.72,1.85-1.35.15-2.68.44-4.02.63-1.75.25-3.65.98-5.22.55-2.53-.69-5.08-1.76-6.71-4.16-.6-.88-1.5-1.56-1.46-2.76.04-1.25,1.31-1.46,2.05-2.21-2.69-.45-3.96.75-3.27,2.95.11.34.26.67.44.98,2.41,3.95,5.64,6.63,10.54,6.61,1.21,0,2.42-.12,3.63-.18.16.02.32.04.48.06-.07.08-.15.16-.22.24.13.55.16,1.12.65,1.54.8.7,1.59,2.11.77,2.5-1.27.6-1.78,2.9-3.84,1.87-1.05-.52-2.26-.42-2.89.57-.59.94-1.37,2.08-.29,3.3.75.85-.07,1.23-.64,1.26-2.11.09-1.22,1.25-.78,2.14.31.62.91,1.1,1.31,1.69,1.01,1.48,2.03,2.93,1.25,4.92-.5,1.28-.41,2.48,1.05,3.24.49.25.87.71,1.5,1.25-2.61.65-1.69,2.39-1.52,3.93.28,2.61,1.62,3.74,4.11,3.01,1.78-.52,2.17.19,2.22,1.69.02.63.26,1.25.25,1.87-.03,2.5,2.13,2.86,3.69,3.67,1.35.7,2.66.21,3.52-1.1.65-.99,1.3-.47,1.99-.07.68.4,1.21.9.69,1.71-.64,1.01-.7,2.14-.91,3.26-.17.93,1.14,3.02,2.83,3.99,2.05,1.17,3.26.85,4.26-1.23.41-.86.93-1.6,1.56-2.27.42-.44.8-1.19,1.52-.95.56.19.53.96.64,1.49.37,1.73.67,3.44,1.85,4.92.77.97,1.28,2.23,2.77,1.82,1.58-.44,3.13-1.06,3.51-3,.09-.43-.15-1.11.61-1.16.65-.04,1.32.05,1.71.66.39.6.66,1.27,1.04,1.87.66,1.04,1.37,2.14,2.81,1.91,1.37-.22,2.91-.35,3.22-2.2-.03-2.07.93-2.94,3.01-2.55.37.07.94.19,1.06-.37.11-.54-.59-.51-.79-.86-.36-.04-.74,0-1.06-.13-2.04-.81-2.89.2-3.26,2.06-.22,1.1-.3,2.34-1.89,2.41-1.34.06-2.03-.95-2.28-1.89-.72-2.73-2.84-2.45-4.85-2.6-1.24-.09-1.69.46-1.2,1.51.64,1.38-.07,1.91-1.14,2.47-1.33.69-1.64-.44-2.11-1.13-1.42-2.11-1.55-4.66-2.31-7-.19-.58-.04-1.43-.84-1.59-.8-.16-.99.67-1.37,1.15-1.31,1.65-3.07,2.94-3.78,5.08-.24.74-1.06.56-1.69.29-2-.83-2.7-2.73-1.72-4.72.31-.63.8-1.18,1.09-1.82.39-.86.47-1.62-.76-1.96-.73-.21-1.39-.66-2.07-1.04-1.27-.7-2.31-.82-3.26.64-1.13,1.72-2.33.61-3.39-.22-.87-.67-2.18-1.33-.42-2.52.82-.55.18-1.13-.2-1.61-.72-.89-1.99-1.5-1.41-3.03.07-.18-.3-.63-.57-.81-.46-.3-.81.03-1.05.41-.23.37-.42.75-.93.79-.49.29-1,.5-1.59.5-.84,0-1.33-.31-1.4-1.21-.06-.7-.26-1.18.9-1.17.97,0,.78-1.15.87-1.89.14-1.56-.85-2.43-1.89-3.36-.68-.61-1.83-1.62.4-1.66.47,0,.86-.24.97-.7.13-.56-.28-.9-.66-1.24-1.75-1.58-2.06-3.35-1.07-5.62.37-.86.17-1.67-.48-2.37-.46-.5-.72-1.07-.34-1.75.39-.7.99-.34,1.52-.31,1.98.11,4.72-3.02,4.42-5.27-.11-.83-.17-1.48-.02-1.85-.28-.07-.63-.19-.52-.6.03-.1.33-.19.49-.17.23.03.43.15.49.45.33-.02.83.17,1.57.63.93.57,2.1-.03,2.24-.95.4-2.7,2.68-2.33,4.25-2.54,1.67-.21,3.18-.53,4.67-1.3,1.31-.68,2.4-1.32,1.66-3.08-.24-.56-.06-1.19.44-1.55.67-.49,1.18.08,1.7.44,1.86,1.3,3.66.8,4.62-1.27,1.78-3.85,1.98-3.88,5.12-.7.2.2.4.44.65.56.86.4,1.04,2.2,2.24,1.53,1.24-.69,2.7-1.39,3.18-3,.14-.48.24-.98.47-1.42,1.18-2.22,2.22-2.25,3.61-.25.93,1.33,1.35,3.18,3.64,3.13,1.33-.03,2.27-.29,2.64-1.58.52-1.8,1.98-1.32,3.14-1.3,1.33.02,1.78,1.16,1.84,2.25.07,1.27.19,2.42,1.36,3.17,1.12-.07,2.18.81,3.35.21.44-.23,1.08-.34.93-.97ZM281.71,588.34s-.08.09-.13.13c-.05-.09-.1-.18-.14-.25.06-.06.1-.11.14-.16.05.09.11.18.13.27ZM298.31,570.25c.58-1.3,1.11-2.49,1.68-3.74q1.56,2.98-1.68,3.74ZM302.71,566.9c-.1-.02-.19-.09-.29-.13.05-.05.1-.1.15-.15.09.05.18.1.28.15-.05.05-.11.14-.14.13Z"/><path class="cls-1" d="M287.77,575.94s.02,0,.02,0c.13.03.32-.15.45-.23,0-.04-.01-.07-.02-.1-.23.01-.38.12-.46.32Z"/><path class="cls-1" d="M625.5,495.24c-.23-2-.94-3.03-2.92-3.16-1.2-.07-1.47-.72-1.01-1.73.7-1.55-.08-1.74-1.43-1.9-5.55-.64-10.16,3.35-11.73,8.31-.44,1.39-1.09,2.58-1.87,3.79-1.75,2.72-4.21,4.87-5.98,7.5-1.52,2.24-3.26,2.59-5.75,2.62-4.45.06-8.89.67-13.47,1.06.51-3.78-1.25-6.69-4.12-9.01-2.5-2.01-5.45-2.74-8.45-1.53-5.11,2.06-7.41,6.33-7.71,11.56-.29,5.06,2.96,8.29,6.79,10.91,2.46,1.68,4.87,1.56,7.14-.22,2.71-2.11,4.65-4.82,5.66-8.13.34-1.11.05-2.38,2.15-2.16,3.56.38,7.09-.66,10.65-.88.72-.04,1.63-.27,1.7.98.2,3.18.99,6.3.92,9.53-.04,1.72.18,3.48.54,5.17.56,2.62.66,5.24.44,7.88-.95,11.27-.41,22.52.49,33.76.57,7.16,2.62,14.1,3.39,21.22.24,2.23.55,4.59-1.3,6.47-.95.96-2.07,1.33-3.32.9-1.03-.35-2.24-.66-2.2-2.17.02-.76-.6-1.13-1.08-1.5-2.14-1.63-4.32-3.2-6.49-4.8.03.14,0,.36.08.4,2.32,1.25,2.65,3.86,3.93,5.81,1.4,2.12,3.4,3.36,5.7,4.1,1.6.52,3.05-.15,4.44-1.58.25,3.31-.4,5.96-2.43,8.15-.99,1.07-2.25,1.15-3.53.48-.7-.36-1.37-.77-2.06-1.15-9.84-5.36-19.03-11.74-28.25-18.06-.75-.52-1.55-1.03-1.61-2.29,3.54.88,6.42,2.84,9.47,4.54,5.28,2.94,10.35,6.22,15.58,9.25,1.83,1.06,3.93,1.62,5.72,2.82.56.37,1.3.62,2.03.18-.05-1.07-.84-1.46-1.63-1.78-8.85-3.66-16.7-9.13-25.03-13.74-3.42-1.9-7.15-3.16-10.58-5.1-4.91-2.79-9.29-6.27-13.78-9.62-2.73-2.04-5.45-4.13-7.89-6.56-1.05-1.04-1.31-2.08-1.29-3.41.02-1.01.73-1.63,1.41-2.02.7-.4,1,.6,1.41.99,4.34,4.12,9.22,7.56,13.91,11.25.51.4,1.06.61,1.8.6-.23-1.25-1.52-1.43-1.89-2.36-.41-.34-.81-.68-1.22-1.03-2.54-1.64-4.99-3.39-7.08-5.59-.15,0-.25-.07-.31-.2-2.36-1.93-4.92-3.68-6.1-6.69-.09-.12-.19-.24-.28-.35-.59-.04-.99.12-.92.82.06.57-.15,1.11-.75,1.03-.71-.09-.34-.8-.39-1.23-.73-7-1.72-13.94-5.08-20.29-1.09-2.07-2.16-4.15-3.24-6.22l-.58-.81c-1.3-2.12-2.63-4.22-3.88-6.37-1.23-2.12-.73-4.48-.6-6.72.23-3.77.82-7.52-.07-11.79,1.65,1.09,2.91,1.92,4.18,2.76,3.38,1.69,6.11,4.17,8.56,7,1.96,2.26,3.86,4.58,5.85,6.81,3.17,3.57,6.16,7.3,9.26,10.91,2.59,3.02,3.63,6.86,5.81,10.04,3.49,5.08,6.11,10.63,8.99,16.04,2.98,5.61,3.96,11.94,5.98,17.91.34,1.02.87,2.24.26,3.3-.27.47-.58.87-.21,1.22.7.67.45-.59,1-.57,1.22.04.73-.98.8-1.57.29-2.46-.97-4.59-1.69-6.8-1.17-3.58-1.44-7.37-3.08-10.87-3.51-7.5-7.68-14.63-11.75-21.82-1.4-2.47-2.38-5.35-4.3-7.31-2.85-2.91-5.17-6.22-7.88-9.23-5.47-6.07-10.05-13.01-17.41-17.16-.96-.61-1.91-1.25-2.89-1.84-.31-.19-.56-.39-.78-.6l-4.71-3.13c-2.57-1.14-5.14-2.08-7.37-3.78-2.09-1.59-4.14-3.51-6.65-4.26-5.39-1.6-9.74-4.97-14.45-7.75-13.21-7.77-25.96-16.31-39.49-23.55-.6-.32-1.22-.61-1.65-1.12l-3.44-2c-.31-.11-.62-.34-.89-.52-2.16-1.39-4.25-2.9-6.49-4.16-5.08-2.86-10.1-5.83-15.13-8.79-4.36-2.56-8.28-5.87-13.02-7.75-3.47-1.38-6.7-3.14-9.78-5.21-.94-.63-1.84-1.37-2.85-1.88-1.09-.55-2.15-1.14-3.17-1.78l-22.91-12.88c-5.52-3-10.35-7.1-15.96-9.96-5.27-2.69-10.69-5.11-15.71-8.28-4.95-3.12-9.83-6.35-14.87-9.31-6.09-3.57-12.13-7.22-18.48-10.33-.29-.14-.57-.3-.81-.48l-3.76-1.98c-5.85-2.56-11.02-6.33-16.4-9.68-8.35-5.19-16.52-10.65-25.44-14.9-3.85-1.83-7.69-2.85-11.92-2.18-.99.16-2.01,1.33-2.87.6-.73-.61-.93-1.86-1.36-2.83-.43-.98-.81-1.99-1.3-2.94-1.35-2.61-2.95-5.06-5.33-6.85-4.73-3.55-9.67-6.62-15.79-7.1-1.19-.09-1.73-.46-1.32-1.99,1.11-4.12,2.35-8.25,2.67-12.53.1-1.36.6-1.81,1.84-2.1,5.41-1.28,10.34-3.56,14.71-7.08,4.48-3.61,6.65-8.14,5.01-13.76-1.48-5.08-4.48-9.04-9.98-10.53-2.46-.66-4.88-.93-7.36-.28-.72.19-1.39.23-1.41-.67-.05-3.46-1.93-52.53-2.57-55.82-.23-1.19-.34-2.4-.43-3.6-.27-3.62.76-23.64,1.38-27.31.98-5.77-10.26-44.62-12.25-50.23-.61-1.73-1.01-3.55-1.18-5.42-.73-8.24-12.42-95.78-15.72-103.54-.24-.57-.2-1.03.11-1.61.45-.86-.23-1.42-.92-1.6-.92-.24-.94.72-1.1,1.26-.24.79.15,1.57.48,2.26,2.74,5.71,14.43,91.16,15.3,97.29.6,4.23.28,8.63,1.81,12.67,1.89,5,13,43.2,12.26,48.32-.96,6.68-2.74,28.58-.63,36.21.43,1.55,1.75,48.41,1.83,49.95.09,1.85.43,3.69.4,5.53-.16,8.7-1.21,17.31-2.65,25.88-.06.36-.1.66-.54.8-2.06.66-4.11,1.34-6.37,2.09.42-2.23,1.38-3.87,2.49-5.43.44-.61.83-1.34-.02-1.84-.73-.42-1.1.28-1.5.8-1.93,2.52-2.71,5.66-4.5,8.25-.28.4-.21.93.21,1.14,1.96.97,3.94,1.93,5.95,2.79.62.26,1.37-.08,1.64-.69.27-.59-.42-1.09-.77-1.35-.76-.56-1.71-.86-2.85-1.4,1.57-1.1,3.1-1.44,4.52-2,1.14-.44,1.53-.2,1.41,1.24-.14,1.81-1.42,3.16-1.56,4.87-.12,1.35-.11,2.7-.37,4.05-.61,3.19-1.87,6.27-1.54,9.62.39,3.97-.49,7.84-1.17,11.69-.65,3.63-.25,6.93,1.75,10.03.73,1.13,1.4,2.3,1.81,3.6.56,1.75-.93,4.83-2.61,5.55-.68.3-1.04,0-1.51-.39-3.07-2.52-7.07-3.27-10.38-5.34-.26-.16-.74-.13-1.05-.02-1.67.59-2.28-.47-2.87-1.7-3.32-6.94-6.7-13.86-9.99-20.81-3.63-7.67-6.94-15.51-10.85-23.03-3.78-7.28-7.72-14.47-11.34-21.83-4.19-8.51-33.46-46.62-40.05-53.49-5.2-5.42-29.14-37.21-32.71-43.88-2.11-3.95-4.23-7.97-6.88-11.56-2.89-3.92-4.59-8.36-6.61-12.66-1.39-2.95-2.58-6.08-3.26-9.25-.71-3.3-23.06-67.88-24.06-71.07-.13-.41-.28-.93-.79-.8-.5.13-.38.66-.37,1.1.04,1.77,1.3,3.12,1.59,4.82.69,4.16,23.1,69.62,24.77,73.49,1.81,4.18,3.13,8.72,5.69,12.39,3.7,5.29,6.63,10.98,9.93,16.47,3.29,5.47,26.3,36.49,30.77,41.07,3.03,3.1,29.99,36.71,32.56,40.23,4.31,5.92,7.45,12.47,10.68,18.99,4.65,9.37,10.03,18.37,14.2,28,2.85,6.59,6.31,12.92,9.11,19.53,2.21,5.2,4.83,10.16,7.37,15.18.36.7.66,1.04,1.59.98,4.48-.27,7.72,2.83,11.49,4.47.8.34,1.09,1.2-.04,1.93-2.36,1.53-4.19,3.63-5.86,5.88-2.16,2.91-3.88,6.17-6.71,8.53-.73.61-1.2,1.39-1.75,2.13-3.5,4.66-3.52,10.44-5.11,15.71-.16.52-.03,1.22.71,1.36.73.14,1.02-.38,1.15-.98.42-1.87.89-3.74,1.2-5.63.79-4.77,2.45-9.07,6.17-12.37,1.29-1.14,2.35-2.47,3.28-3.93,2.28-3.57,4.84-6.91,8.4-9.34.58-.39.95-1.47,1.65-1.2,1.68.67,1.81-.59,2.14-1.52.51-1.42,1.52-2.38,2.61-3.33,6.08-5.28,13.5-7.78,20.97-10.18.73-.23,1.08-.28,1.2.73.36,3.11.95,6.18,1.33,9.29.16,1.28.03,2.61.03,3.98-1.05-.3-1.7-1.7-2.44-.58-.57.86.7,1.26,1.23,1.63,1.37.95,1.79,2.46,1.53,3.7-1,4.65-1.97,9.37-5.3,13.12-.38.43-.51.73-1.13.31-2.88-1.92-6.1-3.37-8.53-5.9-.83-.87-1.46-.82-2.42-.41-2.96,1.24-5.38,3.25-7.47,5.56-1.71,1.9-2.99,4.11-2.9,6.93.08,2.38.93,4.79-.09,7.19-.2.48.19,1.13.8,1.36,5.21,1.91,9.5,5.47,14.36,8.02,4.23,2.22,8.57,4.24,12.52,6.97,1.17.81,1.71,1.5.92,2.92-2.19,3.94-1.93,8.32-1.75,12.56.19,4.63.88,9.29.42,13.89-.77,7.57-.37,15.09.1,22.63.04.68.16,1.41,1.01,1.35.87-.06.79-.77.71-1.46-.27-2.19-.66-4.38-.68-6.58-.03-4.85-.1-9.69.31-14.54.43-5.14.17-10.27-.31-15.41-.56-6.01,1.69-11.49,3.85-16.93,1.53-3.85,3.84-7.35,5.45-11.14,3.9-9.23,11.78-14.08,20.2-17.81,6.7-2.96,13.45-1.03,16.01,6.82,1.54,4.73,1.9,9.58,1.05,14.45-.5,2.88-.27,5.72-.02,8.82-2.09-1.02-3.85-1.95-5.66-2.74-2.36-1.03-4.54-1.97-4.65-5.21-.09-2.68-2.36-4.63-3.23-7.09-.4-1.14-1.11-1.89-2.21-2.07-3.23-.54-6.47-1.2-9.23,1.55-1.35,1.35-2.95,2.48-4.53,3.58-4.95,3.45-9.1,7.54-10.89,13.52-1.51,5.04-1.68,9.94,1.48,14.54,3.38,4.92,7.89,6.64,12.35,3.83,2.47-1.55,4.02-.59,5.9.38,1.01.52,1.93,1.22,2.89,1.83,3.32,2.14,6.65,4.28,10.5,6.75-2.96.16-5.05,1.17-7.23,2-5.22,2-9.41,5.29-13.01,9.47-2.89,3.35-5.39,6.96-7.09,11.07-.69,1.68-1.68,1.87-3.01.84-.64-.5-1.27-.41-1.75.03-2.39,2.2-5.29,3.65-7.99,5.36-2.55,1.61-4.37,4.15-7.32,5.24-.96.36-1.93,1.83-1.63,2.89.82,2.87-.06,5.67.11,8.5.06.99-.23,3.24-.59,4.98-.12.6.09,1.08.8,1.3,2.14.65,3.9,2.06,5.91,2.97,4.67,2.13,8.82,4.81,10.61,9.99,3.05,8.79,9.98,14.65,16.07,21.12,1.05,1.11,1.51,2.09,1.52,3.49.02,2.57,1.62,2.01,1.44-.55-.04-.58.24-.87.76-1.12.52-.25.63-.83.22-1.26-2.46-2.53-.85-5.6-1.05-8.49.98,1.34,1.94,2.68,2.94,4,.32.43,4.18,4.23,5.29,5.47,2.29,2.57,4.7,5.01,7.89,6.49,2.02.94.88,2.55.85,3.9-.03,1.45-1.19.87-1.93.89-1.5.04-3.02-.07-4.48.35-1.31.39-1.52-.22-1.69-1.35-.27-1.9.14-3.75.21-5.63.02-.65.27-1.49-.5-1.65-.95-.2-.77.77-.89,1.34-.45,2.06-.29,4.13.04,6.17.21,1.34.12,4.06.07,4.63-.03.39.08,1-.6.82-1.09-.3-1.88.4-2.81.67-1.88.55-2.7,2.23-1.42,3.63,1.34,1.47.78,2.78.21,4.08-1.22,2.8-1.09,5.63-.53,8.49.43,2.17,1.8,3.57,3.97,4,2.94.59,5.9,1.07,8.85,1.56.4.07,1.03.05,1.22-.19,1.19-1.53,3.04-1.47,4.61-2.1,2.58-1.05,3.94-4.88,3.22-8.71-.31-1.63-.79-3.23-1.2-4.85-.86-.05-1.06-.69-1.25-1.38-.17-.61-.41-1.23-.74-1.77-.45-.74-.85-2.13-1.86-1.55-1.07.62.23,1.41.57,2.07,1.53,2.98.26,6.31-2.7,7.56-1.26.54-1.63-.52-2.42-.76-1.14-.35-2.24-.89-3.31-1.43-.5-.25-.91-.68-1.54-1.17.86-.43,1.61-.23,2.33-.23,1.59,0,3.18-.08,4.5-1.07,1.17-.88,2.02-1.84,1.28-3.6-.74-1.76.03-3.67.16-5.51.07-.95,1.04-.5,1.58-.61,7.49-1.52,15.07-.59,22.61-.88,5.88-.23,11.7,0,17.53.54,2.97.27,5.94.65,8.82,1.48.92.26,1.47.54,1.79,1.96,1.27,5.51.13,10.94.09,16.4-.02,2.96-.4,5.91-.61,8.87-.2,5.22.87,10.39.75,15.59-.09,4.26-.44,8.53-.89,12.77-.78,7.29.56,13.95,5.3,19.73.26.32.66.57.44,1.09-.2.47-.6.52-1.04.59-2.74.41-5.05-.42-7.03-2.31-.29-.28-.59-.7-1.07-.34-.34.25-.26.61-.2.98.5,2.87.26,3.1-2.64,2.62-.28.89.57,2.3-.63,2.64-1.18.34-1.68-1.03-2.3-1.86-.66-.88-.8-1.96-1.14-2.95-.15-.45-.16-1.1-.89-.91-.65.16-.52.67-.42,1.19.13.62.14,1.27.2,1.9,1.1,1.68,1.72,3.95,4.07,4.26,1.22.16,1.38.58,1.31,1.58-.05.71,0,1.43.07,2.14.18,1.65-.27,2.45-2.14,2.89-5.92,1.4-8.99,6.27-8.03,12.21.08.49.05,1,.09,1.5.43,5.39.8,10.79,1.33,16.18.7,7.25.97,14.52-.04,21.74-.33,2.35.44,3.56,2.19,4.69,2.08,1.35,4.39,1.89,6.78,2.36,4.59.9,9.13,1.82,13.59-.56.91-.49,1.97-.71,2.91-1.04.5,7.52.92,14.93,1.49,22.32.34,4.34,1.16,8.63,1.22,12.99.11,8.05.16,16.1.82,24.13.24,2.96.74,5.94.36,8.93-.41,3.27-.32,6.53.07,9.8.08.65.12,1.15.95,1.04.74-.1.69-.63.57-1.13-1.17-4.99-.24-10.09-.82-15.12-.57-4.97-.88-9.96-.69-14.96.32-8.23-.65-16.38-1.25-24.55-.56-7.69-1.2-15.38-1.2-23.1,0-1.76.61-3.02,2.19-3.8.27-.46.74-.71.96-1.29.32-.83.42.16.66.21.31-.02.62-.04.93-.06,1.75-2.91.71-6.02.37-8.97-.58-5.03-1.09-10.05-1.29-15.12-.17-4.41-.59-8.8-.81-13.2-.13-2.67.34-5.36-.85-7.94-.56-1.22-.96-2.31-2.52-2.54-.82-.12-1.57-.66-2.37-.97-2.67-1.04-3.63-2.95-3.39-5.8.18-2.1-.5-4.24-.09-6.38.15-.79-.11-1.92,1.21-1.85,1.21.07.69,1.17.62,1.67-.66,4.78,1.68,7.77,5.59,10,1.22.7,2.24,1.76,3.36,2.65,1.91,1.51,2.83,3.46,2.9,5.9.12,4.22-.59,8.39-.63,12.6-.07,6.35.14,12.71-.2,19.05-.12,2.27-.62,4.32.98,6.25.43.53,1.35.62,1.37,1.5.92.16,1.84.24,2.73-.19,2.8-1.35,5.92-2.09,8.15-4.52.55-.59,1.43-.96,2.23-1.22,4.73-1.53,8.78-4.14,12.25-7.64,0,3.32-.12,6.65.02,9.98.35,8.35.54,16.7,1.58,25.01.94,7.51,1.1,15.1.93,22.68-.14,6.14.53,12.25,1.07,18.36.24,2.73-.13,5.41-.19,8.1-.11,5.06.66,10.12-.03,15.18-.2,1.48-.04,2.99.71,4.35.7-.23.71-.76.79-1.37.26-2.01-.28-3.96-.32-5.95-.12-6.07.08-12.12.23-18.18.18-7.01-1-13.98-.94-21,.03-4,.17-8.02-.11-12.01-.49-7.05-1.41-14.07-1.88-21.12-.54-8.05-.81-16.12-.48-24.2.04-1-.61-1.91.07-3.03,1.6-2.61,2.9-5.4,4.43-8.05,1.32-2.28,1.96-4.68,2.06-7.3.15-4.02-.15-8-.65-11.96-.92-7.17-1.2-14.32-.37-21.53.45-3.94,1-7.94.28-11.93-.06-.32.05-.66.11-1.22,2.46,1.75,4.73,3.39,7.03,4.99,4.82,3.37,10.32,5.45,15.51,8.13,7.63,3.93,15.17,8.05,22.73,12.12,7.7,4.14,15.71,7.67,23.55,11.51,3.52,1.72,7.15,2.77,10.97,3.39,1.76.28,3.52.6,5.27.91l7.95,1.19,5.8,1.88c.48.13.96.25,1.45.36,1.83.41,3.7.63,5.64.46,3.84-.34,7.7-.21,11.56-.56,9.06-.83,17.94-2.3,26.35-5.91,1.5-.64,2.87-1.64,4.41-2.08,4.2-1.19,7.93-3.11,11.09-6.14.61-.59,1.37-1.03,2.02-1.59l4.33-3.87c1.46-1.95,2.47-4.2,3.95-6.13,3.27-4.27,4.94-9.06,5.63-14.33.5-3.78,1.1-7.56,2.48-11.32,4.91,2.88,9.79,5.39,13.79,9.19,1.25,1.19,3.05,1.12,4.23,2.4,2.11,2.29,6.17,2.11,8.17-.22.99-1.16,1.65-2.49,2.19-3.89.95-5.41,1.03-10.88,1.1-16.36.08-7.02-1.38-13.95-1.24-20.98-.02-.43-.03-.86-.05-1.29-.39-4.48.03-8.96.05-13.44.05-10.24-.21-20.45-3.02-30.41-.08-.27-.02-.57-.03-.85-.13-.08-.2-.19-.2-.35-1-1.57-.45-3.15,0-4.71.16-.57.51-.57.91-.2.51.46,1.02.93,1.53,1.39,1.84,1.04,3.56,2.21,4.6,4.14.54.14.74.64,1.05,1.02,1.86,2.34,1.87,2.36-1,3.01,0-.01,0-.02,0-.03-.01.01-.03.03-.04.04,0,0,0,0,0,0,0,0,0,0,0,0-.35.33-.69.68-1.25.51-.73.42-1.7.53-2.05,1.48-.51,4.31,1.34,8.02,3.05,11.75,1.07,1.61,2.29,2.8,4.34,1.47.45-.29.87-.2,1.17.05,1.95,1.61,3.94,1.04,5.96.2.08-.49.07-.89-.61-.65-.83.29-1.69.31-2.54.18-2.18-.35-2.56-.91-1.85-2.96.59-1.7.9-3.46,1.11-5.22.38-3.09.02-4.04-2.43-7.59,3.88.33,9.07,3.87,9.08,7.43,0,.72-.11,1.4-.16,2.1-.05.65.3.69.79.56.11-1.63.16-3.21-.45-4.81-1.36-3.58-6.6-7.03-10.45-6.63-.54.06-.82-.1-1.05-.46-1.73-2.67-4.01-4.79-6.45-6.8-.62-.51-1.04-1.39.35-1.63.61-.1,1.45.13,1.43-.84-.01-1.07-.96-.79-1.61-.95-.37-.09-.9.12-1.1-.48,1.35-2.54,3.65-4.33,5.32-6.63.28-.39.76-.57,1,0,1.1,2.5,3.43,3.99,4.97,6.12.81,1.12,1.39,3.31,3.11.73.11-.16.54-.11.81-.16,3.98-.78,6.8-2.76,7.59-7.02.19-1.03.68-2.04,1.21-2.96,1.11-1.91,1.02-3.85.78-5.97ZM579.68,511.95c-.45,3.9-2.33,7-5.2,9.55-1.91,1.69-4.24,1.95-6.29.51-2.83-1.99-5.54-4.16-5.88-7.99-.07-.79-.81-2.03,1.07-2.01.68,0,.65-1.03.75-1.61.28-1.49.68-2.92,1.48-4.21.86-1.39,2.03-2.16,3.77-1.78.57.13,1.34.72,1.74,0,.45-.8-.71-.99-1.15-1.72,5.65-1.22,10.38,3.47,9.72,9.26ZM222.11,309.03c1.15-5.09,1.26-10.31,1.96-15.45.38-2.78.41-5.55.55-8.32.15-2.98.07-2.99,3.08-3.25.5-.04,1-.05,1.12-.05,9.26-.06,14.99,9.36,12.95,15.5-.67,2.03-1.89,3.66-3.42,5.08-4.3,3.98-9.53,6.13-15.09,7.64-1.22.33-1.39-.17-1.17-1.15ZM240.9,350.3c-4.56,1.58-9.35,2.64-13.53,5.22-1.63,1-3.22,2.07-4.84,3.1-.85.53-1.53.95-1.89-.62-.36-1.58-1.18-3.02-2.12-4.4-1.34-1.98-2.05-4.17-1.74-6.67.66-5.37,1.86-10.7,1.44-16.17-.04-.53.06-1.02.12-1.02,4.29.8,7.87,1.67,11.21,3.38,5.97,3.06,10.06,7.78,12.57,13.94.6,1.47.94,2.5-1.21,3.24ZM278.63,547.04c1.58.26.78,1.85,1.24,2.72-.18.53.31,1.31-.73,1.28-1.63-.05-1.96-1.39-2.11-2.5-.08-.61.86-1.62,1.6-1.49ZM285.7,557.48c4.43,1.79,6.47.92,8.08-3.49,1.26,1.88,1.6,5.13.8,7.11-.19.47-.41.73-.92.65-1.57-.24-2.75.42-3.76,1.55-.17.19-.5.38-.72.34-.51-.09-.85-1.3-1.5-.35-.4.59.21,1.18.46,1.76.39.89-.28,1.03-.86.93-3.08-.53-6.25-.69-9.21-1.74-2.2-.78-3.23-3.81-2.51-6.81.39-1.65.96-3.26,1.51-5.08,1.65.68,3.07,1.31,4.26,2.51,1.2,1.21,2.78,1.97,4.38,2.62ZM288.66,543.8c-.56,1.32-.39,2.7-.22,4,.23,1.77-.42,2.68-1.93,3.56-1.69.99-3.17.4-4.65-.1-.76-.26-.73-1.42-.59-2.1.23-1.11.12-2.12-.04-3.21-.44-2.94-.38-2.96,2.65-3.36.7-.09,1.42-.09,2.34-.14.36,0,.93,0,1.5,0,.93.01,1.27.52.93,1.34ZM562.29,585.49c.05,0,.1.08.15.13-.03.05-.06.1-.08.15-.07-.05-.15-.1-.22-.15.05-.05.1-.13.15-.13ZM550.9,578.6c.21.08.42.16.63.24-.06.04-.11.1-.17.1-.24,0-.51,0-.46-.35ZM550.84,578.55c-.1-.02-.21-.03-.31-.05.21-.36.24-.1.31.05ZM549.67,577.64c.12.12.36.32.35.34-.21.28-.43.11-.64-.03-4.55-2.38-8.71-5.39-13.01-8.16-1.47-.95-.32-2.33-.79-3.51,4.46,4.17,9.25,7.8,14.09,11.36ZM534,567.53c-1.03-.07-1.4-.98-2.09-1.44-.39-.26-1.06-.6-.72-1.1.37-.55,1-1.08,1.74-1.09.5,0,.95.4,1.05.91.17.88.34,1.79.02,2.71ZM507.23,496.62s.18.16.28.24c.19.1.38.2.56.3,3.37,2.26,7.12,3.85,10.6,5.91.68.4,1.26.83,1.41,1.74.74,4.59.54,9.16-.23,13.82-3.26-7.54-7.76-14.3-12.27-21.07-.13-.15-.25-.3-.38-.44-.06-.18-.28-.37.03-.51ZM398.94,433.2c2.65,1.87,5.4,3.49,8.41,4.63,5.01,1.89,9.1,5.34,13.67,7.98,5,2.88,9.96,5.84,15.01,8.63.87.48,1.71,1.02,2.54,1.57l11.67,7.22h0c3.51,1.59,6.76,3.52,9.91,5.58,5.8,3.78,11.81,7.21,17.71,10.83,6.19,3.8,12.41,7.57,18.63,11.33.85.52,1.73,1.1,2.67,1.33,2.61.65,4.19,2.58,5.72,4.48,6.09,7.62,10.47,16.27,14.63,25.03,1.03,2.17.31,4.39.13,6.53-.35,4.23.07,8.41.23,12.61.01.39-.08.95.5,1.03.67.1.81-.48.93-.96.41-1.64,0-3.26-.15-4.89-.29-3.27-.45-6.54.21-10.41,2.15,3.52,4.15,6.55,5.91,9.71,4.01,7.17,5.55,15.04,6.31,23.1.09.94.41,2.04-.72,2.7-.93.55-1.27-1.39-2.16-.56-.7.65,1.12,1.38.16,1.99-.61.39-.86,1.71-2,1.02-.39-.24-.81-.52-1.12-.09-.36.49.05,1.04.37,1.34,1.29,1.21,2.54,2.54,4.03,3.45,1.89,1.16,2.49,2.61,1.91,4.8-2.18-.33-4.12.31-5.93,1.73-1.39,1.09-2.97,2-4.89,1.87-3.26.24-3.51-.13-3.11-4.65-.02-.71-.04-1.43-.07-2.14-.02-.72-.04-1.43-.06-2.15-.31-3.48-.52-6.97-.97-10.42-.21-1.6.33-2.43,1.69-3.11,2.73-1.37,5.23-3.1,7.51-5.14.36-.32,1.18-.64.58-1.33-.45-.52-.92-.26-1.47.13-1.85,1.31-3.83,2.43-5.64,3.79-1.09.82-2.03.75-3.1.18-1.68-.9-3.44-1.66-4.98-2.83-3.75-2.87-8.03-4.81-12.27-6.82-.78-.43-1.85-.29-2.43-1.29,1-.51,1.98-1.01,2.97-1.51,3.02-3.7,7.16-5.77,11.35-7.75,1.26-.6,2.14-1.64,3.21-2.47.53-.41,1.02-.92.43-1.6-.57-.65-1.16-.42-1.62.17-2.08,2.66-5.17,3.73-8.07,5.02-2.36,1.06-3.89,3.1-5.96,4.49-1.31.88-2.11,1.14-3.62-.08-2.01-1.61-4.45-2.87-7.01-3.55-3.36-.89-6.21-2.76-9.25-4.31-6.32-3.24-12-7.6-18.19-11.05l-4.7-2.37c-1.15-.51-2.33-.98-3.53-1.39-.87-.3-1.45-.72-1.84-1.33l-2.45-1.24c.01.11.03.22.04.33-1.71-.98-3.38-1.91-5.03-2.85h-.01s0,0,0,0c-2.05-1.16-4.06-2.31-6.02-3.54-2.95-1.85-5.8-3.32-9.17-1.04-.42.28-.94.11-1.38-.27-2.25-1.94-5.05-2.04-7.79-2.19-4.27-.23-8.55-.2-12.81-.52-2.34-.17-4.34.43-6.34,1.46-1.63.84-3.31,1.6-5.24,2.52.58-2.28-.15-4.05-1-5.8.02-.17.04-.35.06-.52.1.07.2.15.3.22,3.55-.7,7.1-1.45,10.67-2.09,1.48-.26,1.39-.98,1.09-2.14-.46-1.77-1.32-3.29-2.4-4.72-.22-.29-.44-.57-.64-.86-2.29-3.42-1.56-5.59,2.48-6.27,1.99-.33,3.94-1.29,6.09-.83.84.18,1.14-.54,1.07-1.42-.15-1.91-1.31-2.87-2.95-3.55-3.27-1.35-3.27-1.4-.65-3.67,1.78-1.54,3.58-3.04,5.4-4.52,1.8-1.47,1.74-1.87-.41-2.8-1.9-.82-4.06-.35-5.97-1.37-1.21-.64-1.3-1.15-.46-1.98,2.38-2.34,4.32-5.11,7-7.15,1.1-.83.89-1.45-.09-2.14-1.35-.94-2.74-1.83-3.99-2.88-.82-.69-2.04-1.33-.92-2.88.57-.79-.53-1.8-.99-2.11-5.11-3.4-8.41-8.7-13.16-12.46-1.87-1.48-3.85-2.84-5.66-4.44,2.7.65,5.04,2.09,7.23,3.64ZM527.58,594.66c-1.04-5.37-2.43-10.64-4.76-15.8,2.79-.45,5.16-1.4,7.16-3.19.65-.58,1.48-.83,2.35-.95,1.22-.17,1.79.15,1.84,1.56.18,4.92-.38,9.82-.92,14.65-.66,5.89-2.33,11.67-3.69,17.47-.26,1.13-.92,2.31-1.74,3.13-1.86,1.85-3.41,3.95-5.16,5.88-.14.12-.35.37-.42.33-.39-.19-.09-.45,0-.69,1-1.8,2-3.61,3-5.41,2.98-5.36,3.5-11.06,2.35-16.99ZM495.21,543.64c-1.31-3.49-4.66-3.65-7.04-5.28-3.41-2.35-6.87-4.58-9.82-7.51-1.09-1.08-2.55-1.58-3.93-2.12-6.92-2.71-13.21-6.75-20.09-9.53-.45-.18-.76-.41-.97-.67l-2.55-1.43s0,.02,0,.03c-6.34-3.74-12.67-7.36-19.18-10.71,2.62.04,5.17-.17,7.59,1.3,3.09,1.89,6.31,3.61,9.6,5.12.22.1.42.21.6.31l6.18,3.23c3.37,1.41,6.69,2.72,9.66,4.77,4.1,2.83,8.18,5.67,12.69,7.86,1.97.95,3.73,2.33,5.61,3.47,1.89,1.16,3.86,2.14,6.06,2.6,2.28.48,4.12,1.91,6.13,2.97.7.37.42,1.1.99,1.6-.91.15-1.15-.5-1.63-.67-.29,1.4.62,2.72.11,4.67ZM495.13,544.9v5.17c-.59-1.68-.62-3.41,0-5.17ZM465.08,611.15c.09.67.53.98,1.21.93,6.07-.41,12.13-.87,17.3-4.89.98,4.15.77,8.3,1.12,12.4.34,4.04.67,8.1,1.22,12.12.24,1.71-.71,1.9-1.78,1.85-1.78-.07-3.51-.46-5.12-1.37-1-.56-1.99-1.35-3.35-.99,2.61,2.12,5.26,4.09,8.84,4.24.6.03,1.72-.52,1.7.61-.02.9-1.13.91-1.84.9-2.14-.01-4.29-.11-6.33-.86-8.4-3.11-17.04-5.73-25.11-9.54-6.28-2.97-13.24-4.07-19.18-7.71-4.95-3.03-10.68-4.62-15.46-7.78-7.53-4.99-15.27-9.77-22.01-15.89-1.05-.95-2.19-1.81-3.3-2.7q-2.2-1.76-3.85-4.85c2.97.82,5.54,2.19,7.92,3.83,3.04,2.1,6.5,3.28,9.84,4.65,4.63,1.91,8.36,5.11,12.5,7.71,5.24,3.29,10.14,7.1,15.77,9.79,3.85,1.84,7.1,4.75,10.78,6.94,2.57,1.53,6.29.64,6.91-2.21.46-2.1,1.73-2.99,3.56-3.5.48-.13.98-.22,1.44-.4,2.39-.9,2.51-1.32.99-3.4,1.2-.03,2.17.72,3.34.68,2.12-.07,2.89-.98,2.45-3.1-.15-.74-.52-1.36-1.04-1.82-3.04-2.75-3.72-6.32-2.89-10.01.88-3.9,1.28-7.97,3.73-11.47,1.76-2.51,4.51-3.66,6.59-5.68,1.22-1.19,2.65-2.15,3.53-3.68.55-.96,1.46-1.52,2.38-2.1,2.21-1.41,4.38-2.87,6.55-4.34.43-.29.65.06.91.21.97.53,1.65,1.4,2.16,2.33,1.56,2.85,2.48,5.9,2.34,9.2-.07,1.77-.71,2.13-2.27,1.16-1.81-1.12-3.54-2.27-5.68-2.85-.82-.22-1.39-.29-2.09-.03-8.18,2.97-10.95,12.37-5.98,19.53,2.1,3.02,5.33,4.44,7.93,6.73.16.14.31.27.55.49-3.34,3.02-7.49,3.3-11.57,3.77-1.2.14-2.41.2-3.62.27-.59.03-1.23-.02-1.11.86ZM400.31,575.59c-.83-.87-1.17.32-1.62.69-3.43,2.8-7,5.36-11,7.31-1.36.66-2.11.31-3.02-.84-4.05-5.16-7.47-10.73-10.46-16.52-1.98-3.83-2.57-8.1-2.52-12.92,2.5,2.14,5.59,2.38,7.85,4.77,1.05,1.11,2.55,2.29,3.98,3.26.82.56,1.47-.04,1.31-.63-.94-3.46,1.29-6,2.37-8.87.15-.39.98-.73.23-1.17-.53-.31-1.23-.37-1.66.37-.75,1.29-1.52,2.57-2.38,4.02-.79-.94-.85-1.97-.92-2.98-.09-1.36-.17-2.73-.75-3.97-.4-.87-.87-1.7-1.57-.07-.46,1.07-6.07,3.12-7.11,2.82-.45-.13-.55-.39-.48-.78.27-1.52.27-3.17,1.78-4.15,1.89-1.22,3.8-2.42,6-3.82-.53,4.84,3.62,4.82,6.03,6.35,2.9,1.84,6.33,2.69,9.67,3.54-2.4,3.48-2.71,6.96-1.15,10.79,1.87,4.57,4.24,8.85,6.95,12.95,2.1,3.18,4.6,5.8,8.18,7.61,3.46,1.75,6.61,4.22,9.62,6.7,1.93,1.59,3.95,2.92,6.02,4.29,4.47,2.96,9.46,4.93,13.98,7.78,5.33,3.36,11.11,5.96,16.28,9.6.28.2.67.28.74.93-3.05.26-4.69,2.14-5.49,5.03-.5,1.82-2.32,2.05-3.47,1.41-2.43-1.37-5.09-2.44-7.68-4.76,2.01.42,3.02,1.44,4.18,2.13,4,2.39,5.72,1.83,7.37-2.51.23-.6.44-1.02,1.15-1.01.49,0,.82-.3.85-.78.04-.58-.36-1-.85-1.09-2.97-.57-5.18-2.61-7.74-3.97-.71-.38-1.62-1.32-2.23-.64-.96,1.08.5,1.61,1.1,2.26-4.42,4.45-6.63,4.4-10.78,1.68-1.8-.44-2.88-2.03-4.48-2.8-.29-.14-.57-.29-.91-.45.45-.11.85-.27,1.18.14,1.47.97,3.94.52,4.32,3.04,2.19.83,2.92-1.31,4.3-2.12.59-.35.84-1.2,1.68-1.21.89,0,1.96,0,1.63-1.28-.24-.9-.06-2.05-1.91-2.21-2.02-.18-3.96-1.47-5.92-2.3-1.37-.58-2.7-1.24-4.07-1.82-1.07-.45-2.21-1-1.65,1.13.27,1.02-.88,1.02-1.42,1.17-1.85.51-2.24,1.49-1.33,3.11.16.05.41.1.23.31-.14.16-.33.03-.4-.18-2-.86-3.76-2.08-5.36-3.54,1.02.03,1.95-.83,3.04-.28.28.14.88-.04.84-.42-.2-2.13,1.74-2.09,2.84-2.9.62-.46,1.49-.79,1.39-1.73-.09-.86-1-.6-1.53-.88-3.34-1.71-6.7-3.38-9.98-5.2-.82-.46-1.37-.29-1.89.17-1.58,1.41-3.52,2.52-4.39,4.56-.35.82-.61.5-1.07.25-.87-.47-1.75-.91-2.79-1.43,2.36-1.18,3.62-3.41,5.84-4.51.77-.38,1.33-1.39-.23-1.95-3.39-1.22-6.37-3.13-9.1-5.48-1.15-1-2.44-1.43-3.59.12-.12.16-.35.24-.54.34-3.43,2.01-3.44,2.03-1.52,5.59.16.29.26.61.55,1.3-2.87-1.33-5.33-2.48-7.97-3.71,2.15-1.41,4.19-2.8,6.28-4.09,1.65-1.02,3.14-2.23,4.52-3.58.56-.55,1.37-1.17.62-1.96ZM373.92,552.57c2.07-.59,3.88-.97,5.41-2.13.76-.58,1.18-.48,1.29.65.2,1.96.49,3.93,1.11,5.91-2.28-1.96-5.26-2.6-7.82-4.43ZM382.54,526.47c-.38-.88-.66-1.73-.43-2.92.29.26.44.39.59.52,2.33,1.96,3.28,3.99,1.52,7.06-1.33,2.32-.62,5.3-1.45,7.91-.47,1.5-1.04,2.22-2.69,1.68-2.49-.82-5.09-.36-7.86-.54.94-1.67,2.47-2.33,3.93-3.06.44-.22.96-.27,1.42-.45,1.74-.68,4.56.04,5.09-2.02.67-2.58,1.04-5.49-.12-8.19ZM449.61,523.1c-.17,0-.51.29-.5.32.82,1.82-1.1,2.84-1.25,4.37-.12,1.21.74,1.69,1.62,1.95,2.16.63,3.05,1.9,2.28,4.29-6.66-3.66-12.75-8.1-19.62-10.99-3.29-1.38-5.05-2.67-4.31-6.66.45-2.43.08-5.09.54-7.63.2-1.09.39-1.61,1.71-1,6.8,3.13,13.29,6.83,19.78,10.54,1.67.95,1.14,2.29,1.45,3.43.24.9-.73,1.37-1.7,1.38ZM451.69,525.23c.1,1.09.21,2.17.32,3.42-3.4-1.02-.98-2.27-.32-3.42ZM453.92,545.93c3.11,1.05,5.55,2.84,7.93,4.52,2.19,1.55,4.32,3.23,6.53,4.77.96.67,1.12,1.05.1,1.82-1.52,1.15-3.36,1.86-4.67,3.32-.26.29-.58.4-.91.07-3.25-3.29-7.36-5.47-10.83-8.47,1.33.18,1.91-.42,1.86-1.79-.05-1.34-.01-2.69-.01-4.23ZM458.14,602.8c-.98-.5-2.13-.94-3.08-.72-2.93.67-4.92-1.44-7.35-2.18-.79-.24-.87-.96-.69-1.59.23-.83,1-.47,1.44-.32,2.98,1.03,5.97,1.91,9.16,1.9.59,0,1.08.29,1.23,1.13.45,2.51,1.54,4.75,3.49,6.49.63.56,1.1,1.33.68,2.09-.47.85-1.42.46-2.12.25-4.22-1.27-8.55-2.21-12.23-4.94-1.19-.88-1.89-1.57-1.44-3.34,3.11,2.33,6.88,1.84,10.27,2.86.51.15,1.08.48,1.36-.29.24-.68-.17-1.04-.74-1.33ZM458.55,598.34c-1.27-.53-1.99-2.11-3.6-.67-.53.47-2.16-.26-3.28-.47-1.14-.21-2.04-1.07-3.41-.89-.6.08-1.76-.56-1.9-2.04-.22-2.33-.09-4.65-.29-7.19,3.46,3.62,8.22,2.98,12.39,4.21.49.14.94.47,1.22-.25.31-.8-.37-1.12-.83-1.22-1.55-.33-2.96-1.1-4.63-1.16-1.83-.06-3.74-.29-5.23-1.59-.96-.84-2.88-1.09-2.71-2.6.28-2.55,1.12-5.02,3.2-6.82.68-.59,1.04.16,1.45.39,3.33,1.93,6.62,3.92,9.94,5.87.42.25.87,1.08,1.41.4.59-.74-.02-1.39-.63-1.78-1.55-1-3.14-1.93-4.73-2.85-1.67-.97-3.33-1.93-5.04-2.82-.88-.46-.93-.9-.3-1.6,2.94-3.29,1.64-3.36,4.95-.54,1.81,1.54,3.74,3,5.06,5.09.39.62,1.37,1.5,2.16.72.94-.92-.24-1.41-.83-1.94-2.34-2.09-4.66-4.22-7.05-6.26-.73-.62-1.18-1.02-.18-1.72.73-.51.94-2.26,2.39-.99,2.36,2.04,4.65,4.16,7.09,6.1.86.69,2.13,2.36,2.94,1.34.96-1.21-1.08-1.87-1.91-2.43-2.56-1.73-4.76-3.85-7.09-5.83-.8-.68-.9-1.2-.03-1.83.06-.04.11-.09.16-.14,4.85-4.62,5.31-4.56,10.29,1.76.79,1,1.43,2.13,2.12,3.21,1.9,2.96,1.86,3.35-.89,5.56-1.55,1.24-3.2,2.39-4.75,3.61-2.9,2.28-4.9,5.21-5.48,9.04-.42,2.79-1.72,5.39-1.99,8.32ZM405.79,539.21c1.24.51,2.46,1.1,3.69,1.64q4.11,1.79,1.57,5.93c-2.05-1.18-3.53-3.01-5.2-4.62-.46-.44-.99-.86-1.29-1.4-.36-.64-1.96-.47-1.34-1.47.48-.77,1.7-.42,2.57-.07ZM403.63,538l.09-.11.05.13-.14-.03ZM451.6,541.72c.06.96-.09,1.63-1.28.94-6.59-3.81-13.34-7.31-20.42-10.87,2.7-1.62,5.39-1.61,7.94-2.12.3-.06.69.12.99.28,3.86,2,7.7,4.02,11.57,6.01.91.47,1.55,1.04,1.32,2.15-.26,1.2-.19,2.41-.12,3.62ZM424.29,529.3c-.45-.22-1.14-.75-1.51-.08-.41.74.51.83.89,1.19.49.46,1.76.54,1.14,1.58-.63,1.06-1.5.81-2.51.19-1.64-1.01-3.4-1.89-5.44-1.54-.72.12-1.42.39-1.42,1.32,0,.91.27,1.56,1.37,1.41l.02.04c-.49-1.58.68-1.5,1.56-1.43,1.52.12,2.87.81,4.27,1.7-1.71,1.42-3.63,2.53-5.01,4.24-.24.3-.59.44-.95.26-2.62-1.32-5.67-1.42-8.22-2.93-1.43-.85-1.67-1.59,0-2.47,1.9-1,3.47-2.43,5.12-3.81,3.03-2.53,6.59-3.66,10.56-2.35,2.02.67,4.43.41,5.92,2.33-1.83,2.04-3.78,1.3-5.77.35ZM451.85,569.18c-6.72-5.69-14.17-10.38-21.34-15.45-4.65-3.29-8.81-7.26-13.86-9.99-.78-.42-.89-.81-.23-1.58,2.16-2.53,2.23-2.57,5.12-1.14,4.53,2.24,9.32,4.06,13.08,7.59,3.01,2.83,5.81,5.89,8.76,8.79,3.37,3.31,7.43,5.77,11.04,8.77.48.4,1.06.75,1.18,1.55-.7.75-1.33,1.66-2.19,2.26-.65.46-1.1-.41-1.56-.79ZM452.08,571.41c-.66.84-1.38,1.64-1.97,2.52-1,1.48-1.77.34-2.62-.15-3.41-1.98-6.58-4.29-9.36-7.11-1.73-1.75-3.83-3-6.03-4.03-2.67-1.25-5.13-2.76-7.29-4.78-3.24-3.03-6.95-5.47-10.43-8.2-1.6-1.26-1.37-4.75.46-5.65.75-.36,1.33.2,1.93.57,4.1,2.51,7.55,5.88,11.4,8.71,5.39,3.96,10.92,7.73,16.32,11.67,2.36,1.72,4.55,3.67,6.82,5.52.32.26.78.41.76.94ZM408.91,536.3c1.66.88,3.48,1.22,5.22,1.84.72.26,1.43.56,2.14.85-.11.28-.13.43-.21.54-1.33,1.95-2.74,2.68-5.09,1.19-2.06-1.31-4.5-2.02-6.78-3.01.01-.11-.03-.29.04-.36.85-.88.97-2.56,2.09-2.84,1.01-.26,1.61,1.28,2.58,1.8ZM403.79,541.14c1.82,2.12,3.99,3.86,6.08,5.68.7.61.92,1.09.47,1.98-.77,1.51-1.38,3.1-2.05,4.65-1.28-2.77-5.23-3.65-5.09-7.2-1.91.42-2.1.81-.78,2.45,1.34,1.66,2.76,3.26,4.17,4.87.83.95,1.14,1.83.22,2.99-.84,1.06-1.28,2.37-1.33,4.05-2.63-2.6-4.97-5.1-6.6-8.22-.26-.49-.34-.89-.14-1.4,1.24-3.1,1.98-6.39,3.42-9.43.47-1,.88-1.31,1.64-.42ZM444.79,594.76c-3.1-1.57-5.36-3.81-7.52-6.01-5.82-5.92-12.07-11.32-18.71-16.3-3.54-2.65-6.98-5.43-10.04-8.65-1.74-1.83-1.95-3.25-.64-5.45.36-.61.83-1.15,1.33-1.85,8.26,7.8,17.9,13.74,26.37,21.15,2.8,2.45,4.95,5.53,7.9,7.82.83.65.72,1.88.71,2.79-.03,2.08.36,4.11.58,6.48ZM445.06,598.43c-3.58-1.91-7.68-2.03-11-4.37-4.02-2.83-8.13-5.52-11.56-9.05-3.53-3.63-7.85-6.33-11.34-10.04-1.85-1.96-3.69-3.94-5.52-5.92-.47-.51-.48-1.01-.31-1.57.36-1.15.74-2.3,1.09-3.37,13.72,10.56,26.37,22.23,38.64,34.31ZM403.66,560.49c1.25,1.2,1.53,2.32.79,3.85-.36.75-.46,1.62-.78,2.78-3.17-3.01-4.63-6.63-6.17-10.18-.96-2.2-.85-2.24.52-4,1.41,2.91,3.37,5.37,5.63,7.54ZM402.57,568.14c1.19,1.18-.88,2.27-1.2,3.6-2.27-4.81-6.17-8.97-5.52-15.11,1.98,4.18,3.49,8.3,6.72,11.51ZM404.43,570.18c9.85,9.95,20.06,19.5,32.19,27.65,3.03.68,5.43,1.56,7.74,2.7.89.44,1.33,1.13.9,1.81-.47.76-1.1-.12-1.6-.39-2.2-1.19-4.76-1.76-6.99-3.94-2.39-.54-4.1-1.45-5.81-2.4-6.44-3.58-12.23-8.08-18.06-12.52-2.1-1.6-4.93-2.01-6.65-4.2-.22-.28-.54-.48-.76-.76-3.05-4.08-3.41-2.9-.97-7.96ZM444.82,582.47c-.31,1.52-.85,1.59-1.87.55-1.95-1.99-3.87-4.02-5.92-5.89-7.5-6.84-16.22-12.13-23.94-18.7-3.58-3.05-3.7-2.98-1.76-7.24,1.23-2.71.99-2.34,3.17-.66,3.5,2.69,6.87,5.57,10.09,8.59,2.72,2.55,5.99,4.09,9.15,5.87,3.52,1.98,5.88,5.4,9.23,7.6,1.37.9,2.76,1.78,4.13,2.69.34.23.64.51.98.79-.17.25-.26.45-.42.58-1.86,1.5-2.41,3.65-2.84,5.82ZM462.19,561.49c-1.56,1.41-3.08,2.79-4.6,4.16-.48.43-.83.87-1.59.24-4.64-3.89-9.86-7.09-13.98-11.61-1.2-1.31-2.53-2.51-3.69-3.86-3.48-4.04-8.35-5.87-12.88-8.24-1.64-.86-3.29-1.71-4.98-2.48-1.01-.46-.93-.97-.21-1.53,1.29-1.02,2.61-1.99,3.93-2.96.67-.49,1.15.03,1.73.29,3.55,1.58,6.41,4.25,9.77,6.14-2.48-2.46-5.41-4.35-8.17-6.47-.47-.36-1.74-.46-1.16-1.32.47-.7,1.48-1.51,2.52-1,4.41,2.14,8.8,4.33,13.15,6.57,2.91,1.5,5.71,3.21,8.65,4.65,1.02.5,1.36,1.04,1.32,2.1-.06,1.91-.02,3.82-.02,5.73-3.12-1.34-5.79-3.42-8.66-5.17-.96-.59-1.95-1.13-2.93-1.69,3.58,3.07,7.64,5.47,11.49,8.16,3.63,2.53,7.13,5.19,10.3,8.31ZM427.61,507.07c-1.73,3.4-1.31,7.08-1.34,10.69-.03,4.43-.02,4.45,4.3,6.18,2.25.9,4.25,2.2,6.56,3.81-1.54.05-2.77.13-3.88.62-.87.39-1.43.1-2.05-.53-4.45-4.58-15.51-4.75-19.61.47-1.21,1.54-3.06,2.3-4.68,3.33-1.02.65-2.03,1.3-2.8,2.57-.39-1.14-.49-1.93-1.96-1.49-1.24.37-2.02-1.08-2.86-1.87-.69-.65.32-1.08.6-1.58,1.63-2.94,2.64-6.23,5.13-8.69.54-.54.44-1.68.05-2.44-.39-.76-1.13-.68-1.86-.32-.22.11-.59.14-.78.02-2.84-1.64-5.74-3.18-8.23-5.35-.44-.38-.46-.58-.02-1.13,2.88-3.58,6.86-5.5,10.86-7.4.92-.44,1.95-.39,2.96-.35,4.35.17,8.71.63,13.04.39,2.69-.14,4.29,1.59,6.43,2.36.33.12.29.42.15.7ZM390.92,514.18c.92,3.81,2.64,6.61,3.95,9.6.7,1.6,1.42,1.55,2.47.43,1.19-1.26,2.74-1.99,4.56-2.65-1.11,2.16-2.25,4.31-3.33,6.49-.34.68-.95.52-1.45.63-2.35.5-4.29-.87-6.33-1.58-1.25-.43-.7-2.03-.7-3.08-.01-3.1-.49-6.26.84-9.84ZM392.83,512.63c2.07,2.98,5.54,4.17,8.47,6.4-1.36,1.43-3.09,2.06-4.47,3.17-.51.41-.94.3-1.23-.23-1.41-2.65-2.74-5.34-3.24-8.34-.06-.36.02-.72.47-.99ZM391.41,510.19c-.4-.11-.74.28-.73.62.06,1.78-1.49,2.9-1.81,4.52-.3-2.97.55-5.84.72-8.78.1-1.8,1.23-2.13,2.73-.97.89.69,1.61,1.61,3.18,1.93-1.49,1.03-1.68,3.33-4.09,2.68ZM391.19,529.26c2.89.64,5.75,1.41,7.82,3.87.9,1.07,2.17,1.83,3.75,1.68.74-.07,1.51.06.69,1.02-2.69,3.18-3.64,7.14-4.99,10.93-.48,1.34-.98,2.66-1.49,4.06-1.98-.59-3.26-2.18-5.74-1.84-1.66.23-3.61-1.43-5.38-2.34-1.33-.68-3.12-1.22-3.68-2.34-.37-.73,1.06-2.4,1.74-3.62,1.27-2.28.99-4.86,1.42-7.3.73-4.2,1.73-5.05,5.86-4.13ZM445.3,610.53c1.64-1.19,2.23.55,3.3.88.72.23,1.69.62,1.25,1.81-.24,2.18-1.94,3.13-3.92,2.19-.13-.06-.25-.14-.38-.21-3.55-1.94-3.51-2.3-.24-4.68ZM426.41,603.67c2.04-1.32,3.8-2.35,6.1-.79,1.5,1.01,3.26,1.65,5.26,2.62-1.94.94-3.26,2.3-5.54,1.1-1.85-.98-3.78-1.83-5.82-2.93ZM411.54,594.81c2.3-3.01,2.82-3.18,5.74-1.94,1.87.79,3.73,1.63,5.31,2.97-4.11,3.14-7.29-.55-11.05-1.03ZM418.88,601.32c-1.74-.86-3.21-2.1-4.66-3.37,3.16.04,3.74.46,4.66,3.37ZM414.14,597.88c-.07-.05-.14-.1-.21-.15.06-.01.11-.03.17-.04.01.07.03.13.04.2ZM396.94,584.99c.31-1.27,2.07-1.78,3.21-2.59.16-.11.85.38,1.2.69,2.26,1.97,4.76,3.54,7.61,4.86-.81,1.04-1.48,1.18-2.66.94-1.63-.34-3.33-.72-5.05-.5-.72.09-1.42-.08-2.07-.38-1.31-.6-2.55-1.74-2.24-3.01ZM397.76,589.41c-.05.07-.11.13-.16.2-.05-.08-.09-.17-.14-.25.1.02.2.04.3.06ZM397.36,589.27c-.12-.07-.24-.13-.35-.2.05-.05.1-.09.14-.14.07.11.14.22.21.34ZM405.78,590.89c-1.04.63-2.15,1.91-2.41,1.84-1.82-.47-3.44-1.49-4.9-2.81,2.31.63,4.75.02,7.31.96ZM479.79,569.84c-1.47.86-2.95,1.72-4.34,2.7-.96.68-1.42.38-1.95-.51-2.24-3.76-5.21-6.89-8.57-9.78,1.41-1.6,3.21-2.41,4.65-3.65,1.31-1.14,2.23-1.12,3.38.06,2.8,2.88,5.88,5.53,7.37,9.45.33.87.2,1.29-.55,1.73ZM471.08,554.81c-.73.29-1.19-.09-1.73-.47-3.49-2.47-7-4.9-10.51-7.34-.47-.32-.95-.63-1.46-.88-4.07-2-4.3-2.44-3.72-7.07.04-.35.04-.71.06-1.06,8.36,3.22,14.52,9.47,21.15,15.42-1.3.48-2.56.91-3.79,1.4ZM453.78,533.04c.2-.78.47-1.13,1.04-.58.86.83,2.48.93,2.51,2.63,0,.54.52.88,1.11.61.75-.34,1.92-.8,1.53-1.66-.54-1.17.04-1.9.41-2.76,1.43-3.27.45-4.94-1.98-5.78-.74-.26-1.47-.52-2.21-.77q-2.77-.94-2.85-4.13c5.21,2.03,10.07,4.39,14.86,6.95,2.25,1.2,4.64,2.15,6.97,3.2,2.19.98,4.01,2.43,5.54,4.26,1.27,1.52,3.04,2.38,4.69,3.34,2.48,1.44,4.64,3.31,7,4.91.51.35.9.59.8,1.31-.33,2.44.11,4.83.57,7.2.32,1.66-.04,3.27-.25,4.88-.15,1.14-.65,1.59-1.79.65-6.42-5.29-14.01-8.67-21.22-12.61-4.47-2.45-9.07-4.74-13.63-7.04-1.8-.91-3.76-1.87-3.08-4.6ZM453.79,526.08c1.47.2,2.83.61,4.09,1.21,1.04.5,1.89,1.42,1.05,2.53-.64.85-1.05,2.29-3.06,1.23-2.39-1.26-2.1-3-2.09-4.98ZM496.79,542.22c7.71,2.44,14.48,6.52,20.99,11.32-.82.45-.86.85-.4,2.06.82,2.19.66,4.74.97,7.13.48,3.71.1,7.42.03,11.12-.02.95-.42.95-1.18.53-6.42-3.54-12.86-7.04-19.28-10.57-.74-.41-1.11-1.04-1.11-1.92-.02-6.56-.38-13.11-.01-19.68ZM413.7,454.67c-2.37,1.02-4.38,2.66-7.25,3.1,1.07-2.27,2.08-4.4,3.19-6.75,1.12,1.68,2.58,2.56,4.06,3.65ZM407.64,447.84c-1.61,1.25-3.24,2.49-4.86,3.74-.17.12-.36.3-.5,0-.03-.06.12-.22.19-.33.16-2.64,1.09-5.13,1.51-7.93,1.32,1.14,2.52,2.22,3.78,3.22.73.58.35.93-.13,1.31ZM401.13,442.23c-1.99,1.5-3.31,3.67-4.82,5.96-.56-2.25-.89-4.21-.98-6.22-.05-1.1-.52-1.81-1.57-2.65-2.34-1.86-4.8-3.57-7.05-5.52-1.26-1.09.75-1.73.95-2.72.16-.77.64-.95,1.42-.44,4.28,2.8,8.77,5.31,12.17,9.26.76.89,1.09,1.41-.12,2.32ZM379.91,421.9c3.82,2.96,8.67,3.54,11.6,7.28-.18.42-.44.26-.68.13-2.67-1.52-4.01-1.24-5.59,1.54-.86,1.51-1.43,1.44-2.61.34-2.86-2.67-2.91-2.61-2.72-9.28ZM380.75,432.39c3.59,2.67,8.02,4.15,11.02,7.64.47.54.84,1,.28,1.64-1.54,1.79-2.49,3.97-3.94,6.25-.66-2.46-1.21-4.52-1.75-6.58-.17-.67-.5-1.53-1.19-.78-.93,1.01-1.5.25-1.89-.23-2.17-2.63-4.88-4.58-7.66-6.47-.4-.27-1.46-.58-.61-1.4.9-.87,2.88-2.28,2.96-1.95.42,1.87,1.99,1.29,2.78,1.88ZM366.55,467.18c-3.46-.72-6.81-.19-9.59-2.19-.23-.17-.54-.32-.77-.07-.4.45-.2.93.03,1.39,1.25,2.56,2.48,5.13,3.77,7.67.39.77.72,1.53.93,2.37.74,2.92-.21,4.12-3.36,4.31-.67.04-1.57.3-1.92.78-1.18,1.62-2.48,1.44-3.85.48-3.92-2.75-8.55-3.85-12.87-5.67-2.12-.89-3.96-2.16-5.93-3.48,3.53.23,6.53-1.34,9.7-2.18,1.32-.35,1.76-1.03,1.06-2.12-1.84-2.85-2.49-6.42-5.3-8.7-.45-.37-1.05-.91-.74-1.64.4-.93,1.2-.43,1.87-.43,2.77,0,5.58.33,8.3-.46,2.38-.69,2.97-1.86,2.25-4.3-.61-2.08-1.54-4.08-1.8-6.78,2.31,2.2,5.46,2.57,6.81,5.4.08.18.65.35.71.28,1.22-1.38,2.13-.07,2.92.46,2.26,1.51,4.59,2.86,7.11,3.89,1.16.47,1.54,1.09,1.2,2.57-.61,2.65-1.44,5.36-.53,8.4ZM354.79,486.68c-5.38-2.08-10.23-5.18-15.62-7.98,1.98-.05,7.9,1.96,9.75,3.19,1.36.91,2.73,1.82,4.31,2.31,1.12.35,1.4,1.33,1.86,2.2.09.17.26.35,0,.49-.05.02-.19-.14-.29-.22ZM354.87,488.72c-2.69,1.85-5.23,3.54-7.69,5.34-.67.49-1.21.64-1.94.31-4.4-2-8.71-4.18-12.67-6.98-.97-.68-.91-1.26-.07-2.02,1.62-1.48,3.22-2.99,4.76-4.56.51-.52.92-.83,1.64-.45,5.27,2.77,10.55,5.52,15.96,8.36ZM366.9,455.19c-2.96-1.41-5.72-3.16-8.59-4.71-1.6-.86-2.04-1.97-1.88-3.6.25-2.55.53-5.1.7-7.66.07-1,.5-1.21,1.36-1.06,1.75.31,3.35.76,3.53,2.95.02.25.26.69.35.68,2.59-.36,3.62,2.28,5.75,2.94,2.13.66,4.2,1.7,5.95,3.22.72.62,1.26,1.06.64,2.09-1.41,2.33-2.04,4.95-2.65,8.16-1.41-2.12-3.47-2.21-5.16-3.02ZM370.76,444.43c-2.09-1.1-4.18-2.14-5.87-3.86-.77-.78-.95-1.44-.48-2.43.99-2.06,1.88-4.16,2.84-6.23.29-.62.56-1.41,1.52-.65,4.5,3.56,9.71,6.18,13.71,10.42.93.98,1.15,1.91.62,3.21-1.02,2.55-1.86,5.17-2.84,7.94-1.22-1.41-2.47-2.58-3.47-4.18-1.31-2.1-3.84-3.07-6.03-4.22ZM303.95,378.16c3.27,1.69,6.3,3.08,9.16,4.77,8.6,5.06,17.14,10.23,25.57,15.57,3.3,2.09,6.94,3.66,10.5,5.3,7.58,3.48,13.84,9.06,21.09,13.05,2.25,1.24,4.57,2.35,6.83,3.57,1.03.56,2.23,1.13.41,2.33-.71.47-.54,1.48-.39,2.21.7,3.33-2.58,4.43-3.69,6.75-.2.42-.61.02-.88-.19-.94-.76-1.94-1.47-2.82-2.3-1.41-1.34-2.54-1.33-3.18.45-1.02,2.83-3.43,4.91-3.82,8.68-1.69-2.73-4.82-.93-6.36-4.02-.22,5.16-.9,9.58-1.71,14.24-2.04-1.29-3.92-2.4-5.72-3.63-1.44-.98-2.19-.68-2.41,1.03.01.23.03.46.04.69-.17-.05-.33-.1-.5-.15-5.47-2.21-10.23-5.65-15.01-9-7.83-5.49-15.99-10.44-24.18-15.37-1.44-.87-2.18-1.67-2.25-3.58-.28-8.42-.96-16.83-1.29-25.24-.2-4.97,1.4-9.87.61-15.16ZM255.03,396.71c-2.62,5.44-5.72,10.65-7.99,16.56-6.87-5.03-14.64-7.95-21.45-12.54-.47-.32-.93-.73-1.46-.89-5.71-1.66-4.84-6.41-4.82-10.58.02-2.95,6.07-9.07,9-9.67.6-.12.96.21,1.36.46,5.79,3.65,11.65,7.16,17.56,10.62,2.45,1.44,5.13,2.48,7.43,4.21.85.64.77,1,.36,1.83ZM292.05,387.92c-1.98-4.68-6.05-7.57-11.1-7.65-3.81-.06-7.31.83-10.55,2.89-4.69,2.98-9.39,5.94-13.2,10.06-.59.64-1.01.48-1.65.13-4.78-2.67-9.59-5.3-14.39-7.94-1.17-.64-1.34-.88-.01-1.92,2.02-1.59,2.83-4.17,3.77-6.57,3.09-7.93,1.22-15.87.21-23.81-.3-2.4-.13-2.89,2.26-3.3,3.3-.57,6.42-.28,9.59,1.16,9.44,4.3,18.02,10.02,26.8,15.45,5.27,3.25,10.23,7.13,16.05,9.39,2.88,1.12,2.46,3.45,2.73,5.6.09.69-.08,1.42-.13,2.13-.38,4.77-1.08,9.52-.75,14.32.28,4.12.72,8.23,1.02,12.35.2,2.8.27,5.61.38,8.42.03.76-.24,1.04-1.04.63-2.55-1.29-4.92-2.88-7.13-4.66-.97-.78-.8-2.2-1.05-3.33-.38-1.68-.18-3.4.08-5.11.93-6.23.62-12.31-1.88-18.22ZM280.27,406.63c-.66.48-1.17-.3-1.81-.69.54-.45,1-.84,1.62-1.36.29.92.75,1.64.19,2.05ZM269.63,398.28c3.55-2.43,9.11.1,9.59,4.37.14,1.22-1.15,1.46-1.89,1.95-1.48.99-2.36-.79-3.62-1.06-.99-.21-.15-1.03-.08-1.58.1-.85.24-1.69.3-2.54.03-.43-.1-.92-.62-.97-.64-.07-.55.48-.62.88-.06.35-.22.68-.28,1.02-.35,2.33-1.31,3.95-4.2,3.29-.06-.47.01-1.1-.21-1.6-.86-1.9.35-2.89,1.63-3.77ZM262.23,403.88c1.47-.68,2.66-1.76,3.85-2.9,1.47,3.62.75,5.76-2.37,7.3.06-1.31-.79-2.16-1.6-2.99-.56-.57-.77-1,.12-1.41ZM260.47,405.43c1.32.72,1.11,3.08,3.19,2.91-.68,1.49-1.36,2.99-2.05,4.52-.84-.69-1.54-1.52-2.43-1.92-.91-.41-1.63-1.08-2.51-1.46,1.29-1.37,2.55-2.71,3.8-4.04ZM255.53,428.97c-1.76-2.04-2.96-4.21-2.96-7.09,0-4.16,1.53-7.76,3.28-11.41,1.7,1.16,3.11,2.23,4.63,3.14,1.43.85.41,1.76.14,2.57-.39,1.18-1.06.13-1.48-.04-.85-.34-1.61-.9-2.42-1.35-.39-.22-.84-.36-1.15.08-.31.44-.05.86.29,1.12.62.47,1.32.85,1.96,1.3.66.47,1.95.43,1.91,1.44-.04,1.18-.38,2.43-.92,3.47-.4.77-1.39.86-2.25.37-.73-.42-1.49-.52-1.62.49-.12.95.88.66,1.42.85.06.02.14.02.21,0,1.73-.17,3.57.45,3.87,1.94.25,1.24-1.34,2.47-2.54,3.41-.94.73-1.65.56-2.38-.28ZM262.16,432.56c-1.34.57-2.17-.36-3.16-.79-.76-.34-.21-.83.13-1.15.84-.78,1.78-1.48,2.07-2.66.11-.43.25-1.02.62-.94.51.11,1.04.51,1.4.92.37.42-.12.75-.4,1.06-.8.88-2.64,1.79-1.36,2.95,1,.91,2.13-.89,2.69-1.75,1.14-1.77,1.68-.46,2.7.27-1.6,1.04-3.19,1.45-4.68,2.08ZM277.25,435.2c-4.4-2.96-9.07-5.49-13.27-8.78-3.38-2.65-3.76-2.9-2.63-6.88,1.39-4.89,3.1-9.62,7.24-13.02,1.3-1.07,4.14-1.62,5.83-.61,5.81,3.46,12.06,6.09,17.93,9.42,3.29,1.86,6.45,3.93,9.71,5.85.78.46,1.09.99,1.08,1.88-.04,3.79-.13,7.57-1.3,11.22-.25.8-.43,1.69.64,1.89.96.18,1.02-.7,1.19-1.42.86-3.78,1.19-7.62,1.3-11.98,6.55,4.1,12.85,7.87,18.97,11.91,7.32,4.83,14.27,10.23,22.26,13.98,1.12.52,3.03,4.72,2.48,5.75-.91,1.7-2.87,1.56-4.43,2.03-1.73.52-3.41-.41-5.14-.46-.89-.02-1.98-.51-2.49.62-.51,1.12-.38,2.39.57,3.16,2.51,2.05,3.39,5.05,4.76,7.76.23.46.9,1.03.24,1.47-.66.45-1.73.44-2.16-.16-1.37-1.94-3.5-2.69-5.49-3.25-4.82-1.37-9.01-3.93-13.22-6.45-5.26-3.14-10.66-5.98-16.2-8.57-4.71-2.2-9.17-4.9-13.79-7.26-4.84-2.47-9.56-5.07-14.07-8.1ZM276.63,476.6c-.13-3.33,1.7-5.96,3-8.78.19-.41.66-.84,1.09-.98,2.97-1,5.74-2.61,9.2-1.38,3.18,1.13,5.71,2.39,8.07,5.2,1.97,2.35,5.21,4.28,8.41,5.54.78.31,1.62.61,1.9,1.54-5.43,3.09-11.62,4.15-17.28,6.6-2.02.88-4.15,1.52-6.16,2.42-.75.34-1.16.12-1.73-.24-1.97-1.28-3.94-2.55-5.95-3.76-.61-.37-.91-.61-.79-1.45.23-1.54.3-3.13.23-4.69ZM299.11,462.79c-.06,1.66.04,3.47-1.34,5.24-2.38-4.3-6.93-3.83-10.71-4.84-2.08-.56-4.23,1-6.37,1.52-2.41.59-3.09,2.79-4.08,4.82-1.47,3.01-1.79,6.11-1.73,9.33,0,.43.17.96-.02,1.27-1.54,2.53.16,3.17,2.05,4.1,2.01,1,3.78,2.47,5.74,3.78-3.19,1.84-5.73,4.1-7.76,6.86-.8,1.08-1.92,1.76-2.73,2.8-.51.65-1.19.18-1.78.02-1.02-.28-2.04-.59-3.22-.94,1.38-1.93,3.6-2.11,5.34-3.05,1.46-.79,2.02-1.17,1.06-3.13-.97-1.99-.7-4.6-.94-6.94-.2-1.84-.48-3.69-.5-5.53-.02-2.17-1.21-3.43-2.92-4.36-1.84-1.01-2.58-3.17-4.46-4.15-.4-.21-.05-.79.11-1.15,3.07-6.88,6.61-13.35,14.29-16.19.86-.32,1.73-.76,2.42-1.35,3.01-2.58,6.62-2.57,10.26-2.6,1.08,0,1.88.47,2.69,1.12,4.31,3.51,4.8,8.36,4.63,13.37ZM253.4,495.16c.1-2.22.25-4.08.25-5.93,0-2.12,1.28-3.4,2.76-4.58,1.11-.88,2.44-1.56,3.35-2.61,2.53-2.92,6.14-3.71,9.44-5.14,1.03-.45,1.25-.04,1.33.83.41,4.33.83,8.66,1.27,12.99.09.88-.37,1.46-1.07,1.65-3.21.84-5.22,3.39-7.67,5.3-2.61,2.04-5.87,2.09-8.81,3.1-.81.28-.88-.39-.87-1.03.03-1.64,0-3.29,0-4.56ZM288.66,446.45c.01-.07.03-.15.04-.22.07.07.14.14.21.2-.08,0-.17.01-.25.02ZM257.57,469.17c1.8-4.08,3.54-8.19,6.39-11.72,2.75-3.41,5.66-6.66,9.44-8.92,3.41-2.05,7.03-3.75,11.02-4.34,1.73-.26,3.09.75,4.22,1.99-3.31.04-5.97,1.58-8.55,3.5-1.22.91-2.84,1.28-4.25,1.97-5.23,2.55-8.27,7.12-10.7,12.11-1.3,2.67-2.58,5.37-3.6,8.19-.64,1.75-2.94,1.9-4.23,3.89-.2-2.58-.62-4.69.25-6.66ZM255.63,474.6c.01.34-.2.88-.06.99.88.64,1,1.25.09,1.92-.85.62-1.62,1.35-2.88.71-1.45-.74-2.99-1.28-4.32-2.38,1.75-2.53,4.64-3.23,6.96-5.38.08,1.58.16,2.86.21,4.14ZM241.58,475.91c2.44-2.18,5.19-3.96,7.89-5.79,1.17-.79,2.51-1.34,3.48-2.44.6-.69,1.42-.58,1.9-.06.68.74-.29,1.12-.69,1.41-2.47,1.79-4.95,3.59-7.53,5.22-1.17.74-1.26,1.3-.48,2.34,1.89,2.53,4.93,2.99,7.55,4.11.81.35,2.21-.58,2.89-1.52,1.78-2.48,4.42-3.99,6.54-6.08.91-.89,1.7-1.36,2.64.1.47.73,1.39,1.18,2.67,2.2-6.28,1.28-9.78,5.65-14.17,8.65-.75.51-1.03.33-1.58-.13-2.52-2.09-5.12-4-8.44-4.76-1.06-.24-1.94-1.3-2.91-1.97-.91-.62-.07-1,.25-1.29ZM252.23,488.4c-.83,3.45.27,7.04-.4,10.54-.09.46.2,1.1-.39,1.32-.59.22-.8-.44-1.16-.74-3.24-2.59-7.1-4.19-10.52-6.49-.74-.5-1.52-.91-2.28-1.37.05-.1.11-.2.16-.31,1.75.14,3.49.31,5.24.42.39.03.94.07,1.01-.51.08-.62-.33-.88-.91-.94-.35-.04-.7-.14-1.05-.19q-4.54-.67-4.2-5.2c.14-1.89.56-3.76-.09-5.67-.2-.6.18-1.36,1.12-.83,3.77,2.14,8.08,3.22,11.55,5.92,1.26.98,2.44,1.96,1.94,4.04ZM270.65,517.15c.09.33.35.79.22.98-1.72,2.58-.94,5.37-.7,8.63-6.27-5.93-12.24-11.44-15.83-18.96-.28-.58-.53-1.18-.85-1.73-1.37-2.32-1.36-2.28,1.33-3.25,2.28-.82,5-.8,6.83-2.33,2.75-2.31,5.37-2.35,8.37-.91.62.3,1.38.28,2.08.41-2.76,5.52-3,11.26-1.44,17.16ZM292.39,540.65c-1.58.2-2.53-.04-1.99-1.94.11-.39.08-.81.14-1.4,2.29.8,4.45,1.56,6.75,2.37-1.7.63-3.3.77-4.9.96ZM340.59,539.63c-5.74.56-11.37.13-17.06-.17-4.71-.25-9.46.19-14.18.08-8.81-.2-17.25-2.15-24.23-7.72-4.58-3.65-8.99-7.72-11.79-13.08-2.98-5.7-1.97-11.29.04-17.13,1.87-5.43,5.38-9.3,10.11-11.83,5.15-2.76,10.69-4.82,16.37-6.44,4.59-1.31,8.76-3.82,13.44-4.93,1.25-.3,2.49-.55,3.77-.63.43,0,.87.01,1.3.02,1.57.15,3.11-.53,4.69-.18l.86.02c1.47-.39,2.77.5,4.19.56.57.03,1.13.22,1.69.21.66-.01,1.43-.21,1.42-.98,0-.89-.83-.69-1.46-.79-4.07-.69-8.18-.72-12.29-.76-.97.08-1.95.17-2.92.25-.06.03-.13.06-.19.09-4.43,2.3-6.79-2.17-10.22-3.15-.65-.19-1.2-.74-1.79-1.15-1.77-1.23-3.02-2.22-2.17-5.07,1.26-4.25.44-8.77-.44-13.1-.44-2.14-2.32-3.52-3.38-5.36-.17-.07-.41-.13-.26-.37.03-.05.33.07.51.1,3.24,1.62,6.48,3.24,9.72,4.86.29.13.58.25.87.38,3.47,1.8,7.23,3.1,10.3,5.63.48.07.93.19,1.25.59.58.1,1.02.43,1.38.86.35.21.71.42,1.06.63,1.65.93,3.3,1.85,4.95,2.78.42.21.85.42,1.27.63.84.49,1.68.99,2.52,1.48.43.17.86.34,1.29.51,2.9.38,5.2,2.03,7.85,3.62-2.27.88-4.39,1.09-6.55,1.05-.39.15-.77.3-1.16.45-.09,1.87.81,3.08,2.46,3.89,1.21.59,2.35,1.32,3.69,2.08-1.59,2.38-3.86,3.98-5.8,5.89-.66.65-1.35,1.08-.72,2.09.1.17.26.5.23.52-2.9,1.96.44,2.17.94,2.56,3.2,2.53,7.08,3.97,10.51,6.15,3.2,2.03,6.82,2.79,10.29,4.05.49.18,1.54.11,1.36.99-.13.62-.36,1.53-1.09,1.73-3.8,1.04-5.13,3.96-5.79,7.75-5.59-3.81-11.23-7.11-17.09-10.39,1.7-1.88,4.17-2.4,6.01-3.86.44-.35,1.64-.36.93-1.45-.58-.9-1.27-.32-1.87,0-1.83.95-3.65,1.93-5.46,2.92-1.18.65-1.48,1.92-1.24,2.95.21.93.91,2.14,2.44,1.45.18-.08.53.16.77.31,3.73,2.35,7.93,3.94,11.34,6.81,1.38,1.16,2.95,1.99,4.5,2.87.79.45,1.42.28,1.38-.52-.19-3.08,2.24-2.93,4.1-3.48.6-.17,1.25-.18,1.88-.27.49.94-.14,1.6-.44,2.24-.97,2.06-2.17,4.02-3.03,6.13-.71,1.74-1.56,2.03-3.25,1.3-2.97-1.29-5.52-3.27-8.3-4.85-1.48-.84-2.96-1.68-4.47-2.47-.32-.17-.86-.52-1.14-.01-.31.54.25.61.61.84,4.91,3.02,9.54,6.48,14.92,8.72,1.16.48,2.01.54,2.88-.33,1.28-1.26,2.74-2.24,4.54-3,.29,2.85-.48,5.41-1.3,7.96-.23.72-.68.56-1.18.34-4.94-2.16-10.28-3.47-14.64-6.86-.28-.21-.64-.31-.97-.46-.45-.21-.99-.56-1.26.11-.21.5.34.73.71.9,4.04,1.93,7.65,4.74,12.09,5.88,1.58.4,3,1.15,4.32,2.22,1.78,1.44,4.38,1.55,6.14,3.65-5.21,1.16-10.13,3.53-15.48,3.27-3.86-.19-7.29,1.09-10.9,1.82-8.83,1.77-17.61,2-26.55.24-8.92-1.76-15.87-6.97-22.92-11.98-2.95-2.1-4.39-5.78-4.34-9.63.03-2.49.32-4.98.56-7.47.27-2.72,1.6-4.74,3.51-6.37,2.07-1.76,4.13-3.53,5.87-5.58,2.21-2.61,4.9-4.57,7.64-6.5,2.13-1.5,4.66-2.11,7.12-1.94,6.01.42,11.96.41,17.95-.32,1.84-.22,3.76.19,5.67,0-3.05-2.11-6.51-1.38-9.86-1.35-.67.13-1.33.26-2,.38-2.92.45-5.9.33-8.76-.12-7.56-1.19-13.32,1.74-18.09,7.26-2.34,2.71-5.08,5-7.68,7.45-1.9,1.79-3.12,3.89-3.22,6.53-.13,3.33-1.07,6.71-.3,9.97,1.15,4.83,3.54,8.88,8.14,11.5,4.82,2.75,9.11,6.54,14.47,8.19,6.12,1.88,12.33,3.59,18.89,3.05,5.11-.42,10.34-.02,15.25-1.79,3.36-1.21,6.72-1.55,10.25-1.44,3.66.11,7.14-1.19,10.66-2.11,2.43-.64,4.89-1.2,7.27-2.02,1.11-.38,2.53-.86,2.35-2.56-.06-.53.28-.75.56-1.06,2.34-2.55,3.93-5.59,5.63-8.56.43-.75.79-1.55-.19-1.99-.99-.45-1.09.63-1.4,1.18-1.29,2.3-2.71,4.5-4.58,6.67-.62-1.99-.28-3.83-.36-5.63-.03-.64.08-1.3-.03-1.92-.23-1.28-.72-2.04-2.06-.83-1.74,1.58-3.71,2.9-5.6,5.29.17-2.7.31-4.75.42-6.81.03-.61.35-1.34-.44-1.71-.71-.33-1.25.11-1.7.57-.85.87-1.89,1.41-3.31,2.07,1.27-2.74,2.3-5.21,3.54-7.56.61-1.16.28-1.42-.79-1.75-1.79-.55-3.54-.16-5.33.08,0-.85.69-1.18,1.18-1.35,2.69-.94,3.55-3.63,5.33-5.43.27-.27.25-.68.04-1-.3-.46-.7-.58-1.29-.46-2.1.42-4.09-.24-6.06-.84-.54-.17-1.39-.27-1.4-1.08,0-.59.53-.95,1.07-1.23,2.57-1.35,4.61-3.54,7.48-4.49,1.05-.34,1.65-1.59.45-2.75-.55-.53-1.16-.97-1.48-1.75-.51-1.26-.19-2.42,1-2.5,1.67-.11,3.64-2.06,5.11.48.17.29.68.3.98.05.46-.39.23-.87.13-1.37-.97-4.68-2.28-9.24-4.69-13.56,2.72.79,5.63-.3,8.17,1.57,1.03.76,1.01-.6.92-1.2-.36-2.63-.51-5.22.2-7.84.68-2.52.72-2.59,2.78-.95.89.71,1.9,1.3,2.44,2.36.19.37.45.54.85.44.5-.12.67-.46.64-.95-.07-1.06-.05-2.13-.58-3.12-.78-1.46,0-6.07,1.1-7.22.62-.65.9-.04,1.15.31.88,1.21,2.14,2.11,2.84,3.48.21.42.38,1.03.99,1,.81-.03.71-.88.79-1.31.67-3.81,2.21-7.34,3.6-11.31.73,2.16,1.38,4.02,1.98,5.9.15.46.05,1.07.72,1.13.5.04.68-.44.96-.76,1.43-1.63,1.98-3.79,3.25-5.51.48-.65.71-1.58,1.92-1.86.01,2.7.7,5.22,1.11,7.79.09.59-.14,1.46.72,1.57.8.1.97-.75,1.23-1.29.69-1.42,1.48-2.75,2.37-4.06.62-.9,1.33-1.45,2.42-1.48.08-.09.15-.17.23-.26.02.17.04.33.06.5-.3,2.84-1.04,5.58-1.72,8.34-.17.69-.26,1.39-.35,2.09-.04.35-.05.75.39.88.46.14.88,0,1.07-.45,1.26-3.04,4.11-4.43,6.49-6.31.18-.29.42-.64.75-.3.12.12-.12.59-.19.9-1.15,2.37-2.29,4.73-3.44,7.1-.37.75-.48,1.57-.02,2.26.6.9,1.28-.03,1.89-.13,2.32-.39,4.2-1.93,6.63-2.44-1.55,1.76-3.09,3.53-4.65,5.29-.28.32-.64.57-.93.89-1.94,2.16-1.75,3.06.89,3.97,1,.35,2.05.6,3.09.82.96.21,2.01,0,3.06.69-2.2,2.14-4.43,4.16-6.89,5.92-2.25,1.61-2.15,2.62.3,4,.67.38,1.46.55,2.14.92.66.36,1.54.41,2.08,1.5-1.14.25-2.19.58-3.25.71-2.71.34-4.91,1.79-7.16,3.15-.86.52-1.02,1.23-.69,2.2.78,2.35,2.12,4.33,3.65,6.23,1.89,2.34,1.65,3.08-1.2,3.57-2.86.49-5.6,1.82-8.65,1.01-.86-.23-1.35.64-1.35,1.53,0,1.01.2,2,.77,2.85.65.96.62,1.98.49,3.09-.87-.2-1.44-.72-2.02-1.24-1.2-1.04-2.63-1.17-4.02-.64-1.41.54-1.27,1.93-1.27,3.14,0,1.63-.02,3.24-.86,5.07-.73-.83-1.3-1.63-2.03-2.26-1.69-1.46-2.43-1.37-3.42.64-1.36,2.76-3.01,5.31-4.9,7.77-.94-.51-.59-1.52-.93-2.23-.3-.61-.42-1.24-1.33-.89-.79.31-.83.85-.58,1.55.66,1.88,1.31,3.77,1.2,5.82-.03.61.33.92.89,1,.59.08,1-.26,1.1-.8.75-4.19,4.05-6.98,5.75-10.63.58-1.24,1.1-.91,1.67-.27.98,1.1,2.32,1.97,2.7,3.51.3,1.22,1.02.8,1.72.53-.22,3.26-.35,6.52-.2,9.79.03.56.14,1.23-.46,1.53-.61.31-1.13-.19-1.48-.59-1.66-1.85-3.27-3.74-4.87-5.64-.37-.44-.76-1.08-1.31-.88-.6.22-.34.97-.35,1.54-.06,3.22,1.75,6.19,1.24,9.48-.32,2.08-.42,3.98-3.41,4.14-3.59.2-6.09,2.87-8.87,4.83-.36.25-.71.49-.61,1.02.11.55.57.53.97.66,1.33.42,2.7.18,4.05.34.9.11,1.83-.06,2.67.35.07.4-.15.61-.41.71-3.03,1.16-4.64,3.39-5.02,6.58-.13,1.11-.53,2.13-1.85,1.25-4.25-2.82-9.15-4.51-13.22-7.66-1.23-.95-1.72-2.28-2.31-3.75,5.71-2.03,11.2-4.46,15.85-8.5,1.25-1.08,2.01-2.42,2.66-3.82.56-1.19,1.05-1.17,1.8-.39-.24-.85-.56-1.74-1.51-1.88-1.09-.16-1.38.92-1.71,1.65-.94,2.06-2.66,3.28-4.41,4.53-7.64,5.45-16.22,7.95-25.49,8.84ZM359.04,523.08c1.84-1.85,3.42-3.96,5.97-5.69,0,3.32.04,6.31-.02,9.31-.03,1.45-1.28,1.31-2.02,1.01-1.5-.62-2.93-1.47-4.28-2.37-1.28-.85-.16-1.73.35-2.25ZM336.97,625.16c.06-1.89,1.63-3.02,2.8-4.3.23-.25.5.08.72.23,1.63,1.04,3.41,1.38,5.31,1.18.99-.11,1.36.33,1.37,1.33.05,3.25-.68,6.49-.18,9.75.04.24-.13.56-.29.78-.59.82-1.46,1.21-.14,2.56.84.86.31,3.13.25,4.76-.02.47-.68.41-1.1.34-.98-.17-1.95-.37-2.93-.56-4.87.1-7.09-3.31-5.6-8.59-.09-2.49-.3-4.99-.22-7.48ZM355.94,648.18c1.02,8.62.57,17.33,1.54,25.96.22,1.98.77,3.94.73,5.96-.02,1.38-.07,2.7-1.17,3.72-.3-.07-.6-.13-.9-.2-.39.14-.75.11-1.09-.13-.02.94-.14,1.77-1.43,1.22-3.33,5.82-8.82,5.86-14.35,4.99-2.95-.46-6.11-.54-8.74-2.47-1.31-.96-2.13-1.85-1.93-3.64.29-2.61.33-5.26.43-7.89.03-.7-1.19-19.59-1.87-28.73,3.22,2.82,6.68,3.46,10.42,3.07,3.75-.16,7.51-.33,11.26-.49.41-.1.83-.19,1.24-.29,1.35-.77,2.7-1.53,4.04-2.33,1.52-.91,2.07-.45,1.82,1.23ZM348.15,642.17c.01-1.85,0-3.7,0-5.84,2.14,1.07,4.05,1.87,5.78,2.95,1.44.9,1.61,2.63,1.72,4.17.1,1.33-1.39,1.13-2.07,1.73-3.38,2.98-7.49,2.65-11.54,2.73-2.56.05-5.12.4-7.67.29-2.42-.1-4.56-1.1-6.07-3.14-1.86-2.52-1.74-5.61.57-7.71,1.83-1.66,3.84-3.16,6.54-3.67-.19,1.77-.39,3.46-.54,5.15-.11,1.26-.7,2.99,1.78,2.14.53-.18.79.28,1.04.56,1.53,1.71,3.6,1.81,5.64,1.94.87.06,1.7.18,2.51.45,2.24.77,2.29.73,2.3-1.75ZM349.29,618.02c-.45.13-.7-.39-1.04-.63-1.36-.97-1.92-2.54-2.53-3.92-1.7-3.85-3.25-7.88-2.73-12.16.55-4.61.93-9.21,1.13-13.84.17-4.09-.51-8.12-.68-12.19-.31-7.29.48-14.55.45-21.83,0-2.14.16-4.28-.13-6.42-.28-2.02-.25-2.03,1.77-1.86-.8-2.17-3.11-2.12-4.73-3.44,2.16-.52,4.17-.88,6.26-.98,1.23-.06,1.4.52,1.44,1.54.5,13.62.92,27.24.84,40.88-.03,4.41.57,8.85.28,13.27-.25,3.85-.44,7.7-.34,11.54.08,2.92.56,5.83.42,8.76-.02.44.26,1.1-.39,1.28ZM363.42,677.5c-.02.17-.17.33-.58,1.05-.47-8.56-.85-16.53-.27-24.53.3-4.13.68-8.27.51-12.43-.11-2.71-1.06-4.91-3.32-6.6-2.17-1.62-4.1-3.55-6.38-5.04-1.53-1-1.9-2.56-1.94-4.28-.11-4.99.1-10.03-.49-14.97-.78-6.59.43-13.11.03-19.65-.45-7.36-.36-14.72-.46-22.08-.06-4.5-.02-9-.33-13.5-.3-4.41-.75-8.81-1.15-13.22-.07-.78-.72-1.63.74-1.97,1.04-.23,1.08.14,1.74.86,1.79,1.97,1.18,4.16,1.31,6.23.71,11.78-.11,23.57.04,35.36.04,3.53.66,6.95,1.14,10.41.55,3.96-.25,7.89-.5,11.83-.27,4.32-.42,8.67-.37,13,.01,1.03-.39,1.94-.26,3.1.36,3.31,2.95,3.93,4.9,5.38.91.68,1.89,1.29,2.87,1.86,2.66,1.52,3.27,3.99,3.26,6.79-.01,7.08-.37,14.18.12,21.22.5,7.11,0,14.11-.62,21.15ZM354.82,622.02c5.07-1.63,8.68-4.88,12.07-8.47,3.79-3.99,5.72-9.15,8.59-13.71,1.37-2.18,1.9-4.87,2.84-7.39,2.49,1.6,5.16,2.83,7.94,3.84,2.3.84,4.26,2.27,6.18,3.75.4.31.65.51.52,1.19-.32,1.65-.39,3.31-.1,5.04.17,1.04-.68,2.17-1.5,2.9-5.04,4.44-8.25,10.57-13.68,14.68-3.56,2.7-7.7,3.96-11.75,5.5-.48.18-.95.11-1.4-.23-3.19-2.36-6.39-4.69-9.7-7.1ZM393.87,653.81c-1.18,3.87-3.58,7.23-5.45,10.81-2.6,4.99-7.02,7.45-12.04,9.18-1.35.47-2.66.99-3.68,2.07-2.05,2.14-4.89,2.66-7.55,3.74-.2-3.67.17-7.15.55-10.6.32-2.94.12-5.87-.02-8.77-.42-8.92.23-17.85-.28-26.76-.09-1.55.51-2.06,1.79-2.56,4.79-1.85,9.57-3.73,13.39-7.37.77-.73,1.65-1.37,2.27-2.23,2.72-3.77,5.84-7.19,9.2-10.4,1.07-1.02,1.47-2.4,2.08-3.74.52,3.43-.17,6.79-.36,10.17-.32,5.82-.82,11.56-.08,17.45.79,6.28,2.07,12.73.16,19.02ZM484,643.08c-3.27-.61-6.55-1.09-9.87-1.47-2.66-.3-5.32-1.38-7.81-2.59-8.69-4.24-17.63-7.98-26.04-12.77-6.98-3.98-14.16-7.59-21.28-11.29-6.38-3.32-13.18-5.82-18.97-10.22-1.79-1.36-3.91-2.41-4.41-4.95-.06-.33-.59-.83-.86-.8-2.22.26-3.5-1.47-5.1-2.41-1.99-1.17-4.21-1.71-6.27-2.67-.7-.33-1.44-.58-2.11-.95-1.53-.84-3.01-1.74-2.07-3.91.08-.17.02-.43-.04-.63-.27-.84-.09-2.33-1.04-2.31-1.41.04-.85,1.5-.89,2.42-.02.42.19.94-.19,1.2-.53.36-.93-.17-1.3-.45-1.59-1.22-3.03-2.58-4.28-4.16-.64-.81-.97-1.6-.68-2.8-1,.67-.81,1.15-.46,1.91,1.3,2.83,3.62,4.71,5.89,6.63.58.49.82.76.53,1.55-3.05,8.4-7.01,16.31-13.23,22.84-1.83,1.92-3.89,3.82-6.49,4.77-2.11.76-2.39.46-2.51-1.74-.41-7.37.58-14.68.92-22.01.21-4.51-1.22-8.88-1.18-13.42.11-11.16.27-22.32-.05-33.47-.05-1.82,0-3.65,0-5.88,3.67,3.74,8.44,5.27,12.62,7.76,2.69,1.6,3.6,2.9,3.67,6.05.1,4.53,2.05,8.67,4.18,12.82,3.06,5.95,7.12,11.1,11.1,16.35,7.16,9.47,16.9,15.85,26.46,22.55,8.13,5.7,17.09,9.78,26.04,13.6,9.74,4.15,19.61,8.12,29.6,11.68,5.12,1.83,10.07,4.51,15.74,4.56.43,0,.88.11,1.28,0,1.53-.39,2,.2,2,1.73.01,3.15.1,3.08-2.9,2.52ZM486.92,630.97c-.42-5.2-.78-10.4-1.13-15.6-.13-1.92-.02-3.88-.33-5.77-.3-1.91.58-1.69,1.73-1.23,1.29.51,2.55,1.12,3.84,1.63.69.27,1.14.61,1.61-.67.65-1.78.45-3.51.53-5.24.15-3.2.08-6.41.76-9.57.28-1.33.26-2.66-.26-4.17-1.71,5.87-2.15,11.68-2.14,17.66-1.85-.41-3.45-1.4-5.28-1.66-.76-.11-1.04-.77-1.05-1.62-.05-4.35-.06-8.7.4-13.03.05-.48.22-1.02.52-1.37.64-.73.76-1.7.03-2.02-.95-.42-1.43.54-1.62,1.42-.45,2.1-.73,4.22-.73,6.37,0,2.84,0,5.69,0,8.86-5.06-1.94-9.26-4.74-11.29-9.63-2.21-5.3,1.55-12.44,7.18-13.98,1.56-.43,3.45.23,4.95,1.37,1.87,1.41,3.84,2.69,5.98,3.91-1.06-1.14-.5-2.22-.32-3.4.85-5.72-.98-10.65-4.78-14.91-.18-.1-.37-.21-.55-.31-3.66.56-4.33-2.73-5.91-4.72-1.91-2.41-3.95-4.65-6.36-6.6,4.36-2.17,5.81-1.67,8.03,2.62,1.46,2.83,3.02,5.61,4.54,8.41.13.17.26.33.39.5.45.12.87.59,1.36.07.46-.5.13-.93-.12-1.35-2.11-3.61-4.23-7.21-6.35-10.82-1.03-1.75-2.81-2.62-4.4-3.65-2.93-1.89-5.39-4.32-7.77-6.64,1.02,0,1.32-.05,2.39.67,5.21,3.51,11.06,5.95,16.25,9.5,1.59,1.08,3.03,2.37,4.6,3.49,1.22.87,2.46,1.18,3.42-.78.29,1.35.47,2.44-.09,3.47-.72,1.33-.16,2.07.98,2.77,5.06,3.08,10.53,5.37,15.71,8.21,2.46,1.35,5.48,2.03,7.07,4.74.07.12.21.29.3.28,3.09-.25,2.8,2.51,3.58,4.17,2.52,5.33,3.51,11.12,4.18,16.89.43,3.7-.74,7.28-2.54,10.64-2.23,4.16-5.23,7.77-7.79,11.67-3.02,4.61-7.53,6.24-12.31,7.92-3.09,1.09-6.1,2.22-9.35,2.8-2.35.42-4.68-.37-7.02.32-.91.27-.78-.99-.82-1.58ZM508.71,630.46c-.1.04-.21.08-.31.12.05-.08.1-.16.14-.25.06.04.11.08.17.12ZM487.67,635.65c-.1-.64.38-.87.9-.97.56-.11,1.13-.26,1.69-.22,4.88.35,9.43-.71,13.81-2.84,1.28-.62,2.66-1.23,4.19-.98-3.77,1.31-6.55,4.64-10.76,5.17-1.42.18-2.46-1.01-4.04-.42-1.37.51-3.08.24-4.62.58-.36.08-1.03.56-1.17-.32ZM571.1,598.91c-.65,3.69-1.36,7.37-2.18,11.02-1.5,6.73-5.64,12.06-9.57,17.48-.52.71-1.04,1.55-2.19.53-.59-.53-1.2.19-.94.77.51,1.14-.27,1.43-.88,2.03-3.54,3.46-7.66,5.81-12.47,7.07-2.75.72-4.91,2.81-7.71,3.62-5.62,1.61-11.3,2.9-17.08,3.72-5.94.85-11.96.82-17.94.93-3.86.07-7.59-1.09-11.1-2.78-.58-.28-.85-.73-.85-1.35,0-1.14,0-2.27,0-3.53,1.49,1.65,3.23,1.39,5.01.94,5.92-1.51,11.41-4.12,16.45-7.42,3.53-2.3,6.5-5.48,9.49-8.53,3.65-3.73,7.34-7.4,10.34-11.7.7-1.01,1.32-2.06,1.61-3.24,1.85-7.46,3.73-14.88,4.05-22.67.17-4.04.31-8.11.53-12.16.12-2.27.29-2.38,2.28-1.05,4.6,3.09,9.19,6.2,14.21,8.59,4.74,2.26,8.87,5.37,12.74,8.89.93.85,2.03,1.54,3.11,2.2,2.87,1.75,3.69,3.3,3.1,6.64ZM599.09,530.95c.27,4.77,1.09,9.49,1.17,14.3.08,4.92-.36,9.82-.37,14.73-.02,5.51.32,10.99.75,16.48.06.71,0,1.43,0,2.14-1.32-5.04-1.8-10.19-2.14-15.37-.63-9.83-.69-19.66.09-29.49.21-2.66-.54-5.22-.94-7.81-.14-.89-.49-1.77-.14-3.05,1.19,2.77,1.42,5.39,1.57,8.07ZM611.5,529.61c.01,1.21-.08,2.4-.41,3.59-.17.61-.27,1-.99,1.11-1.8.26-2.1,1.43-1.68,3,.1.37.44.84-.07,1.15-.5.29-.94.05-1.34-.3-1.05-.91-1.61-2.15-2.14-3.36-.68-1.56-1.18-3.21-1.66-4.84-.34-1.17-.29-2.16.56-3.35.96-1.34,1.09-.09,1.56.16.05-.79.1-1.56.15-2.33,3.57-.49,6,1.59,6.04,5.18ZM614.12,503.47c.36,1.73.56,3.52-.94,5.01-.49.49-.73.78-1.33.19-1.64-1.62-2.84-3.56-4.03-5.51-.29-.47-.35-1.13.03-1.4,1.76-1.23,1.99-3.16,2.55-4.98.16-.54.51-1.02.78-1.52.7-1.27,1.7-2.27,2.74-3.26,1.42-1.35,2.21.95,3.43.35.1.68-.28.95-.57,1.24-2.8,2.78-3.44,6.1-2.66,9.88ZM624.28,497.24c0,1.27-.56,2.1-.96,3.01-.75,1.69-1.42,3.42-2.04,5.16-.77,2.13-2.42,3.08-4.5,3.46-.45.08-1.37.35-1.09-.65.63-2.17-.11-4.25-.3-6.36-.32-3.6,1.64-6.12,3.88-8.46,1-1.05,4.36.3,4.57,1.76.11.78.66,1.47.43,2.07Z"/></svg>