<?xml version="1.0" encoding="UTF-8"?><svg id="Layer_5" xmlns="http://www.w3.org/2000/svg" viewBox="0 0 641.93 793.86"><defs><style>.cls-1{fill:#fff;stroke-width:0px;}</style></defs><path class="cls-1" d="M468.08,331.22c.54,2.69,1.73,5.15,2.74,7.67,1.38,4.88,2.21,9.89,3.36,14.86,1.01-4.51,1.48-9.02,1.31-13.59.53-16.21,1.08-32.42,1.55-48.63.08-2.74.65-5.48.16-8.23.07-.66.14-1.32.21-1.99.03-.85.05-1.69.08-2.54.45-10.45.9-20.9,1.35-31.36.05-2.35.1-4.69.16-7.04.1-7.42,2.41-14.87-.12-22.39-2.78,5.85-5.28,11.66-10.08,16.03-10.96,9.71-24.29,14.92-37.79,19.78-.89.32-1.84.5-2.78.61-1.46.16-2.88-.15-3.5-1.61-.56-1.31-.48-2.72.53-3.89.97-1.12,1.94-2.26,2.95-3.34,8.22-8.77,16.5-17.45,26.79-23.94,4.95-3.12,10.29-5.19,15.92-6.28,3.9-.75,5.41-2.4,4.58-6.21.76-1.84,1.4-3.78,3.24-4.86,1.21-.71,1.01-1.79.78-2.76-.57-2.43-.76-4.96-1.9-7.24-.09-2.08-.8-4.01-1.39-5.97-.46-2.23-.93-4.46-1.39-6.69-.45-2.62-.9-5.24-1.35-7.87-1.87-11.38-3.19-22.84-4.07-34.33-.41-5.35-1.62-10.71-.25-16.1,2.12-1.72,3.44-.64,4.58,1.27,3.52,5.91,5.28,12.5,7.31,18.98,3.71,11.83,7.93,23.52,10.35,35.73,1.2,6.07-.44,11.86-1.31,17.72-.37,2.5-.41,4.39,2.15,5.9,2.96,1.75,4.2,4.68,4.07,8.16-.06,1.48.05,2.82,2.18,2.61,9.29-.93,17.68,1.76,25.55,6.47.15.09.4.01.71.01-.45-6.16-.91-12.29-1.32-18.42-.11-1.59-.13-3.19-.07-4.79.05-1.36.54-2.55,2.09-2.8,1.62-.26,2.31.84,2.73,2.13.72,2.23,1.42,4.46,2.03,6.72,2.07,7.69,5.65,14.94,6.61,22.95.21,1.76,1.59,2.33,2.9,3.07,9.07,5.13,18.18,10.21,26.94,15.87,3.05,1.97,5.92,4.15,8.18,7.03,1.12,2.56-.41,3.5-2.5,4.1-8.71-1.68-16.94-4.99-25.43-7.4-3.35-1.5-6.7-2.99-10.18-4.54-.41,2.75.11,4.41,3.22,3.9,2.23-.37,4.15.71,6.13,1.44,8.26,4.66,16.52,9.31,24.76,14,6,3.41,11.89,6.96,16.85,11.86,1.15,1.14,2.6,2.34,1.82,4.04-.75,1.64-2.66,1.13-4.18,1.39-2.92.5-5.08-1.76-7.78-1.86-.88-.29-1.75-.58-2.63-.88-7.03-3.27-14.43-5.69-21.41-9.11-6.91-3.38-13.98-6.44-18.13-13.49-.33-.56-.81-1.17-1.48-.97-.89.27-.78,1.21-.74,1.92.27,5.11.54,10.22.91,15.32,1.36,19.04,1.54,38.12,2.5,57.18.98,19.47,1.93,38.95,2.88,58.42.12,2.45.36,4.92.12,7.34-.31,3.1,1.05,3.78,3.82,3.71,4.15-.11,8.31.06,12.47.2,1.63.05,2.94.55,2.63,2.68-.18,1.24-.61,1.87-2,1.86-10.64-.09-21.29-.03-31.78-2.27-.41-.09-.88-.35-1.22-.23-10.21,3.68-20.63,1.61-30.99,1.2-.85-.03-1.7-.08-2.55-.15-.86-.07-1.83-.13-1.95-1.22-.12-1.13.69-2.04,1.67-1.95,5.3.46,4.64-2.86,4.62-6.41-.1-20.8-1.76-41.52-2.78-62.28-.68-13.73-.99-27.48-1.48-41.22-.08-2.21.27-4.48-.84-6.56.43-1.82-2.28-1.92-1.89-4.25.83-4.96,1.22-10.08,1.04-15.11-.36-10.42-1.19-20.83-1.89-31.24-.13-2-.56-3.98-.85-5.96-.74,1.32-.81,2.55-.87,3.79-.33,6.38-.68,12.75-.99,19.13-.49,10.09-.95,20.18-1.43,30.27-.07,3.05-.13,6.09-.2,9.14-.31.41-.36.84-.12,1.3-.35,5.63-.83,11.25-1.02,16.88-.49,14.91-.79,29.82-2.44,44.67-.86,7.75,0,15.5.95,23.25,1.6,13.05.94,26.19.57,39.29-.85,29.5-8.6,57.25-21.52,83.67-10.02,20.47-23.46,38.6-38.7,55.34-18.28,20.08-40.26,35.21-65,46.49-22.95,10.46-46.92,17.06-71.85,20.27-17.19,2.21-34.18.25-51.09-3.13-23.06-4.61-44.69-13.12-65.24-24.28-18.54-10.06-34.83-23.26-50.03-37.89-8.77-8.45-17.2-17.15-24.36-27-17.5-24.1-29.68-50.61-35.6-79.84-4.95-24.43-5.79-49.08-2.5-73.78,2.55-19.18,7.96-37.65,15.94-55.28,9.95-21.97,22.87-42.04,39.23-59.86,15.24-16.61,33.51-29.2,52.92-40.27,21.26-12.13,44.13-19.93,68.14-24.51,25.2-4.81,50.35-4.41,75.59-.04,25.75,4.46,49.7,13.64,72.08,26.86,13.31,7.86,25.39,17.49,37.2,27.51,11,9.33,18.66,21.18,26.71,32.78,10,14.4,18.04,29.85,24.16,46.29.37.98.86,1.92,1.3,2.87,0,.71,0,1.42.66,1.91ZM165.63,284.1c.07-.35.15-.7.22-1.05h.22s-.14.08-.13.09c-.4.27-.55.59-.26,1.01-.26,0-.6-.1-.77.02-.52.35.18.39.21.61-1.72-.85-2.53.67-3.34,1.54-2.04,2.19-4.42,3.97-6.72,5.84-12.62,10.24-25.64,19.98-37.53,31.09-3.19,2.98-6.45,6.02-7.53,10.63,17.37-17.51,37.17-32.25,55-49.17l.64-.6ZM105.81,276.8c.51-.19.95-.4.29-.94,1.1,1.04,1.75-.02,2.38-.6,3.77-3.44,7.56-6.88,11.72-9.85,10.92-7.78,20.6-17.1,31.38-25.04,3.22-2.38,6.43-4.77,9.65-7.15-2.28-.13-3.93,1.04-5.52,2.18-13.98,10.08-27.27,21.02-40.43,32.14-3.15,2.66-6.11,5.54-9.14,8.33.13.44.06.81-.39,1.01l.14.05-.09-.13ZM215.84,513.79c-.41.04-1.16-.6-1.04.52-.21-.02-.39-.54-.6-.07-.09.2,0,.48,0,.72-.73-.29-.86,0-.64.65-1.33-.29-1.47,1.11-2.23,1.61-.22.21-.44.41-.65.62-.21.22-.43.44-.64.66-.17.31-.3.69-.79.51.1.26.09.23,0,0,.52.16.79-.01.74-.57.77.3.85-.05.64-.66.26-.04.52-.08.78-.12-.06-.18-.12-.36-.18-.54,1.49.51,1.61-.91,2.24-1.6.22-.21.43-.43.64-.65.21-.21.41-.43.61-.65.36-.14.72-.28,1.06-.43-.07-.27-.15-.54-.22-.81-.09.06-.18.12-.27.18l.55.63ZM401.88,385.89l.04.19s-.05-.17-.05-.17c.17.1.35.2.52.3.09-.35,0-.38-.26-.13-.01.01-.16-.12-.24-.18ZM162.43,232.28s.04-.04.07-.07h-.2s.13.07.13.07ZM401.33,388.47c-.31.27-.92-.32-1.08.38-.32.1-.64.19-.96.29.09.63.32,1.3-.46,1.65l.11.03-.05-.06c.13-.54.26-1.08.4-1.62.39.1.79.22.9-.37.37-.1.75-.2,1.1-.31-.22-.16.31-.72-.35-.64.13.22.27.44.4.65ZM434.23,475.77l-.12-.02c.06-.02.12-.05.18-.05h-.12s.07.06.07.06ZM85.02,298.25c.06-.26.12-.53.18-.8,0,0-.11-.04-.16-.06,0,.31.02.62.02.91-.33-.49-.79-.12-1.18-.18-.48,1.04-.93,2.1-1.44,3.13-4.46,8.89-9.41,17.58-11.62,27.42-.19.25-.5.48-.57.77-5.23,20.9-9.18,42-9.1,63.65.03,9.24-.6,18.53,1.07,27.71-.17,1.09-.12,2.15.3,3.19l.16,1.26c.15,1.21-.15,2.84,1.43,3.13,4.15.76,8.08,2.56,12.37,2.6.42.04.84.09,1.25.13.8.55,1.67.62,2.59.4.61.35,1.25.37,1.91.19.73.22.63-.23.55-.67.02-1.38.1-2.76.05-4.13-.39-12.87-.83-25.74,1.29-38.52.37-2.21-.58-3.52-2.22-4.84-4.58-3.67-8.19-8.32-9.58-13.96-1.99-8.04-2.28-16.39-2.88-24.66-.06-.84-.02-1.74.23-2.53,1.41-4.44.55-9.23,2.16-13.63,2.93-9.77,7.51-18.85,11.72-28.09.39-.86,1.15-1.59.33-2.55.28.83.73.35,1.14.14ZM99.28,529.9c.09-.05.21-.16.28-.14.36.13.42.06.21-.25-.17.13-.34.25-.5.38.19-.62.34-1.24-.17-1.8-.4-.45-.8-.89-1.21-1.33-.21-.18-.41-.37-.63-.53-.02-.01-.15.12-.23.19.19.18.37.36.56.55.36.62.32,1.82,1.58,1.09-1.12.68.42,1.2.11,1.84ZM426.92,485.21c.04.08.09.16.1.24,0,.04-.11.08-.17.11,0-.14.01-.27.03-.4.39.02.77.03,1.16.05.95-2.93,4.19-4.45,4.92-7.77-1.09,1.02-2.2,1.76-2.89,2.78-1.01,1.5-3.1,2.67-2.04,5.02-.33-1.01-.73-.3-1.1-.04ZM322.19,349.78c-.44.1-.69.37-.66.83,0,.07.34.21.37.18.29-.3.92-.56.23-1.07.18.06.36.12.54.18.03-.27.06-.53.09-.8,1.33.56,1.79-.71,2.47-1.3,8.24-7.25,15.8-15.21,23.67-22.85,2.43-2.36,4.74-4.85,7.07-7.31.76-.8,1.4-1.68.21-2.69-1.17-.98-1.56.02-2.22.73-7.18,7.68-14.54,15.19-21.52,23.04-3.14,3.53-7.14,6.28-9.59,10.43-.47-.06-.64.2-.65.63ZM256.23,208.36c-.96.27-1.71.74-2.1,1.93,1.26-.17,1.87-.82,2.5-1.46.48-.41,1.3-.54,1.27-1.46-.83-.06-1.33.33-1.67.99ZM173.1,290.92c-1.48,1.21-2.95,2.42-4.6,3.77,3.06,0,3.6-.48,4.55-3.84l.42.05c-.03-.13-.07-.26-.1-.39-.09.14-.18.27-.27.41ZM371.3,225.48c-.18.09-.35.17-.53.26.08.1.16.2.24.3.08-.19.17-.38.25-.57-3.01-.66-5.34-3.32-8.69-2.97,2.83,1.27,5.28,3.61,8.72,2.99ZM371.71,520.08c-3.48.63-4.85,3.85-7.29,5.75,2.65-1.62,5.22-3.35,7.17-5.81l.24-.78c-.17.06-.34.12-.51.18l.38.66ZM452.15,374.69c-1.24,1.44-2.47,2.88-3.73,4.3-.5.56-.61,1.19-.08,1.69.74.7,1.35.26,1.79-.45,1.08-1.73,1.83-3.58,2.07-5.6h-.11s.06.05.06.05ZM376.43,240.14c2.29.8,3.33-1.11,4.71-2.23.79-.64,1.26-2.13,2.62-.77.31,2-1.1,3.18-2.19,4.47-5.2,6.09-11.39,11.16-17.15,16.67-6.58,6.3-13.14,12.61-19.68,18.94-1.18,1.14-2.15,2.41-.35,4.3,3.34-4.87,7.36-8.92,11.63-12.79,4.62-4.18,8.91-8.72,13.32-13.13,5.1-5.1,10.68-9.72,15.09-15.54,1.35-1.78.74-2.24-.74-2.9-1.19-.31-1.45-3.17-3.36-1.34-1.4,1.35-2.59,2.92-3.86,4.41-1.45,1.57-3.99,1.99-4.76,4.71,2.32-1.13,4.54-1.94,4.72-4.81ZM63.78,433.57c.02.43.05.86.07,1.29,1.84,12.08,5.04,23.79,9.45,35.17-.05.52-.01,1.01.48,1.34.09.68.1,1.39.68,1.9.05.7.06,1.42.71,1.89,3.9,11.98,9.38,23.21,15.98,33.91.03.53.16,1.01.7,1.26.25.43.49.85.74,1.28.87,1.6,1.75,3.19,3.04,4.51,1.74,3.44,4.25,6.35,6.48,9.45,10.73,14.92,22.54,28.82,36.75,40.65,10.34,8.61,21.7,15.73,32.76,23.3,1.44.99,2.79,2.39,4.92,2.6-.52-1.35-1.14-2.27-2.03-3.07-4.91-4.42-9.76-8.9-14.65-13.32-24.83-22.43-45.45-48.06-59.9-78.42-.32-.68-.31-1.75-1.43-1.88l-.06-.07c.71-1.06-.26-1.79-.59-2.58-6.73-16.18-11.46-32.89-13.39-50.35-.85-7.73-.96-7.72-8.67-8.53-.42-.04-.84.02-1.27.04-1.68-.37-3.36-.74-5.04-1.12-.35-.47-.83-.42-1.32-.33-.42-.08-.85-.17-1.27-.25-1.08.35-3.96-3.56-3.12,1.32ZM439.42,424.68c-2.84.8-4.01,3.59-6.16,5.24-1.67,1.28-3.36,2.69-3.88,4.98,4.03-2.73,6.91-6.58,9.95-10.27.37-.07.57-.28.42-.65-.02-.05-.4-.05-.48.05-.22.24-.29.53.16.65ZM356.87,326.16c1.74-1.04,2.88-2.72,4.31-4.08,1.22-1.16.19-1.86-.4-2.64-.91-1.2-1.43-.08-1.93.45-1.37,1.43-2.68,2.92-4.01,4.38-.53.3-1.12.55-1.29,1.23-8.14,6.87-15.14,14.96-23.28,21.85-5.36,4.53-10.59,9.24-15.59,14.16-7.94,7.83-15.59,15.95-23.44,23.87-3.89,3.93-4.11,5.33-.91,10.29.73-.8,1.48-1.56,2.14-2.38,7.13-8.76,15.15-16.71,22.85-24.93,4.69-5.01,9.82-9.66,14.53-14.68,1.03-.71,1.97-1.5,2.61-2.6,8.27-7.33,15.2-15.97,23.13-23.63.64-.21,1.11-.59,1.27-1.28ZM392.01,306.76l.06-.06c2.49-3.14,2.06-7.26,3.81-10.67-2.61.97-4.04,2.95-4.98,5.18-.82,1.95-1.12,4.08,1.12,5.55ZM90.75,302.14c5.44-4.33,10.73-8.81,15.72-14.17-.79-.1-1.08-.23-1.18-.14-4.9,4.33-9.8,8.68-14.67,13.05-.47.42-.9,1.02.15,1.33-.26-1.13-.84-.56-1.23-.17-.19.19-.51.75.12.94.69.2.71-.59,1.09-.84ZM296.28,337.96c-3.3,3.43-6.66,6.8-9.87,10.31-2.52,2.75-3.95,6.01-3.68,9.91,2.15-7.56,6.97-13.25,12.65-18.33.53-.48,1.24-.93.87-1.85.09.03.18.06.27.09-.03.01-.07.05-.09.04-.06-.05-.1-.1-.15-.15ZM321.4,316.7c-.29-.11-.64-.39-.85-.3-5.44,2.34-9.39,6.33-12.35,11.36-.03.05.22.26.53.61,4.21-3.9,8.41-7.78,12.57-11.67-.08-.17-.16-.34-.25-.5-.06.04-.11.07-.17.11.17.13.34.26.51.39ZM281.52,611.72c4.38-1.42,7.38-4.93,11.05-7.42,2.3-1.57,4.77-3.01,6.78-5.41-2.13-.52-3.98-.77-5.31.73-3.88,4.37-8.94,7.42-12.86,11.72-.26.15-.52.29-.78.44.39.33.77.3,1.13-.06ZM401.61,438.91c.71-.74,1.33-1.6,2.16-2.18,2.17-1.54,1.39-2.48-.53-3.3,2.54.58,4.52-.44,6.19-2.24,1.16-1.24,2.28-2.52,3.41-3.79,6.93-7.77,13.6-15.81,20.93-23.19,2.83-2.85,4.05-4.71,1.07-7.8-.12-.13-.28-.22-.49-.39-10.07,11.69-20.87,22.69-31.42,33.93-1.61,1.71-1.45,2.56.41,3.57-3.13-.16-5.06,1.78-6.87,3.92-1.42.95-2.46,2.24-3.33,3.7-.8.51-1.37,1.22-1.77,2.07-.23.24-.47.48-.7.72-.46.43-.97.81-1.37,1.29-7.07,8.54-15.63,15.62-23.25,23.61-1.36,1.42-3.14,2.23-3.19,4.71-.04,1.88-.99,3.74-.13,5.87,2.47-2.62,4.71-5.03,6.98-7.4,8.22-8.59,16.91-16.74,24.86-25.6,2.5-2.35,4.91-4.79,7.03-7.5ZM88.06,344.06c-.26.1-.51.21-.77.31.25.09.5.18.76.27.35,1.35-.92,1.72-1.55,2.38-2.58,2.69-5.25,5.29-7.91,7.9-1.01.99-2.45,2.22-1.27,3.45,1.4,1.45,2.33-.6,3.23-1.37,5.8-4.97,8.76-12.07,13.33-17.98.75.14,1.12-.41,1.6-.83,5.45-4.75,10.58-9.84,15.88-14.73,5.74-5.31,12.08-10.03,17.93-15.27,5.78-5.18,11.56-10.48,18.1-14.6,7.03-4.43,13.44-9.75,20.86-13.69,4.98-2.65,8.97-7.12,13.52-10.62,5.74-4.42,10.99-9.38,16.15-14.45.57-.56,2.07-.78,1.04-2.12-.88-1.13-1.68-.33-2.45.2-.52.36-1.01.78-1.5,1.19-16.85,14.12-33.89,27.99-51.7,40.88-9.94,7.19-18.8,15.66-28.27,23.42-7.67,6.29-15.24,12.62-21.82,20.07-1.97,1.63-3.8,3.38-5.16,5.58ZM207.62,584.52s.01-.01.01-.01c-2.66,2.37-5.3,2.01-8.1.15-5.47-3.65-9.7-8.49-13.58-13.7-.25-.37-.49-.75-.74-1.12-.11-.84-.51-1.5-1.24-1.95-.03-.52-.15-.99-.66-1.26-.02-.91-.56-1.51-1.22-2.05-.14-.98-.6-1.79-1.36-2.42-.04-.91-.43-1.64-1.15-2.2-2.73-5.39-4.17-11.28-6.68-16.78-3.72-8.13-6.34-16.61-7.03-25.68-.32-4.29-1.69-8.71-4.46-12.07-2.98-3.62-5.65-7.42-8.38-11.2-3.21-4.45-6.28-9.1-11.3-11.82-3.6-1.95-6.52-4.45-7.82-8.48-.34-1.07-1.15-1.51-2.2-1.72-.32.87-.34,1.62.3,2.3.67,3.06,1.13,6.18,2.05,9.16,3.2,10.46,7.37,20.56,11.69,30.59,7.18,16.68,16.65,31.97,28.24,45.95.29.87.84,1.5,1.67,1.89,2.73,3.62,5.57,7.15,8.82,10.32,5.43,6.85,11.91,12.65,18.43,18.4.43.38,1.59.87,1.52.34-.46-3.47,2.08-1.04,3.01-1.65.04.2.17.3.38.3.87,1.9,2,3.51,4.27,3.88l.11.06c.24.94.93,1.17,1.79,1.13,2.19,2.23,5.29,2.7,7.93,4.08,4.5,2.35,8.98,4.79,13.7,6.62,4.73,1.84,9.56,3.87,14.89,3.09,2.73.82,5.19,2.47,8.22,2.91-1.18-4.44-4.6-7.5-5.64-11.71.17-1.44-.42-2.73-.87-4.02-4.52-12.88-7.79-26.09-10.31-39.5-2.87-15.3-4.27-30.8-6.18-46.23-.29-2.31-.4-4.74-1.69-6.84-2.28,2.12-4.24,4.24-6.5,5.98-3.47,2.68-4.82,5.84-4.74,10.37.15,8.13-2.29,15.75-8.54,21.29-3.58,3.17-6.34,6.82-9.07,10.62-3.7,5.18-5.2,10.88-4.6,17.17.23,2.43,1.01,4.95.62,7.27-.57,3.4.86,4.38,3.75,4.58.74.05,1.47.21,2.2.32,1.29,1.06.81,2.35.46,3.62ZM186.07,223.25c-.91-.31-1.67.14-2.41.53-4.02,2.11-8.14,3.89-11.92,6.58-7.79,5.53-15.66,10.94-23.35,16.62-1.08.8-1.88,1.64-2.27,2.9-.92.71-1.91,1.35-2.74,2.14-7.87,7.49-16.89,13.55-25.52,20.06-6.17,4.65-11.97,9.81-18.46,14.05-.98.64-3.17,1.5-2.37,2.91.41.72,2.45-.98,3.41-1.84,10.86-9.67,23.32-17.26,34.45-26.56,3.98-3.32,8.44-6.1,11.71-10.23.73-.44,1.53-.79,2.17-1.33,10.46-8.73,21.47-16.68,33.56-23.04,1.44-.76,2.62-1.79,3.78-2.87-.03-.03-.06-.05-.1-.08.02.06.04.12.06.18ZM95.58,524.5c.11.65.7,1.51,1.04,1.25.85-.66-.39-1.1-.53-1.71-4.66-7.86-10.27-15.14-14.41-23.33-9.22-18.25-15.47-37.52-19.99-57.4-.85-3.76-1.64-7.53-2.45-11.29.04,3.02.26,5.98.81,8.89,3.59,18.96,8.84,37.39,17.53,54.72,5.11,10.18,10.96,19.9,17.99,28.88ZM175.58,214.7c-3.63,1.29-6.97,3.13-10.2,5.2-11.03,7.06-22.49,13.47-32.59,21.9-1.8,1.5-3.77,2.83-5.05,5.11,1.45.13,2.01-.75,2.75-1.3,8.02-5.96,15.42-12.71,24.4-17.41,4.38-2.29,8.76-3.42,13.57-3.46,2.35-.02,4.48-.64,6.66-1.71,4.52-2.22,9.31-4.08,14.4-4.24,17.75-.55,32.99-8.57,48.37-16.28-26.53,5.23-52.49,12.43-77.55,22.87,1.99-2.71,4.76-4.05,7.41-5.59,2.69-1.57,5.65-2.76,7.79-5.15,1.31.75,2.33-.29,3.41-.64,2.92-.96,5.73-2.21,8.65-3.17,12.71-4.19,25.71-7.34,38.53-11.16-7.84,1.19-15.65,2.53-23.23,4.97-9.25,2.98-18.73,5.32-27.32,10.08ZM106.55,399.03c-.42-.86-1.06-1.49-1.93-1.89-1.85-2.05-3.52-4.34-6.4-5.1-2.48-1.87-5.27-3.04-8.32-3.6l-1.27-.28c-.84-.48-1.81-1.29-1.77.64-2.26,13.87-1.12,27.78-.48,41.69.08,1.8.8,2.8,2.8,3.12,9.58,1.52,19.22,2.15,28.9,2.58,2.35.1,3.07-.88,2.99-2.83-.22-5.18,1.22-10.11,2.26-15.09.59-2.81,1.79-5.5,2.77-8.42-7.6,1.01-12.91-1.9-16.9-7.73-.76-1.11-1.37-2.41-2.65-3.1ZM299.13,200.04c-1.4-.82-2.97-.93-4.53-1.01-.34-.41-.75-.46-1.22-.26-.58-.45-1.24-.56-1.96-.45-.56-.45-1.17-.66-1.88-.46-.43-.08-.86-.16-1.3-.24-.35-.39-.76-.52-1.27-.35-.43-.09-.87-.18-1.3-.27-1.32-.63-2.73-.43-4.27-.53.87,1.1,1.82,1.79,3.04,2.08,8.93,6.85,16.76,14.82,23.13,24.07,9.25,13.42,18.59,26.81,24.87,42.2,3.78-2.61,6.81-5.91,11.93-7.91-4.71-1-6.52-4.32-9.36-6.22-4.94-3.3-5.61-7.81-4.78-13.15.95-6.06,4.82-10.4,8.36-14.97.28-.48.57-.96.85-1.44,7.92-2.58,15.51.7,23.67,1.8-1.15-1.77-2.28-2.54-3.61-3.2-10.1-5.06-20.53-9.36-31.11-13.28-3.68-1.36-7.36-2.81-11.34-3.09-5.66-2.77-12.1-1.34-17.91-3.32ZM404.7,315.59c-5.56.11-9.23-2.52-11.18-7.67-.18-.47-.35-1.04-1.08-.92-.56.09-.54.54-.63.94-.7,3.17-2.38,5.77-5.74,5.98-3.51.22-4.4-3.12-5.82-5.56-1.82-3.12-2.75-6.69-4.9-9.63-.42-.58-.76-1.49-1.66-1.14-.87.34-.59,1.19-.47,1.93.3,1.94.46,3.91-1.68,4.97-2.26,1.12-3.97-.21-5.32-1.73-4.14-4.67-8.94-8.9-10.72-15.23-.5-1.79-1.94-1.38-2.8-.84-1.68,1.05-4.22.7-5.09,3.02-.07.19.27.55.44.82,3.07,5.03,4.6,10.72,6.76,16.14.59,1.48,1.09,2.51,2.86,2.91,2.36.52,4.02,2.14,5.24,4.32,1.65,2.96,3.55,5.78,5.34,8.68,1.6,2.6,3.96,4.07,6.9,4.72,5.61,1.23,11.19,1.04,16.76-.23.86,0,1.72,0,2.59.01,5.8.93,11.63,1.73,17.24,3.58.64.83,1.27,1.67,1.91,2.5,3.95,9.22,7.81,18.47,12.23,27.48-.02.54.12,1,.62,1.29l4.55,10.88c.3,1.42.78,2.76,1.77,3.86.69,1.48,1.38,2.97,2.06,4.45,1.24,3.63,3.1,7.05,3.68,10.9-.34,3.52,1.9,4.58,4.78,5.08,3.15.55,6.02,1.51,6.91,5.12,0,2.14.02,4.27.03,6.41-.54,2.15-.99,4.32-1.63,6.43-2.17,7.12-6.75,12.8-11.31,18.47-.55.3-1.15.59-.11,1.05,3.3,0,6.6-.05,9.9.04,2.04.05,3.12-.62,3.24-2.84.13-2.44.59-4.86.85-7.29,1.1-10.16,2.35-20.31,1.22-30.56.08-.64.17-1.28.25-1.93,2.74-.53,2.99,1.41,3.07,3.26.23,5.86.31,11.71-.28,17.57-.62,6.25-.98,12.53-2.11,18.72-.4,2.17.17,3.15,2.62,2.76,2.73-.44,5.51-.56,8.26-.85,2.83-.3,4.22-1.79,4.42-4.74.4-5.83.89-11.66,1.61-17.46,1.91-15.31.16-30.39-2.69-45.4-.23-1.19-.32-2.75-2.01-2.89-2.9-.23-5.76-.57-8.82-2.57.33,2.13.57,3.37.72,4.62.65,5.38.25,10.66-1.99,15.65-2.26,5.02-5.61,6.72-10.38,5.53-1.87-1.53-2.47-3.89-3.84-5.76-4.47-11.14-10.33-21.59-15.82-32.23-2.85-5.54-6.68-10.6-8.26-16.76-.74-2.86-.78-5.88-2.03-8.62-.21-1.14-.29-2.33-.68-3.4-.42-1.19-.3-2.81-2.26-3.01-2.51-.26-4.97-1.05-7.54-.83ZM216.6,603.79c-8.7-4.44-16.16-10.6-23.14-17.29-12.49-11.96-23.58-25.1-33.33-39.46-9.89-14.56-17.59-30.1-23.5-46.6-3.55-9.92-6.37-20.06-9.32-30.17-2.67-9.12-5.25-18.18-6.01-27.64-.22-2.81-1.28-3.63-3.75-3.78-10.03-.59-20.08-1.05-30.19-3.28.16,2.26.25,4.16.42,6.06.98,11.16,3.59,22.02,6.99,32.61,10.43,32.45,29.14,59.88,52.37,84.43,10.48,11.07,22,21.03,33.53,31,9.25,8,20.03,12.79,31.26,16.88,1.85.68,3.89,1.1,5.95.95,5.78,1.32,11.55,2.65,17.33,3.94,1.97.44,3.9,1.17,6.02.85-7.08-3.13-14.24-6.01-21.37-8.95-1.25-.52-2.25-.2-3.28.44ZM353.38,500.04c.96.03.5,1.32,1.78,1.57.14-3.15.95-6.19.62-9.85-1.63,1.85-2.91,3.3-4.18,4.75-3.56-1.79-3.34-4.69-2.38-7.88,1.89-6.27,5.09-11.91,8.37-17.5,1.18-2.01,1.67-4.08,1.6-6.36-.26-8.01-3.95-14.62-8.46-20.91-2.13-3.96-2.86-8.02-1.4-12.44.55-1.67.49-3.54.7-5.32.23-2.04-.57-3.56-2-5.06-2.14-2.24-4.9-3.54-7.32-5.33-2.37-2.38-4.93-1.14-7.38-.27-8.38,3-17.04,4.12-25.89,4.07-2.9-.02-5.46-1.04-7.54-2.96-1.66-1.54-3.5-2.73-5.41-3.87-5-3-8.77-7.17-10.74-12.61-1.8-4.97-3.96-9.84-4.92-15.09.24-.47.18-.9-.19-1.29-.05-4.9-.11-9.81-.16-14.71.08-7.57,1.41-14.86,4.78-21.71,3.99-5.41,8.23-10.68,13.87-14.4,3.72-2.45,6.08-5.68,8.28-9.4,2.58-4.36,4.14-9.91,10.35-10.91,6.87-1.94,13.88-3,20.99-3.42,4.68-.27,9.36-.36,14.04-.57.75-.03,2.3.56,1.56-1.29-2.15-5.32-4.34-10.62-6.54-15.92-.73-1.76-1.91-1.74-3.63-1.27-5.79,1.58-9.18,5.69-11.87,10.65-3.14,5.78-8.1,8.78-14.55,9.48-5.25-.49-8.17-2.85-8.95-7.44-.74-4.35-.63-8.68.36-13.01.59-2.59,2.07-4.07,4.57-4.74,2.27-.61,4.56-1,6.91-1.18,3.32-.25,3.85-1.09,2.82-4.29-.43-1.31-1.43-2.61-1.38-3.88.13-3.28-1.76-3.7-4.35-4.11-3.93-.62-8.04-1.59-9.79-5.69-1.73-4.06-2.13-8.79.71-12.2,3.22-3.87,7.48-7.06,13.28-5.96.26.22.51.28.76-.02-.14-.1-.28-.2-.42-.31-9.44-16.31-20.13-31.64-34.38-44.46-.74,1.64-.77,3.03-.76,4.39.03,4.45-1.87,7.99-4.98,11.02-2.02,1.97-4.4,3.27-6.96,4.42-3.46,1.55-7.6,2.57-9.45,6.16-4.27,8.32-7.5,17.11-8.92,26.37-1,6.56-2.46,12.96-4.82,19.12-4.51,11.76-7.91,23.7-9.53,36.29-2.6,20.18-4.84,40.37-6.24,60.67-1.38,19.99-1.06,40.02-1.62,60.03-.13,4.57-.02,4.73,4.53,4.76,24.72.17,49.44.77,74.16.34,10.22-.18,20.45.02,30.67.05.95.03,1.91,0,2.85.11.85.1,2.21-.81,2.46.44.23,1.17-.82,2.04-2.14,2.21-.75-1.19-1.94-.65-2.91-.63-3.83.1-7.66.48-11.49.48-31.63-.05-63.27-.16-94.9-.24-.85,0-1.71,0-2.53.17-.46.09-1.04.44-1.22.83-.34.73.31,1.06.88,1.42,2.4,1.52,5.24,1.96,7.73,3.2,9.11,4.52,14.56,7.16,12.5,20.42-1.69,10.93-5.45,21.04-11.97,30.06-2.16,2.99-3.65,6.29-3.11,10.12,1.4,9.8,2.06,19.67,3.38,29.49,2.79,20.74,7.4,40.99,13.81,60.88.92,2.86,1.99,3.97,4.77,2.31.51.13.98.08,1.33-.36.62-.1,1.24-.19,1.86-.29.7.11,1.39.18,1.98-.34.62-.08,1.24-.16,1.86-.25,4.99,1.15,5.54-3.39,7.26-6.37,1.41,1.99-2.04,6.73,3.63,5.03,3.84.13,7.67-.07,11.48-.56,1.19-.16,2.41-.21,3.36-1.4,3.45-4.35,6.61-8.9,9.28-13.75,12.32-22.34,22.14-45.72,29.3-70.25,4.32-14.81,8.54-29.62,10.82-44.9.93-6.21,1.55-12.46,2.26-18.7.11-.96-.09-1.97,1.34-1.97.72.49,1.09,1.2,1.29,2.03-1.62,12.12-2.46,24.36-5.42,36.27-4.23,17.04-8.41,34.1-14.67,50.56-7.1,18.64-14.63,37.05-25.47,53.92-1.4,2.18-3.14,4.22-3.9,7,.85-.05,1.49-.03,2.11-.13,10.27-1.72,20.61-1.43,30.94-1.02,2.75.11,4.89-.5,7.08-2.09,15.73-11.45,30.22-24.24,43.27-38.7,11.22-12.44,22.13-25.12,30.19-39.9,2.74-5.02,7.53-9.34,6.42-16.03-.18-1.1.7-2.42,1.19-3.59,1.22-2.95,2.41-5.91,3.76-8.8,3.46-7.42,6.51-15.07,12.44-21.04,3.45-3.47,5.1-3.51,8.64.15,2.95-7.82,4.36-15.86,5.76-23.9.22-1.24-.22-1.71-1.53-1.67-3.94.13-7.88.17-11.82.2-1.05,0-1.87.45-2.57,1.1-4.42,4.06-8.15,8.41-7.61,15.06.22,2.74-.04,5.55-.29,8.3-.56,6.04-.76,12.36-5.01,17.15-5.04,5.67-7.73,12.65-11.66,18.89-7.58,12.05-17.04,22.64-29.17,30.42-5.02,3.22-10.51,5.68-16.55,6.39-3.67.43-4.9-.94-5.68-4.4-2.2-9.84-.82-20.16-4.23-29.81ZM174.38,401.51c.85.24,1.71.47,2.56.71.47.66,1.19.67,1.9.7,1.29.61,2.58,1.21,3.87,1.82.23.58.73.66,1.26.69,1.2.84,2.46,1.6,3.59,2.53,6.31,5.21,11.64,11.33,16.4,17.95,1.05,1.46,1.97,3,3.67,3.82,2.23,2.62,4.85,4.64,8.3,5.4h.14c1.27,1.07,2.86,1.15,4.4,1.39,1.21.58,2.46.97,3.83.88.33.44.78.53,1.29.42.81.3,1.62.6,2.44.9.18.13.36.26.54.4v-.45c.57-2.14,1.53-4.16,1.55-6.47.06-8.84.33-17.68.33-26.52.02-24.85,2.15-49.57,4.8-74.24.84-7.82,2.67-15.52,3.05-23.42.24-4.91.84-9.83,2.49-14.43,5.2-14.54,9.63-29.29,12.99-44.36.14-.61.41-1.21.68-1.78,2.55-5.37,4.11-11.07,5.74-16.94-4.48.75-7.92,3.05-10.95,6.08-2.36,2.36-4.97,4.36-8.19,5.42-4.43,1.46-8.94-.6-9.74-4.54-.56-2.72-.73-5.49.39-8.17,2.35-5.61,5.18-10.93,8.79-15.84,1.28-1.74,2.93-3.3,3.19-5.81-9.76,1.33-18.61,4.8-27.33,8.71-1.86.83-.61,1.69,0,2.38,2.51,2.85,2.64,6.13,1.91,9.61-1.36,6.51-7.02,9.38-11.42,13.24-2.13,1.87-5.5.99-7.33-1.45-1.4-1.87-2.49-3.91-2.91-6.3-.85-4.88-1.38-5.07-5.58-2.37-.56-.02-1.01.15-1.26.68-1.47.38-2.76,1.06-3.84,2.13-2.96,1.48-5.78,3.21-7.72,5.95-4.85,6.85-9.67,13.72-14.34,20.7-1.01,1.52-2.95,2.91-2.03,5.64,2.8-1.76,4.97-3.9,6.54-6.54,3.71-6.25,8.27-11.83,13.21-17.12,1.65-1.77,3.47-3.28,5.6-4.43,4.44-.85,7.82.45,9.52,4.86.52,1.36,1.48,1.63,2.71,1.74,3.23.29,5.13,2.25,5.41,5.31.35,3.81,2.2,6.8,4.26,9.8,1.4,2.03,2.62,4.22,2.24,6.82-.51,3.48-1.07,6.95-1.8,10.39-1.25,5.83-4.49,8.59-10.57,9.23-.61.06-1.02.1-1.57.66-8.99,9.31-20.85,12.32-32.96,14.55-2.27.42-3.28,1.12-3.32,3.24-.04,1.92-.95,3.43-2.15,4.78-4.03,4.54-8.02,9.13-12.66,13.05-7.81,6.6-15.02,13.5-16.86,24.27-.39,2.28-1.73,4.35-3.65,5.86-.44.06-.87.12-1.31.18-2.07-.84-2.47-2.65-2.61-4.58-.16-2.17-.28-4.34-.43-6.51-.26-2.3-.41-2.35-4-1.31-1.9.22-3.92.08-5.66.73-4.16,1.55-9.06,2.12-10.7,7.46-1.85,6.04-3.93,12.01-5.87,18.02-.51,1.57-.76,3.35.95,4.27,1.69.91,3.58.61,5.08-.62.88-.72,1.46-1.8,2.21-2.7,2.86-3.42,5.39-4,9.58-2.23.19.43.38.87.58,1.3,0,.85,0,1.71,0,2.56l-.43,1.29c-.87,1.58-1.69,3.19-2.61,4.75-1.27,2.15-.92,3.7,1.65,4.23,1.56.32,2.43,1.16,2.88,2.6,1.96,6.24,4.98,12.26,3.52,19.16-.46,2.17.8,3.31,2.91,4.22,4.67,2.02,7.39-.69,9.69-3.79,2.72-3.66,6.11-5.79,10.53-6.47,1.1.12,2.19.11,3.23-.35.84.26,1.68.27,2.52,0,3.73.8,7.46,1.57,11.18,2.4,5.27,1.18,10.33,3.16,15.72,3.87ZM524.26,254.86c-.24.15-.46.22-.59.37-.4.49-.85.98-1.13,1.54-2.84,5.63-7.4,9.53-12.69,12.69-2.65,1.58-5.27,3.24-8.05,4.56-5.27,2.5-7.57,5.41-7.35,12.3.98,30.99,2.91,61.92,4.13,92.89.22,5.61.93,11.26-.44,16.85-.41,1.66.91,1.65,1.97,1.66,5.33.08,10.65.11,15.98.2,1.84.03,2.53-.63,2.61-2.6.72-18.41,1.89-36.81,2.28-55.22.52-24.82,2.43-49.58,3.27-74.38.12-3.56.02-7.12.02-10.86ZM339.37,593.11c1.27.64,2.63,1.08,3.7,1.91,2.03,1.59,3.86,1.1,5.9.05,15.9-8.19,30.52-18.25,43.8-30.21,28.58-25.73,50.1-56.41,64.23-92.21,3.83-9.71,6.61-19.75,8.89-29.92.51-2.26,1.46-5.13.54-6.78-.81-1.46-3.85.41-5.96.2-.84-.09-1.7.04-2.55.1q-5.01.37-5.9,5.29c-.36,1.98-.83,3.95-1.19,5.93-3.44,19.07-11.09,36.34-22.33,52.06-3.21,4.49-4.46,4.72-8.98,2.71-18.83,37.26-46.74,66.35-80.15,90.87ZM529.66,269.26c-.3.03-.59.06-.89.09-.15,1.56-.37,3.12-.45,4.69-.93,17.98-1.93,35.95-2.73,53.94-.97,21.82-1.8,43.64-2.61,65.46-.19,5.15-.07,5.16,4.91,5.18.96,0,1.92,0,2.88,0,4.76,0,4.66,0,4.45-4.57-1.47-32.14-2.91-64.29-4.34-96.44-.42-9.45-.81-18.9-1.21-28.34ZM491.49,236.18c.42,8.39,1.74,16.72,1.67,25.14-.02,2.17.62,2.8,2.46,1.26,1.63-1.36,3.28-2.7,4.95-4.02,5.28-4.15,10.55-8.32,17.65-8.84,1.7-.12,2.29-1.12,2.53-2.7.23-1.51.17-3.1,1.61-4.32,2.07-1.75,1.4-2.79-1.06-3.63-10.26-3.48-19.98-7.88-26.95-16.7-.19-.25-.46-.44-.71-.63-.67-.53-1.35-1.13-2.27-.62-.82.45-.6,1.29-.56,2,.21,4.36.45,8.71.69,13.06ZM356.31,433.67c3.01-2.02,5.65-3.81,7.84-6.35,5.89-6.84,10.56-14.67,17.08-21.02,7.79-7.59,14.41-16.2,21.28-24.61,5.16-6.33,10.35-12.73,16.7-17.99,2.52-2.09,2.88-4,.17-6.59-2.1-2-2.82,1.07-3.81,2.02-12.62,12.07-23.49,25.77-35.64,38.28-6.37,6.57-12.04,13.79-18.86,19.95-2.17,1.96-4.86,3.21-4.54,7.26.22,2.79-.21,5.79-.22,9.05ZM374.25,332.22c-1.07-.51-2.08-.85-2.93-1.43-2.57-1.76-4.32-.96-6.1,1.36-2.99,3.89-6.66,7.18-10.09,10.69-15.5,15.83-30.54,32.09-45.34,48.58-3.91,4.36-7.7,8.82-11.61,13.19-1.45,1.62-1.77,3.12.05,4.59,1.92,1.55,2.87-.24,3.91-1.3,1.26-1.29,2.34-2.76,3.58-4.08,8.83-9.39,17.58-18.86,26.55-28.11,11.41-11.78,22.08-24.27,34.05-35.53,2.69-2.53,5.75-4.72,7.92-7.95ZM426.27,372.78c-.61,1.39-1.14,2.38-1.95,3.28-10.18,11.3-21.3,21.69-31.28,33.22-10.37,11.98-20.64,24.06-31.29,35.8-1.87,2.06-1.62,4.27-.17,5.66,1.47,1.41,2.44-1.04,3.51-1.88,6.4-5.03,10.34-12.27,16.19-17.91,6.34-6.1,12.3-12.66,18.46-18.98,8.92-9.15,17.28-18.8,25.71-28.39,3.79-4.31,4.01-4.11,1.66-9.33-.17-.37-.4-.71-.83-1.46ZM174.88,241.13c-2.58.18-3.74,2.11-5.44,3.09-5.35,3.06-10.78,6.24-14.61,11.15-6.88,8.81-16.2,14.67-25.11,20.9-5.94,4.15-12.7,7.26-18.17,12.09-9.66,8.52-18.99,17.4-28.45,26.14-1.4,1.29-2.73,2.65-2.8,5.1.76-.5,1.24-.83,1.73-1.15,6.74-4.44,11.44-11.14,17.72-16.08,6.43-5.07,11.89-11.21,18.42-16.21,3.23-2.47,6.57-4.7,9.89-7,.74-.51,1.34-.75,2.24-.17-4.64,6.01-10.68,10.29-16.17,15.14-11.96,10.58-23.96,21.12-35.42,32.24-1.03,1-2.55,1.96-1.17,3.8,7.87-5.94,14.49-13.2,21.81-19.69,7.61-6.76,15.15-13.6,22.97-20.12,3.49-2.91,7.07-5.63,9.71-9.38,3.23-4.56,7.23-8.31,11.73-11.62,2.55-1.87,5.12-3.88,7.15-6.27,2.33-2.75,2.72-3.19,4.35-.16,1.81,3.37,3.14,1.85,4.74.18.58-.61,1.06-1.34,1.49-2.07,3.02-5.13,6.27-10.1,9.86-14.87,1.17-1.55,2.99-2.68,3.54-5.04ZM377.24,582.88c35.52-23.2,61.88-54.36,79.65-92.71,11.64-25.12,21.93-74.17,17.79-83.37-2.14,35.14-11.82,67.86-29.59,98.35-17.69,30.34-39.35,56.95-67.85,77.74ZM233.12,475.78c-4.49,5.53-8.44,10.82-12.82,15.72-12.87,14.36-24.42,29.82-37.01,44.4-3.76,4.35-4.4,8.01-.93,12.45.05.06.17.07.26.1,15.7-20.24,31.31-40.56,48.75-59.37,1.91-2.06,2.87-4.46,2.57-7.27-.2-1.88-.51-3.75-.82-6.02ZM383.46,333.94c-2.3-.2-4.21-1.7-6.16.23-4.09,4.05-8.21,8.06-12.32,12.08-11.29,11.02-21.61,22.96-32.54,34.31-9.51,9.87-18.56,20.19-28.6,29.37,4.6,3.1,7.48.96,10.72-2.59,13.66-14.94,27.6-29.62,41.47-44.37,9.04-9.61,18.12-19.18,27.45-29.04ZM324.49,413.23c5.25-.29,9.21-1.98,12.38-5.44,3.95-4.32,7.9-8.64,11.9-12.92,14.82-15.86,28.99-32.32,44.3-47.72,3.37-3.39,7.04-6.51,9.81-10.47.64-.92,1.85-1.96.72-3.03-1.15-1.09-2.75-1.14-4.07-.03-.98.81-1.86,1.75-2.74,2.67-2.56,2.7-4.99,5.54-7.68,8.12-10.23,9.81-19.62,20.41-29.36,30.68-11.76,12.4-22.42,25.82-35.26,38.15ZM232.21,463.67c-5.43,6.37-10.52,12.63-15.93,18.63-13.47,14.95-26.51,30.27-39.22,45.87-1.89,2.31-2.08,4.49-.86,7.01.51,1.05,1,2.11,1.62,3.41,3.11-5.29,7.29-9.52,10.85-14.24,12.37-16.43,26.18-31.68,39.52-47.3,3.57-4.18,5.37-7.8,4.01-13.37ZM370.31,511.41c-.35-.31-.7-.63-1.05-.94,1.96-2.4,3.64-5.12,5.92-7.16,9.06-8.11,17.38-16.95,25.9-25.59,6.81-6.92,12.69-14.64,18.89-22.08,1.01-1.21,2.33-2.66,1.09-4.99-1.04.68-1.54,1.81-2.36,2.59-4.88,4.63-8.9,10.03-13.55,14.87-13.64,14.2-28.29,27.4-41.69,41.85-3.27,3.53-3.83,7.64-1.28,12.71,3.03-4.39,7.14-7.67,11-11.11,16.16-14.38,30.37-30.7,46.03-45.57,2.59-2.46,2.66-3.17,1.8-6.2-15.73,18.36-31.91,36.3-50.71,51.64ZM171.11,516.15c1.63-2,3.26-3.92,4.8-5.9,12.99-16.63,27.58-31.87,41.36-47.81,4.22-4.88,9.33-9.09,12.16-15.09.31-.65,1.57-1.32.44-2.11-1-.7-2.21-1.49-3.51-.5-.59.45-1.08,1.02-1.59,1.57-4.71,5.06-9.45,10.1-14.11,15.21-13.34,14.63-26.43,29.46-38.91,44.83-2.73,3.36-2.93,6.2-.64,9.8ZM313.64,414.14c4.61-.23,7.78-1.97,10.45-5,3.73-4.23,7.74-8.21,11.49-12.42,15.43-17.32,31.09-34.44,47.41-50.93,3.67-3.71,7.54-7.21,10.81-11.28.6-.75,1.93-1.58.9-2.66-.88-.92-2.01-.09-2.87.49-3.17,2.17-6.17,4.58-8.81,7.35-20.72,21.72-41.41,43.47-62.04,65.28-2.59,2.74-5.3,5.46-7.34,9.17ZM168.13,505.49c17.52-21.69,35.84-42.25,54.94-62.44-1.88-.78-3.45-1.4-4.98-2.08-.94-.42-1.59-.61-2.43.44-1.93,2.4-4.12,4.59-6.15,6.92-13.53,15.48-27.01,31-40.57,46.45-4.09,4.65-4.19,4.56-.81,10.72ZM174.02,526.74c1.01-1.37,1.95-2.79,3.03-4.08,16.47-19.82,32.93-39.65,50.84-58.21,1.82-1.89,3.65-4.01,2.84-7.05-.29-1.09-.19-2.69-1.47-2.93-.99-.19-1.7,1.11-2.39,1.91-4.16,4.84-8.31,9.69-12.48,14.52-13.15,15.24-26.79,30.04-39.37,45.78-2.82,3.53-3.2,6.38-1.01,10.07ZM364.03,323.98c-3.88,4.47-8.2,8.42-12.28,12.6-19.13,19.56-38.1,39.27-57.26,58.81-2.08,2.12-1.98,3.81-.83,6.13.85,1.73,1.45,2.06,2.79.42,2.69-3.3,5.51-6.5,8.31-9.7,18.78-21.49,38.21-42.38,58.73-62.22,2-1.94,2.86-3.52.54-6.03ZM76.13,351.79c.91-1.03,1.66-2.03,2.57-2.88,4.8-4.49,8.51-9.96,13.42-14.39,11.38-10.24,22.39-20.88,33.74-31.15,4.85-4.39,9.65-9,15.4-12.17,3.13-1.73,5.97-3.95,8.66-6.03,5.5-4.27,11.3-8.16,16.75-12.52,8.67-6.92,17.14-14.05,25.42-21.42.88-.78,2.06-1.41,1.8-3.03-1.78.16-2.95,1.09-4.11,1.97-11.04,8.39-22,16.87-31.89,26.64-3.88,3.83-8.67,6.46-13.14,9.53-3.19,2.19-6.9,3.31-9.89,5.98-5.55,4.95-10.71,10.4-16.41,15.07-10.32,8.44-19.9,17.63-29.65,26.67-4.07,3.77-7.84,7.81-11.56,11.9-1.39,1.54-2.97,3.22-1.11,5.83ZM163.72,495.63c7.15-8.26,14.15-16.41,21.23-24.49,8.76-10.01,17.23-20.27,26.63-29.7.63-.64,2.04-1.27.68-2.53-2.05-1.88-4.73-1.75-6.65.4-7.16,8.01-14.31,16.03-21.45,24.07-6.85,7.71-13.67,15.44-20.52,23.15-1.05,1.19-2.71,2.14-3.13,3.5-.43,1.39,1.58,2.26,2.31,3.51.36.61.58,1.3.92,2.09ZM285.82,385.52c.28-.15.61-.23.81-.44,7.89-8.21,16.13-16.1,23.62-24.7,7.17-8.24,13.3-17.33,21.06-25.11,6.39-6.4,12.32-13.26,18.43-19.93.52-.56,1.52-1.19.67-2.09-.72-.76-1.76-.7-2.64-.12-.52.35-.98.82-1.41,1.28-8.35,8.95-16.67,17.91-25.03,26.85-10.83,11.58-21.54,23.27-33.2,34.04-3.42,3.16-3.98,5.32-2.32,10.22ZM339.16,410.76c2.93.19,4.65-.72,6.09-2.24,8.66-9.08,17.37-18.13,25.97-27.27,12.74-13.55,25.03-27.54,38.48-40.42,2-1.92-.31-2.78-1.02-3.86-.9-1.37-1.69-.42-2.41.53-1.1,1.43-2.23,2.85-3.49,4.14-19.32,19.66-37.49,40.39-56.27,60.55-2.44,2.61-4.66,5.43-7.34,8.57ZM138.82,471.47c1.62-.55,2.63-1.64,3.66-2.69,6.8-6.93,12.37-14.91,18.92-22.04,3.83-4.17,7.04-8.84,11.02-12.89,5.44-5.53,10.64-11.3,15.37-17.48,1.86-2.43-.83-2.76-1.72-3.82-1.15-1.37-1.95-.28-2.74.7-7.95,9.89-16.27,19.46-24.7,28.94-7.35,8.27-14.09,17.07-21.87,24.97-.48.49-1.41,1.02-.74,1.81.81.95,1.87,1.69,2.79,2.5ZM348.5,414.74c.68-.53,1.5-1.04,2.15-1.72,4.65-4.83,9.18-9.78,13.91-14.52,16.55-16.58,32.04-34.15,48.02-51.26,1.33-1.42,1.53-2.64.33-3.76-1.37-1.29-1.91.59-2.58,1.24-14,13.57-26.76,28.33-40.22,42.41-7.65,8-15.32,15.97-22.98,23.94-.6.63-1.23,1.33-.69,2.19.41.65.92,1.41,2.05,1.47ZM206.02,433.58c-.49-.38-1.28-.71-1.63-1.3-1.43-2.35-2.24-1.45-3.81.13-10.24,10.27-18.64,22.18-28.95,32.38-5.53,5.47-9.93,12.08-16.09,16.83-3.86,2.98.42,3.52.99,4.88,1.12,2.65,2.18.05,2.82-.63,9.96-10.66,19-22.13,29.06-32.72,5.99-6.3,11.96-12.63,17.61-19.58ZM352.64,420.31c1.09-.85,2.21-1.63,3.23-2.52,11.59-10.1,21.39-21.94,31.67-33.27,9.02-9.93,18.24-19.66,27.59-29.27,2.18-2.24,2.1-3.54.54-5.73-4,3.48-7.14,7.51-10.67,11.17-11.98,12.41-23.15,25.57-35.58,37.55-5.51,5.31-9.69,11.99-15.94,16.52-3.01,2.18-2.97,3.68-.85,5.55ZM146.84,477.39q3.38,4.28,6.99.95c7.74-7.19,14.56-15.24,21.7-22.99,7.72-8.38,15.15-17.03,22.89-25.4,1.93-2.08,1.3-3.83-.13-5.18-1.84-1.73-2.43.82-3.2,1.68-13.25,14.72-26.39,29.54-39.65,44.25-2.39,2.65-4.73,5.55-8.6,6.69ZM461.51,324.97c-10.49-26.5-24.48-50.83-44.42-71.38-22.45-23.14-59.36-42.61-71.44-44.9,54,23.72,92.63,62.31,115.86,116.28ZM152.45,266.36c-7.99,6.18-14.85,13.25-21.32,20.76-4.46,5.18-10.16,9.06-15.46,13.34-10.2,8.23-19.19,17.79-29.1,26.33-3.63,3.12-7.15,6.36-10.23,10.07-1.34,1.62-1.55,3.23-.77,5.29,10.24-9.66,20.19-19.18,30.3-28.55,6.63-6.14,13.38-12.15,20.22-18.05,8.84-7.63,16.1-16.84,24.86-24.54,1.3-1.14,2.75-2.54,1.49-4.65ZM145.2,476.43c.77-.05,1.08-.67,1.5-1.12,6.8-7.49,13.6-14.98,20.38-22.5,5.13-5.69,9.92-11.67,14.85-17.52,3.47-4.12,7.47-7.85,10.88-12.09,1.24-1.55,1.72-2.9.13-4.39-1.94-1.82-2.69.48-3.43,1.3-8.12,9.01-16.05,18.2-24.19,27.2-7.56,8.37-13.62,18.03-22.17,25.54-.42.37-1.31.76-.65,1.45.79.82,1.8,1.44,2.7,2.13ZM498.62,219.13c4.5,4.56,9.15,8.41,14.82,11.04,13.93,6.46,28.8,10.36,43.08,15.87.54.21,1.15.38,1.67-.39-12.31-6.95-24.48-13.91-36.72-20.72-6.95-3.87-14.36-6.26-22.84-5.8ZM200.99,256.93c-3.46,3.48-6.48,7.25-10.2,10.12-12.53,9.68-23.6,21.02-35.77,31.11-6.06,5.02-11.76,10.47-17.67,15.66-5.11,4.49-10.35,8.83-15.4,13.38-2.8,2.53-5.26,5.41-7.26,8.84,3.68,1.01,6.09-.74,7.96-2.89,3.97-4.58,8.15-8.89,12.59-13.04,5.97-5.59,11.83-11.31,18.18-16.46,6.18-5.01,12.04-10.37,17.46-16.14,3.54-3.77,7.13-7.56,11.03-10.81,6.21-5.18,12.09-10.7,18.11-16.07.97-.87,1.87-1.8.98-3.7ZM284.68,374.17c20.48-18.84,37.85-40.48,58.22-60.11-3.67-.69-5.74.35-7.48,2.28-9.32,10.37-19.6,19.81-29.02,30.09-6.1,6.66-12.91,12.67-19.38,19-2.4,2.35-4.02,4.99-2.34,8.74ZM441.09,410.92c-.75.79-1.1,1.16-1.45,1.54-7.25,7.82-14.55,15.59-21.73,23.46-18.14,19.91-37.86,38.34-55.43,58.79-.81.94-1.4,1.79-.39,2.98,1.75-1.94,3.33-3.81,5.03-5.57,15.76-16.28,31.68-32.42,47.27-48.86,7.6-8.02,16.3-14.94,23.22-23.62,1.97-2.47,3.81-4.85,3.48-8.71ZM424.23,368.67c-.95,2.95-3.62,4.04-5.42,5.96-4.28,4.6-8.96,8.85-13.06,13.6-3.68,4.26-8.98,6.65-12.28,11.26-1.28,1.79-1.8,3.96-3.33,5.71-5.69,6.49-12.39,11.98-18.01,18.57-3.94,4.62-8.56,8.65-12.89,12.93-.84.83-1.69,1.63-1.94,2.85-.29,1.41-.45,3.07.89,3.74,1.08.54,2.09-.77,2.7-1.71,3.94-6.07,9.61-10.63,14.06-16.26,6.13-7.74,13.3-14.57,19.4-22.38,5.07-6.49,11.39-12.02,17.16-17.96,3.89-4,7.75-8.04,11.75-11.94,1.25-1.21,3.65-1.76.96-4.36ZM425.76,438.37c-1.48.33-2.14,1.38-2.95,2.18-10.96,10.87-21.79,21.88-32.86,32.64-9.85,9.58-18.42,20.35-28.28,29.91-1.53,1.49-1.43,3.31-.86,5.29,1.28-.26,1.83-1.09,2.41-1.81,6.65-8.18,14.04-15.73,21.49-23.11,12.42-12.29,24.19-25.16,36.34-37.7,2.02-2.09,4.13-4.19,4.71-7.41ZM218.94,518.97c-.19-.66.52-1.76-.54-2.16-.82-.31-1.21.68-1.73,1.16-10.6,9.82-21.34,19.48-29.92,31.26-1.98,2.72-2.41,4.76-.92,7.72.84,1.66,1.34,1.61,2.36.5,1.71-1.88,3.37-3.83,5.06-5.73,7.99-8.95,14.6-19.09,23.66-27.11,1.61-1.43,1.9-3.49,2.03-5.64ZM360.91,491.04c3.68-2.92,6.32-5.95,8.71-9.17,7.52-10.12,16.68-18.79,25.47-27.67,8.34-8.43,16.22-17.3,24.5-25.78,7.39-7.56,14.42-15.57,21.33-23.62.5-.58,2.05-1.02.8-2.16-1.13-1.02-1.84-.07-2.59.78-7.66,8.72-15.46,17.3-23.32,25.84-8.8,9.55-18.14,18.56-26.86,28.18-7.86,8.67-16.2,16.91-24.29,25.39-1.99,2.08-3.7,4.37-3.74,8.21ZM471.57,220.33c-16.5,3.86-26.23,16.39-38.02,26.44.55.23.89.52,1.09.44,4.78-1.94,9.61-3.78,14.3-5.92,6.21-2.83,12.28-5.93,17.01-11.08,2.61-2.85,4.32-6.15,5.63-9.88ZM285.11,361.19c2.62-.17,3.84-1.91,5.18-3.27,9.91-10.1,19.75-20.27,29.62-30.41,3.41-3.5,6.87-6.96,10.25-10.49.61-.64,1.51-1.54.64-2.49-.95-1.04-1.73.09-2.42.59-1.03.75-1.96,1.63-2.89,2.5-5.3,4.92-10.45,10-15.83,14.85-9.32,8.39-19.86,15.81-24.54,28.73ZM484.11,198.59c1.01-3.55,1.53-7.01,2.34-10.42.82-3.46.43-6.91-.38-10.41-2.24-9.65-5.35-19.04-8.3-28.48-.51-1.63-.52-4.85-1.9-4.5-2.12.54.01,2.99-.14,4.62,0,.1,0,.21.02.32,1.18,11.76,3.1,23.41,5.25,35.02.86,4.65,2.06,9.23,3.11,13.84ZM432.12,390.05c-8.74,9.32-16.59,19.11-25.4,28.05-5.01,5.09-9.39,10.84-14.19,16.06-8.76,9.52-17.24,19.44-27.55,27.44-1.22.95-1.49,1.7-.72,3.11,4.27-3.82,8.66-7.38,12.61-11.37,9.73-9.82,18.95-20.12,28.37-30.24,8.91-9.59,17.48-19.47,26.34-29.1,1.01-1.09,1.83-2.08.56-3.95ZM131.09,435.25c3.02.6,5.56-.04,7.58-2.52,2.09-2.55,4.21-5.08,6.38-7.55,5.68-6.48,11.9-12.45,17.48-19.03,1.56-1.84.75-2.11-.84-2.59-2.28-.7-3.57.83-4.94,2.13-8.88,8.46-15.82,18.66-24.55,27.25-.56.55-1.25,1.18-1.11,2.32ZM383.69,303.77c1.28-2.39,2.48-4.6,4.29-6.44,10-10.11,19.87-20.35,29.97-30.36,1.7-1.68.48-2.12-.3-3.14-1.15-1.49-1.67-.59-2.57.37-10.27,10.91-20.51,21.85-30.99,32.56-2.33,2.38-3.48,4.16-.4,7.01ZM126.44,434.5c10.15-10.49,18.38-21.99,28.46-32.06-3.06-1.64-5.35-1.7-7.78.95-5.66,6.19-11.49,12.22-16.35,19.1-2.43,3.44-4.17,7.09-4.33,12.01ZM158.18,437.07c.1-.96-.42-1.09-.97-1.1-2.7-.02-5.21-.01-7.23,2.52-3.7,4.65-7.75,9.04-11.66,13.52-2.17,2.49-4.38,4.93-6.53,7.43-2.03,2.36.1,4.23,1.31,5.51,1.45,1.55,1.9-.95,2.52-1.66,7.15-8.16,14.18-16.44,21.23-24.68.48-.56.95-1.12,1.31-1.55ZM156.1,435.04c2.52.27,4.58-.49,6.25-2.43,6.03-7.01,12.1-13.98,18.16-20.96.6-.69,1.07-1.26.14-2.11-1.83-1.67-4-1.55-5.66.35-1.47,1.68-3.04,3.27-4.5,4.96-5.07,5.87-10.24,11.65-15.67,17.18-.78.8-1.4,1.88-1.01,2.83.34.83,1.52.08,2.29.18ZM397.05,244.92c-.5-.45-1.14-1.21-1.93-1.69-1.02-.62-1.47.35-2.02.98-10.68,12.16-22.53,23.21-33.69,34.92-.6.63-2.57,1.09-.83,2.51,1.24,1.02,2.45,1.62,3.68-.27.92-1.4,2.21-2.57,3.4-3.78,10.05-10.18,20.11-20.34,30.15-30.52.49-.5,1.23-.89,1.23-2.15ZM141.82,435.63c3.02-.69,5.86-.19,8.05-2.87,4.15-5.1,8.69-9.88,13.02-14.84,2.73-3.11,5.96-5.77,8.35-9.19.42-.6,1.57-1.34.15-1.94-1.83-.77-3.59-1.6-5.43.49-7.31,8.28-14.77,16.43-22.16,24.63-.85.95-1.62,1.95-1.97,3.72ZM392.91,241.69c-3.04-1.66-5.24-3.84-6.36.49-.09.35-.61.57-.88.9-8.12,9.81-17.81,18.13-26.22,27.67-3.3,3.75-6.7,7.41-10.04,11.13-.45.51-1.46,1.06-.76,1.79.77.81,1.53,0,2.14-.6.3-.3.59-.61.89-.91,13.6-13.35,27.21-26.7,41.23-40.46ZM370.92,288.72c1.03.23,1.42-.29,1.84-.77,1.12-1.29,2.18-2.62,3.37-3.84,9.55-9.82,18.72-20.01,28.89-29.21,1.67-1.51,1.15-2.32-.06-3.55-1.55-1.57-1.86.04-2.53.85-.48.57-1,1.09-1.52,1.63-10.2,10.58-20.41,21.16-30.59,31.76-.55.57-1.7,1.08-1.24,1.99.31.62,1.35.86,1.85,1.15ZM405.93,492.35c-13.34,11.92-25.12,24.59-38.14,35.86,6.24.53,36.83-27.63,38.14-35.86ZM429.46,384.1c-1.01,1.27-1.76,2.29-2.58,3.23-12.85,14.81-26.69,28.68-40.21,42.85-.7.74-2.87,1.28-1.66,2.68,1.2,1.4,2.73.15,3.9-.82.49-.4.93-.88,1.34-1.37,6.86-8.27,14.05-16.24,21.89-23.61,6.45-6.06,11.23-13.61,17.63-19.71.98-.93.49-1.88-.29-3.25ZM421.97,327.21c6.87-7.63,13.68-15.17,20.46-22.73,2.93-3.26,2.9-3.29.09-6.79-6.42,6.58-11.97,13.95-18.18,20.74-2.26,2.47-4.86,4.69-2.37,8.79ZM455.83,322.88c-2.21,1.69-3.18,4.31-5.09,6.12-5.88,5.56-10.75,12.03-16.22,17.96-.64.7-1.33,1.45-1.68,2.3-.48,1.18.06,2.34.86,3.21.67.73,1.06-.14,1.44-.57,6.78-7.71,13.17-15.77,20.48-22.99,2.09-2.06,2.01-3.91.21-6.04ZM405.22,298.69c4.32,1.53,7.31,1.44,10.01-1.65,4.66-5.33,9.17-10.83,14.49-15.52,1.43-1.26.91-1.84.05-3.02-1.18-1.6-2.03-.89-2.97.04-3.32,3.29-6.5,6.74-9.96,9.88-3.66,3.32-5.7,8.36-11.62,10.28ZM410.39,257.11c-.24-.8-.78-1.49-1.55-1.88-.82-.42-1.04.45-1.41.9-.74.9-1.38,1.89-2.19,2.72-9.81,10.03-19.65,20.03-29.44,30.08-.75.77-2.6,1.54-1.09,3.02,1.31,1.28,2.11-.33,2.8-1.04,3.94-4.03,7.73-8.2,11.68-12.22,6.57-6.67,13.23-13.24,19.83-19.87.49-.5,1.36-.73,1.36-1.71ZM431.44,345.8c7.06-8.88,14.95-17.04,22.46-25.53,1.13-1.27-.11-2.28-.69-2.99-1.1-1.35-1.59.37-2.06.88-6.58,7.08-12.97,14.33-19.68,21.28-2.23,2.31-2.84,4-.03,6.36ZM315.78,305.48c2.93-.74,5.01-2.6,6.79-4.68,3.31-3.87,6.84-7.5,10.61-10.92,2.04-1.84,4-3.76,6.02-5.62.91-.83,1.35-1.87.43-2.76-1.25-1.21-2.03.41-2.43,1.01-1.22,1.84-2.98,2.91-4.65,4.22-6.34,4.98-12.12,10.59-17.6,16.5-.4.44-1.06.94-.49,1.6.3.35.89.46,1.31.65ZM518.55,254.41c-6.89,2.09-12.54,5.5-17.66,9.83-1.94,1.64-3.85,3.37-5.32,5.49-.36.52-.82,1.17-.48,1.74.41.7,1.2.34,1.7.04,6.17-3.72,13.11-6.23,18.33-11.45,1.46-1.46,2.96-2.95,3.42-5.66ZM270.3,203.28c-2.31,2.09-4.47,4.39-6.97,6.22-6.46,4.72-12.47,9.95-18.32,15.37-2.41,2.24-4.54,4.8-6.75,7.25-.54.6-1.5,1.39-.88,2.14.85,1.02,1.71-.13,2.48-.55.56-.3,1.03-.76,1.53-1.15,3.54-2.73,6.45-6.1,9.58-9.26,4.99-5.03,10.57-9.47,15.78-14.29,1.62-1.49,3.44-3,3.54-5.73ZM146.85,436.82c-4.2-.7-7.08-.07-9.36,2.99-2.41,3.24-5.22,6.17-7.77,9.31-2.18,2.67-2.15,4.36,0,7.75,5.62-6.57,11.19-13.09,17.14-20.04ZM248.63,457.83c-1.19,1.49-2.36,3.01-3.59,4.47-1.3,1.55-2.59,3.11-4.01,4.55-4.99,5.08-5.44,7.12-2.93,13.91,5.1-6.91,11.11-13.39,10.52-22.93ZM570.99,270.25c-9.49-6.56-19.01-13.04-30.22-16.32,7.74,9.77,19.59,11.94,30.22,16.32ZM415.5,475.13c-14.73,14.64-28.57,29.27-43.47,43.11,1.65.73,2.19-.3,2.81-.9,6.23-5.93,12.77-11.55,18.64-17.86,5.87-6.31,12.24-12.11,18.57-17.95,1.62-1.49,3.52-3.01,3.44-6.4ZM491.75,212.23c.02-3.81-2.47-6.75-5.73-6.79-2.93-.03-5.57,2.81-5.48,5.89.08,2.8,3.54,5.92,6.56,5.9,2.63-.01,4.64-2.18,4.65-5.01ZM414.08,300.93c4.32.62,6.97-.98,9.36-3.23,3.79-3.55,6.77-7.94,11.16-10.87.99-.66.84-1.28.11-2.05-.72-.75-1.34-1.59-2.07-2.48-6.1,6.12-12.06,12.1-18.56,18.62ZM379.71,296.61c.41-.39.9-.79,1.32-1.25,2.53-2.73,4.97-5.54,7.58-8.19,8.06-8.17,16.19-16.28,24.26-24.44.72-.72,2.23-1.6.75-2.81-1.35-1.11-1.82.64-2.41,1.24-10.43,10.76-20.79,21.57-31.15,32.39-.5.52-.95,1.14-1.22,1.8-.21.51.14,1,.86,1.26ZM427.5,338.91c5.14-5.46,10.23-10.86,15.31-16.27,2.61-2.78,5.19-5.6,7.82-8.36.86-.91,1.16-1.91.3-2.82-1.19-1.26-1.61.43-2.1.88-7.51,6.93-13.25,15.53-21.11,22.14-1.31,1.1-1.79,2.64-.22,4.43ZM424.57,333.34c7.45-8.19,14.79-16.25,22.11-24.32.9-.99,2.33-2.15.77-3.4-1.16-.93-1.99.68-2.65,1.39-6.78,7.34-13.48,14.77-20.23,22.14-1.24,1.36-.97,2.61,0,4.18ZM385.91,435.7c-1.64-1.79-2.8-.97-4.15.44-5.58,5.82-10.78,12.02-17.11,17.09-2.8,2.24-2.78,2.38-1.79,5.86,8.65-6.73,15.55-15.33,23.05-23.39ZM235.91,468.18c4.25-4.1,6.92-9.42,11.04-13.55.52-.52.46-1.09,0-1.69-1.62-2.12-4.01-2.17-5.77-.1-.89,1.05-1.78,2.1-2.74,3.08-3.43,3.53-4.29,7.57-2.53,12.26ZM400.81,248.08c.13.06-.36-.19-.87-.39-.62-.25-1,.18-1.33.58-1.09,1.31-2.1,2.68-3.24,3.94-9.35,10.35-19.37,20.06-29.05,30.1-.53.55-2.1,1.06-1.05,2.13.86.88,1.7-.2,2.37-.85.31-.29.59-.61.89-.92,10.52-10.85,21.03-21.71,31.57-32.55.37-.38.87-.59.71-2.04ZM421.03,267.85c-7.38,7.97-14.77,15.96-22.24,24.03,1.89,1,2.65-.19,3.54-1.06,6.14-6.02,12.21-12.13,18.48-18.01,1.95-1.83,2.72-3.19.21-4.95ZM365.77,229.24c-1.85-.57-3.57.08-5.12,1.56-5.83,5.59-11.08,11.7-16.1,18.02-.75.94-2.18,2.12-.57,3.15,1.1.71,1.56-.93,2.13-1.7,3.73-5.06,7.97-9.61,12.8-13.67,2.54-2.13,4.57-4.88,6.85-7.36ZM441.23,294.17c-.35-.51-.55-1.11-.95-1.33-.52-.28-.92.27-1.28.65-6.75,7.36-13.5,14.71-20.26,22.06-.84.91-.64,1.87.11,2.53.78.68,1.29-.31,1.78-.76,7.45-6.65,12.59-15.39,20.04-22.04.28-.25.37-.7.57-1.11ZM409.31,310.84c3.77,2.27,7.09,2.18,9.88-1.09,5.66-6.64,11.7-12.9,18.21-18.71.9-.8.8-1.35.1-2.08-.94-.98-1.24.12-1.68.55-3.86,3.82-7.47,7.86-10.88,12.1-2.81,3.5-6.24,6.36-9.59,9.3-.52.46-1.18,1.29-1.88.63-.95-.9.17-1.44.67-2.04.7-.85,1.74-1.49,1.83-3.16-2.66,1.15-5.04,2.09-6.67,4.5ZM336.67,243.28c4.93-4.93,8.81-10.25,13-15.31.63-.76,2-1.72,1.11-2.62-.88-.9-2.4-.46-3.55.27-.36.22-.71.48-1,.78-3.06,3.24-6.26,6.36-8.5,10.28-1.1,1.94-2.01,3.9-1.07,6.6ZM217.89,511.18c.45-.22.91-.43,1.35-.66,4.29-2.24,7.1-6.28,11.02-9,3.47-2.42,4.33-6.09,2.71-10.47-4.59,7.14-10.68,12.94-15.08,20.13ZM458.8,330.74c-7.56,7.95-14.08,16.63-22.07,23.94-.9.83-.72,1.61-.28,2.7,2.01-1.17,3.49-2.8,4.81-4.57,2.22-2.99,4.44-6.09,7.44-8.2,4.07-2.87,6.81-6.9,10.24-10.31,1.12-1.11,1.17-2.16-.14-3.55ZM241.83,201.89c1.86-.31,3.72-.78,5.6-.89,3.53-.21,6.63-2.07,9.92-2.63,5.31-.9,10.81-.42,16.17.78,1.58.35,3.2.61,5.05-.08-.62-.67-.93-1.11-1.34-1.44-3.37-2.76-17.12-2.61-20.34.36-.71.66-1.33.94-2.17.99-4.47.28-8.71,1.61-12.89,2.9ZM359.23,257.9c-.76-.27-1.32-.3-1.91.14-2.97,2.21-6.04,4.3-8.93,6.61-2.81,2.25-5.34,4.82-7.68,7.56-1.21,1.42-.4,2.62.3,3.74.62,1,1.35.15,1.76-.35,5.08-6.25,11-11.72,16.46-17.7ZM93.26,283.11c1.36.26,1.92-.63,2.48-1.33,8.32-10.37,19.06-18.38,27.47-28.64-1.88-.15-3.38.69-4.61,2.33-2.23,2.96-4.56,5.85-7.35,8.32-6.58,5.83-12.5,12.26-18,19.33ZM265.44,611.47c2.49-3.27,2.86-6.97,3.65-10.92-2.95.97-5.68,1.03-8.36,1.27-2.24.2-2,.95-1.25,2.63,1.3,2.96,4.01,4.53,5.97,7.02ZM199.93,275.32c-3.05,1.65-6.03,3.45-9.17,4.92-3.11,1.45-5.51,3.61-7.37,6.41-.46.69-1.69,1.43-.69,2.41.86.84,1.95.6,2.9-.15,2.74-2.2,5.56-4.31,8.24-6.58,2.33-1.98,4.73-3.93,6.09-7ZM398.95,298.28c2.1,1.91,3.34.65,4.7-.72,6.98-7.02,14.02-14,21.01-21.01.82-.82,3.02-1.39,1.12-3.02-1.6-1.38-2.14.75-2.82,1.45-4.84,4.95-9.35,10.23-14.36,15-3,2.85-5.04,6.9-9.65,8.3ZM326.01,596.77c-3.17.03-5.5-1.51-7.92.56-3.63,3.12-7.61,5.77-11.92,7.91-1.04.52-1.99,1.22-2.95,1.88-.93.64-2.06,1.07-2.87,2.5,9.4-2.7,17-7.94,25.66-12.84ZM58.5,374.89c-2.78,19.2-2.72,44.42.19,50.71-1.96-16.9-1.41-33.8-.19-50.71ZM339.79,599.42c-9.31-3.84-14.12,3.95-20.62,6.76,7.21-.74,13.67-3.68,20.62-6.76ZM148.94,256.34c-8.71,5.62-16.68,12.13-23.98,19.46,8.69-5.64,16.23-12.68,23.98-19.46ZM254.32,224.72c1.02.6,1.74-.04,2.2-.41,7.21-5.95,14.35-11.97,21.51-17.98.41-.35.88-.9.48-1.34-.64-.72-1.39-.23-1.96.27-2.24,1.95-4.4,4.01-6.71,5.87-5.34,4.32-10.44,8.9-15.53,13.6ZM460.86,336.74c-2.89,3.3-5.67,6.43-8.41,9.6-.66.77-1.62,1.59-.39,2.68,1.24,1.1,2.09.35,2.94-.58,1.85-2.02,3.04-4.6,5.27-6.28,2-1.51,1.99-3.18.59-5.41ZM325.6,286.56c-5.53,4.14-13,6.41-14.11,14.72,4.63-4.99,9.83-9.43,14.11-14.72ZM157.51,272.17c-7.57,3.32-13.21,8.97-18.17,15.45,6.59-4.51,12.01-10.43,18.17-15.45ZM315.7,255.69c-2.92,2.94-4.75,6.2-4.34,8.73.5,3.09,4.42,3.89,7.79,5.08-1.54-4.63-4.84-8.14-3.44-13.8ZM245.22,478.57c-4.45,4.03-9.48,7.77-6.24,15.16,2.56-4.99,5.56-9.59,6.24-15.16ZM442.35,370.24q7.95-9.17,8.2-13.43c-3.07,2.19-4.99,5.14-7.52,7.42-1.93,1.74-2.37,3.6-.68,6ZM144.34,400.37c-6.63.73-10.78,5.88-9.85,12.12,3.61-3.79,7.12-7.55,9.85-12.12ZM529.65,251.79c1.12-.17,2.42-.88,2.49-2.88.09-2.24-1.94-4.35-4.23-4.37-2.22-.02-3.32,1.25-3.46,3.36-.15,2.21,1.84,3.87,5.19,3.88ZM232.85,457.97c1.8-2.39,3.52-4.62,5.17-6.89.82-1.13,1.66-2.31-.27-3.34-1.67-.89-3.11-1.34-4.31.67-1.78,2.96-2.52,5.97-.59,9.56ZM345.72,256.7c8.34.92,11.51-4.04,8.29-11.86-1.91,4.38-3.85,8.57-8.29,11.86ZM448.61,350.75c-3.25,2.55-5.57,6-8.82,8.48-1.88,1.43-1.67,2.85-.01,4.58,2.95-4.47,7.67-7.5,8.84-13.05ZM320.51,255.11c-.5,3.7-.57,7.07,1.73,10,.45.57.81,1.5,1.61,1.41,1-.1,1.1-1.21,1.35-1.98.95-2.82-1.41-7.73-4.68-9.44ZM404.08,384.78c5.98-5.83,11.95-11.66,17.95-17.47.56-.54,1.3-1.07.46-1.77-.76-.63-.97.4-1.38.76-6.32,5.53-11.81,11.85-17.03,18.47ZM292.46,609.11c.17.22.35.44.52.66,6.26-4.26,12.52-8.52,18.78-12.77-.17-.26-.35-.51-.52-.77-7.64,2.23-12.68,8.35-18.78,12.88ZM352.44,490.85c5.7-3.94,4.71-9.7,5.37-14.92-1.78,4.85-6.49,8.67-5.37,14.92ZM135.45,437.65c-8.19-.86-10.59,1.98-8.19,9.25,2.02-3.68,4.69-6.39,8.19-9.25ZM136.18,325.86c5.78-4.26,10.91-9.22,15.22-15-5.93,4.11-10.29,9.82-15.22,15ZM358.38,244.69c4-4.12,7.8-8.02,12.07-11.42.61-.49,1.15-1.05.45-1.84-.77-.88-1.22-.19-1.76.36-3.25,3.33-6.54,6.63-9.78,9.96-.63.65-1.52,1.24-.98,2.94ZM464.68,345.78c-.11-.62-.15-1.34-.77-1.66-.56-.29-.97.15-1.35.54-1.93,1.97-3.84,3.96-5.82,5.88-.9.88-.54,1.62-.07,2.49.29.55.59.78,1.23.59,1.25-.38,6.74-6.68,6.79-7.84ZM446.08,376.33c1.59-3.8,5.8-5.94,5.76-10.8-5.91,4.42-7.83,7.85-5.76,10.8ZM199.09,551.75c-3.91,3.14-6.12,7.52-9.65,10.67-.61.55-.64,1.39-.08,2.03.86.97,1.29-.07,1.72-.53,3.32-3.51,6.53-7.11,8.01-12.17ZM179.99,251.35c1.24.84,1.83.18,2.48-.38,2.24-1.91,4.49-3.8,6.72-5.72.68-.58,1.89-1.08,1.06-2.22-.92-1.27-2.05-.38-2.72.3-2.57,2.59-5.01,5.31-7.55,8.03ZM365.42,242.82c.93.89,1.3.66,1.63.39,3.42-2.85,6.83-5.71,10.27-8.54.44-.36.97-.62.34-1.15-.54-.45-1.17-.37-1.74.12-3.48,3.05-6.96,6.08-10.5,9.18ZM106.55,380.83c-.67,2.22-2.14,3.09-3.35,4.18q-2.83,2.55.49,4.94c.64-3,5.37-4.37,2.85-9.12ZM362.45,290.78c2.1,3.32,4.74,5.37,7.62,7.17.4.25.88.75,1.39.19.16-.18.22-.56.16-.81-.51-2.08-6.19-6.31-9.16-6.55ZM408.83,305.02c-2.66-.68-4.32,1.22-6.33,1.83-.87.27-2,.46-2.09,1.64-.06.76.4,1.42,1.15,1.76,1.07.49,2.05.37,2.96-.4,1.59-1.35,3.2-2.68,4.32-4.84ZM210.99,221.12c-1.89,1.44-4.61,1.95-6.58,3.8-.8.75-.57,1.39.22,2.13.71.66,1.13,1.03,2.03.22,1.73-1.54,3.33-3.27,5.42-4.36.56-.29.84-.68.57-1.25-.25-.54-.79-.64-1.66-.54ZM334.16,271.8c-3.2.63-5.9,2.15-8.32,4.16-.82.69-.27,1.57.21,2.29.32.49.93.83,1.3.34,1.94-2.57,5.1-3.91,6.81-6.79ZM83.72,372.09c4.69-1.84,5.29-5.42,5.01-10.24-1.67,3.81-5.27,5.85-5.01,10.24ZM327.77,284.55c3.47-1.45,6.43-3.61,8.83-6.53.42-.51.46-1.31-.05-1.73-.61-.5-1.1.16-1.58.53-2.8,2.17-5.37,4.56-7.2,7.73ZM280.75,209.39c-3.29,3.08-6.65,6.08-10.25,8.8,4.62-1.56,8.33-4.16,10.25-8.8ZM96.58,376.66c-.15-.07-.42-.23-.71-.32-2.53-.85-5.07.62-5.63,3.17-.2.93.34,1.37.89,1.85.9.78,1.29-.08,1.76-.6,1.21-1.33,2.41-2.68,3.69-4.1ZM111.37,387.21c-1.43,1.57-2.46,2.62-3.39,3.76-.55.68-1.64,1.45-.67,2.41.71.71,1.74,1.42,2.69,1.51,1.44.14.95-1.36,1.15-2.15.4-1.6.64-3.25.22-5.52ZM102.88,377.52c-2.14,2.23-4.68,4.9-6.97,7.29,2.42.15,5.58-3.07,6.97-7.29ZM209.28,539.96c2.79-2.2,5.18-4.7,7.03-8.55-4.12,2.62-6.39,5.32-7.03,8.55ZM277.93,607.99c4.01-1.22,6.49-4.53,9.36-7.35-4.17,1-6.28,4.78-9.36,7.35ZM278.82,600.91c-4.69-.56-6.47,1.16-6.74,6.14,2.39-1.81,4.73-3.47,6.74-6.14ZM105.57,333.43c-2.03,2.67-4.96,4.44-7.18,7.3,4.52.02,6.25-1.76,7.18-7.3ZM339.85,246.75c3.15-2.42,4.88-5.96,7.19-9.04-2.51,2.92-5.87,5.18-7.19,9.04ZM90.45,371.13c-1.6,1.38-3.22,2.7-4.73,4.13-.58.55-.46,1.37-.02,2.04.36.55.99.61,1.3.11,1.26-2.06,3.86-3.43,3.45-6.28ZM465.59,351.47c-1.48,1.33-2.55,2.33-3.65,3.27-.73.62-1.08,1.32-.62,2.22.3.58.79,1.01,1.5,1.04.92.03,1.3-.67,1.57-1.35.57-1.46,1.32-2.88,1.21-5.17ZM529.23,213.65c.16,3.8-1.82,8.18,3.24,11.56-1.24-4.42-2.24-7.99-3.24-11.56ZM126.62,421.77c2.59-2.6,3.88-5.53,3.02-9.84-2,3.5-2.83,6.59-3.02,9.84ZM160.56,499.64c-.32-3.6-2.27-6.09-4.89-8.17,1.09,3.07,2.8,5.76,4.89,8.17ZM195.26,572.58c.19-2.43.34-4.4.52-6.71-3.92,3.47-4.88,3.68-.52,6.71ZM209.16,229.89c-2.43,1.61-3.74,3.25-5.13,4.8-.4.44-.66.88-.16,1.34.49.46,1.07.17,1.37-.22,1.28-1.68,2.99-3.1,3.93-5.91ZM80.42,365.89c1.41-1.64,2.6-3.02,3.79-4.41.28-.33.51-.71.23-1.12-.28-.42-.85-.47-1.09-.15-1.17,1.62-3.88,2.41-2.93,5.68ZM214.3,224.04c-.25,2.31-1.62,4.24-2.14,6.9,3.04-1.97,3.53-4.2,2.14-6.9ZM76.88,372.93c-.14-2.99-.64-5.92-2.25-9.12.35,3.49,1.1,6.34,2.25,9.12ZM199.33,269.07c2.41.13,4.06-.78,5.77-1.46.48-.19,1.43-.28,1.08-1.18-.36-.92-1.26-.75-1.88-.42-1.53.84-2.99,1.82-4.97,3.06ZM338.38,269.24c.95-1.1,1.9-2.2,2.85-3.29.37-.42.61-.85.14-1.35-.55-.58-1.13-.49-1.61.05-1.05,1.17-1.78,2.51-1.39,4.59ZM94.35,357.66c2.09-2.65,2.21-5.12,2.01-7.67-.99,2.22-2.5,4.28-2.01,7.67ZM336.01,204.71c3.14.97,5.85,3.09,9.23,3.43-2.89-1.66-5.78-3.29-9.23-3.43ZM446.24,406.45c-1.79,2.12-2.2,4.3-1.78,6.71,1.05-2.02,1.85-4.1,1.78-6.71ZM353.82,229.96c1.68.23,1.99-1.2,3-1.48.8-.22,1.38-.67.65-1.56-.67-.81-1.44-.89-2.03.04-.59.91-1.04,1.91-1.62,3ZM303.81,414.53c1.62,1.31,3.57,1.9,5.77,1.38-1.92-.46-3.85-.92-5.77-1.38ZM144.68,481.14c-1.12-1.24-1.99-2.16-3.58-2.6.39,2.06,1.73,2.34,3.58,2.6ZM125.96,345.15c.87-1.93,1.85-3.43,2.17-5.56-1.76,1.54-2.72,3.06-2.17,5.56ZM436.37,467.08c-1.33,1-2.2,2.31-2.86,4.16,1.47-1.32,2.27-2.67,2.86-4.16ZM314.35,287.83c-1.54.53-2.95,1.37-2.87,3.73,1.1-1.43,1.98-2.58,2.87-3.73ZM253.14,211.26c-1.68.33-2.66,1.45-3.74,2.71,2.24.28,2.76-1.58,3.74-2.71ZM362.44,255.36c1.11-1.27,2.29-1.77,2.44-3.47-1.14.96-2.23,1.42-2.44,3.47ZM199.64,551.08c.18-.08.44-.11.5-.23.18-.38.84-.77.24-1.15-.13-.08-1.05.58-.74,1.38ZM361.7,255.66c-.1-.08-.19-.15-.29-.23-.05.08-.14.16-.14.25,0,.13.06.27.1.4.11-.14.23-.27.33-.41ZM205.5,592.13c.08-.08.15-.15.21-.23-.14-.07-.27-.16-.42-.2-.05-.01-.14.12-.21.19.13.08.27.15.41.23ZM299.55,609.9l.09-.13h-.17s.08.13.08.13ZM88.82,303.91l.14.13.04-.19-.18.07ZM217.05,511.51c.08-.08.14-.15.21-.22-.13-.07-.25-.16-.39-.19-.05-.01-.13.12-.19.19.13.07.25.15.37.22Z"/><path class="cls-1" d="M97.87,191.4c-1.48.82-2.88,0-4.3-.24-1.22-.21-2.26-.68-2.34-2.17-.08-1.65,1-1.92,2.28-1.95,1.44-.03,1.33-1.06,1.36-2.02.39-15.42-.14-30.82-.84-46.22,0-1.25,0-2.5-.01-3.75.26-3.98.38-7.97,0-11.95.02-7.21.04-14.42.05-21.63,0-1.33-.51-2.97,1.59-3.13,2.29-.17,2.12,1.62,2.15,3.07.06,3.29-.02,6.59.06,9.88.03,1.04-.55,2.46,1.17,2.87-1.08.98-1.65,2.12-1.13,3.6-.17,10.87-.4,21.75.02,32.62-.1.5.09.67.58.54,1.69.08,3.38.16,5.07.24.37.47.86.38,1.34.27,3.8.09,4.6,1.99,4.41,5.67-.47,9.13-.24,18.3-.57,27.44-.09,2.57,1.11,2.47,2.81,2.38,1.61-.08,3.42.5,3.11-2.42-.33-3.16-.16-6.38-.15-9.57.03-9.68.53-19.36-.15-29.03.18-1.01.35-2.01.53-3.02,3.38-.52,6.78-.35,10.19-.32,2.31.02,2.98.69,2.94,3.14-.2,12.97-.11,25.94-.25,38.91-.02,2.05.67,2.29,2.51,2.47,3.03.29,3.73-.71,3.46-3.61-.33-3.48-.12-7.01-.14-10.52-.07-14.13-.15-28.27-.22-42.4.44-1.24-.22-2.89,1.36-3.72,3.08-.25,6.18-.32,9.22-.79,2.62-.4,3.01.66,2.98,2.96-.22,19.06-.33,38.13-.48,57.19-.17.59.11.76.65.68.95.05,1.92.03,2.85.18,1.81.29,2.3-.38,2.29-2.22-.05-17.68,0-35.35.04-53.03,0-2.55-.83-5.69.35-7.48,1.3-1.98,4.78-.6,7.24-1.18.44.02.87.04,1.31.06,4.28.68,4.24.68,4.24,5.21,0,11.79.03,23.58.06,35.37-.36,2.36-.36,4.71-.01,7.07-.11,3.6-.24,7.19-.32,10.79-.14,6.53-.11,6.53,6.82,5.16-.97-2.17-1-4.47-1-6.77.01-8.37,0-16.74,0-25.11.56-8.58.41-17.16,0-25.73.25-5.1.21-10.19-.28-15.27.37-1.21-1.51-2.69-.16-3.46,1.68-.96,1.14-2.26,1.3-3.51.31-2.43-.08-4.94.72-7.38,1.8.75.65,2.73,1.91,3.54.01.39.02.78.04,1.17-.5,1.52-.42,3.07-.16,4.61.91,1.72.82,3.55.77,5.44-.58,21.95-.41,43.9-.28,65.85.02,2.82-.83,5.69.69,8.62.9,1.74-1.33,1.92-2.7,1.92-6.61.02-13.22,0-19.83,0-17.16.01-34.32.03-51.48.07-1.23,0-2.58-.37-3.68.59ZM156.16,157.08c-.09,0-.18,0-.26,0,0,9.27,0,18.54.02,27.8,0,.73-.63,1.64.65,2.12,2.88,1.08,4.78-.09,4.76-3.04,0-1.07,0-2.13,0-3.2-.03-16.83-.07-33.66-.07-50.5,0-1.83.09-3.03-2.58-3.12-2.88-.1-2.54,1.3-2.53,3.09.03,8.95.01,17.9.01,26.85ZM137.48,158.69s-.02,0-.03,0c0,8.74.05,17.48-.04,26.22-.02,1.81.45,2.59,2.32,2.19,1.31-.28,3.12.84,3.09-2.08-.14-17.26-.08-34.53-.05-51.8,0-1.64.05-2.9-2.27-2.72-1.84.14-3.14,0-3.09,2.6.17,8.52.06,17.05.06,25.58ZM118.87,166.71c-.15,0-.3,0-.45,0,0,5.96.15,11.92-.07,17.87-.1,2.7,1.44,2.28,3.01,2.27,1.45,0,2.82.4,2.78-2.11-.18-12.02-.23-24.05-.09-36.07.03-2.83-1.65-1.94-3.05-2.19-1.75-.31-2.17.38-2.15,2.04.08,6.06.03,12.13.03,18.19ZM99.24,155.26c.02,9.84.18,19.41-.46,28.96-.09,1.29-.82,3.12,1.64,2.59,1.68-.36,4.68,1.85,4.58-2.47-.16-7.34.02-14.69.12-22.04.09-6.02.13-6.02-5.89-7.04Z"/><path class="cls-1" d="M380.04,697.75c-.03-12.58-.07-25.15-.1-37.73-.03-6.43-.07-12.86-.07-19.28,0-1.24-.36-2.55.54-3.66,4.33.03,8.58-1.35,12.94-.64.14.61.29,1.22.43,1.83-.26,2.77-.31,5.53-.03,8.3,0,.22,0,.43,0,.65-.04,13.51-.08,27.01-.13,40.52-.01,2.66.1,5.34-.17,7.97-.26,2.48.73,3.08,3.01,3.09,4.73.04,3.98.53,3.96-4-.07-14.47-.07-28.94-.19-43.4-.01-1.67.38-2.21,2.06-2.28,3.5-.15,7-.52,10.5-.8,1.81.49,1.27,1.99,1.27,3.16,0,13.95-.03,27.89-.1,41.84-.03,5.57-.09,5.47,5.46,5.66,1.81.06,2.34-.32,2.3-2.18-.44-20.12.83-40.23.14-60.35-.17-4.93-.1-4.89-5.29-4.9-.77,0-1.92,1.02-2.41-.51-.38-1.18.49-1.72,1.21-2.34,2.01-.14,4.02-.31,6.03-.4,4.19-.19,4.37-.06,4.35,4.04-.07,13.71-.18,27.42-.27,41.13,0,1.48.07,2.97.1,4.45-.38,1.7-.41,3.42-.11,5.13-.4,2.97-.46,5.94-.16,8.93-.07,1.26-.07,2.53-.22,3.79-.3,2.61.46,4.12,3.43,3.65,1.26-.2,2.31.14,2.73,1.53-.39.46-.79.93-1.18,1.39-1.74.03-3.49-.22-5.2.3-16.73.01-33.46.04-50.19.04-8.85,0-17.69-.05-26.54-.04-2.34,0-4.67.18-7.01.28-4.47-.05-8.94-.03-13.41-.16-2.66-.08-3.21-1.22-1.9-3.55,3.9-.19,7.8-.41,11.7-.54,1.41-.05,2.08-.41,1.98-2.03-.26-4.32-.36-8.64-.52-12.96.74-3.55-.44-7.2.63-10.73,4.11-.34,8.22-.4,12.33.04,1.84,2.3.18,5.06.98,7.5-.07,5.37-.08,10.74-.25,16.11-.08,2.63,1.49,2.24,3.11,1.98q4.62.56,4.14-2.81c.05-6.59.31-13.18-.19-19.77.51-5.17.52-10.36.28-15.52-.13-2.88.47-4.6,3.58-4.76,2.65.01,5.3-.01,7.94.05,1.46.03,2.1.53,2.06,2.34-.24,12.74-.3,25.48-.4,38.22,0,1.18-.48,2.88,1.83,2.15,1.69-.13,3.62,1.4,5.01-.74ZM389.85,669.26s-.04,0-.05,0c0-8.83.01-17.65-.02-26.48,0-.86.49-1.96-.71-2.51-2.64-1.22-5.15.34-5.16,3.26-.03,17.55.02,35.09-.13,52.64-.03,3.45,2.3,2.17,3.88,2.51,2.32.5,2.22-1,2.22-2.62-.05-8.93-.02-17.87-.02-26.8ZM410.22,675.63s-.05,0-.07,0c0-7.03.01-14.07-.01-21.1,0-1.07.24-2.89-1.61-2.05-1.34.6-4.02-1.63-4.05,1.79-.13,14.07-.27,28.13-.42,42.2-.04,3.65,2.8,1.95,4.43,2.34,2.16.52,1.73-1.18,1.73-2.39,0-6.93,0-13.85,0-20.78ZM363.86,679.3c-.12,0-.25,0-.37,0,0,5.74.1,11.48-.05,17.22-.06,2.39,1.34,2.36,2.84,2.11,1.28-.21,3.57,1.14,3.44-1.78-.5-11.48-.03-22.96,0-34.44,0-1.63-.28-2.84-2.26-2.32-1.42.37-3.79-1.01-3.67,2.32.21,5.63.06,11.26.06,16.9ZM349.14,687.58c-.1,0-.2,0-.29,0,0-2.98-.13-5.96.04-8.93.19-3.22-2.13-1.7-3.47-1.99-1.57-.34-2.55-.13-2.5,1.97.12,5.21-.04,10.42-.03,15.63,0,4.59.04,4.53,4.57,4.37,1.35-.05,1.81-.32,1.73-1.81-.16-3.07-.05-6.16-.05-9.24Z"/><path class="cls-1" d="M116.46,122.34c5.23-1.02,9.64-3.8,13.94-6.71,5.63-3.81,10.93-8.04,15.97-12.63,3.6-3.28,7.13-6.68,12.59-7.43,3.71-.51,6.77-3.66,10.56-4.65.09.61-.04,1.45.32,1.79,1.97,1.92.53,2.28-1.1,2.67-.39.09-.75.32-1.12.49-.85.08-1.71.17-2.56.25-2.7-.12-4.99.88-7.01,2.59-.22.14-.45.27-.67.41-2.32.87-4.01,2.56-5.58,4.38-.9.12-1.63.54-2.16,1.29-.89.14-1.49.69-1.98,1.4-.66.51-1.34,1-1.99,1.53-7.21,5.75-14.28,11.67-22.86,15.42-5.74,2.51-11.22,4.29-16.07-1.54-1.17-1.49-2.2-3.16-3.88-4.11-2.31-1.31-2.48-2.83-.81-4.74.71.04,1.43.08,2.14.11,2.33,1.96,4.67,3.92,7,5.88.13.14.27.27.4.41.34.76.8,1.4,1.64,1.67l.07.21s.22.03.22.03c.74.98,1.31,2.35,2.94,1.27Z"/><path class="cls-1" d="M196.37,175.32c-.04-7.08,4.68-12.78,10.54-12.73,5.73.05,10.98,5.76,10.95,11.9-.03,6.25-5.42,12.03-11.22,12.04-5.64.01-10.23-5-10.27-11.21ZM214.12,174.49c.03-4.43-3.62-8.29-7.86-8.31-3.4-.02-6.42,3.88-6.53,8.45-.1,4.11,3.72,8.49,7.45,8.55,3.83.06,6.91-3.79,6.95-8.69Z"/><path class="cls-1" d="M461.72,663.7c-1.74,4.47-2.96,8.84-5.47,13.5-2.04-6.43-3.91-12.24-5.71-18.07-.17-.55-.65-1.57.67-1.67.71-.05,1.21.2,1.35,1,.75,4.21,2.82,7.99,4.16,12.5.87-3.82,2.98-6.81,3.56-10.4.16-.98.27-2.53,1.43-2.61,1.2-.08,1.37,1.42,1.66,2.4.92,3.15,1.72,6.35,3.57,9.25,1.94-3.27,2.94-6.84,3.99-10.4.28-.96.13-2.6,1.55-2.32,1.75.35.63,1.9.57,2.94-.12,1.95-1.05,3.66-1.81,5.41-1.15,2.63-2.27,5.25-2.8,8.1-.2,1.09-.23,2.63-1.67,2.77-1.75.17-1.38-1.56-1.71-2.56-1.03-3.2-1.41-6.63-3.33-9.84Z"/><path class="cls-1" d="M484.5,663.45c0,3.77.04,7.28-.03,10.79-.02.77.64,2.15-1.06,2.09-1.2-.05-1.5-.89-1.5-1.99-.01-5.22-.08-10.44-.12-15.67,0-.6-.16-1.44.81-1.39.94.05,1.97.16,2.42,1.22,2.11,4.96,7.31,7.4,10.2,12.06.16-3.65.28-7.3.52-10.94.05-.73-.39-2.03.8-2.08,1.25-.06,1.3,1.21,1.31,2.14.03,4.9,0,9.8.01,14.71,0,.79-.14,1.58-.83,1.97-.9.5-1.31-.42-1.79-.91-3.69-3.77-6.14-8.61-10.74-12Z"/><path class="cls-1" d="M286.83,138.16c0-.85-.11-1.72.02-2.55.3-1.92-.98-4.29.82-5.69,1.67-1.3,9.47.42,10.88,2.01,1.82,2.06,2.15,4.42.02,6.23-2.95,2.5-2.19,4.43.15,6.68.8.77,2.59,1.86,1.58,2.89-1.2,1.22-2.38-.5-3.34-1.36-1.82-1.62-2.94-3.91-5.14-5.19-1.55-.9-2.5-1.15-2.46,1.18.02,1.27-.11,2.56-.3,3.82-.11.74.35,2.02-.89,2-1.01-.02-1.05-1.26-1.11-2.03-.2-2.65-.27-5.31-.38-7.97.04,0,.09,0,.13,0ZM289.22,134.56c.1,2.59-.26,5.13,3.46,4.81,2.59-.22,5.09-1.96,5.05-3.87-.05-2.38-1.98-3.47-5.77-3.54-2.13-.04-3.32.49-2.74,2.6Z"/><path class="cls-1" d="M470.3,636.71c-1.28.4-2.04-.16-2.69-.61-2.57-1.79-4.79-1.05-6.92.75-2.28,1.93-2.37,4.48-1.61,7,.95,3.15,5.36,4.57,8.26,2.86,1.37-.81,2.01-2.06,1.35-3.49-.92-1.99-1.8-.4-2.61.24-.71.56-1.18.37-1.34-.44-.19-.99-.12-2.19,1.11-2.23,1.79-.05,3.94-.78,5.23,1.13,1.26,1.88.49,5.96-1.11,7.07-2.2,1.5-7.91,1.27-10.4-.43-3.01-2.05-4.2-5.27-3.28-8.9.63-2.48,4.69-6.13,7.25-6.55,3.11-.5,5.34.64,6.77,3.59Z"/><path class="cls-1" d="M362.32,627.78c-.19-.09-.37-.23-.57-.26-5.16-.79-5.9-1.52-5.77-5.68.14-4.33,2-6.34,6.27-6.81,2.64,1.41,5.05,3.06,5.68,6.26.92,4.66-.91,6.75-5.61,6.49ZM363.49,621.97c-.06-1.29-1.21-2.44-2.45-2.45-1.43,0-1.82.87-1.72,2.09.13,1.52,1.04,2.35,2.52,2.27,1.04-.06,1.76-.71,1.66-1.92Z"/><path class="cls-1" d="M284.6,139.73c-.05,3.88-4.93,8.65-8.82,8.61-4.56-.04-8.6-4.61-8.64-9.77-.04-4.54,4.31-8.92,8.75-8.84,4.75.09,8.78,4.71,8.71,10ZM282.44,139.14c0-3.85-3.34-7.17-7.11-7.07-3.24.09-6.12,3.1-6.18,6.49-.07,3.95,3.14,7.77,6.49,7.73,3.34-.04,6.8-3.68,6.8-7.15Z"/><path class="cls-1" d="M261.97,122.71c-1.21,1.68-2.16,1.79-2.48-.52-.65-4.62-4.57-3.07-7.22-3.82-2.6-.74-2.66,1.8-3.59,3.16-.61.88-.58,2.89-2.02,2.29-1.52-.63-.73-2.75-.19-3.55,2.69-4,3.86-8.56,5.29-13.02.3-.94.75-2,1.41-2.19.93-.26,1.09,1.05,1.48,1.73,1.13,1.94,3.03,3.39,3.64,5.66.99,3.5,2.16,6.94,3.66,10.26ZM256.9,116.18c-.55-2.28-1.34-4.3-2.92-6.19-.84,2.18-2.41,3.83-2.81,6.19h5.73Z"/><path class="cls-1" d="M194.44,113.71c-.54-4.51,3.07-6.05,5.94-7.86,2.8-1.77,5.74-.94,8.27,1.01.58.44,1.76.94,1.17,1.9-.66,1.09-1.61.41-2.48-.05-4.19-2.22-8.26-.91-9.89,3.2-1.13,2.85-.79,5.54,1.7,7.48,2.2,1.71,4.6,3.29,7.33.66.82-.79,2.05-1.09,2.79.01.85,1.28-.33,1.83-1.26,2.38-6.11,3.66-13.19-.9-13.55-8.72Z"/><path class="cls-1" d="M211.64,123.74c-1.46-.49-1.07-1.48-.63-2.31,2.13-4.02,3.72-8.27,5.48-12.45.5-1.2.03-3.46,1.74-3.52,1.88-.07,1.83,2.33,2.57,3.57,2.36,4.01,4.32,8.25,5.7,12.73.22.71.77,1.64-.04,1.97-.87.35-1.82-.03-2.21-1.21-.49-1.49-.89-3.66-2.22-3.98-2.07-.49-4.4-.07-6.58.24-1.52.21-1.49,1.89-1.98,2.98-.42.91-.82,1.69-1.82,1.98ZM218.5,108.97c-.81,2.08-1.32,3.66-2.02,5.14-.83,1.76-.51,2.58,1.55,2.44,1.23-.08,2.84.62,3.58-.48.66-.97-.63-2.08-1.07-3.11-.52-1.21-1.2-2.35-2.05-3.99Z"/><path class="cls-1" d="M436.34,641.54c0-.53-.1-1.09.01-1.59.46-2.04-1.36-4.82.88-6.06,2.79-1.54,8.71.2,10.62,2.42,2.21,2.56,2.7,6.25,1.19,8.9-2.1,3.67-7.44,5.75-11.66,4.65-1.23-.32-1.04-1.11-1.04-1.94,0-2.13,0-4.26,0-6.39ZM438.43,641.57q-.05,6.39,4.77,5.61c.1-.02.21-.02.31-.04,2.7-.59,4.48-3.35,4.03-6.25-.52-3.36-3.26-5.41-7.2-5.13-3.81.27-1.08,3.31-1.9,4.87-.13.25-.02.63-.02.94Z"/><path class="cls-1" d="M252.93,134.09c-1.51.35-2.7.23-3.79-.67-2.45-2.02-4.74-1.35-6.81.62-2.27,2.15-2.83,5.75-1.34,8.15.98,1.59,2.46,2.59,4.09,3.43,1.77.91,3.04.51,4.5-.88.73-.69,2.74-.93,3.31.54.51,1.31-1.14,1.49-2.02,1.9-4.88,2.26-10.11.26-12.47-4.71-2.03-4.29.22-9.85,4.87-11.97,3.21-1.46,7.83-.93,9.66,3.6Z"/><path class="cls-1" d="M221.56,147.59c1.66-6.55,5.11-12.09,7.95-18.43,3.1,5.65,5.18,11.25,7.49,16.74.22.52.51,1.39-.23,1.67-.79.3-1.35-.3-1.75-1.01-.69-1.26-.65-3.24-2.34-3.53-2.17-.37-4.43-.3-6.65-.27-1.14.02-1.33,1.19-1.79,1.99-.6,1.04-.63,2.55-2.68,2.84ZM229.14,134.46c-.63,1.47-1.22,2.9-1.86,4.32-.37.82-.77,1.64.44,2.07,1.33.48,2.94.8,4,.03.94-.69-.12-1.97-.6-2.84-.65-1.18-.73-2.68-1.97-3.57Z"/><path class="cls-1" d="M262.55,111.81c2.45-6.59,8.8-8.66,13.29-5.02.55.44,1.78.95.87,1.97-.63.71-1.36-.09-1.97-.39-4.45-2.19-7.61-1.3-9.46,2.72-1.85,4-.25,8.15,3.75,9.75,2.18.87,4.19.73,5.85-1.09.8-.87,1.9-1.6,2.72-.67.96,1.08-.48,1.82-1.12,2.54-2.94,3.27-6.38,1.95-9.77,1-3.62-2.74-4.82-6.42-4.15-10.81Z"/><path class="cls-1" d="M228.65,114.61c0-2.26.19-3.99-.04-5.65-.39-2.8.42-4.13,3.43-3.62.83.14,1.7.01,2.55.05,4.39.18,5.66,1.3,5.73,5.03.08,4.42-1.42,6.62-5.47,6.42-4.16-.21-4.85,1.6-4.35,5,.11.77.35,1.95-.85,2.05-1.37.11-.91-1.16-.98-1.88-.24-2.65-.4-5.3-.01-7.39ZM230.22,110.43c0,4.02.19,4.27,2.78,4.33,2.99.07,4.75-1.38,4.62-3.91-.15-2.92-2.14-3.35-4.6-3.56-2.98-.26-3.03,1.4-2.8,3.14Z"/><path class="cls-1" d="M501.3,649.76c-1.24-.05-1.5-1.08-1.84-1.93-.5-1.24-.96-2.48-2.67-1.99-2.12.6-4.97-1.5-6.39,1.86-.44,1.05-.81,3.14-2.27,2.51-1.53-.66-.01-2.27.38-3.24,1.59-3.92,3.41-7.74,5.2-11.57.3-.64.82-1.54,1.37-1.64.98-.18,1.35.89,1.63,1.66,1.57,4.27,4.03,8.18,5.07,12.66.14.59.86,1.48-.49,1.69ZM495.23,637.5c-1.1,2.49-3.45,4.03-2.06,6.29.37.6,3.58.49,4.07-.24,1.41-2.12-.89-3.6-2.01-6.05Z"/><path class="cls-1" d="M306.57,113.79c2.09-2.45,3.4-5.24,4.81-7.95.69-1.33,1.73-1.22,2.67-.65,1.26.77,0,1.41-.35,2.04-2.72,4.83-6.83,9.14-5.67,15.41.17.89-.47,1.29-1.35,1.38-1.08.12-1.31-.46-1.21-1.32.74-6.06-2.75-10.75-5.16-15.78-.33-.69-.7-1.46-.25-1.83.92-.76,1.41.04,1.87.85,1.49,2.61,3.06,5.18,4.64,7.84Z"/><path class="cls-1" d="M293.18,115.39c0,1.81.13,3.63-.05,5.42-.1.98.69,2.77-1.08,2.79-1.88.03-1.06-1.75-1.08-2.74-.09-3.51-.16-7.03.02-10.53.12-2.39-.65-3.36-3.07-2.93-.72.13-1.49.07-2.22-.06-.91-.16-.61-.97-.62-1.55-.01-.62.33-1.04.99-.9,3.36.7,6.71-.02,10.06-.05,1.36-.01,2.38.19,2.36,1.78-.03,2.08-1.46.97-2.29.85-2.27-.32-3.13.53-2.92,2.81.15,1.69.03,3.4.03,5.11-.04,0-.09,0-.13,0Z"/><path class="cls-1" d="M457.71,698.03c-.79-1.13-1.73-2.18-2.33-3.4-1.56-3.17-.85-5.69,2-7.78,2.74-2,5.86-1.95,8.19.16,2.7,2.44,3.22,5.6,1.4,8.5-2.11,3.36-4.43,4.3-8.02,3.25-.41-.24-.83-.49-1.24-.73ZM461.43,697.16c2.2,0,4.74-2.52,4.79-4.75.05-2.26-2.63-5.09-4.82-5.08-2.49,0-5.2,2.46-5.18,4.69.02,2.39,2.82,5.15,5.21,5.15Z"/><path class="cls-1" d="M223.01,129.76c1.39,1.79.48,2.45-1.31,2.54-1.59.08-3.21.16-4.79,0-2.26-.24-2.74.66-2.93,2.84-.34,3.99,2.33,2.65,4.27,2.91.97.13,2.63-1.21,2.81.61.17,1.68-1.6,1.27-2.68,1.34-4.15.24-4.14.23-4.87,5.31-.11.79.18,1.84-.95,2.13-.79.2-1.1-.45-1.35-1.06.03-2.35.06-4.7.09-7.06.07-1.15.18-2.3.19-3.45q.07-5.62,5.8-5.63c1.26,0,2.51-.08,3.77-.12.7.18,1.36.13,1.94-.36Z"/><path class="cls-1" d="M441.61,667.16c0-1.06-.04-2.12,0-3.18.14-2.72.27-5.33-3.86-4.26-.69.18-1.85-.01-1.79-1.24.07-1.25,1.11-1.05,1.93-1.05,3.08,0,6.15,0,9.23.03.9,0,2.07-.3,1.94,1.28-.12,1.41-1.01,1.94-2.2,1.38-3.05-1.45-3.33.09-3.24,2.61.13,3.71.03,7.42,0,11.13,0,.72.05,1.73-.94,1.71-.94-.02-.92-1.05-.94-1.74-.06-2.22-.02-4.45-.02-6.68-.04,0-.08,0-.12,0Z"/><path class="cls-1" d="M260.57,147.85c-1.26-.57-.98-1.77-1.14-2.76-.45-2.75-.42-5.53-.07-8.27.39-3.03-.27-4.76-3.75-3.96-1.18.27-1.43-.36-1.57-1.34-.2-1.35.56-1.33,1.51-1.27,2.88.17,5.74-.08,8.59-.46,1.01-.13,1.95-.18,1.92,1.29-.02,1.33-.55,2-1.93,1.67-2.32-.55-2.87.46-2.75,2.64.17,3.18.07,6.38,0,9.57-.02.99.35,2.17-.81,2.88Z"/><path class="cls-1" d="M473.36,692.04c0-.74,0-1.49,0-2.23-.07-4.71.34-5.03,5.11-3.84,3.09.77,6.01,5.58,5.15,8.5-.97,3.3-5.52,5.67-8.8,4.64-1.05-.33-1.23-1.1-1.24-1.96-.04-1.7-.01-3.4-.01-5.11-.07,0-.13,0-.2,0ZM474.69,692.54c.9,1.55-1.55,4.68,2.48,4.6,2.76-.05,4.64-1.64,4.67-4.08.03-2.84-2.39-5.52-5.21-5.25-3.35.32-1,3.21-1.94,4.73Z"/><path class="cls-1" d="M508.74,649.63c-.74,0-1.49-.08-2.22.02-1.71.22-2.41-.25-2.36-2.19.09-3.91-.15-7.84-.2-11.76,0-.75-.61-1.99.63-2.1,1.43-.13,1.11,1.28,1.17,2.14.19,2.75.54,5.51.38,8.24-.17,2.83.97,3.54,3.5,3.09.93-.17,1.9-.11,2.85-.14.79-.02,1.57.07,1.56,1.11,0,.94-.39,1.65-1.49,1.65-1.27,0-2.54,0-3.81,0,0-.02,0-.04,0-.06Z"/><path class="cls-1" d="M494.59,693.57c-1.27-.12-2.54-.24-3.73.36-.52-.09-.68.16-.6.64,0,.43,0,.85,0,1.28-.2,1.09.33,1.31,1.26,1.06,1.22.04,2.45.16,3.67.11,1.62-.07,1.59.85,1.32,1.97-.6.05-1.21.1-1.81.15-1.99-.54-4.66,1.1-5.89-.7-.96-1.41-.45-3.82-.59-5.79.05-2.55.1-5.1.15-7.65,1.75.1,3.49.21,5.24.3,1.35.07,1.94.6,1.23,1.96-.41-.05-.85-.2-1.24-.13-1.4.26-3.61-1.08-3.67,1.91-.05,2.65,1.22,3.47,3.69,3.11.68-.1,1.42.24,2.13.38-.06.12-.04.22.06.31-.41.25-.81.49-1.22.74Z"/><path class="cls-1" d="M484.53,642.44c0,1.81.03,3.62-.01,5.42-.02.68.22,1.64-.93,1.66-1.02.02-1.13-.76-1.14-1.55-.05-3.29-.14-6.59-.14-9.88,0-1.66-.09-3.18-2.36-2.13-1.1.51-1.2.02-1.38-.83-.21-.96-.22-1.76,1.01-1.79,2.98-.09,5.96-.11,8.93-.16.79-.01,1.16.4,1.14,1.17-.02.61.05,1.55-.83,1.36-6.24-1.32-4.07,3.25-4.34,6.11-.02.21,0,.43,0,.64.02,0,.04,0,.06,0Z"/><path class="cls-1" d="M449.83,696.95c-2.35-.77-.08-3.05-1.4-4.17-.46-.14-.75.15-1.07.45-3.29,3.09-3.86,3.07-6.44-.5-.94-1.3-1.98-2.43-3.36-3.25.03-.63.05-1.27.09-1.9.04-.52.05-1.09.73-1.22.59-.11,1.04.17,1.33.65.22.36.38.76.5,1.16.62,2.1,1.66,4.74,3.59,4.79,1.56.04,2.63-2.72,3.56-4.52.36-.69.17-2.04,1.23-1.92,1.12.13,1.07,1.39,1.16,2.33.09,1.05.17,2.11.26,3.16l.08,1.29c-.09,1.22-.18,2.44-.27,3.66Z"/><path class="cls-1" d="M282.62,116c0,2.02.03,4.05-.01,6.07-.02.78.26,1.85-1.1,1.85-1.17,0-1.34-.79-1.32-1.73.13-5.32.25-10.63.36-15.95.02-.79.41-1.23,1.14-1.2.92.03.76.82.83,1.42.34,3.17.49,6.35.11,9.54Z"/><path class="cls-1" d="M478.29,666.69c0,2.65,0,5.3,0,7.96,0,.82-.21,1.5-1.23,1.42-.93-.07-.83-.79-.86-1.41-.28-5.4-.52-10.81-.27-16.22.04-.79.11-1.5,1.18-1.48,1.28.03,1.17.87,1.16,1.77-.04,2.65-.01,5.3-.01,7.95.02,0,.03,0,.05,0Z"/><path class="cls-1" d="M508.61,698.21c4.01-2.62,2.82-4.32,0-5.85-1.68-.92-1.39-2.57-1.01-3.98.45-1.65,1.64-2.69,3.49-2.73,1.63-.04,2.94.38,3.23,2.33-1.69.76-4.49-.91-5.08,1.42-.57,2.25,2.54,1.91,3.66,3.18.92,1.04,2.28,1.91,1.3,3.49-1.06,1.7-2.63,2.54-5.59,2.14Z"/><path class="cls-1" d="M501.1,699.2c-.49-.31-.98-.63-1.48-.94-.13-4.44-.93-8.9.31-13.35,1.2,2.76,1.07,5.69.93,8.54-.13,2.46.61,3.48,3.08,3.42.94-.02,2.5-.22,2.4,1.3-.08,1.22-1.5.84-2.39.94-.94.11-1.9.07-2.85.09Z"/><path class="cls-1" d="M453.9,641.53c0,2.33.02,4.66-.01,6.99,0,.51-.12,1.11-.8,1.16-.73.05-.86-.6-.92-1.07-.61-4.75-.4-9.51-.15-14.27.03-.52.26-1.13.89-1.03.55.09.8.67.81,1.23.02,2.33,0,4.66,0,6.99.06,0,.12,0,.17,0Z"/><path class="cls-1" d="M473.56,641.42c0-2.22-.02-4.44.01-6.67,0-.67-.28-1.61.91-1.62,1.07,0,1.09.83,1.09,1.57.03,4.55.04,9.1.05,13.65,0,.63.01,1.27-.95,1.25-.83-.02-1.11-.47-1.11-1.2,0-2.33,0-4.66,0-6.98Z"/><path class="cls-1" d="M399.97,211.58c1.87.2,2.71,1.32,2.54,2.82-.18,1.57-.9,3.44-2.66,3.48-1.63.04-2.91-1.27-2.77-3.21.13-1.86,1.36-2.72,2.89-3.09Z"/><path class="cls-1" d="M452.93,271.16c-1.67-.13-3.3-.79-3.24-2.45.07-1.79,1.47-3.01,3.5-2.97,1.45.03,2.83.16,2.8,2.18-.04,2.08-1.07,3.12-3.07,3.24Z"/><path class="cls-1" d="M186.43,617.86c-.43,1.14-.37,3.07-1.82,2.87-1.45-.2-3.11-1.3-3.18-3.24-.06-1.51.88-2.24,2.42-2.29,1.9-.06,2.15,1.33,2.58,2.66Z"/><path class="cls-1" d="M243.77,157.13c1.5.11,2.31.87,2.28,2.42-.03,1.38-.72,2.35-2.12,2.03-.93-.22-2.53-.23-2.27-1.96.18-1.21.24-2.64,2.11-2.48Z"/><path class="cls-1" d="M314.25,690.1c1.21.68,1.52,1.69,1.01,2.94-.25.61-.71,1.11-1.4,1.13-.8.03-1.4-.44-1.77-1.13-.66-1.24.46-1.9.95-2.77.4-.06.8-.12,1.21-.17Z"/><path class="cls-1" d="M465.19,266.75c.52,1.29.56,2.43-.96,3.07-.09-.05-.19-.1-.28-.15-1.2-.57-2.59-1.39-2.03-2.78.71-1.75,2.15-.3,3.28-.15Z"/><path class="cls-1" d="M307.83,177.62c.88.33,1.68.51,1.59,1.47-.09.9-.6,1.72-1.54,1.65-.91-.07-1.36-.97-1.36-1.84,0-.86.73-1.12,1.31-1.27Z"/><path class="cls-1" d="M120.59,365.89c-.52-.79-1.18-1.52-1.54-2.37-1.12-2.61.23-4.79,3.05-4.73,2,.04,4.04.28,5.97.78,6.59,1.73,12.56,4.95,18.59,8,1.63.83,2.51,2.22,2.27,4.18-.25,2.02-1.87,2.46-3.38,2.86-5.14,1.38-10.08.19-15-1.27-.78-1.36-1.64-2.68-2.32-4.09-.66-1.38-1.47-2.29-3.14-1.85-.64-.11-1.27-.22-1.91-.33-.86-.39-1.73-.79-2.59-1.18ZM129.65,366.9c3.21,2.52,4.74,2.92,7.8,2.08-2.27-1.74-4.66-2.41-7.8-2.08Z"/><path class="cls-1" d="M285.32,224.95c5.31-.13,7.4,1.34,6.99,4.97-.29,2.54-2.08,3.99-4.18,4.82-4.01,1.59-8.22,2.17-12.52,1.29-2.83-.58-4.63-2.18-4.57-5.24.06-2.85,1.91-4.02,4.47-4.55,3.24-.67,6.5-1.14,9.81-1.28ZM286.8,229.57c-2.88-.27-5.71-.05-8.51.67-.6.15-.85.59-.77,1.19.08.58.57.56.97.56,2.96,0,5.92-.04,8.31-2.42Z"/><path class="cls-1" d="M87.97,344.68c0-.23,0-.47,0-.7.44.03,1.09-.41,1.14.42,0,.15-.56.96-1.14.28Z"/></svg>