<?xml version="1.0" encoding="UTF-8"?><svg id="Layer_5" xmlns="http://www.w3.org/2000/svg" viewBox="0 0 641.93 793.86"><defs><style>.cls-1{stroke-width:0px;}.cls-1,.cls-2{fill:#fff;}.cls-2{stroke:#fff;stroke-miterlimit:10;}</style></defs><path class="cls-1" d="M311.9,217.07c-.38,2.52-2.32,4.7-4.7,5.53-2.95,1.13-5.64,1.94-8.48,3.12-4.53,1.72-9.21-1.03-12.3-4.26-3.44-3.67-6.56-7.86-8.06-12.69-2.05-7.38-1.15-14.49-2.03-21.73-.2-1.7-.6-3.5-.96-5.15-.69-3.46-.34-7.18,1.38-10.44,4.07-7.53,12.66-10.72,20.73-10.87,3.88-.16,7.82.03,11.63,1.17,1.53.5,3.06,1.24,4.23,2.4,0,0-.24-.21-.24-.21,1.86,1.46,5,3.4,6.89,1.02.33-.38.7-.94,1.09-1.29.29-.28.67-.52,1.08-.61.64-.13,1.31.13,1.68.67.23.39.32.78.33,1-.16,3.15-1.39,5.89-2.45,8.75-.13.32-.61.19-.58-.14.13-2.7.65-5.63.3-8.24,0,0-.06-.05.05.2,0,0,.05.07.05.07.33.54,1.12.67,1.64.36.01,0,.03-.02.03,0,0,0-.21.38-.21.38-2.53,5.77-9.27,4.4-13.43,1.33-3.66-1.36-7.77-1-11.67-.76-4.28.44-8.6,1.05-12.14,3.45-4.72,2.82-6.6,7.27-5.29,12.67.68,3.71.65,7.55.6,11.21-.08,6.87-.62,14.09,3.34,20.01,3.14,5.38,8.45,12.73,15.46,9.49,4.18-1.6,10.22-1.34,11.47-6.57.1-.38.67-.2.58.15h0Z"/><path class="cls-1" d="M277.73,225.52c-12.5,10.8-24.96,21.95-38.12,31.99-.45.34-1.14.72-1.64.98,0,0-.08.04-.08.04l-.04.02c.2-.05.44-.2.55-.36-1.33,4.35-1.57,9.08-2.16,13.62-1.14,10.92-1.96,21.91-2.74,32.89-.78,10.98-1.27,22-1.97,32.98,0,0-.22-1.38-.22-1.38,8.24,20.32,15.74,40.94,21.95,61.98.05.16-.05.33-.21.37-.14.04-.28-.03-.35-.15-2.58-4.86-5.02-9.78-7.38-14.73-4.75-9.88-9.19-19.9-13.54-29.96-2.15-5.06-4.26-10.13-6.26-15.25-.17-.43-.23-.9-.2-1.33.44-5.51,1.03-11,1.61-16.49,2.1-18.89,3.84-38.93,7.03-57.62.48-2.21.71-4.43,1.78-6.53.19-.33.57-.72.97-.89,0,0,.15-.07.15-.07,0,0,.02-.01.02-.01l.04-.02c4.44-2.69,10.04-7.12,14.28-10.27,8.76-6.68,17.44-13.49,26.13-20.27.13-.1.32-.08.42.05.1.13.08.31-.04.41h0Z"/><path class="cls-1" d="M316.82,227.93c7.49,3.65,22.28,10.39,29.63,14.23,3.8,4.22,11.34,12.75,15.1,17,0,0,15.04,17.05,15.04,17.05l-.12-.13c.42.34,1.18.85,1.75,1.01,2.3.78,3.39-1.78,4.72-3.23,2.44-3.07,4.85-6.21,7.26-9.34,4.35-5.56,10.85-14.46,14.12-18.4,3.22-5.97,6.65-11.87,9.75-17.84,1.54-2.66,5.36-3.19,6.73.06.99,2.41-.32,4.82-.6,6.9,0,.15-.04.07-.04.13-.09-.02.32.26.85.44,2.19.8,4.66,1.57,5.97,3.79,1.09,1.82.83,3.89.55,5.13-.27,1.34-.65,2.65-1.12,3.94-.95,2.29-1.99,5.14-4.49,6.22-1.91,1.49-3.48,4.13-5,6.19-.09.14-.28.18-.42.09-.12-.08-.16-.24-.11-.37.49-1.2.99-2.4,1.57-3.57.74-1.39,1.41-3.02,2.7-4.17.2-.16.52-.28.56-.35,1.15-1.32,1.65-3.24,2.07-4.97.28-1.6,1.02-4.66.17-5.88-.31-.37-1.03-.73-2.14-1.03-1.67-.52-2.7-.49-4.41-1.75-1.8-1.34-2.09-4.13-1.67-5.96.06-.36.58-2.69.4-2.75.35,1.19,2.1,1.7,3.12.99.23-.16.16-.14.11-.03-.05.09-.13.27-.2.46-2.7,6.19-5.87,11.99-9.21,17.78-4.97,6.15-10.15,12.14-15.24,18.2l-7.69,9.07c-1.59,1.79-2.93,3.8-5.5,4.54-2.92.79-5.62-.43-7.65-2.44-8.08-10.02-20.76-25.33-28.69-35.29-4.79-2.32-21.81-11.81-28.15-15.18-.15-.08-.2-.26-.12-.41.08-.14.25-.2.39-.13h0Z"/><path class="cls-1" d="M262.51,302.56c.03.08.16.11.21.05,0,0-.03.06-.03.06l-.12.25c-1.15,2.71-2.04,5.54-2.93,8.33-1.89,5.98-3.57,12.07-4.73,18.23-.6,3.9-1.44,7.85-.5,11.59,3.99,10.99,7.18,22.22,10.51,33.42,0,0-4.59-.24-4.59-.24,3.48-10.73,6.84-21.83,7.6-33.09-.21-9.56-2.58-20.01-4.1-29.52-.36-2.1-1.03-6.04-1.35-8.12,0,0-.09-.58-.09-.58-.01-.08-.04-.22-.04-.26.02,0,.11-.02.16-.12h0ZM262.66,301.98c.19.13.36.51.46.74.13.32.58,1.28.72,1.62,4.56,11.09,8.35,22.14,10.01,34.2.73,6.58-.87,13.24-2.65,19.48-1.88,6.14-4,12.08-6.39,18.03-.82,2.13-4.06,1.88-4.55-.34-1.47-6.13-2.98-12.26-4.56-18.36-1.29-4.93-2.55-9.88-4.11-14.72-.44-1.27-.6-2.72-.57-4,.27-6.62,2.26-12.66,4.2-18.84,1.75-5.28,3.69-10.48,5.99-15.54,0,0,.51-1.08.51-1.08l.28-.54s.16-.27.16-.27l.04-.07c.08-.15.33-.3.46-.31h0Z"/><path class="cls-1" d="M422.01,265.11c-6.87,13.55-13.86,27.06-22.25,39.78-2.12,2.82-4.18,6.59-7.58,8.2-.35.16-1.04.19-1.47.15-6.52-.87-12.47-3.52-18.51-5.74-6.11-2.56-12.36-4.85-18.01-8.51,0,0-.55-.47-.55-.47-.18-.19-.34-.39-.49-.61-.04-.05-.06-.09-.04-.05.01.02.02.05.04.07.26.37.87.58,1.31.42-1.54,1.36-2.49,3.92-3.05,5.99-1.31,4.67-.11,9.31.65,14.05,3.03,17.43,7.41,34.84,8.83,52.57.18,2.55.21,5.3.06,7.87-1.09,19.95-2.4,40.72-4.73,60.54-.02.17-.17.28-.33.26-.15-.02-.26-.14-.27-.29-.52-10.13-.72-20.24-.79-30.35-.12-9.46.02-22.62.17-32.2-.23-9.27-1.87-18.44-3.12-27.66-1.39-9.98-3.07-19.93-4.55-29.98-.36-2.53-.73-5.01-.95-7.7-.38-4.16.5-8.43,2.36-12.17,1.09-2.32,4.13-6.62,7.18-4.3.31.22.54.62.7.83-.02-.05-.06-.12-.11-.15,1.01.85,2.22,1.49,3.49,2.2,4.35,2.34,8.93,4.45,13.53,6.44,5.67,2.31,11.44,4.99,17.4,6.08,0,0,.36.03.36.03,0-.02-.02.01.04-.01,2.7-1.53,4.48-4.44,6.47-6.92,5.9-8.12,11.08-16.84,16.18-25.5,2.56-4.35,5.07-8.74,7.52-13.15.08-.15.26-.2.41-.12.14.08.19.25.12.4h0Z"/><path class="cls-1" d="M132.88,338.96c-7.26-2.84-15.4-5.98-23.16-5.57-7.46,1.02-14.81,5.33-19.44,11.18-4.76,5.98-5.12,13.81-3.79,21,1.18,6.63,2.79,16.92,10.73,18,.35-.04.47.46.15.58-2.69,1.04-5.83.02-8.1-1.68-6.3-5.02-9.07-14.57-9.65-22.27-.69-16.17,14.59-29.08,29.95-29.82,8.68.41,16.16,4.15,23.59,8.03.3.2.1.68-.27.54h0Z"/><path class="cls-1" d="M133.3,344.38c2.3,6.03,4.39,12.01,5.77,18.37.26,1.17.42,2.61.47,3.83-1.07,7.44,3.88,22.93-5.99,25.98-7.04,1.5-14.02-.52-20.1-4.02-2.79-1.77-6.3-4.62-5.9-8.33.05-.31.5-.34.6-.05,2.21,4.55,11.23,5.55,15.81,6.27,2.67.31,5.79.62,8.31.33.35-.04.5-.06.78-.23,1.27-1.06,1.62-2.94,1.95-4.8.43-2.9.44-6.04.52-9.24.08-1.75.09-3.32.49-5.14.66-4.22-.59-9.15-1.29-13.48-.61-3.1-1.28-6.21-1.99-9.31-.1-.34.45-.53.57-.18h0Z"/><path class="cls-1" d="M122.94,395.13c9.89,2.51,17.83,10.32,22,19.49,1.37,3,2.28,6.19,3.51,9.24,2.27,5.85,5.53,11.28,8.67,16.63,3.22,5.21,6.77,10.12,12.71,12.95.29.1.22.59-.09.59-7.11.49-13.48-4.79-17.55-10.13-6.24-8.08-7.94-18.31-10.94-27.77-3.05-8.93-9.53-16.72-18.45-20.41-.17-.05-.26-.24-.19-.4.06-.14.21-.21.35-.18h0Z"/><path class="cls-1" d="M208.38,471.47c9.1-16.65,20.18-34.16,30.04-50.41,0,0,1.76,3.25,1.76,3.25l-15.76.36c-5.25.13-10.51.34-15.76.51l2.51-1.37c-6.79,11.43-14.66,22.61-22.69,33.23-11.05,14.27-11.46,14.41-2.98-1.9,6.28-11.74,13.12-23.57,20.65-34.53.54-.89,1.53-1.41,2.51-1.37,9.18.32,22.31.71,31.62.88,1.61,0,2.6,1.96,1.66,3.25,0,0-16.61,24.13-16.61,24.13-2.74,3.98-9.8,14.24-12.42,18.13-1.35,2.01-2.79,4.05-3.97,6.08-.07.17-.27.27-.44.16-.13-.08-.18-.25-.12-.39h0Z"/><path class="cls-1" d="M86.49,387.21c-4.45,6-23.08,29.62-21.32,35.92,2.22,9.93,5.87,19.57,9.35,29.14,2.75,7.11,5.48,14.25,9.1,20.95,8.56,14.13,25.56,20.02,41.36,20.99,12.18,1.03,24.5,1.08,36.74.79,4.02-.23,8.29-.02,12.16-1.11.15-.06.32.01.39.16.05.13,0,.28-.11.36-3.76,2.02-8.05,2.44-12.16,3.31-12.38,2.04-24.81,2.91-37.4,2.47-4.18-.19-8.51-.62-12.74-1.56-13.26-2.93-25.73-11.15-32.4-23.16-6.86-14.64-11.52-30.16-15.72-45.75-.51-2.28-1.21-5.13-1.38-7.49.32-8.41,17.77-28.35,23.68-35.43.11-.13.3-.14.42-.03.12.1.14.29.04.41h0Z"/><path class="cls-1" d="M556.62,375.16c-.15-2.44.92-4.49,1.8-6.64,2.64-5.3,6.72-11.66,13.33-12.02,6.57,0,12.65,3.17,18.77,3.84.95.06,1.57-.09,2.55-.39,6.78-2.13,14.23-5.38,21.46-2.18,4.83,2.22,7.1,7.66,8.94,12.16,1.66,4.24,2.97,8.45,4.53,12.5,1.63,3.93,3.16,8.07,6.76,10.62.28.16.1.64-.22.56-8.41-2.16-12.97-14.32-16.57-21.27-1.54-2.95-2.8-6.39-5.24-8.62-5.12-3.93-12.68-.89-18.5.48-2.39.75-5.39.31-7.69-.46-4.82-1.55-9.2-3.64-14.15-4.35-6.4-1.38-14.5,10.11-15.19,15.68.09.4-.53.53-.59.11h0Z"/><path class="cls-1" d="M608.02,367.48c-5.27,4.05-6.44,10.18-3.69,16.09.4.93,1.12,2.83,1.43,3.79,3.53,10.68.96,24.67-10.17,29.8-2.81,1.33-6.88.8-8.41-2.08-.09-.15-.04-.34.11-.43.09-.05.2-.05.29-.02,1.25.47,2.38.63,3.33.35,3.08-1.03,4.87-4.05,6.63-6.77,3.93-6.4,6.03-12.26,4.34-19.86-.43-2.48-1.45-5.19-1.65-7.7-.61-5.55,2.51-11.26,7.49-13.69.33-.16.62.32.29.52h0Z"/><path class="cls-1" d="M570.84,426.73c-3.99,8.43-8.82,16.63-15.5,23.26,0,0-1.68,1.82-1.68,1.82-7.48,7.85-13.37,17.1-20.93,24.89-4.1,4.17-7.74,8.57-11.8,12.89-.12.13-.32.14-.44.02-.08-.08-.11-.2-.09-.3.88-3.37,2.22-6.55,3.82-9.62,4.52-8.83,12.34-16.62,19.34-23.57,2.94-2.99,6.01-6.04,9.18-8.82,1.81-1.54,3.81-3.26,5.43-5.03,4.56-4.74,8.47-10.22,12.13-15.82.09-.14.28-.19.42-.09.13.08.17.24.11.38h0Z"/><path class="cls-1" d="M595.8,424.27c7.15.8,11.76,7.73,12.67,14.42.82,6.76,1.03,13.24,1.24,20,.45,20.23-5.62,39.68-10.78,58.97-2.86,11.1-6.98,21.83-9.27,33.02-.45,2.59-.53,4.16.02,6.72.34,2.6.25,5.25,0,7.82-.38,3.39-1,6.69-2,9.91-.08.32-.62.25-.59-.1.12-4.92.12-9.82-.73-14.62-.31-1.86-.7-2.71-1.23-4.72-.7-3.77-.12-7.12.37-10.72,2.75-16.51,9.08-32.09,13.96-47.87,5.11-15.67,7.84-31.86,7.41-48.32-.04-3.3.07-6.67-.23-9.82-.51-6.28-4.33-12.86-10.89-14.08-.38,0-.37-.64.05-.6h0Z"/><path class="cls-1" d="M556.34,379.33c.49,3.02.77,6.13,1.44,9.05.09.43.25.87.3.8.41.85.53,1.36.71,1.96.56,2.3,1.55,4.39.56,7.18-.47,1.16-.84,2.01-2.08,2.89.07-.18-.05-.42-.27-.4-.52.05-1.48,1.06-.75,1.57.46.66-.76.94-1.31.73-2.37-.86-2.67-4.3-.92-5.97,0,0,.16-.16.16-.16-.04.01-.08.03-.13.05-.38.26-.4.28-.47.27-.37-1.55.55-3.7.47-5.37,0-.41-.05-.92-.02-1.02-.32-1.03-.23-1.63-.23-2.22.29-3.26,1.03-6.29,1.94-9.39.09-.3.56-.27.6.05h0Z"/><path class="cls-1" d="M440.56,551.68c-1.77-3.25-1.35-7.09-1.22-10.62,0,0,.66-10.62.66-10.62.21-6.02.26-12.34-1.91-18.01-.44-.87-.88-1.91-1.75-1.87-.45.09-1.31.96-1.82,1.28-1.92,1.29-3.99,2.2-6.07,3.16-6.53,3.06-22.77,9.14-29.64,11.98-3.78,1.5-7.32,3.11-10.83,4.91-1.33.67-2.98,1.02-4.47,1.1-9.62.1-17.59-6.88-24.03-13.19-1.31-1.36-2.64-2.72-3.76-4.27-2.82-3.93-1.22-9,1.64-12.24,5.39-6.31,12.99-10.16,19.86-14.47.71-.45,1.46-.93,1.93-1.32l2.7-.27c6.51,1.06,13.64-4.87,18.37-9.31,3.36-3.14,6.61-7.15,9.67-10.62,10.95-12.59,24.2-22.83,38.59-31.07,4.35-2.49,8.81-4.82,13.52-6.64,5.05-1.94,10.92-1.58,15.86.14,12.92,4.6,22.23,15.81,27.09,28.15.06.16-.02.33-.17.39-.14.05-.3,0-.37-.14-5.99-10.99-15.64-21-27.74-24.47-2.92-.78-5.93-1.05-8.77-.63-2.99.4-5.64,1.81-8.29,3.2-5.6,3-11.07,6.39-16.32,10.05-10.5,7.33-20.33,15.62-28.89,25.01-3.71,4.18-7.85,8.77-12.24,12.45-5.83,4.71-14.71,10.89-22.58,7.9,0,0,2.7-.27,2.7-.27-.92.7-1.69,1.15-2.49,1.63-6.6,3.91-13.89,7.39-19.07,13.07-4.13,4.91-2.07,6.94,1.68,10.93,5.59,5.71,12.63,12.32,20.96,12.53,0,0,1.13-.08,1.13-.08.69-.17,1.51-.31,2.11-.64,13.31-6.33,27.44-10.2,40.98-15.85,1.97-.84,4.02-1.68,5.81-2.8.31-.25.65-.42,1-.73.82-.85,2.63-1.17,3.6-.32,4.27,3.87,3.67,15.94,3.33,21.39-.3,3.54-1.34,12.4-1.29,15.87,0,1.75.3,3.46,1.08,5.01.07.15.01.33-.13.4-.15.07-.33.01-.4-.13h0Z"/><path class="cls-1" d="M428.98,551.84c-16.6-2.68-47.26-7.15-62.23.44-1.16.7-2.36,1.57-3.17,2.62-1.45,1.81-3.02,4.45-4.29,6.45-11.56,19.53-21.25,40.33-30.06,61.23,0,0-.49,1.36-.49,1.36-1.18,3.96-3.84,8.04-5.28,11.71-2.7,5.85,4.12,7.98,8.65,9.67,7.95,2.9,16.02,5.58,24.25,7.84.16.04.27.21.22.37-.04.14-.17.23-.31.22-4.31-.24-8.56-.88-12.81-1.62-4.23-.77-8.44-1.69-12.61-2.78-7.94-1.71-15.96-5.88-12.77-15.49,1.37-4.35,3.56-7.61,4.76-11.81,2.12-6.19,5.07-12.1,7.94-17.92,7.9-15.27,15.86-30.39,25.21-44.86,1.87-2.64,3.68-5.84,6.13-8,4.43-3.68,10.55-4.77,15.9-5.34,17.29-1.27,34.32,1.66,51.08,5.33.16.04.26.2.22.36-.04.16-.19.26-.35.23h0Z"/><path class="cls-1" d="M490.75,416.25c4.37-10.22,8.87-20.43,14.11-30.26,1.54-2.6,2.83-5.62,5.28-7.65,0,0,.27-.18.27-.18l.1-.08c.12-.12.32-.17.39-.32,1.48-2.21-.17-5.48-1.24-7.78,0,0,2.35.42,2.35.42-7.88,6.61-14.69,2.78-16.29-6.76-1.37-6.56-1.81-13.13-1.85-19.79.02-5.03.23-10.1,1.39-15.09.47-1.89,1.21-4.01,2.6-5.49,4.12-4.58,8.55-10.41,15.49-13.4,3.46-1.51,7.35-2,11.08-1.53,2.5.3,5.42,1.24,7.76,2.16,10.41,4.35,20.39,13.89,20.18,25.93-.11,3.51-1.31,6.84-2.57,10.05-1.19,3.06-2.43,6.11-3.96,9.06-1.59,2.84-3.17,6.34-6.36,7.69-.16.05-.33-.04-.38-.19-.05-.15.02-.3.16-.36,2.55-1.81,3.4-5.22,4.5-8.03,1.02-3.02,1.88-6.13,2.67-9.24.72-2.9,1.63-5.93,1.41-8.92-.8-11.61-13.55-20.08-24.24-21.99-9.4-1.49-16.09,5.89-22.08,12.3-1.45,1.63-2.08,5.26-2.46,7.68-1.26,9.31-1.21,19.18.3,28.41,1.05,7.11,4.5,9.93,10.74,5.15,2.33-1.47,2.97,2.38,3.55,3.86.7,2.42,1.15,5.7-.89,7.68-.32.38-.77.57-1.17.84-.45.3-.82.73-1.23,1.22-5.18,7.05-9.02,15.17-13.1,22.92-2.02,3.95-4.01,7.92-5.95,11.92-.07.15-.25.21-.4.14-.14-.07-.21-.24-.15-.39h0Z"/><path class="cls-1" d="M432.27,363.86l-2.21,1.45c-8.88,5.23-9.22,17.03-6.44,25.88,2.87,10.41,10.15,18.92,12.05,29.71.65,7.14.61,14.31.43,21.49,0,0-2.74-1.65-2.74-1.65,9.97-5.92,19.97-11.98,31.07-15.64,7.31-2.4,15.15-.14,22.03,2.22.9.32,2.25.7,2.72.75-.03.03-.6-.03-1.27.71-.25.26-.34.58-.44.84-.02.05-.01.21-.03.12,0-.47-.23-1.37-.34-1.94-3.05-11.9-7.14-23.96-7.98-36.38-.13-1.62-.19-3.44-.45-5.04-1.09-9.68-6.45-19.09-15.89-22.46-4.85-1.58-9.95-2.78-15.13-2.15-5.12.36-10.7-.24-15.39,2.08h0ZM431.94,363.36c4.75-2.61,10.4-2.22,15.59-3.06,5.34-1.08,10.8-.52,16.16.56,7.47,1.64,13.92,7.05,17.39,13.84,2.67,5.05,3.76,10.63,4.16,16.24.87,8.55,2.83,16.97,4.9,25.34.94,4.48,2.54,8.93,2.74,13.71.02,2.02-1.69,3.43-3.2,3.44-2.82,0-4.9-1.26-7.38-2.05-6.34-2.36-12.52-3.67-19-1.14-9.75,3.43-19.03,8.5-28.05,13.59-.86.53-2,.24-2.5-.64-.18-.32-.26-.67-.23-1.01.22-3.47.33-7,.38-10.51,0-3.41.08-7.04-.19-10.44-.72-6.77-4.51-13.13-6.95-19.53-4.86-11.53-8.33-28.82,4.01-36.87,0,0,2.21-1.49,2.21-1.49h0Z"/><path class="cls-1" d="M63.42,387.19c-3.8-5.49-3.74-13.65-9.59-17.6-3.26-2.21-7.86-.98-11.59-.94-5.53.3-11.05.5-16.31,1.47-4.05.87-8.84,2.01-10.26,6.16-.42,1.71-.55,3.38-1.17,5.11-.63,1.76-1.58,3.57-2.52,5.04-1.75,2.61-2.91,5.03-2.16,8.08.21,1,.76,2.52,1.15,3.5,3.5,7.34,7.37,14.66,11.46,21.69,3.59,6.02,3.67,13.14,3.39,19.92-.02.37-.13.73-.29,1.04-2.89,5.52-7.02,13.06-9.49,18.71-1.57,4.24-4.23,8.49-6.42,12.41-.75,1.42-1.71,2.89-2.07,4.43-.03.16-.19.27-.35.24-.14-.03-.24-.15-.24-.28-.01-1.8.6-3.4,1.11-5.06,1.61-4.74,3.46-9.38,4.66-14.22,2.09-6.54,4.79-12.6,7.61-18.81,0,0-.3,1.16-.3,1.16-.16-5.44-.29-11.83-2.98-16.52,0,0-.99-1.84-.99-1.84-3.28-6.23-5.96-12.59-8.84-19.02-1.86-4.28-3.34-9.46-1.19-13.91,1.88-3.77,4.76-6.55,5.38-10.62.25-1.15.51-2.44,1.1-3.48,4.92-8.93,21.03-7.41,29.66-7.66,0,0,4.13-.03,4.13-.03,9.04-.84,12.73,5.19,14.78,13.02.8,2.59,1.35,5.37,2.82,7.66.2.33-.23.65-.48.35h0Z"/><path class="cls-1" d="M42.52,453.46c12.47,7.29,25.76,16.5,33.09,29.28,1.43,2.65,2.55,5.59,2.94,8.63,0,0,2.46,17.57,2.46,17.57.83,5.84,1.66,11.69,2.93,17.37.65,2.8,1.42,5.7,2.71,7.88.82,1.2,1.54,2.99,1.96,4.24.43,1.09,1.47,1.55,2.52,2.12,2.47,1.24,5.29,2.25,8.03,3.26,19.42,7.09,39.48,11.86,59.4,17.43,5.61,1.48,11.14,3.51,16.9,4.39,2.84.48,5.71.66,8.91,1.35,3.21.63,6.19,2.27,8.42,4.7,3.39,3.89,5.14,8.35,7.06,12.81,1.68,4.17,3.91,8.02,5.56,12.21,3.1,8.45,5.84,16.79,8.55,25.36,1.33,4.27,2.65,8.55,3.77,12.89.27,1.22.84,3.22,1.06,4.58.25,1.35-.43,2.65-1.58,3.25-6.13,3.46-12.84,7.1-18.35,11.3,0,0-.87.74-.87.74,0,0-.31.31-.31.31-1.32,1.69-3.63,2.14-5.42,1.07-2.57-1.58-3.86-3.94-5.44-6.25-4-6.36-7.25-12.95-10.96-19.38-5.25-9.15-13.5-18.51-19.51-26.05-8.39-6.85-18.74-12.81-29.91-12.52-.17.01-.32-.12-.32-.29,0-.16.11-.29.26-.31,11.65-1.42,23.05,3.98,32.24,10.76,7.57,8.22,15.45,16.36,21.47,25.85,3.94,6.21,7.46,12.77,11.47,18.82,1.02,1.45,2.16,3.23,3.48,4.21-.03-.01-.08-.07-.44-.12-.48-.11-1.35.22-1.66.64,0,0,.28-.31.28-.31l.64-.7c6.27-5.5,13.28-9.18,20.37-13.26,0,0-1.58,3.25-1.58,3.25-1.22-5.51-2.92-11.29-4.52-16.72-1.67-5.63-3.48-11.24-5.24-16.87-1.66-5.68-3.63-11-6.17-16.3-2.32-5.14-4.12-11.39-7.65-15.66-.19-.17-.76-.78-.96-.96-.91-.78-1.86-1.4-3.02-1.81-3.25-1.19-6.72-1.29-10.42-2.01-5.94-1.01-11.55-3.17-17.32-4.81-19.8-5.92-39.99-11.11-59.33-18.57-3.49-1.44-7.25-2.58-10.44-4.93-1.4-.93-1.99-3.02-2.47-4.43-1-2-2.23-4.12-2.72-6.2-2-7.23-2.71-14.72-3.63-22.07,0,0-2.04-17.61-2.04-17.61-.29-2.84-1.25-5.55-2.56-8.12-4.07-7.78-10.62-13.96-17.4-19.47-4.6-3.67-9.45-7.05-14.52-10.05-.15-.08-.2-.27-.11-.42.08-.14.26-.19.4-.11h0Z"/><path class="cls-1" d="M248.68,234.53s-.66-94.55-.66-94.55c0-.53.42-.96.95-.96,0,0,91.41-.61,91.41-.62,57.86-.29,214.32-1.18,274.2-1.52,1.72-.01,3.11,1.39,3.1,3.1.02,34.08-.15,68.16-.54,102.24-.38,32.04-.95,70.24-1.76,102.28,0,.43-.37.77-.8.76-6.15-.13-12.3-.32-18.45-.5-.17,0-.3-.14-.29-.31,0-.16.13-.29.29-.29,6.15-.18,12.3-.37,18.45-.5,0,0-.8.8-.8.8-.81-32.04-1.39-70.2-1.76-102.24-.39-34.08-.56-68.16-.54-102.24,0,0,3.1,3.1,3.1,3.1-60.55-.34-215.66-1.24-274.2-1.52,0,0-91.4-.62-91.4-.62,0,0,.96-.96.96-.96,0,0-.66,94.55-.66,94.55,0,.17-.14.3-.3.3-.16,0-.3-.13-.3-.3h0Z"/><path class="cls-1" d="M354.1,344.17c20.65-.87,43.31-1.61,64.05-2.1,5.34-.13,10.68-.37,16.01-.57,10.69-.4,21.36.04,32.03.86,5.34.42,10.68.95,16.01,1.81.17.03.28.18.25.35-.02.13-.13.23-.25.25-5.34.86-10.68,1.39-16.01,1.81-10.66.82-21.34,1.26-32.03.86-5.34-.2-10.68-.44-16.01-.57-7.97-.18-24.05-.63-32.03-.9-10.68-.4-21.35-.72-32.03-1.2-.17,0-.29-.15-.29-.31,0-.16.13-.28.29-.29h0Z"/><path class="cls-1" d="M347.25,205.67l13.66-14.56c.26-.28.68-.32.99-.12,0,.03,21.46,13.71,21.47,13.74,0,0-1.64.07-1.64.07l54.67-45.65c.96-.8,2.31-.81,3.28-.11,7.8,5.64,15.59,11.31,23.16,17.26,0,0-3.67-.06-3.67-.06,11.55-8,23.27-15.75,35.22-23.14,4-2.45,8-4.89,12.1-7.2.15-.08.33-.03.41.11.07.13.04.28-.06.37-14.13,12.33-29.02,23.74-44.09,34.88-1.12.82-2.62.76-3.67-.06-3.84-2.87-7.64-5.79-11.41-8.75-3.76-2.97-7.49-5.99-11.23-8.99,0,0,3.38-.04,3.38-.04l-56.36,43.55c-.47.4-1.16.41-1.64.07,0,0-20.78-14.68-20.78-14.68l1.02-.1s-14.38,13.85-14.38,13.85c-.12.11-.31.11-.42,0-.11-.12-.11-.3,0-.41h0Z"/><path class="cls-2" d="M602.68,252.94c-.13.35-.26.71-.39,1.06-.14.35-.28.71-.42,1.06-.24.32-.34.68-.4,1.06-.24.31-.36.68-.44,1.06-.11.29-.22.58-.33.87-.96,1.96-1.92,3.93-2.88,5.89-.58,1.05-1.15,2.1-1.73,3.16-.14.21-.29.43-.43.64-.1.15-.21.3-.31.45-2.07,3.11-4.43,6-6.78,8.9-1.01,1.25-2.19,2.36-3.27,3.55-2.22,2.48-4.92,4.39-7.42,6.55-2.26,1.94-4.72,3.64-7.29,5.08-5.72,3.2-11.68,5.93-18.03,7.7-3.34.93-6.72,1.52-10.17,1.94-5.21.63-10.41.66-15.6.13-5.68-.58-11.22-1.83-16.63-3.77-8.17-2.93-15.62-7.15-22.28-12.64-4.61-3.81-8.64-8.26-12.19-13.13-4.38-6.03-7.68-12.6-10.22-19.59-1.74-4.78-2.48-9.74-2.84-14.77-.39-5.46-.02-10.89.75-16.31.23-1.64.9-3.18.96-4.84.19-.71.37-1.42.58-2.12,2.16-7.32,5.13-14.27,9.47-20.59,2.9-4.22,6.35-7.98,9.89-11.66,1.69-1.73,3.76-3.03,5.41-4.81.34-.37.83-.61,1.28-.86.9-.51,1.64-1.2,2.38-1.9.31.06.48-.14.66-.33,2.14-1.13,4.2-2.42,6.32-3.59,5.53-3.05,11.28-5.46,17.45-6.86.96-.22,1.92-.46,2.88-.69.16,0,.35.03.41-.19.92-.14,1.85-.29,2.77-.43.14.06.22,0,.27-.13l.05.03s.05-.03.05-.03c.1.19.19.18.27-.02.14-.02.28-.03.42-.05.37.04.73.05,1.06-.17,2.6-.31,5.21-.43,7.83-.43,2.9.19,5.8.39,8.7.58,4.98.48,9.8,1.67,14.53,3.26,4.78,1.61,9.31,3.75,13.64,6.33,3.56,2.12,6.72,4.77,10.02,7.24,3.38,2.99,6.49,6.24,9.37,9.72,5.14,6.22,9.02,13.17,11.98,20.65,1.93,4.87,3.31,9.89,4.04,15.06.54,3.84.51,7.73.18,11.61-.45,5.2-1.65,10.23-3.23,15.19-.07.23-.11.48-.17.71-.06.14-.11.29-.17.43ZM480.99,228.53c.14,0,.35.08.22-.21.06.03.13.05.19.08,0-.04.01-.07.02-.11-.07,0-.14.02-.2.03-.01.13-.05.24-.22.21,0,.15-.07.22-.22.2,0,.15-.04.25-.22.22.01.07.03.14.04.21.01-.01.04-.03.03-.04-.02-.06-.05-.11-.08-.17.07-.07.14-.14.22-.22.23.08.3.02.22-.21ZM479.25,230.82h-.07s.05-.03.04-.03c.09-.05.17-.11.26-.16.3-.29.59-.58.88-.87-.03-.08-.05-.16-.08-.23l-.08.06.2.17c-.57.02-.93.25-.91.88-.06-.02-.12-.04-.17-.06-.02.08-.04.17-.06.25ZM491.67,232.01c-.07-.15-.11-.37-.3-.08.33-.2-.02-.42,0-.62-.25-.02-.33-.53-.69-.25.3-.21-.03-.42,0-.63-.15.02-.21-.04-.19-.19-.19,0-.39-.01-.58-.02-.06-.1-.12-.21-.17-.31-.11-.24-.37-.03-.51-.17-.25-.27-.58-.14-.87-.16-1.07-.39-2.15-.76-3.21-1.17-.66-.26-1.31-.53-2.28-.38,1.98.54,3.63,1.39,5.5,1.56.3.03.63-.09.88.17.22-.12.33.15.52.14.05.11.1.22.15.33.2,0,.39.02.59.03-.01.09-.16.14-.03.26.15.14.15-.06.23-.08-.15.21-.01.43,0,.64.28-.06.29.67.7.25-.42.2-.03.4,0,.59.1.03.15.23.3.09,0,.08-.03.17,0,.24.06.15.13,0,.2-.01-.22.26,0,.35.18.45.44,1.19,1.31,1.84,2.53,2.09,1.95.4,3.01,1.66,3.36,3.57.07.42.1.84.16,1.32.39-.37.49-.72.44-1.19-.18-1.77-1.03-3-2.73-3.65-1.34-.51-2.7-1.05-3.61-2.26-.12-.1-.23-.21-.35-.31,0-.14-.06-.22-.2-.22ZM468.96,224.88c.05.09.14.18.21.08.08-.11-.03-.15-.13-.16-.04-.1-.07-.2-.11-.3-.71-1.04-1.03-2.25-1.57-3.37.18,1.29.37,2.56,1.41,3.51.06.08.12.16.18.24ZM525.12,211.91c.14,0,.21-.07.21-.21.14,0,.21-.07.22-.2.14-.01.2-.08.2-.22.24-.19.69-.28.35-.74.07.03.17.11.21.09.16-.1.05-.2-.04-.3.23.18.32.1.29-.17.03,0,.06,0,.09-.01,0,0,0-.01,0-.02-.02.02-.04.04-.06.06-.1.05-.2.09-.3.15-.06.07-.12.14-.18.21-.14.2-.28.41-.42.61-.09.07-.18.14-.27.21-.06.07-.11.14-.17.21-.07.07-.14.14-.21.21-.08.07-.16.15-.24.22-.83.66-1.51,1.47-2.14,2.32-.55.74-.92,1.56-.92,2.52,0,1.51.1,3.05-.09,4.54-.4,3.15.47,5.94,1.9,8.68.94,1.81,2.23,3.23,3.82,4.44.5.38,1.06.66,1.74.68,1.65.05,3.36.14,4.88-.51,2.36-1.01,4.41-.51,6.49.71.98.57,1.49,1.26,1.19,2.4-.59,2.23.01,4.23,1.18,6.12.15.24.26.5.39.75,1.36,2.63,1.78,5.35,1.03,8.26-.32,1.24-.5,2.54-.13,3.85,1.08,3.79,1.64,7.72,3,11.45.28.76.74,1.18,1.51,1.27,1.76.18,3.49.11,5.08-.81,1.52-.6,2.71-1.67,3.91-2.72-.11-.18.34-.34.01-.53.5-.04.61-.29.4-.72.07.03.05.24.19.11.05-.05.05-.16.07-.24.13.13.21-.04.32-.06.01-.09.02-.18.03-.27l-.14.05c.04.08.07.16.11.23-.17-.29-.23-.09-.31.07-.09.04-.19.08-.28.12-.12.24-.25.48-.37.73-.16.16-.47.31-.03.5-.16-.31-.34-.15-.48,0-.85.91-1.89,1.56-2.96,2.17-.2.11-.57.18-.45.58-.31-.25-.64-.09-.89.04-1.19.6-2.45.54-3.72.48-.58-.02-1.19-.18-1.38-.79-.45-1.45-.96-2.9-1.2-4.39-.37-2.36-.65-4.72-1.59-6.93-.59-1.39-.66-2.73-.28-4.19.74-2.85.59-5.65-.87-8.28-1.3-2.34-2.34-4.73-1.83-7.51.12-.67-.1-1.34-.67-1.68-1.32-.78-2.65-1.59-4.17-1.95-1.49-.35-2.77.42-4.12.84-1.88.58-3.71.82-5.53-.4-1.64-1.09-2.98-2.39-3.66-4.23-.63-1.71-1.55-3.33-1.53-5.27.02-2.25-.1-4.51-.18-6.76-.04-1.13.24-2.14.8-3.12.53-.92,1.47-1.49,1.97-2.43.14,0,.2-.09.2-.23ZM572.13,209.78c-.19.19.02.23.12.3.42.65,1.07,1.07,1.62,1.59.11.11.01.16-.1.17-.03,0-.06-.04-.09-.05-.06,0-.13,0-.19,0,0,0-.01.03-.02.05.07-.02.14-.05.22-.07-.15.84.58,1.21.96,1.76.72,1.02.79,1.02,1.9.58-.98-.54-2.08-.93-2.65-2.24,1.34.41,2.22,1.44,3.5,1.66-.78-.48-1.5-.99-2.28-1.37-1.1-.53-1.66-1.7-2.79-2.17,0-.15-.1-.19-.23-.2-.05-.04-.1-.09-.15-.13,0,.03-.03.07-.02.09.05.1.12.1.19.02ZM556.78,265.56c-.09,0-.19-.05-.26-.01-.17.07.02.15.02.23-.08-.02-.13-.14-.25-.04-.13.12.02.16.03.24-.09,0-.15-.14-.26-.01-.13.15.05.16.07.24-.06-.03-.12-.06-.18-.08,0,0-.03.02-.05.03.07.02.15.03.22.05.06-.08.11-.16.17-.25.08-.06.15-.13.22-.2.05-.11.1-.22.25-.2.06-.07.12-.14.17-.21,0-.3.57-.34.34-.75.06.02.11.04.17.07.01-.09.03-.18.04-.27.35.09.38-.18.44-.41.54-.43.8-1.12,1.44-1.46,1.19-.64,1.71-1.69,1.71-3,0-1.16.47-2.12,1.3-2.9.54-.5,1.1-1,1.71-1.41,2.33-1.54,2.79-3.76,2.34-6.29-.49-2.78-.13-5.26,1.97-7.39,1.53-1.55,2.88-3.27,4.25-4.97,1.7-2.11,2.49-4.57,2.64-7.26.05-.82-.33-1.18-1.12-1.13-.84.05-1.69-.03-2.48.36-.17.08-.42.23-.51-.06-.06-.2.12-.55-.32-.41-.26.08-.32.34-.38.58-.05.21.33.45-.05.63-1.57-.31-2.17-1.62-2.76-2.84-.82-1.68-1.46-3.44-2.06-5.22-.94-2.79-2.59-5.27-4.22-7.72-.4.24-.09.49-.02.64,2.21,4.64,4.28,9.35,6.78,13.85.31.56.73,1.02,1.33,1.32.35.17.64.2.94-.04.96-.36,1.95-.61,2.99-.66.98-.05,1.38.46,1.33,1.33-.1,1.65-.42,3.25-1.35,4.68-1.03,1.58-2.3,2.95-3.62,4.27-2.94,2.96-4.67,6.22-3.78,10.6.45,2.24-.41,4.21-2.43,5.57-1.64,1.1-2.74,2.6-3.05,4.62-.16,1.04-.68,1.9-1.51,2.58-.54.45-1.05.96-1.06,1.76-.38-.12-.39.15-.43.4-.15,0-.21.08-.22.21-.23.19-.64.3-.35.73-.07-.03-.18-.11-.21-.09-.16.12-.04.21.05.3ZM555.31,266.4s0,0,0,0c.08.04.13.25.25.04-.08,0-.17-.02-.25-.03ZM537.08,199.32c.07-.08.13-.17.2-.25.82-.85,1.78-1.47,2.93-1.78.2-.05.33-.09.25-.32.23.21.47.07.7-.05-.23.02-.47.04-.7.06-1.35.26-2.57.73-3.29,2.01-.14,0-.21.07-.22.21-.14,0-.2.08-.22.21-.6.43-1,.99-1.09,1.77.42-.55.84-1.09,1.25-1.64.06-.07.12-.14.18-.21ZM493.66,197.42s0,.01,0,.01c-.08-.04-.16-.08-.24-.12-.01.03-.02.07-.03.1.09,0,.18,0,.27,0ZM498.7,283.38l-.27-.05c.03.05.05.13.09.15.13.06.16-.05.2-.14-.03.07-.11.15-.09.2.06.14.19.1.3.07,0,.07-.16.15,0,.21.07.02.16-.01.24-.02-.05.13-.05.24.08.32,1.31,1.17,2.85,1.87,4.54,2.26-1-.59-2.01-1.15-3.06-1.64-.49-.23-.87-.77-1.51-.6.22-.16-.04-.22-.08-.32-.08-.06-.16-.12-.25-.17-.06-.09-.13-.18-.19-.26ZM491.6,190.01c.15.06.28.09.26-.15.2.03.28-.04.18-.24.24.03.28-.06.17-.26,1.19-.08,1.89-.98,2.74-1.63-.05-.04-.11-.08-.16-.11.71.35.85-.3,1.17-.65.11-.12.22-.24.32-.36.04-.09.08-.17.12-.26.05-.09.11-.17.16-.26.11-.12.21-.23.32-.35.15-.21.31-.41.46-.62.05-.05.1-.1.15-.15.07-.08.15-.16.22-.25.15-.14.29-.27.44-.41,1.32-.7,2.33-.28,2.91,1.22.09.23.19.48.48.49.4,0,.19-.38.32-.55.08-.22.16-.43.24-.65.31-.22.37-.82.96-.62.47.16.75.4.79.97.02.23.13.49.12.77-.04,1.28.09,2.5,1,3.52.24.26.32.64.2,1-.34.98-.34,2-.4,3.02-.1,1.85-.72,2.53-2.53,2.99-.4.1-.81.26-1.17.47-1.87,1.06-3.88,1.8-5.9,2.45-2.98.96-5.42,2.65-7.22,5.18-1.44,2.03-3.07,3.86-4.98,5.43-1.24,1.03-1.91,2.32-2.06,3.9-.06.6-.18,1.19-.5,1.71-.62,1-1.45.96-1.99-.08-.29-.55-.29-1.15-.28-1.75,0-.28.24-.67-.19-.83-.32-.12-.63.01-.86.26-.49.53-1.1.75-1.7.33-.95-.67-1.53-.13-2,.56-.9,1.32-1.49,2.79-1.6,4.4-.05.7-.43,1.7.27,2.01.84.37,1.17-.67,1.58-1.24.46-.65,1.05-.85,1.74-.55.72.31.76,1,.6,1.63-.19.78-.47,1.54-.8,2.27-.21.48-.21.72.32.96,1.02.47,1.35,1.39,1.32,2.44-.02.6-.11,1.19-.15,1.79-.11,1.95.02,2.04,1.94,1.87.6-.05.81-.49,1.13-.84,1.62-1.81,2.92-2.7,5.64-1.48,1,.45,2.03.89,3.1.95,1.46.09,2.44.79,3.18,1.94,1.13,1.76,2.55,3.08,4.61,3.79,1.62.55,2.76,1.75,3.1,3.57.25,1.34,1.03,2.26,2.35,2.74,1.93.71,3.84,1.46,5.76,2.19,2.06.78,3.24,2.3,3.58,4.43.22,1.37-.55,2.51-1.12,3.67-.57,1.17-1.04,2.36-1.17,3.69-.13,1.33-.32,2.66-.6,3.96-.33,1.52-1.16,2.72-2.72,3.21-1.13.36-1.6,1.14-1.69,2.25-.08.95-.11,1.9-.23,2.84-.27,2.08-.36,4.24-2.14,5.78-.09.08-.18.26-.16.37.22.89-.34,1.42-.91,1.88-.81.66-.87,1.47-.44,2.26.8,1.51,1.35,3.15,2.4,4.55,1.02,1.36,1.49,3.09,2.88,4.23.38.31.58,1.06-.09,1.32-.52.2-1.16.4-1.75.18-2.25-.85-4.42-1.86-6.08-3.67-2.47-2.68-4.15-5.93-6.11-8.96-2.05-3.17-3.12-6.85-3.87-10.55-.75-3.75-1.86-7.14-4.93-9.82-2.81-2.46-4.41-5.89-5.55-9.44-.57-1.79-.62-3.63.2-5.45.9-2,1-4.16.87-6.32-.03-.43-.08-.72-.67-.52-1.48.5-2.83-.08-3.47-1.3-1.66-3.19-5.02-4.75-7.02-7.76-.25.99-.02,1.85-.05,2.71-.19,4.47-.28,8.95.51,13.38.95,5.38,2.09,10.69,4.23,15.76,2.73,6.47,6.33,12.4,10.81,17.81,2.8,3.38,6.01,6.38,8.88,9.69,1.2,1.39,2.49,2.68,3.96,3.79,3.53,2.68,7.44,4.71,11.39,6.65,2.19,1.08,4.42,2.12,6.86,2.58,2.26.86,4.54,1.64,7.02,1.49h2.92c-1.07-.71-1.97-1.14-2.07-2.25-.11-1.2.87-2.16,2.41-2.72,2.51-.92,5.17-.54,7.69-1.07,1.65-.35,3.27-.32,4.91-.41,1.76-.09,3.5-.19,5.14-.97.63-.3,1.36-.31,2.07-.34,1.16-.05,2.31-.12,3.46-.3,1.06-.17,2.17-.24,3.24-.14,1.14.1,2.28.02,3.35-.22,3.53-.79,7.08-.91,10.67-.75.87.04,1.29.48,1.48,1.26-.33.59-.67,1.18-1,1.77-.6-.07-1.13.24-1.69.34-.75.14-1.47.62-2.27.25l.97-.99c.56.14.48-.64.93-.64.01-.44.4-.41.62-.38.41.06.32-.4.6-.46.07-.02.06-.07.06.07-.03-.01-.08-.02-.1-.04-.12-.15-.07-.44-.37-.43-.91.04-1.78-.28-2.72-.15-3.64.51-7.28,1.06-10.97,1.18-3.08.1-6.13.5-9.18,1.12-3.86.79-7.85.95-11.78,1.36-.9.09-1.81.07-2.78.53.43.28.73.16,1.03.17,2.66.05,5.23-.67,7.85-.92,2.71-.25,5.43-.27,8.13-1,2.84-.77,5.83-.92,8.79-.9.63,0,1.28.05,1.9-.05,2.78-.45,5.58-.57,8.39-.66.42-.01.72.03.54.57-1.12-.09-2.19.19-3.27.4-1.7-.18-3.37.19-5.04.4-2.76.34-5.55.14-8.32.6-1.87.31-3.69.89-5.57,1.08-5.11.52-10.22,1-15.33,1.5-1.41.14-1.48.29-.73,1.41.45.67.96,1.3,1.4,1.98.21.32.44.52.81.59,3.42.68,6.86,1.18,10.37.96,3.1-.2,6.04-1.18,9.06-1.72,3.64-.66,7.04-2.14,10.53-3.32,1.18-.4,2.35-.91,3.42-1.6,1.62-.19,3.19-.58,4.68-1.26.51-.26,1.07-.42,1.46-.87.47.05.83-.2,1.13-.49,1.49-1.43,3.29-2.46,4.84-3.78,2.53-2.17,5.24-4.1,7.67-6.42,3.4-3.24,6.58-6.61,9.22-10.5.33-.05.4-.34.51-.58.05-.07.09-.14.14-.21,3.62-4.36,6.06-9.38,8.09-14.61,1.54-3.97,2.55-8.03,2.34-12.33-.12-2.39-.27-4.78-.38-7.17-.02-.42-.12-.97.21-1.21.75-.56.48-1.2.34-1.88-.13-.62-.22-1.25-.26-1.88-.19-2.94-.95-5.76-1.99-8.5-.12-.3-.13-.83-.47-.84-.43-.02-.75.4-.9.79-.98,2.51-2.54,4.83-2.62,7.66-.18.34-.73.32-.76.8q-1.51.37-2.13-1.26c-.59-1.53-1.1-3.08-1.39-4.7.24,1.87.56,3.71,1.26,5.48.66,1.67,1.02,1.76,2.24.46.3-.05.53-.32.87-.25.41.56.98,1.03,1.09,1.77.12.78-.13,1.39-.88,1.73-.77.36-1.05-.27-1.44-.7-.2-.22-.15-.67-.51-.71-1.66-.19-2.04-1.51-2.54-2.76-1.51-3.81-2.88-7.68-5.01-11.23-.53-.89-1.17-1.35-2.17-1.36-.12-.12-.26-.17-.42-.12-.28-.03-.56-.05-.84-.08-.77-.28-1.58-.31-2.41-.36.48.32.73.83,1.14,1.18.64,1.2,1.07,2.38.61,3.81-1.08,3.33-3.42,5.29-6.59,6.45-.27.1-.85.06-.72.56.1.38.55.13.83.11,1.37-.09,2.02.34,2,1.53-.03,1.69-.29,3.34-.91,4.95-1.22,3.18-3.52,5.58-5.75,8.01-1.88,2.05-2.84,4.2-2.23,7.08.41,1.95.23,4.01-1,5.76-.68.96-1.75,1.51-2.62,2.27-.9.78-1.61,1.63-1.64,2.93-.02.65-.1,1.4-.62,1.87-1.32,1.2-1.93,2.87-2.93,4.27-2.18,3.06-5.13,4.72-8.9,4.84-1.82.06-2.67-.69-3.19-2.4-1.12-3.63-1.97-7.33-2.91-11.01-.3-1.16-.42-2.31-.09-3.53.48-1.73.83-3.47.49-5.31-.4-2.14-1.56-3.91-2.51-5.79-.56-1.11-.81-2.25-.62-3.47q.38-2.49-1.89-3.62c-.31-.16-.66-.26-.96-.44-.69-.42-1.45-.39-2.13-.12-1.5.6-3.03.95-4.65,1.11-1.85.18-3.44-.16-4.89-1.38-2.77-2.32-3.98-5.58-5.35-8.73-.14-.33-.11-.76-.09-1.14.14-2.22.25-4.44.17-6.66-.07-1.88.53-3.46,1.68-4.95.95-1.24,2.21-2.18,3.08-3.46,1.04-1.51,1.85-3.19,3.39-4.3.35-.25.29-.38,0-.66-.84-.83-1.28-1.83-1.14-3.05.09-.81.11-1.62.19-2.42.21-2.04.74-2.52,2.8-2.57,2.8-.07,2.91-.26,1.59-2.78-.03-.06-.05-.13-.08-.19-.42-.8-.22-1.33.65-1.63.31-.11.63-.19,1.04-.31-1.45-.3-1.08-1.72-1.73-2.48-.66.78-1.25,1.75-2.39,1.61-.59-.07-1.02-.67-1.06-1.38,0-.21.01-.43.02-.64.22-.87.95-1.14,1.68-1.41.48-.17,1.04-.26,1.14-.91.19-.19.14-.42.12-.65.04-.13.08-.27.12-.4.08-.21.15-.42.23-.62,1.25-.96,3.21-.62,3.44.7.24,1.4,1.16,2.38,1.77,3.56.08.32-.7.28-.32.67.26.27.57.03.8-.16.18-.15.32-.35.47-.53,1.11-.02,1.56-.56,1.42-1.68-.07-.57-.15-1.18.48-1.79-1.13.28-1.66-.23-1.98-1.02-.35-.86-.48-1.81.23-2.47,1.23-1.15,2.11-2.54,3.1-3.86,1.17-1.56,2.68-2.27,4.61-2.32,2.18-.05,4.09.89,6.09,1.51.97.3,1.89.76,2.92.84.28.02.63.11.78-.15.2-.35-.13-.6-.37-.77-.86-.62-1.16-1.57-.83-2.43.42-1.07,0-1.41-.86-1.7-.07-.02-.11-.14-.17-.23,1.21-.3,2.39-.47,3.59-.38,1.25.09,1.97.76,2.03,1.8-.66.28-1.07,1.01-1.9,1-.28,0-.28.25-.15.46.22.36.49.64.83.91.92.7,2.01.53,3.05.76-.69-.7-.84-1.83-.39-2.7.75-.54,1.62-.39,2.45-.4.81,0,1.63,0,2.44,0-6.5-3.4-13.26-5.88-20.52-6.95-10.38-1.53-20.61-.76-30.75,1.71-2.13.52-4.11,1.49-6.1,2.39.8.13,1.49-.21,2.23-.35,5.67-1.1,11.41-1.16,17.15-1.06,1.03.02,2.07.37,3.09.62.48.12.79.49.84.99.04.38-.16.72-.55.81-1.21.28-1.74,1.22-2.26,2.2-.81,1.52-1.81,2.84-3.51,3.46-1.28.47-2.55.95-3.83,1.42-.23.08-.46.16-.69.25-2.42.98-4.6,2.31-6.48,4.17-1.11,1.1-2.44.99-3.5,0-1.05-.97-1.46-2.86-.89-4.17.5-1.15,1.36-2.04,2.16-2.97.44-.5.88-1.01.95-1.72.05-.51.03-.91-.73-.71-.58.15-1.3.08-1.67-.38-.31-.39-.46-.14-.71-.09-1.18.22-1.91,1.34-3.13,1.51,2.76,3.14,2.09,6.17-1.59,7.32-.16-.06-.05-.65-.44-.22-.02.03-.05.05-.07.08-.13.22.06.07.09.07.14.02.32-.21.42.07-.47.79-1.32,1.11-2.09.79-1.06-.44-1.86-1.24-2.61-2.06-.38-.42-.55-.33-1-.11-1.11.57-2.21,1.25-3.57.93-.32-.07-.82-.08-1.01.1-1.1,1.1-2.55,1.75-3.57,2.92-.43.5-.64,1.03-.09,1.67.32.37.68.82.56,1.42-.17.09-.25.28-.14.38.19.17.19-.14.3-.2.42-.31.86-.61,1.27-.93.91-.71,1.94-1.28,2.49-2.37.58-1.14,1.51-1.9,2.67-2.42,1.87-.84,3.03-.26,3.43,1.77v.7c-.52-.1-.74-.59-1.01-.94-.92-1.17-1.4-1.27-2.86-.42-.23.05-.37.19-.43.42-.07.07-.14.14-.21.21-.06.08-.13.15-.19.23-.25.14-.35.38-.42.64-.2.02-.23.19-.3.33-.05.09-.1.19-.15.28-.07.07-.14.15-.2.22-.1.1-.21.2-.31.31-.33.28-.56.69-1.01.84-.77.71-1.58,1.35-2.56,1.75-.05.09-.11.18-.16.27-.06.08-.12.16-.18.24-.1.05-.2.09-.3.13l.02.05v-.06ZM577.53,178.54c.1.04.2.08.16.22.06,0,.12,0,.17,0,.08.02.25.2.13-.08,0-.02-.2.05-.31.08.04-.06.12-.14.11-.18-.07-.16-.19-.07-.29-.02.18-.18.1-.27-.11-.31-.17-.22-.26-.63-.68-.33.31-.34-.11-.37-.23-.48-.13-.11-.36-.25-.42.1.35-.68-.25-.57-.58-.79,0,.5.5.44.59.74.22.13.44.25.66.38.22.14.34.47.69.35-.12.16.06.21.12.3ZM512.01,178.48c.07-.07.14-.14.21-.21.07-.07.15-.13.22-.2.51-.37,1.05-.7,1.53-1.1.82-.71,1.03-1.9.55-2.78-.57-1.05-1.52-.79-2.4-.74.08.1.18.16.27.14.94-.17,1.65.17,1.85,1.11.19.88.05,1.72-.86,2.26-.41.25-.74.65-1.1.98-.07.07-.13.14-.2.21-.07.07-.13.15-.2.22-.07.1-.21.19-.03.3,0,0,.1-.12.16-.18ZM563.43,177.83c0,.13.07.21.21.22.03.12.05.23.08.35-.06.08-.12.16-.18.23-2.08-.28-4.14-.3-6.19.2,2.32-.38,4.65-.05,7.02.06-.09-.48-.38-.69-.62-.93-.09-.08-.15-.3-.33-.1.1-.2-.04-.21-.17-.22-.05,0-.1.04-.16.06.11.04.23.08.34.12ZM574.21,225.23c.24.13.41.11.42-.22,2.01-.4,4.53-2.57,5.29-5.31.28-1-.03-1.98-.71-2.44.59,2.12.16,3.61-1.39,5.2-.96.99-2.21,1.6-3.18,2.56-.17.01-.37-.02-.41.22-.16.03-.41-.1-.42.21-1.25.05-2.45.63-3.72.47,1.3.51,2.49-.08,3.7-.49.17-.02.41.12.42-.21ZM495.16,194.63c-.05.1-.11.19-.16.29.15.06.25.02.28-.15l.24-.18c.38-.19.77-.37,1.24-.6-.68-.2-1.02.18-1.41.45-.06.06-.13.13-.19.19ZM499.88,279.7c.06.02.13.03.19.05l-.02-.09c-.06.03-.13.05-.19.08.22-.25.09-.4-.15-.52,0-.18.08-.4-.22-.41.09-.22.08-.39-.21-.42.06-.21.11-.41-.21-.42.23-.15.02-.26-.03-.39-.05.02-.13.04-.13.07-.02.15.04.26.19.3.01.17-.04.37.22.42-.03.19-.04.37.21.42,0,.17-.04.38.22.41-.05.2.02.36.15.5ZM587.76,217.84c.04.12.08.23.12.35.02-.03.07-.06.06-.08-.02-.13,0-.29-.21-.24,0-.12-.02-.25-.02-.37-.03,0-.09.01-.09.03-.03.14,0,.26.15.32ZM492.89,179.61c-.22-.04-.46-.22-.59.13-.18-.02-.36-.02-.42.21-.1.04-.21.08-.31.12-.26.15-.62.17-.75.52-.06.05-.13.09-.19.14.03.01.07.04.09.04.12-.03.15-.1.07-.2.4.11.65-.12.88-.4.12-.03.33.01.19-.23.27.17.38.05.42-.22.2-.04.4-.07.59-.11-.02-.07-.03-.13-.05-.2-.03.02-.06.05-.08.07.05.04.1.08.15.13ZM543.76,195.84c-.21-.08-.36-.01-.45.19-.36.03-.65.18-.79.51-.02.06.15.2.23.3.19-.21.36-.42.56-.61.09-.09.08-.16,0-.23.25.19.35,0,.44-.18.1-.04.2-.09.3-.13-.03-.02-.06-.05-.08-.04-.12,0-.27,0-.19.2ZM484.39,253.48l.03-.02s-.05,0-.05,0c0-.19.01-.38.02-.58-.84-1.07-1.68-2.13-2.52-3.2.44,1.27,1.25,2.26,2.09,3.23.12.14.31.15.44-.04-.41.19.02.4-.02.59ZM485.29,206.37c-.16.1-.43.25-.21.43.21.17.28-.18.42-.3.06-.03.11-.07.14-.14.32-.28.61-.59.77-1,.52-.49.95-1.05,1.26-1.7.21-.07.23-.2.12-.37-.09.08-.18.15-.27.23-.55.46-.86,1.11-1.27,1.68-.25.31-.5.63-.75.94-.07.07-.14.15-.2.22ZM478.77,244.28c.02.12.04.25.07.37.04-.03.11-.06.11-.1.01-.14-.03-.25-.2-.25-.01-.13-.03-.26-.04-.4-.03.02-.1.04-.1.07,0,.13-.01.27.17.31ZM556.46,179.33c.18-.05.44-.14.32-.33-.09-.14-.31.1-.46.2-.07.09-.24.17-.04.28.02.01.12-.1.19-.15ZM495.69,279.65c0-.19-.09-.3-.26-.37-.02,0-.09.09-.09.09.1.1.06.43.36.25-.09.37.03.6.43.65-.2.37.19.51.29.77.14.21.28.42.42.63.21.29.43.58.64.87.09.08.19.22.29.03.01-.02-.11-.12-.17-.18-.13-.34-.31-.65-.62-.86-.05-.27-.19-.49-.44-.62-.05-.28-.16-.51-.44-.62-.02-.29-.16-.51-.43-.63ZM500.74,281.16c.07.08.06.28.26.15,0,.95.64,1.6,1.08,2.34.08.13.25.03.35-.06-.15,0-.28.04-.2.24.02.06.09.1.14.15.02-.13.04-.26.06-.39-.62-.66-.73-1.65-1.44-2.25-.03-.16-.06-.33-.27-.14.21-.43-.26-.67-.29-1.02-.08,0-.15,0-.23,0l.03.09c.07-.04.14-.07.21-.11-.22.44.14.7.31,1.02ZM494.34,182.39c-.43-.24-.72.17-1.07.24-.19.13-.39.27-.58.4-.21.3-.66.34-.8.73-1.8,1.02-2.7,2.94-1.62,3.85-.41-1.42.25-2.32,1.16-3.13.2-.18.49-.3.5-.64.38-.16.92-.17.76-.82.17.42.37.08.52,0,.13-.07.38-.23.04-.4.47.41.7-.34,1.1-.24,0-.05,0-.11-.01-.16,0,0-.02-.02-.03-.03l.04.2ZM479.04,245.43c.24-.07.16-.24.12-.39,0-.02-.06-.02-.09-.03,0,.14,0,.28-.01.42.23.26.43.53.46.89.07,0,.14,0,.21,0,0,0,.01-.06,0-.06-.12-.08-.17.02-.22.09.11-.45.1-.83-.47-.91ZM480.46,247.67c.04.06.09.12.13.19.01-.03.04-.06.04-.09-.02-.12-.09-.14-.19-.07.16-.42-.21-.62-.38-.91-.06-.03-.13-.05-.19-.08,0,.03,0,.08,0,.09.09.08.16.05.2-.05-.19.44.09.68.38.92ZM574.72,176.48c.15.17.39.45.54.24.19-.26-.17-.33-.38-.41-.26-.27-.48-.6-1-.57.23.4.55.55.84.73ZM507.77,171.75c-.28.17-.72.11-.92.69.48-.21.82-.36,1.15-.51.13-.01.28-.07.18-.21-.12-.17-.28-.01-.42.04ZM497.7,180.89c-.36-.13-.63-.06-.83.29.46.26.52-.29.81-.32,0-.03,0-.08.02-.1.07-.09.05-.12-.04-.06-.01,0,.03.12.05.18ZM476.96,212.05c.48-.42.9-.01,1.35.1.11.26.23.51.38.85.1-.46.16-.79-.22-1.01-.91-.39-1.09-.38-1.51.07-.22-.27-.41-.17-.88.07.48-.04.68-.06.89-.08ZM588.93,221.57c.02-.26.23-.56-.15-.74.05-.84-.43-1.5-.82-2.19.28.72.57,1.45.85,2.17.04.26.08.51.12.77.15.31.31.62.46.93-.11-.33.02-.78-.46-.93ZM495.17,181.95c.14-.4.69.02.82-.42-.25.18-.8-.24-.81.41-.1-.02-.2-.04-.3-.05-.01,0-.03.04-.04.05.11,0,.22,0,.33,0ZM549.47,177.59c.3.36.7.4,1.22.44-.43-.32-.82-.4-1.24-.42-.48-.29-.99-.48-1.56-.3.55-.02,1,.47,1.58.27ZM494.22,277.52c-.04-.11,0-.32-.23-.18.18-.42-.18-.64-.35-.91-2.75-4.28-4.46-9-5.5-13.94-.78-3.7-2.03-6.99-5.22-9.27-.1-.09-.2-.19-.31-.28-.14-.2-.27-.4-.42-.59-1.93-2.54-3.4-5.32-4.38-8.36-.41-1.25-.29-2.51-.16-3.78-.48.92-.56,1.92-.41,2.86.65,3.89,2.61,7.14,5.19,10.05.1.11.2.22.31.33.35.46.59,1.01,1.08,1.37,1.77,1.31,2.75,3.1,3.24,5.21.7,3.07,1.48,6.12,2.52,9.1,1.03,2.97,2.43,5.74,4.44,8.19.03.13,0,.31.23.18-.1.52.44.75.55,1.18.13.1.26.2.38.3,0-.05.03-.14.01-.16-.12-.09-.18-.44-.41-.11.08-.52.09-1-.55-1.19ZM552.19,180.17c.04-.38-.23-.35-.49-.37.1.25.27.36.52.36.39.53,1,.47,1.54.59-.48-.31-.97-.59-1.57-.57ZM500.61,174.05c-.75-.07-1.2.43-1.61.99.53-.33,1.06-.67,1.58-1,.23-.17.55-.24.65-.6-.42.02-.87-.04-.62.61ZM548.05,185.12c-.48.77-.41,1.73-.84,2.52-.72.52-1.65.34-2.41.72.87-.09,1.79.03,2.54-.57.67-.71.55-1.69.87-2.52.26-.35.53-.67,1.09-.87-.82-.17-1.05.25-1.25.72ZM505.28,181.98c.99-.34,1.1-1.39,1.73-2.03-.86.45-1.04,1.43-1.7,2.04.01.08.03.17.04.25.03-.02.06-.03.09-.05l-.16-.21ZM571.89,227.28c.39.08.76-.02,1.12-.17.02,0,0-.23-.05-.27-.37-.22-.72-.08-1.07.08-.73.01-1.45.02-2.18.04-.16,0-.38-.11-.43.12-.07.35.16.58.42.78.13.1.37.26.43.08.33-.96,1.18-.46,1.77-.67ZM549.06,198.55c-.52-1.17-1.49-1.72-2.65-2.04.9.65,1.73,1.38,2.49,2.19.18.34.38.67.54,1.02.49,1.04.69,2.21,1.46,3.11.04.1,0,.28.18.24.03,0,0-.24,0-.37-.61-1.42-1.13-2.88-2.02-4.16ZM503.76,189.4c.17.34.24.65-.24.8-1.54-.7-1.59-2.02-1.39-3.43-1.86.36-1.87.37-2.43-1.46-.17-.56-.48-.64-.95-.45-.52.21-.86.62-1.09,1.1-.55,1.15-1.43,1.99-2.49,2.66-.8.51-1.56,1.09-2.18,1.83-.51.61-1.14,1.04-1.92,1.24-1.36.35-2.16-.37-1.84-1.72.19-.79.26-1.51-.38-2.16-.37-.38-.39-.86-.23-1.38.26-.82.61-1.57,1.21-2.19,1.54-1.58,3.26-2.88,5.43-3.48.61-.21,1.22-.42,1.83-.63-.51-.78-1.33.16-1.84-.46.33-.38.92-.27,1.3-.81-1.14.24-2.15.35-2.79,1.29-2.87,1.08-5.11,3.05-7.32,5.07-3.16,2.9-5.72,6.31-8.33,9.68-3.81,4.92-6.8,10.25-8.73,16.18-.97,2.96-1.94,5.9-1.16,9.07-.03.16-.05.33.11.44.04.46.16.89.4,1.28.34.94.77,1.84,1.7,2.32,1.57.82,2.6,2.11,3.41,3.63.15.28.17.68.64.76.09-.81.14-1.58.25-2.34.11-.76-.15-1.19-.88-1.53-1.42-.66-1.4-.72-.89-2.18-1.6.58-1.95.52-2.56-.45-.28-.45-.54-.9-.81-1.35-.52-2.71.44-5.07,1.81-7.29,1.14-1.84,3.09-2.28,5.05-2.63,1.11-.2,2.19-.22,3.13.72.7-2.15,2.24-3.52,3.73-4.92.8-.75,1.61-1.53,2.04-2.53,1.32-3.04,3.58-5.17,6.36-6.81.67-.4,1.09-.91,1.45-1.58.96-1.75,2.54-3.05,4.37-3.39,2.15-.4,3.91-1.64,5.99-2.1.25.08.5.15.75.23.13-.52-.47-.64-.5-1.05-.7-1.33-.4-2.84-.68-4.29-.35.54.06.98-.04,1.48-.22,1.03.02,1.98.72,2.8ZM573.25,175.42c.19.08.34.47.57.19.09-.12-.2-.31-.41-.35-1.48-1.27-3.12-2.28-4.97-2.98,1.6,1.05,3.21,2.09,4.81,3.14ZM584.61,215.07l1.14,1.99c0-.9-.31-1.61-1.17-1.97-.43-.64-1.12-.82-1.8-.86-1.73-.1-3.46-.12-5.19-.17v-.06s-.02.03-.02.03c2.32.49,4.75.3,7.03,1.03ZM539.72,182.07c1.99-.86,2.66-2.87,3.99-4.31-.07-.06-.15-.13-.22-.19-1.25,1.51-2.5,3.02-3.75,4.53-.16-.26-.27-.04-.38.05-.01,0,.03.13.06.14.16.02.25-.07.31-.22ZM472.37,213.77c-1.44,2.09-2.26,4.31-1.58,6.85-.22-2.44.62-4.62,1.78-6.71,0-.09.04-.21,0-.25-.09-.08-.16,0-.19.1ZM470.16,225.32c.1-.09.19-.18.09-.32-.02-.02-.06-.02-.09-.04,0,.12,0,.24,0,.36,1.38,1.55,2.8,3.07,3.87,4.86.09.07.06.27.24.23.01,0,.02-.13,0-.19-.07-.18-.16-.15-.25,0,.03-1.49-2.13-4.23-3.86-4.89ZM487,202.37c.09,0,.21.02.26-.02,1.53-1.68,3.4-2.92,5.31-4.11.19-.12.55-.18.35-.56.05.1.12.13.21.05.02-.02,0-.06,0-.1-.07.02-.14.05-.21.07-2.38,1.05-4.34,2.62-5.91,4.68-.06.05-.12.11-.19.16.05.02.1.04.15.06,0-.08,0-.16.01-.23ZM522.99,216.35c2.03-.88,3.19-2.54,2.9-4.22-.76.92-1.51,1.78-2.2,2.69-.34.45-.82.88-.69,1.55-.05,0-.1,0-.16,0,.02.04.04.09.05.13.03-.05.06-.11.08-.16ZM497.55,197.26c-.69.51-1.49.74-2.31.92-2.82.61-4.89,2.4-6.98,4.29.57.24.71-.19.96-.39,1.8-1.44,3.62-2.84,5.89-3.53.87-.27,1.86-.41,2.42-1.31.81.13,1.44-.29,2.06-.69-.75.06-1.49.11-2.04.71ZM514.14,183.16c1.48-1.28,3-2.5,4.86-3.23,2.01-.79,3.9-1.88,6-2.48.61-.17,1.17-.43,1.44-1.06-1.49.87-3.13,1.36-4.7,2-2.81,1.15-5.73,2.12-7.75,4.59-.82.48-1.67.64-2.43-.07-.7-.65-.49-1.63-.7-2.63-.36,1.73-.05,2.83.88,3.33.92.49,1.75.39,2.42-.47ZM549.44,208.5c-2.47.36-5.55-1.25-6.5-3.55-.47-1.15-1.14-1.67-2.38-1.56-1.05.09-2.11.06-3.16.07-.49,0-.93.11-1.47.52,1.63-.09,3.08-.15,4.52-.24,1.14-.07,1.93.38,2.21,1.5.31,1.24,1.12,1.98,2.24,2.46.9.38,1.78.82,2.71,1.13.65.21,1.37.36,1.99-.17.19-.15.44-.25.45-.58-.34.05-.51.2-.61.43ZM555.81,197.77c-.07-.07-.21-.17-.2-.22.29-.81.46-2,1.35-2.06.93-.07,2.04-.31,2.95.44,1.19.98,2.42,1.92,3.45,3.1.16.18.32.6.63.28.23-.25-.06-.51-.25-.72-.82-.93-1.86-1.61-2.77-2.43-.75-.68-1.63-.94-2.54-1.13-1.81-.37-3.55,1.31-3.3,3.13.04.29.14.55.47.62.64.36,1.3.47,1.97.1.9-.49,1.81-.44,2.75-.17.6.17,1.19.33,1.89.52-1.69-2.45-4.5-3.69-6.4-1.46ZM508.74,244.53c-.3-.47-.76-.7-1.27-.88-1.5-.56-3.03-1.06-4.49-1.71-1.39-.61-2.96-.89-4.02-2.14-.09.87,0,1.05.82,1.38,1.24.49,2.48.96,3.72,1.44,1.71.67,3.55,1.02,5.07,2.13.25.42.53.82.75,1.25.74,1.44-.05,2.65-.65,3.86-.63,1.27-1.18,2.55-1.32,3.97-.23,2.46.18,5.11-2.15,6.97,1.57-.63,2.12-1.93,2.31-3.37.37-2.89.92-5.7,2.25-8.36.9-1.8.48-3.07-1.02-4.53ZM542.82,198.87c-.18-.12-.05-.6-.38-.45-.16.07.04.43.21.61.26,1.11.43,2.21-.36,3.2-.11.14-.08.33.05.35,1.05.12,1.01,1.06,1.23,1.72.47,1.41,1.31,2.36,2.77,2.74.44.11.88.27,1.29.46.62.29,1.12.2,1.6-.29.79-.82,1.73-.91,2.81-.59,2.04.6,4.13.9,6.26.83.3,0,.78.27.86-.28.08-.55.2-1.18.01-1.66-.16-.43-.67-.02-1.02.06-3.59.82-7.57.19-8.99-4.08-.81-2.43-2.74-3.46-4.37-4.94.1.46.4.76.76,1.04.7.53,1.39,1.08,2.06,1.64.56.47,1,1.05.78,1.82-.27.94-.71,1.82-1.5,2.46-.89.73-1.69.68-2.26-.14-.92-1.33-.93-1.36.39-2.13.64-.37.6-.61.02-1.02-.72-.49-1.45-.95-2.22-1.34ZM565.93,170.88c.76.46,1.49.97,2.38,1.17-.64-.61-1.39-1.03-2.2-1.34-3.07-1.76-6.38-2.98-9.7-4.08-3.77-1.25-7.61-2.4-11.61-2.72-3.05-.24-6.06-.84-9.13-.9-4.33-.09-8.62.19-12.89,1.03-5.18,1.01-10.28,2.3-15.11,4.44-2.76,1.22-5.44,2.65-8.13,4.03-3.37,1.73-6.48,3.8-9.38,6.18-3.6,2.95-6.99,6.12-10.05,9.66-3.71,4.3-6.86,8.97-9.42,13.99-2.97,5.84-4.94,12.07-6.25,18.51-1.06,5.2-1.35,10.44-.9,15.71.45,5.34,1.41,10.58,3.15,15.68,2.13,6.22,4.86,12.19,8.45,17.64,4.6,6.98,10.18,13.11,17.04,18.08,7.51,5.45,15.72,9.29,24.67,11.57,6.8,1.73,13.73,2.49,20.76,2.13,3.21-.17,6.42-.54,9.56-1.14,6.13-1.17,12-3.25,17.62-5.98,8.07-3.92,15.15-9.18,21.29-15.71,3.95-4.2,7.5-8.73,10.33-13.73,4.56-8.06,7.72-16.65,8.88-25.91.66-5.28.68-10.53-.19-15.77-.19-1.13-.39-2.26-.86-3.32.25,3.34.48,6.67.63,10,.16,3.55-.1,7.05-.72,10.55-.44,2.46-1.16,4.84-1.73,7.26-1.44,6.17-4.13,11.83-7.26,17.26-4.95,8.57-11.8,15.47-19.61,21.49-2.96,2.28-6.26,4.01-9.4,5.98-2.47,1.55-5.16,2.77-7.92,3.75-4.83,1.71-9.68,3.27-14.82,3.85-2.58.29-5.16.64-7.75.73-4.29.14-8.53-.37-12.76-1.14-4.97-.91-9.75-2.34-14.41-4.24-5.83-2.38-11.13-5.72-16.31-9.26-2.56-1.74-4.77-3.9-7.04-5.99-6.02-5.55-10.96-11.87-14.36-19.38-2.6-5.75-4.55-11.65-5.61-17.88-.75-4.38-1.34-8.74-1.22-13.19.11-4.1.69-8.13,1.93-12.05.61-1.94,1.68-3.69,2.33-5.62,1.19-3.53,2.44-7.06,4.35-10.28,3.79-6.39,8.37-12.17,13.39-17.64,2.86-3.11,6.05-5.79,9.51-8.14,2.12-1.44,4.38-2.69,6.54-4.07,3.93-2.52,8.1-4.36,12.61-5.6,5.66-1.55,11.37-2.6,17.23-2.83,4.2-.16,8.36.39,12.53.82,4.43.45,8.71,1.46,12.88,2.93,2.95,1.03,5.8,2.33,8.7,3.51ZM494.4,275.63c1.87,2.76,3.18,5.98,6.32,7.74-1.16-2.3-2.47-4.51-3.38-6.91-.05-.77-.13-1.55.05-2.31.93-.82,2.03-1.56,1.27-3.08-.01-.02.01-.07.02-.1.96-.02,1.39-.65,1.69-1.45.67-1.8,1.06-3.64,1.06-5.56,0-1.88.76-3.36,2.52-4.16,1.29-.58,1.92-1.54,2.14-2.9.47-2.94.74-5.91,2.27-8.61.73-1.29.31-2.21-.96-3.04-2.3-1.51-5-2.13-7.53-3.09-2.02-.76-2.18-.62-2.49-2.77-.38-2.6-1.03-3.31-3.58-3.73-.94-.16-1.64-.53-2.04-1.44-.55-1.24-1.59-2.14-2.41-3.18-.29-.37-.74-.67-1.18-.63-1.46.11-2.72-.51-4.05-.91-1.24-.37-2.97,1.2-2.6,2.46.72,2.44.15,4.46-1.59,6.3-1.31,1.38-1.7,3.1-.9,4.88.99,2.18,2.07,4.34,3.64,6.17,2.03,2.37,3.36,5.15,4.85,7.83.91,1.65,1.19,3.56,1.62,5.4,1.09,4.64,2.4,9.18,5.27,13.1ZM557.92,179.73c-.72-.05-.97.5-1.19,1.01-.36.83-.95,1.1-1.85,1.16-1.51.1-2.69-.4-3.66-1.5-.94-1.95-2.71-2.23-4.59-2.37-1.54-.12-2.67.44-3.41,1.79-.65,1.19-1.52,2.2-2.6,3.02-.21.16-.53.29-.45.64.08.33.42.39.68.42.97.12,1.69.63,2.29,1.37.2.24.3.71.79.45.48-.25.46-.61.34-1.07-.56-2.21.05-3.71,1.97-4.93,1.36-.86,2.61-.28,2.81,1.3-.33.52-.84.86-1.31,1.25-.47.3-.51.59,0,.89.2.24.45.1.68.08.87-.06,1.72-.29,2.61-.14.67.12,1.06.49,1.16,1.15.12.81-.51.84-1.02.84-1.65,0-2.39.89-2.57,2.42-.02.17-.06.35-.15.49-.27.44-.48,1.04-1.07,1.04-1.6,0-3.19.58-4.8.07-.23-.07-.56-.15-.77.14-.17.03-.33.05-.41.24-.9.47-2.01.55-2.74,1.3-1.08,1.11-2.33,1.91-3.78,2.36.22.5.33.97.42,1.46.42,2.17-.45,3.43-2.58,3.7q-2.59.33-2.7,2.99c0,.07,0,.14,0,.21,0,1.16.49,1.62,1.65,1.46,1.13-.16,2.05-.61,2.55-1.76.8-1.83,2.25-3.18,3.83-4.25,1.28-.86,2.86-1.28,4.34-1.82,1.08-.39,2.21-.85,3.36-.28,1.78.88,3.36,2.01,4.52,3.65.52.73.68,1.62.94,2.45.14.45.53.47.63.17.29-.92,1.03-.85,1.68-.86.88,0,1.29-.19.73-1.1-.07-.12-.11-.26-.17-.39l.05-1.68c.66-3.38,4.43-3.67,6.62-2.21,1.26.84,2.38,1.87,3.7,2.63.5.97,1.13,1.94-.22,2.9.87.07,1.48-.2,2.09-.44.28-.11.49-.25.24-.61-.48-.68-.69-1.53-1.31-2.14-.01-.35-.05-.69-.04-1.04.04-1.4.54-1.85,1.95-1.87,1.35-.02,1.97.84,2.43,1.91-.02.31.05.59.33.76v.05s.04.03.04.03c-.03.18,0,.34.19.43.25.86.85,1.5,1.33,2.21.55.81,1.1,1.68.43,2.68-.61.91-1.5.94-2.43.59-.88-.33-1.37-.92-1.24-1.93.11-.84.18-1.68-.29-2.45-.08-.04-.2-.15-.24-.12-.14.09-.09.24-.03.37.33,1.86.12,2.13-1.83,2.2-.56.02-1.15-.06-1.69.06-1.74.39-3.27.03-4.64-1.1-.29-.24-.59-.34-.96-.12-.86.51-1.84.66-2.79.91-1.03.26-1.15.54-.6,1.43.3.49.71.74,1.3.73,1.06-.02,2.11.02,3.17.04,1.29.02,1.76.49,1.82,1.79.05,1.17-.17,2.32-.38,3.46-.08.47-.08.81.35,1.2.51.46.84,1.12,1.22,1.71,2.56,3.94,4.89,8.01,6.93,12.24.7,1.45,1.19,1.6,2.76,1.29,2.17-.43,3.65-1.93,5.16-3.31,1.25-1.15,1.25-3.3.35-4.59-.29-.41-.52-.56-1.03-.3-1.25.65-2.38.18-3.23-.73-1.03-1.1-2.02-2.25-2.81-3.55-.28-.46-.44-.96-.51-1.49-.11-.8.22-1.31.99-1.64,1.13-.49,1.89.1,2.64.76,2.4,2.12,5.11,3.33,8.41,3.38,1.9.03,3.79.59,4.67,2.66.08.19.25.22.43.26,1.02.2,1.39.95,1.64,1.85.39,1.45.66,2.95,1.4,4.29.28,1.66.77,3.27,1.31,4.86.1.29.19.73.54.69.41-.04.43-.51.46-.84.09-1.15.14-2.31.2-3.46.05-.3.1-.6.15-.9.04-.12.09-.24.13-.36.25-.24.22-.57.3-.87.42-1.53.77-3.1,2.24-4.05.3-.19.6-.56,1-.32.94.57,2.05.6,3.03,1.01.85,3.57,1.92,7.11,2.08,10.83.04-.51.09-1.02.14-1.66.05.35.03.57.11.76.74,1.81.46,3.62.24,5.49-.2,1.64-.09,3.33.25,4.98.12-.19.16-.38.16-.57-.12-3.35.43-6.68-.19-10.05-.38-2.12-.22-4.35-.71-6.48-.26-1.12-.15-2.35-.95-3.32.09-.78-.17-1.48-.48-2.18-.84-1.92-1.27-3.98-2.11-5.91-3.52-8.16-8.09-15.58-14.39-21.92-4.33-4.36-9.13-8.08-14.41-11.18-.71-.42-1.42-.94-2.33-.86-.97-.15-1.87.07-2.78.47,1.5.39,1.93,1.34,1.24,2.64-.05.04-.1.08-.15.11-.31-.07-.49.08-.62.34-.75.43-1.57.07-2.35.2-1.55-.31-3.11-.17-4.66,0ZM529.11,232.5c.04,1.1.58,1.58,1.7,1.42.76-.11,1.51-.19,2.24-.5,1.61-.69,3.22-1.23,5.06-.7,1.47.42,2.7,1.27,4.06,1.9.48.22.68.79.74,1.34.09.77.14,1.55.03,2.32-.21,1.44.05,2.73.79,4.02,2.01,3.55,3.15,7.27,1.75,11.36-.37,1.09-.19,2.1.33,3.13.41.8.76,1.64.95,2.54.5,2.37.89,4.76,1.64,7.06.59,1.82.98,2.13,2.84,1.63,2.57-.68,4.3-2.46,5.63-4.65.37-.62.72-1.19,1.35-1.57.96-.58,1.34-1.48,1.41-2.56.02-.35.11-.69.19-1.03.48-1.93,2.02-3.04,3.48-4.09,1.37-.97,1.73-2.22,1.75-3.71,0-.63-.05-1.27-.1-1.9-.18-2.41-.23-4.76,1.35-6.86,1.51-2,3.22-3.82,4.91-5.66,1.41-1.53,2.1-3.4,2.59-5.35.31-1.26-.05-1.53-1.29-1.11-.33.11-.65.27-.98.39-1.3.46-2.99,0-3.61-.99-2.34-3.76-4.36-7.7-6.38-11.64-1.28-2.49-3.03-4.75-3.73-7.53-.09-.37-.39-.44-.74-.42-1.8.11-3.57-.13-5.31-.59-.44-.11-.94-.18-1.19.37-.33.73-.98.83-1.67.86-1.79.09-3.19-.94-4.71-1.63-1.13-.51-1.99-1.27-2.35-2.54-.19-.68-.62-1.16-1.45-1.11-3.52.22-6.87,1.15-10.2,2.24-.43.14-.79.39-.93.8-.64,2.02-2.86,3.35-2.51,5.82.05.32-.28.7-.46,1.05-.49,1-1.36,1.58-2.3,2.09-.41.22-.85.41-.83,1.07.05,2.26.04,4.51.27,6.76.05.44.16.83.56,1.07.77.45,1.34,1.11,1.96,1.73.13.27.26.53.47.98-1.03-.37-1.5-1.38-2.49-1.54.61,2.53,3.07,6.26,4.86,6.58q-.17-.86.32-.9ZM501.24,173.22c.31.2.46.09.6,0,4.23-2.68,9.03-3.98,13.77-5.22,4.18-1.1,8.51-1.64,12.86-1.87,7.7-.4,15.32,0,22.86,1.73,5.71,1.31,11.14,3.34,16.08,6.44,4.13,2.6,8.24,5.27,11.99,8.45,5.66,4.8,10.65,10.18,14.42,16.6,3.88,6.59,7.21,13.4,8.7,21.02,1.22,6.27,1.59,12.53.95,18.87-.1.94-.37,1.87-.13,2.83.04-.53.2-1.03.26-1.54.74-5.93.82-11.85.25-17.81-.47-4.96-1.57-9.74-3.51-14.28-3.87-9.02-9.15-17.12-16.22-23.99-.73-.71-1.37-1.52-2.22-2.11-1.76-1.22-3.55-2.41-5.28-3.68-6-4.37-12.35-8.12-19.41-10.49-3.88-1.3-7.81-2.51-11.93-2.8-2.7-.19-5.35-.83-8.07-.87-7.05-.11-13.98.6-20.86,2.26-3.94.95-7.74,2.11-11.35,3.91-1.35.67-2.53,1.61-3.76,2.55ZM524.01,299.31c1-.17,1.9.28,2.87.42.94.13,1.9.15,2.84.27,3.52.47,7.08.29,10.53-.2,5.55-.78,11.03-2.06,16.31-4.06,3.87-1.47,7.74-2.98,11.29-5.07,5.25-3.1,10.04-6.87,14.54-10.97,5.74-5.23,10.43-11.32,13.98-18.25,1.86-3.63,3.66-7.29,4.68-11.28.55-2.15,1.3-4.25,1.55-6.55.32.24.32.49.38.71-.05,0-.1.02-.15.03.15-.9.16-1.78-.12-2.66-.09.19-.13.38-.11.57.05.82-.05,1.49-1.12,1.47-.54-.01-.67.46-.75.87-.13.69-.2,1.39-.33,2.08-1.03,5.19-3.12,9.98-5.54,14.65-1.84,3.54-4.17,6.76-6.56,9.94-2.08,2.77-4.41,5.29-6.89,7.71-2.3,2.25-4.91,4.12-7.33,6.22-2.93,2.55-5.97,4.97-9.55,6.52-3.3,1.44-6.61,2.87-10.02,4.06-3.91,1.37-7.93,2.22-11.95,3.16-4.92,1.14-9.84.87-14.79.46-1.54-.13-2.79-1.22-4.38-.98,1.19-.47,1.21-.53.52-1.65.03,1.13-.66,1.43-1.53,1.44-.91.01-1.83.06-2.74-.11-.78-.14-1.58-.18-2.37-.27,1.12.37,2.25.61,3.41.65,1.06.03,2.07.54,3.16.34.13-.02.28.02.42.05.13.03.31.09.19.25-.08.1-.28.12-.42.17ZM465.96,220.31c-.13.83-.18,1.69-.4,2.5-1.18,4.47-.92,9.04-.67,13.56.2,3.58,1.02,7.1,1.79,10.62,1.6,7.29,4.62,14,8.58,20.25,4.06,6.4,9.57,11.52,15.27,16.43.19.17.4.27.69.07-1.62-1.9-3.4-3.62-5.14-5.37-8.24-8.31-14.46-17.85-17.64-29.21-1.12-4.01-2.01-8.07-2.38-12.22-.39-4.33-.13-8.67.16-13,.08-1.21.1-2.42-.26-3.63ZM514.26,172.62c.63-.01.86.41,1.09.85.7,1.36.39,2.6-.5,3.73-.5.63-1.09,1.2-1.79,1.63-.81.49-1.08,1.27-1.04,2.16.02.48,0,1.08.5,1.3.55.25,1.01-.17,1.36-.55.8-.87,1.74-1.51,2.77-2.07,2.25-1.22,4.62-2.17,7.01-3.05,1.57-.58,2.62-1.6,3.35-3.02.65-1.28.62-1.35-.83-1.41-3.97-.17-7.94,0-11.93.43ZM568.26,223.04c-.11-.31-.19-.63-.33-.92-1.9-3.86-4.16-7.52-6.52-11.11-.83-1.26-1.77-2.48-1.05-4.19.24-.57.07-1.32.08-1.99.02-.65-.37-.89-.94-.86-2.02.09-4.01.45-6.21.88.87.17,1.49.03,2.12-.04,1.19-.13,2.38-.27,3.57-.37,1.05-.08,1.36.24,1.24,1.29-.07.62-.31,1.22-.37,1.84-.05.6-.33.77-.89.76-2.07-.02-4.13-.11-6.18-.55-.83-.18-1.74-.57-2.62-.03.63-.2,1.22.04,1.8.17,1.65.37,3.29.74,4.99.59,1.11-.09,1.61.47,1.83,1.45.13.55.3,1.08.82,1.4.29-.39-.3-.84.22-1.01.44-.14.72.23.93.55,1.53,2.23,2.83,4.59,4.18,6.92,1.03,1.77,1.88,3.65,3.31,5.22ZM535.63,203.11c2.09-.7,4.04-.68,6.06-.75-1.03-.96-1.13-1.43-.65-2.74.13-.36.57-.71.13-1.12-.37-.34-.82-.17-1.18,0-2,.9-3.19,2.58-4.36,4.61ZM502.83,181.54c.8.97,1.15.96,1.78-.04.2-.32.48-.57.71-.85.42-.51,1.2-1.01.78-1.85-.59-1.18-1.92-1.74-3.31-1.44,1.06-.02,1.65.49,1.81,1.5.21,1.32-.07,1.75-1.76,2.68ZM504.59,260.78c-1.26.23-1.98,1.06-2.1,2.35-.13,1.26-.17,2.53-.33,3.79-.24,1.89-.87,3.66-2.07,5.25.74.18.89-.31,1.11-.68,1.25-2.13,1.57-4.52,1.61-6.91.03-1.59.43-2.86,1.78-3.8ZM544.52,186.89c.81.46,1.39.26,1.82-.33.29-.39.41-.9.71-1.28.49-.63.47-1.09-.14-1.66-.65-.6-.81-1.44-.65-2.34-.98,1.02-1.16,1.99-.39,3.21.47.75.29,1.2-.32,1.65-.31.22-.61.45-1.02.75ZM500.39,193.24c-.11,1.45-1.23,1.08-1.97,1.31-.13.04-.29,0-.42.05-.2.07-.39.16-.57.26-.35.2-.29.55-.23.85.1.5.43.11.66.12.79.04,1.76-.94,2.31.46.11.29.43-.03.59-.16.16-.13.61-.28.35-.51-.72-.63-.87-1.39-.73-2.38ZM534.2,196.91c-1.26.51-2.3.33-3.33.42-.74.07-1.61.13-1.78,1-.29,1.51-.68,3.09-.17,4.58.59,1.74,1.09,1.84,2.47,1.12-1.67-.06-2.21-.59-2.25-2.25,0-.28,0-.56,0-.84.04-3.23.1-3.27,3.3-3.41.53-.02,1.14.19,1.76-.61ZM479.62,236.88c1.74-.6,1.67-4.26.5-5.75-.39,1.95.17,3.88-.5,5.75ZM597.75,219.38c-.72-1.2-1.47-1.48-1.88-.78-1.25,2.09-1.93,4.38-2.21,6.8.7-1.76,1.28-3.57,1.92-5.36.48-1.33.75-1.41,2.17-.66ZM588.79,224.06c.19-.73-.29-1.32-.43-1.97-.3-1.43-.81-2.82-1.41-4.16-.09-.2-.19-.4-.45-.32-.26.08-.25.31-.2.52.06.24.13.47.24.69.77,1.53,1.38,3.12,1.86,4.76.07.22.05.47.38.49ZM530.42,171.78c-.13-.14-.26-.27-.39-.41-2.07.91-2.18,3.42-3.5,4.94,2.02-.91,1.76-3.71,3.9-4.53ZM600.52,225.99c-.13-2.38-.56-4.7-1.31-6.95-.09-.26-.12-.65-.5-.5-.3.12-.09.43-.01.64.36,1.02.8,2.01,1.08,3.06.33,1.24.41,2.52.75,3.75ZM569.61,201.09c.05.31-.28.85.33,1.07.32.12.73.1.97-.2.34-.42.17-.88-.07-1.27-.44-.74-.92-1.46-1.4-2.18-.11-.17-.27-.39-.5-.24-.23.14-.07.38,0,.56.27.7.84,1.31.66,2.26ZM480.34,213.43c.17-1.01.33-1.91.87-2.67.55-.78,1.3-1.38,2-2.02.63-.58,1.32-1.12,1.72-1.91-1.28,1-2.54,2-3.61,3.22-.82.95-1.34,1.96-.98,3.37ZM527.31,171.21c-3.69-.44-7.37-.08-11.05.26,3.68-.1,7.35-.33,11.05-.26ZM553.03,204.28c.37-.2,1.33-.19,1.06-.69-.38-.68-.64-1.37-.87-2.09-.05-.16-.12-.37-.33-.34-.3.04-.28.32-.21.49.21.54.23,1.01-.28,1.41-.24.19-.57.38-.4.76.18.42.61.41,1.04.46ZM507.5,179.37c-.15-2.76-1.81-4.29-5.39-3.23,2.72-.56,4.33.71,5.39,3.23ZM545.9,202.98c1.09-.74,1.49-1.98.85-2.72-.84-.97-1.7-1.97-3.05-2.3-.01,0-.02-.04-.03-.05,0,.02,0,.04.05.19.23.16.55.37.85.61.79.63,1.61,1.28,2.08,2.16.4.76-.62,1.24-.76,2.11ZM571.44,210.16c-.16,1.38,1.77,4.4,3.09,4.85-1.06-1.67-2.51-2.98-3.09-4.85ZM498.85,277.25c-.65-1.53,0-2.65,1.1-3.63.15-.14.3-.29.42-.45.04-.06.02-.22-.03-.27-.05-.05-.2-.08-.28-.04-1.49.61-2.15,2.9-1.2,4.4ZM494.92,195.3c-.56.51-.71,1.13-.93,1.77.8,0,1.51.01,2.13-.26.19-1.01-1.42-.4-1.21-1.5ZM525.23,292.8c-.53.13-1.05.27-1.58.4-.68.17-1.33.44-1.45,1.19-.12.7.44,1.1,1.02,1.56-.05-.79-.98-1.45-.06-2.17.64-.5,1.54-.26,2.08-.99ZM475.64,224.77c.28,1.74-.74,3.51.13,5.23-.36-1.74.65-3.5-.13-5.23ZM478.13,238.47c1.1-2.04.97-4.18.61-6.32.08,2.13.09,4.26-.61,6.32ZM493.01,178.94c1.09-.32,1.77-.77,2.46-1.24,1.24-.85,1.25-.84,1.26-1.63-.93,1.29-2.44,1.68-3.72,2.87ZM534.01,189.63c.03.39-.02.86.56.81.45-.04,1.07-.2,1.03-.68-.03-.42-.59-.8-1.05-.88-.44-.08-.45.43-.54.75ZM533.57,204.96c-1.99.11-3.77.78-4.46,1.72,1.36-1.03,2.95-1.07,4.46-1.72ZM533.37,193.05c.59,1.24.91,2.43.62,3.98.76-1.55.4-3.64-.62-3.98ZM507.26,172.82c1.68.16,3.31-.31,4.97-.4-1.69-.17-3.34,0-4.97.4ZM566.79,195.2c-1.29,1.41.2,2.6.21,3.92.21-1.32-1.44-2.53-.21-3.92ZM501.72,174.44c1.38.08,2.26-.9,3.4-.85-1.19-.28-2.24.05-3.4.85ZM508.36,173.99c-1.35.8-2.85.68-4.32.73,1.52.25,3.05.57,4.32-.73ZM556.73,177.83c.09-.03.18-.06.28-.09l-1.16-2.88c-.08.03-.17.07-.25.1.14,1.05.65,1.96,1.14,2.88ZM502.58,193.68c-.09-.18-.11-.51-.43-.44-.29.06-.62.29-.62.57,0,.28.36.37.65.36.28-.01.45-.15.39-.49ZM601.48,234.77c-.09,0-.18,0-.28,0-.21,1.11-.02,2.18.45,3.53-.07-1.38-.12-2.46-.17-3.53ZM474.6,219.54c.03,1.01-.3,1.94-.38,2.92.62-.9.71-1.89.38-2.92ZM528.3,207.35c-.41.76-.82,1.52-1.22,2.28.72-.59,1.09-1.37,1.22-2.28ZM490.06,187.69c.39.86.27,1.5.2,2.15-.09.74.23,1.1,1.05.82-1.42-.6-.09-2.08-1.25-2.97ZM556.19,174.1c.91,1.28,1.38-.45,2.09-.16-.71-.3-1.33.12-2.09.16ZM503.77,193.62c.28-.68.06-1.36.02-2.05-.26.67-.31,1.35-.02,2.05ZM506.68,172.3c-.96.19-1.91.38-3.02.6,1.16.07,2.14-.02,3.02-.6ZM562.06,200.33c-.64-.34-1.22-.72-1.92-.83.56.4,1.08.9,1.92.83ZM539.17,182.52c-.2.82.03,1.4.33,1.95.09.18.27.21.45.12.24-.12.1-.29.02-.42-.31-.48-.71-.91-.8-1.66ZM532.72,188.42c.14-.29.33-.61.45-.96.05-.16-.11-.44-.25-.37-.37.19-.64.54-.66.98-.01.17.15.3.47.35ZM499.13,176.85c-.6-.04-1.07-.36-1.48.11-.05.05.04.33.11.35.47.13.93.14,1.37-.46ZM553.49,179.07c-.31-.5-.81-.65-1.42-.36.47.12.95.24,1.42.36ZM531.19,188.66c-.36.05-.85-.32-1.07.28-.06.17-.11.42.09.45.49.08.68-.38.98-.73ZM480.84,248.05c.09.64.08,1.33,1.06,1.69-.44-.69-.75-1.19-1.06-1.69ZM546.51,181.2c.48-.17.96-.34,1.58-.57-.82-.4-1.21.03-1.58.57ZM503.33,191.58c-.79,0-1.21.3-1.63.57.54.03.99-.18,1.63-.57ZM467.08,218.92v-2.34c-.01.81-.29,1.63,0,2.34ZM499.16,179.42c-.06.09-.16.19-.2.3-.05.12.02.2.14.13.11-.06.21-.16.26-.26.04-.09-.04-.18-.2-.17ZM600.59,227.24c.07.29.13.54.19.79.04-.28.08-.55-.19-.79ZM497.96,180.55c.19-.03.33-.01.37-.07.08-.1.47-.22.09-.38-.18-.07-.35.14-.46.44ZM601.03,228.57s-.05,0-.07,0c-.01.1-.06.21-.03.3.04.09-.13.3.13.28l-.03-.58ZM486.72,202.91c-.02-.05-.04-.1-.07-.15-.07.06-.15.11-.21.18-.02.03.03.11.06.16.07-.06.14-.13.22-.2ZM497.83,282.89c.07.06.13.13.21.17.16.09.12-.08.17-.14-.08-.06-.16-.12-.24-.16-.02,0-.08.07-.13.13ZM508.96,173.98c-.05-.07-.07-.14-.11-.15-.05-.01-.12,0-.18.02-.09.04-.09.11,0,.13.08.02.17,0,.28-.01ZM547.23,177.12c.07.02.13.05.19.06.02,0,.05-.04.07-.06-.05-.03-.09-.08-.14-.08-.04,0-.08.05-.12.08ZM490.35,180.88s-.05-.04-.07-.03c-.09.03-.09.08,0,.12.02,0,.05-.01.07-.03.01-.01,0-.04,0-.06ZM500.88,192.46l-.04.07h.07s-.03-.07-.03-.07ZM535.38,201.5s.06-.05.06-.07c0-.02-.04-.05-.06-.07-.02.04-.05.07-.07.11.02.01.04.03.07.04ZM587.5,217.12s-.04-.05-.05-.07c-.02.02-.06.04-.06.06,0,.02.03.05.05.07.02-.02.04-.04.07-.06Z"/><path class="cls-1" d="M565.05,260.36c-.02-.95.31-1.8.78-2.59.59-1,1.2-1.99,1.44-3.14.02-.1.07-.21.14-.28,1.4-1.46,2.81-2.93,4.39-4.19.6-.48,1.42-.08,1.79.72.34.75.49,1.55.31,2.37-.67,3.16-2.14,5.93-4.11,8.46-.25.32-.6.61-.96.81-.8.43-1.66.95-2.57.49-1.04-.52-1.19-1.58-1.22-2.63ZM569.91,253.07c-.09,0-.2-.05-.27-.02-.18.08.02.15.02.23-.08-.02-.13-.15-.26-.03-.13.13.04.16.05.24-.08-.01-.18-.06-.25-.03-.16.07,0,.15,0,.22-.35-.28-.38.28-.64.25,0,.14.01.28.02.43.03,0,.08-.01.09-.03.06-.17.07-.32-.13-.4.35.22.45-.11.62-.28.08-.06.17-.12.25-.18.07-.07.15-.13.21-.2.03-.13.09-.22.24-.21.05-.08.11-.16.16-.23.06-.2.49-.2.31-.54.08,0,.19.02.25-.02.16-.11-.06-.13-.07-.2.27.3.38.05.51-.15.36-.12.63-.32.82-.79q-.61.39-.81.82c-.25-.25-.34.05-.49.15-.06.07-.13.14-.19.22-.17.14-.52.18-.32.53-.08,0-.15-.15-.26,0-.11.16.07.15.1.23ZM569.38,261.04c1.88-2.62,3.6-5.31,3.75-8.66-.5,3.21-2.48,5.76-3.94,8.53-.06.02-.11.07-.13.13-.15.09-.3.18-.45.28-.53.33-1.1.57-1.67.16-.54-.39-.61-1.01-.52-1.63.12-.85.55-1.59.94-2.33.47-.89.9-1.8,1.04-2.83-.86,1.63-1.69,3.27-2.41,4.96-.26.62-.03,1.34.28,1.94.2.38.51.74,1,.62.7-.17,1.48-.23,1.91-.95.07-.07.13-.15.2-.22ZM571.88,252.54c-1.81,1.01-2.64,2.69-3.35,4.46-.38.94-.9,1.83-1.1,2.83-.05.25-.23.58.09.77.31.18.61.02.87-.17.45-.32.7-.79.91-1.27.75-1.63,1.66-3.19,2.25-4.9.2-.59.44-1.1.33-1.72Z"/><path class="cls-1" d="M487.41,222.61c-1.46.89-3.07.58-4.61.67-.53-.94-1.04-.53-1.66-.05-.32.25-.81.16-1.22-.01-.41-.18-.75-.41-.73-.92.03-.69.52-.84,1.16-.9-.73-1.13-1.98-1.34-2.98-1.91-.92-.52-.95-1.6-.02-2.15.88-.52,1.8-.57,2.67,0,1.04.67,2.06,1.38,2.64,2.52.26.5.59.68,1.17.67,1.06-.01,2.12.1,3.05.68.5.31.71,1.02,1.52.91.35-.05.49.37.44.71-.05.35-.3.53-.64.62-.41.1-.59-.09-.67-.46-.03-.13-.09-.26-.12-.35ZM481.71,220.65c-1.26-2.05-2.95-2.95-3.73-2.04,1.44.18,2.22,1.51,3.73,2.04ZM485.72,222.15c-.76-.49-1.28-.57-2.02.02.76.08,1.27.18,2.02-.02Z"/><path class="cls-1" d="M523.19,180.15c.69-.77,1.62-.87,2.61-.91-.17-.19-.59.01-.47-.41,1.01.01,2.02,0,3.03.05.7.03,1.27.37,1.62.99.34.59-.12.97-.41,1.39-.21.13-.43.26-.64.39-1.13.33-2.23.8-3.43.82-1.67.03-2.36-.67-2.31-2.32ZM524.2,181.23c1.51.11,3.03.38,4.65-.42-1.68.25-3.18.26-4.65.42Z"/><path class="cls-1" d="M542.3,171.28c.84,0,1.69,0,2.49.3.95.35,1.11,1.16.41,1.89-1.05,1.08-3.74,1.18-4.84.19-.51-.45-.8-.99-.6-1.68.2-.7.84-.65,1.39-.7.38-.04.77,0,1.16,0ZM544.23,172.65c-.88-.26-1.69-.26-2.49-.26-.19,0-.44-.12-.51.18-.05.24.11.39.27.53.74.69,1.75.55,2.73-.45Z"/><path class="cls-1" d="M563.71,178.39c.03.08.06.16.09.24-.09,0-.18,0-.27,0,.06-.08.12-.16.18-.23Z"/></svg>