<?xml version="1.0" encoding="UTF-8"?><svg id="Layer_5" xmlns="http://www.w3.org/2000/svg" viewBox="0 0 641.93 793.86"><defs><style>.cls-1{fill:#fff;stroke-width:0px;}</style></defs><path class="cls-1" d="M137.61,332.81c-4.61,11.02,7.93,18.97,13.84,26.58,3.72,5.46,5.67,11.84,7.11,18.24.93,4.29.77,8.83,0,13.13-.35,2.87-1.49,5.62-1.31,8.43,1.19,3.15,3.18,6.04,4.61,9.14.97,2.22,2.24,4.12,2.18,6.68-.59,2.14-3.08,3.7-4.28,5.48-.47.62-.88,1.26-1,1.99-.13,1.29-.37,2.48-.6,3.65-.78,3.74-1.99,8.9-2.41,12.56-.25,5.15.57,13.29-6.59,14.1-5.73-.03-11.16-2.62-16.82-2.5-8.1,0-7.82,5.77-8.83,12.09-.94,6.33-2.27,12.76-3.17,19.06,0,0-.15,1.56-.15,1.56-.82,4.48,2.93,7.68,6.19,10.29,4.2,3.25,9.2,4.08,14.22,7.06,5.04,2.82,8.74,7.62,11.42,12.6,3.81,6.64,7.81,13.14,10.59,20.36,3.22,8.15,4.18,16.69,7.17,24.94,4.06,12.07,8.74,24.16,14.34,35.59,1.64,3.23,4.58,7.77,6.4,11.05,3.21,5.44,6.35,10.84,10.53,15.44,2.07,2.36,4.27,3.82,6.93,5.19,4.52,2.43,9.33,4.91,14.13,6.63,1.84.7,3.66,1.08,5.57,1.14,8.2,1.14,18.82,3.41,25.37,4.97,0,0,31.36,3.06,31.36,3.06,0,0-.53,0-.53,0,0,0,14.22-1.37,14.22-1.37,0,0-.58.14-.58.14,6.84-2.4,20.33-7.19,27.21-9.49,3.93-.46,7.35-.99,11.45-.38,1.91.54,3.31.75,5.21,1.07,2.77.46,5.44.75,8.26,1.58,2.68,1.05,5.01,2.56,7.37,4.07,3.08,2.01,6.05,4.12,8.99,6.31.99,1.46,1.66,3.05,2.12,4.87.08.45.16.92.02,1.52-.09.62-.91,1.27-1.52,1.22-2.79-.09-4.57-2.18-6.28-3.98-1.07-1.01-2.61-1.37-4.16-1.47-.17-.01-.29-.15-.28-.32.01-.16.15-.28.31-.28.81.02,1.63.03,2.45.25,2.45.42,3.73,3.03,5.91,3.89.64.28,1.46.55,1.93.5.24-.07.13-.01.19-.16-.06-1.69-1.16-3.33-2.05-4.84-3.86-2.15-10.49-6.91-15.93-8.82-4.2-.95-8.97-.94-13.21-1.94-3.1-.35-6.92.34-10.12.83,0,0,.37-.1.37-.1-6.89,2.64-20.09,7.94-27.02,10.42-.04.05-14.2,1.74-14.25,1.78-.18.03-.35.02-.53,0,0,0-31.41-2.43-31.41-2.43-.13,0-.26-.04-.39-.06-8.23-1.68-16.72-3.68-25.02-4.72-2.39-.07-4.87-.62-7.05-1.41-5.29-1.82-10.22-4.44-15.08-7.12-9.4-4.73-14.53-14.48-19.51-23.14-1.92-3.54-4.53-7.81-6.34-11.45-5.55-11.9-10.06-24.06-14.06-36.55-2.8-8.02-3.75-16.85-6.75-24.82-2.16-5.9-5.35-11.52-8.44-17.05-4.53-8.5-7.52-13.11-16.9-16.74-2.46-1.01-5.22-2.2-7.56-3.77-3.32-2.46-6.59-5.17-8.3-9.08-.76-1.79-.82-3.8-.59-5.64.28-2.73.81-5.53,1.32-8.13,1-5.25,1.99-10.59,2.84-15.87,1.44-15.07,13.97-11.89,24.67-9.23,1.81.33,3.59.89,5.24-.04,3.07-2.18,2.03-7.34,2.54-10.96.63-5.27,2.59-11.11,3.32-16.3.64-3.19,3.71-4.97,5.45-7.42-.02.01-.02.03-.02.05,0,0,0-.03,0-.04.04-.18-.04-.71-.16-1.15-1.43-4.95-4.69-9.13-6.33-14.02-.28-3.11,1.06-6.11,1.46-9.06,1.9-8.4-.22-16.96-3.42-24.78-3.55-10.32-15.95-15.38-17.4-26.73-.25-2.21-.1-4.52,1.09-6.49.09-.14.27-.18.41-.09.15.1.18.3.08.44h0Z"/><path class="cls-1" d="M339.58,649.73c4.23,1.48,10.23,3.77,14.48,5.36,2.2.8,4.48,1.16,6.6,2.04,1.09.35,2.42.91,3.26,1.45.11.1.21.19.1.37-.08.17-.04.46.13.38.38-.1.71-.78,1.09-1.41.11-.23.44-.27.6-.07,1.18,1.31,1.36,3.53-.63,4.55-1.84.84-3.81.64-5.6.65-3.53-.3-5.37-2.31-7.66-3.63-1.11-.7-2.21-1.41-3.3-2.12-3.1-2.16-6.48-4.6-9.37-7.03-.25-.2-.01-.64.3-.52h0Z"/><path class="cls-1" d="M355.69,660.67c5.21,4.91,6.47,9.81-2.85,6.79-5.98-1.88-10.71-6.86-16.77-8.21-1.42-.28-2.83.22-4.12.79-2.92,1.18-5.85,2.4-8.8,3.55-2.79,1.09-6.28,2.59-9.21,3-9.52,1.56-19,.56-28.4,1.45-15.59,2.71-31.34,4.01-47.06,5.64-4.68.46-14.09,1.31-18.77,1.68-4.38,1.02-7.54,5.29-12.25,6.45-1.94.56-4.26.5-6.19-.2-1.43-.51-2.86-1.03-4.35-1.4-4.56-1.2-9.04-1.82-13.79-2.82-1.61-.39-3.3-.72-4.83-1.6-.48-.3-.97-.68-1.31-1.15-4.52-5.63-10.82-12.1-15.39-17.73,0,0-3.01-3.67-3.01-3.67-3.18-3.81-8.71-6.67-13.57-5.01-3.35,1.21-4.98,4.81-5.56,8.18-.71,3.51-1.54,7.02-2.45,10.48-.8,3.08-1.69,6.13-2.34,9.08-.75,3.07-.49,6.35-1.32,9.37-1.55,6.03-1.98,12.31-2.55,18.62-.01.17-.16.29-.32.28-.15-.01-.27-.14-.28-.28-.17-3.16-.29-6.33-.26-9.52,0-3.17.25-6.44.71-9.58.51-3.18.02-6.32.52-9.46.97-6.39,2.4-12.35,3.32-18.67.48-3.59,1.29-7.09,3.7-10.01,5.09-6.41,14.97-5.38,20.98-1.06,2.52,1.64,5.2,4.95,7.15,7.28,4.38,4.97,9.72,11.13,13.96,16.13.51.64,1.13,1.37,1.58,2.07,0,0,.06.09.06.09-.07-.14-.19-.28-.3-.38-.05-.05-.06-.06-.09-.09-.03-.03-.07-.05-.09-.06-.03,0,.09.04.15.08,6.57,2.16,13.88,2.79,20.42,5.46,0,0,.61.25.61.25,0,0,.41.14.41.14,4,1.44,7.28-2.13,10.75-3.99,1.48-.85,3.2-1.74,5.34-2,12.28-.72,25.66-1.71,37.87-2.73,6.28-.53,12.57-1.08,18.81-1.76,3.17-.27,6.28-.92,9.41-1.28,3.29-.29,6.46-.23,9.63-.2,7.83-.03,15.67.81,23.1-1.47,4.26-1.51,9.1-3.24,13.34-4.85,1.52-.65,3.41-1.13,5.06-.74,4.84,1.07,8.55,4.53,12.71,6.82,2.63,1.5,5.54,2.92,8.57,3.06.36,0,.7-.05.95-.16,1.62-.92-2.6-5.37-3.31-6.18-.27-.27.15-.7.42-.43h0Z"/><path class="cls-1" d="M120.69,343.45c-4.51-.84-9.17-.92-13.77-.9-5.72.17-11.54.39-17.01,2.09-13.66,5-26.8,15-30.82,29.52-1.54,5.46-1.7,11.16-1.04,16.78.54,5.71,1.27,11.48,2.34,17.07,1.34,6.39,2.78,13.35,7.51,18.11,5.45,5.37,14.26,11.88,12.26,20.76-1.09,3.65-2.13,7.39-3.57,10.97-1.78,4.48-4.7,8.63-7.92,12.14-6.22,6.88-12.71,13.44-18.55,20.56-2.61,3.28-5.69,7-6.99,10.84-2.08,7.51-4.45,19.1-6.19,26.89-3.19,15.76-6.81,31.51-9.09,47.42-1.6,17.66-1.79,35.57-5.22,53.09,0,0-.32,1.03-.32,1.03l-.33.99c-.37,1.04-.51,2.16-.65,3.47-1.24,8.5.97,34.92-6.15,38.97-.04.03-.12.08-.12.08l-.02.02s-.05.05-.09.06c-.03,0-.08.07-.13.13-.96,1.17-1.38,2.79-1.83,4.32-2.98,13.35-2.96,27.44-3.38,41.15,0,.17-.14.3-.3.3-.16,0-.28-.13-.3-.28-.72-9.28-1-18.56-.81-27.88.29-5.86.36-12.01,2.38-17.74.48-1.31,1.37-2.73,2.63-3.52.38-.25.84-1.07,1.15-2.02.32-.92.55-1.96.71-3.03,1.44-10.27.23-20.66.87-31.06.09-1.76.47-3.89,1.11-5.72,0,0,.18-.63.18-.63l.15-.78c2.91-18.2,2.36-36.89,4.81-55.22,2.64-14.9,6.14-29.61,9.55-44.33,1.99-8.11,4.43-19.19,6.8-27.16,1.61-4.67,4.98-8.6,8.06-12.34,6.02-7.12,12.69-13.65,19.01-20.41,3.12-3.3,5.68-6.8,7.38-10.88,1.29-2.97,2.31-6.56,3.36-9.7,1.07-2.85.07-5.63-1.66-8.25-3.68-5.86-10.59-9.52-13.37-16.1-3.84-8.72-4.65-18.31-5.62-27.64-.7-7.01-.95-14.32,1.22-21.12,4.12-13.86,16.26-23.66,29.27-28.86,6.47-2.84,13.78-2.96,20.71-3.01,4.65.07,9.31.26,13.9,1.21.16.03.27.19.23.35-.03.17-.2.27-.36.23h0Z"/><path class="cls-1" d="M145.49,363.86c-1,9.8-1.17,37.51-9.17,43.35-2.06,1.56-4.96.96-6.8-.42,0,0-1.26-.76-1.26-.76-1.68-.94-3.42-1.81-5.09-2.24-1.16-.29-2.87-.48-3.83.19-2.9,2.37-3.14,10.31-2.33,13.76.47,2.07,1.34,4.48,3.68,4.8,2.96.16,5.93-.17,8.77-1.24.29-.13.55.29.32.5-1.56,1.58-3.52,2.62-5.6,3.4-8.97,3.93-13.39-5.23-13.55-12.8-.35-6.35,2.57-15.12,10.38-14.5,4.19.31,7.89,2.72,11.14,5,.53.36.7.51.91.61.42.16.43.22.86.01,1.17-.71,2.14-2.59,2.79-3.98,3.16-7.31,4.6-15.66,6.07-23.56.73-4.08,1.26-8.13,2.12-12.27.03-.16.19-.26.35-.23.17.04.27.21.23.38h0Z"/><path class="cls-1" d="M181.77,595.35c8.52-4.27,17.1-9.24,26.48-11.43.97-.13,3.23-.05,4.23-.05,7.77.22,22.2-.52,26.92,6.76,2.35,3.56,11.96,12.34,8.2,16.52-3.15,3.05-9.84.33-12.77-1.81-2.83-1.92-5.02-4.19-8.28-4.34-3.21-.06-6.46,1.37-9.54,2.27-2.7.93-5.53,1.8-7.91,3.26-.14.1-.19.16-.1.06.19-.24.33-.5.41-.8.29-.91-.05-2.09-.82-2.69-.21-.17-.35-.23-.52-.29,5.27.38,10.61-1.23,16.09-.25.49.1,1.56.52,2.1,1.12.4.43.41.5,1.06,1,2.22,1.53,2.63,4.25.6,6.13-1.72,1.67-4.01,2.35-5.79,3.94-.93.88-2.4,1.26-3.59,1.4-3.75.48-7.37.93-11.14.82-3.7.02-7.28-1.31-10.88-1.41-1.86-1.07,5.08-1.03,5.47-1,5.73.01,11.49-1.31,16.91-2.96,1.33-1.71,3.85-2.89,5.29-4.36.1-.1.01-.07,0,0-.32.51-.24,1.26.05,1.77.11.15.1.15.11.17.05.04-.04-.02-.07-.04l-.19-.13c-.43-.27-1.41-1.01-1.88-1.6.07.13.34.37.44.42.26.18.32.16.25.16-1.79-.13-3.82.19-5.87.42-3.71.16-11.51,2.46-13.48-1.93-1.99-5.65,8.03-7.62,11.75-8.88,5.85-1.61,12.57-3.53,17.92.43,3.76,2.6,6.67,6.17,11.35,6,.09,0,.02,0-.03.05-.12.07-.24.23-.29.36-.05.09-.08.19-.06.27-.69-2.75-2.84-5.08-4.48-7.47-1.32-1.76-2.74-3.66-4.02-5.5-4.51-5.12-19.21-5-26.02-5.6-.34-.06-.83,0-1.18,0-5.69.88-11.1,3.35-16.47,5.46-3.35,1.37-6.68,2.82-9.98,4.32-.15.07-.33,0-.4-.14-.07-.14,0-.32.13-.39h0Z"/><path class="cls-1" d="M178.46,567.59c17.35-3.37,38.03-7.34,55.42-10.52.25-.05.49-.03.72.03,0,0,27.97,6.31,27.97,6.31,18.45,4.03,37.66,8.11,55.67,13.7,9.16,2.74,18.3,5.62,27.3,9.02.16.06.23.23.18.39-.05.13-.18.21-.32.19-28.42-3.66-56.46-10.8-83.98-18.66,0,0-27.68-7.48-27.68-7.48l.72.03c-12.43,1.79-29.47,4.06-41.91,5.75,0,0-13.98,1.84-13.98,1.84-.16.02-.32-.09-.34-.26-.02-.16.09-.3.24-.33h0Z"/><path class="cls-1" d="M443.49,607.6c33.32,8.03,73.7,18.65,107.08,26.89,14.06,3.48,28.59,7.98,42.32,12.61,6.98,2.37,13.93,4.84,20.79,7.64.15.06.23.24.17.39-.05.13-.19.21-.33.18-10.97-1.71-21.75-4.08-32.54-6.58-17.87-4.02-35.64-9.64-53.12-14.97-24.86-7.42-60.1-17.96-84.54-25.59-.16-.05-.25-.22-.2-.38.05-.15.2-.24.36-.2h0Z"/><path class="cls-1" d="M217.54,676.87c35.23,14.52,77.82,32.99,113.1,47.74,14.86,6.21,30.09,13.54,44.45,20.85,7.3,3.73,14.55,7.56,21.66,11.69.14.08.19.27.11.41-.07.13-.22.18-.35.14-11.72-3.85-23.15-8.32-34.56-12.91-18.93-7.5-37.56-16.58-55.9-25.31-26.11-12.26-63.12-29.66-88.75-42.05-.15-.07-.21-.25-.14-.4.07-.14.24-.21.38-.15h0Z"/><path class="cls-1" d="M141.03,665.43c44.5,18.88,99.61,43.12,144.24,62.27,13.44,5.79,29.66,13.29,42.81,19.71,14.14,6.91,28.19,13.92,41.98,21.55.15.08.2.26.12.41-.07.13-.23.19-.36.14-14.84-5.3-29.38-11.23-43.91-17.27-13.52-5.64-29.85-12.85-43.08-19.12-18.06-8.63-66.56-31.39-85.28-40.16-18.92-9-37.87-17.91-56.76-26.98-.15-.07-.21-.25-.14-.4.07-.15.24-.21.39-.15h0Z"/><path class="cls-1" d="M432.05,762.4c34-16.61,75.78-36.07,109.96-52.57,14.4-6.94,29.88-13.43,44.78-19.27,7.58-2.96,15.2-5.82,22.96-8.38.16-.05.33.03.38.19.05.14-.01.28-.13.35-10.57,6.18-21.42,11.72-32.35,17.18-18.04,9.12-37.06,16.97-55.63,24.84-26.31,11.31-63.63,27.33-89.71,38.19-.15.06-.33,0-.39-.16-.06-.15,0-.32.15-.39h0Z"/><path class="cls-1" d="M473.95,762.22c21.35-10.91,44.87-22.68,66.48-33.29,5.56-2.73,11.07-5.56,16.6-8.36,11.07-5.6,22.48-10.43,34.05-14.91,5.79-2.24,11.63-4.37,17.61-6.21.16-.05.33.04.38.2.04.13-.01.27-.13.34-5.25,3.4-10.64,6.49-16.08,9.49-10.87,5.97-21.91,11.6-33.32,16.47-5.7,2.43-11.41,4.83-17.08,7.33-8.46,3.74-25.56,11.21-34.06,14.88-11.4,4.87-22.76,9.81-34.19,14.61-.15.06-.33,0-.39-.16-.06-.15,0-.31.14-.38h0Z"/><path class="cls-1" d="M280.62,402.09c-4.44-.38-10.29-.42-12.94,3.75-.76,1.34-.72,3.01-.98,4.6l-2.44,19.2c-4.47,35.15-9.6,79.97-13.8,115.29-.74,1.96-1.18,4.31-.56,6.32,1.63,5.34,8.24,6.49,13.17,6.91,28.84,2.09,57.18,7.49,85.72,11.72,26.3,4.22,55.48,8.99,81.89,13.45,2.8.45,8.65,1.47,11.42,1.94,14.12,3.2,28.5,6.38,42.81,8.14,3.01.27,6.17.76,8.99.15,0-.02-.33.19-.48.49-.02.05-.03.07-.01.03,1.34-4.97,1.84-10.24,2.63-15.45,6.79-50.98,11.94-114.69,17.99-165.99.44-1.02.79-2.69-.13-3.55-1.4-1.18-3.2-1.43-5.1-1.6-1.88-.13-5.29-.05-7.27.01-12.75.27-25.46-.03-38.19-.18-57.74-1.11-124.95-4.03-182.74-5.25h0ZM280.66,401.49c71.42.84,153.07.66,224.47-.11,5.94-.34,14.46.89,15.42,8.14.18,2.12-.13,4.01-1.06,5.95-2.33,30.12-7.74,74.63-11.61,108.92-3.1,23.63-5.01,47.43-9.84,70.84,0,0-.11.29-.11.29,0,0-.11.29-.11.29,0,0-.06.15-.06.15-.7,1.83-2.83,2.38-4.25,2.5-3.1.28-6.2-.08-9.15-.41-9.31-1.18-18.36-3.05-27.41-4.98-5.29-1.15-10.59-2.35-15.85-3.63-.08-.02,0,0-.04-.01l-.1-.02-.82-.15s-3.37-.6-3.37-.6c-47.38-8.37-95.63-16.89-143.13-24.14-9.09-1.36-18.25-2.8-27.3-3.57-4.55-.29-9.54-.59-13.93-3.13-5.26-2.9-6.05-9.14-4.14-13.17,5.87-42.44,12.53-91.93,17.89-134.28,0,0,.3-2.4.3-2.4.86-6.51,9-7.02,14.19-6.48h0Z"/><path class="cls-1" d="M438.04,415.7c.06-.07.28-.1.25-.09h.07s.13-.02.13-.02l.27-.03c.3,0,1.29-.14,1.61-.16,16.41-1.5,33.08-2.87,49.56-3.09,4.8.1,9.72-.24,14.43,1.18.76.31,1.55.78,1.87,1.61.2.38.14,1.01.12,1.43-.67,11.85-1.44,23.69-2.34,35.53-.98,11.61-1.67,22.97-3.66,34.56-.34,1.54-.58,3.27-1.57,4.64-.98,1.28-2.64,1.58-3.99,1.83-3.73.58-7.5.6-11.17.66-11.6.09-23.11-.45-34.66-1.26-4.37-.35-8.65-.68-13.03-1.25-.46-.09-1.13-.15-1.56-.4-2.17-.99-2.57-3.77-2.8-5.76-.49-6.08-.13-11.73.2-17.69,1.07-15.83,2.97-31.59,5.45-47.25.11-.57.43-2.61.54-3.2,0,0,.09-.53.09-.53.05-.22.04-.46.18-.72h0ZM438.46,416.12c.06.06.1-.05.08.09v.27s-.02.54-.02.54l-.03,1.08c-.2,8.78-.73,23.41-1.02,32.33-.24,8.58-.54,17.15-.43,25.71.12,3.43.06,6.98.87,10.06-.25-.49-.94-.96-1.59-1.04,1.48.18,3.02.3,4.57.43,8.31.62,17.41,1.46,25.68,1.95,9.26.56,20.09,1.54,28.57.47-.08.09-.18.14-.25.24-.02.03-.03.1,0,0,.32-.8.54-1.7.75-2.61,4.02-22.43,5.51-45.52,7.64-68.23,0,0,.09-1.07.09-1.07,0,0,.04-.51.04-.51-.03.18.06.47.19.55-1.56-.81-3.4-.89-5.22-1.14-17.04-1.32-34.45-.14-51.53.52-2.32.13-6.04.3-8.34.45,0,0-.13,0-.13,0,0,0-.07,0-.07,0-.07.01.1-.01.12-.08h0Z"/><path class="cls-1" d="M433.44,497.75s-5.77,62.62-5.77,62.62c-.04.48-.32.87-.71,1.1-.04.03-.23.21-.22.24-.04.04.02.01,0-.02.05-.05,0-.15.02-.2-.08-.28.06.09.56.28.45.23.97.44,1.5.58.43.13,1.28.36,1.73.44,7.4,1.3,15.2,1.9,22.67,3.03,9.97,1.37,21.55,2.95,30.69,4.35-.04,0-.04-.01-.06-.02-.04,0-.05-.01-.07,0-.04,0-.06,0-.08,0-.02.02-.01-.02,0,0,1.06-1.19,1.31-3.21,1.56-5.01.99-14.29,2.29-31.67,3.72-45.88.62-6.12,1.31-12.22,2.07-18.32,0,0,2.72,3.21,2.72,3.21-19.43-1.54-40.88-4.08-60.34-6.38h0ZM433.05,497.29c20.13-.01,40.96.11,61.08,1.02,1.67.06,2.93,1.56,2.72,3.21-.97,12.25-2.28,24.46-3.65,36.67-.89,7.57-1.8,15.28-2.56,22.86-.53,4.3-.34,9.08-3.68,12.51-1.21,1.09-2.97,1.6-4.56,1-7.4-1.16-20.42-3.5-29.73-4.98-7.66-1.38-15.18-2.13-22.84-3.71-.93-.23-2.08-.54-2.97-.94-1.28-.53-2.76-1.38-3.04-2.89-.25-1.28.6-2.47,1.64-3.09,0,0-.71,1.1-.71,1.1l8.31-62.75h0Z"/><path class="cls-1" d="M271.14,467.75c8.52-5.34,33.86-21.71,43.13-20.36.95.14,2.21.83,2.72,1.82,0,0,.33.54.33.54,2.94,4.58,12.45,11.27,17.94,11.45,0,0,.03,0,0,0-.1.03-.21.1-.27.19,0,0,.19-.23.19-.23,4.84-5.67,11.11-12.84,19.54-12.23,3.15.22,6.96,2.94,9.88,2.82,1.15-.05,1.89-.73,2.87-1.52,1.16-1,2.35-2.29,3.57-3.56,6.31-6.73,21.25-16.47,30.55-16.62,0,0,.27,0,.27,0l.51.02c2.94.01,3.91-3.25,6.69-4.16,1.49-.55,3.09-.17,4.58.03.45.09.95.08,1.66.44.61.4.81.72,1.14,1.02.95.93,1.96,1.79,3.01,2.62.27.21,0,.67-.32.51-1.51-.67-3.27-1.73-4.63-2.57-.69-.03-2.22.03-2.99.08-2.43.12-2.97,2.57-4.75,4.11-1.05,1.01-2.53,1.64-3.98,1.87-.34.04-.93.09-1.24.12,0,0-.24.04-.24.04,0,0-.48.08-.48.08-7.96,2.43-15.22,7.94-21.6,13.22-4.55,3.58-8.01,10.08-14.56,10.2-3.9.05-7.02-2.51-10.58-3.47-6.04-.6-11.57,5.46-15.65,9.84-3.21,3.54-9.31-.28-12.51-2.05-4.55-2.88-9.13-6.36-11.78-11.2-.01-.03-.03-.05-.05-.09-.1-.14-.75-.35-1.48-.33-4.23.21-8.3,1.92-12.35,3.49-9.91,4.11-19.42,9.18-28.81,14.39-.14.08-.33.03-.41-.11-.08-.14-.03-.31.1-.4h0Z"/><path class="cls-1" d="M271.05,530.74c-.19-.37-.21-.69-.22-.99.02-2.04.57-4.03,1.02-6,1.7-6.68,3.84-13.22,6.04-19.74.12-.36.61-.47.87-.19,0,0,3.02,3.04,3.02,3.04,0,0-.95.28-.95.28l4.07-22.02c.07-.4.46-.67.86-.59.32.06.56.32.6.63,0,0,6.91,48.67,6.91,48.67,0,0-2.23-.12-2.23-.12l6.71-28.76c.33-1.44,2.46-1.37,2.69.08,0,0,1.81,9.59,1.81,9.59.01.07.02.14.02.2,0,0,.95,21.04.95,21.04,0,0-3.08-.51-3.08-.51l9.25-24.59c.74-1.92,3.6-1.2,3.38.81-.41,4.5-1.16,9.35-.71,13.78-.01.03.05,0-.2-.32-.04-.05-.22-.24-.36-.3-.42-.37-1.51-.23-1.71,0-.23.16-.17.16-.19.15,1.25-3.03,1.9-6.45,2.7-9.69,1.95-8.58,3.66-17.27,5.29-25.95.46-2.38,3.98-2.15,4.11.27,0,0,2.71,41.39,2.71,41.39l-4.47-.77,7.13-17.08c.44-1.05,1.52-1.63,2.6-1.47,0,0,5.53.74,5.53.74l-2.73,1.76,5.57-19.46c.4-1.39,1.85-2.2,3.25-1.8,1.07.31,1.79,1.23,1.89,2.27,0,0,3.62,32.44,3.62,32.44l-4.77-1.9,7.84-6.83c1.24-1.08,3.11-.95,4.19.29.45.51.69,1.14.72,1.77,0,0,.73,9.97.73,9.97l-5.86-.83,6.75-18.72c.75-2.32,4.08-2.76,5.43-.77,2.11,2.9,4.17,5.84,6.25,8.76,0,0-5.5.94-5.5.94l5.71-19.33c.94-3.24,5.71-2.71,5.94.63.54,8.04,1.64,24.22,2.13,32.27,0,0-5.17-1.3-5.17-1.3.02-.06,11.56-17.82,11.58-17.87,1.39-2.22,4.94-1.01,4.72,1.57-.72,10.36-1.39,20.73-2.16,31.09,0,0-4.07-.96-4.07-.96,4.63-10.24,9.3-20.47,13.99-30.69.31-.77,1.2-1.13,1.96-.78.54.25.86.79.85,1.36l-.39,14.85s-1.66-.9-1.66-.9l4.97-3.07c.42-.29,1.02-.17,1.29.27.11.17.15.37.13.55-.58,6.75-1.18,13.5-1.83,20.25-.02.17-.16.29-.33.27-.16-.02-.27-.15-.27-.31.16-6.78.36-13.55.6-20.32,0,0,1.42.82,1.42.82l-4.8,3.34c-.7.5-1.7-.06-1.66-.9,0,0-.39-14.85-.39-14.85l2.8.58c-4.23,10.42-8.48,20.82-12.77,31.21-.45,1.08-1.68,1.59-2.76,1.15-.87-.36-1.36-1.22-1.3-2.11.37-10.38.83-20.76,1.25-31.14l4.75,1.52-11.16,18.06c-1.36,2.29-4.99,1.38-5.17-1.23.05-.04-1.37-16.13-1.33-16.19,0,0-1.26-16.12-1.26-16.12l5.94.63-5.59,19.37c-.47,1.64-2.19,2.59-3.83,2.12-.7-.2-1.27-.63-1.66-1.18-2.08-2.9-4.2-5.79-6.26-8.71l5.46-.74s-6.92,18.66-6.93,18.68c-1.13,3.04-5.66,2.33-5.85-.86,0,0-.63-9.97-.63-9.97l4.91,2.06-7.95,6.7c-1.69,1.56-4.62.36-4.77-1.9,0,0-3.09-32.49-3.09-32.49,0,0,5.14.47,5.14.47l-5.85,19.38c-.34,1.2-1.53,1.94-2.73,1.76,0,0-5.52-.82-5.52-.82l2.6-1.47-7.35,16.98c-.93,2.27-4.37,1.65-4.47-.77,0,0-2.21-41.42-2.21-41.42l4.11.27c-1.75,8.71-3.56,17.38-5.65,26.05-.91,3.49-1.6,6.97-3.07,10.35-1.14,2.58-4.24,2.25-4.58-.69-.4-5.01.4-9.68.9-14.57,0,0,3.38.84,3.38.84l-9.55,24.47c-.31.83-1.24,1.25-2.07.92-.61-.24-.99-.82-1.01-1.43l-.67-21.05.02.2s-1.66-9.62-1.66-9.62l2.69.08s-7.17,28.65-7.17,28.65c-.26,1.21-2.1,1.12-2.23-.12,0,0-6.12-48.78-6.12-48.78,0,0,1.46.04,1.46.04l-4.43,21.95c-.06.44-.66.61-.95.28,0,0-2.97-3.09-2.97-3.09,0,0,.87-.19.87-.19-2.3,6.46-4.54,12.96-6.33,19.57-.42,2.01-1.42,4.58-.96,6.56.17.33-.37.59-.53.26h0Z"/><path class="cls-1" d="M401.81,439.39c.38,7.04.53,14.75.51,21.82,0,3.62.5,7.28-.19,10.88-.67,3.7-1.62,7.25-3.49,10.64-.92,1.25-1.91-5.1-2.02-5.59-.54-3.64-.73-7.28-.05-10.9.64-3.1,1.31-7.59,1.77-10.76.86-5.22,1.82-10.96,2.88-16.13.06-.33.59-.31.6.04h0Z"/><path class="cls-1" d="M376.77,460.62c7.2-.58,15.08-.95,22.32-1.13,3.71-.1,7.44-.71,11.14-.12,3.8.56,7.47,1.4,11,3.18,1.3.89-5.17,2.05-5.66,2.18-3.71.64-7.43.94-11.15.37-3.2-.55-7.81-1.09-11.07-1.46-5.37-.71-11.28-1.51-16.6-2.42-.33-.05-.32-.58.03-.6h0Z"/><path class="cls-1" d="M383.04,449.2c.19-.17.43,0,.62.09,2.52,1.17,5.1,2.63,7.86,3.08.29,0,.25-.08.12.06-.04.03-.05.13-.03.04l.08-.29c.64-2.38,1.69-6.27,2.34-8.67.16-.65,1.02-.9,1.5-.44,0,0,9.42,7.64,9.42,7.64,0,0-1.42-.18-1.42-.18,4.98-2.64,9.99-5.22,15-7.81,1.77-.91,3.44,1.46,1.98,2.82,0,0-11.83,12.03-11.83,12.03l.54-.85-2.87,9.2c-.3.96-1.17,1.58-2.12,1.61h-.12s-2.58.07-2.58.07l2.31-3.2,1.51,4.15c.82,2.1-1.57,4.18-3.53,3.11,0,0-.14-.07-.14-.07l-7.67-3.96s3.91-1.26,3.91-1.26l-2.51,5.78c-.61,1.42-2.22,2.1-3.65,1.58-8.57-3.08-16.96-6.64-25.28-10.35-2.62-.94-2.14-4.82.62-5.06,5.77-.58,12.52-.92,18.19-1.82,0,0,.34-.07.34-.07.09-.02.2-.06.13,0-.08.06-.29.3-.32.44-.09.1-.11.71-.08.57-.57-2.47-1.53-5-2.26-7.45-.06-.23-.25-.56-.07-.77h0ZM383.45,449.64c.19-.09.1-.3.13-.25.03.05.15.23.18.28,1.37,2.15,2.72,4.3,3.84,6.61.22.47.46,1.08.21,1.61-.09.24-.37.55-.55.67-1.73,1.05-3.67,1.38-5.54,1.96-4.63,1.22-9.25,2.16-13.93,3.02l.62-5.06c8.55,2.93,17.06,6.03,25.37,9.59,0,0-3.83,1.52-3.83,1.52l2.86-5.62c.63-1.44,2.35-2.07,3.76-1.35.05.03.11.06.16.09l7.42,4.41s-3.67,3.04-3.67,3.04c0,0-1.28-4.22-1.28-4.22-.46-1.29.25-2.71,1.56-3.1.57-.2,2.73-.02,3.33-.04,0,0-2.24,1.61-2.24,1.61l3.31-9.05c.1-.33.3-.63.54-.85,0,0,12.38-11.46,12.38-11.46,0,0,1.98,2.82,1.98,2.82-5.15,2.36-10.29,4.73-15.47,7.04-.46.21-.99.11-1.34-.22l-8.94-8.2,1.5-.44-1.53,4.56c-.26.77-.9,2.68-1.15,3.42-.07.2-.22.67-.29.85-.03.15-.27.5-.46.58-.44.22-.71.15-.96.15-2.64-.55-4.94-2.06-7.27-3.31-.21-.12-.69-.41-.91-.53,0,0-.06-.04-.06-.04l-.03-.02h0c.09.06.27.01.33-.06h0Z"/><path class="cls-1" d="M300.89,414.09c.31,4.19.44,8.82.53,13.04,0,2.57,0,6.15.2,8.68.1,4.5-1.27,8.86-3.81,12.65-.15.21-.49.18-.6-.05-1.34-2.87-1.79-5.79-1.92-8.83-.17-2.92.86-5.71,1.37-8.54.37-2.13,1.21-6.4,1.67-8.51.62-2.83,1.24-5.66,1.96-8.48.07-.32.58-.28.6.05h0Z"/><path class="cls-1" d="M278.34,428.93c6.94-.49,14.54-.76,21.52-.86,3.57-.05,7.18-.62,10.73.02,3.66.61,7.18,1.5,10.54,3.31,1.25.89-5.01,1.99-5.49,2.11-3.58.6-7.17.85-10.75.23-3.07-.59-7.5-1.19-10.64-1.59-5.16-.77-10.84-1.64-15.95-2.62-.33-.06-.31-.58.03-.6h0Z"/><path class="cls-1" d="M289.13,437.15c1.78-1.14,3.34-2.38,5.08-3.47.32-.21.76-.02.84.35,0,0,3.44,11.12,3.44,11.12l-1.87-.19,4.26-9.21c.14-.31.4-.53.69-.64l.09-.04,6.31-2.4s-.23,2.94-.23,2.94l-4.8-2.33c-1.41-.63-1.23-2.81.22-3.24,0,0,8.7-3.44,8.7-3.44l.7,3.99-9.03.23c-1.07.03-1.97-.7-2.21-1.7-1.05-4.4-2.1-8.8-3.22-13.18,0,0,5.22.26,5.22.26-.84,3.06-1.98,7.3-2.87,10.29-.49,1.73-2.44,2.64-4.08,1.93-2.71-1.03-5.4-2.09-8.06-3.24-2.67-1.13-5.32-2.3-7.95-3.52l2.52-4.9c3.93,2.79,7.81,5.64,11.61,8.6.74.46,1.13,1.39.66,2.17-1.86,3.23-4.21,6.02-6.01,9.63h0ZM288.73,437.6c1.14-3.5,1.86-7.75,3.22-11.47,0,0,.66,2.17.66,2.17-4.29-2.19-8.52-4.5-12.71-6.87-1.32-.76-1.77-2.44-1.01-3.76.72-1.25,2.25-1.69,3.52-1.14,4.11,1.42,8.19,2.9,12.23,4.52,1.35.52,2.68,1.1,4.02,1.65l-4.08,1.93c1.02-3.03,2.57-7.23,3.67-10.27.91-2.57,4.73-2.19,5.15.46.75,4.42,1.56,8.83,2.38,13.24l-2.24-1.81,9.03.23s.11,0,.11,0c2.27.06,2.73,3.29.58,3.99,0,0-8.89,2.91-8.89,2.91l.22-3.24,4.64,2.63.09.05c1.2.63.97,2.55-.32,2.89,0,0-6.46,1.97-6.46,1.97l.78-.68-4.92,8.88c-.25.52-.88.74-1.39.45-.26-.14-.43-.38-.49-.65l-2.6-11.35.84.35c-1.96,1.05-4.11,1.95-6.05,2.92h0Z"/><path class="cls-1" d="M479.43,376.58c.38-21.76,1-45.61,1.76-67.44.19-5.62.28-11.24.4-16.86.24-11.25,1.32-22.45,2.79-33.61.74-5.59,1.59-11.17,2.77-16.73.03-.16.2-.27.36-.23.13.03.23.14.24.27.54,5.66.75,11.3.84,16.93.18,11.26-.03,22.5-1.07,33.71-.52,5.6-1.08,11.19-1.53,16.8-.66,8.37-2.08,25.24-2.83,33.61-1.05,11.2-2.01,22.4-3.13,33.59-.02.17-.16.29-.33.27-.16-.02-.27-.15-.27-.3h0Z"/><path class="cls-1" d="M497.81,383.18c-1.45-22.38-2.82-46.95-3.89-69.44-.28-5.79-.67-11.57-1.02-17.36-.7-11.58-.56-23.18-.04-34.77.27-5.8.65-11.61,1.36-17.42.02-.17.17-.28.34-.26.14.02.24.12.26.25,1.01,5.77,1.69,11.55,2.26,17.33,1.12,11.55,1.86,23.12,1.76,34.72-.05,5.8-.14,11.59-.12,17.39.04,8.66.04,26.11,0,34.77-.1,11.59-.12,23.18-.3,34.78,0,.17-.14.3-.3.3-.16,0-.28-.13-.29-.28h0Z"/><path class="cls-1" d="M496.51,235.48c-.39,6.79-7.13,10.63-12.77,5.99-3.6-3.09-3.85-9.02-.69-12.67,2.36-2.87,7.01-3.78,10.12-1.61,2.71,1.75,3.6,5.58,3.34,8.29h0ZM495.91,235.48c-.22-3.15-3.58-4.2-6.18-3.48-1.83.4-3.8,1.35-4.08,3.48-.33,2.14,1.4,4.66,4.08,4.98,2.91.55,6.51-1.56,6.18-4.98h0Z"/><path class="cls-1" d="M477.76,240.66c-.02.06.07.13.04.12l-.12-.04s-.24-.08-.24-.08c-3.65-1.04-7.77-1.5-11.39-.19-1.3.45-2.2,1.14-3.32,2.01-4.53,3.36-9.16,6.36-13.79,9.45-6.41,4.18-18.15,11.72-24.55,15.7,0,0-1.51.95-1.51.95,1.19-.93.21-2.71-1.13-2.39.72-.21,2.48-.75,3.23-.97,2.47-.75,9.34-2.91,11.9-3.72,7.62-2.43,16.19-4.62,23.98-6.55,2.42-.65,5.02-1.14,7.31-2.13,3.91-2.56,6.86-7.78,9.31-11.92,0,0,.13-.23.13-.23.02-.03.05-.1.06-.09,0,.03.03.08.08.09h0ZM478.31,240.41c.04.14,0,.34-.04.49-.03.13-.13.64-.17.78-1.47,5.43-3.02,10.48-7.47,14.57-2.44,1.8-5.43,2.62-8.19,3.75-10.29,3.85-21.35,6.72-32.08,9.12-1.24.28-4.85,1.14-6.08,1.44,0,0-1.01.24-1.01.24l-.25.06c-1.94.61-4.18-.96-4.31-2.92-.22-1.43.7-2.92,1.98-3.5,3.01-1.69,9.14-5.15,12.22-6.89,8.46-4.84,20.65-11.46,28.75-16.57,4.56-3.55,10.91-2.91,16-.93.2.11.5.14.66.36h0Z"/><path class="cls-1" d="M495.07,225.59c-2.69,1.87-6.72.5-7.75-2.61-.47-1.28-.33-3.19-.44-4.52,0,0-.24-4.47-.24-4.47-.45-9.73-.93-19.65,1.33-29.27.32-1.41,1.1-5.04,1.41-6.49,1.19-5.78,2.28-11.62,3.24-17.44.22-1.35,1.5-2.27,2.85-2.05,1.17.19,2,1.16,2.08,2.29,1.26,10.77,2.56,21.5,2.52,32.36,0,8.14-1.02,16.35-2.3,24.41-.36,2.03-.67,4.07-1.41,6.02-.26.63-.59,1.37-1.27,1.77h0ZM494.73,225.09c3.92-4.14-.41-24.98-.54-31.47-.92-10.68-1.05-21.45-1.61-32.15,0,0,4.93.24,4.93.24-1.92,8.74-3.99,17.48-6.51,26.06-1.98,8.49-2.26,17.47-2.99,26.22-.1,1.48-.16,2.97-.22,4.45.03,1.21-.24,3.2.11,4.34.78,2.81,4.52,4.09,6.84,2.3h0Z"/><path class="cls-1" d="M496.91,243.02c9.04,13.42,20.6,26.73,36.6,31.51,4.02,1.3,8.19,2.7,12.34,2.47,0,0,.38-.05.38-.05.25-.05.55-.13.73-.23.01,0,.03-.02.04-.02-.02,0-.03,0-.04.02,0,0-.07.05-.1.09-.13.16-.19.26-.28.49,0,0,.4,2.37.4,2.37-7.24-8.21-15.23-15.92-22.91-23.68-3.76-3.66-7.73-7.56-12.15-10.23-1.1-.64-2.23-1.01-3.45-1.36-3.62-.93-7.91-2.46-11.56-1.25,0,0-.04.02-.04.02,0,0-.04.03,0-.01.03-.04.04-.09.04-.14h0ZM496.31,242.97c.03-.16.18-.3.3-.42,2.29-1.81,5.48-1.81,8.25-1.9,2.2.07,4.34.18,6.51.6,3.75.82,7.06,3,10.05,5.03,6.95,4.94,13.06,10.95,18.6,17.33,3.67,4.26,7.17,8.6,10.68,13.01,1.29,1.61.1,3.59-1.52,4.32-2.73,1.28-6.05.64-8.78.04-8.44-2.2-16.5-5.7-23.21-11.28-8.16-6.92-14.62-15.45-19.84-24.69-.27-.55-.85-1.44-1.03-2.04h0Z"/><path class="cls-1" d="M567.24,428.21c.18-18.3.59-38.37,1.15-56.73.14-4.72.17-9.46.24-14.19.14-9.47,1.12-18.88,2.48-28.26.69-4.69,1.49-9.38,2.62-14.05.04-.16.2-.26.37-.22.13.03.22.14.23.26.59,4.77.85,9.51,1,14.26.28,9.47.18,18.93-.76,28.35-.47,4.71-.98,9.41-1.38,14.12-.59,7.04-1.85,21.22-2.52,28.25-.94,9.41-1.8,18.83-2.82,28.24-.02.16-.17.28-.33.27-.15-.02-.27-.15-.27-.3h0Z"/><path class="cls-1" d="M582.7,433.76c-1.35-18.82-2.63-39.47-3.61-58.38-.25-4.87-.62-9.73-.95-14.59-.65-9.74-.47-19.49.11-29.24.29-4.88.7-9.76,1.43-14.66.02-.17.18-.28.35-.26.13.02.23.12.25.24.99,4.85,1.64,9.7,2.19,14.56,1.07,9.71,1.76,19.43,1.61,29.2-.08,4.87-.19,9.75-.19,14.62,0,7.28-.07,21.96-.15,29.24-.15,9.75-.22,19.5-.45,29.25,0,.17-.14.3-.31.29-.16,0-.28-.13-.29-.28h0Z"/><path class="cls-1" d="M581.7,309.56c-.38,5.89-6.01,9.25-11.01,5.26-5.26-4.4-1.99-14.33,5.26-13.71,4.32.25,6.24,4.89,5.75,8.45h0ZM581.1,309.56c-.27-2.65-3.07-3.27-5.15-2.45-1.28.41-2.77.86-3.05,2.45-.32,1.59.92,3.62,3.05,3.95,2.36.55,5.47-1.08,5.15-3.95h0Z"/><path class="cls-1" d="M565.66,314.18c.03-.13.03-.24-.21-.31-3.53-1.22-7.83-1.66-11.08.49-4.27,3.42-8.7,6.62-13.22,9.62-5.59,3.67-15.77,10.28-21.35,13.76-.28.18-1.85,1.17-2.15,1.36,1.67-1.15.56-3.76-1.41-3.42,0,0-.15.03-.15.03.73-.22,2.23-.67,2.98-.9,10.24-3.24,20.78-6.78,31.33-8.77,1.57-.31,4.58-.86,6.12-1.2,1.25-.23,2.28-.78,3.36-1.79,2.57-2.42,4.4-5.61,5.78-8.87h0ZM566.22,314.4c-1.27,3.46-2.57,6.97-4.61,10.13-.82,1.32-2.21,2.77-3.84,3.53-10.51,5.47-22.36,8.25-33.86,10.8-1.1.24-4.23.97-5.31,1.22,0,0-.88.21-.88.21-1.96.71-4.13-.66-4.04-2.85.01-1.16.88-2.15,1.78-2.55,3.02-1.67,8.39-4.68,11.47-6.4,7.71-4.42,18.5-10.13,26.06-14.53,2.92-1.95,6.64-1.92,9.96-1.29.9.18,1.79.39,2.67.67.12.02.42.16.53.36.13.2.15.47.07.69h0Z"/><path class="cls-1" d="M580.47,301.28c-2.29,1.58-5.7.42-6.59-2.22-.4-1.09-.29-2.69-.4-3.82,0,0-.24-3.76-.24-3.76-.57-8.8-.89-17.82,1.33-26.5,1.28-6.03,2.45-12.24,3.41-18.31.47-2.81,4.55-2.73,4.91.09,1.11,9.11,2.32,18.18,2.21,27.38-.04,6.86-1.1,13.78-2.29,20.55-.33,1.71-.61,3.43-1.25,5.07-.22.53-.51,1.17-1.1,1.51h0ZM580.12,300.79c3.31-3.83-.76-20.71-.89-26.4-.85-8.97-.87-18.03-1.28-27.02,0,0,4.93.24,4.93.24-1.66,7.35-3.42,14.7-5.58,21.91-1.7,7.11-1.98,14.65-2.69,21.98-.13,1.81-.24,3.8-.29,5.62-.02.64-.03,1.2.13,1.76.64,2.34,3.75,3.41,5.68,1.91h0Z"/><path class="cls-1" d="M582.03,315.9s.08.02.09.03c.04.06.29.43.35.51,2.46,3.56,5.18,6.97,8.09,10.17,6.05,6.49,13.3,12.88,21.88,15.28,4.15,1.12,8.8,1.47,13.04,1.15,0,0-1.68,3.91-1.68,3.91-5.24-5.98-13.65-14.02-19.3-19.8-3.5-3.35-7.01-7.18-11.31-9.29-1.52-.57-3.21-1.06-4.8-1.45-2.07-.44-4.31-1.06-6.37-.37,0,0-.04.02-.04.02,0,0-.04.03,0-.02.03-.04.05-.1.04-.14h0ZM581.44,315.85c.01-.11.1-.21.17-.29,1.88-1.71,4.7-1.74,7.09-1.87,1.87.03,3.68.09,5.53.42,5.62,1.37,10.05,5.12,14.35,8.65,7.27,6.22,13.01,13.72,18.93,21.16.89,1.01.78,2.58-.29,3.41-.41.33-.9.49-1.39.5-5.05.08-9.79-.56-14.55-2.12-12.62-4.38-23.8-18.38-29.84-29.85h0Z"/><path class="cls-1" d="M362.31,576c.47,6.74.78,13.47,1.17,20.21,0,0-.99-1.39-.99-1.39,11.12,3.27,23.22,6.82,34.29,10.06,0,0-4.12,2.99-4.12,2.99-.16-6.76.29-13.53,1.19-20.24.3-2.25.68-4.5,1.21-6.76.06-.3.53-.31.6,0,1.96,7.72,2.76,15.62,3.16,23.55.02,1.16.07,2.32.06,3.49.02,2.08-2.18,3.6-4.12,2.87-10.72-4.25-22.46-8.91-33.23-13.16-.61-.19-1.04-.77-.99-1.39.39-6.74.7-13.47,1.17-20.21.04-.35.56-.38.6,0h0Z"/><path class="cls-1" d="M350.33,590.24l-46.38,14.62.88-1.18s.12,6.71.12,6.71l-.94-1.28,79.52,23.99-3.36,2.46-.14-8.3c-.02-1.19.74-2.2,1.81-2.56,12.6-4.78,28.17-10.59,40.88-14.85,0,0,13.76-4.58,13.76-4.58l.12,5.15c-11.26-3.78-22.88-7.79-33.99-11.89-.51-.14-.88-.58-.9-1.09-.22-4.79-.42-9.58-.52-14.38-.03-.35.55-.42.6-.06.89,4.72,1.69,9.45,2.46,14.18,0,0-.9-1.09-.9-1.09,8.75,2.14,17.46,4.4,26.15,6.77,0,0,8.68,2.37,8.68,2.37,1.43.39,2.27,1.87,1.88,3.3-.25.91-.93,1.57-1.77,1.85,0,0-13.56,5.14-13.56,5.14-7.8,2.99-19.31,6.93-27.32,9.69,0,0-13.75,4.6-13.75,4.6l1.81-2.56s-.14,8.3-.14,8.3c.05,1.72-1.74,3.03-3.36,2.46,0,0-78.77-26.34-78.77-26.34-.57-.17-.95-.71-.94-1.28,0,0,.12-6.71.12-6.71,0-.56.36-1.04.88-1.18,0,0,46.91-12.85,46.91-12.85.38-.1.53.46.17.58h0Z"/><path class="cls-1" d="M303.69,603.4c13,2.97,27.21,6.43,40.17,9.77,3.33.86,6.7,1.61,10.06,2.4,6.72,1.59,13.2,3.96,19.54,6.72,3.18,1.38,6.32,2.88,9.38,4.68.15.09.2.28.11.42-.06.1-.17.16-.28.15-3.54-.16-6.99-.63-10.41-1.21-3.42-.56-6.8-1.28-10.15-2.09-6.72-1.56-13.1-4.26-19.61-6.47,0,0-9.78-3.33-9.78-3.33-9.45-3.31-19.86-6.99-29.19-10.46-.16-.06-.23-.23-.18-.39.05-.14.2-.22.35-.19h0Z"/><path class="cls-1" d="M382.63,635.28c8.71-4.32,17.48-8.53,26.32-12.57,6.67-2.93,12.99-6.69,20.07-8.58,2.34-.69,4.7-1.29,7.12-1.78l-1.13,1.52c.59-2.06,1.21-4.09,2.07-6.08.07-.16.25-.23.41-.17.1.04.16.13.18.22.24,1.07.44,2.13.57,3.18.17,1.06.25,2.11.37,3.17.05.48-.18.92-.56,1.16-4.34,2.71-8.85,5.12-13.61,6.95-9.22,3.05-18.44,6.13-27.68,9.16-4.64,1.46-9.26,2.98-13.92,4.37-.16.05-.33-.04-.37-.2-.04-.14.03-.29.15-.35h0Z"/><path class="cls-1" d="M311.34,669.24c-.04,4.63.93,13.34,7.33,11.95,0,0,1.32-.3,1.32-.3,7.97-2,15.87-4.48,23.64-7.14,5.15-1.77,10.11-3.97,15.05-6.16,2.27-1.05,4.68-2.02,6.48-3.49,2.54-3.4,5.59-7.68,4.53-12.07-.41-1.08-.86-2.18-1.23-3.28-.05-.16.03-.34.19-.39.11-.04.23,0,.31.07,1.03,1.05,2.15,2.01,2.95,3.24,2.63,4.78.65,10.56-1.76,14.95-4.35,7.11-17.57,9.5-25.11,11.73-3.6.96-7.21,1.84-10.83,2.66-4.55.97-9.11,1.92-13.73,2.55-3.27.63-6.64.03-8.36-3.11-1.03-1.81-1.39-3.75-1.56-5.63-.14-1.9-.07-3.77.19-5.63.07-.38.61-.32.6.06h0Z"/><path class="cls-1" d="M209.52,615.35c18.57,7.23,40.66,15.89,59.16,23.29,0,0-1.14-.08-1.14-.08,12.18-3.46,36.68-10.48,48.84-14,.46-.11.92-.1,1.4-.23.25-.05.48-.16.39-.14-.02.02-.23.08-.53.49-.09.12-.13.22-.2.37-.18.36-.22,1.04-.13,1.34.06.2.15.44.22.54.03.03,0,.01-.02,0-3.8-2.55-8.66-3.85-12.94-5.56-12.55-4.71-24.92-9.87-37.21-15.24-24.51-11.01-24.82-11.46,1.32-3.53,12.81,4.01,25.56,8.26,38.14,12.95,4.13,1.72,14.89,4.91,16.07,9.45.18.6.14,1.6-.17,2.26-.31.85-1.35,1.73-1.85,1.93-1.45.69-2.24.72-3.66.83,0,0,.58-.09.58-.09l-24.69,6-24.67,6.06c-.39.11-.8.08-1.14-.08-12.95-5.71-30.62-13.66-43.53-19.46,0,0-14.48-6.55-14.48-6.55-.15-.07-.22-.25-.15-.4.07-.15.23-.21.38-.16h0Z"/><path class="cls-1" d="M156.18,341.83c5.04-4.78,12.29-8.36,19.35-6.51,2.33.59,4.47,1.79,6.35,3.25,3.61,2.83,7.55,5.24,11.6,7.43,9.99,5.19,25.02,11.97,36.39,10.66,9.78-2.24,17.29-9.42,24.09-16.45,3.19-3.31,6.26-6.78,9.59-10.12,3.49-3.37,7.27-7.14,12.29-8.1,5.46-1,10.44,3.36,12.92,7.72,1.27,2.11,2.27,4.29,3.24,6.39,1.3,2.49,2.36,6.01,4.8,6.95,3.48.58,7.03,1.15,10.41,2.45,2.34.91,4.73,2.25,6.58,4.38,2.68,3.43,5.03,7.36,8.96,9.19,5.89,2.65,11.65-1.17,16.33-5.25,6.81-6.03,11.91-13.58,17.17-21.06,5.43-7.83,12.44-16.77,22.64-18.43,16.83-2.83,27.95,8.56,37.02,20.82,2.91,3.43,7.74,11.34,12.52,10.36,8-1.91,17-4.88,24.32.82,3.13,2.32,6.78,3.48,10.4,4.99,20.31,7.75,44.78,15.93,65.45,23.18.16.05.24.22.19.38-.05.15-.21.23-.36.19-22.5-5.74-44.94-11.76-66.95-19.25-3.5-1.29-6.74-2.3-10.12-4.16-2.56-1.73-5.15-3.27-8.22-3.21-4.16.04-8.67,1.55-12.85,2.6-5.93,1.95-11.33-2.55-14.75-6.59-8.41-9.62-15.76-22.91-29.52-24.4-11.82-1.65-19.13,7.04-25.47,15.82-5.41,7.41-10.97,15.28-18.33,21.57-10.39,9.17-21.43,10.24-29.73-2.13-3.2-5.71-8.69-6.95-14.79-8.07,0,0-.84-.15-.84-.15-1.88-.16-3.77-1.42-4.83-2.89-4.69-6.14-6.11-19.24-15.65-18.8-4.02.74-7.56,4.16-10.58,7-3.27,3.18-6.41,6.6-9.7,9.91-7.02,7.02-14.98,14.12-24.93,16.49-11.44,2.04-28.49-5.98-38.43-11.48-4.05-2.31-7.99-4.84-11.63-7.81-1.74-1.42-3.71-2.57-5.87-3.17-6.69-1.9-13.7,1.46-18.65,5.92-.12.12-.32.12-.44,0-.11-.12-.1-.3.01-.42h0Z"/></svg>