<svg width="239" height="42" viewBox="0 0 239 42" fill="none" xmlns="http://www.w3.org/2000/svg">
<g clip-path="url(#clip0_2870_19061)">
<path d="M137.293 5.32332H139.935C141.045 5.32332 141.454 5.74502 141.454 6.54949C141.454 7.25233 141.138 7.72563 140.519 7.90339C140.986 8.03101 141.29 8.51735 141.29 9.04078C141.29 10.3833 140.297 10.9197 139.186 10.9197H136.253L137.305 5.32167H137.293V5.32332ZM138.029 9.57871H139.033C139.314 9.57871 139.7 9.47697 139.7 9.01653C139.7 8.60777 139.419 8.54314 139.093 8.54314H138.228L138.019 9.57871H138.029ZM138.415 7.49627H139.303C139.559 7.49627 139.864 7.39445 139.864 7.04878C139.864 6.70301 139.666 6.66581 139.385 6.66581H138.567L138.415 7.49627ZM142.038 8.08434C142.272 6.99863 143.031 6.75469 143.931 6.75469C144.61 6.75469 145.743 6.84358 145.743 7.82745C145.743 8.46721 145.288 10.2815 145.288 10.5497C145.323 10.8696 145.288 10.729 145.346 10.9197H143.956C143.921 10.792 143.897 10.6644 143.908 10.5238H143.897C143.64 10.8567 143.161 11.0101 142.751 11.0101C142.109 11.0101 141.547 10.7161 141.547 9.93742C141.547 8.86466 142.272 8.57058 143.335 8.4931C143.745 8.45426 144.387 8.51889 144.387 8.01971C144.387 7.73857 144.154 7.66264 143.932 7.66264C143.652 7.66264 143.453 7.77741 143.371 8.08434H142.038ZM143.417 10.1038C143.884 10.1038 144.083 9.72091 144.176 9.1199C143.943 9.24752 143.674 9.27342 143.417 9.29921C143.183 9.31216 142.961 9.45272 142.961 9.74671C142.961 10.0408 143.195 10.1038 143.417 10.1038ZM146.012 10.9084H147.426L147.764 9.20879C147.929 8.36548 148.232 8.08434 148.828 8.08434C149.004 8.08434 149.202 8.11013 149.378 8.18607L149.635 6.80638C149.518 6.76764 149.378 6.75469 149.133 6.75469C148.783 6.75469 148.314 7.06162 148.057 7.48333H148.045L148.161 6.84357H146.795L146.012 10.9197V10.9067V10.9084ZM153.411 8.39127C153.422 7.25388 152.663 6.75634 151.634 6.75634C150.209 6.75634 149.389 7.77895 149.389 9.15864C149.389 9.92611 149.706 11.0247 151.282 11.0247C152.358 11.0247 153.036 10.4495 153.27 9.29921H151.914C151.832 9.51572 151.68 9.88728 151.295 9.88728C150.885 9.88728 150.804 9.5303 150.804 9.14579C150.804 8.76129 150.968 7.86784 151.587 7.86784C151.751 7.86784 151.868 7.90658 151.937 7.99546C152.019 8.07139 152.054 8.20066 152.054 8.39127H153.411ZM157.456 9.73386C157.362 10.0021 157.081 11.0117 155.479 11.0117C154.17 11.0117 153.633 10.2072 153.633 9.22328C153.633 7.3702 154.942 6.75634 155.853 6.75634C156.683 6.75634 157.677 7.25388 157.677 8.53184C157.677 8.74834 157.677 8.97934 157.608 9.23458H154.965C154.965 9.66923 155.094 10.0262 155.55 10.0262C155.855 10.0262 156.018 9.87279 156.1 9.73222H157.456V9.73386ZM156.346 8.43011L156.357 8.30239C156.357 7.98251 156.181 7.74021 155.82 7.74021C155.434 7.74021 155.189 7.99546 155.084 8.43011H156.346ZM157.982 10.91H159.395L160.448 5.32496H159.045L157.982 10.91ZM162.692 6.75634C163.78 6.75634 164.492 7.30566 164.492 8.53184C164.492 9.5674 163.966 11.0117 162.259 11.0117C161.23 11.0117 160.388 10.4753 160.388 9.1199C160.388 7.76446 161.172 6.75634 162.69 6.75634H162.692ZM162.318 9.88728C162.88 9.88728 163.078 8.99228 163.078 8.63521C163.078 8.14897 162.962 7.86784 162.587 7.86784C162.014 7.86784 161.816 8.81297 161.816 9.23458C161.816 9.55446 161.921 9.88573 162.318 9.88573V9.88728ZM164.716 10.91H166.118L166.527 8.76283C166.62 8.34122 166.76 7.99546 167.229 7.99546C167.451 7.99546 167.614 8.12308 167.614 8.37832C167.614 8.54478 167.545 8.81297 167.498 9.05527L167.148 10.9084H168.55L169.017 8.60777C169.065 8.32664 169.11 8.01971 169.11 7.8404C169.11 7.04877 168.548 6.75469 167.906 6.75469C167.456 6.76117 167.032 6.98578 166.749 7.36865H166.736L166.841 6.85807H165.475L164.716 10.9084V10.91ZM169.893 8.08598C170.115 7.00028 170.875 6.75634 171.787 6.75634C172.453 6.75634 173.586 6.84522 173.586 7.82909C173.586 8.46885 173.142 10.2831 173.142 10.5513C173.165 10.8712 173.142 10.7306 173.189 10.9213H171.81C171.774 10.7937 171.751 10.6661 171.751 10.5255C171.493 10.8583 171.015 11.0117 170.594 11.0117C169.963 11.0117 169.389 10.7177 169.389 9.93897C169.389 8.8663 170.126 8.57222 171.189 8.49464C171.587 8.4559 172.23 8.52053 172.23 8.02135C172.23 7.74021 171.996 7.66428 171.785 7.66428C171.492 7.66428 171.294 7.77895 171.223 8.08598H169.879H169.89H169.893ZM171.26 10.1054C171.739 10.1054 171.938 9.72256 172.019 9.12155C171.787 9.24917 171.529 9.27496 171.272 9.30085C171.038 9.3138 170.805 9.45437 170.805 9.74835C170.805 10.0424 171.038 10.1054 171.26 10.1054ZM139.548 15.9844H140.997C141.033 14.6177 140.051 14.1702 138.964 14.1702C137.936 14.1702 136.814 14.7583 136.814 16.0103C136.814 16.9425 137.421 17.3011 138.043 17.5306C138.744 17.7858 139.27 17.8375 139.27 18.2463C139.27 18.6162 138.896 18.7956 138.58 18.7956C138.323 18.7956 138.135 18.7697 137.995 18.6421C137.878 18.5145 137.807 18.3222 137.807 18.0023H136.288C136.219 19.4337 137.281 20.0218 138.45 20.0218C139.619 20.0218 140.752 19.382 140.752 18.0411C140.752 17.3771 140.46 16.852 139.572 16.5079C139.069 16.3028 138.298 16.2785 138.298 15.8681C138.298 15.4853 138.648 15.4077 138.905 15.4077C139.093 15.4077 139.256 15.4336 139.372 15.5353C139.489 15.6242 139.559 15.7648 139.548 15.9957V15.9829V15.9844ZM145.58 15.831H144.142L143.826 17.4918C143.709 18.0023 143.685 18.7697 143.043 18.7697C142.833 18.7697 142.633 18.6291 142.633 18.3868C142.633 18.3868 142.633 18.1703 142.693 17.9522L143.102 15.831H141.699C141.255 18.067 141.138 18.5662 141.138 18.9103C141.138 19.6906 141.676 19.996 142.319 19.996C142.782 20.0008 143.221 19.7747 143.511 19.382H143.535L143.418 19.8925H144.785L145.568 15.8294H145.58V15.831ZM146.398 15.831H147.766L147.684 16.2915C147.942 15.9085 148.246 15.7292 148.689 15.7292C149.741 15.7292 150.046 16.6743 150.046 17.39C150.046 18.6033 149.496 19.9975 148.234 19.9975C147.825 19.9975 147.416 19.9458 147.113 19.3965L146.774 21.2109H145.36L146.4 15.8439V15.831H146.398ZM148.62 17.5823C148.62 17.1865 148.527 16.8536 148.117 16.8536C147.486 16.8536 147.37 17.8375 147.37 18.2075C147.37 18.3481 147.417 18.8715 147.884 18.8715C148.446 18.8715 148.631 18.1041 148.631 17.5806H148.62V17.5823ZM154.277 18.7067C154.184 18.9879 153.903 19.9975 152.289 19.9975C150.98 19.9975 150.454 19.193 150.454 18.2091C150.454 16.3432 151.751 15.7292 152.675 15.7292C153.493 15.7292 154.498 16.2398 154.498 17.5176C154.498 17.7228 154.498 17.9651 154.417 18.2075H151.775C151.775 18.6421 151.915 18.9992 152.36 18.9992C152.664 18.9992 152.839 18.8586 152.909 18.718H154.277V18.7051V18.7067ZM153.155 17.403L153.167 17.2753C153.167 16.9683 152.991 16.726 152.629 16.726C152.267 16.726 152.01 16.9813 151.893 17.403H153.155ZM154.757 19.8942H156.183L156.499 18.1946C156.663 17.3383 156.966 17.0572 157.563 17.0572C157.751 17.0572 157.937 17.096 158.113 17.159L158.382 15.7922C158.254 15.7405 158.113 15.7276 157.879 15.7276C157.517 15.7276 157.049 16.0346 156.792 16.4691L156.908 15.8294H155.53L154.759 19.8925L154.757 19.8942ZM162.156 17.3771C162.18 16.2398 161.408 15.7292 160.379 15.7292C158.965 15.7292 158.147 16.7519 158.147 18.1445C158.147 18.9119 158.463 19.9975 160.029 19.9975C161.105 19.9975 161.783 19.4354 162.017 18.2722H160.672C160.591 18.5015 160.439 18.8731 160.041 18.8731C159.643 18.8731 159.562 18.5032 159.562 18.1187C159.562 17.7341 159.726 16.8536 160.334 16.8536C160.51 16.8536 160.626 16.8924 160.684 16.9813C160.777 17.0459 160.8 17.1735 160.8 17.3641H162.146L162.156 17.3771ZM164.669 15.7292C165.769 15.7292 166.481 16.2785 166.481 17.5176C166.481 18.5404 165.955 19.9975 164.237 19.9975C163.22 19.9975 162.389 19.4612 162.389 18.0928C162.389 16.7244 163.161 15.7292 164.668 15.7292H164.669ZM164.308 18.8731C164.857 18.8731 165.067 17.9781 165.067 17.621C165.067 17.1348 164.95 16.8536 164.565 16.8536C164.003 16.8536 163.805 17.7858 163.805 18.2075C163.805 18.5404 163.898 18.8715 164.308 18.8715V18.8731ZM166.693 19.8958H168.118L168.573 17.5693C168.633 17.2124 168.807 16.9683 169.159 16.9683C169.393 16.9683 169.521 17.096 169.521 17.3513C169.521 17.453 169.485 17.6065 169.462 17.7212L169.029 19.8942H170.454L170.933 17.4401C170.993 17.1331 171.191 16.9668 171.471 16.9668C171.705 16.9668 171.845 17.0944 171.845 17.3496C171.845 17.4773 171.764 17.8731 171.752 17.9507L171.379 19.8925H172.781L173.236 17.5791C173.26 17.3997 173.317 17.1186 173.317 16.9392C173.317 16.0959 172.85 15.726 172.124 15.726C171.634 15.726 171.212 15.9813 170.909 16.403C170.815 15.8924 170.394 15.726 169.904 15.726C169.413 15.726 169.027 15.9813 168.735 16.3658L168.827 15.8294H167.449L166.678 19.8925H166.689L166.693 19.8958ZM174.372 15.8326H175.751L175.658 16.293H175.67C175.915 15.9101 176.231 15.7308 176.662 15.7308C177.715 15.7308 178.019 16.676 178.019 17.3917C178.019 18.6049 177.469 19.9992 176.207 19.9992C175.799 19.9992 175.389 19.9475 175.086 19.3982L174.77 21.2254H173.343L174.384 15.8585L174.372 15.8326ZM176.593 17.5839C176.593 17.1881 176.5 16.8553 176.091 16.8553C175.46 16.8553 175.343 17.8392 175.343 18.2091C175.343 18.3497 175.391 18.8731 175.857 18.8731C176.43 18.8731 176.606 18.1057 176.606 17.5823H176.593V17.5839ZM182.835 15.8326H181.421L181.095 17.4934C180.978 18.004 180.955 18.7714 180.311 18.7714C180.101 18.7714 179.902 18.6308 179.902 18.3885C179.902 18.3885 179.902 18.172 179.961 17.9538L180.382 15.8326H178.956C178.535 18.0686 178.407 18.5678 178.407 18.9119C178.407 19.6922 178.944 19.9975 179.587 19.9975C180.05 20.0024 180.489 19.7762 180.779 19.3837H180.803L180.687 19.8942H182.054L182.837 15.831L182.835 15.8326ZM185.523 14.6064H184.109L183.852 15.8326H183.245L183.035 16.7907H183.666L183.339 18.4515C183.304 18.6437 183.258 18.7972 183.258 19.0137C183.255 19.3255 183.401 19.6163 183.644 19.781C183.924 19.9475 184.239 19.9475 184.544 19.9475L185.315 19.8457L185.525 18.7212L185.057 18.7471C184.836 18.7471 184.765 18.6324 184.765 18.5048C184.765 18.3772 184.812 18.2366 184.834 18.0961L185.08 16.7923H185.839L186.038 15.8342H185.266L185.523 14.608V14.6064ZM186.588 15.8326H188.013L187.23 19.8958H185.828L186.588 15.8326ZM188.083 15.398H186.668L186.878 14.3123H188.293L188.083 15.398ZM188.035 19.8958H189.45L189.871 17.7486C189.952 17.3141 190.104 16.9683 190.549 16.9683C190.783 16.9683 190.959 17.096 190.959 17.3513C190.959 17.5306 190.889 17.7988 190.841 18.0281L190.48 19.8942H191.894L192.349 17.5936C192.408 17.2996 192.442 17.0055 192.442 16.8262C192.442 16.0346 191.88 15.7276 191.238 15.7276C190.785 15.7373 190.362 15.9667 190.081 16.3545L190.174 15.8439H188.806L188.035 19.8942V19.8958ZM196.544 19.193C196.334 20.3433 196.135 21.3142 194.347 21.3142C193.902 21.3142 192.571 21.2625 192.628 19.9604H194.031C194.031 20.1139 194.066 20.2157 194.147 20.3174C194.207 20.3691 194.323 20.3933 194.474 20.3933C194.895 20.3933 195.012 20.0364 195.081 19.6777L195.163 19.2431H195.15C194.922 19.5129 194.598 19.6615 194.263 19.6519C193.374 19.6519 192.813 19.0379 192.813 18.067C192.813 16.9166 193.432 15.7276 194.601 15.7276C195.056 15.7276 195.477 15.8811 195.7 16.3674H195.712L195.805 15.831H197.172L196.541 19.1914L196.544 19.193ZM194.23 18.004C194.23 18.3739 194.394 18.655 194.709 18.655C195.387 18.655 195.504 17.7599 195.504 17.4918C195.504 17.2237 195.48 16.852 194.978 16.852C194.416 16.852 194.23 17.5289 194.23 18.0023V18.004ZM141.396 26.7442H139.854C139.749 27.2417 139.468 27.6134 138.977 27.6134C138.253 27.6134 138.159 26.8976 138.159 26.4243C138.159 25.644 138.464 24.5454 139.34 24.5454C139.83 24.5454 140.054 24.8394 140.042 25.3629H141.537C141.502 23.6891 140.484 23.1528 139.351 23.1528C137.609 23.1528 136.581 24.6472 136.581 26.4631C136.581 27.9575 137.294 29.0059 138.778 29.0059C140.906 29.0059 141.304 27.3193 141.396 26.7442ZM145.651 27.6893C145.57 27.9575 145.289 28.9672 143.676 28.9672C142.366 28.9672 141.828 28.1626 141.828 27.1788C141.828 25.3128 143.137 24.7118 144.049 24.7118C144.88 24.7118 145.872 25.2094 145.872 26.4873C145.872 26.7038 145.872 26.9348 145.803 27.1901H143.161C143.161 27.6118 143.29 27.9817 143.747 27.9817C144.051 27.9817 144.225 27.8283 144.296 27.6877H145.663H145.651V27.6893ZM144.541 26.3855L144.553 26.2579C144.553 25.938 144.378 25.7086 144.015 25.7086C143.653 25.7086 143.384 25.9639 143.279 26.3855H144.541ZM146.143 28.8655H147.557L147.978 26.7183C148.06 26.2967 148.212 25.9509 148.669 25.9509C148.902 25.9509 149.066 26.0786 149.066 26.3338C149.066 26.5003 148.997 26.7685 148.95 27.0108L148.587 28.8638H150.002L150.457 26.5891C150.515 26.2951 150.55 25.9881 150.55 25.8217C150.55 25.0171 150 24.7231 149.345 24.7231C148.899 24.7344 148.481 24.9589 148.2 25.337H148.176L148.293 24.8265H146.915L146.143 28.8768V28.8638V28.8655ZM153.437 23.5744H152.023L151.766 24.8135H151.159L150.961 25.7587H151.58L151.253 27.4195C151.217 27.6118 151.172 27.7653 151.172 27.9817C151.168 28.2935 151.315 28.5843 151.558 28.7492C151.839 28.9155 152.153 28.9155 152.458 28.9155C152.715 28.9026 152.972 28.8638 153.229 28.8138L153.439 27.7022L152.972 27.7151C152.75 27.7151 152.691 27.6134 152.691 27.4728C152.691 27.3452 152.726 27.2046 152.75 27.0641L153.007 25.7603H153.755L153.953 24.8022H153.181L153.439 23.5761L153.437 23.5744ZM157.715 27.6893C157.622 27.9575 157.341 28.9672 155.74 28.9672C154.418 28.9672 153.892 28.1626 153.892 27.1788C153.892 25.3128 155.202 24.7118 156.114 24.7118C156.944 24.7118 157.937 25.2094 157.937 26.4873C157.937 26.7038 157.937 26.9348 157.868 27.1901H155.225C155.225 27.6118 155.354 27.9817 155.811 27.9817C156.115 27.9817 156.289 27.8283 156.36 27.6877H157.717L157.715 27.6893ZM156.605 26.3855V26.2579C156.605 25.938 156.442 25.7086 156.079 25.7086C155.693 25.7086 155.448 25.9639 155.343 26.3855H156.605ZM158.207 28.8655H159.621L159.948 27.1788C160.112 26.3225 160.415 26.0285 161.012 26.0285C161.199 26.0285 161.386 26.0673 161.562 26.1432L161.819 24.7765C161.702 24.7248 161.562 24.7118 161.317 24.7118C160.967 24.7118 160.498 25.0187 160.241 25.4405H160.229L160.345 24.8007H158.989L158.218 28.8638H158.206L158.207 28.8655ZM140.219 34.7946H139.657C139.481 35.5103 139.05 35.9449 138.36 35.9449C137.517 35.9449 137.122 35.3181 137.122 34.4376C137.122 33.3261 137.707 32.137 138.875 32.137C139.483 32.137 139.916 32.5069 139.916 33.2226H140.477C140.477 32.1612 139.775 31.6378 138.864 31.6378C137.437 31.6378 136.561 32.9416 136.561 34.4359C136.561 35.7139 137.216 36.4554 138.362 36.4554C139.401 36.4554 140.009 35.8156 140.232 34.7946H140.221H140.219ZM141.166 34.8463L141.155 35.1274C141.155 35.6379 141.528 35.9319 141.937 35.9319C142.37 35.9319 142.673 35.7154 142.814 35.2922H143.317C143.164 36.0338 142.615 36.4166 141.937 36.4166C140.932 36.4166 140.652 35.6492 140.652 35.0741C140.652 33.7962 141.376 32.927 142.218 32.927C143.106 32.927 143.504 33.4633 143.504 34.4101C143.502 34.5555 143.486 34.7025 143.457 34.8447H141.166V34.8463ZM143.001 34.36C143.037 33.8866 142.849 33.4148 142.3 33.4148C141.704 33.4148 141.387 33.8495 141.247 34.36H143.001ZM143.725 36.3407H144.228L144.578 34.5006C144.637 34.2453 144.742 33.9771 144.917 33.8107C145.104 33.5813 145.384 33.4278 145.664 33.4278C145.945 33.4278 146.202 33.5554 146.202 33.8882C146.202 34.0029 146.155 34.2711 146.133 34.3988L145.735 36.3407H146.237L146.612 34.4489C146.659 34.1936 146.692 33.9384 146.692 33.7978C146.692 33.2097 146.424 32.9416 145.851 32.9416C145.43 32.9416 145.02 33.1467 144.763 33.5167L144.844 33.0062H144.378L143.734 36.3423H143.723L143.725 36.3407ZM148.518 32.0207H148.027L147.829 33.0175H147.327L147.234 33.4908H147.736L147.339 35.5604C147.327 35.6622 147.303 35.7397 147.303 35.8415C147.303 36.2631 147.619 36.3779 148.005 36.3779C148.121 36.3779 148.239 36.3779 148.355 36.339L148.437 35.8286C148.344 35.8673 148.248 35.8932 148.144 35.8932C147.992 35.8932 147.84 35.8415 147.84 35.6767L147.863 35.4472L148.237 33.4924H148.845L148.937 33.0062H148.33L148.518 32.0223V32.0207ZM148.868 36.3407H149.358L149.652 34.8705C149.699 34.6152 149.768 34.2954 149.908 34.0902C150.06 33.8221 150.27 33.6169 150.551 33.5409C150.668 33.515 150.727 33.515 150.856 33.515H150.996L151.113 32.927H150.937C150.423 32.927 150.06 33.2727 149.827 33.7186L149.967 33.0159H149.501L148.858 36.339H148.87L148.868 36.3407ZM152.655 32.9286C153.475 32.9286 153.917 33.4262 153.917 34.3083C153.917 35.4069 153.299 36.4166 152.234 36.4166C151.44 36.4166 150.949 35.8286 150.949 35.024C150.949 33.9384 151.591 32.9286 152.655 32.9286ZM152.294 35.9319C153.018 35.9319 153.415 35.011 153.415 34.36C153.415 33.8366 153.17 33.4148 152.62 33.4148C151.848 33.4148 151.451 34.3357 151.451 35.0256C151.451 35.575 151.743 35.9336 152.294 35.9336V35.9319ZM155.916 36.3407H156.455L157.169 32.5586H157.18L158.676 36.3407H159.271L160.171 31.7395H159.621L158.92 35.5474L157.4 31.7395H156.805L155.916 36.3407ZM160.44 34.0143C160.545 33.2727 161.119 32.9286 161.761 32.9286C162.347 32.9286 162.871 33.1079 162.871 33.7849C162.871 33.9771 162.812 34.2066 162.778 34.3859L162.59 35.3068C162.567 35.4344 162.509 35.6266 162.509 35.7801C162.509 35.9336 162.568 35.9853 162.65 35.9853C162.697 35.9853 162.766 35.9595 162.813 35.9336L162.732 36.3423C162.663 36.394 162.523 36.4183 162.427 36.4183C162.147 36.4183 162.006 36.239 162.03 35.9449C161.809 36.239 161.516 36.4183 161.002 36.4183C160.488 36.4183 160.066 36.163 160.066 35.4861C160.066 34.5151 160.931 34.4505 161.609 34.3874C162.135 34.3357 162.38 34.2986 162.38 33.864C162.38 33.4941 162.03 33.4165 161.761 33.4165C161.375 33.4165 161.002 33.583 160.943 34.0175H160.44V34.0143ZM161.118 35.9304C161.504 35.9304 161.797 35.8027 161.971 35.4957C162.135 35.2405 162.169 34.9464 162.24 34.6395H162.228C162.006 34.78 161.621 34.8188 161.247 34.8689C160.897 34.9206 160.568 35.0482 160.568 35.4699C160.568 35.7769 160.838 35.9304 161.118 35.9304ZM166.145 34.0644C166.121 33.297 165.689 32.927 164.999 32.927C163.911 32.927 163.316 33.9238 163.316 34.9723C163.316 35.8673 163.737 36.4166 164.566 36.4166C165.268 36.4166 165.782 35.9949 165.969 35.2534H165.454C165.323 35.6654 164.965 35.9384 164.566 35.9304C164.005 35.9304 163.818 35.4957 163.818 34.9852C163.818 34.2566 164.228 33.4133 164.999 33.4133C165.385 33.4133 165.642 33.6685 165.642 34.0644H166.145ZM166.963 33.0029H167.465L166.823 36.339H166.32L166.963 33.0159V33.0029ZM167.582 32.4148H167.079L167.197 31.7379H167.71L167.582 32.4148ZM169.465 32.9254C170.283 32.9254 170.739 33.423 170.739 34.3051C170.739 35.4037 170.119 36.4134 169.056 36.4134C168.249 36.4134 167.77 35.8254 167.77 35.0208C167.77 33.9351 168.401 32.9254 169.465 32.9254ZM169.114 35.9287C169.839 35.9287 170.236 35.0079 170.236 34.3568C170.236 33.8334 169.979 33.4117 169.429 33.4117C168.67 33.4117 168.26 34.3326 168.26 35.0223C168.26 35.5717 168.553 35.9304 169.103 35.9304H169.114V35.9287ZM171.02 36.3375H171.522L171.872 34.4974C171.941 34.242 172.036 33.9738 172.21 33.8075C172.398 33.578 172.677 33.4246 172.958 33.4246C173.263 33.4246 173.496 33.5522 173.496 33.8851C173.496 33.9997 173.448 34.2679 173.427 34.3955L173.029 36.3375H173.532L173.905 34.4456C173.965 34.1903 173.998 33.9351 173.998 33.7945C173.998 33.2065 173.718 32.9383 173.146 32.9383C172.725 32.9383 172.315 33.1435 172.058 33.5135L172.139 33.0029H171.673L171.018 36.339L171.02 36.3375ZM174.643 34.011C174.736 33.2695 175.309 32.9254 175.964 32.9254C176.549 32.9254 177.074 33.1047 177.074 33.7816C177.074 33.9738 177.014 34.2033 176.981 34.3826L176.782 35.3035C176.758 35.4311 176.702 35.6234 176.702 35.7769C176.702 35.9304 176.771 35.9821 176.853 35.9821C176.901 35.9821 176.97 35.9562 177.005 35.9304L176.936 36.339C176.855 36.3907 176.715 36.415 176.631 36.415C176.351 36.415 176.199 36.2357 176.234 35.9417H176.223C176.013 36.2357 175.72 36.415 175.206 36.415C174.691 36.415 174.27 36.1597 174.27 35.4828C174.27 34.5119 175.135 34.4472 175.813 34.3842C176.339 34.3325 176.573 34.2954 176.573 33.8608C176.573 33.4908 176.223 33.4133 175.965 33.4133C175.579 33.4133 175.206 33.5797 175.146 34.0143H174.644L174.643 34.011ZM175.321 35.9271C175.706 35.9271 176 35.7995 176.174 35.4925C176.338 35.2373 176.361 34.9432 176.431 34.6363C176.198 34.7769 175.812 34.8156 175.449 34.8656C175.088 34.9173 174.771 35.0451 174.771 35.4667C174.771 35.7736 175.04 35.9271 175.321 35.9271ZM177.355 36.3359H177.857L178.745 31.7347H178.242L177.355 36.3359ZM183.011 36.3359H182.544L182.661 35.8625H182.638C182.414 36.2276 182.032 36.436 181.633 36.4118C180.849 36.4118 180.428 35.8625 180.428 35.045C180.428 34.0353 181.059 32.9238 182.123 32.9238C182.497 32.9238 182.953 33.0643 183.07 33.5118H183.082L183.409 31.7363H183.899L183.011 36.3375V36.3359ZM181.726 35.9271C182.473 35.9271 182.906 34.9691 182.906 34.2663C182.906 33.78 182.638 33.41 182.147 33.41C181.352 33.41 180.931 34.3051 180.931 35.045C180.931 35.5943 181.164 35.94 181.713 35.94L181.726 35.9271ZM184.413 34.8415L184.39 35.1225C184.39 35.6331 184.776 35.9271 185.184 35.9271C185.618 35.9271 185.921 35.7106 186.061 35.2873H186.564C186.399 36.0289 185.85 36.4118 185.184 36.4118C184.168 36.4118 183.899 35.6444 183.899 35.0692C183.899 33.7913 184.624 32.9221 185.454 32.9221C186.354 32.9221 186.74 33.4585 186.74 34.4052C186.74 34.5717 186.716 34.738 186.704 34.8399H184.413V34.8415ZM186.249 34.3552C186.285 33.8818 186.085 33.41 185.535 33.41C184.95 33.41 184.624 33.8447 184.483 34.3552H186.247H186.249ZM191.695 33.0901H192.257C192.281 32.0675 191.555 31.6329 190.726 31.6329C189.979 31.6329 189.196 32.0675 189.196 32.9625C189.196 33.6395 189.64 33.9852 190.131 34.1129L190.716 34.2922C191.125 34.4198 191.452 34.5733 191.452 35.0595C191.452 35.6735 190.926 35.9287 190.4 35.9287C189.722 35.9287 189.243 35.6735 189.278 34.8301H188.728C188.659 35.9545 189.359 36.4538 190.376 36.4538C191.136 36.4538 192.012 35.9934 192.012 35.0482C192.012 34.2307 191.533 33.9625 191.007 33.8091L190.434 33.6427C190.048 33.515 189.756 33.3487 189.756 32.9012C189.756 32.3518 190.317 32.1337 190.726 32.1337C191.312 32.1337 191.708 32.3632 191.697 33.0918L191.695 33.0901ZM195.518 33.0142H195.016L194.666 34.8543C194.55 35.4037 194.128 35.9271 193.578 35.9271C193.286 35.9271 193.041 35.7865 193.041 35.4667C193.041 35.352 193.088 35.0838 193.11 34.9562L193.507 33.0013H193.005L192.631 34.919C192.572 35.1742 192.55 35.4166 192.55 35.5587C192.55 36.1468 192.819 36.415 193.392 36.415C193.813 36.415 194.223 36.2099 194.48 35.8399L194.399 36.3375H194.878L195.52 33.0142H195.518ZM196.338 33.0142H196.804L196.699 33.4876H196.711C196.934 33.1225 197.316 32.914 197.716 32.9383C198.5 32.9383 198.92 33.4876 198.92 34.2922C198.92 35.3148 198.289 36.4134 197.225 36.4134C196.851 36.4134 196.395 36.2857 196.278 35.8254H196.267L195.94 37.6137H195.449L196.338 33.0127V33.0142ZM197.623 33.41C196.875 33.41 196.442 34.3681 196.442 35.0708C196.442 35.5685 196.711 35.9271 197.214 35.9271C198.008 35.9271 198.418 35.0321 198.418 34.2922C198.418 33.7558 198.184 33.41 197.635 33.41H197.623ZM199.809 34.8415L199.785 35.1225C199.785 35.6331 200.17 35.9271 200.58 35.9271C201.013 35.9271 201.316 35.7106 201.456 35.2873H201.958C201.795 36.0289 201.245 36.4118 200.58 36.4118C199.575 36.4118 199.294 35.6444 199.294 35.0692C199.294 33.7913 200.018 32.9221 200.861 32.9221C201.749 32.9221 202.147 33.4585 202.147 34.4052C202.147 34.5717 202.123 34.738 202.099 34.8399H199.809V34.8415ZM201.644 34.3552C201.679 33.8818 201.48 33.41 200.942 33.41C200.346 33.41 200.03 33.8447 199.878 34.3552H201.644ZM202.368 36.3359H202.87L203.151 34.8656C203.199 34.6104 203.268 34.2905 203.408 34.0853C203.56 33.8171 203.783 33.612 204.051 33.5361C204.168 33.5102 204.238 33.5102 204.356 33.5102H204.508L204.624 32.9221H204.448C203.935 32.9221 203.572 33.2679 203.339 33.7138H203.327L203.467 33.011H203.001L202.37 36.3342L202.368 36.3359ZM207.312 34.0611C207.289 33.2937 206.857 32.9238 206.167 32.9238C205.08 32.9238 204.484 33.9206 204.484 34.9691C204.484 35.8641 204.905 36.4134 205.734 36.4134C206.436 36.4134 206.951 35.9917 207.136 35.2502H206.623C206.488 35.6589 206.132 35.9319 205.734 35.9271C205.172 35.9271 204.987 35.4925 204.987 34.982C204.987 34.2533 205.395 33.41 206.167 33.41C206.553 33.41 206.81 33.6653 206.81 34.0611H207.312ZM209.324 32.9238C210.143 32.9238 210.597 33.4213 210.597 34.3035C210.597 35.402 209.978 36.4118 208.914 36.4118C208.108 36.4118 207.629 35.8237 207.629 35.0192C207.629 33.9335 208.259 32.9238 209.324 32.9238ZM208.962 35.9271C209.697 35.9271 210.095 35.0062 210.095 34.3552C210.095 33.8317 209.838 33.41 209.289 33.41C208.529 33.41 208.119 34.3309 208.119 35.0208C208.119 35.57 208.411 35.9287 208.962 35.9287V35.9271ZM210.878 36.3359H211.38L211.73 34.5975C211.79 34.2647 211.836 34.0611 212.047 33.8301C212.223 33.6136 212.514 33.4085 212.795 33.4085C213.076 33.4085 213.216 33.5748 213.216 33.856C213.216 33.9319 213.181 34.1758 213.123 34.444L212.76 36.3359H213.263L213.602 34.6233C213.649 34.3293 213.718 34.0611 213.883 33.8688C214.046 33.6265 214.361 33.4085 214.654 33.4085C214.911 33.4085 215.121 33.6136 215.121 33.8688C215.121 33.9577 215.085 34.1242 215.062 34.2259L214.641 36.3342H215.143L215.517 34.3406C215.564 34.1484 215.61 33.8673 215.61 33.6767C215.61 33.1403 215.189 32.9221 214.757 32.9221C214.36 32.9221 213.95 33.1774 213.717 33.5232C213.636 33.1014 213.331 32.9221 212.958 32.9221C212.536 32.9221 212.151 33.1774 211.893 33.5102H211.882L211.998 32.9997H211.531L210.877 36.3359H210.878ZM216.535 33.0127H217.002L216.885 33.486H216.909C217.132 33.1209 217.513 32.9125 217.914 32.9367C218.696 32.9367 219.106 33.486 219.106 34.2905C219.106 35.3131 218.487 36.4118 217.423 36.4118C217.049 36.4118 216.592 36.2842 216.476 35.8237H216.452L216.136 37.6122H215.646L216.534 33.011L216.535 33.0127ZM217.82 33.4085C217.073 33.4085 216.64 34.3665 216.64 35.0692C216.64 35.5668 216.909 35.9255 217.399 35.9255C218.194 35.9255 218.616 35.0305 218.616 34.2905C218.616 33.7541 218.382 33.4085 217.833 33.4085H217.82ZM222.496 33.0127H221.993L221.643 34.8528C221.527 35.402 221.094 35.9255 220.544 35.9255C220.252 35.9255 220.018 35.785 220.018 35.465C220.018 35.3503 220.065 35.0821 220.087 34.9545L220.473 32.9997H219.971L219.597 34.9173C219.55 35.1727 219.516 35.415 219.516 35.5572C219.516 36.1452 219.797 36.4134 220.358 36.4134C220.779 36.4134 221.188 36.2082 221.446 35.8382H221.457L221.364 36.3359H221.843L222.486 33.0127H222.498H222.496ZM224.191 32.0158H223.689L223.501 33.0127H222.987L222.893 33.486H223.408L223.011 35.5555C222.998 35.6573 222.975 35.7348 222.975 35.8367C222.975 36.2583 223.292 36.3731 223.665 36.3731C223.782 36.3731 223.899 36.3731 224.015 36.3342L224.108 35.8237C224.015 35.8625 223.916 35.8835 223.816 35.8884C223.664 35.8884 223.511 35.8367 223.511 35.6719L223.535 35.4424L223.909 33.4876H224.516L224.609 33.0013H224.002L224.19 32.0174L224.191 32.0158ZM224.87 34.0094C224.975 33.2679 225.548 32.9238 226.19 32.9238C226.776 32.9238 227.312 33.1031 227.312 33.78C227.312 33.9723 227.253 34.2016 227.219 34.381L227.021 35.3018C226.997 35.4296 226.939 35.6218 226.939 35.7752C226.939 35.9287 226.999 35.9804 227.08 35.9804C227.128 35.9804 227.197 35.9545 227.244 35.9287L227.162 36.3375C227.093 36.3892 226.953 36.4134 226.859 36.4134C226.578 36.4134 226.437 36.234 226.461 35.94C226.239 36.234 225.947 36.4134 225.432 36.4134C224.918 36.4134 224.497 36.1581 224.497 35.4812C224.497 34.5102 225.374 34.4456 226.04 34.3826C226.566 34.3309 226.811 34.2938 226.811 33.8592C226.811 33.4892 226.461 33.4117 226.192 33.4117C225.806 33.4117 225.432 33.578 225.374 34.0127H224.871L224.87 34.0094ZM225.548 35.9255C225.945 35.9255 226.226 35.7978 226.4 35.4909C226.564 35.2357 226.598 34.9416 226.669 34.6346C226.436 34.7752 226.05 34.814 225.677 34.8641C225.326 34.9158 224.998 35.0434 224.998 35.465C224.998 35.772 225.267 35.9255 225.548 35.9255ZM230.573 34.0595C230.55 33.2922 230.118 32.9221 229.428 32.9221C228.341 32.9221 227.745 33.919 227.745 34.9675C227.745 35.8625 228.167 36.4118 228.995 36.4118C229.697 36.4118 230.211 35.9901 230.398 35.2486H229.883C229.752 35.6606 229.394 35.9336 228.995 35.9255C228.446 35.9255 228.247 35.4909 228.247 34.9804C228.247 34.2518 228.657 33.4085 229.428 33.4085C229.826 33.4085 230.071 33.6637 230.071 34.0595H230.573ZM231.392 32.9981H231.894L231.263 36.3342H230.761L231.392 33.011V32.9981ZM232.012 32.41H231.509L231.626 31.7331H232.14L232.023 32.41H232.012ZM233.894 32.9205C234.712 32.9205 235.168 33.4181 235.168 34.3002C235.168 35.3988 234.549 36.4085 233.484 36.4085C232.678 36.4085 232.199 35.8204 232.199 35.016C232.199 33.9303 232.83 32.9205 233.894 32.9205ZM233.544 35.9239C234.268 35.9239 234.665 35.003 234.665 34.352C234.665 33.8284 234.408 33.4068 233.87 33.4068C233.099 33.4068 232.701 34.3277 232.701 35.0175C232.701 35.5668 232.982 35.9255 233.532 35.9255H233.544V35.9239ZM234.339 31.6297H235.006L234.21 32.5506H233.789L234.339 31.6297ZM235.449 36.3326H235.951L236.301 34.4924C236.37 34.2372 236.466 33.969 236.64 33.8026C236.827 33.5732 237.106 33.4198 237.399 33.4198C237.692 33.4198 237.926 33.5474 237.926 33.8802C237.926 33.9949 237.878 34.2631 237.855 34.3907L237.47 36.3326H237.973L238.334 34.4408C238.394 34.1855 238.428 33.9303 238.428 33.7897C238.428 33.2016 238.147 32.9334 237.575 32.9334C237.166 32.9334 236.756 33.1386 236.499 33.5086H236.488L236.58 32.9981H236.09L235.447 36.3342L235.449 36.3326ZM95.8015 20.6519C95.8015 28.9963 101.996 38.5557 112.587 38.3505C103.445 36.0499 99.6475 28.3824 99.6475 21.4176C99.6475 11.6418 106.883 3.14389 118.362 3.74326C117.24 3.39759 114.212 2.6819 112.763 2.6819C104.09 2.6819 95.8023 10.0941 95.8023 20.6486L95.8015 20.6519ZM89.326 19.8845C89.326 28.9963 95.6255 40.2035 107.338 39.8837C97.4605 37.4296 93.3471 28.8557 93.3471 20.7536C93.3471 11.3349 99.7292 1.15024 110.318 1.15024C110.752 1.15024 111.954 1.15024 112.68 1.23912C110.728 0.538022 108.7 0.121149 106.648 0C97.0162 0 89.3242 9.3025 89.3242 19.8845H89.326ZM110.366 21.29H109.337L109.103 22.5163H110.296C110.634 22.5163 111.091 22.3886 111.091 21.8523C111.091 21.3546 110.763 21.29 110.366 21.29ZM116.572 5.21347C108.584 5.21347 102.106 12.2945 102.106 21.0283C102.106 29.7621 108.584 36.8432 116.572 36.8432C124.561 36.8432 131.037 29.7621 131.037 21.0283C131.037 12.2945 124.561 5.21347 116.572 5.21347ZM112.948 21.8652C112.948 23.4629 111.78 24.1011 110.459 24.1011H106.976L108.238 17.4563H111.359C112.668 17.4563 113.158 17.9668 113.158 18.9264C113.158 19.7569 112.785 20.3061 112.049 20.5243V20.5372C112.611 20.6648 112.961 21.2529 112.961 21.8667H112.948V21.8652ZM117.66 20.0768C118.712 20.4855 119.062 21.1253 119.062 21.9039C119.062 23.5018 117.66 24.2546 116.339 24.2546C114.936 24.2546 113.684 23.5648 113.768 21.8652H115.567C115.567 22.2351 115.648 22.4533 115.801 22.6326C115.965 22.7602 116.187 22.786 116.491 22.786C116.841 22.786 117.31 22.5809 117.31 22.1462C117.31 21.66 116.69 21.597 115.848 21.29C115.101 21.0347 114.386 20.6002 114.386 19.5015C114.386 17.9942 115.719 17.3028 116.934 17.3028C118.22 17.3028 119.388 17.8392 119.353 19.4757H117.634C117.634 19.2076 117.553 19.0412 117.425 18.9264C117.261 18.8134 117.069 18.7584 116.875 18.773C116.559 18.773 116.151 18.8747 116.151 19.3222C116.151 19.8199 117.063 19.8328 117.67 20.0768H117.658H117.66ZM123.049 22.6067C123.634 22.6067 123.973 22.1721 124.089 21.5841H125.913C125.796 22.261 125.328 24.2675 122.803 24.2675C121.05 24.2675 120.185 23.0154 120.185 21.2383C120.185 19.0912 121.414 17.3028 123.482 17.3028C124.827 17.3028 126.042 17.9425 126.077 19.9345H124.301C124.325 19.3077 124.044 18.9636 123.482 18.9636C122.43 18.9636 122.056 20.2674 122.056 21.1996C122.056 21.7489 122.172 22.6051 123.037 22.6051H123.049V22.6067ZM110.717 19.0412H109.758L109.571 20.0509H110.623C110.927 20.0509 111.289 19.9232 111.289 19.5274C111.289 19.1316 111.057 19.0412 110.717 19.0412Z" fill="#102321"/>
<path d="M83.9922 40.577V0.966797" stroke="#102321" stroke-linecap="round" stroke-linejoin="round"/>
<path d="M0 16.4234V8.0763H4.90525V9.21824H1.11434V11.5601H4.26543V12.702H1.11434V15.2815H4.90525V16.4234H0ZM7.81196 16.5973C7.38541 16.5973 7.02818 16.5123 6.74026 16.3423C6.45234 16.1684 6.23375 15.9404 6.08446 15.6583C5.93872 15.3723 5.86585 15.0593 5.86585 14.7192C5.86585 14.4023 5.91739 14.1241 6.02047 13.8845C6.12355 13.6449 6.2764 13.442 6.47901 13.2759C6.68162 13.1058 6.93043 12.9686 7.22546 12.8643C7.48138 12.7832 7.77107 12.7117 8.09453 12.6498C8.418 12.588 8.75745 12.53 9.1129 12.4759C9.47191 12.4218 9.82737 12.3677 10.1793 12.3136L9.77405 12.5571C9.78116 12.0663 9.68519 11.7031 9.48614 11.4673C9.29064 11.2277 8.95296 11.1079 8.4731 11.1079C8.17097 11.1079 7.89371 11.1852 7.64134 11.3398C7.38897 11.4905 7.21301 11.7417 7.11348 12.0934L6.07379 11.7456C6.21597 11.2084 6.48611 10.7814 6.88422 10.4645C7.28588 10.1476 7.81906 9.98919 8.48376 9.98919C8.99916 9.98919 9.44703 10.0858 9.82736 10.279C10.2113 10.4684 10.4921 10.7698 10.6698 11.1833C10.7622 11.3881 10.8191 11.6045 10.8404 11.8325C10.8617 12.0605 10.8724 12.3059 10.8724 12.5687V16.4234H9.88602V14.9917L10.078 15.1772C9.83982 15.6563 9.5359 16.0138 9.16623 16.2495C8.80012 16.4814 8.34869 16.5973 7.81196 16.5973ZM8.00923 15.6061C8.32559 15.6061 8.59751 15.5462 8.825 15.4264C9.05248 15.3027 9.23554 15.1462 9.37417 14.9569C9.51279 14.7675 9.60343 14.5704 9.64609 14.3656C9.70651 14.1801 9.74028 13.9715 9.74739 13.7396C9.75805 13.5077 9.76339 13.3222 9.76339 13.1831L10.126 13.328C9.77406 13.386 9.45415 13.4382 9.16623 13.4845C8.87832 13.5309 8.61705 13.5773 8.38246 13.6237C8.15141 13.6662 7.94525 13.7183 7.76397 13.7802C7.61112 13.8381 7.47427 13.9077 7.35342 13.9888C7.23612 14.07 7.14193 14.1685 7.07084 14.2845C7.0033 14.4004 6.96954 14.5415 6.96954 14.7076C6.96954 14.8699 7.00685 15.0206 7.0815 15.1598C7.15614 15.295 7.26989 15.4032 7.42273 15.4844C7.57558 15.5655 7.77108 15.6061 8.00923 15.6061ZM12.2569 16.4234V10.1631H13.2486V11.6818L13.11 11.4847C13.1811 11.2838 13.2735 11.1002 13.3872 10.934C13.501 10.764 13.6325 10.6249 13.7818 10.5167C13.9275 10.4007 14.0892 10.3119 14.267 10.25C14.4482 10.1843 14.6331 10.1457 14.8215 10.1341C15.0099 10.1186 15.1911 10.1283 15.3653 10.1631V11.2992C15.1769 11.2451 14.9672 11.2297 14.7362 11.2528C14.5087 11.276 14.299 11.3553 14.107 11.4905C13.9257 11.618 13.7818 11.7726 13.6751 11.9542C13.5721 12.1359 13.4974 12.3387 13.4512 12.5629C13.405 12.7832 13.3819 13.0169 13.3819 13.2643V16.4234H12.2569ZM19.6752 16.4234C19.3126 16.5007 18.9572 16.5336 18.6088 16.522C18.2605 16.5104 17.9495 16.4369 17.6758 16.3017C17.4021 16.1664 17.1959 15.9539 17.0573 15.6641C16.9329 15.4052 16.8653 15.1424 16.8547 14.8757C16.8476 14.6052 16.844 14.2999 16.844 13.9599V8.4241H17.9637V13.9019C17.9637 14.1531 17.9654 14.3714 17.969 14.5569C17.9761 14.7424 18.0134 14.8989 18.081 15.0264C18.2089 15.266 18.4115 15.4032 18.6888 15.438C18.9696 15.4689 19.2984 15.4554 19.6752 15.3974V16.4234ZM15.7403 11.1369V10.1631H19.6752V11.1369H15.7403ZM24.9305 16.4234V13.3454C24.9305 13.102 24.911 12.8527 24.8719 12.5977C24.8363 12.3387 24.7653 12.0992 24.6586 11.8789C24.5555 11.6586 24.408 11.4808 24.2161 11.3456C24.0277 11.2103 23.7807 11.1427 23.475 11.1427C23.2759 11.1427 23.0875 11.1794 22.9098 11.2528C22.7321 11.3224 22.5757 11.4364 22.4406 11.5948C22.3091 11.7533 22.2042 11.962 22.126 12.2209C22.0514 12.4798 22.0141 12.7947 22.0141 13.1657L21.3209 12.8817C21.3209 12.3136 21.4187 11.8132 21.6142 11.3804C21.8097 10.9437 22.0905 10.6036 22.4566 10.3602C22.8227 10.1167 23.2653 9.99498 23.7842 9.99498C24.1823 9.99498 24.5164 10.0645 24.7866 10.2037C25.0567 10.3428 25.2753 10.5263 25.4424 10.7543C25.613 10.9785 25.7428 11.2239 25.8316 11.4905C25.9205 11.7572 25.9809 12.018 26.0129 12.2731C26.0449 12.5281 26.0609 12.7522 26.0609 12.9455V16.4234H24.9305ZM20.8837 16.4234V8.0763H21.8808V12.5803H22.0141V16.4234H20.8837ZM32.3684 16.5973C31.8174 16.5973 31.3198 16.4949 30.8755 16.2901C30.4347 16.0814 30.0704 15.7858 29.7825 15.4032C29.4981 15.0168 29.3133 14.5588 29.228 14.0294L30.3903 13.8381C30.5076 14.3482 30.7529 14.7463 31.1261 15.0322C31.4993 15.3143 31.9347 15.4554 32.4324 15.4554C32.7416 15.4554 33.026 15.4032 33.2855 15.2989C33.5449 15.1907 33.7529 15.038 33.9093 14.8409C34.0692 14.64 34.1492 14.4004 34.1492 14.1222C34.1492 13.9715 34.1243 13.8381 34.0746 13.7222C34.0284 13.6063 33.9626 13.5058 33.8773 13.4208C33.7955 13.3319 33.6942 13.2565 33.5734 13.1947C33.4561 13.129 33.3263 13.073 33.1842 13.0266L31.2167 12.3948C31.0248 12.3329 30.8293 12.2537 30.6302 12.1571C30.4312 12.0566 30.2481 11.9272 30.081 11.7687C29.9175 11.6064 29.7842 11.4074 29.6812 11.1717C29.5781 10.9321 29.5265 10.6423 29.5265 10.3022C29.5265 9.78824 29.6474 9.35349 29.8891 8.99796C30.1344 8.63857 30.4649 8.36807 30.8808 8.18644C31.2967 8.00095 31.7623 7.9082 32.2777 7.9082C32.7967 7.91593 33.2606 8.0164 33.6693 8.20963C34.0817 8.40285 34.4229 8.68108 34.693 9.04434C34.9667 9.40373 35.1551 9.84041 35.2582 10.3544L34.0639 10.5746C34.0106 10.2616 33.8968 9.99305 33.7227 9.76891C33.5485 9.54091 33.3352 9.36702 33.0829 9.24722C32.8305 9.12356 32.5568 9.0598 32.2617 9.05593C31.9774 9.0482 31.7161 9.09457 31.478 9.19505C31.2434 9.29552 31.055 9.43657 30.9128 9.6182C30.7742 9.79983 30.7049 10.0085 30.7049 10.2442C30.7049 10.4761 30.7671 10.6635 30.8915 10.8065C31.0159 10.9495 31.1687 11.0635 31.35 11.1485C31.5348 11.2297 31.7179 11.2973 31.8992 11.3514L33.3174 11.7861C33.4952 11.8402 33.696 11.9137 33.9199 12.0064C34.1474 12.0953 34.366 12.2209 34.5757 12.3832C34.789 12.5455 34.965 12.7619 35.1036 13.0324C35.2422 13.299 35.3115 13.6353 35.3115 14.041C35.3115 14.4622 35.2333 14.8332 35.0769 15.154C34.9205 15.4708 34.7055 15.7375 34.4318 15.9539C34.1616 16.1664 33.8488 16.3268 33.4934 16.435C33.1379 16.5432 32.7629 16.5973 32.3684 16.5973ZM38.9105 16.5973C38.3204 16.5973 37.8193 16.4543 37.4069 16.1684C36.9946 15.8824 36.6782 15.4902 36.4579 14.9917C36.241 14.4932 36.1309 13.927 36.1273 13.2933C36.1309 12.6479 36.2446 12.0779 36.4685 11.5833C36.6925 11.0847 37.0124 10.6944 37.4283 10.4123C37.8441 10.1302 38.3435 9.98919 38.9265 9.98919C39.5556 9.98919 40.0924 10.1592 40.5367 10.4993C40.9846 10.8394 41.2796 11.305 41.4218 11.8963L40.3127 12.2441C40.2026 11.8924 40.0213 11.62 39.7689 11.4267C39.5201 11.2297 39.234 11.1311 38.9105 11.1311C38.5444 11.1311 38.244 11.2258 38.0094 11.4152C37.7748 11.6006 37.6006 11.8557 37.4869 12.1803C37.3732 12.5049 37.3145 12.8759 37.311 13.2933C37.3145 13.9386 37.4496 14.4603 37.7162 14.8583C37.9863 15.2564 38.3844 15.4554 38.9105 15.4554C39.2695 15.4554 39.5592 15.3665 39.7796 15.1887C40.0035 15.0071 40.1741 14.7482 40.2914 14.412L41.4218 14.7018C41.2334 15.3124 40.9224 15.7819 40.4887 16.1104C40.0551 16.435 39.529 16.5973 38.9105 16.5973ZM42.4588 9.13708V7.96037H43.5731V9.13708H42.4588ZM42.4588 16.4234V10.1631H43.5731V16.4234H42.4588ZM47.7284 16.5973C47.1561 16.5973 46.6531 16.4621 46.2195 16.1916C45.7894 15.9172 45.4535 15.5365 45.2118 15.0496C44.9736 14.5588 44.8545 13.9908 44.8545 13.3454C44.8545 12.6614 44.9718 12.0682 45.2064 11.5659C45.4446 11.0635 45.7752 10.6751 46.1981 10.4007C46.6211 10.1264 47.1134 9.98919 47.6751 9.98919C48.2615 9.98919 48.761 10.138 49.1733 10.4355C49.5856 10.7292 49.8931 11.1485 50.0957 11.6934C50.3018 12.2383 50.3836 12.8856 50.3409 13.6353H49.2266V13.1947C49.2195 12.4682 49.0915 11.931 48.8427 11.5833C48.5975 11.2355 48.2225 11.0616 47.7177 11.0616C47.1597 11.0616 46.7402 11.2528 46.4594 11.6354C46.1786 12.018 46.0382 12.5706 46.0382 13.2933C46.0382 13.9811 46.1786 14.5144 46.4594 14.8931C46.7402 15.268 47.1454 15.4554 47.6751 15.4554C48.0234 15.4554 48.3238 15.3704 48.5761 15.2003C48.8321 15.0264 49.0311 14.7791 49.1733 14.4584L50.2663 14.8352C50.0424 15.3955 49.7029 15.8302 49.2479 16.1394C48.793 16.4447 48.2864 16.5973 47.7284 16.5973ZM45.6756 13.6353V12.6904H49.7864V13.6353H45.6756ZM55.4221 16.4234V13.3454C55.4221 13.102 55.4026 12.8527 55.3635 12.5977C55.328 12.3387 55.2569 12.0992 55.1502 11.8789C55.0471 11.6586 54.8996 11.4808 54.7077 11.3456C54.5193 11.2103 54.2723 11.1427 53.9666 11.1427C53.7675 11.1427 53.5791 11.1794 53.4014 11.2528C53.2237 11.3224 53.0673 11.4364 52.9322 11.5948C52.8007 11.7533 52.6958 11.962 52.6176 12.2209C52.543 12.4798 52.5057 12.7947 52.5057 13.1657L51.8125 12.8817C51.8125 12.3136 51.9103 11.8132 52.1058 11.3804C52.3013 10.9437 52.5821 10.6036 52.9482 10.3602C53.3143 10.1167 53.7569 9.99498 54.2758 9.99498C54.6739 9.99498 55.008 10.0645 55.2782 10.2037C55.5483 10.3428 55.7669 10.5263 55.934 10.7543C56.1046 10.9785 56.2344 11.2239 56.3232 11.4905C56.4121 11.7572 56.4725 12.018 56.5045 12.2731C56.5365 12.5281 56.5525 12.7522 56.5525 12.9455V16.4234H55.4221ZM51.3753 16.4234V10.1631H52.3724V11.9716H52.5057V16.4234H51.3753ZM60.3318 16.5973C59.7418 16.5973 59.2406 16.4543 58.8283 16.1684C58.4159 15.8824 58.0996 15.4902 57.8792 14.9917C57.6624 14.4932 57.5522 13.927 57.5486 13.2933C57.5522 12.6479 57.6659 12.0779 57.8899 11.5833C58.1138 11.0847 58.4337 10.6944 58.8496 10.4123C59.2655 10.1302 59.7649 9.98919 60.3478 9.98919C60.977 9.98919 61.5137 10.1592 61.958 10.4993C62.4059 10.8394 62.7009 11.305 62.8431 11.8963L61.7341 12.2441C61.6239 11.8924 61.4426 11.62 61.1902 11.4267C60.9414 11.2297 60.6553 11.1311 60.3318 11.1311C59.9657 11.1311 59.6654 11.2258 59.4308 11.4152C59.1962 11.6006 59.022 11.8557 58.9082 12.1803C58.7945 12.5049 58.7359 12.8759 58.7323 13.2933C58.7359 13.9386 58.8709 14.4603 59.1375 14.8583C59.4077 15.2564 59.8058 15.4554 60.3318 15.4554C60.6908 15.4554 60.9805 15.3665 61.2009 15.1887C61.4248 15.0071 61.5955 14.7482 61.7128 14.412L62.8431 14.7018C62.6547 15.3124 62.3437 15.7819 61.91 16.1104C61.4764 16.435 60.9503 16.5973 60.3318 16.5973ZM66.3265 16.5973C65.7543 16.5973 65.2513 16.4621 64.8176 16.1916C64.3875 15.9172 64.0516 15.5365 63.8099 15.0496C63.5718 14.5588 63.4527 13.9908 63.4527 13.3454C63.4527 12.6614 63.57 12.0682 63.8046 11.5659C64.0428 11.0635 64.3733 10.6751 64.7963 10.4007C65.2193 10.1264 65.7116 9.98919 66.2732 9.98919C66.8597 9.98919 67.3591 10.138 67.7715 10.4355C68.1838 10.7292 68.4912 11.1485 68.6938 11.6934C68.9 12.2383 68.9818 12.8856 68.9391 13.6353H67.8248V13.1947C67.8177 12.4682 67.6897 11.931 67.4409 11.5833C67.1956 11.2355 66.8206 11.0616 66.3159 11.0616C65.7578 11.0616 65.3384 11.2528 65.0576 11.6354C64.7768 12.018 64.6364 12.5706 64.6364 13.2933C64.6364 13.9811 64.7768 14.5144 65.0576 14.8931C65.3384 15.268 65.7436 15.4554 66.2732 15.4554C66.6216 15.4554 66.9219 15.3704 67.1743 15.2003C67.4302 15.0264 67.6293 14.7791 67.7715 14.4584L68.8645 14.8352C68.6405 15.3955 68.3011 15.8302 67.8461 16.1394C67.3911 16.4447 66.8846 16.5973 66.3265 16.5973ZM64.2738 13.6353V12.6904H68.3846V13.6353H64.2738ZM72.3372 16.5915C71.637 16.5915 71.0665 16.4234 70.6257 16.0872C70.185 15.751 69.9148 15.2776 69.8153 14.667L70.9563 14.4758C71.0274 14.8004 71.1909 15.0574 71.4468 15.2467C71.7063 15.4322 72.028 15.5249 72.4119 15.5249C72.7602 15.5249 73.0321 15.4477 73.2276 15.2931C73.4267 15.1385 73.5262 14.926 73.5262 14.6555C73.5262 14.497 73.4907 14.3695 73.4196 14.2729C73.3521 14.1724 73.2081 14.0777 72.9877 13.9888C72.7673 13.9 72.4314 13.7898 71.98 13.6584C71.4859 13.5193 71.0932 13.3705 70.8017 13.2121C70.5138 13.0498 70.3076 12.8624 70.1832 12.6498C70.0623 12.4334 70.0019 12.1726 70.0019 11.8673C70.0019 11.4886 70.0943 11.1582 70.2792 10.8761C70.464 10.594 70.7235 10.3756 71.0576 10.221C71.3953 10.0665 71.7898 9.98919 72.2413 9.98919C72.682 9.98919 73.0748 10.0645 73.4196 10.2153C73.7644 10.366 74.0434 10.5804 74.2567 10.8587C74.47 11.133 74.5979 11.4557 74.6406 11.8267L73.4996 12.0528C73.4605 11.7514 73.3307 11.5137 73.1103 11.3398C72.89 11.1659 72.6038 11.0712 72.2519 11.0558C71.9142 11.0403 71.6405 11.1021 71.4308 11.2413C71.2211 11.3765 71.1163 11.5639 71.1163 11.8035C71.1163 11.9426 71.1554 12.0605 71.2336 12.1571C71.3153 12.2537 71.4717 12.3465 71.7028 12.4354C71.9338 12.5242 72.275 12.6305 72.7265 12.7542C73.2099 12.8894 73.5938 13.0401 73.8781 13.2063C74.1625 13.3686 74.3651 13.5638 74.4859 13.7918C74.6104 14.0159 74.6726 14.2883 74.6726 14.6091C74.6726 15.2274 74.4646 15.7124 74.0487 16.064C73.6364 16.4157 73.0659 16.5915 72.3372 16.5915Z" fill="#102321"/>
<path d="M14.4844 32.8471V24.5H16.889C16.9601 24.5 17.0916 24.5019 17.2836 24.5058C17.4791 24.5097 17.6657 24.5251 17.8434 24.5522C18.4441 24.6333 18.9489 24.8671 19.3576 25.2536C19.7699 25.64 20.081 26.1308 20.2907 26.7259C20.5004 27.3172 20.6053 27.9664 20.6053 28.6736C20.6053 29.3846 20.5004 30.0377 20.2907 30.6328C20.081 31.2241 19.7699 31.7129 19.3576 32.0994C18.9489 32.4819 18.4441 32.7138 17.8434 32.7949C17.6657 32.822 17.4791 32.8375 17.2836 32.8413C17.0916 32.8452 16.9601 32.8471 16.889 32.8471H14.4844ZM15.6254 31.6936H16.889C17.0099 31.6936 17.1538 31.6897 17.3209 31.682C17.4879 31.6743 17.6354 31.6588 17.7634 31.6356C18.1544 31.5545 18.4708 31.3709 18.7125 31.0849C18.9577 30.7951 19.1372 30.4396 19.251 30.0184C19.3647 29.5972 19.4216 29.1489 19.4216 28.6736C19.4216 28.1828 19.363 27.7287 19.2457 27.3114C19.1284 26.8901 18.9471 26.5385 18.7018 26.2564C18.4601 25.9704 18.1473 25.7888 17.7634 25.7115C17.6354 25.6844 17.4862 25.669 17.3155 25.6651C17.1485 25.6574 17.0063 25.6535 16.889 25.6535H15.6254V31.6936ZM24.4015 33.021C23.8292 33.021 23.3262 32.8858 22.8926 32.6153C22.4625 32.3409 22.1266 31.9602 21.8849 31.4733C21.6467 30.9825 21.5277 30.4145 21.5277 29.7691C21.5277 29.0851 21.645 28.4919 21.8796 27.9896C22.1177 27.4872 22.4483 27.0988 22.8713 26.8244C23.2943 26.5501 23.7866 26.4129 24.3482 26.4129C24.9347 26.4129 25.4341 26.5617 25.8464 26.8592C26.2587 27.1529 26.5662 27.5722 26.7688 28.1171C26.975 28.662 27.0567 29.3093 27.0141 30.0589H25.8997V29.6184C25.8926 28.8919 25.7647 28.3547 25.5158 28.007C25.2706 27.6592 24.8956 27.4853 24.3908 27.4853C23.8328 27.4853 23.4133 27.6765 23.1325 28.0591C22.8517 28.4417 22.7113 28.9943 22.7113 29.7169C22.7113 30.4048 22.8517 30.9381 23.1325 31.3168C23.4133 31.6917 23.8185 31.8791 24.3482 31.8791C24.6965 31.8791 24.9969 31.7941 25.2493 31.624C25.5052 31.4501 25.7042 31.2028 25.8464 30.8821L26.9394 31.2588C26.7155 31.8192 26.376 32.2539 25.9211 32.5631C25.4661 32.8684 24.9595 33.021 24.4015 33.021ZM22.3488 30.0589V29.1141H26.4596V30.0589H22.3488ZM30.757 33.021C30.206 33.021 29.7439 32.8761 29.3707 32.5863C28.9975 32.2926 28.7149 31.8965 28.523 31.398C28.331 30.8995 28.2351 30.3372 28.2351 29.7112C28.2351 29.0851 28.3292 28.5228 28.5176 28.0243C28.7096 27.5258 28.9904 27.1336 29.3601 26.8476C29.7333 26.5578 30.1918 26.4129 30.7357 26.4129C31.2759 26.4129 31.7416 26.5578 32.1326 26.8476C32.5271 27.1336 32.8311 27.5258 33.0443 28.0243C33.2576 28.519 33.3642 29.0813 33.3642 29.7112C33.3642 30.3372 33.2576 30.9014 33.0443 31.4038C32.8346 31.9023 32.5342 32.2964 32.1432 32.5863C31.7558 32.8761 31.2937 33.021 30.757 33.021ZM28.0484 35.6295V26.5868H29.0401V31.0907H29.1681V35.6295H28.0484ZM30.6024 31.9255C30.9578 31.9255 31.2511 31.8269 31.4821 31.6298C31.7167 31.4327 31.8909 31.168 32.0046 30.8357C32.1219 30.4995 32.1806 30.1246 32.1806 29.7112C32.1806 29.3015 32.1219 28.9305 32.0046 28.5982C31.8909 28.2659 31.7149 28.0012 31.4768 27.8041C31.2386 27.607 30.9347 27.5084 30.565 27.5084C30.2167 27.5084 29.9288 27.6012 29.7013 27.7867C29.4774 27.9722 29.3103 28.2311 29.2001 28.5634C29.0935 28.8958 29.0401 29.2783 29.0401 29.7112C29.0401 30.144 29.0935 30.5265 29.2001 30.8589C29.3067 31.1912 29.4756 31.4521 29.7066 31.6414C29.9377 31.8308 30.2363 31.9255 30.6024 31.9255ZM36.1679 33.021C35.7413 33.021 35.3841 32.936 35.0962 32.766C34.8082 32.5921 34.5897 32.3641 34.4404 32.082C34.2946 31.796 34.2218 31.483 34.2218 31.1429C34.2218 30.826 34.2733 30.5478 34.3764 30.3082C34.4795 30.0686 34.6323 29.8657 34.8349 29.6996C35.0375 29.5295 35.2863 29.3923 35.5814 29.288C35.8373 29.2068 36.127 29.1354 36.4504 29.0735C36.7739 29.0117 37.1134 28.9537 37.4688 28.8996C37.8278 28.8455 38.1833 28.7914 38.5352 28.7373L38.13 28.9808C38.1371 28.49 38.0411 28.1267 37.842 27.891C37.6465 27.6514 37.3089 27.5316 36.829 27.5316C36.5269 27.5316 36.2496 27.6089 35.9972 27.7635C35.7449 27.9142 35.5689 28.1654 35.4694 28.5171L34.4297 28.1693C34.5719 27.6321 34.842 27.2051 35.2401 26.8882C35.6418 26.5713 36.175 26.4129 36.8397 26.4129C37.3551 26.4129 37.8029 26.5095 38.1833 26.7027C38.5672 26.8921 38.848 27.1935 39.0257 27.607C39.1181 27.8118 39.175 28.0282 39.1963 28.2562C39.2176 28.4842 39.2283 28.7296 39.2283 28.9924V32.8471H38.2419V31.4154L38.4339 31.6008C38.1957 32.08 37.8918 32.4375 37.5221 32.6732C37.156 32.9051 36.7046 33.021 36.1679 33.021ZM36.3651 32.0298C36.6815 32.0298 36.9534 31.9699 37.1809 31.8501C37.4084 31.7264 37.5914 31.5699 37.7301 31.3806C37.8687 31.1912 37.9593 30.9941 38.002 30.7893C38.0624 30.6038 38.0962 30.3952 38.1033 30.1633C38.114 29.9314 38.1193 29.7459 38.1193 29.6068L38.4818 29.7517C38.13 29.8097 37.81 29.8619 37.5221 29.9082C37.2342 29.9546 36.973 30.001 36.7384 30.0474C36.5073 30.0899 36.3012 30.142 36.1199 30.2039C35.967 30.2618 35.8302 30.3314 35.7093 30.4125C35.592 30.4937 35.4978 30.5922 35.4267 30.7082C35.3592 30.8241 35.3254 30.9652 35.3254 31.1313C35.3254 31.2936 35.3628 31.4443 35.4374 31.5835C35.512 31.7187 35.6258 31.8269 35.7786 31.9081C35.9315 31.9892 36.127 32.0298 36.3651 32.0298ZM40.6128 32.8471V26.5868H41.6045V28.1055L41.4659 27.9084C41.537 27.7075 41.6294 27.5239 41.7431 27.3577C41.8569 27.1877 41.9884 27.0486 42.1377 26.9404C42.2834 26.8244 42.4451 26.7356 42.6229 26.6737C42.8042 26.608 42.989 26.5694 43.1774 26.5578C43.3658 26.5423 43.5471 26.552 43.7212 26.5868V27.7229C43.5328 27.6688 43.3231 27.6534 43.0921 27.6765C42.8646 27.6997 42.6549 27.7789 42.4629 27.9142C42.2816 28.0417 42.1377 28.1963 42.031 28.3779C41.928 28.5596 41.8533 28.7624 41.8071 28.9866C41.7609 29.2068 41.7378 29.4406 41.7378 29.688V32.8471H40.6128ZM48.0311 32.8471C47.6685 32.9244 47.3131 32.9573 46.9647 32.9457C46.6164 32.9341 46.3054 32.8606 46.0317 32.7254C45.758 32.5901 45.5518 32.3776 45.4132 32.0878C45.2888 31.8288 45.2212 31.5661 45.2106 31.2994C45.2035 31.0289 45.1999 30.7236 45.1999 30.3836V24.8478H46.3196V30.3256C46.3196 30.5768 46.3214 30.7951 46.3249 30.9806C46.332 31.1661 46.3693 31.3226 46.4369 31.4501C46.5648 31.6897 46.7674 31.8269 47.0447 31.8617C47.3255 31.8926 47.6543 31.8791 48.0311 31.8211V32.8471ZM44.0962 27.5606V26.5868H48.0311V27.5606H44.0962ZM56.1452 32.8471L56.1505 28.946C56.1505 28.4939 56.0439 28.1422 55.8306 27.891C55.6173 27.636 55.3365 27.5084 54.9882 27.5084C54.7749 27.5084 54.5794 27.5625 54.4017 27.6707C54.2275 27.7751 54.0853 27.9335 53.9751 28.1461C53.8685 28.3547 53.8152 28.6175 53.8152 28.9344L53.2767 28.6388C53.2696 28.1982 53.3549 27.8118 53.5326 27.4795C53.7139 27.1471 53.9591 26.8901 54.2684 26.7085C54.5776 26.523 54.9242 26.4303 55.3081 26.4303C55.9301 26.4303 56.4118 26.6332 56.753 27.0389C57.0942 27.4447 57.2649 27.9838 57.2649 28.6562L57.2595 32.8471H56.1452ZM49.2405 32.8471V26.5868H50.2322V28.3953H50.3602V32.8471H49.2405ZM52.6955 32.8471L52.7008 28.9692C52.7008 28.5132 52.5942 28.1557 52.3809 27.8968C52.1712 27.6379 51.8886 27.5084 51.5332 27.5084C51.1813 27.5084 50.8969 27.6398 50.6801 27.9026C50.4668 28.1654 50.3602 28.5093 50.3602 28.9344L49.827 28.5634C49.827 28.1538 49.9176 27.7886 50.0989 27.4679C50.2802 27.1471 50.5255 26.894 50.8347 26.7085C51.144 26.523 51.4941 26.4303 51.8851 26.4303C52.2938 26.4303 52.6422 26.5249 52.9301 26.7143C53.218 26.8998 53.4366 27.1606 53.5859 27.4968C53.7388 27.8331 53.8152 28.2234 53.8152 28.6678L53.8099 32.8471H52.6955ZM61.1304 33.021C60.5581 33.021 60.0551 32.8858 59.6215 32.6153C59.1914 32.3409 58.8555 31.9602 58.6138 31.4733C58.3756 30.9825 58.2566 30.4145 58.2566 29.7691C58.2566 29.0851 58.3739 28.4919 58.6085 27.9896C58.8466 27.4872 59.1772 27.0988 59.6002 26.8244C60.0232 26.5501 60.5155 26.4129 61.0771 26.4129C61.6636 26.4129 62.163 26.5617 62.5753 26.8592C62.9876 27.1529 63.2951 27.5722 63.4977 28.1171C63.7039 28.662 63.7856 29.3093 63.743 30.0589H62.6286V29.6184C62.6215 28.8919 62.4935 28.3547 62.2447 28.007C61.9995 27.6592 61.6245 27.4853 61.1197 27.4853C60.5617 27.4853 60.1422 27.6765 59.8614 28.0591C59.5806 28.4417 59.4402 28.9943 59.4402 29.7169C59.4402 30.4048 59.5806 30.9381 59.8614 31.3168C60.1422 31.6917 60.5474 31.8791 61.0771 31.8791C61.4254 31.8791 61.7258 31.7941 61.9782 31.624C62.2341 31.4501 62.4331 31.2028 62.5753 30.8821L63.6683 31.2588C63.4444 31.8192 63.1049 32.2539 62.65 32.5631C62.195 32.8684 61.6884 33.021 61.1304 33.021ZM59.0777 30.0589V29.1141H63.1885V30.0589H59.0777ZM68.8242 32.8471V29.7691C68.8242 29.5257 68.8046 29.2764 68.7655 29.0214C68.73 28.7624 68.6589 28.5228 68.5522 28.3026C68.4492 28.0823 68.3016 27.9045 68.1097 27.7693C67.9213 27.634 67.6743 27.5664 67.3686 27.5664C67.1695 27.5664 66.9811 27.6031 66.8034 27.6765C66.6257 27.7461 66.4693 27.8601 66.3342 28.0185C66.2027 28.177 66.0978 28.3857 66.0196 28.6446C65.945 28.9035 65.9077 29.2184 65.9077 29.5894L65.2145 29.3054C65.2145 28.7373 65.3123 28.2369 65.5078 27.8041C65.7033 27.3674 65.9841 27.0273 66.3502 26.7839C66.7163 26.5404 67.1589 26.4187 67.6778 26.4187C68.0759 26.4187 68.4101 26.4882 68.6802 26.6274C68.9503 26.7665 69.169 26.95 69.336 27.178C69.5066 27.4022 69.6364 27.6476 69.7252 27.9142C69.8141 28.1808 69.8745 28.4417 69.9065 28.6967C69.9385 28.9518 69.9545 29.1759 69.9545 29.3692V32.8471H68.8242ZM64.7773 32.8471V26.5868H65.7744V28.3953H65.9077V32.8471H64.7773ZM74.6385 32.8471C74.2759 32.9244 73.9205 32.9573 73.5721 32.9457C73.2238 32.9341 72.9128 32.8606 72.6391 32.7254C72.3654 32.5901 72.1592 32.3776 72.0206 32.0878C71.8962 31.8288 71.8286 31.5661 71.818 31.2994C71.8109 31.0289 71.8073 30.7236 71.8073 30.3836V24.8478H72.927V30.3256C72.927 30.5768 72.9287 30.7951 72.9323 30.9806C72.9394 31.1661 72.9767 31.3226 73.0443 31.4501C73.1722 31.6897 73.3748 31.8269 73.6521 31.8617C73.9329 31.8926 74.2617 31.8791 74.6385 31.8211V32.8471ZM70.7036 27.5606V26.5868H74.6385V27.5606H70.7036Z" fill="#102321"/>
</g>
<defs>
<clipPath id="clip0_2870_19061">
<rect width="239" height="42" fill="white"/>
</clipPath>
</defs>
</svg>
