<svg width="492" height="253" viewBox="0 0 492 253" fill="none" xmlns="http://www.w3.org/2000/svg">
<path d="M46.4521 248.425V243.391H47.3896V248.425C47.3896 248.894 47.2936 249.289 47.1016 249.611C46.9095 249.934 46.6442 250.179 46.3057 250.349C45.9704 250.515 45.5846 250.598 45.1484 250.598C44.7122 250.598 44.3249 250.523 43.9863 250.373C43.6478 250.223 43.3825 249.995 43.1904 249.689C42.9984 249.383 42.9023 248.998 42.9023 248.532H43.8447C43.8447 248.832 43.9001 249.077 44.0107 249.27C44.1214 249.462 44.2744 249.603 44.4697 249.694C44.6683 249.785 44.8945 249.831 45.1484 249.831C45.3958 249.831 45.6172 249.779 45.8125 249.675C46.0111 249.567 46.1673 249.41 46.2812 249.201C46.3952 248.99 46.4521 248.731 46.4521 248.425ZM52.082 249.279V245.217H52.9902V250.5H52.126L52.082 249.279ZM52.2529 248.166L52.6289 248.156C52.6289 248.508 52.5915 248.833 52.5166 249.133C52.445 249.429 52.3278 249.686 52.165 249.904C52.0023 250.122 51.7891 250.293 51.5254 250.417C51.2617 250.537 50.9411 250.598 50.5635 250.598C50.3063 250.598 50.0703 250.56 49.8555 250.485C49.6439 250.41 49.4616 250.295 49.3086 250.139C49.1556 249.982 49.0368 249.779 48.9521 249.528C48.8708 249.278 48.8301 248.977 48.8301 248.625V245.217H49.7334V248.635C49.7334 248.872 49.7594 249.069 49.8115 249.226C49.8669 249.379 49.9401 249.501 50.0312 249.592C50.1257 249.68 50.2298 249.742 50.3438 249.777C50.4609 249.813 50.5814 249.831 50.7051 249.831C51.0892 249.831 51.3936 249.758 51.6182 249.611C51.8428 249.462 52.0039 249.261 52.1016 249.011C52.2025 248.757 52.2529 248.475 52.2529 248.166ZM55.3486 243V250.5H54.4404V243H55.3486ZM58.2832 249.953L59.7529 245.217H60.7197L58.6006 251.315C58.5518 251.446 58.4867 251.586 58.4053 251.735C58.3271 251.888 58.2262 252.033 58.1025 252.17C57.9788 252.307 57.8291 252.417 57.6533 252.502C57.4808 252.59 57.2741 252.634 57.0332 252.634C56.9616 252.634 56.8704 252.624 56.7598 252.604C56.6491 252.585 56.571 252.569 56.5254 252.556L56.5205 251.823C56.5465 251.826 56.5872 251.83 56.6426 251.833C56.7012 251.84 56.7419 251.843 56.7646 251.843C56.9697 251.843 57.1439 251.815 57.2871 251.76C57.4303 251.708 57.5508 251.618 57.6484 251.491C57.7493 251.368 57.8356 251.197 57.9072 250.979L58.2832 249.953ZM57.2041 245.217L58.5762 249.318L58.8105 250.271L58.1611 250.603L56.2178 245.217H57.2041ZM68.5762 249.758V250.5H63.9229V249.851L66.252 247.258C66.5384 246.939 66.7598 246.669 66.916 246.447C67.0755 246.223 67.1862 246.022 67.248 245.847C67.3132 245.668 67.3457 245.485 67.3457 245.3C67.3457 245.065 67.2969 244.854 67.1992 244.665C67.1048 244.473 66.9648 244.32 66.7793 244.206C66.5938 244.092 66.3691 244.035 66.1055 244.035C65.7897 244.035 65.526 244.097 65.3145 244.221C65.1061 244.341 64.9499 244.51 64.8457 244.729C64.7415 244.947 64.6895 245.197 64.6895 245.48H63.7861C63.7861 245.08 63.874 244.714 64.0498 244.382C64.2256 244.05 64.486 243.786 64.8311 243.591C65.1761 243.392 65.6009 243.293 66.1055 243.293C66.5547 243.293 66.9388 243.373 67.2578 243.532C67.5768 243.688 67.821 243.91 67.9902 244.196C68.1628 244.479 68.249 244.812 68.249 245.192C68.249 245.401 68.2132 245.612 68.1416 245.827C68.0732 246.039 67.9772 246.25 67.8535 246.462C67.7331 246.674 67.5915 246.882 67.4287 247.087C67.2692 247.292 67.0983 247.494 66.916 247.692L65.0117 249.758H68.5762ZM70.4414 249.743H70.5342C71.055 249.743 71.4782 249.67 71.8037 249.523C72.1292 249.377 72.3799 249.18 72.5557 248.933C72.7314 248.685 72.8519 248.407 72.917 248.098C72.9821 247.785 73.0146 247.465 73.0146 247.136V246.047C73.0146 245.725 72.9772 245.438 72.9023 245.188C72.8307 244.937 72.7298 244.727 72.5996 244.558C72.4727 244.388 72.3278 244.26 72.165 244.172C72.0023 244.084 71.8298 244.04 71.6475 244.04C71.4391 244.04 71.252 244.082 71.0859 244.167C70.9232 244.248 70.7848 244.364 70.6709 244.514C70.5602 244.663 70.4756 244.839 70.417 245.041C70.3584 245.243 70.3291 245.463 70.3291 245.7C70.3291 245.912 70.3551 246.117 70.4072 246.315C70.4593 246.514 70.5391 246.693 70.6465 246.853C70.7539 247.012 70.8874 247.139 71.0469 247.233C71.2096 247.325 71.4001 247.37 71.6182 247.37C71.82 247.37 72.0088 247.331 72.1846 247.253C72.3636 247.172 72.5215 247.062 72.6582 246.926C72.7982 246.786 72.9089 246.628 72.9902 246.452C73.0749 246.276 73.1237 246.092 73.1367 245.9H73.5664C73.5664 246.171 73.5127 246.438 73.4053 246.701C73.3011 246.962 73.1546 247.199 72.9658 247.414C72.777 247.629 72.5557 247.801 72.3018 247.932C72.0479 248.059 71.7712 248.122 71.4717 248.122C71.1201 248.122 70.8158 248.054 70.5586 247.917C70.3014 247.78 70.0898 247.598 69.9238 247.37C69.7611 247.142 69.639 246.888 69.5576 246.608C69.4795 246.325 69.4404 246.039 69.4404 245.749C69.4404 245.41 69.4876 245.093 69.582 244.797C69.6764 244.501 69.8164 244.24 70.002 244.016C70.1875 243.788 70.417 243.61 70.6904 243.483C70.9671 243.356 71.2861 243.293 71.6475 243.293C72.0544 243.293 72.401 243.374 72.6875 243.537C72.974 243.7 73.2067 243.918 73.3857 244.191C73.568 244.465 73.7015 244.772 73.7861 245.114C73.8708 245.456 73.9131 245.808 73.9131 246.169V246.496C73.9131 246.864 73.8887 247.238 73.8398 247.619C73.7943 247.997 73.7048 248.358 73.5713 248.703C73.4411 249.048 73.2507 249.357 73 249.631C72.7493 249.901 72.4222 250.116 72.0186 250.275C71.6182 250.432 71.1234 250.51 70.5342 250.51H70.4414V249.743ZM77.4775 245.217V245.91H74.6211V245.217H77.4775ZM75.5879 243.933H76.4912V249.191C76.4912 249.37 76.5189 249.506 76.5742 249.597C76.6296 249.688 76.7012 249.748 76.7891 249.777C76.877 249.807 76.9714 249.821 77.0723 249.821C77.1471 249.821 77.2253 249.815 77.3066 249.802C77.3913 249.785 77.4548 249.772 77.4971 249.763L77.502 250.5C77.4303 250.523 77.3359 250.544 77.2188 250.563C77.1048 250.586 76.9665 250.598 76.8037 250.598C76.5824 250.598 76.3789 250.554 76.1934 250.466C76.0078 250.378 75.8597 250.231 75.749 250.026C75.6416 249.818 75.5879 249.538 75.5879 249.187V243.933ZM79.4404 243V250.5H78.5371V243H79.4404ZM79.2256 247.658L78.8496 247.644C78.8529 247.282 78.9066 246.949 79.0107 246.643C79.1149 246.333 79.2614 246.065 79.4502 245.837C79.639 245.609 79.8636 245.433 80.124 245.31C80.3877 245.183 80.679 245.119 80.998 245.119C81.2585 245.119 81.4928 245.155 81.7012 245.227C81.9095 245.295 82.0869 245.406 82.2334 245.559C82.3831 245.712 82.4971 245.91 82.5752 246.154C82.6533 246.395 82.6924 246.69 82.6924 247.038V250.5H81.7842V247.028C81.7842 246.752 81.7435 246.53 81.6621 246.364C81.5807 246.195 81.4619 246.073 81.3057 245.998C81.1494 245.92 80.9574 245.881 80.7295 245.881C80.5049 245.881 80.2998 245.928 80.1143 246.022C79.932 246.117 79.7741 246.247 79.6406 246.413C79.5104 246.579 79.4079 246.77 79.333 246.984C79.2614 247.196 79.2256 247.421 79.2256 247.658Z" fill="#102321"/>
<path d="M5.24902 215.258V216H0.595703V215.351L2.9248 212.758C3.21126 212.439 3.43262 212.169 3.58887 211.947C3.74837 211.723 3.85905 211.522 3.9209 211.347C3.986 211.168 4.01855 210.985 4.01855 210.8C4.01855 210.565 3.96973 210.354 3.87207 210.165C3.77767 209.973 3.6377 209.82 3.45215 209.706C3.2666 209.592 3.04199 209.535 2.77832 209.535C2.46257 209.535 2.19889 209.597 1.9873 209.721C1.77897 209.841 1.62272 210.01 1.51855 210.229C1.41439 210.447 1.3623 210.697 1.3623 210.98H0.458984C0.458984 210.58 0.546875 210.214 0.722656 209.882C0.898438 209.55 1.15885 209.286 1.50391 209.091C1.84896 208.892 2.27376 208.793 2.77832 208.793C3.22754 208.793 3.61165 208.873 3.93066 209.032C4.24967 209.188 4.49382 209.41 4.66309 209.696C4.83561 209.979 4.92188 210.312 4.92188 210.692C4.92188 210.901 4.88607 211.112 4.81445 211.327C4.74609 211.539 4.65007 211.75 4.52637 211.962C4.40592 212.174 4.26432 212.382 4.10156 212.587C3.94206 212.792 3.77116 212.994 3.58887 213.192L1.68457 215.258H5.24902ZM10.8105 208.891V209.398L7.86621 216H6.91406L9.85352 209.633H6.00586V208.891H10.8105ZM11.9531 215.521C11.9531 215.368 12.0003 215.24 12.0947 215.136C12.1924 215.028 12.3324 214.975 12.5146 214.975C12.6969 214.975 12.8353 215.028 12.9297 215.136C13.0273 215.24 13.0762 215.368 13.0762 215.521C13.0762 215.671 13.0273 215.798 12.9297 215.902C12.8353 216.007 12.6969 216.059 12.5146 216.059C12.3324 216.059 12.1924 216.007 12.0947 215.902C12.0003 215.798 11.9531 215.671 11.9531 215.521ZM15.6201 212.616L14.8975 212.431L15.2539 208.891H18.9014V209.726H16.0205L15.8057 211.659C15.9359 211.584 16.1003 211.514 16.2988 211.449C16.5007 211.384 16.7318 211.352 16.9922 211.352C17.321 211.352 17.6156 211.409 17.876 211.522C18.1364 211.633 18.3577 211.793 18.54 212.001C18.7256 212.209 18.8672 212.46 18.9648 212.753C19.0625 213.046 19.1113 213.373 19.1113 213.734C19.1113 214.076 19.0641 214.39 18.9697 214.677C18.8786 214.963 18.7402 215.214 18.5547 215.429C18.3691 215.64 18.1348 215.805 17.8516 215.922C17.5716 216.039 17.2412 216.098 16.8604 216.098C16.5739 216.098 16.3021 216.059 16.0449 215.98C15.791 215.899 15.5632 215.777 15.3613 215.614C15.1628 215.448 15 215.243 14.873 214.999C14.7493 214.752 14.6712 214.462 14.6387 214.13H15.498C15.5371 214.397 15.6152 214.621 15.7324 214.804C15.8496 214.986 16.0026 215.124 16.1914 215.219C16.3835 215.31 16.6064 215.355 16.8604 215.355C17.0752 215.355 17.2656 215.318 17.4316 215.243C17.5977 215.168 17.7376 215.061 17.8516 214.921C17.9655 214.781 18.0518 214.612 18.1104 214.413C18.1722 214.215 18.2031 213.992 18.2031 213.744C18.2031 213.52 18.1722 213.311 18.1104 213.119C18.0485 212.927 17.9557 212.759 17.832 212.616C17.7116 212.473 17.5635 212.362 17.3877 212.284C17.2119 212.203 17.0101 212.162 16.7822 212.162C16.4795 212.162 16.25 212.203 16.0938 212.284C15.9408 212.366 15.7829 212.476 15.6201 212.616ZM20.1123 210.907V210.512C20.1123 210.176 20.1807 209.88 20.3174 209.623C20.4541 209.363 20.6462 209.159 20.8936 209.013C21.1442 208.863 21.4404 208.788 21.7822 208.788C22.1273 208.788 22.4235 208.863 22.6709 209.013C22.9215 209.159 23.1136 209.363 23.2471 209.623C23.3838 209.88 23.4521 210.176 23.4521 210.512V210.907C23.4521 211.243 23.3838 211.54 23.2471 211.801C23.1136 212.058 22.9232 212.26 22.6758 212.406C22.4284 212.553 22.1338 212.626 21.792 212.626C21.4469 212.626 21.1491 212.553 20.8984 212.406C20.6478 212.26 20.4541 212.058 20.3174 211.801C20.1807 211.54 20.1123 211.243 20.1123 210.907ZM20.9082 210.512V210.907C20.9082 211.106 20.9391 211.283 21.001 211.439C21.0661 211.596 21.1637 211.719 21.2939 211.811C21.4274 211.902 21.5934 211.947 21.792 211.947C21.9873 211.947 22.1484 211.902 22.2754 211.811C22.4056 211.719 22.5016 211.596 22.5635 211.439C22.6286 211.283 22.6611 211.106 22.6611 210.907V210.512C22.6611 210.316 22.6286 210.141 22.5635 209.984C22.4984 209.828 22.4007 209.704 22.2705 209.613C22.1436 209.522 21.9808 209.477 21.7822 209.477C21.5869 209.477 21.4242 209.522 21.2939 209.613C21.1637 209.704 21.0661 209.828 21.001 209.984C20.9391 210.141 20.9082 210.316 20.9082 210.512ZM29.1797 213.739H30.1172C30.0684 214.188 29.9398 214.59 29.7314 214.945C29.5231 215.3 29.2285 215.582 28.8477 215.79C28.4668 215.995 27.9915 216.098 27.4219 216.098C27.0052 216.098 26.626 216.02 26.2842 215.863C25.9456 215.707 25.6543 215.486 25.4102 215.199C25.166 214.91 24.9772 214.563 24.8438 214.159C24.7135 213.752 24.6484 213.3 24.6484 212.802V212.094C24.6484 211.596 24.7135 211.145 24.8438 210.741C24.9772 210.334 25.1676 209.986 25.415 209.696C25.6657 209.407 25.9668 209.184 26.3184 209.027C26.6699 208.871 27.0654 208.793 27.5049 208.793C28.042 208.793 28.4961 208.894 28.8672 209.096C29.2383 209.298 29.5264 209.577 29.7314 209.936C29.9398 210.29 30.0684 210.702 30.1172 211.171H29.1797C29.1341 210.839 29.0495 210.554 28.9258 210.316C28.8021 210.076 28.6263 209.89 28.3984 209.76C28.1706 209.63 27.8727 209.564 27.5049 209.564C27.1891 209.564 26.9108 209.625 26.6699 209.745C26.4323 209.866 26.2321 210.036 26.0693 210.258C25.9098 210.479 25.7894 210.744 25.708 211.054C25.6266 211.363 25.5859 211.706 25.5859 212.084V212.802C25.5859 213.15 25.6217 213.477 25.6934 213.783C25.7682 214.089 25.8805 214.358 26.0303 214.589C26.18 214.82 26.3704 215.002 26.6016 215.136C26.8327 215.266 27.1061 215.331 27.4219 215.331C27.8223 215.331 28.1413 215.268 28.3789 215.141C28.6165 215.014 28.7956 214.831 28.916 214.594C29.0397 214.356 29.1276 214.071 29.1797 213.739Z" fill="#102321"/>
<path d="M1.90918 165.001H2.55371C2.86947 165.001 3.12988 164.949 3.33496 164.845C3.54329 164.737 3.69792 164.592 3.79883 164.41C3.90299 164.225 3.95508 164.016 3.95508 163.785C3.95508 163.512 3.90951 163.282 3.81836 163.097C3.72721 162.911 3.59049 162.771 3.4082 162.677C3.22591 162.582 2.99479 162.535 2.71484 162.535C2.46094 162.535 2.23633 162.586 2.04102 162.687C1.84896 162.784 1.69759 162.924 1.58691 163.106C1.47949 163.289 1.42578 163.504 1.42578 163.751H0.522461C0.522461 163.39 0.613607 163.061 0.795898 162.765C0.97819 162.468 1.23372 162.232 1.5625 162.057C1.89453 161.881 2.27865 161.793 2.71484 161.793C3.14453 161.793 3.52051 161.869 3.84277 162.022C4.16504 162.172 4.41569 162.397 4.59473 162.696C4.77376 162.993 4.86328 163.362 4.86328 163.805C4.86328 163.984 4.82096 164.176 4.73633 164.381C4.65495 164.583 4.52637 164.771 4.35059 164.947C4.17806 165.123 3.95345 165.268 3.67676 165.382C3.40007 165.493 3.06803 165.548 2.68066 165.548H1.90918V165.001ZM1.90918 165.743V165.201H2.68066C3.13314 165.201 3.50749 165.255 3.80371 165.362C4.09993 165.47 4.33268 165.613 4.50195 165.792C4.67448 165.971 4.79492 166.168 4.86328 166.383C4.9349 166.594 4.9707 166.806 4.9707 167.018C4.9707 167.35 4.91374 167.644 4.7998 167.901C4.68913 168.159 4.53125 168.377 4.32617 168.556C4.12435 168.735 3.88672 168.87 3.61328 168.961C3.33984 169.052 3.04199 169.098 2.71973 169.098C2.41048 169.098 2.11914 169.054 1.8457 168.966C1.57552 168.878 1.33626 168.751 1.12793 168.585C0.919596 168.416 0.756836 168.209 0.639648 167.965C0.522461 167.717 0.463867 167.436 0.463867 167.12H1.36719C1.36719 167.368 1.4209 167.584 1.52832 167.77C1.639 167.955 1.79525 168.1 1.99707 168.204C2.20215 168.305 2.44303 168.355 2.71973 168.355C2.99642 168.355 3.23405 168.308 3.43262 168.214C3.63444 168.116 3.78906 167.97 3.89648 167.774C4.00716 167.579 4.0625 167.333 4.0625 167.037C4.0625 166.741 4.00065 166.498 3.87695 166.31C3.75326 166.118 3.57747 165.976 3.34961 165.885C3.125 165.79 2.8597 165.743 2.55371 165.743H1.90918ZM10.874 168.258V169H6.2207V168.351L8.5498 165.758C8.83626 165.439 9.05762 165.169 9.21387 164.947C9.37337 164.723 9.48405 164.522 9.5459 164.347C9.611 164.168 9.64355 163.985 9.64355 163.8C9.64355 163.565 9.59473 163.354 9.49707 163.165C9.40267 162.973 9.2627 162.82 9.07715 162.706C8.8916 162.592 8.66699 162.535 8.40332 162.535C8.08757 162.535 7.82389 162.597 7.6123 162.721C7.40397 162.841 7.24772 163.01 7.14355 163.229C7.03939 163.447 6.9873 163.697 6.9873 163.98H6.08398C6.08398 163.58 6.17188 163.214 6.34766 162.882C6.52344 162.55 6.78385 162.286 7.12891 162.091C7.47396 161.892 7.89876 161.793 8.40332 161.793C8.85254 161.793 9.23665 161.873 9.55566 162.032C9.87467 162.188 10.1188 162.41 10.2881 162.696C10.4606 162.979 10.5469 163.312 10.5469 163.692C10.5469 163.901 10.5111 164.112 10.4395 164.327C10.3711 164.539 10.2751 164.75 10.1514 164.962C10.0309 165.174 9.88932 165.382 9.72656 165.587C9.56706 165.792 9.39616 165.994 9.21387 166.192L7.30957 168.258H10.874ZM11.9531 168.521C11.9531 168.368 12.0003 168.24 12.0947 168.136C12.1924 168.028 12.3324 167.975 12.5146 167.975C12.6969 167.975 12.8353 168.028 12.9297 168.136C13.0273 168.24 13.0762 168.368 13.0762 168.521C13.0762 168.671 13.0273 168.798 12.9297 168.902C12.8353 169.007 12.6969 169.059 12.5146 169.059C12.3324 169.059 12.1924 169.007 12.0947 168.902C12.0003 168.798 11.9531 168.671 11.9531 168.521ZM15.6201 165.616L14.8975 165.431L15.2539 161.891H18.9014V162.726H16.0205L15.8057 164.659C15.9359 164.584 16.1003 164.514 16.2988 164.449C16.5007 164.384 16.7318 164.352 16.9922 164.352C17.321 164.352 17.6156 164.409 17.876 164.522C18.1364 164.633 18.3577 164.793 18.54 165.001C18.7256 165.209 18.8672 165.46 18.9648 165.753C19.0625 166.046 19.1113 166.373 19.1113 166.734C19.1113 167.076 19.0641 167.39 18.9697 167.677C18.8786 167.963 18.7402 168.214 18.5547 168.429C18.3691 168.64 18.1348 168.805 17.8516 168.922C17.5716 169.039 17.2412 169.098 16.8604 169.098C16.5739 169.098 16.3021 169.059 16.0449 168.98C15.791 168.899 15.5632 168.777 15.3613 168.614C15.1628 168.448 15 168.243 14.873 167.999C14.7493 167.752 14.6712 167.462 14.6387 167.13H15.498C15.5371 167.397 15.6152 167.621 15.7324 167.804C15.8496 167.986 16.0026 168.124 16.1914 168.219C16.3835 168.31 16.6064 168.355 16.8604 168.355C17.0752 168.355 17.2656 168.318 17.4316 168.243C17.5977 168.168 17.7376 168.061 17.8516 167.921C17.9655 167.781 18.0518 167.612 18.1104 167.413C18.1722 167.215 18.2031 166.992 18.2031 166.744C18.2031 166.52 18.1722 166.311 18.1104 166.119C18.0485 165.927 17.9557 165.759 17.832 165.616C17.7116 165.473 17.5635 165.362 17.3877 165.284C17.2119 165.203 17.0101 165.162 16.7822 165.162C16.4795 165.162 16.25 165.203 16.0938 165.284C15.9408 165.366 15.7829 165.476 15.6201 165.616ZM20.1123 163.907V163.512C20.1123 163.176 20.1807 162.88 20.3174 162.623C20.4541 162.363 20.6462 162.159 20.8936 162.013C21.1442 161.863 21.4404 161.788 21.7822 161.788C22.1273 161.788 22.4235 161.863 22.6709 162.013C22.9215 162.159 23.1136 162.363 23.2471 162.623C23.3838 162.88 23.4521 163.176 23.4521 163.512V163.907C23.4521 164.243 23.3838 164.54 23.2471 164.801C23.1136 165.058 22.9232 165.26 22.6758 165.406C22.4284 165.553 22.1338 165.626 21.792 165.626C21.4469 165.626 21.1491 165.553 20.8984 165.406C20.6478 165.26 20.4541 165.058 20.3174 164.801C20.1807 164.54 20.1123 164.243 20.1123 163.907ZM20.9082 163.512V163.907C20.9082 164.106 20.9391 164.283 21.001 164.439C21.0661 164.596 21.1637 164.719 21.2939 164.811C21.4274 164.902 21.5934 164.947 21.792 164.947C21.9873 164.947 22.1484 164.902 22.2754 164.811C22.4056 164.719 22.5016 164.596 22.5635 164.439C22.6286 164.283 22.6611 164.106 22.6611 163.907V163.512C22.6611 163.316 22.6286 163.141 22.5635 162.984C22.4984 162.828 22.4007 162.704 22.2705 162.613C22.1436 162.522 21.9808 162.477 21.7822 162.477C21.5869 162.477 21.4242 162.522 21.2939 162.613C21.1637 162.704 21.0661 162.828 21.001 162.984C20.9391 163.141 20.9082 163.316 20.9082 163.512ZM29.1797 166.739H30.1172C30.0684 167.188 29.9398 167.59 29.7314 167.945C29.5231 168.3 29.2285 168.582 28.8477 168.79C28.4668 168.995 27.9915 169.098 27.4219 169.098C27.0052 169.098 26.626 169.02 26.2842 168.863C25.9456 168.707 25.6543 168.486 25.4102 168.199C25.166 167.91 24.9772 167.563 24.8438 167.159C24.7135 166.752 24.6484 166.3 24.6484 165.802V165.094C24.6484 164.596 24.7135 164.145 24.8438 163.741C24.9772 163.334 25.1676 162.986 25.415 162.696C25.6657 162.407 25.9668 162.184 26.3184 162.027C26.6699 161.871 27.0654 161.793 27.5049 161.793C28.042 161.793 28.4961 161.894 28.8672 162.096C29.2383 162.298 29.5264 162.577 29.7314 162.936C29.9398 163.29 30.0684 163.702 30.1172 164.171H29.1797C29.1341 163.839 29.0495 163.554 28.9258 163.316C28.8021 163.076 28.6263 162.89 28.3984 162.76C28.1706 162.63 27.8727 162.564 27.5049 162.564C27.1891 162.564 26.9108 162.625 26.6699 162.745C26.4323 162.866 26.2321 163.036 26.0693 163.258C25.9098 163.479 25.7894 163.744 25.708 164.054C25.6266 164.363 25.5859 164.706 25.5859 165.084V165.802C25.5859 166.15 25.6217 166.477 25.6934 166.783C25.7682 167.089 25.8805 167.358 26.0303 167.589C26.18 167.82 26.3704 168.002 26.6016 168.136C26.8327 168.266 27.1061 168.331 27.4219 168.331C27.8223 168.331 28.1413 168.268 28.3789 168.141C28.6165 168.014 28.7956 167.831 28.916 167.594C29.0397 167.356 29.1276 167.071 29.1797 166.739Z" fill="#102321"/>
<path d="M1.90918 115.001H2.55371C2.86947 115.001 3.12988 114.949 3.33496 114.845C3.54329 114.737 3.69792 114.592 3.79883 114.41C3.90299 114.225 3.95508 114.016 3.95508 113.785C3.95508 113.512 3.90951 113.282 3.81836 113.097C3.72721 112.911 3.59049 112.771 3.4082 112.677C3.22591 112.582 2.99479 112.535 2.71484 112.535C2.46094 112.535 2.23633 112.586 2.04102 112.687C1.84896 112.784 1.69759 112.924 1.58691 113.106C1.47949 113.289 1.42578 113.504 1.42578 113.751H0.522461C0.522461 113.39 0.613607 113.061 0.795898 112.765C0.97819 112.468 1.23372 112.232 1.5625 112.057C1.89453 111.881 2.27865 111.793 2.71484 111.793C3.14453 111.793 3.52051 111.869 3.84277 112.022C4.16504 112.172 4.41569 112.397 4.59473 112.696C4.77376 112.993 4.86328 113.362 4.86328 113.805C4.86328 113.984 4.82096 114.176 4.73633 114.381C4.65495 114.583 4.52637 114.771 4.35059 114.947C4.17806 115.123 3.95345 115.268 3.67676 115.382C3.40007 115.493 3.06803 115.548 2.68066 115.548H1.90918V115.001ZM1.90918 115.743V115.201H2.68066C3.13314 115.201 3.50749 115.255 3.80371 115.362C4.09993 115.47 4.33268 115.613 4.50195 115.792C4.67448 115.971 4.79492 116.168 4.86328 116.383C4.9349 116.594 4.9707 116.806 4.9707 117.018C4.9707 117.35 4.91374 117.644 4.7998 117.901C4.68913 118.159 4.53125 118.377 4.32617 118.556C4.12435 118.735 3.88672 118.87 3.61328 118.961C3.33984 119.052 3.04199 119.098 2.71973 119.098C2.41048 119.098 2.11914 119.054 1.8457 118.966C1.57552 118.878 1.33626 118.751 1.12793 118.585C0.919596 118.416 0.756836 118.209 0.639648 117.965C0.522461 117.717 0.463867 117.436 0.463867 117.12H1.36719C1.36719 117.368 1.4209 117.584 1.52832 117.77C1.639 117.955 1.79525 118.1 1.99707 118.204C2.20215 118.305 2.44303 118.355 2.71973 118.355C2.99642 118.355 3.23405 118.308 3.43262 118.214C3.63444 118.116 3.78906 117.97 3.89648 117.774C4.00716 117.579 4.0625 117.333 4.0625 117.037C4.0625 116.741 4.00065 116.498 3.87695 116.31C3.75326 116.118 3.57747 115.976 3.34961 115.885C3.125 115.79 2.8597 115.743 2.55371 115.743H1.90918ZM10.8105 111.891V112.398L7.86621 119H6.91406L9.85352 112.633H6.00586V111.891H10.8105ZM11.9531 118.521C11.9531 118.368 12.0003 118.24 12.0947 118.136C12.1924 118.028 12.3324 117.975 12.5146 117.975C12.6969 117.975 12.8353 118.028 12.9297 118.136C13.0273 118.24 13.0762 118.368 13.0762 118.521C13.0762 118.671 13.0273 118.798 12.9297 118.902C12.8353 119.007 12.6969 119.059 12.5146 119.059C12.3324 119.059 12.1924 119.007 12.0947 118.902C12.0003 118.798 11.9531 118.671 11.9531 118.521ZM15.6201 115.616L14.8975 115.431L15.2539 111.891H18.9014V112.726H16.0205L15.8057 114.659C15.9359 114.584 16.1003 114.514 16.2988 114.449C16.5007 114.384 16.7318 114.352 16.9922 114.352C17.321 114.352 17.6156 114.409 17.876 114.522C18.1364 114.633 18.3577 114.793 18.54 115.001C18.7256 115.209 18.8672 115.46 18.9648 115.753C19.0625 116.046 19.1113 116.373 19.1113 116.734C19.1113 117.076 19.0641 117.39 18.9697 117.677C18.8786 117.963 18.7402 118.214 18.5547 118.429C18.3691 118.64 18.1348 118.805 17.8516 118.922C17.5716 119.039 17.2412 119.098 16.8604 119.098C16.5739 119.098 16.3021 119.059 16.0449 118.98C15.791 118.899 15.5632 118.777 15.3613 118.614C15.1628 118.448 15 118.243 14.873 117.999C14.7493 117.752 14.6712 117.462 14.6387 117.13H15.498C15.5371 117.397 15.6152 117.621 15.7324 117.804C15.8496 117.986 16.0026 118.124 16.1914 118.219C16.3835 118.31 16.6064 118.355 16.8604 118.355C17.0752 118.355 17.2656 118.318 17.4316 118.243C17.5977 118.168 17.7376 118.061 17.8516 117.921C17.9655 117.781 18.0518 117.612 18.1104 117.413C18.1722 117.215 18.2031 116.992 18.2031 116.744C18.2031 116.52 18.1722 116.311 18.1104 116.119C18.0485 115.927 17.9557 115.759 17.832 115.616C17.7116 115.473 17.5635 115.362 17.3877 115.284C17.2119 115.203 17.0101 115.162 16.7822 115.162C16.4795 115.162 16.25 115.203 16.0938 115.284C15.9408 115.366 15.7829 115.476 15.6201 115.616ZM20.1123 113.907V113.512C20.1123 113.176 20.1807 112.88 20.3174 112.623C20.4541 112.363 20.6462 112.159 20.8936 112.013C21.1442 111.863 21.4404 111.788 21.7822 111.788C22.1273 111.788 22.4235 111.863 22.6709 112.013C22.9215 112.159 23.1136 112.363 23.2471 112.623C23.3838 112.88 23.4521 113.176 23.4521 113.512V113.907C23.4521 114.243 23.3838 114.54 23.2471 114.801C23.1136 115.058 22.9232 115.26 22.6758 115.406C22.4284 115.553 22.1338 115.626 21.792 115.626C21.4469 115.626 21.1491 115.553 20.8984 115.406C20.6478 115.26 20.4541 115.058 20.3174 114.801C20.1807 114.54 20.1123 114.243 20.1123 113.907ZM20.9082 113.512V113.907C20.9082 114.106 20.9391 114.283 21.001 114.439C21.0661 114.596 21.1637 114.719 21.2939 114.811C21.4274 114.902 21.5934 114.947 21.792 114.947C21.9873 114.947 22.1484 114.902 22.2754 114.811C22.4056 114.719 22.5016 114.596 22.5635 114.439C22.6286 114.283 22.6611 114.106 22.6611 113.907V113.512C22.6611 113.316 22.6286 113.141 22.5635 112.984C22.4984 112.828 22.4007 112.704 22.2705 112.613C22.1436 112.522 21.9808 112.477 21.7822 112.477C21.5869 112.477 21.4242 112.522 21.2939 112.613C21.1637 112.704 21.0661 112.828 21.001 112.984C20.9391 113.141 20.9082 113.316 20.9082 113.512ZM29.1797 116.739H30.1172C30.0684 117.188 29.9398 117.59 29.7314 117.945C29.5231 118.3 29.2285 118.582 28.8477 118.79C28.4668 118.995 27.9915 119.098 27.4219 119.098C27.0052 119.098 26.626 119.02 26.2842 118.863C25.9456 118.707 25.6543 118.486 25.4102 118.199C25.166 117.91 24.9772 117.563 24.8438 117.159C24.7135 116.752 24.6484 116.3 24.6484 115.802V115.094C24.6484 114.596 24.7135 114.145 24.8438 113.741C24.9772 113.334 25.1676 112.986 25.415 112.696C25.6657 112.407 25.9668 112.184 26.3184 112.027C26.6699 111.871 27.0654 111.793 27.5049 111.793C28.042 111.793 28.4961 111.894 28.8672 112.096C29.2383 112.298 29.5264 112.577 29.7314 112.936C29.9398 113.29 30.0684 113.702 30.1172 114.171H29.1797C29.1341 113.839 29.0495 113.554 28.9258 113.316C28.8021 113.076 28.6263 112.89 28.3984 112.76C28.1706 112.63 27.8727 112.564 27.5049 112.564C27.1891 112.564 26.9108 112.625 26.6699 112.745C26.4323 112.866 26.2321 113.036 26.0693 113.258C25.9098 113.479 25.7894 113.744 25.708 114.054C25.6266 114.363 25.5859 114.706 25.5859 115.084V115.802C25.5859 116.15 25.6217 116.477 25.6934 116.783C25.7682 117.089 25.8805 117.358 26.0303 117.589C26.18 117.82 26.3704 118.002 26.6016 118.136C26.8327 118.266 27.1061 118.331 27.4219 118.331C27.8223 118.331 28.1413 118.268 28.3789 118.141C28.6165 118.014 28.7956 117.831 28.916 117.594C29.0397 117.356 29.1276 117.071 29.1797 116.739Z" fill="#102321"/>
<path d="M5.39551 66.6074V67.3496H0.258789V66.8174L3.44238 61.8906H4.17969L3.38867 63.3164L1.28418 66.6074H5.39551ZM4.4043 61.8906V69H3.50098V61.8906H4.4043ZM10.874 68.2578V69H6.2207V68.3506L8.5498 65.7578C8.83626 65.4388 9.05762 65.1686 9.21387 64.9473C9.37337 64.7227 9.48405 64.5225 9.5459 64.3467C9.611 64.1676 9.64355 63.9854 9.64355 63.7998C9.64355 63.5654 9.59473 63.3538 9.49707 63.165C9.40267 62.973 9.2627 62.82 9.07715 62.7061C8.8916 62.5921 8.66699 62.5352 8.40332 62.5352C8.08757 62.5352 7.82389 62.597 7.6123 62.7207C7.40397 62.8411 7.24772 63.0104 7.14355 63.2285C7.03939 63.4466 6.9873 63.6973 6.9873 63.9805H6.08398C6.08398 63.5801 6.17188 63.2139 6.34766 62.8818C6.52344 62.5498 6.78385 62.2861 7.12891 62.0908C7.47396 61.8923 7.89876 61.793 8.40332 61.793C8.85254 61.793 9.23665 61.8727 9.55566 62.0322C9.87467 62.1885 10.1188 62.4098 10.2881 62.6963C10.4606 62.9795 10.5469 63.3115 10.5469 63.6924C10.5469 63.9007 10.5111 64.1123 10.4395 64.3271C10.3711 64.5387 10.2751 64.7503 10.1514 64.9619C10.0309 65.1735 9.88932 65.3818 9.72656 65.5869C9.56706 65.792 9.39616 65.9938 9.21387 66.1924L7.30957 68.2578H10.874ZM11.9531 68.5215C11.9531 68.3685 12.0003 68.2399 12.0947 68.1357C12.1924 68.0283 12.3324 67.9746 12.5146 67.9746C12.6969 67.9746 12.8353 68.0283 12.9297 68.1357C13.0273 68.2399 13.0762 68.3685 13.0762 68.5215C13.0762 68.6712 13.0273 68.7982 12.9297 68.9023C12.8353 69.0065 12.6969 69.0586 12.5146 69.0586C12.3324 69.0586 12.1924 69.0065 12.0947 68.9023C12.0003 68.7982 11.9531 68.6712 11.9531 68.5215ZM15.6201 65.6162L14.8975 65.4307L15.2539 61.8906H18.9014V62.7256H16.0205L15.8057 64.6592C15.9359 64.5843 16.1003 64.5143 16.2988 64.4492C16.5007 64.3841 16.7318 64.3516 16.9922 64.3516C17.321 64.3516 17.6156 64.4085 17.876 64.5225C18.1364 64.6331 18.3577 64.7926 18.54 65.001C18.7256 65.2093 18.8672 65.46 18.9648 65.7529C19.0625 66.0459 19.1113 66.373 19.1113 66.7344C19.1113 67.0762 19.0641 67.3903 18.9697 67.6768C18.8786 67.9632 18.7402 68.2139 18.5547 68.4287C18.3691 68.6403 18.1348 68.8047 17.8516 68.9219C17.5716 69.0391 17.2412 69.0977 16.8604 69.0977C16.5739 69.0977 16.3021 69.0586 16.0449 68.9805C15.791 68.8991 15.5632 68.777 15.3613 68.6143C15.1628 68.4482 15 68.2432 14.873 67.999C14.7493 67.7516 14.6712 67.4619 14.6387 67.1299H15.498C15.5371 67.3968 15.6152 67.6214 15.7324 67.8037C15.8496 67.986 16.0026 68.1243 16.1914 68.2188C16.3835 68.3099 16.6064 68.3555 16.8604 68.3555C17.0752 68.3555 17.2656 68.318 17.4316 68.2432C17.5977 68.1683 17.7376 68.0609 17.8516 67.9209C17.9655 67.7809 18.0518 67.6117 18.1104 67.4131C18.1722 67.2145 18.2031 66.9915 18.2031 66.7441C18.2031 66.5195 18.1722 66.3112 18.1104 66.1191C18.0485 65.9271 17.9557 65.7594 17.832 65.6162C17.7116 65.473 17.5635 65.3623 17.3877 65.2842C17.2119 65.2028 17.0101 65.1621 16.7822 65.1621C16.4795 65.1621 16.25 65.2028 16.0938 65.2842C15.9408 65.3656 15.7829 65.4762 15.6201 65.6162ZM20.1123 63.9072V63.5117C20.1123 63.1764 20.1807 62.8802 20.3174 62.623C20.4541 62.3626 20.6462 62.1592 20.8936 62.0127C21.1442 61.863 21.4404 61.7881 21.7822 61.7881C22.1273 61.7881 22.4235 61.863 22.6709 62.0127C22.9215 62.1592 23.1136 62.3626 23.2471 62.623C23.3838 62.8802 23.4521 63.1764 23.4521 63.5117V63.9072C23.4521 64.2425 23.3838 64.5404 23.2471 64.8008C23.1136 65.0579 22.9232 65.2598 22.6758 65.4062C22.4284 65.5527 22.1338 65.626 21.792 65.626C21.4469 65.626 21.1491 65.5527 20.8984 65.4062C20.6478 65.2598 20.4541 65.0579 20.3174 64.8008C20.1807 64.5404 20.1123 64.2425 20.1123 63.9072ZM20.9082 63.5117V63.9072C20.9082 64.1058 20.9391 64.2832 21.001 64.4395C21.0661 64.5957 21.1637 64.7194 21.2939 64.8105C21.4274 64.9017 21.5934 64.9473 21.792 64.9473C21.9873 64.9473 22.1484 64.9017 22.2754 64.8105C22.4056 64.7194 22.5016 64.5957 22.5635 64.4395C22.6286 64.2832 22.6611 64.1058 22.6611 63.9072V63.5117C22.6611 63.3164 22.6286 63.1406 22.5635 62.9844C22.4984 62.8281 22.4007 62.7044 22.2705 62.6133C22.1436 62.5221 21.9808 62.4766 21.7822 62.4766C21.5869 62.4766 21.4242 62.5221 21.2939 62.6133C21.1637 62.7044 21.0661 62.8281 21.001 62.9844C20.9391 63.1406 20.9082 63.3164 20.9082 63.5117ZM29.1797 66.7393H30.1172C30.0684 67.1885 29.9398 67.5905 29.7314 67.9453C29.5231 68.3001 29.2285 68.5817 28.8477 68.79C28.4668 68.9951 27.9915 69.0977 27.4219 69.0977C27.0052 69.0977 26.626 69.0195 26.2842 68.8633C25.9456 68.707 25.6543 68.4857 25.4102 68.1992C25.166 67.9095 24.9772 67.5628 24.8438 67.1592C24.7135 66.7523 24.6484 66.2998 24.6484 65.8018V65.0938C24.6484 64.5957 24.7135 64.1449 24.8438 63.7412C24.9772 63.3343 25.1676 62.986 25.415 62.6963C25.6657 62.4066 25.9668 62.1836 26.3184 62.0273C26.6699 61.8711 27.0654 61.793 27.5049 61.793C28.042 61.793 28.4961 61.8939 28.8672 62.0957C29.2383 62.2975 29.5264 62.5775 29.7314 62.9355C29.9398 63.2904 30.0684 63.7021 30.1172 64.1709H29.1797C29.1341 63.8389 29.0495 63.554 28.9258 63.3164C28.8021 63.0755 28.6263 62.89 28.3984 62.7598C28.1706 62.6296 27.8727 62.5645 27.5049 62.5645C27.1891 62.5645 26.9108 62.6247 26.6699 62.7451C26.4323 62.8656 26.2321 63.0365 26.0693 63.2578C25.9098 63.4792 25.7894 63.7445 25.708 64.0537C25.6266 64.363 25.5859 64.7064 25.5859 65.084V65.8018C25.5859 66.1501 25.6217 66.4772 25.6934 66.7832C25.7682 67.0892 25.8805 67.3577 26.0303 67.5889C26.18 67.82 26.3704 68.0023 26.6016 68.1357C26.8327 68.266 27.1061 68.3311 27.4219 68.3311C27.8223 68.3311 28.1413 68.2676 28.3789 68.1406C28.6165 68.0137 28.7956 67.8314 28.916 67.5938C29.0397 67.3561 29.1276 67.0713 29.1797 66.7393Z" fill="#102321"/>
<path d="M5.39551 17.1074V17.8496H0.258789V17.3174L3.44238 12.3906H4.17969L3.38867 13.8164L1.28418 17.1074H5.39551ZM4.4043 12.3906V19.5H3.50098V12.3906H4.4043ZM10.8105 12.3906V12.8984L7.86621 19.5H6.91406L9.85352 13.1328H6.00586V12.3906H10.8105ZM11.9531 19.0215C11.9531 18.8685 12.0003 18.7399 12.0947 18.6357C12.1924 18.5283 12.3324 18.4746 12.5146 18.4746C12.6969 18.4746 12.8353 18.5283 12.9297 18.6357C13.0273 18.7399 13.0762 18.8685 13.0762 19.0215C13.0762 19.1712 13.0273 19.2982 12.9297 19.4023C12.8353 19.5065 12.6969 19.5586 12.5146 19.5586C12.3324 19.5586 12.1924 19.5065 12.0947 19.4023C12.0003 19.2982 11.9531 19.1712 11.9531 19.0215ZM15.6201 16.1162L14.8975 15.9307L15.2539 12.3906H18.9014V13.2256H16.0205L15.8057 15.1592C15.9359 15.0843 16.1003 15.0143 16.2988 14.9492C16.5007 14.8841 16.7318 14.8516 16.9922 14.8516C17.321 14.8516 17.6156 14.9085 17.876 15.0225C18.1364 15.1331 18.3577 15.2926 18.54 15.501C18.7256 15.7093 18.8672 15.96 18.9648 16.2529C19.0625 16.5459 19.1113 16.873 19.1113 17.2344C19.1113 17.5762 19.0641 17.8903 18.9697 18.1768C18.8786 18.4632 18.7402 18.7139 18.5547 18.9287C18.3691 19.1403 18.1348 19.3047 17.8516 19.4219C17.5716 19.5391 17.2412 19.5977 16.8604 19.5977C16.5739 19.5977 16.3021 19.5586 16.0449 19.4805C15.791 19.3991 15.5632 19.277 15.3613 19.1143C15.1628 18.9482 15 18.7432 14.873 18.499C14.7493 18.2516 14.6712 17.9619 14.6387 17.6299H15.498C15.5371 17.8968 15.6152 18.1214 15.7324 18.3037C15.8496 18.486 16.0026 18.6243 16.1914 18.7188C16.3835 18.8099 16.6064 18.8555 16.8604 18.8555C17.0752 18.8555 17.2656 18.818 17.4316 18.7432C17.5977 18.6683 17.7376 18.5609 17.8516 18.4209C17.9655 18.2809 18.0518 18.1117 18.1104 17.9131C18.1722 17.7145 18.2031 17.4915 18.2031 17.2441C18.2031 17.0195 18.1722 16.8112 18.1104 16.6191C18.0485 16.4271 17.9557 16.2594 17.832 16.1162C17.7116 15.973 17.5635 15.8623 17.3877 15.7842C17.2119 15.7028 17.0101 15.6621 16.7822 15.6621C16.4795 15.6621 16.25 15.7028 16.0938 15.7842C15.9408 15.8656 15.7829 15.9762 15.6201 16.1162ZM20.1123 14.4072V14.0117C20.1123 13.6764 20.1807 13.3802 20.3174 13.123C20.4541 12.8626 20.6462 12.6592 20.8936 12.5127C21.1442 12.363 21.4404 12.2881 21.7822 12.2881C22.1273 12.2881 22.4235 12.363 22.6709 12.5127C22.9215 12.6592 23.1136 12.8626 23.2471 13.123C23.3838 13.3802 23.4521 13.6764 23.4521 14.0117V14.4072C23.4521 14.7425 23.3838 15.0404 23.2471 15.3008C23.1136 15.5579 22.9232 15.7598 22.6758 15.9062C22.4284 16.0527 22.1338 16.126 21.792 16.126C21.4469 16.126 21.1491 16.0527 20.8984 15.9062C20.6478 15.7598 20.4541 15.5579 20.3174 15.3008C20.1807 15.0404 20.1123 14.7425 20.1123 14.4072ZM20.9082 14.0117V14.4072C20.9082 14.6058 20.9391 14.7832 21.001 14.9395C21.0661 15.0957 21.1637 15.2194 21.2939 15.3105C21.4274 15.4017 21.5934 15.4473 21.792 15.4473C21.9873 15.4473 22.1484 15.4017 22.2754 15.3105C22.4056 15.2194 22.5016 15.0957 22.5635 14.9395C22.6286 14.7832 22.6611 14.6058 22.6611 14.4072V14.0117C22.6611 13.8164 22.6286 13.6406 22.5635 13.4844C22.4984 13.3281 22.4007 13.2044 22.2705 13.1133C22.1436 13.0221 21.9808 12.9766 21.7822 12.9766C21.5869 12.9766 21.4242 13.0221 21.2939 13.1133C21.1637 13.2044 21.0661 13.3281 21.001 13.4844C20.9391 13.6406 20.9082 13.8164 20.9082 14.0117ZM29.1797 17.2393H30.1172C30.0684 17.6885 29.9398 18.0905 29.7314 18.4453C29.5231 18.8001 29.2285 19.0817 28.8477 19.29C28.4668 19.4951 27.9915 19.5977 27.4219 19.5977C27.0052 19.5977 26.626 19.5195 26.2842 19.3633C25.9456 19.207 25.6543 18.9857 25.4102 18.6992C25.166 18.4095 24.9772 18.0628 24.8438 17.6592C24.7135 17.2523 24.6484 16.7998 24.6484 16.3018V15.5938C24.6484 15.0957 24.7135 14.6449 24.8438 14.2412C24.9772 13.8343 25.1676 13.486 25.415 13.1963C25.6657 12.9066 25.9668 12.6836 26.3184 12.5273C26.6699 12.3711 27.0654 12.293 27.5049 12.293C28.042 12.293 28.4961 12.3939 28.8672 12.5957C29.2383 12.7975 29.5264 13.0775 29.7314 13.4355C29.9398 13.7904 30.0684 14.2021 30.1172 14.6709H29.1797C29.1341 14.3389 29.0495 14.054 28.9258 13.8164C28.8021 13.5755 28.6263 13.39 28.3984 13.2598C28.1706 13.1296 27.8727 13.0645 27.5049 13.0645C27.1891 13.0645 26.9108 13.1247 26.6699 13.2451C26.4323 13.3656 26.2321 13.5365 26.0693 13.7578C25.9098 13.9792 25.7894 14.2445 25.708 14.5537C25.6266 14.863 25.5859 15.2064 25.5859 15.584V16.3018C25.5859 16.6501 25.6217 16.9772 25.6934 17.2832C25.7682 17.5892 25.8805 17.8577 26.0303 18.0889C26.18 18.32 26.3704 18.5023 26.6016 18.6357C26.8327 18.766 27.1061 18.8311 27.4219 18.8311C27.8223 18.8311 28.1413 18.7676 28.3789 18.6406C28.6165 18.5137 28.7956 18.3314 28.916 18.0938C29.0397 17.8561 29.1276 17.5713 29.1797 17.2393Z" fill="#102321"/>
<path d="M217.16 243.521L214.807 250H213.845L216.555 242.891H217.175L217.16 243.521ZM219.133 250L216.774 243.521L216.76 242.891H217.38L220.1 250H219.133ZM219.011 247.368V248.14H215.017V247.368H219.011ZM224.089 248.779V244.717H224.997V250H224.133L224.089 248.779ZM224.26 247.666L224.636 247.656C224.636 248.008 224.598 248.333 224.523 248.633C224.452 248.929 224.335 249.186 224.172 249.404C224.009 249.622 223.796 249.793 223.532 249.917C223.269 250.037 222.948 250.098 222.57 250.098C222.313 250.098 222.077 250.06 221.862 249.985C221.651 249.91 221.468 249.795 221.315 249.639C221.162 249.482 221.044 249.279 220.959 249.028C220.878 248.778 220.837 248.477 220.837 248.125V244.717H221.74V248.135C221.74 248.372 221.766 248.569 221.818 248.726C221.874 248.879 221.947 249.001 222.038 249.092C222.132 249.18 222.237 249.242 222.351 249.277C222.468 249.313 222.588 249.331 222.712 249.331C223.096 249.331 223.4 249.258 223.625 249.111C223.85 248.962 224.011 248.761 224.108 248.511C224.209 248.257 224.26 247.975 224.26 247.666ZM229.797 244.717H230.617V249.888C230.617 250.353 230.523 250.75 230.334 251.079C230.145 251.408 229.882 251.657 229.543 251.826C229.208 251.999 228.82 252.085 228.381 252.085C228.199 252.085 227.984 252.056 227.736 251.997C227.492 251.942 227.251 251.846 227.014 251.709C226.779 251.576 226.582 251.395 226.423 251.167L226.896 250.63C227.118 250.897 227.349 251.082 227.59 251.187C227.834 251.291 228.075 251.343 228.312 251.343C228.599 251.343 228.846 251.289 229.055 251.182C229.263 251.074 229.424 250.915 229.538 250.703C229.655 250.495 229.714 250.238 229.714 249.932V245.879L229.797 244.717ZM226.159 247.417V247.314C226.159 246.911 226.206 246.545 226.301 246.216C226.398 245.884 226.537 245.599 226.716 245.361C226.898 245.124 227.118 244.941 227.375 244.814C227.632 244.684 227.922 244.619 228.244 244.619C228.576 244.619 228.866 244.678 229.113 244.795C229.364 244.909 229.576 245.076 229.748 245.298C229.924 245.516 230.062 245.78 230.163 246.089C230.264 246.398 230.334 246.748 230.373 247.139V247.588C230.337 247.975 230.267 248.324 230.163 248.633C230.062 248.942 229.924 249.206 229.748 249.424C229.576 249.642 229.364 249.81 229.113 249.927C228.863 250.041 228.57 250.098 228.234 250.098C227.919 250.098 227.632 250.031 227.375 249.897C227.121 249.764 226.903 249.577 226.721 249.336C226.538 249.095 226.398 248.812 226.301 248.486C226.206 248.158 226.159 247.801 226.159 247.417ZM227.062 247.314V247.417C227.062 247.681 227.089 247.928 227.141 248.159C227.196 248.39 227.279 248.594 227.39 248.77C227.504 248.945 227.648 249.084 227.824 249.185C228 249.282 228.21 249.331 228.454 249.331C228.754 249.331 229.001 249.268 229.196 249.141C229.392 249.014 229.546 248.846 229.66 248.638C229.777 248.429 229.868 248.203 229.934 247.959V246.782C229.898 246.603 229.842 246.431 229.768 246.265C229.696 246.095 229.602 245.946 229.484 245.815C229.37 245.682 229.229 245.576 229.06 245.498C228.89 245.42 228.692 245.381 228.464 245.381C228.216 245.381 228.003 245.433 227.824 245.537C227.648 245.638 227.504 245.778 227.39 245.957C227.279 246.133 227.196 246.338 227.141 246.572C227.089 246.803 227.062 247.051 227.062 247.314ZM235.222 248.779V244.717H236.13V250H235.266L235.222 248.779ZM235.393 247.666L235.769 247.656C235.769 248.008 235.731 248.333 235.656 248.633C235.585 248.929 235.467 249.186 235.305 249.404C235.142 249.622 234.929 249.793 234.665 249.917C234.401 250.037 234.081 250.098 233.703 250.098C233.446 250.098 233.21 250.06 232.995 249.985C232.784 249.91 232.601 249.795 232.448 249.639C232.295 249.482 232.176 249.279 232.092 249.028C232.01 248.778 231.97 248.477 231.97 248.125V244.717H232.873V248.135C232.873 248.372 232.899 248.569 232.951 248.726C233.007 248.879 233.08 249.001 233.171 249.092C233.265 249.18 233.369 249.242 233.483 249.277C233.601 249.313 233.721 249.331 233.845 249.331C234.229 249.331 234.533 249.258 234.758 249.111C234.982 248.962 235.144 248.761 235.241 248.511C235.342 248.257 235.393 247.975 235.393 247.666ZM240.583 248.599C240.583 248.468 240.554 248.348 240.495 248.237C240.44 248.123 240.324 248.021 240.148 247.93C239.976 247.835 239.715 247.754 239.367 247.686C239.074 247.624 238.809 247.55 238.571 247.466C238.337 247.381 238.137 247.279 237.971 247.158C237.808 247.038 237.683 246.896 237.595 246.733C237.507 246.571 237.463 246.38 237.463 246.162C237.463 245.954 237.508 245.757 237.6 245.571C237.694 245.386 237.826 245.221 237.995 245.078C238.168 244.935 238.374 244.823 238.615 244.741C238.856 244.66 239.125 244.619 239.421 244.619C239.844 244.619 240.205 244.694 240.505 244.844C240.804 244.993 241.034 245.194 241.193 245.444C241.353 245.692 241.433 245.967 241.433 246.27H240.529C240.529 246.123 240.485 245.981 240.397 245.845C240.313 245.705 240.188 245.589 240.021 245.498C239.859 245.407 239.659 245.361 239.421 245.361C239.17 245.361 238.967 245.4 238.811 245.479C238.658 245.553 238.545 245.649 238.474 245.767C238.405 245.884 238.371 246.007 238.371 246.138C238.371 246.235 238.387 246.323 238.42 246.401C238.456 246.476 238.518 246.546 238.605 246.611C238.693 246.673 238.817 246.732 238.977 246.787C239.136 246.842 239.34 246.898 239.587 246.953C240.02 247.051 240.376 247.168 240.656 247.305C240.936 247.441 241.145 247.609 241.281 247.808C241.418 248.006 241.486 248.247 241.486 248.53C241.486 248.761 241.438 248.973 241.34 249.165C241.245 249.357 241.107 249.523 240.925 249.663C240.746 249.8 240.531 249.907 240.28 249.985C240.033 250.06 239.755 250.098 239.445 250.098C238.98 250.098 238.586 250.015 238.264 249.849C237.941 249.683 237.697 249.468 237.531 249.204C237.365 248.94 237.282 248.662 237.282 248.369H238.19C238.203 248.617 238.275 248.813 238.405 248.96C238.535 249.103 238.695 249.206 238.884 249.268C239.073 249.326 239.26 249.355 239.445 249.355C239.693 249.355 239.899 249.323 240.065 249.258C240.235 249.193 240.363 249.103 240.451 248.989C240.539 248.875 240.583 248.745 240.583 248.599ZM244.885 244.717V245.41H242.028V244.717H244.885ZM242.995 243.433H243.898V248.691C243.898 248.87 243.926 249.006 243.981 249.097C244.037 249.188 244.108 249.248 244.196 249.277C244.284 249.307 244.379 249.321 244.479 249.321C244.554 249.321 244.632 249.315 244.714 249.302C244.799 249.285 244.862 249.272 244.904 249.263L244.909 250C244.838 250.023 244.743 250.044 244.626 250.063C244.512 250.086 244.374 250.098 244.211 250.098C243.99 250.098 243.786 250.054 243.601 249.966C243.415 249.878 243.267 249.731 243.156 249.526C243.049 249.318 242.995 249.038 242.995 248.687V243.433ZM249.646 246.001H250.29C250.606 246.001 250.866 245.949 251.071 245.845C251.28 245.737 251.434 245.592 251.535 245.41C251.639 245.225 251.691 245.016 251.691 244.785C251.691 244.512 251.646 244.282 251.555 244.097C251.464 243.911 251.327 243.771 251.145 243.677C250.962 243.582 250.731 243.535 250.451 243.535C250.197 243.535 249.973 243.586 249.777 243.687C249.585 243.784 249.434 243.924 249.323 244.106C249.216 244.289 249.162 244.504 249.162 244.751H248.259C248.259 244.39 248.35 244.061 248.532 243.765C248.715 243.468 248.97 243.232 249.299 243.057C249.631 242.881 250.015 242.793 250.451 242.793C250.881 242.793 251.257 242.869 251.579 243.022C251.901 243.172 252.152 243.397 252.331 243.696C252.51 243.993 252.6 244.362 252.6 244.805C252.6 244.984 252.557 245.176 252.473 245.381C252.391 245.583 252.263 245.771 252.087 245.947C251.914 246.123 251.69 246.268 251.413 246.382C251.136 246.493 250.804 246.548 250.417 246.548H249.646V246.001ZM249.646 246.743V246.201H250.417C250.869 246.201 251.244 246.255 251.54 246.362C251.836 246.47 252.069 246.613 252.238 246.792C252.411 246.971 252.531 247.168 252.6 247.383C252.671 247.594 252.707 247.806 252.707 248.018C252.707 248.35 252.65 248.644 252.536 248.901C252.425 249.159 252.268 249.377 252.062 249.556C251.861 249.735 251.623 249.87 251.35 249.961C251.076 250.052 250.778 250.098 250.456 250.098C250.147 250.098 249.855 250.054 249.582 249.966C249.312 249.878 249.073 249.751 248.864 249.585C248.656 249.416 248.493 249.209 248.376 248.965C248.259 248.717 248.2 248.436 248.2 248.12H249.104C249.104 248.368 249.157 248.584 249.265 248.77C249.375 248.955 249.532 249.1 249.733 249.204C249.938 249.305 250.179 249.355 250.456 249.355C250.733 249.355 250.97 249.308 251.169 249.214C251.371 249.116 251.525 248.97 251.633 248.774C251.743 248.579 251.799 248.333 251.799 248.037C251.799 247.741 251.737 247.498 251.613 247.31C251.49 247.118 251.314 246.976 251.086 246.885C250.861 246.79 250.596 246.743 250.29 246.743H249.646ZM254.953 245.547V250H254.05V244.717H254.929L254.953 245.547ZM256.604 244.688L256.599 245.527C256.524 245.511 256.452 245.501 256.384 245.498C256.319 245.492 256.244 245.488 256.159 245.488C255.951 245.488 255.767 245.521 255.607 245.586C255.448 245.651 255.313 245.742 255.202 245.859C255.091 245.977 255.004 246.117 254.938 246.279C254.877 246.439 254.836 246.615 254.816 246.807L254.562 246.953C254.562 246.634 254.593 246.335 254.655 246.055C254.72 245.775 254.82 245.527 254.953 245.312C255.087 245.094 255.256 244.925 255.461 244.805C255.669 244.681 255.917 244.619 256.203 244.619C256.268 244.619 256.343 244.627 256.428 244.644C256.512 244.657 256.571 244.671 256.604 244.688ZM260.671 248.975V242.5H261.579V250H260.749L260.671 248.975ZM257.116 247.417V247.314C257.116 246.911 257.165 246.545 257.263 246.216C257.364 245.884 257.505 245.599 257.688 245.361C257.873 245.124 258.093 244.941 258.347 244.814C258.604 244.684 258.89 244.619 259.206 244.619C259.538 244.619 259.828 244.678 260.075 244.795C260.326 244.909 260.537 245.076 260.71 245.298C260.886 245.516 261.024 245.78 261.125 246.089C261.226 246.398 261.296 246.748 261.335 247.139V247.588C261.299 247.975 261.229 248.324 261.125 248.633C261.024 248.942 260.886 249.206 260.71 249.424C260.537 249.642 260.326 249.81 260.075 249.927C259.825 250.041 259.532 250.098 259.196 250.098C258.887 250.098 258.604 250.031 258.347 249.897C258.093 249.764 257.873 249.577 257.688 249.336C257.505 249.095 257.364 248.812 257.263 248.486C257.165 248.158 257.116 247.801 257.116 247.417ZM258.024 247.314V247.417C258.024 247.681 258.05 247.928 258.103 248.159C258.158 248.39 258.243 248.594 258.356 248.77C258.47 248.945 258.615 249.084 258.791 249.185C258.967 249.282 259.177 249.331 259.421 249.331C259.72 249.331 259.966 249.268 260.158 249.141C260.354 249.014 260.51 248.846 260.627 248.638C260.744 248.429 260.835 248.203 260.9 247.959V246.782C260.861 246.603 260.804 246.431 260.729 246.265C260.658 246.095 260.563 245.946 260.446 245.815C260.332 245.682 260.191 245.576 260.021 245.498C259.855 245.42 259.659 245.381 259.431 245.381C259.183 245.381 258.97 245.433 258.791 245.537C258.615 245.638 258.47 245.778 258.356 245.957C258.243 246.133 258.158 246.338 258.103 246.572C258.05 246.803 258.024 247.051 258.024 247.314Z" fill="#102321"/>
<path d="M155.681 243.521L153.327 250H152.365L155.075 242.891H155.695L155.681 243.521ZM157.653 250L155.295 243.521L155.28 242.891H155.9L158.62 250H157.653ZM157.531 247.368V248.14H153.537V247.368H157.531ZM162.609 248.779V244.717H163.518V250H162.653L162.609 248.779ZM162.78 247.666L163.156 247.656C163.156 248.008 163.119 248.333 163.044 248.633C162.972 248.929 162.855 249.186 162.692 249.404C162.53 249.622 162.316 249.793 162.053 249.917C161.789 250.037 161.468 250.098 161.091 250.098C160.834 250.098 160.598 250.06 160.383 249.985C160.171 249.91 159.989 249.795 159.836 249.639C159.683 249.482 159.564 249.279 159.479 249.028C159.398 248.778 159.357 248.477 159.357 248.125V244.717H160.261V248.135C160.261 248.372 160.287 248.569 160.339 248.726C160.394 248.879 160.467 249.001 160.559 249.092C160.653 249.18 160.757 249.242 160.871 249.277C160.988 249.313 161.109 249.331 161.232 249.331C161.617 249.331 161.921 249.258 162.146 249.111C162.37 248.962 162.531 248.761 162.629 248.511C162.73 248.257 162.78 247.975 162.78 247.666ZM168.317 244.717H169.138V249.888C169.138 250.353 169.043 250.75 168.854 251.079C168.666 251.408 168.402 251.657 168.063 251.826C167.728 251.999 167.341 252.085 166.901 252.085C166.719 252.085 166.504 252.056 166.257 251.997C166.013 251.942 165.772 251.846 165.534 251.709C165.3 251.576 165.103 251.395 164.943 251.167L165.417 250.63C165.638 250.897 165.869 251.082 166.11 251.187C166.354 251.291 166.595 251.343 166.833 251.343C167.119 251.343 167.367 251.289 167.575 251.182C167.784 251.074 167.945 250.915 168.059 250.703C168.176 250.495 168.234 250.238 168.234 249.932V245.879L168.317 244.717ZM164.68 247.417V247.314C164.68 246.911 164.727 246.545 164.821 246.216C164.919 245.884 165.057 245.599 165.236 245.361C165.419 245.124 165.638 244.941 165.896 244.814C166.153 244.684 166.442 244.619 166.765 244.619C167.097 244.619 167.386 244.678 167.634 244.795C167.884 244.909 168.096 245.076 168.269 245.298C168.444 245.516 168.583 245.78 168.684 246.089C168.785 246.398 168.854 246.748 168.894 247.139V247.588C168.858 247.975 168.788 248.324 168.684 248.633C168.583 248.942 168.444 249.206 168.269 249.424C168.096 249.642 167.884 249.81 167.634 249.927C167.383 250.041 167.09 250.098 166.755 250.098C166.439 250.098 166.153 250.031 165.896 249.897C165.642 249.764 165.424 249.577 165.241 249.336C165.059 249.095 164.919 248.812 164.821 248.486C164.727 248.158 164.68 247.801 164.68 247.417ZM165.583 247.314V247.417C165.583 247.681 165.609 247.928 165.661 248.159C165.716 248.39 165.799 248.594 165.91 248.77C166.024 248.945 166.169 249.084 166.345 249.185C166.521 249.282 166.73 249.331 166.975 249.331C167.274 249.331 167.521 249.268 167.717 249.141C167.912 249.014 168.067 248.846 168.181 248.638C168.298 248.429 168.389 248.203 168.454 247.959V246.782C168.418 246.603 168.363 246.431 168.288 246.265C168.216 246.095 168.122 245.946 168.005 245.815C167.891 245.682 167.749 245.576 167.58 245.498C167.411 245.42 167.212 245.381 166.984 245.381C166.737 245.381 166.524 245.433 166.345 245.537C166.169 245.638 166.024 245.778 165.91 245.957C165.799 246.133 165.716 246.338 165.661 246.572C165.609 246.803 165.583 247.051 165.583 247.314ZM173.742 248.779V244.717H174.65V250H173.786L173.742 248.779ZM173.913 247.666L174.289 247.656C174.289 248.008 174.252 248.333 174.177 248.633C174.105 248.929 173.988 249.186 173.825 249.404C173.662 249.622 173.449 249.793 173.186 249.917C172.922 250.037 172.601 250.098 172.224 250.098C171.966 250.098 171.73 250.06 171.516 249.985C171.304 249.91 171.122 249.795 170.969 249.639C170.816 249.482 170.697 249.279 170.612 249.028C170.531 248.778 170.49 248.477 170.49 248.125V244.717H171.394V248.135C171.394 248.372 171.42 248.569 171.472 248.726C171.527 248.879 171.6 249.001 171.691 249.092C171.786 249.18 171.89 249.242 172.004 249.277C172.121 249.313 172.242 249.331 172.365 249.331C172.749 249.331 173.054 249.258 173.278 249.111C173.503 248.962 173.664 248.761 173.762 248.511C173.863 248.257 173.913 247.975 173.913 247.666ZM179.104 248.599C179.104 248.468 179.074 248.348 179.016 248.237C178.96 248.123 178.845 248.021 178.669 247.93C178.496 247.835 178.236 247.754 177.888 247.686C177.595 247.624 177.329 247.55 177.092 247.466C176.857 247.381 176.657 247.279 176.491 247.158C176.328 247.038 176.203 246.896 176.115 246.733C176.027 246.571 175.983 246.38 175.983 246.162C175.983 245.954 176.029 245.757 176.12 245.571C176.215 245.386 176.346 245.221 176.516 245.078C176.688 244.935 176.895 244.823 177.136 244.741C177.377 244.66 177.645 244.619 177.941 244.619C178.365 244.619 178.726 244.694 179.025 244.844C179.325 244.993 179.554 245.194 179.714 245.444C179.873 245.692 179.953 245.967 179.953 246.27H179.05C179.05 246.123 179.006 245.981 178.918 245.845C178.833 245.705 178.708 245.589 178.542 245.498C178.379 245.407 178.179 245.361 177.941 245.361C177.691 245.361 177.487 245.4 177.331 245.479C177.178 245.553 177.066 245.649 176.994 245.767C176.926 245.884 176.892 246.007 176.892 246.138C176.892 246.235 176.908 246.323 176.94 246.401C176.976 246.476 177.038 246.546 177.126 246.611C177.214 246.673 177.338 246.732 177.497 246.787C177.657 246.842 177.86 246.898 178.107 246.953C178.54 247.051 178.897 247.168 179.177 247.305C179.457 247.441 179.665 247.609 179.802 247.808C179.938 248.006 180.007 248.247 180.007 248.53C180.007 248.761 179.958 248.973 179.86 249.165C179.766 249.357 179.628 249.523 179.445 249.663C179.266 249.8 179.051 249.907 178.801 249.985C178.553 250.06 178.275 250.098 177.966 250.098C177.5 250.098 177.106 250.015 176.784 249.849C176.462 249.683 176.218 249.468 176.052 249.204C175.886 248.94 175.803 248.662 175.803 248.369H176.711C176.724 248.617 176.796 248.813 176.926 248.96C177.056 249.103 177.215 249.206 177.404 249.268C177.593 249.326 177.78 249.355 177.966 249.355C178.213 249.355 178.42 249.323 178.586 249.258C178.755 249.193 178.884 249.103 178.972 248.989C179.06 248.875 179.104 248.745 179.104 248.599ZM183.405 244.717V245.41H180.549V244.717H183.405ZM181.516 243.433H182.419V248.691C182.419 248.87 182.447 249.006 182.502 249.097C182.557 249.188 182.629 249.248 182.717 249.277C182.805 249.307 182.899 249.321 183 249.321C183.075 249.321 183.153 249.315 183.234 249.302C183.319 249.285 183.382 249.272 183.425 249.263L183.43 250C183.358 250.023 183.264 250.044 183.146 250.063C183.033 250.086 182.894 250.098 182.731 250.098C182.51 250.098 182.307 250.054 182.121 249.966C181.936 249.878 181.787 249.731 181.677 249.526C181.569 249.318 181.516 249.038 181.516 248.687V243.433Z" fill="#102321"/>
<path d="M287.238 244.021L284.885 250.5H283.923L286.633 243.391H287.253L287.238 244.021ZM289.211 250.5L286.853 244.021L286.838 243.391H287.458L290.178 250.5H289.211ZM289.089 247.868V248.64H285.095V247.868H289.089ZM294.167 249.279V245.217H295.075V250.5H294.211L294.167 249.279ZM294.338 248.166L294.714 248.156C294.714 248.508 294.676 248.833 294.602 249.133C294.53 249.429 294.413 249.686 294.25 249.904C294.087 250.122 293.874 250.293 293.61 250.417C293.347 250.537 293.026 250.598 292.648 250.598C292.391 250.598 292.155 250.56 291.94 250.485C291.729 250.41 291.547 250.295 291.394 250.139C291.241 249.982 291.122 249.779 291.037 249.528C290.956 249.278 290.915 248.977 290.915 248.625V245.217H291.818V248.635C291.818 248.872 291.844 249.069 291.896 249.226C291.952 249.379 292.025 249.501 292.116 249.592C292.211 249.68 292.315 249.742 292.429 249.777C292.546 249.813 292.666 249.831 292.79 249.831C293.174 249.831 293.479 249.758 293.703 249.611C293.928 249.462 294.089 249.261 294.187 249.011C294.287 248.757 294.338 248.475 294.338 248.166ZM299.875 245.217H300.695V250.388C300.695 250.853 300.601 251.25 300.412 251.579C300.223 251.908 299.96 252.157 299.621 252.326C299.286 252.499 298.898 252.585 298.459 252.585C298.277 252.585 298.062 252.556 297.814 252.497C297.57 252.442 297.329 252.346 297.092 252.209C296.857 252.076 296.66 251.895 296.501 251.667L296.975 251.13C297.196 251.397 297.427 251.582 297.668 251.687C297.912 251.791 298.153 251.843 298.391 251.843C298.677 251.843 298.924 251.789 299.133 251.682C299.341 251.574 299.502 251.415 299.616 251.203C299.733 250.995 299.792 250.738 299.792 250.432V246.379L299.875 245.217ZM296.237 247.917V247.814C296.237 247.411 296.285 247.045 296.379 246.716C296.477 246.384 296.615 246.099 296.794 245.861C296.976 245.624 297.196 245.441 297.453 245.314C297.71 245.184 298 245.119 298.322 245.119C298.654 245.119 298.944 245.178 299.191 245.295C299.442 245.409 299.654 245.576 299.826 245.798C300.002 246.016 300.14 246.28 300.241 246.589C300.342 246.898 300.412 247.248 300.451 247.639V248.088C300.415 248.475 300.345 248.824 300.241 249.133C300.14 249.442 300.002 249.706 299.826 249.924C299.654 250.142 299.442 250.31 299.191 250.427C298.941 250.541 298.648 250.598 298.312 250.598C297.997 250.598 297.71 250.531 297.453 250.397C297.199 250.264 296.981 250.077 296.799 249.836C296.617 249.595 296.477 249.312 296.379 248.986C296.285 248.658 296.237 248.301 296.237 247.917ZM297.141 247.814V247.917C297.141 248.181 297.167 248.428 297.219 248.659C297.274 248.89 297.357 249.094 297.468 249.27C297.582 249.445 297.727 249.584 297.902 249.685C298.078 249.782 298.288 249.831 298.532 249.831C298.832 249.831 299.079 249.768 299.274 249.641C299.47 249.514 299.624 249.346 299.738 249.138C299.855 248.929 299.947 248.703 300.012 248.459V247.282C299.976 247.103 299.921 246.931 299.846 246.765C299.774 246.595 299.68 246.446 299.562 246.315C299.449 246.182 299.307 246.076 299.138 245.998C298.968 245.92 298.77 245.881 298.542 245.881C298.295 245.881 298.081 245.933 297.902 246.037C297.727 246.138 297.582 246.278 297.468 246.457C297.357 246.633 297.274 246.838 297.219 247.072C297.167 247.303 297.141 247.551 297.141 247.814ZM305.3 249.279V245.217H306.208V250.5H305.344L305.3 249.279ZM305.471 248.166L305.847 248.156C305.847 248.508 305.809 248.833 305.734 249.133C305.663 249.429 305.546 249.686 305.383 249.904C305.22 250.122 305.007 250.293 304.743 250.417C304.479 250.537 304.159 250.598 303.781 250.598C303.524 250.598 303.288 250.56 303.073 250.485C302.862 250.41 302.679 250.295 302.526 250.139C302.373 249.982 302.255 249.779 302.17 249.528C302.089 249.278 302.048 248.977 302.048 248.625V245.217H302.951V248.635C302.951 248.872 302.977 249.069 303.029 249.226C303.085 249.379 303.158 249.501 303.249 249.592C303.343 249.68 303.448 249.742 303.562 249.777C303.679 249.813 303.799 249.831 303.923 249.831C304.307 249.831 304.611 249.758 304.836 249.611C305.061 249.462 305.222 249.261 305.319 249.011C305.42 248.757 305.471 248.475 305.471 248.166ZM310.661 249.099C310.661 248.968 310.632 248.848 310.573 248.737C310.518 248.623 310.402 248.521 310.227 248.43C310.054 248.335 309.794 248.254 309.445 248.186C309.152 248.124 308.887 248.05 308.649 247.966C308.415 247.881 308.215 247.779 308.049 247.658C307.886 247.538 307.761 247.396 307.673 247.233C307.585 247.071 307.541 246.88 307.541 246.662C307.541 246.454 307.587 246.257 307.678 246.071C307.772 245.886 307.904 245.721 308.073 245.578C308.246 245.435 308.452 245.323 308.693 245.241C308.934 245.16 309.203 245.119 309.499 245.119C309.922 245.119 310.284 245.194 310.583 245.344C310.882 245.493 311.112 245.694 311.271 245.944C311.431 246.192 311.511 246.467 311.511 246.77H310.607C310.607 246.623 310.563 246.481 310.476 246.345C310.391 246.205 310.266 246.089 310.1 245.998C309.937 245.907 309.737 245.861 309.499 245.861C309.248 245.861 309.045 245.9 308.889 245.979C308.736 246.053 308.623 246.149 308.552 246.267C308.483 246.384 308.449 246.507 308.449 246.638C308.449 246.735 308.465 246.823 308.498 246.901C308.534 246.976 308.596 247.046 308.684 247.111C308.771 247.173 308.895 247.232 309.055 247.287C309.214 247.342 309.418 247.398 309.665 247.453C310.098 247.551 310.454 247.668 310.734 247.805C311.014 247.941 311.223 248.109 311.359 248.308C311.496 248.506 311.564 248.747 311.564 249.03C311.564 249.261 311.516 249.473 311.418 249.665C311.324 249.857 311.185 250.023 311.003 250.163C310.824 250.3 310.609 250.407 310.358 250.485C310.111 250.56 309.833 250.598 309.523 250.598C309.058 250.598 308.664 250.515 308.342 250.349C308.02 250.183 307.775 249.968 307.609 249.704C307.443 249.44 307.36 249.162 307.36 248.869H308.269C308.282 249.117 308.353 249.313 308.483 249.46C308.614 249.603 308.773 249.706 308.962 249.768C309.151 249.826 309.338 249.855 309.523 249.855C309.771 249.855 309.978 249.823 310.144 249.758C310.313 249.693 310.441 249.603 310.529 249.489C310.617 249.375 310.661 249.245 310.661 249.099ZM314.963 245.217V245.91H312.106V245.217H314.963ZM313.073 243.933H313.977V249.191C313.977 249.37 314.004 249.506 314.06 249.597C314.115 249.688 314.187 249.748 314.274 249.777C314.362 249.807 314.457 249.821 314.558 249.821C314.632 249.821 314.711 249.815 314.792 249.802C314.877 249.785 314.94 249.772 314.982 249.763L314.987 250.5C314.916 250.523 314.821 250.544 314.704 250.563C314.59 250.586 314.452 250.598 314.289 250.598C314.068 250.598 313.864 250.554 313.679 250.466C313.493 250.378 313.345 250.231 313.234 250.026C313.127 249.818 313.073 249.538 313.073 249.187V243.933ZM319.548 247.116L318.825 246.931L319.182 243.391H322.829V244.226H319.948L319.733 246.159C319.864 246.084 320.028 246.014 320.227 245.949C320.428 245.884 320.66 245.852 320.92 245.852C321.249 245.852 321.543 245.909 321.804 246.022C322.064 246.133 322.285 246.293 322.468 246.501C322.653 246.709 322.795 246.96 322.893 247.253C322.99 247.546 323.039 247.873 323.039 248.234C323.039 248.576 322.992 248.89 322.897 249.177C322.806 249.463 322.668 249.714 322.482 249.929C322.297 250.14 322.062 250.305 321.779 250.422C321.499 250.539 321.169 250.598 320.788 250.598C320.502 250.598 320.23 250.559 319.973 250.48C319.719 250.399 319.491 250.277 319.289 250.114C319.09 249.948 318.928 249.743 318.801 249.499C318.677 249.252 318.599 248.962 318.566 248.63H319.426C319.465 248.897 319.543 249.121 319.66 249.304C319.777 249.486 319.93 249.624 320.119 249.719C320.311 249.81 320.534 249.855 320.788 249.855C321.003 249.855 321.193 249.818 321.359 249.743C321.525 249.668 321.665 249.561 321.779 249.421C321.893 249.281 321.979 249.112 322.038 248.913C322.1 248.715 322.131 248.492 322.131 248.244C322.131 248.02 322.1 247.811 322.038 247.619C321.976 247.427 321.883 247.259 321.76 247.116C321.639 246.973 321.491 246.862 321.315 246.784C321.14 246.703 320.938 246.662 320.71 246.662C320.407 246.662 320.178 246.703 320.021 246.784C319.868 246.866 319.711 246.976 319.548 247.116ZM326.34 245.217V245.91H323.483V245.217H326.34ZM324.45 243.933H325.354V249.191C325.354 249.37 325.381 249.506 325.437 249.597C325.492 249.688 325.563 249.748 325.651 249.777C325.739 249.807 325.834 249.821 325.935 249.821C326.009 249.821 326.088 249.815 326.169 249.802C326.254 249.785 326.317 249.772 326.359 249.763L326.364 250.5C326.293 250.523 326.198 250.544 326.081 250.563C325.967 250.586 325.829 250.598 325.666 250.598C325.445 250.598 325.241 250.554 325.056 250.466C324.87 250.378 324.722 250.231 324.611 250.026C324.504 249.818 324.45 249.538 324.45 249.187V243.933ZM328.303 243V250.5H327.399V243H328.303ZM328.088 247.658L327.712 247.644C327.715 247.282 327.769 246.949 327.873 246.643C327.977 246.333 328.124 246.065 328.312 245.837C328.501 245.609 328.726 245.433 328.986 245.31C329.25 245.183 329.541 245.119 329.86 245.119C330.121 245.119 330.355 245.155 330.563 245.227C330.772 245.295 330.949 245.406 331.096 245.559C331.245 245.712 331.359 245.91 331.438 246.154C331.516 246.395 331.555 246.69 331.555 247.038V250.5H330.646V247.028C330.646 246.752 330.606 246.53 330.524 246.364C330.443 246.195 330.324 246.073 330.168 245.998C330.012 245.92 329.82 245.881 329.592 245.881C329.367 245.881 329.162 245.928 328.977 246.022C328.794 246.117 328.636 246.247 328.503 246.413C328.373 246.579 328.27 246.77 328.195 246.984C328.124 247.196 328.088 247.421 328.088 247.658Z" fill="#102321"/>
<path d="M357.238 244.021L354.885 250.5H353.923L356.633 243.391H357.253L357.238 244.021ZM359.211 250.5L356.853 244.021L356.838 243.391H357.458L360.178 250.5H359.211ZM359.089 247.868V248.64H355.095V247.868H359.089ZM364.167 249.279V245.217H365.075V250.5H364.211L364.167 249.279ZM364.338 248.166L364.714 248.156C364.714 248.508 364.676 248.833 364.602 249.133C364.53 249.429 364.413 249.686 364.25 249.904C364.087 250.122 363.874 250.293 363.61 250.417C363.347 250.537 363.026 250.598 362.648 250.598C362.391 250.598 362.155 250.56 361.94 250.485C361.729 250.41 361.547 250.295 361.394 250.139C361.241 249.982 361.122 249.779 361.037 249.528C360.956 249.278 360.915 248.977 360.915 248.625V245.217H361.818V248.635C361.818 248.872 361.844 249.069 361.896 249.226C361.952 249.379 362.025 249.501 362.116 249.592C362.211 249.68 362.315 249.742 362.429 249.777C362.546 249.813 362.666 249.831 362.79 249.831C363.174 249.831 363.479 249.758 363.703 249.611C363.928 249.462 364.089 249.261 364.187 249.011C364.287 248.757 364.338 248.475 364.338 248.166ZM369.875 245.217H370.695V250.388C370.695 250.853 370.601 251.25 370.412 251.579C370.223 251.908 369.96 252.157 369.621 252.326C369.286 252.499 368.898 252.585 368.459 252.585C368.277 252.585 368.062 252.556 367.814 252.497C367.57 252.442 367.329 252.346 367.092 252.209C366.857 252.076 366.66 251.895 366.501 251.667L366.975 251.13C367.196 251.397 367.427 251.582 367.668 251.687C367.912 251.791 368.153 251.843 368.391 251.843C368.677 251.843 368.924 251.789 369.133 251.682C369.341 251.574 369.502 251.415 369.616 251.203C369.733 250.995 369.792 250.738 369.792 250.432V246.379L369.875 245.217ZM366.237 247.917V247.814C366.237 247.411 366.285 247.045 366.379 246.716C366.477 246.384 366.615 246.099 366.794 245.861C366.976 245.624 367.196 245.441 367.453 245.314C367.71 245.184 368 245.119 368.322 245.119C368.654 245.119 368.944 245.178 369.191 245.295C369.442 245.409 369.654 245.576 369.826 245.798C370.002 246.016 370.14 246.28 370.241 246.589C370.342 246.898 370.412 247.248 370.451 247.639V248.088C370.415 248.475 370.345 248.824 370.241 249.133C370.14 249.442 370.002 249.706 369.826 249.924C369.654 250.142 369.442 250.31 369.191 250.427C368.941 250.541 368.648 250.598 368.312 250.598C367.997 250.598 367.71 250.531 367.453 250.397C367.199 250.264 366.981 250.077 366.799 249.836C366.617 249.595 366.477 249.312 366.379 248.986C366.285 248.658 366.237 248.301 366.237 247.917ZM367.141 247.814V247.917C367.141 248.181 367.167 248.428 367.219 248.659C367.274 248.89 367.357 249.094 367.468 249.27C367.582 249.445 367.727 249.584 367.902 249.685C368.078 249.782 368.288 249.831 368.532 249.831C368.832 249.831 369.079 249.768 369.274 249.641C369.47 249.514 369.624 249.346 369.738 249.138C369.855 248.929 369.947 248.703 370.012 248.459V247.282C369.976 247.103 369.921 246.931 369.846 246.765C369.774 246.595 369.68 246.446 369.562 246.315C369.449 246.182 369.307 246.076 369.138 245.998C368.968 245.92 368.77 245.881 368.542 245.881C368.295 245.881 368.081 245.933 367.902 246.037C367.727 246.138 367.582 246.278 367.468 246.457C367.357 246.633 367.274 246.838 367.219 247.072C367.167 247.303 367.141 247.551 367.141 247.814ZM375.3 249.279V245.217H376.208V250.5H375.344L375.3 249.279ZM375.471 248.166L375.847 248.156C375.847 248.508 375.809 248.833 375.734 249.133C375.663 249.429 375.546 249.686 375.383 249.904C375.22 250.122 375.007 250.293 374.743 250.417C374.479 250.537 374.159 250.598 373.781 250.598C373.524 250.598 373.288 250.56 373.073 250.485C372.862 250.41 372.679 250.295 372.526 250.139C372.373 249.982 372.255 249.779 372.17 249.528C372.089 249.278 372.048 248.977 372.048 248.625V245.217H372.951V248.635C372.951 248.872 372.977 249.069 373.029 249.226C373.085 249.379 373.158 249.501 373.249 249.592C373.343 249.68 373.448 249.742 373.562 249.777C373.679 249.813 373.799 249.831 373.923 249.831C374.307 249.831 374.611 249.758 374.836 249.611C375.061 249.462 375.222 249.261 375.319 249.011C375.42 248.757 375.471 248.475 375.471 248.166ZM380.661 249.099C380.661 248.968 380.632 248.848 380.573 248.737C380.518 248.623 380.402 248.521 380.227 248.43C380.054 248.335 379.794 248.254 379.445 248.186C379.152 248.124 378.887 248.05 378.649 247.966C378.415 247.881 378.215 247.779 378.049 247.658C377.886 247.538 377.761 247.396 377.673 247.233C377.585 247.071 377.541 246.88 377.541 246.662C377.541 246.454 377.587 246.257 377.678 246.071C377.772 245.886 377.904 245.721 378.073 245.578C378.246 245.435 378.452 245.323 378.693 245.241C378.934 245.16 379.203 245.119 379.499 245.119C379.922 245.119 380.284 245.194 380.583 245.344C380.882 245.493 381.112 245.694 381.271 245.944C381.431 246.192 381.511 246.467 381.511 246.77H380.607C380.607 246.623 380.563 246.481 380.476 246.345C380.391 246.205 380.266 246.089 380.1 245.998C379.937 245.907 379.737 245.861 379.499 245.861C379.248 245.861 379.045 245.9 378.889 245.979C378.736 246.053 378.623 246.149 378.552 246.267C378.483 246.384 378.449 246.507 378.449 246.638C378.449 246.735 378.465 246.823 378.498 246.901C378.534 246.976 378.596 247.046 378.684 247.111C378.771 247.173 378.895 247.232 379.055 247.287C379.214 247.342 379.418 247.398 379.665 247.453C380.098 247.551 380.454 247.668 380.734 247.805C381.014 247.941 381.223 248.109 381.359 248.308C381.496 248.506 381.564 248.747 381.564 249.03C381.564 249.261 381.516 249.473 381.418 249.665C381.324 249.857 381.185 250.023 381.003 250.163C380.824 250.3 380.609 250.407 380.358 250.485C380.111 250.56 379.833 250.598 379.523 250.598C379.058 250.598 378.664 250.515 378.342 250.349C378.02 250.183 377.775 249.968 377.609 249.704C377.443 249.44 377.36 249.162 377.36 248.869H378.269C378.282 249.117 378.353 249.313 378.483 249.46C378.614 249.603 378.773 249.706 378.962 249.768C379.151 249.826 379.338 249.855 379.523 249.855C379.771 249.855 379.978 249.823 380.144 249.758C380.313 249.693 380.441 249.603 380.529 249.489C380.617 249.375 380.661 249.245 380.661 249.099ZM384.963 245.217V245.91H382.106V245.217H384.963ZM383.073 243.933H383.977V249.191C383.977 249.37 384.004 249.506 384.06 249.597C384.115 249.688 384.187 249.748 384.274 249.777C384.362 249.807 384.457 249.821 384.558 249.821C384.632 249.821 384.711 249.815 384.792 249.802C384.877 249.785 384.94 249.772 384.982 249.763L384.987 250.5C384.916 250.523 384.821 250.544 384.704 250.563C384.59 250.586 384.452 250.598 384.289 250.598C384.068 250.598 383.864 250.554 383.679 250.466C383.493 250.378 383.345 250.231 383.234 250.026C383.127 249.818 383.073 249.538 383.073 249.187V243.933ZM393 243.391V243.898L390.056 250.5H389.104L392.043 244.133H388.195V243.391H393ZM396.34 245.217V245.91H393.483V245.217H396.34ZM394.45 243.933H395.354V249.191C395.354 249.37 395.381 249.506 395.437 249.597C395.492 249.688 395.563 249.748 395.651 249.777C395.739 249.807 395.834 249.821 395.935 249.821C396.009 249.821 396.088 249.815 396.169 249.802C396.254 249.785 396.317 249.772 396.359 249.763L396.364 250.5C396.293 250.523 396.198 250.544 396.081 250.563C395.967 250.586 395.829 250.598 395.666 250.598C395.445 250.598 395.241 250.554 395.056 250.466C394.87 250.378 394.722 250.231 394.611 250.026C394.504 249.818 394.45 249.538 394.45 249.187V243.933ZM398.303 243V250.5H397.399V243H398.303ZM398.088 247.658L397.712 247.644C397.715 247.282 397.769 246.949 397.873 246.643C397.977 246.333 398.124 246.065 398.312 245.837C398.501 245.609 398.726 245.433 398.986 245.31C399.25 245.183 399.541 245.119 399.86 245.119C400.121 245.119 400.355 245.155 400.563 245.227C400.772 245.295 400.949 245.406 401.096 245.559C401.245 245.712 401.359 245.91 401.438 246.154C401.516 246.395 401.555 246.69 401.555 247.038V250.5H400.646V247.028C400.646 246.752 400.606 246.53 400.524 246.364C400.443 246.195 400.324 246.073 400.168 245.998C400.012 245.92 399.82 245.881 399.592 245.881C399.367 245.881 399.162 245.928 398.977 246.022C398.794 246.117 398.636 246.247 398.503 246.413C398.373 246.579 398.27 246.77 398.195 246.984C398.124 247.196 398.088 247.421 398.088 247.658Z" fill="#102321"/>
<path d="M427.238 244.021L424.885 250.5H423.923L426.633 243.391H427.253L427.238 244.021ZM429.211 250.5L426.853 244.021L426.838 243.391H427.458L430.178 250.5H429.211ZM429.089 247.868V248.64H425.095V247.868H429.089ZM434.167 249.279V245.217H435.075V250.5H434.211L434.167 249.279ZM434.338 248.166L434.714 248.156C434.714 248.508 434.676 248.833 434.602 249.133C434.53 249.429 434.413 249.686 434.25 249.904C434.087 250.122 433.874 250.293 433.61 250.417C433.347 250.537 433.026 250.598 432.648 250.598C432.391 250.598 432.155 250.56 431.94 250.485C431.729 250.41 431.547 250.295 431.394 250.139C431.241 249.982 431.122 249.779 431.037 249.528C430.956 249.278 430.915 248.977 430.915 248.625V245.217H431.818V248.635C431.818 248.872 431.844 249.069 431.896 249.226C431.952 249.379 432.025 249.501 432.116 249.592C432.211 249.68 432.315 249.742 432.429 249.777C432.546 249.813 432.666 249.831 432.79 249.831C433.174 249.831 433.479 249.758 433.703 249.611C433.928 249.462 434.089 249.261 434.187 249.011C434.287 248.757 434.338 248.475 434.338 248.166ZM439.875 245.217H440.695V250.388C440.695 250.853 440.601 251.25 440.412 251.579C440.223 251.908 439.96 252.157 439.621 252.326C439.286 252.499 438.898 252.585 438.459 252.585C438.277 252.585 438.062 252.556 437.814 252.497C437.57 252.442 437.329 252.346 437.092 252.209C436.857 252.076 436.66 251.895 436.501 251.667L436.975 251.13C437.196 251.397 437.427 251.582 437.668 251.687C437.912 251.791 438.153 251.843 438.391 251.843C438.677 251.843 438.924 251.789 439.133 251.682C439.341 251.574 439.502 251.415 439.616 251.203C439.733 250.995 439.792 250.738 439.792 250.432V246.379L439.875 245.217ZM436.237 247.917V247.814C436.237 247.411 436.285 247.045 436.379 246.716C436.477 246.384 436.615 246.099 436.794 245.861C436.976 245.624 437.196 245.441 437.453 245.314C437.71 245.184 438 245.119 438.322 245.119C438.654 245.119 438.944 245.178 439.191 245.295C439.442 245.409 439.654 245.576 439.826 245.798C440.002 246.016 440.14 246.28 440.241 246.589C440.342 246.898 440.412 247.248 440.451 247.639V248.088C440.415 248.475 440.345 248.824 440.241 249.133C440.14 249.442 440.002 249.706 439.826 249.924C439.654 250.142 439.442 250.31 439.191 250.427C438.941 250.541 438.648 250.598 438.312 250.598C437.997 250.598 437.71 250.531 437.453 250.397C437.199 250.264 436.981 250.077 436.799 249.836C436.617 249.595 436.477 249.312 436.379 248.986C436.285 248.658 436.237 248.301 436.237 247.917ZM437.141 247.814V247.917C437.141 248.181 437.167 248.428 437.219 248.659C437.274 248.89 437.357 249.094 437.468 249.27C437.582 249.445 437.727 249.584 437.902 249.685C438.078 249.782 438.288 249.831 438.532 249.831C438.832 249.831 439.079 249.768 439.274 249.641C439.47 249.514 439.624 249.346 439.738 249.138C439.855 248.929 439.947 248.703 440.012 248.459V247.282C439.976 247.103 439.921 246.931 439.846 246.765C439.774 246.595 439.68 246.446 439.562 246.315C439.449 246.182 439.307 246.076 439.138 245.998C438.968 245.92 438.77 245.881 438.542 245.881C438.295 245.881 438.081 245.933 437.902 246.037C437.727 246.138 437.582 246.278 437.468 246.457C437.357 246.633 437.274 246.838 437.219 247.072C437.167 247.303 437.141 247.551 437.141 247.814ZM445.3 249.279V245.217H446.208V250.5H445.344L445.3 249.279ZM445.471 248.166L445.847 248.156C445.847 248.508 445.809 248.833 445.734 249.133C445.663 249.429 445.546 249.686 445.383 249.904C445.22 250.122 445.007 250.293 444.743 250.417C444.479 250.537 444.159 250.598 443.781 250.598C443.524 250.598 443.288 250.56 443.073 250.485C442.862 250.41 442.679 250.295 442.526 250.139C442.373 249.982 442.255 249.779 442.17 249.528C442.089 249.278 442.048 248.977 442.048 248.625V245.217H442.951V248.635C442.951 248.872 442.977 249.069 443.029 249.226C443.085 249.379 443.158 249.501 443.249 249.592C443.343 249.68 443.448 249.742 443.562 249.777C443.679 249.813 443.799 249.831 443.923 249.831C444.307 249.831 444.611 249.758 444.836 249.611C445.061 249.462 445.222 249.261 445.319 249.011C445.42 248.757 445.471 248.475 445.471 248.166ZM450.661 249.099C450.661 248.968 450.632 248.848 450.573 248.737C450.518 248.623 450.402 248.521 450.227 248.43C450.054 248.335 449.794 248.254 449.445 248.186C449.152 248.124 448.887 248.05 448.649 247.966C448.415 247.881 448.215 247.779 448.049 247.658C447.886 247.538 447.761 247.396 447.673 247.233C447.585 247.071 447.541 246.88 447.541 246.662C447.541 246.454 447.587 246.257 447.678 246.071C447.772 245.886 447.904 245.721 448.073 245.578C448.246 245.435 448.452 245.323 448.693 245.241C448.934 245.16 449.203 245.119 449.499 245.119C449.922 245.119 450.284 245.194 450.583 245.344C450.882 245.493 451.112 245.694 451.271 245.944C451.431 246.192 451.511 246.467 451.511 246.77H450.607C450.607 246.623 450.563 246.481 450.476 246.345C450.391 246.205 450.266 246.089 450.1 245.998C449.937 245.907 449.737 245.861 449.499 245.861C449.248 245.861 449.045 245.9 448.889 245.979C448.736 246.053 448.623 246.149 448.552 246.267C448.483 246.384 448.449 246.507 448.449 246.638C448.449 246.735 448.465 246.823 448.498 246.901C448.534 246.976 448.596 247.046 448.684 247.111C448.771 247.173 448.895 247.232 449.055 247.287C449.214 247.342 449.418 247.398 449.665 247.453C450.098 247.551 450.454 247.668 450.734 247.805C451.014 247.941 451.223 248.109 451.359 248.308C451.496 248.506 451.564 248.747 451.564 249.03C451.564 249.261 451.516 249.473 451.418 249.665C451.324 249.857 451.185 250.023 451.003 250.163C450.824 250.3 450.609 250.407 450.358 250.485C450.111 250.56 449.833 250.598 449.523 250.598C449.058 250.598 448.664 250.515 448.342 250.349C448.02 250.183 447.775 249.968 447.609 249.704C447.443 249.44 447.36 249.162 447.36 248.869H448.269C448.282 249.117 448.353 249.313 448.483 249.46C448.614 249.603 448.773 249.706 448.962 249.768C449.151 249.826 449.338 249.855 449.523 249.855C449.771 249.855 449.978 249.823 450.144 249.758C450.313 249.693 450.441 249.603 450.529 249.489C450.617 249.375 450.661 249.245 450.661 249.099ZM454.963 245.217V245.91H452.106V245.217H454.963ZM453.073 243.933H453.977V249.191C453.977 249.37 454.004 249.506 454.06 249.597C454.115 249.688 454.187 249.748 454.274 249.777C454.362 249.807 454.457 249.821 454.558 249.821C454.632 249.821 454.711 249.815 454.792 249.802C454.877 249.785 454.94 249.772 454.982 249.763L454.987 250.5C454.916 250.523 454.821 250.544 454.704 250.563C454.59 250.586 454.452 250.598 454.289 250.598C454.068 250.598 453.864 250.554 453.679 250.466C453.493 250.378 453.345 250.231 453.234 250.026C453.127 249.818 453.073 249.538 453.073 249.187V243.933ZM459.304 249.743H459.396C459.917 249.743 460.34 249.67 460.666 249.523C460.992 249.377 461.242 249.18 461.418 248.933C461.594 248.685 461.714 248.407 461.779 248.098C461.844 247.785 461.877 247.465 461.877 247.136V246.047C461.877 245.725 461.84 245.438 461.765 245.188C461.693 244.937 461.592 244.727 461.462 244.558C461.335 244.388 461.19 244.26 461.027 244.172C460.865 244.084 460.692 244.04 460.51 244.04C460.301 244.04 460.114 244.082 459.948 244.167C459.785 244.248 459.647 244.364 459.533 244.514C459.423 244.663 459.338 244.839 459.279 245.041C459.221 245.243 459.191 245.463 459.191 245.7C459.191 245.912 459.217 246.117 459.27 246.315C459.322 246.514 459.401 246.693 459.509 246.853C459.616 247.012 459.75 247.139 459.909 247.233C460.072 247.325 460.262 247.37 460.48 247.37C460.682 247.37 460.871 247.331 461.047 247.253C461.226 247.172 461.384 247.062 461.521 246.926C461.66 246.786 461.771 246.628 461.853 246.452C461.937 246.276 461.986 246.092 461.999 245.9H462.429C462.429 246.171 462.375 246.438 462.268 246.701C462.163 246.962 462.017 247.199 461.828 247.414C461.639 247.629 461.418 247.801 461.164 247.932C460.91 248.059 460.633 248.122 460.334 248.122C459.982 248.122 459.678 248.054 459.421 247.917C459.164 247.78 458.952 247.598 458.786 247.37C458.623 247.142 458.501 246.888 458.42 246.608C458.342 246.325 458.303 246.039 458.303 245.749C458.303 245.41 458.35 245.093 458.444 244.797C458.539 244.501 458.679 244.24 458.864 244.016C459.05 243.788 459.279 243.61 459.553 243.483C459.829 243.356 460.148 243.293 460.51 243.293C460.917 243.293 461.263 243.374 461.55 243.537C461.836 243.7 462.069 243.918 462.248 244.191C462.43 244.465 462.564 244.772 462.648 245.114C462.733 245.456 462.775 245.808 462.775 246.169V246.496C462.775 246.864 462.751 247.238 462.702 247.619C462.657 247.997 462.567 248.358 462.434 248.703C462.303 249.048 462.113 249.357 461.862 249.631C461.612 249.901 461.285 250.116 460.881 250.275C460.48 250.432 459.986 250.51 459.396 250.51H459.304V249.743ZM466.34 245.217V245.91H463.483V245.217H466.34ZM464.45 243.933H465.354V249.191C465.354 249.37 465.381 249.506 465.437 249.597C465.492 249.688 465.563 249.748 465.651 249.777C465.739 249.807 465.834 249.821 465.935 249.821C466.009 249.821 466.088 249.815 466.169 249.802C466.254 249.785 466.317 249.772 466.359 249.763L466.364 250.5C466.293 250.523 466.198 250.544 466.081 250.563C465.967 250.586 465.829 250.598 465.666 250.598C465.445 250.598 465.241 250.554 465.056 250.466C464.87 250.378 464.722 250.231 464.611 250.026C464.504 249.818 464.45 249.538 464.45 249.187V243.933ZM468.303 243V250.5H467.399V243H468.303ZM468.088 247.658L467.712 247.644C467.715 247.282 467.769 246.949 467.873 246.643C467.977 246.333 468.124 246.065 468.312 245.837C468.501 245.609 468.726 245.433 468.986 245.31C469.25 245.183 469.541 245.119 469.86 245.119C470.121 245.119 470.355 245.155 470.563 245.227C470.772 245.295 470.949 245.406 471.096 245.559C471.245 245.712 471.359 245.91 471.438 246.154C471.516 246.395 471.555 246.69 471.555 247.038V250.5H470.646V247.028C470.646 246.752 470.606 246.53 470.524 246.364C470.443 246.195 470.324 246.073 470.168 245.998C470.012 245.92 469.82 245.881 469.592 245.881C469.367 245.881 469.162 245.928 468.977 246.022C468.794 246.117 468.636 246.247 468.503 246.413C468.373 246.579 468.27 246.77 468.195 246.984C468.124 247.196 468.088 247.421 468.088 247.658Z" fill="#102321"/>
<path d="M40 215.781H492" stroke="#102321" stroke-opacity="0.2"/>
<path d="M40 190.781H492" stroke="#102321" stroke-opacity="0.2"/>
<path d="M40 165.781H492" stroke="#102321" stroke-opacity="0.2"/>
<path d="M40 140.781H492" stroke="#102321" stroke-opacity="0.2"/>
<path d="M40 115.781H492" stroke="#102321" stroke-opacity="0.2"/>
<path d="M40 90.7812H492" stroke="#102321" stroke-opacity="0.2"/>
<path d="M40 65.7812H492" stroke="#102321" stroke-opacity="0.2"/>
<path d="M40 40.7812H492" stroke="#102321" stroke-opacity="0.2"/>
<path d="M40 15.7812H492" stroke="#102321" stroke-opacity="0.2"/>
<path d="M63 0V236" stroke="#102321" stroke-opacity="0.2"/>
<path d="M133 0V236" stroke="#102321" stroke-opacity="0.2"/>
<path d="M98 0V236" stroke="#102321" stroke-opacity="0.2"/>
<path d="M168 0V236" stroke="#102321" stroke-opacity="0.2"/>
<path d="M203 0V236" stroke="#102321" stroke-opacity="0.2"/>
<path d="M238 0V236" stroke="#102321" stroke-opacity="0.2"/>
<path d="M273 0V236" stroke="#102321" stroke-opacity="0.2"/>
<path d="M308 0V236" stroke="#102321" stroke-opacity="0.2"/>
<path d="M343 0V236" stroke="#102321" stroke-opacity="0.2"/>
<path d="M378 0V236" stroke="#102321" stroke-opacity="0.2"/>
<path d="M413 0V236" stroke="#102321" stroke-opacity="0.2"/>
<path d="M448 0V236" stroke="#102321" stroke-opacity="0.2"/>
<path d="M483 0V236" stroke="#102321" stroke-opacity="0.2"/>
</svg>
