<svg width="708" height="305" viewBox="0 0 708 305" fill="none" xmlns="http://www.w3.org/2000/svg">
<path d="M63.1814 300.896H64.1654C64.7014 300.896 64.9694 300.508 64.9694 299.732V293.6H66.2174V299.768C66.2174 300.496 66.0534 301.052 65.7254 301.436C65.3974 301.812 64.9294 302 64.3214 302H63.1814V300.896ZM72.9635 295.952V302H71.7995V300.932C71.6395 301.308 71.3875 301.596 71.0435 301.796C70.7075 301.996 70.3115 302.096 69.8555 302.096C69.1755 302.096 68.6275 301.872 68.2115 301.424C67.8035 300.976 67.5995 300.392 67.5995 299.672V295.952H68.7635V299.444C68.7635 299.924 68.8915 300.312 69.1475 300.608C69.4115 300.904 69.7555 301.052 70.1795 301.052C70.6515 301.052 71.0395 300.88 71.3435 300.536C71.6475 300.192 71.7995 299.756 71.7995 299.228V295.952H72.9635ZM74.5149 302V293.42H75.6789V302H74.5149ZM82.1886 295.952L80.0646 301.784L79.1526 304.448H78.0366L78.8526 302.06L76.6086 295.952H77.8086L79.3926 300.488L80.9886 295.952H82.1886ZM85.7858 296.396C85.7538 295.508 85.9978 294.804 86.5178 294.284C87.0378 293.764 87.7418 293.504 88.6298 293.504C89.4618 293.504 90.1378 293.74 90.6578 294.212C91.1778 294.676 91.4378 295.288 91.4378 296.048C91.4378 297.16 90.7818 298.052 89.4698 298.724L88.2338 299.348C87.8738 299.524 87.5658 299.748 87.3098 300.02C87.0618 300.284 86.9378 300.576 86.9378 300.896H91.4618V302H85.7138V301.1C85.7138 300.652 85.8258 300.232 86.0498 299.84C86.2738 299.448 86.5218 299.14 86.7938 298.916C87.0738 298.684 87.3778 298.488 87.7058 298.328L89.0138 297.668C89.7818 297.276 90.1658 296.732 90.1658 296.036C90.1658 295.596 90.0218 295.244 89.7338 294.98C89.4538 294.708 89.0858 294.572 88.6298 294.572C88.1258 294.572 87.7298 294.74 87.4418 295.076C87.1618 295.404 87.0338 295.844 87.0578 296.396H85.7858ZM95.4181 299.216C94.5541 299.216 93.8461 298.948 93.2941 298.412C92.7421 297.868 92.4661 297.184 92.4661 296.36C92.4661 295.536 92.7541 294.856 93.3301 294.32C93.9141 293.776 94.6421 293.504 95.5141 293.504C96.4981 293.504 97.2741 293.864 97.8421 294.584C98.4101 295.304 98.6941 296.248 98.6941 297.416C98.6941 298.912 98.3861 300.068 97.7701 300.884C97.1621 301.7 96.3621 302.108 95.3701 302.108C94.5701 302.108 93.8981 301.896 93.3541 301.472C92.8181 301.04 92.4981 300.484 92.3941 299.804H93.6061C93.6941 300.18 93.8901 300.48 94.1941 300.704C94.4981 300.92 94.8821 301.028 95.3461 301.028C95.9621 301.028 96.4661 300.744 96.8581 300.176C97.2581 299.608 97.4781 298.888 97.5181 298.016C97.3421 298.368 97.0541 298.656 96.6541 298.88C96.2621 299.104 95.8501 299.216 95.4181 299.216ZM96.7741 295.1C96.4461 294.772 96.0221 294.608 95.5021 294.608C94.9821 294.608 94.5581 294.772 94.2301 295.1C93.9021 295.428 93.7381 295.852 93.7381 296.372C93.7381 296.884 93.9021 297.304 94.2301 297.632C94.5581 297.952 94.9821 298.112 95.5021 298.112C96.0221 298.112 96.4461 297.952 96.7741 297.632C97.1101 297.304 97.2781 296.884 97.2781 296.372C97.2781 295.852 97.1101 295.428 96.7741 295.1ZM100.792 294.056H101.956V295.952H103.744V296.96H101.956V299.984C101.956 300.304 102.036 300.552 102.196 300.728C102.364 300.904 102.596 300.992 102.892 300.992H103.744V302H102.796C102.18 302 101.692 301.824 101.332 301.472C100.972 301.12 100.792 300.636 100.792 300.02V296.96H99.5556V295.952H100.792V294.056ZM104.949 302V293.42H106.113V297.02C106.273 296.644 106.521 296.356 106.857 296.156C107.201 295.956 107.601 295.856 108.057 295.856C108.737 295.856 109.281 296.08 109.689 296.528C110.105 296.976 110.313 297.56 110.313 298.28V302H109.149V298.508C109.149 298.028 109.017 297.64 108.753 297.344C108.497 297.048 108.157 296.9 107.733 296.9C107.261 296.9 106.873 297.072 106.569 297.416C106.265 297.76 106.113 298.196 106.113 298.724V302H104.949Z" fill="white"/>
<path d="M16.1257 265.396C16.0937 264.508 16.3377 263.804 16.8577 263.284C17.3777 262.764 18.0817 262.504 18.9697 262.504C19.8017 262.504 20.4777 262.74 20.9977 263.212C21.5177 263.676 21.7777 264.288 21.7777 265.048C21.7777 266.16 21.1217 267.052 19.8097 267.724L18.5737 268.348C18.2137 268.524 17.9057 268.748 17.6497 269.02C17.4017 269.284 17.2777 269.576 17.2777 269.896H21.8017V271H16.0537V270.1C16.0537 269.652 16.1657 269.232 16.3897 268.84C16.6137 268.448 16.8617 268.14 17.1337 267.916C17.4137 267.684 17.7177 267.488 18.0457 267.328L19.3537 266.668C20.1217 266.276 20.5057 265.732 20.5057 265.036C20.5057 264.596 20.3617 264.244 20.0737 263.98C19.7937 263.708 19.4257 263.572 18.9697 263.572C18.4657 263.572 18.0697 263.74 17.7817 264.076C17.5017 264.404 17.3737 264.844 17.3977 265.396H16.1257ZM23.9739 271C23.9819 270.24 24.0699 269.536 24.2379 268.888C24.4139 268.24 24.7499 267.516 25.2459 266.716L27.1179 263.704H22.4139V262.6H28.5099V263.596L26.2539 267.28C25.8459 267.952 25.5739 268.568 25.4379 269.128C25.3019 269.688 25.2299 270.312 25.2219 271H23.9739ZM27.9433 269.704H29.2273V271H27.9433V269.704ZM33.4543 271.096C32.6703 271.096 32.0063 270.86 31.4623 270.388C30.9263 269.916 30.6263 269.316 30.5623 268.588H31.7623C31.8183 269.036 31.9943 269.384 32.2903 269.632C32.5863 269.872 32.9703 269.992 33.4423 269.992C34.0103 269.992 34.4623 269.836 34.7983 269.524C35.1343 269.204 35.3023 268.772 35.3023 268.228C35.3023 267.684 35.1343 267.248 34.7983 266.92C34.4623 266.584 34.0143 266.416 33.4543 266.416C32.5983 266.416 32.0383 266.712 31.7743 267.304H30.7303L31.3903 262.6H35.9743V263.704H32.3263L31.9903 265.972C32.4383 265.564 32.9903 265.36 33.6463 265.36C34.5023 265.36 35.2023 265.632 35.7463 266.176C36.2983 266.712 36.5743 267.396 36.5743 268.228C36.5743 269.076 36.2823 269.768 35.6983 270.304C35.1143 270.832 34.3663 271.096 33.4543 271.096ZM40.6134 265.72C40.2614 266.072 39.8094 266.248 39.2574 266.248C38.7054 266.248 38.2494 266.072 37.8894 265.72C37.5374 265.368 37.3614 264.92 37.3614 264.376C37.3614 263.832 37.5374 263.384 37.8894 263.032C38.2494 262.68 38.7054 262.504 39.2574 262.504C39.8094 262.504 40.2614 262.68 40.6134 263.032C40.9734 263.384 41.1534 263.832 41.1534 264.376C41.1534 264.92 40.9734 265.368 40.6134 265.72ZM38.5134 265.18C38.7054 265.388 38.9534 265.492 39.2574 265.492C39.5614 265.492 39.8054 265.392 39.9894 265.192C40.1734 264.984 40.2654 264.712 40.2654 264.376C40.2654 264.04 40.1734 263.768 39.9894 263.56C39.8054 263.352 39.5614 263.248 39.2574 263.248C38.9534 263.248 38.7054 263.352 38.5134 263.56C38.3294 263.768 38.2374 264.04 38.2374 264.376C38.2374 264.704 38.3294 264.972 38.5134 265.18ZM45.9822 271.096C44.8302 271.096 43.8582 270.724 43.0662 269.98C42.2742 269.228 41.8782 268.168 41.8782 266.8C41.8782 265.88 42.0742 265.088 42.4662 264.424C42.8582 263.76 43.3582 263.276 43.9662 262.972C44.5742 262.66 45.2462 262.504 45.9822 262.504C46.9342 262.504 47.7502 262.764 48.4302 263.284C49.1182 263.804 49.5182 264.476 49.6302 265.3H48.3222C48.2502 264.804 47.9902 264.4 47.5422 264.088C47.1022 263.768 46.5782 263.608 45.9702 263.608C45.1302 263.608 44.4502 263.888 43.9302 264.448C43.4182 265 43.1622 265.784 43.1622 266.8C43.1622 267.816 43.4182 268.604 43.9302 269.164C44.4502 269.716 45.1302 269.992 45.9702 269.992C46.5942 269.992 47.1302 269.832 47.5782 269.512C48.0262 269.192 48.2822 268.788 48.3462 268.3H49.6062C49.5182 269.124 49.1342 269.796 48.4542 270.316C47.7822 270.836 46.9582 271.096 45.9822 271.096Z" fill="white"/>
<path d="M16.8877 213.096C16.0157 213.096 15.2877 212.844 14.7037 212.34C14.1277 211.836 13.8397 211.176 13.8397 210.36H15.0637C15.0637 210.856 15.2357 211.252 15.5797 211.548C15.9237 211.844 16.3597 211.992 16.8877 211.992C17.4317 211.992 17.8597 211.868 18.1717 211.62C18.4917 211.364 18.6517 211.016 18.6517 210.576C18.6517 210.136 18.4957 209.796 18.1837 209.556C17.8717 209.316 17.4397 209.196 16.8877 209.196H16.1797V208.128H16.8757C17.3157 208.128 17.6677 208.008 17.9317 207.768C18.1957 207.52 18.3277 207.204 18.3277 206.82C18.3277 206.444 18.1877 206.148 17.9077 205.932C17.6357 205.716 17.2717 205.608 16.8157 205.608C16.3677 205.608 16.0077 205.732 15.7357 205.98C15.4637 206.22 15.3157 206.572 15.2917 207.036H14.0917C14.1157 206.268 14.3837 205.656 14.8957 205.2C15.4157 204.736 16.0597 204.504 16.8277 204.504C17.6197 204.504 18.2757 204.716 18.7957 205.14C19.3157 205.564 19.5757 206.096 19.5757 206.736C19.5757 207.136 19.4677 207.504 19.2517 207.84C19.0357 208.176 18.7597 208.424 18.4237 208.584C18.8717 208.736 19.2317 208.988 19.5037 209.34C19.7757 209.692 19.9117 210.108 19.9117 210.588C19.9117 211.364 19.6197 211.976 19.0357 212.424C18.4517 212.872 17.7357 213.096 16.8877 213.096ZM20.9538 207.396C20.9218 206.508 21.1658 205.804 21.6858 205.284C22.2058 204.764 22.9098 204.504 23.7978 204.504C24.6298 204.504 25.3058 204.74 25.8258 205.212C26.3458 205.676 26.6058 206.288 26.6058 207.048C26.6058 208.16 25.9498 209.052 24.6378 209.724L23.4018 210.348C23.0418 210.524 22.7338 210.748 22.4778 211.02C22.2298 211.284 22.1058 211.576 22.1058 211.896H26.6298V213H20.8818V212.1C20.8818 211.652 20.9938 211.232 21.2178 210.84C21.4418 210.448 21.6898 210.14 21.9618 209.916C22.2418 209.684 22.5458 209.488 22.8738 209.328L24.1818 208.668C24.9498 208.276 25.3338 207.732 25.3338 207.036C25.3338 206.596 25.1898 206.244 24.9018 205.98C24.6218 205.708 24.2538 205.572 23.7978 205.572C23.2938 205.572 22.8978 205.74 22.6098 206.076C22.3298 206.404 22.2018 206.844 22.2258 207.396H20.9538ZM27.9433 211.704H29.2273V213H27.9433V211.704ZM33.4543 213.096C32.6703 213.096 32.0063 212.86 31.4623 212.388C30.9263 211.916 30.6263 211.316 30.5623 210.588H31.7623C31.8183 211.036 31.9943 211.384 32.2903 211.632C32.5863 211.872 32.9703 211.992 33.4423 211.992C34.0103 211.992 34.4623 211.836 34.7983 211.524C35.1343 211.204 35.3023 210.772 35.3023 210.228C35.3023 209.684 35.1343 209.248 34.7983 208.92C34.4623 208.584 34.0143 208.416 33.4543 208.416C32.5983 208.416 32.0383 208.712 31.7743 209.304H30.7303L31.3903 204.6H35.9743V205.704H32.3263L31.9903 207.972C32.4383 207.564 32.9903 207.36 33.6463 207.36C34.5023 207.36 35.2023 207.632 35.7463 208.176C36.2983 208.712 36.5743 209.396 36.5743 210.228C36.5743 211.076 36.2823 211.768 35.6983 212.304C35.1143 212.832 34.3663 213.096 33.4543 213.096ZM40.6134 207.72C40.2614 208.072 39.8094 208.248 39.2574 208.248C38.7054 208.248 38.2494 208.072 37.8894 207.72C37.5374 207.368 37.3614 206.92 37.3614 206.376C37.3614 205.832 37.5374 205.384 37.8894 205.032C38.2494 204.68 38.7054 204.504 39.2574 204.504C39.8094 204.504 40.2614 204.68 40.6134 205.032C40.9734 205.384 41.1534 205.832 41.1534 206.376C41.1534 206.92 40.9734 207.368 40.6134 207.72ZM38.5134 207.18C38.7054 207.388 38.9534 207.492 39.2574 207.492C39.5614 207.492 39.8054 207.392 39.9894 207.192C40.1734 206.984 40.2654 206.712 40.2654 206.376C40.2654 206.04 40.1734 205.768 39.9894 205.56C39.8054 205.352 39.5614 205.248 39.2574 205.248C38.9534 205.248 38.7054 205.352 38.5134 205.56C38.3294 205.768 38.2374 206.04 38.2374 206.376C38.2374 206.704 38.3294 206.972 38.5134 207.18ZM45.9822 213.096C44.8302 213.096 43.8582 212.724 43.0662 211.98C42.2742 211.228 41.8782 210.168 41.8782 208.8C41.8782 207.88 42.0742 207.088 42.4662 206.424C42.8582 205.76 43.3582 205.276 43.9662 204.972C44.5742 204.66 45.2462 204.504 45.9822 204.504C46.9342 204.504 47.7502 204.764 48.4302 205.284C49.1182 205.804 49.5182 206.476 49.6302 207.3H48.3222C48.2502 206.804 47.9902 206.4 47.5422 206.088C47.1022 205.768 46.5782 205.608 45.9702 205.608C45.1302 205.608 44.4502 205.888 43.9302 206.448C43.4182 207 43.1622 207.784 43.1622 208.8C43.1622 209.816 43.4182 210.604 43.9302 211.164C44.4502 211.716 45.1302 211.992 45.9702 211.992C46.5942 211.992 47.1302 211.832 47.5782 211.512C48.0262 211.192 48.2822 210.788 48.3462 210.3H49.6062C49.5182 211.124 49.1342 211.796 48.4542 212.316C47.7822 212.836 46.9582 213.096 45.9822 213.096Z" fill="white"/>
<path d="M18.8799 155.096C18.0079 155.096 17.2799 154.844 16.6959 154.34C16.1199 153.836 15.8319 153.176 15.8319 152.36H17.0559C17.0559 152.856 17.2279 153.252 17.5719 153.548C17.9159 153.844 18.3519 153.992 18.8799 153.992C19.4239 153.992 19.8519 153.868 20.1639 153.62C20.4839 153.364 20.6439 153.016 20.6439 152.576C20.6439 152.136 20.4879 151.796 20.1759 151.556C19.8639 151.316 19.4319 151.196 18.8799 151.196H18.1719V150.128H18.8679C19.3079 150.128 19.6599 150.008 19.9239 149.768C20.1879 149.52 20.3199 149.204 20.3199 148.82C20.3199 148.444 20.1799 148.148 19.8999 147.932C19.6279 147.716 19.2639 147.608 18.8079 147.608C18.3599 147.608 17.9999 147.732 17.7279 147.98C17.4559 148.22 17.3079 148.572 17.2839 149.036H16.0839C16.1079 148.268 16.3759 147.656 16.8879 147.2C17.4079 146.736 18.0519 146.504 18.8199 146.504C19.6119 146.504 20.2679 146.716 20.7879 147.14C21.3079 147.564 21.5679 148.096 21.5679 148.736C21.5679 149.136 21.4599 149.504 21.2439 149.84C21.0279 150.176 20.7519 150.424 20.4159 150.584C20.8639 150.736 21.2239 150.988 21.4959 151.34C21.7679 151.692 21.9039 152.108 21.9039 152.588C21.9039 153.364 21.6119 153.976 21.0279 154.424C20.4439 154.872 19.7279 155.096 18.8799 155.096ZM23.9739 155C23.9819 154.24 24.0699 153.536 24.2379 152.888C24.4139 152.24 24.7499 151.516 25.2459 150.716L27.1179 147.704H22.4139V146.6H28.5099V147.596L26.2539 151.28C25.8459 151.952 25.5739 152.568 25.4379 153.128C25.3019 153.688 25.2299 154.312 25.2219 155H23.9739ZM27.9433 153.704H29.2273V155H27.9433V153.704ZM33.4543 155.096C32.6703 155.096 32.0063 154.86 31.4623 154.388C30.9263 153.916 30.6263 153.316 30.5623 152.588H31.7623C31.8183 153.036 31.9943 153.384 32.2903 153.632C32.5863 153.872 32.9703 153.992 33.4423 153.992C34.0103 153.992 34.4623 153.836 34.7983 153.524C35.1343 153.204 35.3023 152.772 35.3023 152.228C35.3023 151.684 35.1343 151.248 34.7983 150.92C34.4623 150.584 34.0143 150.416 33.4543 150.416C32.5983 150.416 32.0383 150.712 31.7743 151.304H30.7303L31.3903 146.6H35.9743V147.704H32.3263L31.9903 149.972C32.4383 149.564 32.9903 149.36 33.6463 149.36C34.5023 149.36 35.2023 149.632 35.7463 150.176C36.2983 150.712 36.5743 151.396 36.5743 152.228C36.5743 153.076 36.2823 153.768 35.6983 154.304C35.1143 154.832 34.3663 155.096 33.4543 155.096ZM40.6134 149.72C40.2614 150.072 39.8094 150.248 39.2574 150.248C38.7054 150.248 38.2494 150.072 37.8894 149.72C37.5374 149.368 37.3614 148.92 37.3614 148.376C37.3614 147.832 37.5374 147.384 37.8894 147.032C38.2494 146.68 38.7054 146.504 39.2574 146.504C39.8094 146.504 40.2614 146.68 40.6134 147.032C40.9734 147.384 41.1534 147.832 41.1534 148.376C41.1534 148.92 40.9734 149.368 40.6134 149.72ZM38.5134 149.18C38.7054 149.388 38.9534 149.492 39.2574 149.492C39.5614 149.492 39.8054 149.392 39.9894 149.192C40.1734 148.984 40.2654 148.712 40.2654 148.376C40.2654 148.04 40.1734 147.768 39.9894 147.56C39.8054 147.352 39.5614 147.248 39.2574 147.248C38.9534 147.248 38.7054 147.352 38.5134 147.56C38.3294 147.768 38.2374 148.04 38.2374 148.376C38.2374 148.704 38.3294 148.972 38.5134 149.18ZM45.9822 155.096C44.8302 155.096 43.8582 154.724 43.0662 153.98C42.2742 153.228 41.8782 152.168 41.8782 150.8C41.8782 149.88 42.0742 149.088 42.4662 148.424C42.8582 147.76 43.3582 147.276 43.9662 146.972C44.5742 146.66 45.2462 146.504 45.9822 146.504C46.9342 146.504 47.7502 146.764 48.4302 147.284C49.1182 147.804 49.5182 148.476 49.6302 149.3H48.3222C48.2502 148.804 47.9902 148.4 47.5422 148.088C47.1022 147.768 46.5782 147.608 45.9702 147.608C45.1302 147.608 44.4502 147.888 43.9302 148.448C43.4182 149 43.1622 149.784 43.1622 150.8C43.1622 151.816 43.4182 152.604 43.9302 153.164C44.4502 153.716 45.1302 153.992 45.9702 153.992C46.5942 153.992 47.1302 153.832 47.5782 153.512C48.0262 153.192 48.2822 152.788 48.3462 152.3H49.6062C49.5182 153.124 49.1342 153.796 48.4542 154.316C47.7822 154.836 46.9582 155.096 45.9822 155.096Z" fill="white"/>
<path d="M17.7339 94V92.032H13.3179V90.928L17.5779 85.6H18.9819V90.928H20.2059V92.032H18.9819V94H17.7339ZM14.6019 90.928H17.7339V87.028L14.6019 90.928ZM20.9538 88.396C20.9218 87.508 21.1658 86.804 21.6858 86.284C22.2058 85.764 22.9098 85.504 23.7978 85.504C24.6298 85.504 25.3058 85.74 25.8258 86.212C26.3458 86.676 26.6058 87.288 26.6058 88.048C26.6058 89.16 25.9498 90.052 24.6378 90.724L23.4018 91.348C23.0418 91.524 22.7338 91.748 22.4778 92.02C22.2298 92.284 22.1058 92.576 22.1058 92.896H26.6298V94H20.8818V93.1C20.8818 92.652 20.9938 92.232 21.2178 91.84C21.4418 91.448 21.6898 91.14 21.9618 90.916C22.2418 90.684 22.5458 90.488 22.8738 90.328L24.1818 89.668C24.9498 89.276 25.3338 88.732 25.3338 88.036C25.3338 87.596 25.1898 87.244 24.9018 86.98C24.6218 86.708 24.2538 86.572 23.7978 86.572C23.2938 86.572 22.8978 86.74 22.6098 87.076C22.3298 87.404 22.2018 87.844 22.2258 88.396H20.9538ZM27.9433 92.704H29.2273V94H27.9433V92.704ZM33.4543 94.096C32.6703 94.096 32.0063 93.86 31.4623 93.388C30.9263 92.916 30.6263 92.316 30.5623 91.588H31.7623C31.8183 92.036 31.9943 92.384 32.2903 92.632C32.5863 92.872 32.9703 92.992 33.4423 92.992C34.0103 92.992 34.4623 92.836 34.7983 92.524C35.1343 92.204 35.3023 91.772 35.3023 91.228C35.3023 90.684 35.1343 90.248 34.7983 89.92C34.4623 89.584 34.0143 89.416 33.4543 89.416C32.5983 89.416 32.0383 89.712 31.7743 90.304H30.7303L31.3903 85.6H35.9743V86.704H32.3263L31.9903 88.972C32.4383 88.564 32.9903 88.36 33.6463 88.36C34.5023 88.36 35.2023 88.632 35.7463 89.176C36.2983 89.712 36.5743 90.396 36.5743 91.228C36.5743 92.076 36.2823 92.768 35.6983 93.304C35.1143 93.832 34.3663 94.096 33.4543 94.096ZM40.6134 88.72C40.2614 89.072 39.8094 89.248 39.2574 89.248C38.7054 89.248 38.2494 89.072 37.8894 88.72C37.5374 88.368 37.3614 87.92 37.3614 87.376C37.3614 86.832 37.5374 86.384 37.8894 86.032C38.2494 85.68 38.7054 85.504 39.2574 85.504C39.8094 85.504 40.2614 85.68 40.6134 86.032C40.9734 86.384 41.1534 86.832 41.1534 87.376C41.1534 87.92 40.9734 88.368 40.6134 88.72ZM38.5134 88.18C38.7054 88.388 38.9534 88.492 39.2574 88.492C39.5614 88.492 39.8054 88.392 39.9894 88.192C40.1734 87.984 40.2654 87.712 40.2654 87.376C40.2654 87.04 40.1734 86.768 39.9894 86.56C39.8054 86.352 39.5614 86.248 39.2574 86.248C38.9534 86.248 38.7054 86.352 38.5134 86.56C38.3294 86.768 38.2374 87.04 38.2374 87.376C38.2374 87.704 38.3294 87.972 38.5134 88.18ZM45.9822 94.096C44.8302 94.096 43.8582 93.724 43.0662 92.98C42.2742 92.228 41.8782 91.168 41.8782 89.8C41.8782 88.88 42.0742 88.088 42.4662 87.424C42.8582 86.76 43.3582 86.276 43.9662 85.972C44.5742 85.66 45.2462 85.504 45.9822 85.504C46.9342 85.504 47.7502 85.764 48.4302 86.284C49.1182 86.804 49.5182 87.476 49.6302 88.3H48.3222C48.2502 87.804 47.9902 87.4 47.5422 87.088C47.1022 86.768 46.5782 86.608 45.9702 86.608C45.1302 86.608 44.4502 86.888 43.9302 87.448C43.4182 88 43.1622 88.784 43.1622 89.8C43.1622 90.816 43.4182 91.604 43.9302 92.164C44.4502 92.716 45.1302 92.992 45.9702 92.992C46.5942 92.992 47.1302 92.832 47.5782 92.512C48.0262 92.192 48.2822 91.788 48.3462 91.3H49.6062C49.5182 92.124 49.1342 92.796 48.4542 93.316C47.7822 93.836 46.9582 94.096 45.9822 94.096Z" fill="white"/>
<path d="M19.5503 36V34.032H15.1343V32.928L19.3943 27.6H20.7983V32.928H22.0223V34.032H20.7983V36H19.5503ZM16.4183 32.928H19.5503V29.028L16.4183 32.928ZM23.9739 36C23.9819 35.24 24.0699 34.536 24.2379 33.888C24.4139 33.24 24.7499 32.516 25.2459 31.716L27.1179 28.704H22.4139V27.6H28.5099V28.596L26.2539 32.28C25.8459 32.952 25.5739 33.568 25.4379 34.128C25.3019 34.688 25.2299 35.312 25.2219 36H23.9739ZM27.9433 34.704H29.2273V36H27.9433V34.704ZM33.4543 36.096C32.6703 36.096 32.0063 35.86 31.4623 35.388C30.9263 34.916 30.6263 34.316 30.5623 33.588H31.7623C31.8183 34.036 31.9943 34.384 32.2903 34.632C32.5863 34.872 32.9703 34.992 33.4423 34.992C34.0103 34.992 34.4623 34.836 34.7983 34.524C35.1343 34.204 35.3023 33.772 35.3023 33.228C35.3023 32.684 35.1343 32.248 34.7983 31.92C34.4623 31.584 34.0143 31.416 33.4543 31.416C32.5983 31.416 32.0383 31.712 31.7743 32.304H30.7303L31.3903 27.6H35.9743V28.704H32.3263L31.9903 30.972C32.4383 30.564 32.9903 30.36 33.6463 30.36C34.5023 30.36 35.2023 30.632 35.7463 31.176C36.2983 31.712 36.5743 32.396 36.5743 33.228C36.5743 34.076 36.2823 34.768 35.6983 35.304C35.1143 35.832 34.3663 36.096 33.4543 36.096ZM40.6134 30.72C40.2614 31.072 39.8094 31.248 39.2574 31.248C38.7054 31.248 38.2494 31.072 37.8894 30.72C37.5374 30.368 37.3614 29.92 37.3614 29.376C37.3614 28.832 37.5374 28.384 37.8894 28.032C38.2494 27.68 38.7054 27.504 39.2574 27.504C39.8094 27.504 40.2614 27.68 40.6134 28.032C40.9734 28.384 41.1534 28.832 41.1534 29.376C41.1534 29.92 40.9734 30.368 40.6134 30.72ZM38.5134 30.18C38.7054 30.388 38.9534 30.492 39.2574 30.492C39.5614 30.492 39.8054 30.392 39.9894 30.192C40.1734 29.984 40.2654 29.712 40.2654 29.376C40.2654 29.04 40.1734 28.768 39.9894 28.56C39.8054 28.352 39.5614 28.248 39.2574 28.248C38.9534 28.248 38.7054 28.352 38.5134 28.56C38.3294 28.768 38.2374 29.04 38.2374 29.376C38.2374 29.704 38.3294 29.972 38.5134 30.18ZM45.9822 36.096C44.8302 36.096 43.8582 35.724 43.0662 34.98C42.2742 34.228 41.8782 33.168 41.8782 31.8C41.8782 30.88 42.0742 30.088 42.4662 29.424C42.8582 28.76 43.3582 28.276 43.9662 27.972C44.5742 27.66 45.2462 27.504 45.9822 27.504C46.9342 27.504 47.7502 27.764 48.4302 28.284C49.1182 28.804 49.5182 29.476 49.6302 30.3H48.3222C48.2502 29.804 47.9902 29.4 47.5422 29.088C47.1022 28.768 46.5782 28.608 45.9702 28.608C45.1302 28.608 44.4502 28.888 43.9302 29.448C43.4182 30 43.1622 30.784 43.1622 31.8C43.1622 32.816 43.4182 33.604 43.9302 34.164C44.4502 34.716 45.1302 34.992 45.9702 34.992C46.5942 34.992 47.1302 34.832 47.5782 34.512C48.0262 34.192 48.2822 33.788 48.3462 33.3H49.6062C49.5182 34.124 49.1342 34.796 48.4542 35.316C47.7822 35.836 46.9582 36.096 45.9822 36.096Z" fill="white"/>
<path d="M163.461 300.896H164.445C164.981 300.896 165.249 300.508 165.249 299.732V293.6H166.497V299.768C166.497 300.496 166.333 301.052 166.005 301.436C165.677 301.812 165.209 302 164.601 302H163.461V300.896ZM173.243 295.952V302H172.079V300.932C171.919 301.308 171.667 301.596 171.323 301.796C170.987 301.996 170.591 302.096 170.135 302.096C169.455 302.096 168.907 301.872 168.491 301.424C168.083 300.976 167.879 300.392 167.879 299.672V295.952H169.043V299.444C169.043 299.924 169.171 300.312 169.427 300.608C169.691 300.904 170.035 301.052 170.459 301.052C170.931 301.052 171.319 300.88 171.623 300.536C171.927 300.192 172.079 299.756 172.079 299.228V295.952H173.243ZM174.794 302V293.42H175.958V302H174.794ZM182.468 295.952L180.344 301.784L179.432 304.448H178.316L179.132 302.06L176.888 295.952H178.088L179.672 300.488L181.268 295.952H182.468ZM189.077 302.096C188.205 302.096 187.477 301.844 186.893 301.34C186.317 300.836 186.029 300.176 186.029 299.36H187.253C187.253 299.856 187.425 300.252 187.769 300.548C188.113 300.844 188.549 300.992 189.077 300.992C189.621 300.992 190.049 300.868 190.361 300.62C190.681 300.364 190.841 300.016 190.841 299.576C190.841 299.136 190.685 298.796 190.373 298.556C190.061 298.316 189.629 298.196 189.077 298.196H188.369V297.128H189.065C189.505 297.128 189.857 297.008 190.121 296.768C190.385 296.52 190.517 296.204 190.517 295.82C190.517 295.444 190.377 295.148 190.097 294.932C189.825 294.716 189.461 294.608 189.005 294.608C188.557 294.608 188.197 294.732 187.925 294.98C187.653 295.22 187.505 295.572 187.481 296.036H186.281C186.305 295.268 186.573 294.656 187.085 294.2C187.605 293.736 188.249 293.504 189.017 293.504C189.809 293.504 190.465 293.716 190.985 294.14C191.505 294.564 191.765 295.096 191.765 295.736C191.765 296.136 191.657 296.504 191.441 296.84C191.225 297.176 190.949 297.424 190.613 297.584C191.061 297.736 191.421 297.988 191.693 298.34C191.965 298.692 192.101 299.108 192.101 299.588C192.101 300.364 191.809 300.976 191.225 301.424C190.641 301.872 189.925 302.096 189.077 302.096ZM195.762 293.6V302H194.514V295.544C194.378 295.744 194.094 295.844 193.662 295.844H192.918V294.74H193.566C193.878 294.74 194.11 294.66 194.262 294.5C194.422 294.332 194.522 294.032 194.562 293.6H195.762ZM199.487 302.096C198.775 302.096 198.199 301.912 197.759 301.544C197.319 301.168 197.079 300.664 197.039 300.032H198.131C198.163 300.376 198.299 300.644 198.539 300.836C198.779 301.028 199.095 301.124 199.487 301.124C199.823 301.124 200.095 301.048 200.303 300.896C200.519 300.736 200.627 300.54 200.627 300.308C200.627 300.02 200.507 299.808 200.267 299.672C200.035 299.528 199.751 299.436 199.415 299.396C199.079 299.348 198.743 299.288 198.407 299.216C198.071 299.136 197.783 298.968 197.543 298.712C197.311 298.448 197.195 298.076 197.195 297.596C197.195 297.076 197.395 296.656 197.795 296.336C198.195 296.016 198.711 295.856 199.343 295.856C200.023 295.856 200.579 296.032 201.011 296.384C201.443 296.728 201.675 297.184 201.707 297.752H200.615C200.575 297.432 200.427 297.192 200.171 297.032C199.915 296.864 199.639 296.78 199.343 296.78C199.031 296.78 198.779 296.852 198.587 296.996C198.395 297.14 198.299 297.328 198.299 297.56C198.299 297.832 198.415 298.028 198.647 298.148C198.887 298.268 199.175 298.348 199.511 298.388C199.855 298.42 200.195 298.476 200.531 298.556C200.875 298.636 201.163 298.816 201.395 299.096C201.635 299.376 201.755 299.772 201.755 300.284C201.755 300.836 201.547 301.276 201.131 301.604C200.723 301.932 200.175 302.096 199.487 302.096ZM203.579 294.056H204.743V295.952H206.531V296.96H204.743V299.984C204.743 300.304 204.823 300.552 204.983 300.728C205.151 300.904 205.383 300.992 205.679 300.992H206.531V302H205.583C204.967 302 204.479 301.824 204.119 301.472C203.759 301.12 203.579 300.636 203.579 300.02V296.96H202.343V295.952H203.579V294.056Z" fill="white"/>
<path d="M311.517 302L310.713 299.864H307.149L306.345 302H305.061L308.361 293.6H309.513L312.813 302H311.517ZM307.569 298.772H310.305L308.937 295.16L307.569 298.772ZM318.878 295.952V302H317.714V300.932C317.554 301.308 317.302 301.596 316.958 301.796C316.622 301.996 316.226 302.096 315.77 302.096C315.09 302.096 314.542 301.872 314.126 301.424C313.718 300.976 313.514 300.392 313.514 299.672V295.952H314.678V299.444C314.678 299.924 314.806 300.312 315.062 300.608C315.326 300.904 315.67 301.052 316.094 301.052C316.566 301.052 316.954 300.88 317.258 300.536C317.562 300.192 317.714 299.756 317.714 299.228V295.952H318.878ZM324.893 295.952H326.057V302.288C326.057 302.92 325.849 303.436 325.433 303.836C325.017 304.244 324.477 304.448 323.813 304.448H320.897V303.476H323.693C324.045 303.476 324.333 303.356 324.557 303.116C324.781 302.884 324.893 302.584 324.893 302.216V301.232C324.749 301.488 324.501 301.696 324.149 301.856C323.797 302.016 323.409 302.096 322.985 302.096C322.073 302.096 321.361 301.808 320.849 301.232C320.337 300.656 320.081 299.904 320.081 298.976C320.081 298.056 320.337 297.308 320.849 296.732C321.361 296.148 322.069 295.856 322.973 295.856C323.373 295.856 323.745 295.94 324.089 296.108C324.433 296.268 324.701 296.484 324.893 296.756V295.952ZM321.773 300.5C322.109 300.884 322.557 301.076 323.117 301.076C323.677 301.076 324.125 300.888 324.461 300.512C324.805 300.128 324.977 299.616 324.977 298.976C324.977 298.336 324.805 297.828 324.461 297.452C324.125 297.068 323.677 296.876 323.117 296.876C322.557 296.876 322.109 297.068 321.773 297.452C321.437 297.836 321.269 298.344 321.269 298.976C321.269 299.608 321.437 300.116 321.773 300.5ZM332.753 295.952V302H331.589V300.932C331.429 301.308 331.177 301.596 330.833 301.796C330.497 301.996 330.101 302.096 329.645 302.096C328.965 302.096 328.417 301.872 328.001 301.424C327.593 300.976 327.389 300.392 327.389 299.672V295.952H328.553V299.444C328.553 299.924 328.681 300.312 328.937 300.608C329.201 300.904 329.545 301.052 329.969 301.052C330.441 301.052 330.829 300.88 331.133 300.536C331.437 300.192 331.589 299.756 331.589 299.228V295.952H332.753ZM336.368 302.096C335.656 302.096 335.08 301.912 334.64 301.544C334.2 301.168 333.96 300.664 333.92 300.032H335.012C335.044 300.376 335.18 300.644 335.42 300.836C335.66 301.028 335.976 301.124 336.368 301.124C336.704 301.124 336.976 301.048 337.184 300.896C337.4 300.736 337.508 300.54 337.508 300.308C337.508 300.02 337.388 299.808 337.148 299.672C336.916 299.528 336.632 299.436 336.296 299.396C335.96 299.348 335.624 299.288 335.288 299.216C334.952 299.136 334.664 298.968 334.424 298.712C334.192 298.448 334.076 298.076 334.076 297.596C334.076 297.076 334.276 296.656 334.676 296.336C335.076 296.016 335.592 295.856 336.224 295.856C336.904 295.856 337.46 296.032 337.892 296.384C338.324 296.728 338.556 297.184 338.588 297.752H337.496C337.456 297.432 337.308 297.192 337.052 297.032C336.796 296.864 336.52 296.78 336.224 296.78C335.912 296.78 335.66 296.852 335.468 296.996C335.276 297.14 335.18 297.328 335.18 297.56C335.18 297.832 335.296 298.028 335.528 298.148C335.768 298.268 336.056 298.348 336.392 298.388C336.736 298.42 337.076 298.476 337.412 298.556C337.756 298.636 338.044 298.816 338.276 299.096C338.516 299.376 338.636 299.772 338.636 300.284C338.636 300.836 338.428 301.276 338.012 301.604C337.604 301.932 337.056 302.096 336.368 302.096ZM340.46 294.056H341.624V295.952H343.412V296.96H341.624V299.984C341.624 300.304 341.704 300.552 341.864 300.728C342.032 300.904 342.264 300.992 342.56 300.992H343.412V302H342.464C341.848 302 341.36 301.824 341 301.472C340.64 301.12 340.46 300.636 340.46 300.02V296.96H339.224V295.952H340.46V294.056ZM350.134 302.096C349.262 302.096 348.534 301.844 347.95 301.34C347.374 300.836 347.086 300.176 347.086 299.36H348.31C348.31 299.856 348.482 300.252 348.826 300.548C349.17 300.844 349.606 300.992 350.134 300.992C350.678 300.992 351.106 300.868 351.418 300.62C351.738 300.364 351.898 300.016 351.898 299.576C351.898 299.136 351.742 298.796 351.43 298.556C351.118 298.316 350.686 298.196 350.134 298.196H349.426V297.128H350.122C350.562 297.128 350.914 297.008 351.178 296.768C351.442 296.52 351.574 296.204 351.574 295.82C351.574 295.444 351.434 295.148 351.154 294.932C350.882 294.716 350.518 294.608 350.062 294.608C349.614 294.608 349.254 294.732 348.982 294.98C348.71 295.22 348.562 295.572 348.538 296.036H347.338C347.362 295.268 347.63 294.656 348.142 294.2C348.662 293.736 349.306 293.504 350.074 293.504C350.866 293.504 351.522 293.716 352.042 294.14C352.562 294.564 352.822 295.096 352.822 295.736C352.822 296.136 352.714 296.504 352.498 296.84C352.282 297.176 352.006 297.424 351.67 297.584C352.118 297.736 352.478 297.988 352.75 298.34C353.022 298.692 353.158 299.108 353.158 299.588C353.158 300.364 352.866 300.976 352.282 301.424C351.698 301.872 350.982 302.096 350.134 302.096ZM357.904 296.96H357.028C356.052 296.96 355.564 297.728 355.564 299.264V302H354.4V295.952H355.564V297.116C355.7 296.708 355.896 296.412 356.152 296.228C356.408 296.044 356.748 295.952 357.172 295.952H357.904V296.96ZM361.163 302.096C360.251 302.096 359.539 301.808 359.027 301.232C358.515 300.656 358.259 299.904 358.259 298.976C358.259 298.056 358.515 297.308 359.027 296.732C359.539 296.148 360.247 295.856 361.151 295.856C361.559 295.856 361.935 295.948 362.279 296.132C362.623 296.308 362.887 296.544 363.071 296.84V293.42H364.235V302H363.071V301.1C362.887 301.404 362.623 301.648 362.279 301.832C361.935 302.008 361.563 302.096 361.163 302.096ZM359.951 300.5C360.287 300.884 360.735 301.076 361.295 301.076C361.855 301.076 362.303 300.884 362.639 300.5C362.983 300.116 363.155 299.608 363.155 298.976C363.155 298.344 362.983 297.836 362.639 297.452C362.303 297.068 361.855 296.876 361.295 296.876C360.735 296.876 360.287 297.068 359.951 297.452C359.615 297.836 359.447 298.344 359.447 298.976C359.447 299.608 359.615 300.116 359.951 300.5Z" fill="white"/>
<path d="M222.198 302L221.394 299.864H217.83L217.026 302H215.742L219.042 293.6H220.194L223.494 302H222.198ZM218.25 298.772H220.986L219.618 295.16L218.25 298.772ZM229.559 295.952V302H228.395V300.932C228.235 301.308 227.983 301.596 227.639 301.796C227.303 301.996 226.907 302.096 226.451 302.096C225.771 302.096 225.223 301.872 224.807 301.424C224.399 300.976 224.195 300.392 224.195 299.672V295.952H225.359V299.444C225.359 299.924 225.487 300.312 225.743 300.608C226.007 300.904 226.351 301.052 226.775 301.052C227.247 301.052 227.635 300.88 227.939 300.536C228.243 300.192 228.395 299.756 228.395 299.228V295.952H229.559ZM235.575 295.952H236.739V302.288C236.739 302.92 236.531 303.436 236.115 303.836C235.699 304.244 235.159 304.448 234.495 304.448H231.579V303.476H234.375C234.727 303.476 235.015 303.356 235.239 303.116C235.463 302.884 235.575 302.584 235.575 302.216V301.232C235.431 301.488 235.183 301.696 234.831 301.856C234.479 302.016 234.091 302.096 233.667 302.096C232.755 302.096 232.043 301.808 231.531 301.232C231.019 300.656 230.763 299.904 230.763 298.976C230.763 298.056 231.019 297.308 231.531 296.732C232.043 296.148 232.751 295.856 233.655 295.856C234.055 295.856 234.427 295.94 234.771 296.108C235.115 296.268 235.383 296.484 235.575 296.756V295.952ZM232.455 300.5C232.791 300.884 233.239 301.076 233.799 301.076C234.359 301.076 234.807 300.888 235.143 300.512C235.487 300.128 235.659 299.616 235.659 298.976C235.659 298.336 235.487 297.828 235.143 297.452C234.807 297.068 234.359 296.876 233.799 296.876C233.239 296.876 232.791 297.068 232.455 297.452C232.119 297.836 231.951 298.344 231.951 298.976C231.951 299.608 232.119 300.116 232.455 300.5ZM243.434 295.952V302H242.27V300.932C242.11 301.308 241.858 301.596 241.514 301.796C241.178 301.996 240.782 302.096 240.326 302.096C239.646 302.096 239.098 301.872 238.682 301.424C238.274 300.976 238.07 300.392 238.07 299.672V295.952H239.234V299.444C239.234 299.924 239.362 300.312 239.618 300.608C239.882 300.904 240.226 301.052 240.65 301.052C241.122 301.052 241.51 300.88 241.814 300.536C242.118 300.192 242.27 299.756 242.27 299.228V295.952H243.434ZM247.05 302.096C246.338 302.096 245.762 301.912 245.322 301.544C244.882 301.168 244.642 300.664 244.602 300.032H245.694C245.726 300.376 245.862 300.644 246.102 300.836C246.342 301.028 246.658 301.124 247.05 301.124C247.386 301.124 247.658 301.048 247.866 300.896C248.082 300.736 248.19 300.54 248.19 300.308C248.19 300.02 248.07 299.808 247.83 299.672C247.598 299.528 247.314 299.436 246.978 299.396C246.642 299.348 246.306 299.288 245.97 299.216C245.634 299.136 245.346 298.968 245.106 298.712C244.874 298.448 244.758 298.076 244.758 297.596C244.758 297.076 244.958 296.656 245.358 296.336C245.758 296.016 246.274 295.856 246.906 295.856C247.586 295.856 248.142 296.032 248.574 296.384C249.006 296.728 249.238 297.184 249.27 297.752H248.178C248.138 297.432 247.99 297.192 247.734 297.032C247.478 296.864 247.202 296.78 246.906 296.78C246.594 296.78 246.342 296.852 246.15 296.996C245.958 297.14 245.862 297.328 245.862 297.56C245.862 297.832 245.978 298.028 246.21 298.148C246.45 298.268 246.738 298.348 247.074 298.388C247.418 298.42 247.758 298.476 248.094 298.556C248.438 298.636 248.726 298.816 248.958 299.096C249.198 299.376 249.318 299.772 249.318 300.284C249.318 300.836 249.11 301.276 248.694 301.604C248.286 301.932 247.738 302.096 247.05 302.096ZM251.141 294.056H252.305V295.952H254.093V296.96H252.305V299.984C252.305 300.304 252.385 300.552 252.545 300.728C252.713 300.904 252.945 300.992 253.241 300.992H254.093V302H253.145C252.529 302 252.041 301.824 251.681 301.472C251.321 301.12 251.141 300.636 251.141 300.02V296.96H249.905V295.952H251.141V294.056Z" fill="white"/>
<path d="M412.358 302L411.554 299.864H407.99L407.186 302H405.902L409.202 293.6H410.354L413.654 302H412.358ZM408.41 298.772H411.146L409.778 295.16L408.41 298.772ZM419.719 295.952V302H418.555V300.932C418.395 301.308 418.143 301.596 417.799 301.796C417.463 301.996 417.067 302.096 416.611 302.096C415.931 302.096 415.383 301.872 414.967 301.424C414.559 300.976 414.355 300.392 414.355 299.672V295.952H415.519V299.444C415.519 299.924 415.647 300.312 415.903 300.608C416.167 300.904 416.511 301.052 416.935 301.052C417.407 301.052 417.795 300.88 418.099 300.536C418.403 300.192 418.555 299.756 418.555 299.228V295.952H419.719ZM425.735 295.952H426.899V302.288C426.899 302.92 426.691 303.436 426.275 303.836C425.859 304.244 425.319 304.448 424.655 304.448H421.739V303.476H424.535C424.887 303.476 425.175 303.356 425.399 303.116C425.623 302.884 425.735 302.584 425.735 302.216V301.232C425.591 301.488 425.343 301.696 424.991 301.856C424.639 302.016 424.251 302.096 423.827 302.096C422.915 302.096 422.203 301.808 421.691 301.232C421.179 300.656 420.923 299.904 420.923 298.976C420.923 298.056 421.179 297.308 421.691 296.732C422.203 296.148 422.911 295.856 423.815 295.856C424.215 295.856 424.587 295.94 424.931 296.108C425.275 296.268 425.543 296.484 425.735 296.756V295.952ZM422.615 300.5C422.951 300.884 423.399 301.076 423.959 301.076C424.519 301.076 424.967 300.888 425.303 300.512C425.647 300.128 425.819 299.616 425.819 298.976C425.819 298.336 425.647 297.828 425.303 297.452C424.967 297.068 424.519 296.876 423.959 296.876C423.399 296.876 422.951 297.068 422.615 297.452C422.279 297.836 422.111 298.344 422.111 298.976C422.111 299.608 422.279 300.116 422.615 300.5ZM433.594 295.952V302H432.43V300.932C432.27 301.308 432.018 301.596 431.674 301.796C431.338 301.996 430.942 302.096 430.486 302.096C429.806 302.096 429.258 301.872 428.842 301.424C428.434 300.976 428.23 300.392 428.23 299.672V295.952H429.394V299.444C429.394 299.924 429.522 300.312 429.778 300.608C430.042 300.904 430.386 301.052 430.81 301.052C431.282 301.052 431.67 300.88 431.974 300.536C432.278 300.192 432.43 299.756 432.43 299.228V295.952H433.594ZM437.21 302.096C436.498 302.096 435.922 301.912 435.482 301.544C435.042 301.168 434.802 300.664 434.762 300.032H435.854C435.886 300.376 436.022 300.644 436.262 300.836C436.502 301.028 436.818 301.124 437.21 301.124C437.546 301.124 437.818 301.048 438.026 300.896C438.242 300.736 438.35 300.54 438.35 300.308C438.35 300.02 438.23 299.808 437.99 299.672C437.758 299.528 437.474 299.436 437.138 299.396C436.802 299.348 436.466 299.288 436.13 299.216C435.794 299.136 435.506 298.968 435.266 298.712C435.034 298.448 434.918 298.076 434.918 297.596C434.918 297.076 435.118 296.656 435.518 296.336C435.918 296.016 436.434 295.856 437.066 295.856C437.746 295.856 438.302 296.032 438.734 296.384C439.166 296.728 439.398 297.184 439.43 297.752H438.338C438.298 297.432 438.15 297.192 437.894 297.032C437.638 296.864 437.362 296.78 437.066 296.78C436.754 296.78 436.502 296.852 436.31 296.996C436.118 297.14 436.022 297.328 436.022 297.56C436.022 297.832 436.138 298.028 436.37 298.148C436.61 298.268 436.898 298.348 437.234 298.388C437.578 298.42 437.918 298.476 438.254 298.556C438.598 298.636 438.886 298.816 439.118 299.096C439.358 299.376 439.478 299.772 439.478 300.284C439.478 300.836 439.27 301.276 438.854 301.604C438.446 301.932 437.898 302.096 437.21 302.096ZM441.301 294.056H442.465V295.952H444.253V296.96H442.465V299.984C442.465 300.304 442.545 300.552 442.705 300.728C442.873 300.904 443.105 300.992 443.401 300.992H444.253V302H443.305C442.689 302 442.201 301.824 441.841 301.472C441.481 301.12 441.301 300.636 441.301 300.02V296.96H440.065V295.952H441.301V294.056ZM450.82 302.096C450.036 302.096 449.372 301.86 448.828 301.388C448.292 300.916 447.992 300.316 447.928 299.588H449.128C449.184 300.036 449.36 300.384 449.656 300.632C449.952 300.872 450.336 300.992 450.808 300.992C451.376 300.992 451.828 300.836 452.164 300.524C452.5 300.204 452.668 299.772 452.668 299.228C452.668 298.684 452.5 298.248 452.164 297.92C451.828 297.584 451.38 297.416 450.82 297.416C449.964 297.416 449.404 297.712 449.14 298.304H448.096L448.756 293.6H453.34V294.704H449.692L449.356 296.972C449.804 296.564 450.356 296.36 451.012 296.36C451.868 296.36 452.568 296.632 453.112 297.176C453.664 297.712 453.94 298.396 453.94 299.228C453.94 300.076 453.648 300.768 453.064 301.304C452.48 301.832 451.732 302.096 450.82 302.096ZM455.915 294.056H457.079V295.952H458.867V296.96H457.079V299.984C457.079 300.304 457.159 300.552 457.319 300.728C457.487 300.904 457.719 300.992 458.015 300.992H458.867V302H457.919C457.303 302 456.815 301.824 456.455 301.472C456.095 301.12 455.915 300.636 455.915 300.02V296.96H454.679V295.952H455.915V294.056ZM460.072 302V293.42H461.236V297.02C461.396 296.644 461.644 296.356 461.98 296.156C462.324 295.956 462.724 295.856 463.18 295.856C463.86 295.856 464.404 296.08 464.812 296.528C465.228 296.976 465.436 297.56 465.436 298.28V302H464.272V298.508C464.272 298.028 464.14 297.64 463.876 297.344C463.62 297.048 463.28 296.9 462.856 296.9C462.384 296.9 461.996 297.072 461.692 297.416C461.388 297.76 461.236 298.196 461.236 298.724V302H460.072Z" fill="white"/>
<path d="M511.569 302L510.765 299.864H507.201L506.397 302H505.113L508.413 293.6H509.565L512.865 302H511.569ZM507.621 298.772H510.357L508.989 295.16L507.621 298.772ZM518.93 295.952V302H517.766V300.932C517.606 301.308 517.354 301.596 517.01 301.796C516.674 301.996 516.278 302.096 515.822 302.096C515.142 302.096 514.594 301.872 514.178 301.424C513.77 300.976 513.566 300.392 513.566 299.672V295.952H514.73V299.444C514.73 299.924 514.858 300.312 515.114 300.608C515.378 300.904 515.722 301.052 516.146 301.052C516.618 301.052 517.006 300.88 517.31 300.536C517.614 300.192 517.766 299.756 517.766 299.228V295.952H518.93ZM524.946 295.952H526.11V302.288C526.11 302.92 525.902 303.436 525.486 303.836C525.07 304.244 524.53 304.448 523.866 304.448H520.95V303.476H523.746C524.098 303.476 524.386 303.356 524.61 303.116C524.834 302.884 524.946 302.584 524.946 302.216V301.232C524.802 301.488 524.554 301.696 524.202 301.856C523.85 302.016 523.462 302.096 523.038 302.096C522.126 302.096 521.414 301.808 520.902 301.232C520.39 300.656 520.134 299.904 520.134 298.976C520.134 298.056 520.39 297.308 520.902 296.732C521.414 296.148 522.122 295.856 523.026 295.856C523.426 295.856 523.798 295.94 524.142 296.108C524.486 296.268 524.754 296.484 524.946 296.756V295.952ZM521.826 300.5C522.162 300.884 522.61 301.076 523.17 301.076C523.73 301.076 524.178 300.888 524.514 300.512C524.858 300.128 525.03 299.616 525.03 298.976C525.03 298.336 524.858 297.828 524.514 297.452C524.178 297.068 523.73 296.876 523.17 296.876C522.61 296.876 522.162 297.068 521.826 297.452C521.49 297.836 521.322 298.344 521.322 298.976C521.322 299.608 521.49 300.116 521.826 300.5ZM532.805 295.952V302H531.641V300.932C531.481 301.308 531.229 301.596 530.885 301.796C530.549 301.996 530.153 302.096 529.697 302.096C529.017 302.096 528.469 301.872 528.053 301.424C527.645 300.976 527.441 300.392 527.441 299.672V295.952H528.605V299.444C528.605 299.924 528.733 300.312 528.989 300.608C529.253 300.904 529.597 301.052 530.021 301.052C530.493 301.052 530.881 300.88 531.185 300.536C531.489 300.192 531.641 299.756 531.641 299.228V295.952H532.805ZM536.421 302.096C535.709 302.096 535.133 301.912 534.693 301.544C534.253 301.168 534.013 300.664 533.973 300.032H535.065C535.097 300.376 535.233 300.644 535.473 300.836C535.713 301.028 536.029 301.124 536.421 301.124C536.757 301.124 537.029 301.048 537.237 300.896C537.453 300.736 537.561 300.54 537.561 300.308C537.561 300.02 537.441 299.808 537.201 299.672C536.969 299.528 536.685 299.436 536.349 299.396C536.013 299.348 535.677 299.288 535.341 299.216C535.005 299.136 534.717 298.968 534.477 298.712C534.245 298.448 534.129 298.076 534.129 297.596C534.129 297.076 534.329 296.656 534.729 296.336C535.129 296.016 535.645 295.856 536.277 295.856C536.957 295.856 537.513 296.032 537.945 296.384C538.377 296.728 538.609 297.184 538.641 297.752H537.549C537.509 297.432 537.361 297.192 537.105 297.032C536.849 296.864 536.573 296.78 536.277 296.78C535.965 296.78 535.713 296.852 535.521 296.996C535.329 297.14 535.233 297.328 535.233 297.56C535.233 297.832 535.349 298.028 535.581 298.148C535.821 298.268 536.109 298.348 536.445 298.388C536.789 298.42 537.129 298.476 537.465 298.556C537.809 298.636 538.097 298.816 538.329 299.096C538.569 299.376 538.689 299.772 538.689 300.284C538.689 300.836 538.481 301.276 538.065 301.604C537.657 301.932 537.109 302.096 536.421 302.096ZM540.512 294.056H541.676V295.952H543.464V296.96H541.676V299.984C541.676 300.304 541.756 300.552 541.916 300.728C542.084 300.904 542.316 300.992 542.612 300.992H543.464V302H542.516C541.9 302 541.412 301.824 541.052 301.472C540.692 301.12 540.512 300.636 540.512 300.02V296.96H539.276V295.952H540.512V294.056ZM548.531 302C548.539 301.24 548.627 300.536 548.795 299.888C548.971 299.24 549.307 298.516 549.803 297.716L551.675 294.704H546.971V293.6H553.067V294.596L550.811 298.28C550.403 298.952 550.131 299.568 549.995 300.128C549.859 300.688 549.787 301.312 549.779 302H548.531ZM554.704 294.056H555.868V295.952H557.656V296.96H555.868V299.984C555.868 300.304 555.948 300.552 556.108 300.728C556.276 300.904 556.508 300.992 556.804 300.992H557.656V302H556.708C556.092 302 555.604 301.824 555.244 301.472C554.884 301.12 554.704 300.636 554.704 300.02V296.96H553.468V295.952H554.704V294.056ZM558.861 302V293.42H560.025V297.02C560.185 296.644 560.433 296.356 560.769 296.156C561.113 295.956 561.513 295.856 561.969 295.856C562.649 295.856 563.193 296.08 563.601 296.528C564.017 296.976 564.225 297.56 564.225 298.28V302H563.061V298.508C563.061 298.028 562.929 297.64 562.665 297.344C562.409 297.048 562.069 296.9 561.645 296.9C561.173 296.9 560.785 297.072 560.481 297.416C560.177 297.76 560.025 298.196 560.025 298.724V302H558.861Z" fill="white"/>
<path d="M610.159 302L609.355 299.864H605.791L604.987 302H603.703L607.003 293.6H608.155L611.455 302H610.159ZM606.211 298.772H608.947L607.579 295.16L606.211 298.772ZM617.52 295.952V302H616.356V300.932C616.196 301.308 615.944 301.596 615.6 301.796C615.264 301.996 614.868 302.096 614.412 302.096C613.732 302.096 613.184 301.872 612.768 301.424C612.36 300.976 612.156 300.392 612.156 299.672V295.952H613.32V299.444C613.32 299.924 613.448 300.312 613.704 300.608C613.968 300.904 614.312 301.052 614.736 301.052C615.208 301.052 615.596 300.88 615.9 300.536C616.204 300.192 616.356 299.756 616.356 299.228V295.952H617.52ZM623.536 295.952H624.7V302.288C624.7 302.92 624.492 303.436 624.076 303.836C623.66 304.244 623.12 304.448 622.456 304.448H619.54V303.476H622.336C622.688 303.476 622.976 303.356 623.2 303.116C623.424 302.884 623.536 302.584 623.536 302.216V301.232C623.392 301.488 623.144 301.696 622.792 301.856C622.44 302.016 622.052 302.096 621.628 302.096C620.716 302.096 620.004 301.808 619.492 301.232C618.98 300.656 618.724 299.904 618.724 298.976C618.724 298.056 618.98 297.308 619.492 296.732C620.004 296.148 620.712 295.856 621.616 295.856C622.016 295.856 622.388 295.94 622.732 296.108C623.076 296.268 623.344 296.484 623.536 296.756V295.952ZM620.416 300.5C620.752 300.884 621.2 301.076 621.76 301.076C622.32 301.076 622.768 300.888 623.104 300.512C623.448 300.128 623.62 299.616 623.62 298.976C623.62 298.336 623.448 297.828 623.104 297.452C622.768 297.068 622.32 296.876 621.76 296.876C621.2 296.876 620.752 297.068 620.416 297.452C620.08 297.836 619.912 298.344 619.912 298.976C619.912 299.608 620.08 300.116 620.416 300.5ZM631.395 295.952V302H630.231V300.932C630.071 301.308 629.819 301.596 629.475 301.796C629.139 301.996 628.743 302.096 628.287 302.096C627.607 302.096 627.059 301.872 626.643 301.424C626.235 300.976 626.031 300.392 626.031 299.672V295.952H627.195V299.444C627.195 299.924 627.323 300.312 627.579 300.608C627.843 300.904 628.187 301.052 628.611 301.052C629.083 301.052 629.471 300.88 629.775 300.536C630.079 300.192 630.231 299.756 630.231 299.228V295.952H631.395ZM635.011 302.096C634.299 302.096 633.723 301.912 633.283 301.544C632.843 301.168 632.603 300.664 632.563 300.032H633.655C633.687 300.376 633.823 300.644 634.063 300.836C634.303 301.028 634.619 301.124 635.011 301.124C635.347 301.124 635.619 301.048 635.827 300.896C636.043 300.736 636.151 300.54 636.151 300.308C636.151 300.02 636.031 299.808 635.791 299.672C635.559 299.528 635.275 299.436 634.939 299.396C634.603 299.348 634.267 299.288 633.931 299.216C633.595 299.136 633.307 298.968 633.067 298.712C632.835 298.448 632.719 298.076 632.719 297.596C632.719 297.076 632.919 296.656 633.319 296.336C633.719 296.016 634.235 295.856 634.867 295.856C635.547 295.856 636.103 296.032 636.535 296.384C636.967 296.728 637.199 297.184 637.231 297.752H636.139C636.099 297.432 635.951 297.192 635.695 297.032C635.439 296.864 635.163 296.78 634.867 296.78C634.555 296.78 634.303 296.852 634.111 296.996C633.919 297.14 633.823 297.328 633.823 297.56C633.823 297.832 633.939 298.028 634.171 298.148C634.411 298.268 634.699 298.348 635.035 298.388C635.379 298.42 635.719 298.476 636.055 298.556C636.399 298.636 636.687 298.816 636.919 299.096C637.159 299.376 637.279 299.772 637.279 300.284C637.279 300.836 637.071 301.276 636.655 301.604C636.247 301.932 635.699 302.096 635.011 302.096ZM639.102 294.056H640.266V295.952H642.054V296.96H640.266V299.984C640.266 300.304 640.346 300.552 640.506 300.728C640.674 300.904 640.906 300.992 641.202 300.992H642.054V302H641.106C640.49 302 640.002 301.824 639.642 301.472C639.282 301.12 639.102 300.636 639.102 300.02V296.96H637.866V295.952H639.102V294.056ZM648.74 299.216C647.876 299.216 647.168 298.948 646.616 298.412C646.064 297.868 645.788 297.184 645.788 296.36C645.788 295.536 646.076 294.856 646.652 294.32C647.236 293.776 647.964 293.504 648.836 293.504C649.82 293.504 650.596 293.864 651.164 294.584C651.732 295.304 652.016 296.248 652.016 297.416C652.016 298.912 651.708 300.068 651.092 300.884C650.484 301.7 649.684 302.108 648.692 302.108C647.892 302.108 647.22 301.896 646.676 301.472C646.14 301.04 645.82 300.484 645.716 299.804H646.928C647.016 300.18 647.212 300.48 647.516 300.704C647.82 300.92 648.204 301.028 648.668 301.028C649.284 301.028 649.788 300.744 650.18 300.176C650.58 299.608 650.8 298.888 650.84 298.016C650.664 298.368 650.376 298.656 649.976 298.88C649.584 299.104 649.172 299.216 648.74 299.216ZM650.096 295.1C649.768 294.772 649.344 294.608 648.824 294.608C648.304 294.608 647.88 294.772 647.552 295.1C647.224 295.428 647.06 295.852 647.06 296.372C647.06 296.884 647.224 297.304 647.552 297.632C647.88 297.952 648.304 298.112 648.824 298.112C649.344 298.112 649.768 297.952 650.096 297.632C650.432 297.304 650.6 296.884 650.6 296.372C650.6 295.852 650.432 295.428 650.096 295.1ZM654.114 294.056H655.278V295.952H657.066V296.96H655.278V299.984C655.278 300.304 655.358 300.552 655.518 300.728C655.686 300.904 655.918 300.992 656.214 300.992H657.066V302H656.118C655.502 302 655.014 301.824 654.654 301.472C654.294 301.12 654.114 300.636 654.114 300.02V296.96H652.878V295.952H654.114V294.056ZM658.271 302V293.42H659.435V297.02C659.595 296.644 659.843 296.356 660.179 296.156C660.523 295.956 660.923 295.856 661.379 295.856C662.059 295.856 662.603 296.08 663.011 296.528C663.427 296.976 663.635 297.56 663.635 298.28V302H662.471V298.508C662.471 298.028 662.339 297.64 662.075 297.344C661.819 297.048 661.479 296.9 661.055 296.9C660.583 296.9 660.195 297.072 659.891 297.416C659.587 297.76 659.435 298.196 659.435 298.724V302H658.271Z" fill="white"/>
<path d="M62 267.464H708" stroke="white" stroke-opacity="0.2"/>
<path d="M62 238.227H708" stroke="white" stroke-opacity="0.2"/>
<path d="M62 208.293H708" stroke="white" stroke-opacity="0.2"/>
<path d="M62 179.056H708" stroke="white" stroke-opacity="0.2"/>
<path d="M62 149.123H708" stroke="white" stroke-opacity="0.2"/>
<path d="M62 119.886H708" stroke="white" stroke-opacity="0.2"/>
<path d="M62 89.9521H708" stroke="white" stroke-opacity="0.2"/>
<path d="M62 60.7148H708" stroke="white" stroke-opacity="0.2"/>
<path d="M62 30.7812H708" stroke="white" stroke-opacity="0.2"/>
<path d="M85.2871 0.5V287.652" stroke="white" stroke-opacity="0.2"/>
<path d="M185 0.5V287.652" stroke="white" stroke-opacity="0.2"/>
<path d="M135 0.5V287.652" stroke="white" stroke-opacity="0.2"/>
<path d="M235 0.5V287.652" stroke="white" stroke-opacity="0.2"/>
<path d="M285 0.5V287.652" stroke="white" stroke-opacity="0.2"/>
<path d="M335 0.5V287.652" stroke="white" stroke-opacity="0.2"/>
<path d="M385 0.5V287.652" stroke="white" stroke-opacity="0.2"/>
<path d="M435 0.5V287.652" stroke="white" stroke-opacity="0.2"/>
<path d="M485 0.5V287.652" stroke="white" stroke-opacity="0.2"/>
<path d="M535 0.5V287.652" stroke="white" stroke-opacity="0.2"/>
<path d="M585 0.5V287.652" stroke="white" stroke-opacity="0.2"/>
<path d="M635 0.5V287.652" stroke="white" stroke-opacity="0.2"/>
<path d="M685 0.5V287.652" stroke="white" stroke-opacity="0.2"/>
</svg>
