<svg width="194" height="25" viewBox="0 0 194 25" fill="none" xmlns="http://www.w3.org/2000/svg">
<g>
<path d="M36.21 0H0V24.22H36.21V0Z" fill="#003BFF"/>
<path d="M18.4902 3.43996H19.7502L18.7402 4.22996L19.1302 5.48996L18.1202 4.70996L17.1102 5.48996L17.5102 4.22996L16.4902 3.43996H17.7402L18.1202 2.20996L18.4902 3.43996Z" fill="#FFED00"/>
<path d="M18.5403 19.59H19.8003L18.7803 20.36L19.1803 21.56L18.1703 20.82L17.1603 21.56L17.5603 20.36L16.5303 19.59H17.7903L18.1703 18.42L18.5403 19.59Z" fill="#FFED00"/>
<path d="M22.5403 18.52H23.8003L22.7903 19.29L23.1803 20.49L22.1603 19.75L21.1503 20.49L21.5503 19.29L20.5303 18.52H21.7903L22.1603 17.35L22.5403 18.52Z" fill="#FFED00"/>
<path d="M22.5403 4.51997H23.8003L22.7903 5.27997L23.1803 6.47997L22.1603 5.73997L21.1503 6.47997L21.5503 5.27997L20.5303 4.51997H21.7903L22.1603 3.33997L22.5403 4.51997Z" fill="#FFED00"/>
<path d="M25.5002 7.48006H26.7602L25.7502 8.24006L26.1402 9.45006L25.1302 8.71006L24.1202 9.45006L24.5202 8.24006L23.4902 7.48006H24.7502L25.1302 6.31006L25.5002 7.48006Z" fill="#FFED00"/>
<path d="M25.5002 15.6H26.7602L25.7502 16.36L26.1402 17.57L25.1302 16.82L24.1202 17.57L24.5202 16.36L23.4902 15.6H24.7502L25.1302 14.42L25.5002 15.6Z" fill="#FFED00"/>
<path d="M26.6204 11.48H27.8804L26.8604 12.24L27.2504 13.45L26.2404 12.7L25.2304 13.45L25.6304 12.24L24.6104 11.48H25.8604L26.2404 10.3L26.6204 11.48Z" fill="#FFED00"/>
<path d="M14.4202 4.52998H15.6802L14.6702 5.28998L15.0602 6.49998L14.0502 5.75998L13.0402 6.49998L13.4302 5.28998L12.4102 4.52998H13.6702L14.0502 3.34998L14.4202 4.52998Z" fill="#FFED00"/>
<path d="M11.5403 7.48995H12.8003L11.7803 8.24995L12.1803 9.45995L11.1603 8.71995L10.1503 9.45995L10.5503 8.24995L9.53027 7.48995H10.7903L11.1603 6.31995L11.5403 7.48995Z" fill="#FFED00"/>
<path d="M10.47 11.4901H11.73L10.71 12.2501L11.1 13.4601L10.1 12.7201L9.07996 13.4601L9.47996 12.2501L8.45996 11.4901H9.70996L10.1 10.3101L10.47 11.4901Z" fill="#FFED00"/>
<path d="M11.5403 15.6101H12.8003L11.7803 16.3701L12.1803 17.5801L11.1603 16.8301L10.1503 17.5801L10.5503 16.3701L9.53027 15.6101H10.7903L11.1603 14.4301L11.5403 15.6101Z" fill="#FFED00"/>
<path d="M14.4602 18.53H15.7202L14.7102 19.29L15.1002 20.5L14.0902 19.76L13.0802 20.5L13.4802 19.29L12.4502 18.53H13.7102L14.0902 17.36L14.4602 18.53Z" fill="#FFED00"/>
<path d="M43.65 18.7899C43.3 18.7899 43.21 18.6199 43.21 18.3699V6.48995C43.21 6.23995 43.31 6.06995 43.63 6.06995H47.81C52.25 6.06995 53.44 9.01995 53.44 12.3899C53.44 15.7599 52.31 18.7899 47.81 18.7899H43.65ZM47.6 8.61995H46.24V16.2499H47.47C49.19 16.2499 50.29 15.2499 50.29 12.5299C50.29 9.80995 49.45 8.61995 47.61 8.61995" fill="white"/>
<path d="M58.1297 14.75C58.2097 16.22 58.9196 16.53 60.1996 16.53C60.7896 16.53 61.6696 16.43 62.4596 16.34C62.9596 16.28 63.0196 16.28 63.1096 16.76L63.2596 17.66C63.3396 18.1 63.3396 18.29 62.7596 18.52C61.9896 18.79 60.5896 18.96 59.6796 18.96C55.8296 18.96 55.1396 16.66 55.1396 14.13C55.1396 12.29 55.4896 9.15002 59.5096 9.15002C63.1696 9.15002 63.8396 11.47 63.8596 13.52C63.8596 14.31 63.6297 14.75 62.8097 14.75H58.1297ZM58.1696 13.02H60.8297C60.8297 12.1 60.4996 11.39 59.5096 11.39C58.6096 11.39 58.2296 11.96 58.1696 13.02Z" fill="white"/>
<path d="M68.7704 18.96C67.8504 18.96 66.5304 18.79 65.7604 18.54C65.1304 18.31 64.9904 18.12 65.1104 17.62L65.3204 16.7C65.4004 16.34 65.5104 16.3 65.9304 16.38C66.8104 16.53 68.0204 16.63 68.6704 16.63C69.6504 16.63 70.0104 16.42 70.0104 15.92C70.0104 15.36 69.7404 15.23 68.9404 15.13C66.8704 14.84 65.1704 14.46 65.1704 12.22C65.1704 10.19 66.8204 9.15002 69.0804 9.15002C69.9404 9.15002 71.2504 9.28002 72.0504 9.57002C72.5704 9.74002 72.8204 9.88003 72.7004 10.35L72.4904 11.33C72.3904 11.69 72.3404 11.73 71.9104 11.68C71.0504 11.57 69.7804 11.45 69.1904 11.45C68.2104 11.43 68.1004 11.7 68.1004 12.1C68.1004 12.58 68.6004 12.66 69.2904 12.77C71.2604 13.02 73.0104 13.4 73.0104 15.8C73.0104 18.2 70.9604 18.96 68.7804 18.96" fill="white"/>
<path d="M81.2102 17.93C81.2902 18.22 81.1102 18.47 80.8602 18.54C79.9402 18.85 78.6802 18.94 78.0602 18.94C75.6502 18.94 75.2302 17.46 75.2302 15.89V11.62H74.3902C74.0802 11.62 73.9902 11.49 73.9902 11.2V9.75997C73.9902 9.46997 74.0902 9.33997 74.3902 9.33997H75.2502V7.45997C75.2502 7.14997 75.4202 7.03997 75.6702 6.95997L77.6102 6.43997C77.8802 6.33997 78.0902 6.45997 78.0902 6.76997V9.33997H80.0402C80.3902 9.33997 80.4402 9.47997 80.4402 9.73997V11.2C80.4402 11.49 80.3802 11.62 80.0402 11.62H78.0702L78.0902 15.18C78.0902 15.91 78.1502 16.19 79.2602 16.21C79.5702 16.21 80.1002 16.17 80.5802 16.13C80.8302 16.13 80.9802 16.09 81.0402 16.53L81.2102 17.91V17.93Z" fill="white"/>
<path d="M83.8298 8.27003C82.4898 8.27003 82.2998 7.52003 82.2998 6.83003C82.2998 6.04003 82.6098 5.41003 83.8298 5.41003C85.0498 5.41003 85.3398 6.00003 85.3398 6.83003C85.3398 7.56003 85.1098 8.27003 83.8298 8.27003ZM85.2498 18.37C85.2498 18.56 85.1898 18.79 84.8698 18.79H82.7598C82.4398 18.79 82.3398 18.62 82.3398 18.37V9.75003C82.3398 9.48003 82.4398 9.33003 82.7598 9.33003H84.8698C85.1998 9.33003 85.2498 9.58003 85.2498 9.75003V18.37Z" fill="white"/>
<path d="M95.6604 18.7899H93.5504C93.2404 18.7899 93.1304 18.6399 93.1304 18.3899C93.1304 16.6999 93.1504 15.0399 93.1504 13.3699C93.1504 12.3199 92.8004 11.8999 91.9804 11.8999C91.3704 11.8999 90.5604 12.2999 90.1004 12.4599V18.3999C90.1004 18.5899 90.0404 18.7999 89.7004 18.7999H87.6104C87.2804 18.7999 87.1904 18.6499 87.1904 18.3999V9.77994C87.1904 9.52994 87.2904 9.35994 87.6104 9.35994H89.7004C90.0504 9.35994 90.1004 9.58994 90.1004 9.77994V10.2399C90.1004 10.2399 90.1404 10.2599 90.1604 10.2599C91.0004 9.62994 92.2504 9.18994 93.1704 9.18994C95.8904 9.18994 96.0604 11.1799 96.0604 12.9699V18.4099C96.0604 18.5999 96.0004 18.8099 95.6604 18.8099" fill="white"/>
<path d="M103.65 17.64C102.65 18.58 101.18 18.94 100.22 18.94C97.9799 18.94 97.5399 17.58 97.5399 16.12C97.4999 13.76 98.9599 12.94 101.22 12.94H103.42V12.63C103.42 11.82 103.15 11.5 101.73 11.5C101.17 11.5 99.9699 11.6 99.2199 11.67C98.6799 11.73 98.5899 11.73 98.4899 11.34L98.2799 10.34C98.2199 10.01 98.2999 9.82 98.8899 9.59C99.7499 9.26 101.3 9.13 102.19 9.13C105.79 9.13 106.29 10.47 106.29 12.75V15.78C106.29 16.58 106.4 16.62 107 16.7C107.33 16.72 107.4 16.8 107.4 17.03V18.26C107.4 18.55 107.21 18.68 106.84 18.76C106.46 18.86 106.05 18.89 105.65 18.89C104.71 18.89 103.93 18.66 103.68 17.64L103.64 17.62L103.65 17.64ZM103.36 14.8H101.63C100.92 14.8 100.48 15.07 100.48 15.97C100.48 16.56 100.69 16.76 101.34 16.76C101.93 16.76 102.81 16.41 103.35 16.09V14.81L103.36 14.8Z" fill="white"/>
<path d="M115.26 17.93C115.34 18.22 115.16 18.47 114.91 18.54C113.99 18.85 112.73 18.94 112.11 18.94C109.7 18.94 109.28 17.46 109.28 15.89V11.62H108.44C108.13 11.62 108.04 11.49 108.04 11.2V9.75997C108.04 9.46997 108.14 9.33997 108.44 9.33997H109.3V7.45997C109.3 7.14997 109.47 7.03997 109.72 6.95997L111.65 6.43997C111.92 6.33997 112.13 6.45997 112.13 6.76997V9.33997H114.08C114.43 9.33997 114.48 9.47997 114.48 9.73997V11.2C114.48 11.49 114.42 11.62 114.08 11.62H112.11L112.13 15.18C112.13 15.91 112.19 16.19 113.3 16.21C113.61 16.21 114.14 16.17 114.62 16.13C114.87 16.13 115.02 16.09 115.08 16.53L115.25 17.91L115.26 17.93Z" fill="white"/>
<path d="M117.89 8.27003C116.55 8.27003 116.36 7.52003 116.36 6.83003C116.36 6.04003 116.67 5.41003 117.89 5.41003C119.11 5.41003 119.4 6.00003 119.4 6.83003C119.4 7.56003 119.17 8.27003 117.89 8.27003ZM119.31 18.37C119.31 18.56 119.25 18.79 118.93 18.79H116.82C116.5 18.79 116.4 18.62 116.4 18.37V9.75003C116.4 9.48003 116.5 9.33003 116.82 9.33003H118.93C119.26 9.33003 119.31 9.58003 119.31 9.75003V18.37Z" fill="white"/>
<path d="M125.53 18.94C121.41 18.94 121.14 16.01 121.14 13.92C121.14 12.18 121.6 9.15002 125.53 9.15002C129.46 9.15002 130.07 11.7 130.07 13.92C130.07 16.01 129.74 18.94 125.53 18.94ZM125.57 11.64C124.4 11.64 124.09 12.48 124.09 14.04C124.09 15.71 124.38 16.45 125.53 16.45C126.81 16.45 127.08 15.66 127.08 14.04C127.08 12.42 126.85 11.64 125.57 11.64Z" fill="white"/>
<path d="M140.04 18.7899H137.93C137.62 18.7899 137.51 18.6399 137.51 18.3899C137.51 16.6999 137.53 15.0399 137.53 13.3699C137.53 12.3199 137.18 11.8999 136.36 11.8999C135.75 11.8999 134.94 12.2999 134.48 12.4599V18.3999C134.48 18.5899 134.42 18.7999 134.08 18.7999H131.99C131.66 18.7999 131.57 18.6499 131.57 18.3999V9.77994C131.57 9.52994 131.67 9.35994 131.99 9.35994H134.08C134.43 9.35994 134.48 9.58994 134.48 9.77994V10.2399C134.48 10.2399 134.52 10.2599 134.54 10.2599C135.38 9.62994 136.63 9.18994 137.55 9.18994C140.27 9.18994 140.44 11.1799 140.44 12.9699V18.4099C140.44 18.5999 140.38 18.8099 140.04 18.8099" fill="white"/>
<path d="M147.91 6.49005C147.91 6.24005 148.01 6.05005 148.33 6.05005H155.94C156.19 6.05005 156.34 6.22005 156.34 6.47005V8.21005C156.34 8.44005 156.24 8.61005 155.92 8.61005H150.96V10.93H155.29C155.56 10.93 155.73 11.08 155.73 11.33V13.07C155.73 13.3 155.64 13.47 155.29 13.47H150.96V16.23H156.02C156.29 16.23 156.44 16.4 156.44 16.65V18.39C156.44 18.62 156.34 18.77 156.02 18.77H148.34C148.01 18.77 147.92 18.6 147.92 18.37V6.49005H147.91Z" fill="white"/>
<path d="M163.97 17.64C162.97 18.58 161.5 18.94 160.54 18.94C158.3 18.94 157.86 17.58 157.86 16.12C157.82 13.76 159.28 12.94 161.54 12.94H163.74V12.63C163.74 11.82 163.47 11.5 162.05 11.5C161.49 11.5 160.29 11.6 159.54 11.67C159 11.73 158.91 11.73 158.81 11.34L158.6 10.34C158.54 10.01 158.62 9.82 159.21 9.59C160.07 9.26 161.62 9.13 162.51 9.13C166.11 9.13 166.61 10.47 166.61 12.75V15.78C166.61 16.58 166.72 16.62 167.32 16.7C167.65 16.72 167.72 16.8 167.72 17.03V18.26C167.72 18.55 167.53 18.68 167.16 18.76C166.78 18.86 166.37 18.89 165.97 18.89C165.03 18.89 164.25 18.66 164 17.64L163.96 17.62L163.97 17.64ZM163.68 14.8H161.95C161.24 14.8 160.8 15.07 160.8 15.97C160.8 16.56 161.01 16.76 161.66 16.76C162.25 16.76 163.13 16.41 163.67 16.09V14.81L163.68 14.8Z" fill="white"/>
<path d="M172.04 10.6601L172.08 10.7001C172.77 9.99006 174.05 9.36006 174.86 9.23006C175.26 9.17006 175.43 9.19006 175.49 9.67006L175.72 11.5501C175.76 11.8901 175.76 12.0101 175.18 12.1201C174.05 12.3301 172.96 12.6201 172.04 12.9401V18.3601C172.04 18.5501 171.98 18.7801 171.64 18.7801H169.53C169.2 18.7801 169.11 18.6101 169.11 18.3601V9.74006C169.11 9.49006 169.21 9.32006 169.53 9.32006H171.62C171.98 9.32006 172.04 9.57006 172.04 9.74006V10.6601Z" fill="white"/>
<path d="M183.27 17.93C183.35 18.22 183.17 18.47 182.92 18.54C182 18.85 180.74 18.94 180.12 18.94C177.71 18.94 177.29 17.46 177.29 15.89V11.62H176.45C176.14 11.62 176.05 11.49 176.05 11.2V9.75997C176.05 9.46997 176.15 9.33997 176.45 9.33997H177.31V7.45997C177.31 7.14997 177.48 7.03997 177.73 6.95997L179.66 6.43997C179.93 6.33997 180.14 6.45997 180.14 6.76997V9.33997H182.09C182.44 9.33997 182.49 9.47997 182.49 9.73997V11.2C182.49 11.49 182.43 11.62 182.09 11.62H180.12L180.14 15.18C180.14 15.91 180.2 16.19 181.31 16.21C181.62 16.21 182.15 16.17 182.63 16.13C182.88 16.13 183.03 16.09 183.09 16.53L183.26 17.91L183.27 17.93Z" fill="white"/>
<path d="M193.02 18.37C193.02 18.56 192.96 18.79 192.62 18.79H190.51C190.2 18.79 190.09 18.62 190.09 18.37C190.09 17.55 190.11 14.04 190.11 13.22C190.11 12.19 189.75 11.78 188.94 11.78C188.36 11.78 187.5 12.14 187.06 12.34V18.38C187.06 18.57 187 18.8 186.66 18.8H184.55C184.24 18.8 184.15 18.63 184.15 18.38V5.68001C184.15 5.43001 184.25 5.26001 184.55 5.26001H186.68C187.02 5.26001 187.08 5.49001 187.08 5.68001V10.01C187.87 9.57001 188.98 9.15001 189.93 9.15001C192.8 9.15001 193.02 11.14 193.02 12.92V18.36V18.37Z" fill="white"/>
</g>
<defs>
</defs>
</svg>
