<svg width="96" height="45" viewBox="0 0 96 45" fill="none" xmlns="http://www.w3.org/2000/svg">
<path d="M0.604892 14.8267L1.60045 13.8667L2.596 14.8622L1.60045 15.8578L0.604892 14.8267ZM2.41822 12.9778L3.41378 11.9822L4.40934 12.9778L3.41378 13.9734L2.41822 12.9778ZM2.45378 16.6756L3.44934 15.68L4.44489 16.6756L3.44934 17.6711L2.45378 16.6756ZM4.26711 14.8267L5.26267 13.8311L6.25822 14.8267L5.26267 15.8222L4.26711 14.8267ZM4.26711 11.1289L5.26267 10.1334L6.25822 11.1289L5.26267 12.0889L4.26711 11.1289ZM6.15156 9.24447L7.14711 8.24892L8.14267 9.24447L7.11156 10.24L6.15156 9.24447ZM6.116 12.9778L7.11156 11.9822L8.10711 12.9778L7.11156 13.9378L6.116 12.9778ZM7.96489 11.1289L8.96045 10.1334L9.956 11.1289L8.96045 12.0889L7.96489 11.1289ZM8.00045 7.39558L8.996 6.40003L9.99156 7.39558L8.996 8.39114L8.00045 7.39558ZM9.84934 5.54669L10.8449 4.55114L11.8404 5.54669L10.8449 6.54225L9.84934 5.54669ZM9.84934 9.24447L10.8449 8.24892L11.8404 9.24447L10.8449 10.24L9.84934 9.24447ZM11.6982 7.39558L12.6938 6.40003L13.6893 7.39558L12.6938 8.39114L11.6982 7.39558ZM11.7338 3.6978L12.7293 2.70225L13.7249 3.6978L12.7293 4.69336L11.7338 3.6978ZM13.5827 1.84892L14.5782 0.888916L15.5738 1.88447L14.5782 2.84447L13.5827 1.84892ZM13.5827 5.54669L14.5782 4.55114L15.5738 5.54669L14.5782 6.54225L13.5827 5.54669ZM15.4316 3.6978L16.4271 2.70225L17.4227 3.6978L16.4271 4.69336L15.4316 3.6978ZM15.4316 7.39558L16.4271 6.40003L17.4227 7.39558L16.4271 8.39114L15.4316 7.39558ZM17.2804 5.54669L18.276 4.55114L19.2716 5.54669L18.276 6.54225L17.2804 5.54669ZM17.2804 9.24447L18.276 8.24892L19.2716 9.24447L18.276 10.24L17.2804 9.24447ZM19.1293 7.39558L20.1249 6.40003L21.1204 7.39558L20.1249 8.39114L19.1293 7.39558ZM19.1293 11.0934L20.1249 10.0978L21.1204 11.0934L20.1249 12.0889L19.1293 11.0934ZM20.9782 9.24447L21.9738 8.24892L22.9693 9.24447L21.9738 10.24L20.9782 9.24447ZM20.9427 12.9778L21.9382 11.9822L22.9338 12.9778L21.9382 13.9734L20.9427 12.9778ZM22.8271 11.0934L23.8227 10.0978L24.8182 11.0934L23.8227 12.0889L22.8271 11.0934ZM22.7916 14.8267L23.7871 13.8311L24.7827 14.8267L23.7871 15.8222L22.7916 14.8267ZM24.676 12.9422L25.6716 11.9467L26.6671 12.9422L25.6716 13.9378L24.676 12.9422ZM24.6404 16.6756L25.636 15.68L26.6316 16.6756L25.636 17.6711L24.6404 16.6756ZM26.5249 14.7911L27.5204 13.7956L28.516 14.7911L27.5204 15.7867L26.5249 14.7911ZM0.569336 22.2222L3.37822 19.4134L6.18711 22.2222L3.37822 25.0311L0.569336 22.2222ZM4.26711 18.5245L7.076 15.7156L9.88489 18.5245L7.11156 21.3334L4.26711 18.5245ZM22.8271 22.2222L25.636 19.4134L28.4449 22.2222L25.636 25.0311L22.8271 22.2222ZM19.1293 18.5245L21.9382 15.7156L24.7471 18.5245L21.9382 21.3334L19.1293 18.5245ZM7.96489 14.8267L10.7738 12.0178L13.5827 14.8267L10.7738 17.6356L7.96489 14.8267ZM15.396 14.7911L18.2049 11.9822L21.0138 14.7911L18.2049 17.6L15.396 14.7911ZM11.6982 11.0934L14.5071 8.28447L17.316 11.0934L14.5071 13.9022L11.6982 11.0934ZM0.569336 29.6534L7.11156 23.1111L13.6182 29.6178L7.076 36.16L0.569336 29.6534ZM7.92934 37.0489L14.4716 30.5067L20.9782 37.0489L14.436 43.5911L7.92934 37.0489ZM7.96489 22.2222L14.5071 15.68L21.0138 22.1867L14.5071 28.7289L7.96489 22.2222ZM15.4316 29.6534L21.9382 23.1111L28.4449 29.6178L21.9027 36.16L15.4316 29.6534Z" fill="#007DFF"/>
<g opacity="0.6">
<path d="M1.59086 13.8689L0.610352 14.8494L1.59086 15.8299L2.57138 14.8494L1.59086 13.8689Z" fill="white"/>
<path d="M3.3936 11.9856L2.41309 12.9661L3.3936 13.9466L4.37411 12.9661L3.3936 11.9856Z" fill="white"/>
<path d="M3.4395 15.7175L2.45898 16.698L3.4395 17.6785L4.42001 16.698L3.4395 15.7175Z" fill="white"/>
<path d="M5.24125 13.8342L4.26074 14.8147L5.24125 15.7952L6.22177 14.8147L5.24125 13.8342Z" fill="white"/>
<path d="M5.2393 10.1369L4.25879 11.1174L5.2393 12.0979L6.21981 11.1174L5.2393 10.1369Z" fill="white"/>
<path d="M7.13579 8.27584L6.15527 9.25635L7.13579 10.2369L8.1163 9.25635L7.13579 8.27584Z" fill="white"/>
<path d="M7.08793 11.9856L6.10742 12.9661L7.08793 13.9466L8.06845 12.9661L7.08793 11.9856Z" fill="white"/>
<path d="M8.93559 10.1369L7.95508 11.1174L8.93559 12.0979L9.9161 11.1174L8.93559 10.1369Z" fill="white"/>
<path d="M8.98247 6.4272L8.00195 7.40771L8.98246 8.38823L9.96298 7.40771L8.98247 6.4272Z" fill="white"/>
<path d="M10.8301 4.57857L9.84961 5.55908L10.8301 6.53959L11.8106 5.55908L10.8301 4.57857Z" fill="white"/>
<path d="M10.8311 8.27584L9.85059 9.25635L10.8311 10.2369L11.8116 9.25635L10.8311 8.27584Z" fill="white"/>
<path d="M12.6768 6.4272L11.6963 7.40771L12.6768 8.38823L13.6573 7.40772L12.6768 6.4272Z" fill="white"/>
<path d="M5.28813 17.5647L4.30762 18.5452L5.28813 19.5257L6.26864 18.5452L5.28813 17.5647Z" fill="white"/>
<path d="M7.09086 15.6814L6.11035 16.6619L7.09086 17.6424L8.07137 16.6619L7.09086 15.6814Z" fill="white"/>
<path d="M7.13676 19.4133L6.15625 20.3938L7.13676 21.3743L8.11727 20.3938L7.13676 19.4133Z" fill="white"/>
<path d="M8.98247 17.5647L8.00195 18.5452L8.98246 19.5257L9.96298 18.5452L8.98247 17.5647Z" fill="white"/>
<path d="M8.93657 13.8342L7.95605 14.8147L8.93657 15.7952L9.91708 14.8147L8.93657 13.8342Z" fill="white"/>
<path d="M10.7823 11.9868L9.80176 12.9673L10.7823 13.9478L11.7628 12.9673L10.7823 11.9868Z" fill="white"/>
<path d="M10.7852 15.6814L9.80469 16.6619L10.7852 17.6424L11.7657 16.6619L10.7852 15.6814Z" fill="white"/>
<path d="M12.6329 13.8342L11.6523 14.8147L12.6329 15.7952L13.6134 14.8147L12.6329 13.8342Z" fill="white"/>
<path d="M12.6797 10.123L11.6992 11.1035L12.6797 12.084L13.6602 11.1035L12.6797 10.123Z" fill="white"/>
<path d="M14.5274 8.29659L13.5469 9.2771L14.5274 10.2576L15.5079 9.2771L14.5274 8.29659Z" fill="white"/>
<path d="M14.5284 11.9716L13.5479 12.9521L14.5284 13.9327L15.5089 12.9521L14.5284 11.9716Z" fill="white"/>
<path d="M16.3741 10.1452L15.3936 11.1257L16.3741 12.1062L17.3546 11.1257L16.3741 10.1452Z" fill="white"/>
<path d="M8.9854 21.2619L8.00488 22.2424L8.9854 23.2229L9.96591 22.2424L8.9854 21.2619Z" fill="white"/>
<path d="M10.8321 19.4148L9.85156 20.3953L10.8321 21.3758L11.8126 20.3953L10.8321 19.4148Z" fill="white"/>
<path d="M10.834 23.1091L9.85352 24.0896L10.834 25.0701L11.8145 24.0896L10.834 23.1091Z" fill="white"/>
<path d="M12.6797 21.2619L11.6992 22.2424L12.6797 23.2229L13.6602 22.2424L12.6797 21.2619Z" fill="white"/>
<path d="M12.6338 17.53L11.6533 18.5105L12.6338 19.491L13.6143 18.5105L12.6338 17.53Z" fill="white"/>
<path d="M14.4795 15.6828L13.499 16.6633L14.4795 17.6438L15.46 16.6633L14.4795 15.6828Z" fill="white"/>
<path d="M14.4825 19.3786L13.502 20.3591L14.4825 21.3396L15.463 20.3591L14.4825 19.3786Z" fill="white"/>
<path d="M16.3301 17.5312L15.3496 18.5117L16.3301 19.4922L17.3106 18.5117L16.3301 17.5312Z" fill="white"/>
<path d="M16.377 13.8203L15.3965 14.8008L16.377 15.7813L17.3575 14.8008L16.377 13.8203Z" fill="white"/>
<path d="M18.2247 11.9924L17.2441 12.9729L18.2247 13.9534L19.2052 12.9729L18.2247 11.9924Z" fill="white"/>
<path d="M18.2256 15.6897L17.2451 16.6702L18.2256 17.6507L19.2061 16.6702L18.2256 15.6897Z" fill="white"/>
<path d="M20.0713 13.841L19.0908 14.8215L20.0713 15.802L21.0518 14.8215L20.0713 13.841Z" fill="white"/>
<path d="M12.6827 24.9577L11.7021 25.9382L12.6827 26.9187L13.6632 25.9382L12.6827 24.9577Z" fill="white"/>
<path d="M14.5293 23.1091L13.5488 24.0896L14.5293 25.0701L15.5098 24.0896L14.5293 23.1091Z" fill="white"/>
<path d="M14.5313 26.8064L13.5508 27.7869L14.5313 28.7674L15.5118 27.7869L14.5313 26.8064Z" fill="white"/>
<path d="M16.377 24.9592L15.3965 25.9397L16.377 26.9202L17.3575 25.9397L16.377 24.9592Z" fill="white"/>
<path d="M16.3311 21.2258L15.3506 22.2063L16.3311 23.1868L17.3116 22.2063L16.3311 21.2258Z" fill="white"/>
<path d="M18.1768 19.3786L17.1963 20.3591L18.1768 21.3396L19.1573 20.3591L18.1768 19.3786Z" fill="white"/>
<path d="M18.2247 23.1106L17.2441 24.0911L18.2247 25.0716L19.2052 24.0911L18.2247 23.1106Z" fill="white"/>
<path d="M20.0274 21.2273L19.0469 22.2078L20.0274 23.1883L21.0079 22.2078L20.0274 21.2273Z" fill="white"/>
<path d="M20.0743 17.5368L19.0938 18.5173L20.0743 19.4978L21.0548 18.5173L20.0743 17.5368Z" fill="white"/>
<path d="M21.9209 15.6897L20.9404 16.6702L21.9209 17.6507L22.9015 16.6702L21.9209 15.6897Z" fill="white"/>
<path d="M21.9229 19.3855L20.9424 20.366L21.9229 21.3465L22.9034 20.366L21.9229 19.3855Z" fill="white"/>
<path d="M23.7686 17.5368L22.7881 18.5173L23.7686 19.4978L24.7491 18.5173L23.7686 17.5368Z" fill="white"/>
<path d="M12.7256 2.73677L11.7451 3.71729L12.7256 4.6978L13.7061 3.71728L12.7256 2.73677Z" fill="white"/>
<path d="M14.5713 0.889605L13.5908 1.87012L14.5713 2.85063L15.5518 1.87012L14.5713 0.889605Z" fill="white"/>
<path d="M14.5743 4.58541L13.5938 5.56592L14.5743 6.54643L15.5548 5.56592L14.5743 4.58541Z" fill="white"/>
<path d="M16.4209 2.73677L15.4404 3.71729L16.4209 4.6978L17.4015 3.71729L16.4209 2.73677Z" fill="white"/>
<path d="M16.4229 6.43404L15.4424 7.41455L16.4229 8.39506L17.4034 7.41455L16.4229 6.43404Z" fill="white"/>
<path d="M18.2686 4.58687L17.2881 5.56738L18.2686 6.54789L19.2491 5.56738L18.2686 4.58687Z" fill="white"/>
<path d="M18.2715 8.28121L17.291 9.26172L18.2715 10.2422L19.252 9.26172L18.2715 8.28121Z" fill="white"/>
<path d="M20.1182 6.43404L19.1377 7.41455L20.1182 8.39506L21.0987 7.41455L20.1182 6.43404Z" fill="white"/>
<path d="M20.1202 10.1298L19.1396 11.1104L20.1202 12.0909L21.1007 11.1104L20.1202 10.1298Z" fill="white"/>
<path d="M21.9659 8.28267L20.9854 9.26318L21.9659 10.2437L22.9464 9.26318L21.9659 8.28267Z" fill="white"/>
<path d="M21.919 11.9924L20.9385 12.9729L21.919 13.9534L22.8995 12.9729L21.919 11.9924Z" fill="white"/>
<path d="M23.8155 10.1313L22.835 11.1118L23.8155 12.0923L24.796 11.1118L23.8155 10.1313Z" fill="white"/>
<path d="M23.7676 13.841L22.7871 14.8215L23.7676 15.802L24.7481 14.8215L23.7676 13.841Z" fill="white"/>
<path d="M25.6631 11.9785L24.6826 12.959L25.6631 13.9395L26.6436 12.959L25.6631 11.9785Z" fill="white"/>
<path d="M25.6163 15.6897L24.6357 16.6702L25.6163 17.6507L26.5968 16.6702L25.6163 15.6897Z" fill="white"/>
<path d="M27.5127 13.8271L26.5322 14.8076L27.5127 15.7881L28.4933 14.8076L27.5127 13.8271Z" fill="white"/>
</g>
<g opacity="0.6">
<path d="M3.36856 19.4093L0.552734 22.2251L3.36856 25.0409L6.18439 22.2251L3.36856 19.4093Z" fill="white"/>
<path d="M7.06583 23.1065L4.25 25.9224L7.06583 28.7382L9.88166 25.9224L7.06583 23.1065Z" fill="white"/>
<path d="M10.809 19.3956L7.99316 22.2114L10.809 25.0273L13.6248 22.2114L10.809 19.3956Z" fill="white"/>
<path d="M7.11173 15.6983L4.2959 18.5142L7.11173 21.33L9.92756 18.5142L7.11173 15.6983Z" fill="white"/>
<path d="M10.7631 26.8023L7.94727 29.6182L10.7631 32.434L13.5789 29.6182L10.7631 26.8023Z" fill="white"/>
<path d="M14.4604 30.4981L11.6445 33.314L14.4604 36.1298L17.2762 33.314L14.4604 30.4981Z" fill="white"/>
<path d="M18.2182 26.8385L15.4023 29.6543L18.2182 32.4701L21.034 29.6543L18.2182 26.8385Z" fill="white"/>
<path d="M14.5063 23.0914L11.6904 25.9072L14.5063 28.7231L17.3221 25.9072L14.5063 23.0914Z" fill="white"/>
<path d="M18.2494 19.401L15.4336 22.2168L18.2494 25.0326L21.0653 22.2168L18.2494 19.401Z" fill="white"/>
<path d="M21.8959 23.1122L19.0801 25.928L21.8959 28.7438L24.7117 25.928L21.8959 23.1122Z" fill="white"/>
<path d="M25.6391 19.4024L22.8232 22.2183L25.6391 25.0341L28.4549 22.2183L25.6391 19.4024Z" fill="white"/>
<path d="M21.9418 15.7066L19.126 18.5225L21.9418 21.3383L24.7576 18.5225L21.9418 15.7066Z" fill="white"/>
<path d="M10.8051 12.0038L7.98926 14.8196L10.8051 17.6354L13.6209 14.8196L10.8051 12.0038Z" fill="white"/>
<path d="M14.5522 15.7066L11.7363 18.5225L14.5522 21.3383L17.368 18.5225L14.5522 15.7066Z" fill="white"/>
<path d="M18.2006 11.9747L15.3848 14.7905L18.2006 17.6064L21.0164 14.7905L18.2006 11.9747Z" fill="white"/>
<path d="M14.5033 8.2789L11.6875 11.0947L14.5033 13.9106L17.3192 11.0947L14.5033 8.2789Z" fill="white"/>
</g>
<g opacity="0.6">
<path d="M7.12757 23.1034L0.59082 29.6401L7.10243 36.1517L13.6392 29.615L7.12757 23.1034Z" fill="white"/>
<path d="M14.4703 30.5104L7.93359 37.0471L14.4452 43.5587L20.9819 37.022L14.4703 30.5104Z" fill="white"/>
<path d="M14.5192 15.6813L7.98242 22.218L14.494 28.7296L21.0308 22.1929L14.5192 15.6813Z" fill="white"/>
<path d="M21.9576 23.1102L15.4209 29.647L21.9325 36.1586L28.4692 29.6218L21.9576 23.1102Z" fill="white"/>
</g>
<path d="M93.1203 27.4856L95.3959 25.9212C94.0092 24.1434 91.9114 23.2901 89.7426 23.2901C86.9692 23.2901 84.8715 25.1034 84.907 27.5567C84.907 29.7256 86.2581 31.1479 88.747 31.8945L90.027 32.2856C91.3426 32.6768 92.3381 33.139 92.3026 34.0279C92.267 34.9523 91.1292 35.5567 89.9559 35.5567C88.8181 35.5567 87.6803 34.9879 86.827 34.0634L84.5159 35.7701C85.867 37.3701 87.7514 38.2945 89.9559 38.2945C92.8359 38.2945 95.5026 36.5167 95.5026 33.9567C95.5026 31.7879 93.7603 30.3656 91.307 29.7256L89.8848 29.3345C88.6759 29.0145 88.1781 28.4812 88.1426 27.6279C88.1426 26.7034 88.8892 26.1345 90.027 26.1345C90.8803 26.099 92.1248 26.4901 93.1203 27.4856ZM78.9337 38.0456H82.0981V23.1123L76.267 29.2634C75.947 29.5479 75.4492 30.0101 75.1292 30.2945C74.8448 30.0456 74.3826 29.5834 73.9915 29.2634L68.1603 23.1123V38.0456H71.3248V30.7567C71.3248 30.3656 71.2892 30.3656 71.2537 30.1523L75.1292 33.9567L78.9337 30.1879C78.8981 30.3656 78.8626 30.3301 78.8626 30.6856V38.0456H78.9337ZM58.2403 32.1079H64.9603V29.4412H58.2403V26.4545H65.1737V23.539H55.0759V38.0456H65.2092V35.1301H58.2759V32.1079H58.2403ZM49.2448 27.6279L51.3781 25.6723C49.3514 24.0367 47.2537 23.3256 45.227 23.3256C40.4981 23.3256 37.0137 26.5256 37.0137 30.7923C37.0137 35.059 40.4981 38.259 45.227 38.259C47.6448 38.259 50.2403 37.1567 52.1248 35.2723L52.0892 29.4412H44.3737L44.3381 32.0723H48.8892V34.2767C47.6803 35.1301 46.4714 35.4145 45.1914 35.4145C42.3114 35.4145 40.2492 33.3879 40.2492 30.7567C40.2492 28.1612 42.347 26.1345 45.1914 26.1345C46.6492 26.1345 47.9648 26.6323 49.2448 27.6279Z" fill="white"/>
<path d="M89.7773 20.4809V19.0232C86.6484 19.3787 85.4395 18.3476 85.4395 15.2543V10.1698H89.7773V8.78317H85.4395V5.93872L83.8395 6.64983V8.78317H82.0973V10.1698H83.8395V15.2543C83.7684 19.4854 85.7239 20.9076 89.7773 20.4809ZM70.5773 20.6232L75.235 15.5743L79.8928 20.6232L81.1373 19.7343L76.3017 14.5787L81.2084 9.45872L79.8928 8.56983L75.235 13.5476L70.5417 8.53428L69.2617 9.42316L74.1328 14.5432L69.2617 19.7343L70.5773 20.6232ZM57.315 13.8676C57.4573 11.5921 59.3417 9.99205 61.9017 9.99205C64.5328 9.99205 66.3817 11.5565 66.5239 13.8676H57.315ZM62.0084 20.5876C64.1773 20.5876 66.0617 19.8409 67.6261 18.0632L66.3461 17.2454C64.995 18.7743 63.5373 19.1654 62.0439 19.1654C59.4839 19.1654 57.4573 17.4943 57.3506 15.1832H68.1595C68.4084 11.3432 65.7417 8.53428 61.9373 8.53428C58.275 8.53428 55.6795 11.1298 55.6795 14.5076C55.6439 17.9921 58.2039 20.5876 62.0084 20.5876ZM51.4128 20.4098H53.0484V14.3654C53.0484 10.6676 51.6261 8.60539 48.1773 8.60539C45.9728 8.60539 44.4795 9.81428 43.7684 11.2365V8.74761H42.1328V20.4098H43.7684V14.5432C43.7684 11.9476 45.1906 10.0276 47.8217 10.0276C50.4173 10.0276 51.4128 11.5565 51.4128 14.4365V20.4098Z" fill="white"/>
</svg>
