<svg width="75" height="18" viewBox="0 0 75 18" fill="none" xmlns="http://www.w3.org/2000/svg">
<rect width="75" height="18" fill="#F5F5F5"/>
<g id="VISUAL - Prototype">
<path d="M-1230 -9572H1258V-9592H-1230V-9572ZM1348 -9482V329H1368V-9482H1348ZM1258 419H-1230V439H1258V419ZM-1320 329V-9482H-1340V329H-1320ZM-1230 419C-1279.71 419 -1320 378.706 -1320 329H-1340C-1340 389.751 -1290.75 439 -1230 439V419ZM1348 329C1348 378.705 1307.71 419 1258 419V439C1318.75 439 1368 389.751 1368 329H1348ZM1258 -9572C1307.71 -9572 1348 -9531.71 1348 -9482H1368C1368 -9542.75 1318.75 -9592 1258 -9592V-9572ZM-1230 -9592C-1290.75 -9592 -1340 -9542.75 -1340 -9482H-1320C-1320 -9531.71 -1279.71 -9572 -1230 -9572V-9592Z" fill="#0041AC"/>
<g id="DTVC VISUAL">
<mask id="path-3-inside-1_752_7781" fill="white">
<path d="M-706 -8954H734V-25H-706V-8954Z"/>
</mask>
<path d="M-706 -8954H734V-25H-706V-8954Z" fill="white"/>
<path d="M-706 -8953H734V-8955H-706V-8953Z" fill="#383FFE" mask="url(#path-3-inside-1_752_7781)"/>
<g id="Content">
<g id="BLOCK2">
<g id="FOOTER">
<rect width="1440" height="562" transform="translate(-706 -511)" fill="#2B5A51"/>
<g id="Frame 2342006">
<mask id="path-5-inside-2_752_7781" fill="white">
<path d="M-706 -35H734V51H-706V-35Z"/>
</mask>
<path d="M-706 -35H734V51H-706V-35Z" fill="#2B5A51"/>
<path d="M-706 -34H734V-36H-706V-34Z" fill="white" fill-opacity="0.2" mask="url(#path-5-inside-2_752_7781)"/>
<g id="Frame 2342005">
<g id="Frame 2342002">
<g id="vizzuality. 2">
<path id="vizzuality." fill-rule="evenodd" clip-rule="evenodd" d="M10.9808 3.27793C10.2686 3.27793 9.69147 2.74009 9.69147 2.08001C9.69147 1.41382 10.2686 0.875977 10.9808 0.875977C11.6868 0.875977 12.264 1.41382 12.264 2.08001C12.264 2.74009 11.6868 3.27793 10.9808 3.27793ZM5.81418 13.9976L9.17252 4.60982H6.80879L4.63538 11.5834H4.53714L2.36987 4.60982H0L3.35835 13.9976H5.81418ZM9.86285 4.60982V13.9976H12.0854V4.60982H9.86285ZM13.4029 12.5919V13.9976H21.1449V12.1641H16.3561V12.0846L20.9853 6.11944V4.60982H13.5626V6.44337H18.2655V6.52282L13.4029 12.5919ZM22.2708 13.9976V12.5919L27.1333 6.52282V6.44337H22.4304V4.60982H29.8532V6.11944L25.2239 12.0846V12.1641H30.0128V13.9976H22.2708ZM37.2735 4.60982V10.0494C37.2735 11.4795 36.2482 12.1885 35.2658 12.1885C34.1976 12.1885 33.4854 11.4367 33.4854 10.2449V4.60982H31.2628V10.5872C31.2628 12.8425 32.5522 14.1198 34.4063 14.1198C35.8184 14.1198 36.813 13.3803 37.2428 12.3291H37.341V13.9976H39.496V4.60982H37.2735ZM43.6501 14.1871C41.8512 14.1871 40.4943 13.2092 40.4943 11.3634C40.4943 9.24872 42.2441 8.70477 44.0737 8.50919L44.3571 8.47928C45.8139 8.32626 46.4067 8.264 46.4067 7.66576V7.62909C46.4067 6.7062 45.8419 6.18058 44.8104 6.18058C43.7237 6.18058 43.0975 6.73065 42.8765 7.37239L40.8013 7.07902C41.2925 5.36771 42.8151 4.4876 44.7982 4.4876C46.597 4.4876 48.6292 5.23325 48.6292 7.71465V13.9976H46.4927V12.708H46.419C46.0138 13.4965 45.1297 14.1871 43.6501 14.1871ZM46.4117 10.6309C46.4117 11.6761 45.5644 12.5623 44.226 12.5623C43.2989 12.5623 42.6358 12.1406 42.6358 11.3277C42.6358 10.4781 43.3787 10.1236 44.3733 9.98307L44.4722 9.96967C45.0795 9.8876 46.1386 9.74445 46.4117 9.52468V10.6309ZM52.2483 1.48107V13.9981H50.0258V1.48107H52.2483ZM53.6872 4.60982V13.9976H55.9097V4.60982H53.6872ZM54.8044 3.27793C54.0922 3.27793 53.5151 2.74009 53.5151 2.08001C53.5151 1.41382 54.0922 0.875977 54.8044 0.875977C55.5104 0.875977 56.0875 1.41382 56.0875 2.08001C56.0875 2.74009 55.5104 3.27793 54.8044 3.27793ZM62.0581 6.32134V4.61003H60.1978V2.36087H57.9753V4.61003H56.6369V6.32134H57.9753V11.5409C57.963 13.3072 59.2523 14.1751 60.9223 14.1262C61.5547 14.1078 61.9906 13.9856 62.23 13.9061L61.8555 12.1765C61.7327 12.207 61.481 12.2621 61.2047 12.2621C60.646 12.2621 60.1978 12.0665 60.1978 11.1741V6.32134H62.0581ZM64.4561 17.4997C63.8483 17.4997 63.308 17.3897 63.0072 17.2613L63.5229 15.5439C64.493 15.8189 65.1315 15.7395 65.5551 14.7005L65.7455 14.1932L62.3257 4.60982H64.6833L66.8567 11.6996H66.9549L69.1345 4.60982L71.5105 4.62204L67.7224 15.1344C67.1883 16.6074 66.1875 17.4997 64.4561 17.4997ZM71.6304 12.7878C71.6243 13.5335 72.2321 14.1325 72.9811 14.1325C73.7056 14.1325 74.3257 13.5335 74.3318 12.7878C74.3257 12.0544 73.7056 11.4555 72.9811 11.4555C72.2321 11.4555 71.6243 12.0544 71.6304 12.7878Z" fill="white"/>
</g>
</g>
</g>
</g>
</g>
</g>
</g>
</g>
</g>
</svg>
